<svg width="40" height="40" viewBox="0 0 40 40" fill="none" xmlns="http://www.w3.org/2000/svg">
<path d="M38 20C38 10.0625 29.9375 2 20 2C10.0625 2 2 10.0625 2 20C2 29.9375 10.0625 38 20 38C29.9375 38 38 29.9375 38 20Z" stroke="white" stroke-width="3" stroke-miterlimit="10"/>
<path d="M30.2373 25.3438C28.7063 23.5307 27.6254 22.7685 27.6254 17.7688C27.6254 13.1882 25.2085 11.5597 23.2192 10.7685C23.0819 10.7112 22.9582 10.626 22.8559 10.5181C22.7535 10.4103 22.6748 10.2823 22.6248 10.1422C22.277 8.99381 21.301 8.00006 19.9998 8.00006C18.6985 8.00006 17.7207 8.99381 17.3748 10.1432C17.3251 10.2832 17.2466 10.4113 17.1444 10.5192C17.0422 10.627 16.9185 10.7123 16.7813 10.7694C14.7901 11.5626 12.3751 13.1882 12.3751 17.7697C12.3751 22.7694 11.2932 23.5316 9.76229 25.3447C9.1276 26.0947 9.70135 27.501 10.8114 27.501H29.1873C30.2907 27.5001 30.8692 26.0938 30.2373 25.3438Z" fill="white"/>
<path d="M16.6476 29C16.5948 28.9997 16.5426 29.0106 16.4944 29.0318C16.4461 29.0531 16.4029 29.0843 16.3675 29.1234C16.3321 29.1625 16.3053 29.2086 16.289 29.2588C16.2726 29.3089 16.267 29.3619 16.2726 29.4144C16.4835 31.1694 18.0416 32 20.0001 32C21.9379 32 23.482 31.1422 23.7182 29.42C23.7246 29.3671 23.7197 29.3135 23.7037 29.2627C23.6877 29.2118 23.6611 29.165 23.6256 29.1252C23.5902 29.0855 23.5466 29.0538 23.4979 29.0322C23.4492 29.0106 23.3965 28.9996 23.3432 29H16.6476Z" fill="white"/>
</svg>
