<svg width="70" height="70" viewBox="0 0 70 70" fill="none" xmlns="http://www.w3.org/2000/svg">
<path d="M67 35C67 17.3333 52.6667 3 35 3C17.3333 3 3 17.3333 3 35C3 52.6667 17.3333 67 35 67C52.6667 67 67 52.6667 67 35Z" stroke="#5599DB" stroke-width="5.33333" stroke-miterlimit="10"/>
<path d="M53.1999 44.5C50.4783 41.2767 48.5566 39.9217 48.5566 31.0333C48.5566 22.89 44.2599 19.995 40.7233 18.5883C40.4793 18.4865 40.2594 18.3349 40.0774 18.1432C39.8954 17.9515 39.7555 17.7239 39.6666 17.475C39.0483 15.4333 37.3133 13.6667 34.9999 13.6667C32.6866 13.6667 30.9483 15.4333 30.3333 17.4767C30.2449 17.7256 30.1054 17.9533 29.9237 18.1451C29.742 18.3368 29.5221 18.4884 29.2783 18.59C25.7383 20 21.4449 22.89 21.4449 31.035C21.4449 39.9233 19.5216 41.2783 16.7999 44.5017C15.6716 45.835 16.6916 48.335 18.6649 48.335H51.3333C53.2949 48.3333 54.3233 45.8333 53.1999 44.5Z" fill="#5599DB"/>
<path d="M29.04 51C28.9462 50.9995 28.8534 51.0188 28.7676 51.0566C28.6818 51.0943 28.6049 51.1498 28.542 51.2193C28.4791 51.2889 28.4315 51.3709 28.4025 51.46C28.3734 51.5492 28.3635 51.6434 28.3733 51.7367C28.7483 54.8567 31.5183 56.3334 35 56.3334C38.445 56.3334 41.19 54.8084 41.61 51.7467C41.6213 51.6527 41.6126 51.5573 41.5842 51.4669C41.5558 51.3766 41.5085 51.2933 41.4454 51.2227C41.3823 51.152 41.3049 51.0956 41.2184 51.0572C41.1318 51.0188 41.038 50.9993 40.9433 51H29.04Z" fill="#5599DB"/>
</svg>
