<svg version="1" xmlns="http://www.w3.org/2000/svg" width="933.333" height="933.333" viewBox="0 0 700.000000 700.000000"><path d="M321.5 44c-3.3.5-8.8 1.1-12.2 1.5-3.4.3-7.6 1-9.3 1.5-1.7.5-3.3.9-3.5.9-4-.2-28.9 5.9-42.6 10.5-46.7 15.5-86 39.7-121 74.6-17.6 17.4-28.3 30.4-40.8 49.5-7.7 11.7-20.2 35-25.9 48.1-4.4 10.2-12.9 35-14.7 42.8-.9 4-3.6 16.1-4.1 18.1-.7 2.8-2.7 15.6-4 24.5-2 14.4-2.5 47.8-.9 62.5.7 7.2 1.5 14.3 1.9 17 .2 1.1.7 4 1 6.5.4 2.5.9 5.2 1.1 6 .2.8.7 3.1 1 5 .3 1.9.8 4.3 1.1 5.2.3.9.7 2.6.9 3.9 4.5 23.2 19.2 60.1 34 85.6 20.6 35.1 49.2 67.2 81 91 3.9 2.9 7.5 5.6 8 6 1.6 1.3 12.8 8.7 15 9.9 1.1.6 6.3 3.6 11.5 6.5 7.8 4.5 26 13.4 34.5 16.9 17.6 7.3 47.9 15.8 65.5 18.5 21.7 3.3 30.9 4 52 3.9 15.5 0 34.6-1 36-1.9.3-.2 3.2-.6 6.5-.9 3.3-.4 6.7-.9 7.5-1.1.8-.2 3.1-.7 5-1 10-1.7 32-7.2 33.2-8.4.5-.4-1.7-9.2-4.8-19.6-3.1-10.5-6-20.4-6.4-22-.9-3.2-5.7-19.2-6.4-21.1-.3-.8-2.4-.6-7.3.7-9.9 2.8-26 6.1-36.9 7.5-7.2.9-42.8 1.2-50.4.4-9.8-1.1-15.7-1.9-18.3-2.5-1.2-.3-3.3-.7-4.7-.9-17-2.8-39.8-10.6-60.5-20.6-24.6-12-44.2-25.9-63.5-45-20.2-20-34.4-39.8-46.8-65.1-11.5-23.4-17.5-42.5-22.3-69.9-3-17.8-3.3-51.9-.5-70 .2-1.4.7-4.4 1-6.7.3-2.3 1.1-6.4 1.7-9 .6-2.6 1.3-5.7 1.5-6.9.7-4 6.3-21.9 8.7-28.4 20.5-54.5 57.7-98.4 107.7-126.9 19.6-11.2 51.5-23.2 70.5-26.6 1.7-.2 5.5-.9 8.5-1.5 3-.5 6.7-1.1 8.2-1.4 4.8-.8 22-1.9 30.8-2 9.5 0 31.9 1.2 33 1.9.3.2 2.9.7 5.6 1 2.7.4 10.7 2 17.7 3.6 67.1 15.6 124.8 59.7 157.3 120.4 11.3 21 20.2 44.9 23.8 64.3.9 4.6 1.8 8.7 2 9 .2.4.7 3.6 1.1 7.2.3 3.6.9 7.8 1.2 9.5.9 5.4 1.1 40.8.2 47.5-.4 3.6-1.1 9-1.4 12-.4 3-.9 6.3-1.1 7.2-.3 1-.7 3-1 4.5-.8 5-4.6 19.7-6.5 25.7-1 3.3-1.9 6.5-1.9 7.1 0 .7 2.4 1.9 5.3 2.8 7.2 2.1 18 5.5 39.1 12.2 9.8 3.1 18.2 5.3 18.6 4.8 1.8-1.7 8.4-26.8 11.6-43.6.2-1.2.6-3.1.8-4.2.2-1.2.7-4.8 1.1-8 .4-3.3.9-6.9 1.1-8 .9-4.3 1.8-23.6 1.8-36 0-12.9-1.1-34.3-1.9-35.4-.2-.4-.6-3.3-1-6.6-1-9.4-5.4-29.8-9.1-42.8-26.7-91.9-94.2-166.2-182.5-201-24.9-9.8-49.6-16.2-74.4-19.3-2.7-.3-6.1-.8-7.5-1.1-4.2-.9-54.1-1.1-60.5-.3z"/><path d="M333 167.2c-21.8 2.2-45 8.8-63.1 17.8-6.2 3.1-22.4 12.6-24.4 14.3-.5.4-4.1 3.1-8 6-14.9 11-32.3 30.5-43.7 48.9-4.7 7.6-11.9 21.7-14.4 28.4-.6 1.6-1.7 4.4-2.4 6.2-.8 2-.9 3.7-.4 4.2s7.7 3.4 15.9 6.4c8.3 3 16.2 5.9 17.7 6.5 2.6 1 2.7.8 4.4-4.2 8-24.1 26.9-49.7 49.1-66.4 11.6-8.8 26.3-16.9 35.5-19.7 2.5-.8 5.5-1.9 6.6-2.5 1-.5 3-1.2 4.3-1.5 1.3-.2 5.1-1.1 8.4-1.9 3.3-.9 7.8-1.8 10-2.2 6.7-1.1 35.7-1.4 41.5-.4 3 .5 6.9 1.1 8.5 1.4 4.7.7 16.5 4 22.6 6.3 12.4 4.6 32.9 15.6 35.9 19.2.3.3 1.5 1.3 2.8 2.2 4.8 3.3 14.7 12.6 20.1 18.9 7.8 9.2 8.3 9.9 11.6 14.9 5 7.5 5.4 8.2 9.4 16.1 10.1 20 15.5 43.3 15.2 65.6-.2 12.7-.2 12.1-1.1 18.3-.5 3-1.1 6.8-1.3 8.5-2.2 14.6-10.7 35.8-20.5 51-17.5 27.2-43 47.5-73.2 58.3-15.6 5.5-26.6 7.5-47 8.6-2.4.1-2.5.4-2.4 5.6.1 4.3.8 22.5 1.3 32.8.1 1 2.3 1.1 9.6.7 30.1-1.7 57.9-10.2 84.2-25.7 48.9-28.8 82.5-80.7 89-137.3 1.4-12.2.8-40.7-1.2-51.5-.2-1.4-.6-3.6-.9-5-.2-1.4-1.4-6.3-2.6-11-13.2-51.9-49.5-96.4-98.2-120.2-18-8.7-36.2-14.1-59.8-17.4-6.1-.9-31.2-1-39-.2zM575.7 515.4c-4 1.5-6.9 4.2-9.5 9.1-1.3 2.5-1.6 6.9-1.6 24.7l-.1 21.8h-21.4c-19.8 0-21.8.2-25.8 2.1-9.8 4.7-12.8 18.6-5.8 26.2 5.8 6.1 6 6.2 29.5 6.4 11.8.1 22 .2 22.5.2.6.1 1 8.2 1.1 21.9.1 20.6.2 22.1 2.3 25.8 5.7 10.1 18.4 12 26.9 4.1 4.5-4.1 4.7-5.4 5.2-29.1l.5-22.8 22.7-.2 22.6-.1 3.9-3.1c5.4-4.4 7.5-8.8 7-15.1-.4-6-3.5-11.2-8.2-13.7-4.4-2.4-4.7-2.4-27.7-2.5l-20.7-.1-.3-22.8c-.3-22.4-.4-22.9-2.8-26.4-1.3-2-3.7-4.4-5.2-5.3-3.9-2.2-10.6-2.8-15.1-1.1z"/></svg>