<?xml version="1.0" encoding="UTF-8"?>
<svg width="20px" height="23px" viewBox="0 0 20 23" version="1.1" xmlns="http://www.w3.org/2000/svg" xmlns:xlink="http://www.w3.org/1999/xlink">
    <!-- Generator: Sketch 49.3 (51167) - http://www.bohemiancoding.com/sketch -->
    <title>noun_957670_cc</title>
    <desc>Created with Sketch.</desc>
    <defs></defs>
    <g id="Page-1" stroke="none" stroke-width="1" fill="none" fill-rule="evenodd">
        <g id="TA-QueueDeleted" transform="translate(-69.000000, -136.000000)" fill="#545454" fill-rule="nonzero">
            <g id="PeopleAhead" transform="translate(53.000000, 136.000000)">
                <g id="noun_957670_cc" transform="translate(16.000000, 0.000000)">
                    <g id="Group">
                        <path d="M7.45454545,4.86744186 L6.78787879,4.84069767 L6.51515152,4.84069767 C7.3030303,4.38604651 7.84848485,3.58372093 7.84848485,2.6744186 C7.84848485,1.25697674 6.54545455,0.0802325581 4.90909091,0.0802325581 C3.27272727,0.0802325581 1.96969697,1.23023256 1.96969697,2.6744186 C1.96969697,3.58372093 2.51515152,4.38604651 3.3030303,4.84069767 L3,4.84069767 L2.36363636,4.86744186 C1.15151515,4.92093023 0.212121212,5.85697674 0.303030303,6.92674419 L0.666666667,12.1151163 C0.727272727,12.8906977 1.39393939,13.505814 2.21212121,13.6127907 L2.81818182,21.3953488 C2.87878788,22.4116279 3.60606061,22.8930233 4.33333333,22.8930233 L5.51515152,22.8930233 C6.24242424,22.8930233 6.96969697,22.4383721 7.03030303,21.3953488 L7.63636364,13.6127907 C8.48484848,13.505814 9.15151515,12.8906977 9.18181818,12.1151163 L9.54545455,6.92674419 C9.60606061,5.85697674 8.66666667,4.94767442 7.45454545,4.86744186 Z M2.75757576,2.6744186 C2.75757576,1.63139535 3.72727273,0.775581395 4.90909091,0.775581395 C6.09090909,0.775581395 7.06060606,1.63139535 7.06060606,2.6744186 C7.06060606,3.71744186 6.09090909,4.57325581 4.90909091,4.57325581 C3.72727273,4.6 2.75757576,3.74418605 2.75757576,2.6744186 Z M8.75757576,6.9 L8.39393939,12.1151163 C8.36363636,12.5965116 7.90909091,12.9976744 7.33333333,12.9976744 L7.24242424,12.9976744 C7.03030303,12.9976744 6.87878788,13.1313953 6.87878788,13.3186047 L6.27272727,21.422093 C6.24242424,21.9569767 5.96969697,22.277907 5.51515152,22.277907 L4.33333333,22.277907 C3.90909091,22.277907 3.60606061,21.9569767 3.57575758,21.422093 L2.96969697,13.3453488 C2.96969697,13.1581395 2.78787879,13.0244186 2.60606061,13.0244186 L2.51515152,13.0244186 C1.96969697,13.0244186 1.48484848,12.65 1.45454545,12.1418605 L1.09090909,6.95348837 C1.06060606,6.25813953 1.66666667,5.64302326 2.45454545,5.61627907 L3.09090909,5.58953488 L6.81818182,5.58953488 L7.45454545,5.61627907 C7.45454545,5.61627907 7.45454545,5.61627907 7.45454545,5.61627907 C8.21212121,5.58953488 8.81818182,6.20465116 8.75757576,6.9 Z" id="Shape"></path>
                        <path d="M17.6969697,4.86744186 L17.030303,4.84069767 L16.7575758,4.84069767 C17.5454545,4.38604651 18.0909091,3.58372093 18.0909091,2.6744186 C18.0909091,1.25697674 16.7878788,0.0802325581 15.1515152,0.0802325581 C13.5151515,0.0802325581 12.2121212,1.23023256 12.2121212,2.6744186 C12.2121212,3.58372093 12.7575758,4.38604651 13.5454545,4.84069767 L13.2424242,4.84069767 L12.6060606,4.86744186 C11.3939394,4.92093023 10.4545455,5.85697674 10.5454545,6.92674419 L10.9090909,12.1151163 C10.969697,12.8906977 11.6363636,13.505814 12.4545455,13.6127907 L13.0606061,21.3953488 C13.1212121,22.4116279 13.8484848,22.8930233 14.5757576,22.8930233 L15.7575758,22.8930233 C16.4848485,22.8930233 17.2121212,22.4383721 17.2727273,21.3953488 L17.8787879,13.6127907 C18.7272727,13.505814 19.3939394,12.8906977 19.4242424,12.1151163 L19.7878788,6.92674419 C19.8181818,5.85697674 18.9090909,4.94767442 17.6969697,4.86744186 Z M13,2.6744186 C13,1.63139535 13.969697,0.775581395 15.1515152,0.775581395 C16.3333333,0.775581395 17.3030303,1.63139535 17.3030303,2.6744186 C17.3030303,3.71744186 16.3333333,4.57325581 15.1515152,4.57325581 C13.969697,4.6 13,3.74418605 13,2.6744186 Z M19,6.9 L18.6363636,12.1151163 C18.6060606,12.5965116 18.1515152,12.9976744 17.5757576,12.9976744 L17.4848485,12.9976744 C17.2727273,12.9976744 17.1212121,13.1313953 17.1212121,13.3186047 L16.5151515,21.422093 C16.4848485,21.9569767 16.2121212,22.277907 15.7575758,22.277907 L14.5757576,22.277907 C14.1515152,22.277907 13.8484848,21.9569767 13.8181818,21.422093 L13.2121212,13.3453488 C13.2121212,13.1581395 13.030303,13.0244186 12.8484848,13.0244186 L12.7575758,13.0244186 C12.2121212,13.0244186 11.7272727,12.65 11.6969697,12.1418605 L11.3333333,6.95348837 C11.3030303,6.25813953 11.9090909,5.64302326 12.6969697,5.61627907 L13.3333333,5.58953488 L17.0606061,5.58953488 L17.6969697,5.61627907 C18.4545455,5.58953488 19.0606061,6.20465116 19,6.9 Z" id="Shape"></path>
                    </g>
                </g>
            </g>
        </g>
    </g>
</svg>