<?xml version="1.0" encoding="UTF-8"?>
<svg width="977px" height="390px" viewBox="0 0 977 390" version="1.1" xmlns="http://www.w3.org/2000/svg" xmlns:xlink="http://www.w3.org/1999/xlink">
    <!-- Generator: Sketch 51.3 (57544) - http://www.bohemiancoding.com/sketch -->
    <title>logo1</title>
    <desc>Created with Sketch.</desc>
    <defs>
        <path d="M540.8125,199.5 C522.437408,199.5 509.437538,206.999925 501.8125,222 L501.8125,369 L456.4375,369 L456.4375,166.125 L499.1875,166.125 L500.5,187.3125 C514.875072,170.687417 534.437376,162.375 559.1875,162.375 C586.062634,162.375 604.562449,172.687397 614.6875,193.3125 C629.562574,172.687397 650.374866,162.375 677.125,162.375 C697.750103,162.375 713.999941,168.124942 725.875,179.625 C737.750059,191.125057 743.749999,210.124867 743.875,236.625 L743.875,369 L698.3125,369 L698.3125,237.375 C698.3125,222.374925 695.031283,212.312526 688.46875,207.1875 C681.906217,202.062474 673.000056,199.5 661.75,199.5 C651.374948,199.5 642.906283,202.312472 636.34375,207.9375 C629.781217,213.562528 625.250012,220.874955 622.75,229.875 L622.75,369 L577.1875,369 L577.1875,237.75 C577.1875,223.499929 573.937532,213.562528 567.4375,207.9375 C560.937468,202.312472 552.062556,199.5 540.8125,199.5 Z M958.1875,334.5 C951.687467,344.000047 942.093813,352.74996 929.40625,360.75 C916.718687,368.75004 900.250101,372.75 880,372.75 C849.874849,372.75 826.187586,363.375094 808.9375,344.625 C791.687414,325.874906 783.0625,302.562639 783.0625,274.6875 L783.0625,267 C783.0625,234.99984 791.906162,209.562594 809.59375,190.6875 C827.281338,171.812406 848.999871,162.375 874.75,162.375 C904.250147,162.375 926.093679,171.749906 940.28125,190.5 C954.468821,209.250094 961.5625,233.249854 961.5625,262.5 L961.5625,281.8125 L829,281.8125 C830.250006,297.437578 835.531203,310.406198 844.84375,320.71875 C854.156297,331.031302 866.81242,336.1875 882.8125,336.1875 C903.687604,336.1875 920.624935,327.812584 933.625,311.0625 L958.1875,334.5 Z M874.75,198.9375 C862.249937,198.9375 852.187538,203.312456 844.5625,212.0625 C836.937462,220.812544 832.000011,232.937422 829.75,248.4375 L916.375,248.4375 L916.375,245.0625 C915.749997,233.187441 912.43753,222.531297 906.4375,213.09375 C900.43747,203.656203 889.875076,198.9375 874.75,198.9375 Z" id="path-1"></path>
    </defs>
    <g id="Page-1" stroke="none" stroke-width="1" fill="none" fill-rule="evenodd">
        <g id="logo1" transform="translate(15.000000, 15.000000)">
            <g id="me">
                <use fill="#000000" xlink:href="#path-1"></use>
                <use fill="#FFFFFF" xlink:href="#path-1"></use>
            </g>
            <g id="Q">
                <circle id="Oval-17" stroke="#FFFFFF" stroke-width="28.8" cx="180" cy="180" r="180"></circle>
                <circle id="Oval-14" fill="#FFFFFF" fill-rule="nonzero" cx="246" cy="258" r="30"></circle>
                <circle id="Oval-14-Copy-4" fill="#F67D7D" fill-rule="nonzero" cx="366" cy="342" r="30"></circle>
            </g>
        </g>
    </g>
</svg>