<?xml version="1.0" encoding="UTF-8"?>
<svg width="80px" height="35px" viewBox="0 0 80 35" version="1.1" xmlns="http://www.w3.org/2000/svg" xmlns:xlink="http://www.w3.org/1999/xlink">
    <!-- Generator: Sketch 48.1 (47250) - http://www.bohemiancoding.com/sketch -->
    <title>Q.ME LogoText</title>
    <desc>Created with Sketch.</desc>
    <defs></defs>
    <g id="QMeLoadingScreen" stroke="none" stroke-width="1" fill="none" fill-rule="evenodd" transform="translate(-146.000000, -121.000000)">
        <g id="Q.ME-LogoText" transform="translate(148.000000, 123.000000)">
            <g id="QmeLogoText">
                <path d="M37.75,32 L37.75,15.75 L40.3125,15.75 L40.3125,18.34375 L40.375,18.34375 C40.7604186,17.4791623 41.3515585,16.7838568 42.1484375,16.2578125 C42.9453165,15.7317682 43.8906195,15.46875 44.984375,15.46875 C46.0989639,15.46875 47.0494752,15.7369765 47.8359375,16.2734375 C48.6223998,16.8098985 49.1927066,17.5729117 49.546875,18.5625 L49.609375,18.5625 C50.0677106,17.5937452 50.7473913,16.8359402 51.6484375,16.2890625 C52.5494837,15.7421848 53.5677027,15.46875 54.703125,15.46875 C56.3177164,15.46875 57.6041619,15.950516 58.5625,16.9140625 C59.5208381,17.877609 60,19.1666586 60,20.78125 L60,32 L57.28125,32 L57.28125,21.40625 C57.28125,20.2916611 56.9869821,19.4244823 56.3984375,18.8046875 C55.8098929,18.1848927 54.979172,17.875 53.90625,17.875 C52.833328,17.875 51.9531284,18.2317673 51.265625,18.9453125 C50.5781216,19.6588577 50.234375,20.5677028 50.234375,21.671875 L50.234375,32 L47.515625,32 L47.515625,21.109375 C47.515625,20.1302034 47.2135447,19.3463571 46.609375,18.7578125 C46.0052053,18.1692679 45.1979217,17.875 44.1875,17.875 C43.114578,17.875 42.226566,18.2499962 41.5234375,19 C40.820309,19.7500037 40.46875,20.6874944 40.46875,21.8125 L40.46875,32 L37.75,32 Z M70.34375,17.828125 C69.0729103,17.828125 68.0260458,18.2656206 67.203125,19.140625 C66.3802042,20.0156294 65.9270838,21.1302016 65.84375,22.484375 L74.671875,22.484375 C74.6406248,21.1197848 74.2317748,20.0026085 73.4453125,19.1328125 C72.6588502,18.2630165 71.6250064,17.828125 70.34375,17.828125 Z M74.609375,27.34375 L77.28125,27.34375 C77.0520822,28.7604238 76.3099021,29.9374953 75.0546875,30.875 C73.7994729,31.8125047 72.2864672,32.28125 70.515625,32.28125 C68.1926967,32.28125 66.36459,31.5286534 65.03125,30.0234375 C63.69791,28.5182216 63.03125,26.4895961 63.03125,23.9375 C63.03125,21.4166541 63.69791,19.3750078 65.03125,17.8125 C66.36459,16.2499922 68.1510305,15.46875 70.390625,15.46875 C72.5885527,15.46875 74.3203062,16.2057218 75.5859375,17.6796875 C76.8515688,19.1536532 77.484375,21.1197794 77.484375,23.578125 L77.484375,24.609375 L65.828125,24.609375 L65.828125,24.765625 C65.828125,26.3177161 66.2552041,27.5650995 67.109375,28.5078125 C67.9635459,29.4505255 69.1197844,29.921875 70.578125,29.921875 C71.6093802,29.921875 72.4817673,29.6822941 73.1953125,29.203125 C73.9088577,28.7239559 74.3802072,28.1041705 74.609375,27.34375 Z" id="me" stroke="#FFFFFF" fill="#FFFFFF"></path>
                <g id="Q">
                    <circle id="Oval-17" stroke="#FFFFFF" stroke-width="2.4" cx="15" cy="15" r="15"></circle>
                    <circle id="Oval-14" fill="#FFFFFF" cx="20.5" cy="21.5" r="2.5"></circle>
                    <circle id="Oval-14-Copy-4" fill="#F67D7D" cx="30.5" cy="28.5" r="2.5"></circle>
                </g>
            </g>
        </g>
    </g>
</svg>