<?xml version="1.0"?>
<svg xmlns="http://www.w3.org/2000/svg" xmlns:xlink="http://www.w3.org/1999/xlink" version="1.1" viewBox="0 0 252 252" width="96px" height="96px"><g fill="none" fill-rule="nonzero" stroke="none" stroke-width="1" stroke-linecap="butt" stroke-linejoin="miter" stroke-miterlimit="10" stroke-dasharray="" stroke-dashoffset="0" font-family="none" font-weight="none" font-size="none" text-anchor="none" style="mix-blend-mode: normal"><path d="M0,252v-252h252v252z" fill="#ecf0f1"/><g fill="#000000"><g id="surface1"><path d="M126,31.5c-30.36182,0 -55.125,24.76318 -55.125,55.125c0,18.85693 9.59766,35.59131 24.11719,45.52734c-28.17773,11.99707 -47.74219,39.99023 -47.74219,72.59766h15.75c0,-35.16065 27.83935,-63 63,-63c35.16065,0 63,27.83935 63,63h15.75c0,-32.60742 -19.56445,-60.60058 -47.74219,-72.59766c14.51953,-9.93604 24.11719,-26.67041 24.11719,-45.52734c0,-30.36182 -24.76318,-55.125 -55.125,-55.125zM126,47.25c21.84082,0 39.375,17.53418 39.375,39.375c0,21.84082 -17.53418,39.375 -39.375,39.375c-21.84082,0 -39.375,-17.53418 -39.375,-39.375c0,-21.84082 17.53418,-39.375 39.375,-39.375z"/></g></g></g></svg>
