<svg width="134" height="285" viewBox="0 0 134 285" fill="none" xmlns="http://www.w3.org/2000/svg">
<path opacity="0.87" d="M117.949 182.883V209.916C117.949 222.273 116.699 232.829 114.198 241.582C111.697 250.335 108.093 257.507 103.385 263.098C98.6773 268.614 93.0502 272.697 86.5035 275.345C79.9569 277.919 72.6747 279.207 64.657 279.207C58.2575 279.207 52.2993 278.398 46.7825 276.779C41.2657 275.088 36.3006 272.513 31.8871 269.056C27.5473 265.525 23.7958 261.038 20.6329 255.595C17.5434 250.152 15.1528 243.642 13.461 236.065C11.8427 228.489 11.0336 219.772 11.0336 209.916V182.883C11.0336 170.526 12.2841 160.007 14.785 151.327C17.3596 142.647 21.0006 135.549 25.7083 130.032C30.416 124.515 36.0431 120.507 42.5898 118.006C49.1364 115.431 56.4186 114.144 64.4363 114.144C70.9094 114.144 76.8675 114.953 82.3108 116.571C87.8276 118.189 92.7559 120.727 97.0958 124.184C101.509 127.568 105.261 131.982 108.35 137.425C111.44 142.794 113.793 149.268 115.412 156.844C117.103 164.347 117.949 173.027 117.949 182.883ZM88.8206 213.888V178.801C88.8206 172.622 88.4528 167.252 87.7172 162.692C87.0552 158.058 86.0622 154.122 84.7382 150.886C83.4141 147.649 81.7591 145.038 79.773 143.052C77.787 140.992 75.5067 139.484 72.9322 138.528C70.3577 137.572 67.5257 137.094 64.4363 137.094C60.6113 137.094 57.1909 137.866 54.1751 139.411C51.1592 140.882 48.6215 143.236 46.5619 146.472C44.5022 149.709 42.9208 154.012 41.8174 159.382C40.7876 164.678 40.2727 171.151 40.2727 178.801V213.888C40.2727 220.067 40.6037 225.473 41.2657 230.107C42.0013 234.741 43.0311 238.713 44.3551 242.023C45.7527 245.334 47.4078 248.055 49.3203 250.188C51.3063 252.248 53.5866 253.793 56.1611 254.822C58.7356 255.779 61.5676 256.257 64.657 256.257C68.5555 256.257 71.976 255.484 74.9182 253.94C77.9341 252.395 80.4718 249.968 82.5314 246.658C84.5911 243.274 86.1358 238.897 87.1656 233.528C88.2689 228.084 88.8206 221.538 88.8206 213.888Z" fill="#080680"/>
</svg>
