<svg width="140" height="277" viewBox="0 0 140 277" fill="none" xmlns="http://www.w3.org/2000/svg">
<path opacity="0.87" d="M120.377 254.05V277H11.5853V257.36L63.7743 200.978C69.2175 194.8 73.5207 189.43 76.6836 184.869C79.8466 180.309 82.0901 176.19 83.4141 172.512C84.8117 168.76 85.5105 165.193 85.5105 161.809C85.5105 156.881 84.6278 152.578 82.8625 148.9C81.0971 145.148 78.5226 142.243 75.1389 140.183C71.8288 138.124 67.7464 137.094 62.8916 137.094C57.5219 137.094 52.9246 138.344 49.0996 140.845C45.3482 143.273 42.4794 146.656 40.4934 150.996C38.5809 155.336 37.6246 160.301 37.6246 165.891H8.38555C8.38555 156.403 10.5923 147.76 15.0057 139.962C19.4192 132.092 25.7451 125.803 33.9835 121.095C42.222 116.387 52.0051 114.033 63.333 114.033C74.3666 114.033 83.7084 115.872 91.3583 119.55C99.0083 123.155 104.819 128.304 108.791 134.997C112.764 141.691 114.75 149.672 114.75 158.94C114.75 164.089 113.904 169.165 112.212 174.167C110.52 179.169 108.129 184.134 105.04 189.062C102.024 193.917 98.4198 198.845 94.2271 203.847C90.0343 208.849 85.3634 213.961 80.2144 219.184L48.8789 254.05H120.377Z" fill="#080680"/>
</svg>
