<svg width="136" height="280" viewBox="0 0 136 280" fill="none" xmlns="http://www.w3.org/2000/svg">
<path opacity="0.87" d="M43.4724 183.766H59.9125C65.7236 183.766 70.5048 182.773 74.2562 180.787C78.0812 178.727 80.9132 175.932 82.7521 172.401C84.6646 168.797 85.6209 164.641 85.6209 159.933C85.6209 155.299 84.7749 151.29 83.0831 147.907C81.3913 144.449 78.8168 141.801 75.3596 139.962C71.976 138.05 67.6361 137.094 62.3399 137.094C58.0736 137.094 54.1383 137.94 50.534 139.631C47.0032 141.323 44.1712 143.751 42.0381 146.914C39.9785 150.003 38.9487 153.718 38.9487 158.058H9.70958C9.70958 149.378 11.9899 141.765 16.5504 135.218C21.1845 128.598 27.4369 123.412 35.3076 119.661C43.1782 115.909 51.9683 114.033 61.6779 114.033C72.2702 114.033 81.5384 115.799 89.4826 119.33C97.5004 122.787 103.716 127.899 108.129 134.666C112.616 141.434 114.86 149.819 114.86 159.823C114.86 164.604 113.72 169.385 111.44 174.167C109.233 178.874 105.959 183.141 101.62 186.966C97.3533 190.717 92.0939 193.77 85.8415 196.124C79.6627 198.404 72.5644 199.544 64.5467 199.544H43.4724V183.766ZM43.4724 206.275V190.717H64.5467C73.5942 190.717 81.4281 191.784 88.0483 193.917C94.742 195.976 100.259 198.919 104.599 202.744C108.939 206.495 112.138 210.872 114.198 215.874C116.331 220.876 117.398 226.245 117.398 231.983C117.398 239.486 116 246.179 113.205 252.064C110.41 257.875 106.474 262.803 101.399 266.849C96.397 270.895 90.5124 273.984 83.7451 276.117C76.9779 278.177 69.6589 279.207 61.7882 279.207C54.9474 279.207 48.2905 278.287 41.8174 276.448C35.4179 274.536 29.6436 271.704 24.4946 267.952C19.3456 264.127 15.2632 259.346 12.2473 253.609C9.23146 247.798 7.72353 241.067 7.72353 233.417H36.9626C36.9626 237.831 38.0292 241.766 40.1624 245.223C42.3691 248.68 45.3849 251.402 49.2099 253.388C53.1085 255.301 57.4851 256.257 62.3399 256.257C67.7096 256.257 72.307 255.301 76.1319 253.388C80.0305 251.402 83.0096 248.607 85.0692 245.003C87.1288 241.325 88.1586 236.948 88.1586 231.873C88.1586 225.841 87.0184 220.949 84.7382 217.198C82.4579 213.446 79.1846 210.688 74.9182 208.923C70.7255 207.157 65.7236 206.275 59.9125 206.275H43.4724Z" fill="#080680"/>
</svg>
