<svg width="141" height="280" viewBox="0 0 141 280" fill="none" xmlns="http://www.w3.org/2000/svg">
<path opacity="0.87" d="M40.4934 203.075L17.2124 197.448L26.1497 116.351H114.529V140.514H50.3133L46.1205 178.028C48.4008 176.631 51.7109 175.233 56.0508 173.836C60.4642 172.365 65.4293 171.629 70.9461 171.629C78.5961 171.629 85.437 172.879 91.4687 175.38C97.5004 177.808 102.613 181.339 106.805 185.973C111.072 190.607 114.271 196.271 116.405 202.964C118.611 209.585 119.715 217.087 119.715 225.473C119.715 232.829 118.611 239.743 116.405 246.216C114.271 252.616 110.998 258.316 106.585 263.318C102.171 268.247 96.6177 272.145 89.924 275.014C83.2302 277.809 75.3596 279.207 66.312 279.207C59.4712 279.207 52.8878 278.214 46.5619 276.228C40.3095 274.168 34.6823 271.189 29.6804 267.29C24.6785 263.318 20.6696 258.464 17.6538 252.726C14.7115 246.989 13.0932 240.405 12.799 232.976H41.5967C42.1116 237.904 43.4357 242.097 45.5688 245.554C47.702 249.011 50.4972 251.659 53.9544 253.498C57.4851 255.337 61.5676 256.257 66.2017 256.257C70.3945 256.257 73.9988 255.484 77.0146 253.94C80.104 252.321 82.6418 250.078 84.6278 247.209C86.6139 244.34 88.085 240.957 89.0413 237.058C89.9975 233.16 90.4756 228.893 90.4756 224.259C90.4756 219.772 89.924 215.69 88.8206 212.012C87.7172 208.261 86.0254 205.024 83.7451 202.302C81.4649 199.581 78.5961 197.484 75.1389 196.013C71.7553 194.542 67.7832 193.807 63.2226 193.807C57.1173 193.807 52.4097 194.726 49.0996 196.565C45.8631 198.404 42.9943 200.574 40.4934 203.075Z" fill="#080680"/>
</svg>
