<svg width="126" height="280" viewBox="0 0 126 280" fill="none" xmlns="http://www.w3.org/2000/svg">
<path opacity="0.87" d="M92.6824 115.027H96.6545V138.528H94.7788C85.8783 138.528 78.0444 139.889 71.2772 142.611C64.5834 145.332 58.9931 149.157 54.5061 154.086C50.0926 158.94 46.7458 164.715 44.4655 171.408C42.1852 178.028 41.045 185.274 41.045 193.145V219.184C41.045 225.289 41.6703 230.659 42.9208 235.293C44.2448 239.853 46.047 243.715 48.3272 246.878C50.6811 249.968 53.4027 252.285 56.4921 253.829C59.6551 255.374 63.1123 256.146 66.8637 256.146C70.6151 256.146 73.9988 255.374 77.0146 253.829C80.0305 252.285 82.605 250.115 84.7382 247.32C86.9449 244.451 88.5999 241.104 89.7033 237.279C90.8802 233.454 91.4687 229.261 91.4687 224.701C91.4687 220.214 90.917 216.058 89.8136 212.233C88.7103 208.408 87.092 205.061 84.9588 202.192C82.8257 199.25 80.1776 197.006 77.0146 195.462C73.9252 193.843 70.3945 193.034 66.4224 193.034C61.2733 193.034 56.676 194.248 52.6303 196.675C48.5847 199.029 45.3849 202.119 43.0311 205.944C40.6773 209.769 39.39 213.814 39.1693 218.08L29.3494 213.226C29.7172 206.973 31.0412 201.236 33.3215 196.013C35.6754 190.791 38.8015 186.23 42.7001 182.332C46.6722 178.433 51.3431 175.417 56.7128 173.284C62.156 171.151 68.1877 170.084 74.8079 170.084C82.4579 170.084 89.1516 171.555 94.8891 174.498C100.627 177.366 105.371 181.302 109.122 186.304C112.947 191.306 115.816 197.08 117.729 203.626C119.641 210.1 120.597 216.94 120.597 224.149C120.597 231.873 119.347 239.081 116.846 245.775C114.419 252.469 110.888 258.316 106.254 263.318C101.62 268.32 96.0292 272.219 89.4826 275.014C82.936 277.809 75.5803 279.207 67.4154 279.207C58.8092 279.207 51.0856 277.588 44.2448 274.352C37.4775 271.115 31.6665 266.628 26.8117 260.891C21.9569 255.153 18.2422 248.46 15.6677 240.81C13.0932 233.16 11.806 224.885 11.806 215.984V204.288C11.806 191.71 13.5346 180.015 16.9918 169.202C20.449 158.389 25.5612 148.937 32.3285 140.845C39.1693 132.68 47.6284 126.354 57.7058 121.867C67.7832 117.307 79.442 115.027 92.6824 115.027Z" fill="#080680"/>
</svg>
