<svg width="129" height="280" viewBox="0 0 129 280" fill="none" xmlns="http://www.w3.org/2000/svg">
<path opacity="0.87" d="M118.17 233.086C118.17 243.09 115.816 251.549 111.109 258.464C106.474 265.304 100.112 270.49 92.0204 274.021C84.0026 277.478 74.8815 279.207 64.657 279.207C54.5061 279.207 45.3482 277.478 37.1833 274.021C29.092 270.49 22.6557 265.304 17.8745 258.464C13.1668 251.549 10.8129 243.09 10.8129 233.086C10.8129 226.392 12.137 220.324 14.785 214.881C17.5067 209.437 21.2581 204.767 26.0393 200.868C30.8206 196.896 36.4845 193.88 43.0311 191.82C49.5777 189.687 56.7128 188.621 64.4363 188.621C74.7344 188.621 83.929 190.496 92.0204 194.248C100.185 197.926 106.585 203.112 111.219 209.805C115.853 216.425 118.17 224.186 118.17 233.086ZM88.8206 231.321C88.8206 226.172 87.7908 221.722 85.7312 217.97C83.7451 214.145 80.9132 211.203 77.2353 209.143C73.5574 207.084 69.2911 206.054 64.4363 206.054C59.508 206.054 55.2049 207.084 51.527 209.143C47.9227 211.203 45.0907 214.145 43.0311 217.97C41.045 221.722 40.052 226.172 40.052 231.321C40.052 236.543 41.045 241.03 43.0311 244.782C45.0907 248.46 47.9594 251.292 51.6373 253.278C55.3152 255.264 59.6551 256.257 64.657 256.257C69.6589 256.257 73.962 255.264 77.5663 253.278C81.1706 251.292 83.929 248.46 85.8415 244.782C87.8276 241.03 88.8206 236.543 88.8206 231.321ZM114.639 158.72C114.639 166.811 112.506 174.02 108.24 180.346C103.973 186.598 98.0521 191.489 90.4756 195.02C82.9728 198.551 74.3666 200.316 64.657 200.316C54.9474 200.316 46.2676 198.551 38.6177 195.02C31.0412 191.489 25.0831 186.598 20.7432 180.346C16.4769 174.02 14.3437 166.811 14.3437 158.72C14.3437 149.157 16.5136 141.066 20.8535 134.446C25.1934 127.752 31.1148 122.676 38.6177 119.219C46.1941 115.762 54.8003 114.033 64.4363 114.033C74.2195 114.033 82.8992 115.762 90.4756 119.219C98.0521 122.676 103.973 127.752 108.24 134.446C112.506 141.066 114.639 149.157 114.639 158.72ZM85.5105 159.933C85.5105 155.373 84.6646 151.401 82.9728 148.017C81.281 144.56 78.8536 141.875 75.6906 139.962C72.6012 138.05 68.8498 137.094 64.4363 137.094C60.17 137.094 56.4921 138.013 53.4027 139.852C50.3133 141.691 47.9227 144.339 46.2308 147.796C44.539 151.18 43.6931 155.226 43.6931 159.933C43.6931 164.567 44.539 168.613 46.2308 172.07C47.9227 175.528 50.3133 178.249 53.4027 180.235C56.5657 182.148 60.3171 183.104 64.657 183.104C68.9969 183.104 72.7115 182.148 75.8009 180.235C78.8904 178.249 81.281 175.528 82.9728 172.07C84.6646 168.613 85.5105 164.567 85.5105 159.933Z" fill="#080680"/>
</svg>
