<svg width="129" height="279" viewBox="0 0 129 279" fill="none" xmlns="http://www.w3.org/2000/svg">
<path opacity="0.87" d="M33.5422 254.381H35.6386C45.1275 254.381 53.1452 253.167 59.6919 250.74C66.312 248.313 71.6449 244.892 75.6906 240.479C79.8098 235.992 82.7889 230.659 84.6278 224.48C86.5403 218.228 87.4966 211.313 87.4966 203.737V174.608C87.4966 168.429 86.8713 163.023 85.6209 158.389C84.3704 153.681 82.605 149.746 80.3247 146.583C78.118 143.42 75.5067 141.066 72.4909 139.521C69.475 137.903 66.2385 137.094 62.7813 137.094C58.9563 137.094 55.5726 137.976 52.6303 139.742C49.688 141.507 47.1871 143.935 45.1275 147.024C43.1414 150.04 41.5967 153.534 40.4934 157.506C39.4636 161.478 38.9487 165.671 38.9487 170.084C38.9487 174.351 39.4268 178.433 40.383 182.332C41.4128 186.23 42.9208 189.687 44.9068 192.703C46.9664 195.719 49.5409 198.11 52.6303 199.875C55.7198 201.567 59.3241 202.413 63.4433 202.413C67.3418 202.413 70.8726 201.677 74.0356 200.206C77.2721 198.661 80.0673 196.639 82.4211 194.138C84.7749 191.563 86.5771 188.731 87.8276 185.642C89.1516 182.479 89.8872 179.279 90.0343 176.042L100.296 180.456C100.296 185.826 99.1554 191.122 96.8751 196.344C94.6684 201.567 91.5422 206.311 87.4966 210.578C83.5245 214.77 78.8904 218.154 73.5942 220.729C68.2981 223.23 62.5974 224.48 56.4921 224.48C48.9157 224.48 42.222 223.082 36.4109 220.287C30.5999 217.492 25.7083 213.63 21.7362 208.702C17.8377 203.7 14.8954 197.963 12.9093 191.489C10.9233 184.943 9.93025 177.955 9.93025 170.526C9.93025 162.802 11.144 155.557 13.5713 148.789C15.9987 141.949 19.4927 135.954 24.0533 130.805C28.6874 125.582 34.2778 121.5 40.8244 118.557C47.371 115.541 54.7267 114.033 62.8916 114.033C71.3507 114.033 78.8904 115.689 85.5105 118.999C92.1307 122.309 97.7578 126.906 102.392 132.791C107.026 138.602 110.557 145.479 112.984 153.424C115.485 161.368 116.736 170.047 116.736 179.463V189.724C116.736 199.654 115.743 209.07 113.757 217.97C111.771 226.871 108.718 234.999 104.599 242.354C100.479 249.71 95.2201 256.073 88.8206 261.443C82.4947 266.812 74.9182 270.968 66.0914 273.911C57.338 276.779 47.3342 278.214 36.0799 278.214H33.5422V254.381Z" fill="#080680"/>
</svg>
