<svg width="147" height="280" viewBox="0 0 147 280" fill="none" xmlns="http://www.w3.org/2000/svg">
<path opacity="0.87" d="M130.949 182.883V209.916C130.949 222.273 129.699 232.829 127.198 241.582C124.697 250.335 121.093 257.507 116.385 263.098C111.677 268.614 106.05 272.697 99.5035 275.345C92.9569 277.919 85.6747 279.207 77.657 279.207C71.2575 279.207 65.2993 278.398 59.7825 276.779C54.2657 275.088 49.3006 272.513 44.8871 269.056C40.5473 265.525 36.7958 261.038 33.6329 255.595C30.5434 250.152 28.1528 243.642 26.461 236.065C24.8427 228.489 24.0336 219.772 24.0336 209.916V182.883C24.0336 170.526 25.2841 160.007 27.785 151.327C30.3596 142.647 34.0006 135.549 38.7083 130.032C43.416 124.515 49.0431 120.507 55.5898 118.006C62.1364 115.431 69.4186 114.144 77.4363 114.144C83.9094 114.144 89.8675 114.953 95.3108 116.571C100.828 118.189 105.756 120.727 110.096 124.184C114.509 127.568 118.261 131.982 121.35 137.425C124.44 142.794 126.793 149.268 128.412 156.844C130.103 164.347 130.949 173.027 130.949 182.883ZM101.821 213.888V178.801C101.821 172.622 101.453 167.252 100.717 162.692C100.055 158.058 99.0622 154.122 97.7382 150.886C96.4141 147.649 94.7591 145.038 92.773 143.052C90.787 140.992 88.5067 139.484 85.9322 138.528C83.3577 137.572 80.5257 137.094 77.4363 137.094C73.6113 137.094 70.1909 137.866 67.1751 139.411C64.1592 140.882 61.6215 143.236 59.5619 146.472C57.5022 149.709 55.9208 154.012 54.8174 159.382C53.7876 164.678 53.2727 171.151 53.2727 178.801V213.888C53.2727 220.067 53.6037 225.473 54.2657 230.107C55.0013 234.741 56.0311 238.713 57.3551 242.023C58.7527 245.334 60.4078 248.055 62.3203 250.188C64.3063 252.248 66.5866 253.793 69.1611 254.822C71.7356 255.779 74.5676 256.257 77.657 256.257C81.5555 256.257 84.976 255.484 87.9182 253.94C90.9341 252.395 93.4718 249.968 95.5314 246.658C97.5911 243.274 99.1358 238.897 100.166 233.528C101.269 228.084 101.821 221.538 101.821 213.888Z" fill="#080680"/>
<path fill-rule="evenodd" clip-rule="evenodd" d="M46.9962 109.971L46.3747 102.88L45.3469 102.69L43.6044 109.343L46.9962 109.971Z" fill="#B28B67"/>
<path fill-rule="evenodd" clip-rule="evenodd" d="M42.3054 105.663C43.3379 106.143 47.6754 104.746 47.8272 101.579C47.9789 98.4132 43.6603 98.3129 42.6515 99.7375C41.6427 101.162 41.2729 105.183 42.3054 105.663Z" fill="#B28B67"/>
<path fill-rule="evenodd" clip-rule="evenodd" d="M46.6673 105.021C47.3274 103.139 48.7101 102.029 48.6256 101.118C48.5692 100.51 48.279 100.085 47.7551 99.842C47.6112 98.6313 46.7672 97.9709 45.223 97.8609C42.9067 97.696 41.3976 98.4095 41.7494 100.661C42.3033 100.764 42.9959 100.683 43.8793 101.207C44.1596 101.373 44.3289 101.758 44.3872 102.361L44.805 102.439C45.2912 101.826 45.7206 101.647 46.0934 101.902C46.4662 102.158 46.5038 102.618 46.2064 103.283L46.2228 104.938L46.6673 105.021Z" fill="#101030"/>
<path fill-rule="evenodd" clip-rule="evenodd" d="M50.5229 120.727L34.6485 133.6L22.1887 144.874L20.5676 144.213L43.9469 118.046L50.5229 120.727Z" fill="#997659"/>
<path fill-rule="evenodd" clip-rule="evenodd" d="M23.0232 144.236C23.0357 144.727 23.0059 145.077 22.9337 145.287C22.8473 145.537 22.68 145.886 22.4318 146.333C22.1441 146.216 19.5587 145.163 14.6756 143.173C14.706 142.418 14.9476 142.102 15.4004 142.225C15.8531 142.348 16.2306 142.447 16.5327 142.521L20.7089 142.365C20.7831 142.362 20.848 142.422 20.8539 142.499C20.854 142.5 20.8541 142.501 20.8542 142.502L20.8908 143.176C21.2276 143.53 21.5216 143.757 21.7729 143.86C21.9809 143.945 22.2995 143.976 22.7286 143.953C22.8767 143.946 23.0081 144.064 23.0221 144.217C23.0227 144.224 23.023 144.23 23.0232 144.236Z" fill="#E4E4E4"/>
<path fill-rule="evenodd" clip-rule="evenodd" d="M25.0949 143.471L22.2909 141.235C25.0882 137.649 28.3383 133.773 32.0413 129.607C35.7443 125.441 39.5348 121.509 43.4128 117.812L52.2617 121.422C47.7065 126.242 43.1823 130.465 38.6891 134.09C34.1959 137.715 29.6645 140.842 25.0949 143.471Z" fill="#DB2721"/>
<path fill-rule="evenodd" clip-rule="evenodd" d="M50.6275 123.938C46.989 128.416 42.7711 134.636 42.7219 134.921C42.6891 135.112 44.5669 139.328 48.3553 147.569L47.0687 148.186C41.2982 139.44 38.5125 134.612 38.7117 133.701C39.0105 132.334 42.9654 123.385 46.0179 118.605L50.6275 123.938Z" fill="#B28B67"/>
<path fill-rule="evenodd" clip-rule="evenodd" d="M47.8559 145.614L45.5599 146.542C39.8402 140.501 37.0227 136.252 37.1073 133.798C37.1919 131.343 40.5568 125.947 47.202 117.608L53.2212 125.068C47.5015 131.551 44.5578 134.974 44.3901 135.336C44.2224 135.698 45.3777 139.123 47.8559 145.614Z" fill="#FF4133"/>
<path fill-rule="evenodd" clip-rule="evenodd" d="M48.2782 145.94C48.7323 146.027 49.051 146.128 49.2345 146.242C49.4539 146.378 49.753 146.614 50.1318 146.95C49.9851 147.209 48.6668 149.543 46.1769 153.95C45.4846 153.767 45.2257 153.464 45.4001 153.043C45.5745 152.622 45.716 152.27 45.8246 151.987L46.2421 147.84C46.2495 147.766 46.3136 147.714 46.3852 147.724C46.3863 147.724 46.3873 147.724 46.3883 147.724L47.0145 147.825C47.3855 147.566 47.635 147.322 47.7632 147.095C47.8692 146.908 47.9408 146.6 47.9777 146.173C47.9905 146.025 48.1172 145.92 48.2606 145.937C48.2665 145.938 48.2724 145.939 48.2782 145.94Z" fill="#E4E4E4"/>
<path fill-rule="evenodd" clip-rule="evenodd" d="M36.5647 115.297L30.7861 114.342C29.6103 113.659 28.535 113.189 27.5602 112.932C27.2882 112.917 26.8601 113.006 27.526 113.57C28.192 114.135 28.8698 114.758 28.7668 115.047C28.6639 115.336 28.0607 115.211 27.9797 115.657C27.9256 115.955 28.8994 116.03 30.901 115.882L35.6397 117.893L36.5647 115.297Z" fill="#997659"/>
<path fill-rule="evenodd" clip-rule="evenodd" d="M45.5688 106.697L43.0928 106.794C42.7193 112.404 39.5386 115.862 32.0297 114.444L31.3454 121.663C38.3548 122.78 44.348 120.117 45.2758 112.468C45.5159 110.487 45.6844 108.424 45.5688 106.697Z" fill="#AFB9C5"/>
<path fill-rule="evenodd" clip-rule="evenodd" d="M55.022 116.941C57.7559 124.509 59.2741 128.588 59.5766 129.178C59.7985 129.61 61.3737 130.946 62.461 131.713C62.8974 132.021 62.7349 132.399 62.5777 132.496C61.2995 133.29 60.4034 132.296 59.2521 131.732C57.9907 131.114 58.1552 132.78 57.1559 132.308C57.433 131.624 58.0927 130.355 57.7288 129.503C57.5671 129.124 55.6128 124.917 51.8658 116.881L55.022 116.941Z" fill="#B28B67"/>
<path fill-rule="evenodd" clip-rule="evenodd" d="M52.1132 122.573L40.7299 122.266C41.5877 117.473 43.4701 113.345 43.2062 106.788L46.9241 106.014C49.7931 110.319 51.2989 115.566 52.1132 122.573Z" fill="#C5CFD6"/>
<path fill-rule="evenodd" clip-rule="evenodd" d="M52.1785 122.489L48.8791 122.404C49.5398 119.24 49.3224 114.054 48.2268 106.847C50.7614 111.101 51.4401 115.55 52.1785 122.489Z" fill="black" fill-opacity="0.1"/>
<path fill-rule="evenodd" clip-rule="evenodd" d="M47.3161 106C53.0327 111.223 56.9324 118.495 59.0153 127.815L51.4625 127.613C50.9474 119.799 49.6412 112.878 46.3937 106.82L47.0714 105.993L47.3161 106Z" fill="#C5CFD6"/>
</svg>
