<svg width="147" height="280" viewBox="0 0 147 280" fill="none" xmlns="http://www.w3.org/2000/svg">
<path opacity="0.87" d="M130.949 182.883V209.916C130.949 222.273 129.699 232.829 127.198 241.582C124.697 250.335 121.093 257.507 116.385 263.098C111.677 268.614 106.05 272.697 99.5035 275.345C92.9569 277.919 85.6747 279.207 77.657 279.207C71.2575 279.207 65.2993 278.398 59.7825 276.779C54.2657 275.088 49.3006 272.513 44.8871 269.056C40.5473 265.525 36.7958 261.038 33.6329 255.595C30.5434 250.152 28.1528 243.642 26.461 236.065C24.8427 228.489 24.0336 219.772 24.0336 209.916V182.883C24.0336 170.526 25.2841 160.007 27.785 151.327C30.3596 142.647 34.0006 135.549 38.7083 130.032C43.416 124.515 49.0431 120.507 55.5898 118.006C62.1364 115.431 69.4186 114.144 77.4363 114.144C83.9094 114.144 89.8675 114.953 95.3108 116.571C100.828 118.189 105.756 120.727 110.096 124.184C114.509 127.568 118.261 131.982 121.35 137.425C124.44 142.794 126.793 149.268 128.412 156.844C130.103 164.347 130.949 173.027 130.949 182.883ZM101.821 213.888V178.801C101.821 172.622 101.453 167.252 100.717 162.692C100.055 158.058 99.0622 154.122 97.7382 150.886C96.4141 147.649 94.7591 145.038 92.773 143.052C90.787 140.992 88.5067 139.484 85.9322 138.528C83.3577 137.572 80.5257 137.094 77.4363 137.094C73.6113 137.094 70.1909 137.866 67.1751 139.411C64.1592 140.882 61.6215 143.236 59.5619 146.472C57.5022 149.709 55.9208 154.012 54.8174 159.382C53.7876 164.678 53.2727 171.151 53.2727 178.801V213.888C53.2727 220.067 53.6037 225.473 54.2657 230.107C55.0013 234.741 56.0311 238.713 57.3551 242.023C58.7527 245.334 60.4078 248.055 62.3203 250.188C64.3063 252.248 66.5866 253.793 69.1611 254.822C71.7356 255.779 74.5676 256.257 77.657 256.257C81.5555 256.257 84.976 255.484 87.9182 253.94C90.9341 252.395 93.4718 249.968 95.5314 246.658C97.5911 243.274 99.1358 238.897 100.166 233.528C101.269 228.084 101.821 221.538 101.821 213.888Z" fill="#080680"/>
<path fill-rule="evenodd" clip-rule="evenodd" d="M46.9975 110.365L46.3735 103.25L45.3451 103.058L43.6039 109.734L46.9975 110.365Z" fill="#B28B67"/>
<path fill-rule="evenodd" clip-rule="evenodd" d="M42.3057 106.041C43.3387 106.523 47.677 105.122 47.8278 101.945C47.9786 98.7676 43.6587 98.6658 42.6501 100.095C41.6414 101.524 41.2727 105.559 42.3057 106.041Z" fill="#B28B67"/>
<path fill-rule="evenodd" clip-rule="evenodd" d="M46.6689 105.397C47.3286 103.509 48.7113 102.396 48.6264 101.482C48.5698 100.872 48.2794 100.445 47.7553 100.201C47.6109 98.9863 46.7665 98.3235 45.2219 98.2127C42.9049 98.0465 41.3957 98.7619 41.7484 101.022C42.3025 101.125 42.9952 101.044 43.879 101.569C44.1594 101.736 44.3289 102.122 44.3874 102.728L44.8054 102.806C45.2914 102.191 45.7209 102.011 46.0939 102.268C46.4668 102.525 46.5047 102.986 46.2074 103.653L46.2243 105.314L46.6689 105.397Z" fill="#101030"/>
<path fill-rule="evenodd" clip-rule="evenodd" d="M50.5229 121.166L34.6486 134.078L22.1894 145.388L20.5676 144.724L43.9441 118.473L50.5229 121.166Z" fill="#997659"/>
<path fill-rule="evenodd" clip-rule="evenodd" d="M23.0234 144.754C23.0361 145.247 23.0064 145.598 22.9342 145.808C22.848 146.059 22.6808 146.409 22.4327 146.858C22.145 146.74 19.5593 145.682 14.6756 143.685C14.7057 142.927 14.9472 142.61 15.4 142.734C15.8528 142.858 16.2302 142.957 16.5324 143.031L20.7086 142.876C20.7827 142.873 20.8477 142.934 20.8536 143.011C20.8537 143.012 20.8538 143.013 20.8538 143.014L20.8907 143.69C21.2276 144.045 21.5217 144.273 21.773 144.376C21.9811 144.461 22.2996 144.493 22.7287 144.47C22.8768 144.463 23.0083 144.581 23.0223 144.735C23.0229 144.742 23.0233 144.748 23.0234 144.754Z" fill="#E4E4E4"/>
<path fill-rule="evenodd" clip-rule="evenodd" d="M25.0962 143.979L22.2906 141.735C25.0873 138.137 28.3368 134.249 32.0392 130.07C35.7416 125.891 39.5316 121.946 43.4093 118.237L52.2617 121.864C47.7071 126.699 43.1833 130.935 38.6903 134.571C34.1973 138.207 29.6659 141.343 25.0962 143.979Z" fill="#DB2721"/>
<path fill-rule="evenodd" clip-rule="evenodd" d="M50.6237 124.384C46.9872 128.877 42.7717 135.117 42.7227 135.404C42.69 135.595 44.5692 139.826 48.3603 148.098L47.074 148.717C41.3007 139.938 38.5135 135.091 38.7123 134.177C39.0106 132.806 42.962 123.826 46.0126 119.03L50.6237 124.384Z" fill="#B28B67"/>
<path fill-rule="evenodd" clip-rule="evenodd" d="M47.8606 146.136L45.5651 147.067C39.8436 141.002 37.0247 136.738 37.1084 134.274C37.192 131.811 40.5548 126.396 47.1966 118.03L53.2181 125.518C47.5011 132.023 44.5588 135.457 44.3913 135.82C44.2238 136.183 45.3802 139.622 47.8606 146.136Z" fill="#FF4133"/>
<path fill-rule="evenodd" clip-rule="evenodd" d="M48.2772 146.463C48.7314 146.551 49.0503 146.653 49.2339 146.767C49.4535 146.904 49.7527 147.14 50.1318 147.477C49.9851 147.738 48.6673 150.08 46.1782 154.502C45.4856 154.318 45.2265 154.014 45.4008 153.591C45.5751 153.169 45.7165 152.816 45.825 152.532L46.2411 148.369C46.2485 148.295 46.3126 148.243 46.3843 148.253C46.3853 148.253 46.3863 148.253 46.3873 148.254L47.0138 148.355C47.3847 148.095 47.6343 147.85 47.7624 147.623C47.8684 147.434 47.9399 147.126 47.9767 146.697C47.9894 146.549 48.1161 146.443 48.2596 146.46C48.2655 146.461 48.2714 146.462 48.2772 146.463Z" fill="#E4E4E4"/>
<path fill-rule="evenodd" clip-rule="evenodd" d="M36.5631 115.712L30.7853 114.752C29.6094 114.067 28.5342 113.595 27.5595 113.337C27.2875 113.322 26.8595 113.411 27.5256 113.977C28.1916 114.544 28.8694 115.169 28.7667 115.458C28.6639 115.748 28.0607 115.622 27.9799 116.07C27.926 116.368 28.8996 116.444 30.9007 116.297L35.6393 118.315L36.5631 115.712Z" fill="#997659"/>
<path fill-rule="evenodd" clip-rule="evenodd" d="M45.5634 107.079L43.0882 107.176C42.7169 112.807 39.5385 116.278 32.0313 114.852L31.3499 122.099C38.3577 123.223 44.3481 120.552 45.2727 112.873C45.5121 110.885 45.6797 108.814 45.5634 107.079Z" fill="#AFB9C5"/>
<path fill-rule="evenodd" clip-rule="evenodd" d="M55.0184 117.361C57.7558 124.955 59.276 129.049 59.5789 129.641C59.801 130.075 61.3771 131.415 62.465 132.186C62.9017 132.495 62.7393 132.874 62.5821 132.971C61.3038 133.768 60.4071 132.77 59.2552 132.203C57.9933 131.583 58.1585 133.255 57.1587 132.781C57.4356 132.095 58.095 130.821 57.7307 129.966C57.5688 129.586 55.6123 125.364 51.8613 117.299L55.0184 117.361Z" fill="#B28B67"/>
<path fill-rule="evenodd" clip-rule="evenodd" d="M52.1133 123.012L40.7359 122.7C41.5915 117.892 43.4713 113.751 43.205 107.172L46.9206 106.396C49.7897 110.717 51.2967 115.982 52.1133 123.012Z" fill="#C5CFD6"/>
<path fill-rule="evenodd" clip-rule="evenodd" d="M52.1782 122.928L48.8837 122.842C49.5423 119.667 49.3232 114.463 48.2265 107.23C50.7589 111.5 51.4383 115.965 52.1782 122.928Z" fill="black" fill-opacity="0.1"/>
<path fill-rule="evenodd" clip-rule="evenodd" d="M47.3153 106.38C53.0301 111.623 56.9301 118.921 59.0152 128.273L51.4673 128.068C50.9495 120.227 49.6415 113.282 46.3938 107.203L47.0708 106.374L47.3153 106.38Z" fill="#C5CFD6"/>
</svg>
