<svg width="151" height="277" viewBox="0 0 151 277" fill="none" xmlns="http://www.w3.org/2000/svg">
<path opacity="0.87" d="M104.614 115.909V277H75.3748V150.003L36.6468 162.802V139.19L101.304 115.909H104.614Z" fill="#080680"/>
<path fill-rule="evenodd" clip-rule="evenodd" d="M46.9975 121.365L46.3735 114.25L45.3451 114.058L43.6039 120.734L46.9975 121.365Z" fill="#B28B67"/>
<path fill-rule="evenodd" clip-rule="evenodd" d="M42.3057 117.041C43.3387 117.523 47.677 116.122 47.8278 112.945C47.9786 109.768 43.6587 109.666 42.6501 111.095C41.6414 112.524 41.2727 116.559 42.3057 117.041Z" fill="#B28B67"/>
<path fill-rule="evenodd" clip-rule="evenodd" d="M46.6689 116.397C47.3286 114.509 48.7113 113.396 48.6264 112.482C48.5698 111.872 48.2794 111.445 47.7553 111.201C47.6109 109.986 46.7665 109.323 45.2219 109.213C42.9049 109.046 41.3957 109.762 41.7484 112.022C42.3025 112.125 42.9952 112.044 43.879 112.569C44.1594 112.736 44.3289 113.122 44.3874 113.728L44.8054 113.806C45.2914 113.191 45.7209 113.011 46.0939 113.268C46.4668 113.525 46.5047 113.986 46.2074 114.653L46.2243 116.314L46.6689 116.397Z" fill="#101030"/>
<path fill-rule="evenodd" clip-rule="evenodd" d="M50.5229 132.166L34.6486 145.078L22.1894 156.388L20.5676 155.724L43.9441 129.473L50.5229 132.166Z" fill="#997659"/>
<path fill-rule="evenodd" clip-rule="evenodd" d="M23.0234 155.754C23.0361 156.247 23.0064 156.598 22.9342 156.808C22.848 157.059 22.6808 157.409 22.4327 157.858C22.145 157.74 19.5593 156.682 14.6756 154.685C14.7057 153.927 14.9472 153.61 15.4 153.734C15.8528 153.858 16.2302 153.957 16.5324 154.031L20.7086 153.876C20.7827 153.873 20.8477 153.934 20.8536 154.011C20.8537 154.012 20.8538 154.013 20.8538 154.014L20.8907 154.69C21.2276 155.045 21.5217 155.273 21.773 155.376C21.9811 155.461 22.2996 155.493 22.7287 155.47C22.8768 155.463 23.0083 155.581 23.0223 155.735C23.0229 155.742 23.0233 155.748 23.0234 155.754Z" fill="#E4E4E4"/>
<path fill-rule="evenodd" clip-rule="evenodd" d="M25.0962 154.979L22.2906 152.735C25.0873 149.137 28.3368 145.249 32.0392 141.07C35.7416 136.891 39.5316 132.946 43.4093 129.237L52.2617 132.864C47.7071 137.699 43.1833 141.935 38.6903 145.571C34.1973 149.207 29.6659 152.343 25.0962 154.979Z" fill="#DB2721"/>
<path fill-rule="evenodd" clip-rule="evenodd" d="M50.6237 135.384C46.9872 139.877 42.7717 146.117 42.7227 146.404C42.69 146.595 44.5692 150.826 48.3603 159.098L47.074 159.717C41.3007 150.938 38.5135 146.091 38.7123 145.177C39.0106 143.806 42.962 134.826 46.0126 130.03L50.6237 135.384Z" fill="#B28B67"/>
<path fill-rule="evenodd" clip-rule="evenodd" d="M47.8606 157.136L45.5651 158.067C39.8436 152.002 37.0247 147.738 37.1084 145.274C37.192 142.811 40.5548 137.396 47.1966 129.03L53.2181 136.518C47.5011 143.023 44.5588 146.457 44.3913 146.82C44.2238 147.183 45.3802 150.622 47.8606 157.136Z" fill="#FF4133"/>
<path fill-rule="evenodd" clip-rule="evenodd" d="M48.2772 157.463C48.7314 157.551 49.0503 157.653 49.2339 157.767C49.4535 157.904 49.7527 158.14 50.1318 158.477C49.9851 158.738 48.6673 161.08 46.1782 165.502C45.4856 165.318 45.2265 165.014 45.4008 164.591C45.5751 164.169 45.7165 163.816 45.825 163.532L46.2411 159.369C46.2485 159.295 46.3126 159.243 46.3843 159.253C46.3853 159.253 46.3863 159.253 46.3873 159.254L47.0138 159.355C47.3847 159.095 47.6343 158.85 47.7624 158.623C47.8684 158.434 47.9399 158.126 47.9767 157.697C47.9894 157.549 48.1161 157.443 48.2596 157.46C48.2655 157.461 48.2714 157.462 48.2772 157.463Z" fill="#E4E4E4"/>
<path fill-rule="evenodd" clip-rule="evenodd" d="M36.5631 126.712L30.7853 125.752C29.6094 125.067 28.5342 124.595 27.5595 124.337C27.2875 124.322 26.8595 124.411 27.5256 124.977C28.1916 125.544 28.8694 126.169 28.7667 126.458C28.6639 126.748 28.0607 126.622 27.9799 127.07C27.926 127.368 28.8996 127.444 30.9007 127.297L35.6393 129.315L36.5631 126.712Z" fill="#997659"/>
<path fill-rule="evenodd" clip-rule="evenodd" d="M45.5634 118.079L43.0882 118.176C42.7169 123.807 39.5385 127.278 32.0313 125.852L31.3499 133.099C38.3577 134.223 44.3481 131.552 45.2727 123.873C45.5121 121.885 45.6797 119.814 45.5634 118.079Z" fill="#AFB9C5"/>
<path fill-rule="evenodd" clip-rule="evenodd" d="M55.0184 128.361C57.7558 135.955 59.276 140.049 59.5789 140.641C59.801 141.075 61.3771 142.415 62.465 143.186C62.9017 143.495 62.7393 143.874 62.5821 143.971C61.3038 144.768 60.4071 143.77 59.2552 143.203C57.9933 142.583 58.1585 144.255 57.1587 143.781C57.4356 143.095 58.095 141.821 57.7307 140.966C57.5688 140.586 55.6123 136.364 51.8613 128.299L55.0184 128.361Z" fill="#B28B67"/>
<path fill-rule="evenodd" clip-rule="evenodd" d="M52.1133 134.012L40.7359 133.7C41.5915 128.892 43.4713 124.751 43.205 118.172L46.9206 117.396C49.7897 121.717 51.2967 126.982 52.1133 134.012Z" fill="#C5CFD6"/>
<path fill-rule="evenodd" clip-rule="evenodd" d="M52.1782 133.928L48.8837 133.842C49.5423 130.667 49.3232 125.463 48.2265 118.23C50.7589 122.5 51.4383 126.965 52.1782 133.928Z" fill="black" fill-opacity="0.1"/>
<path fill-rule="evenodd" clip-rule="evenodd" d="M47.3153 117.38C53.0301 122.623 56.9301 129.921 59.0152 139.273L51.4673 139.068C50.9495 131.227 49.6415 124.282 46.3938 118.203L47.0708 117.374L47.3153 117.38Z" fill="#C5CFD6"/>
</svg>
