<svg width="157" height="277" viewBox="0 0 157 277" fill="none" xmlns="http://www.w3.org/2000/svg">
<path opacity="0.87" d="M137.377 254.05V277H28.5853V257.36L80.7743 200.978C86.2175 194.8 90.5207 189.43 93.6836 184.869C96.8466 180.309 99.0901 176.19 100.414 172.512C101.812 168.76 102.511 165.193 102.511 161.809C102.511 156.881 101.628 152.578 99.8625 148.9C98.0971 145.148 95.5226 142.243 92.1389 140.183C88.8288 138.124 84.7464 137.094 79.8916 137.094C74.5219 137.094 69.9246 138.344 66.0996 140.845C62.3482 143.273 59.4794 146.656 57.4934 150.996C55.5809 155.336 54.6246 160.301 54.6246 165.891H25.3855C25.3855 156.403 27.5923 147.76 32.0057 139.962C36.4192 132.092 42.7451 125.803 50.9835 121.095C59.222 116.387 69.0051 114.033 80.333 114.033C91.3666 114.033 100.708 115.872 108.358 119.55C116.008 123.155 121.819 128.304 125.791 134.997C129.764 141.691 131.75 149.672 131.75 158.94C131.75 164.089 130.904 169.165 129.212 174.167C127.52 179.169 125.129 184.134 122.04 189.062C119.024 193.917 115.42 198.845 111.227 203.847C107.034 208.849 102.363 213.961 97.2144 219.184L65.8789 254.05H137.377Z" fill="#080680"/>
<path fill-rule="evenodd" clip-rule="evenodd" d="M46.9975 111.365L46.3735 104.25L45.3451 104.058L43.6039 110.734L46.9975 111.365Z" fill="#B28B67"/>
<path fill-rule="evenodd" clip-rule="evenodd" d="M42.3057 107.041C43.3387 107.523 47.677 106.122 47.8278 102.945C47.9786 99.7676 43.6587 99.6658 42.6501 101.095C41.6414 102.524 41.2727 106.559 42.3057 107.041Z" fill="#B28B67"/>
<path fill-rule="evenodd" clip-rule="evenodd" d="M46.6689 106.397C47.3286 104.509 48.7113 103.396 48.6264 102.482C48.5698 101.872 48.2794 101.445 47.7553 101.201C47.6109 99.9863 46.7665 99.3235 45.2219 99.2127C42.9049 99.0465 41.3957 99.7619 41.7484 102.022C42.3025 102.125 42.9952 102.044 43.879 102.569C44.1594 102.736 44.3289 103.122 44.3874 103.728L44.8054 103.806C45.2914 103.191 45.7209 103.011 46.0939 103.268C46.4668 103.525 46.5047 103.986 46.2074 104.653L46.2243 106.314L46.6689 106.397Z" fill="#101030"/>
<path fill-rule="evenodd" clip-rule="evenodd" d="M50.5229 122.166L34.6486 135.078L22.1894 146.388L20.5676 145.724L43.9441 119.473L50.5229 122.166Z" fill="#997659"/>
<path fill-rule="evenodd" clip-rule="evenodd" d="M23.0234 145.754C23.0361 146.247 23.0064 146.598 22.9342 146.808C22.848 147.059 22.6808 147.409 22.4327 147.858C22.145 147.74 19.5593 146.682 14.6756 144.685C14.7057 143.927 14.9472 143.61 15.4 143.734C15.8528 143.858 16.2302 143.957 16.5324 144.031L20.7086 143.876C20.7827 143.873 20.8477 143.934 20.8536 144.011C20.8537 144.012 20.8538 144.013 20.8538 144.014L20.8907 144.69C21.2276 145.045 21.5217 145.273 21.773 145.376C21.9811 145.461 22.2996 145.493 22.7287 145.47C22.8768 145.463 23.0083 145.581 23.0223 145.735C23.0229 145.742 23.0233 145.748 23.0234 145.754Z" fill="#E4E4E4"/>
<path fill-rule="evenodd" clip-rule="evenodd" d="M25.0962 144.979L22.2906 142.735C25.0873 139.137 28.3368 135.249 32.0392 131.07C35.7416 126.891 39.5316 122.946 43.4093 119.237L52.2617 122.864C47.7071 127.699 43.1833 131.935 38.6903 135.571C34.1973 139.207 29.6659 142.343 25.0962 144.979Z" fill="#DB2721"/>
<path fill-rule="evenodd" clip-rule="evenodd" d="M50.6237 125.384C46.9872 129.877 42.7717 136.117 42.7227 136.404C42.69 136.595 44.5692 140.826 48.3603 149.098L47.074 149.717C41.3007 140.938 38.5135 136.091 38.7123 135.177C39.0106 133.806 42.962 124.826 46.0126 120.03L50.6237 125.384Z" fill="#B28B67"/>
<path fill-rule="evenodd" clip-rule="evenodd" d="M47.8606 147.136L45.5651 148.067C39.8436 142.002 37.0247 137.738 37.1084 135.274C37.192 132.811 40.5548 127.396 47.1966 119.03L53.2181 126.518C47.5011 133.023 44.5588 136.457 44.3913 136.82C44.2238 137.183 45.3802 140.622 47.8606 147.136Z" fill="#FF4133"/>
<path fill-rule="evenodd" clip-rule="evenodd" d="M48.2772 147.463C48.7314 147.551 49.0503 147.653 49.2339 147.767C49.4535 147.904 49.7527 148.14 50.1318 148.477C49.9851 148.738 48.6673 151.08 46.1782 155.502C45.4856 155.318 45.2265 155.014 45.4008 154.591C45.5751 154.169 45.7165 153.816 45.825 153.532L46.2411 149.369C46.2485 149.295 46.3126 149.243 46.3843 149.253C46.3853 149.253 46.3863 149.253 46.3873 149.254L47.0138 149.355C47.3847 149.095 47.6343 148.85 47.7624 148.623C47.8684 148.434 47.9399 148.126 47.9767 147.697C47.9894 147.549 48.1161 147.443 48.2596 147.46C48.2655 147.461 48.2714 147.462 48.2772 147.463Z" fill="#E4E4E4"/>
<path fill-rule="evenodd" clip-rule="evenodd" d="M36.5631 116.712L30.7853 115.752C29.6094 115.067 28.5342 114.595 27.5595 114.337C27.2875 114.322 26.8595 114.411 27.5256 114.977C28.1916 115.544 28.8694 116.169 28.7667 116.458C28.6639 116.748 28.0607 116.622 27.9799 117.07C27.926 117.368 28.8996 117.444 30.9007 117.297L35.6393 119.315L36.5631 116.712Z" fill="#997659"/>
<path fill-rule="evenodd" clip-rule="evenodd" d="M45.5634 108.079L43.0882 108.176C42.7169 113.807 39.5385 117.278 32.0313 115.852L31.3499 123.099C38.3577 124.223 44.3481 121.552 45.2727 113.873C45.5121 111.885 45.6797 109.814 45.5634 108.079Z" fill="#AFB9C5"/>
<path fill-rule="evenodd" clip-rule="evenodd" d="M55.0184 118.361C57.7558 125.955 59.276 130.049 59.5789 130.641C59.801 131.075 61.3771 132.415 62.465 133.186C62.9017 133.495 62.7393 133.874 62.5821 133.971C61.3038 134.768 60.4071 133.77 59.2552 133.203C57.9933 132.583 58.1585 134.255 57.1587 133.781C57.4356 133.095 58.095 131.821 57.7307 130.966C57.5688 130.586 55.6123 126.364 51.8613 118.299L55.0184 118.361Z" fill="#B28B67"/>
<path fill-rule="evenodd" clip-rule="evenodd" d="M52.1133 124.012L40.7359 123.7C41.5915 118.892 43.4713 114.751 43.205 108.172L46.9206 107.396C49.7897 111.717 51.2967 116.982 52.1133 124.012Z" fill="#C5CFD6"/>
<path fill-rule="evenodd" clip-rule="evenodd" d="M52.1782 123.928L48.8837 123.842C49.5423 120.667 49.3232 115.463 48.2265 108.23C50.7589 112.5 51.4383 116.965 52.1782 123.928Z" fill="black" fill-opacity="0.1"/>
<path fill-rule="evenodd" clip-rule="evenodd" d="M47.3153 107.38C53.0301 112.623 56.9301 119.921 59.0152 129.273L51.4673 129.068C50.9495 121.227 49.6415 114.282 46.3938 108.203L47.0708 107.374L47.3153 107.38Z" fill="#C5CFD6"/>
</svg>
