<svg width="155" height="280" viewBox="0 0 155 280" fill="none" xmlns="http://www.w3.org/2000/svg">
<path opacity="0.87" d="M62.4724 183.766H78.9125C84.7236 183.766 89.5048 182.773 93.2562 180.787C97.0812 178.727 99.9132 175.932 101.752 172.401C103.665 168.797 104.621 164.641 104.621 159.933C104.621 155.299 103.775 151.29 102.083 147.907C100.391 144.449 97.8168 141.801 94.3596 139.962C90.976 138.05 86.6361 137.094 81.3399 137.094C77.0736 137.094 73.1383 137.94 69.534 139.631C66.0032 141.323 63.1712 143.751 61.0381 146.914C58.9785 150.003 57.9487 153.718 57.9487 158.058H28.7096C28.7096 149.378 30.9899 141.765 35.5504 135.218C40.1845 128.598 46.4369 123.412 54.3076 119.661C62.1782 115.909 70.9683 114.033 80.6779 114.033C91.2702 114.033 100.538 115.799 108.483 119.33C116.5 122.787 122.716 127.899 127.129 134.666C131.616 141.434 133.86 149.819 133.86 159.823C133.86 164.604 132.72 169.385 130.44 174.167C128.233 178.874 124.959 183.141 120.62 186.966C116.353 190.717 111.094 193.77 104.842 196.124C98.6627 198.404 91.5644 199.544 83.5467 199.544H62.4724V183.766ZM62.4724 206.275V190.717H83.5467C92.5942 190.717 100.428 191.784 107.048 193.917C113.742 195.976 119.259 198.919 123.599 202.744C127.939 206.495 131.138 210.872 133.198 215.874C135.331 220.876 136.398 226.245 136.398 231.983C136.398 239.486 135 246.179 132.205 252.064C129.41 257.875 125.474 262.803 120.399 266.849C115.397 270.895 109.512 273.984 102.745 276.117C95.9779 278.177 88.6589 279.207 80.7882 279.207C73.9474 279.207 67.2905 278.287 60.8174 276.448C54.4179 274.536 48.6436 271.704 43.4946 267.952C38.3456 264.127 34.2632 259.346 31.2473 253.609C28.2315 247.798 26.7235 241.067 26.7235 233.417H55.9626C55.9626 237.831 57.0292 241.766 59.1624 245.223C61.3691 248.68 64.3849 251.402 68.2099 253.388C72.1085 255.301 76.4851 256.257 81.3399 256.257C86.7096 256.257 91.307 255.301 95.1319 253.388C99.0305 251.402 102.01 248.607 104.069 245.003C106.129 241.325 107.159 236.948 107.159 231.873C107.159 225.841 106.018 220.949 103.738 217.198C101.458 213.446 98.1846 210.688 93.9182 208.923C89.7255 207.157 84.7236 206.275 78.9125 206.275H62.4724Z" fill="#080680"/>
<path fill-rule="evenodd" clip-rule="evenodd" d="M46.9975 112.365L46.3735 105.25L45.3451 105.058L43.6039 111.734L46.9975 112.365Z" fill="#B28B67"/>
<path fill-rule="evenodd" clip-rule="evenodd" d="M42.3057 108.041C43.3387 108.523 47.677 107.121 47.8278 103.944C47.9786 100.767 43.6587 100.666 42.6501 102.095C41.6414 103.524 41.2727 107.559 42.3057 108.041Z" fill="#B28B67"/>
<path fill-rule="evenodd" clip-rule="evenodd" d="M46.6689 107.397C47.3286 105.509 48.7113 104.396 48.6264 103.482C48.5698 102.872 48.2794 102.445 47.7553 102.201C47.6109 100.986 46.7665 100.323 45.2219 100.213C42.9049 100.046 41.3957 100.762 41.7484 103.021C42.3025 103.125 42.9952 103.044 43.879 103.569C44.1594 103.736 44.3289 104.122 44.3874 104.728L44.8054 104.806C45.2914 104.19 45.7209 104.011 46.0939 104.268C46.4668 104.525 46.5047 104.986 46.2074 105.653L46.2243 107.314L46.6689 107.397Z" fill="#101030"/>
<path fill-rule="evenodd" clip-rule="evenodd" d="M50.5229 123.166L34.6486 136.078L22.1894 147.388L20.5676 146.724L43.9441 120.473L50.5229 123.166Z" fill="#997659"/>
<path fill-rule="evenodd" clip-rule="evenodd" d="M23.0234 146.754C23.0361 147.246 23.0064 147.598 22.9342 147.808C22.848 148.059 22.6808 148.409 22.4327 148.857C22.145 148.74 19.5593 147.682 14.6756 145.685C14.7057 144.927 14.9472 144.61 15.4 144.734C15.8528 144.858 16.2302 144.957 16.5324 145.031L20.7086 144.876C20.7827 144.873 20.8477 144.934 20.8536 145.011C20.8537 145.012 20.8538 145.013 20.8538 145.014L20.8907 145.69C21.2276 146.045 21.5217 146.273 21.773 146.376C21.9811 146.461 22.2996 146.493 22.7287 146.47C22.8768 146.462 23.0083 146.581 23.0223 146.735C23.0229 146.742 23.0233 146.748 23.0234 146.754Z" fill="#E4E4E4"/>
<path fill-rule="evenodd" clip-rule="evenodd" d="M25.0962 145.979L22.2906 143.735C25.0873 140.137 28.3368 136.249 32.0392 132.07C35.7416 127.891 39.5316 123.946 43.4093 120.237L52.2617 123.864C47.7071 128.699 43.1833 132.935 38.6903 136.571C34.1973 140.207 29.6659 143.343 25.0962 145.979Z" fill="#DB2721"/>
<path fill-rule="evenodd" clip-rule="evenodd" d="M50.6237 126.384C46.9872 130.877 42.7717 137.117 42.7227 137.404C42.69 137.595 44.5692 141.826 48.3603 150.098L47.074 150.717C41.3007 141.938 38.5135 137.091 38.7123 136.177C39.0106 134.806 42.962 125.826 46.0126 121.03L50.6237 126.384Z" fill="#B28B67"/>
<path fill-rule="evenodd" clip-rule="evenodd" d="M47.8606 148.136L45.5651 149.067C39.8436 143.002 37.0247 138.738 37.1084 136.274C37.192 133.811 40.5548 128.396 47.1966 120.029L53.2181 127.518C47.5011 134.023 44.5588 137.457 44.3913 137.82C44.2238 138.183 45.3802 141.622 47.8606 148.136Z" fill="#FF4133"/>
<path fill-rule="evenodd" clip-rule="evenodd" d="M48.2772 148.463C48.7314 148.551 49.0503 148.652 49.2339 148.767C49.4535 148.903 49.7527 149.14 50.1318 149.477C49.9851 149.738 48.6673 152.08 46.1782 156.502C45.4856 156.317 45.2265 156.014 45.4008 155.591C45.5751 155.169 45.7165 154.815 45.825 154.532L46.2411 150.369C46.2485 150.295 46.3126 150.243 46.3843 150.253C46.3853 150.253 46.3863 150.253 46.3873 150.254L47.0138 150.355C47.3847 150.095 47.6343 149.85 47.7624 149.623C47.8684 149.434 47.9399 149.126 47.9767 148.697C47.9894 148.549 48.1161 148.443 48.2596 148.46C48.2655 148.461 48.2714 148.462 48.2772 148.463Z" fill="#E4E4E4"/>
<path fill-rule="evenodd" clip-rule="evenodd" d="M36.5631 117.712L30.7853 116.752C29.6094 116.067 28.5342 115.595 27.5595 115.337C27.2875 115.322 26.8595 115.411 27.5256 115.977C28.1916 116.543 28.8694 117.168 28.7667 117.458C28.6639 117.748 28.0607 117.622 27.9799 118.07C27.926 118.368 28.8996 118.444 30.9007 118.297L35.6393 120.315L36.5631 117.712Z" fill="#997659"/>
<path fill-rule="evenodd" clip-rule="evenodd" d="M45.5634 109.079L43.0882 109.176C42.7169 114.807 39.5385 118.278 32.0313 116.852L31.3499 124.099C38.3577 125.223 44.3481 122.552 45.2727 114.873C45.5121 112.885 45.6797 110.814 45.5634 109.079Z" fill="#AFB9C5"/>
<path fill-rule="evenodd" clip-rule="evenodd" d="M55.0184 119.361C57.7558 126.955 59.276 131.049 59.5789 131.641C59.801 132.075 61.3771 133.415 62.465 134.186C62.9017 134.495 62.7393 134.874 62.5821 134.971C61.3038 135.768 60.4071 134.77 59.2552 134.203C57.9933 133.583 58.1585 135.255 57.1587 134.781C57.4356 134.095 58.095 132.821 57.7307 131.966C57.5688 131.586 55.6123 127.364 51.8613 119.299L55.0184 119.361Z" fill="#B28B67"/>
<path fill-rule="evenodd" clip-rule="evenodd" d="M52.1133 125.012L40.7359 124.7C41.5915 119.892 43.4713 115.751 43.205 109.172L46.9206 108.396C49.7897 112.717 51.2967 117.982 52.1133 125.012Z" fill="#C5CFD6"/>
<path fill-rule="evenodd" clip-rule="evenodd" d="M52.1782 124.928L48.8837 124.842C49.5423 121.667 49.3232 116.463 48.2265 109.23C50.7589 113.5 51.4383 117.965 52.1782 124.928Z" fill="black" fill-opacity="0.1"/>
<path fill-rule="evenodd" clip-rule="evenodd" d="M47.3153 108.38C53.0301 113.623 56.9301 120.921 59.0152 130.273L51.4673 130.068C50.9495 122.227 49.6415 115.282 46.3938 109.203L47.0708 108.374L47.3153 108.38Z" fill="#C5CFD6"/>
</svg>
