<svg width="139" height="277" viewBox="0 0 139 277" fill="none" xmlns="http://www.w3.org/2000/svg">
<path opacity="0.87" d="M123.135 218.412V241.361H7.39252L6.17882 223.708L74.2562 116.351H97.5372L72.3805 159.051L35.8593 218.412H123.135ZM104.047 116.351V277H74.8079V116.351H104.047Z" fill="#080680"/>
<path fill-rule="evenodd" clip-rule="evenodd" d="M97.9975 103.365L97.3735 96.2496L96.3451 96.0583L94.6039 102.734L97.9975 103.365Z" fill="#B28B67"/>
<path fill-rule="evenodd" clip-rule="evenodd" d="M93.3057 99.0409C94.3387 99.523 98.677 98.1214 98.8278 94.9444C98.9786 91.7674 94.6587 91.6657 93.6501 93.095C92.6414 94.5243 92.2727 98.5588 93.3057 99.0409Z" fill="#B28B67"/>
<path fill-rule="evenodd" clip-rule="evenodd" d="M97.6689 98.3968C98.3286 96.509 99.7113 95.3962 99.6264 94.4815C99.5698 93.8718 99.2794 93.445 98.7553 93.2011C98.6109 91.9863 97.7665 91.3234 96.2219 91.2126C93.9049 91.0464 92.3957 91.7618 92.7484 94.0215C93.3025 94.1248 93.9952 94.0437 94.879 94.5691C95.1594 94.7357 95.3289 95.122 95.3874 95.7278L95.8054 95.8058C96.2914 95.1905 96.7209 95.0112 97.0939 95.2679C97.4668 95.5246 97.5047 95.9862 97.2074 96.6527L97.2243 98.3138L97.6689 98.3968Z" fill="#101030"/>
<path fill-rule="evenodd" clip-rule="evenodd" d="M101.523 114.166L85.6486 127.078L73.1894 138.388L71.5676 137.724L94.9441 111.473L101.523 114.166Z" fill="#997659"/>
<path fill-rule="evenodd" clip-rule="evenodd" d="M74.0234 137.754C74.0361 138.246 74.0064 138.598 73.9342 138.808C73.848 139.059 73.6808 139.409 73.4327 139.857C73.145 139.74 70.5593 138.682 65.6756 136.685C65.7057 135.927 65.9472 135.61 66.4 135.734C66.8528 135.858 67.2302 135.957 67.5324 136.031L71.7086 135.876C71.7827 135.873 71.8477 135.934 71.8536 136.011C71.8537 136.012 71.8538 136.013 71.8538 136.014L71.8907 136.69C72.2276 137.045 72.5217 137.273 72.773 137.376C72.9811 137.461 73.2996 137.493 73.7287 137.47C73.8768 137.462 74.0083 137.581 74.0223 137.735C74.0229 137.742 74.0233 137.748 74.0234 137.754Z" fill="#E4E4E4"/>
<path fill-rule="evenodd" clip-rule="evenodd" d="M76.0962 136.979L73.2906 134.735C76.0873 131.137 79.3368 127.249 83.0392 123.07C86.7416 118.891 90.5316 114.946 94.4093 111.237L103.262 114.864C98.7071 119.699 94.1833 123.935 89.6903 127.571C85.1973 131.207 80.6659 134.343 76.0962 136.979Z" fill="#DB2721"/>
<path fill-rule="evenodd" clip-rule="evenodd" d="M101.624 117.384C97.9872 121.877 93.7717 128.117 93.7227 128.404C93.69 128.595 95.5692 132.826 99.3603 141.098L98.074 141.717C92.3007 132.938 89.5135 128.091 89.7123 127.177C90.0106 125.806 93.962 116.826 97.0126 112.03L101.624 117.384Z" fill="#B28B67"/>
<path fill-rule="evenodd" clip-rule="evenodd" d="M98.8606 139.136L96.5651 140.067C90.8436 134.002 88.0247 129.738 88.1084 127.274C88.192 124.811 91.5548 119.396 98.1966 111.03L104.218 118.518C98.5011 125.023 95.5588 128.457 95.3913 128.82C95.2238 129.183 96.3802 132.622 98.8606 139.136Z" fill="#FF4133"/>
<path fill-rule="evenodd" clip-rule="evenodd" d="M99.2772 139.463C99.7314 139.551 100.05 139.652 100.234 139.767C100.453 139.904 100.753 140.14 101.132 140.477C100.985 140.738 99.6673 143.08 97.1782 147.502C96.4856 147.317 96.2265 147.014 96.4008 146.591C96.5751 146.169 96.7165 145.815 96.825 145.532L97.2411 141.369C97.2485 141.295 97.3126 141.243 97.3843 141.253C97.3853 141.253 97.3863 141.253 97.3873 141.254L98.0138 141.355C98.3847 141.095 98.6343 140.85 98.7624 140.623C98.8684 140.434 98.9399 140.126 98.9767 139.697C98.9894 139.549 99.1161 139.443 99.2596 139.46C99.2655 139.461 99.2714 139.462 99.2772 139.463Z" fill="#E4E4E4"/>
<path fill-rule="evenodd" clip-rule="evenodd" d="M87.5631 108.712L81.7853 107.752C80.6094 107.067 79.5342 106.595 78.5595 106.337C78.2875 106.322 77.8595 106.411 78.5256 106.977C79.1916 107.544 79.8694 108.168 79.7667 108.458C79.6639 108.748 79.0607 108.622 78.9799 109.07C78.926 109.368 79.8996 109.444 81.9007 109.297L86.6393 111.315L87.5631 108.712Z" fill="#997659"/>
<path fill-rule="evenodd" clip-rule="evenodd" d="M96.5634 100.079L94.0882 100.176C93.7169 105.807 90.5385 109.278 83.0313 107.852L82.3499 115.099C89.3577 116.223 95.3481 113.552 96.2727 105.873C96.5121 103.885 96.6797 101.814 96.5634 100.079Z" fill="#AFB9C5"/>
<path fill-rule="evenodd" clip-rule="evenodd" d="M106.018 110.361C108.756 117.955 110.276 122.049 110.579 122.641C110.801 123.075 112.377 124.415 113.465 125.186C113.902 125.495 113.739 125.874 113.582 125.971C112.304 126.768 111.407 125.77 110.255 125.203C108.993 124.583 109.158 126.255 108.159 125.781C108.436 125.095 109.095 123.821 108.731 122.966C108.569 122.586 106.612 118.364 102.861 110.299L106.018 110.361Z" fill="#B28B67"/>
<path fill-rule="evenodd" clip-rule="evenodd" d="M103.113 116.012L91.7359 115.7C92.5915 110.892 94.4713 106.751 94.205 100.172L97.9206 99.3961C100.79 103.717 102.297 108.982 103.113 116.012Z" fill="#C5CFD6"/>
<path fill-rule="evenodd" clip-rule="evenodd" d="M103.178 115.928L99.8837 115.842C100.542 112.667 100.323 107.463 99.2265 100.23C101.759 104.5 102.438 108.965 103.178 115.928Z" fill="black" fill-opacity="0.1"/>
<path fill-rule="evenodd" clip-rule="evenodd" d="M98.3153 99.3802C104.03 104.623 107.93 111.921 110.015 121.273L102.467 121.068C101.95 113.227 100.642 106.282 97.3938 100.203L98.0708 99.3735L98.3153 99.3802Z" fill="#C5CFD6"/>
</svg>
