<svg width="155" height="280" viewBox="0 0 155 280" fill="none" xmlns="http://www.w3.org/2000/svg">
<path opacity="0.87" d="M54.4934 203.075L31.2124 197.448L40.1497 116.351H128.529V140.514H64.3133L60.1205 178.028C62.4008 176.631 65.7109 175.233 70.0508 173.836C74.4642 172.365 79.4293 171.629 84.9461 171.629C92.5961 171.629 99.437 172.879 105.469 175.38C111.5 177.808 116.613 181.339 120.805 185.973C125.072 190.607 128.271 196.271 130.405 202.964C132.611 209.585 133.715 217.087 133.715 225.473C133.715 232.829 132.611 239.743 130.405 246.216C128.271 252.616 124.998 258.316 120.585 263.318C116.171 268.247 110.618 272.145 103.924 275.014C97.2302 277.809 89.3596 279.207 80.312 279.207C73.4712 279.207 66.8878 278.214 60.5619 276.228C54.3095 274.168 48.6823 271.189 43.6804 267.29C38.6785 263.318 34.6696 258.464 31.6538 252.726C28.7115 246.989 27.0932 240.405 26.799 232.976H55.5967C56.1116 237.904 57.4357 242.097 59.5688 245.554C61.702 249.011 64.4972 251.659 67.9544 253.498C71.4851 255.337 75.5676 256.257 80.2017 256.257C84.3945 256.257 87.9988 255.484 91.0146 253.94C94.104 252.321 96.6418 250.078 98.6278 247.209C100.614 244.34 102.085 240.957 103.041 237.058C103.998 233.16 104.476 228.893 104.476 224.259C104.476 219.772 103.924 215.69 102.821 212.012C101.717 208.261 100.025 205.024 97.7451 202.302C95.4649 199.581 92.5961 197.484 89.1389 196.013C85.7553 194.542 81.7832 193.807 77.2226 193.807C71.1173 193.807 66.4097 194.726 63.0996 196.565C59.8631 198.404 56.9943 200.574 54.4934 203.075Z" fill="#080680"/>
<path fill-rule="evenodd" clip-rule="evenodd" d="M46.9975 101.365L46.3735 94.2496L45.3451 94.0583L43.6039 100.734L46.9975 101.365Z" fill="#B28B67"/>
<path fill-rule="evenodd" clip-rule="evenodd" d="M42.3057 97.0409C43.3387 97.523 47.677 96.1215 47.8278 92.9445C47.9786 89.7675 43.6587 89.6657 42.6501 91.095C41.6414 92.5243 41.2727 96.5588 42.3057 97.0409Z" fill="#B28B67"/>
<path fill-rule="evenodd" clip-rule="evenodd" d="M46.6689 96.3968C47.3286 94.509 48.7113 93.3962 48.6264 92.4815C48.5698 91.8718 48.2794 91.445 47.7553 91.2011C47.6109 89.9863 46.7665 89.3234 45.2219 89.2126C42.9049 89.0464 41.3957 89.7618 41.7484 92.0215C42.3025 92.1248 42.9952 92.0437 43.879 92.5691C44.1594 92.7357 44.3289 93.122 44.3874 93.7278L44.8054 93.8058C45.2914 93.1905 45.7209 93.0112 46.0939 93.2679C46.4668 93.5246 46.5047 93.9862 46.2074 94.6527L46.2243 96.3139L46.6689 96.3968Z" fill="#101030"/>
<path fill-rule="evenodd" clip-rule="evenodd" d="M50.5229 112.166L34.6486 125.078L22.1894 136.388L20.5676 135.724L43.9441 109.473L50.5229 112.166Z" fill="#997659"/>
<path fill-rule="evenodd" clip-rule="evenodd" d="M23.0234 135.754C23.0361 136.246 23.0064 136.598 22.9342 136.808C22.848 137.059 22.6808 137.409 22.4327 137.857C22.145 137.74 19.5593 136.682 14.6756 134.685C14.7057 133.927 14.9472 133.61 15.4 133.734C15.8528 133.858 16.2302 133.957 16.5324 134.031L20.7086 133.876C20.7827 133.873 20.8477 133.934 20.8536 134.011C20.8537 134.012 20.8538 134.013 20.8538 134.014L20.8907 134.69C21.2276 135.045 21.5217 135.273 21.773 135.376C21.9811 135.461 22.2996 135.493 22.7287 135.47C22.8768 135.462 23.0083 135.581 23.0223 135.735C23.0229 135.742 23.0233 135.748 23.0234 135.754Z" fill="#E4E4E4"/>
<path fill-rule="evenodd" clip-rule="evenodd" d="M25.0962 134.979L22.2906 132.735C25.0873 129.137 28.3368 125.249 32.0392 121.07C35.7416 116.891 39.5316 112.946 43.4093 109.237L52.2617 112.864C47.7071 117.699 43.1833 121.935 38.6903 125.571C34.1973 129.207 29.6659 132.343 25.0962 134.979Z" fill="#DB2721"/>
<path fill-rule="evenodd" clip-rule="evenodd" d="M50.6237 115.384C46.9872 119.877 42.7717 126.117 42.7227 126.404C42.69 126.595 44.5692 130.826 48.3603 139.098L47.074 139.717C41.3007 130.938 38.5135 126.091 38.7123 125.177C39.0106 123.806 42.962 114.826 46.0126 110.03L50.6237 115.384Z" fill="#B28B67"/>
<path fill-rule="evenodd" clip-rule="evenodd" d="M47.8606 137.136L45.5651 138.067C39.8436 132.002 37.0247 127.738 37.1084 125.274C37.192 122.811 40.5548 117.396 47.1966 109.03L53.2181 116.518C47.5011 123.023 44.5588 126.457 44.3913 126.82C44.2238 127.183 45.3802 130.622 47.8606 137.136Z" fill="#FF4133"/>
<path fill-rule="evenodd" clip-rule="evenodd" d="M48.2772 137.463C48.7314 137.551 49.0503 137.652 49.2339 137.767C49.4535 137.904 49.7527 138.14 50.1318 138.477C49.9851 138.738 48.6673 141.08 46.1782 145.502C45.4856 145.317 45.2265 145.014 45.4008 144.591C45.5751 144.169 45.7165 143.815 45.825 143.532L46.2411 139.369C46.2485 139.295 46.3126 139.243 46.3843 139.253C46.3853 139.253 46.3863 139.253 46.3873 139.254L47.0138 139.355C47.3847 139.095 47.6343 138.85 47.7624 138.623C47.8684 138.434 47.9399 138.126 47.9767 137.697C47.9894 137.549 48.1161 137.443 48.2596 137.46C48.2655 137.461 48.2714 137.462 48.2772 137.463Z" fill="#E4E4E4"/>
<path fill-rule="evenodd" clip-rule="evenodd" d="M36.5631 106.712L30.7853 105.752C29.6094 105.067 28.5342 104.595 27.5595 104.337C27.2875 104.322 26.8595 104.411 27.5256 104.977C28.1916 105.544 28.8694 106.168 28.7667 106.458C28.6639 106.748 28.0607 106.622 27.9799 107.07C27.926 107.368 28.8996 107.444 30.9007 107.297L35.6393 109.315L36.5631 106.712Z" fill="#997659"/>
<path fill-rule="evenodd" clip-rule="evenodd" d="M45.5634 98.0793L43.0882 98.1755C42.7169 103.807 39.5385 107.278 32.0313 105.852L31.3499 113.099C38.3577 114.223 44.3481 111.552 45.2727 103.873C45.5121 101.885 45.6797 99.8136 45.5634 98.0793Z" fill="#AFB9C5"/>
<path fill-rule="evenodd" clip-rule="evenodd" d="M55.0184 108.361C57.7558 115.955 59.276 120.049 59.5789 120.641C59.801 121.075 61.3771 122.415 62.465 123.186C62.9017 123.495 62.7393 123.874 62.5821 123.971C61.3038 124.768 60.4071 123.77 59.2552 123.203C57.9933 122.583 58.1585 124.255 57.1587 123.781C57.4356 123.095 58.095 121.821 57.7307 120.966C57.5688 120.586 55.6123 116.364 51.8613 108.299L55.0184 108.361Z" fill="#B28B67"/>
<path fill-rule="evenodd" clip-rule="evenodd" d="M52.1133 114.012L40.7359 113.7C41.5915 108.892 43.4713 104.751 43.205 98.1716L46.9206 97.3961C49.7897 101.717 51.2967 106.982 52.1133 114.012Z" fill="#C5CFD6"/>
<path fill-rule="evenodd" clip-rule="evenodd" d="M52.1782 113.928L48.8837 113.842C49.5423 110.667 49.3232 105.463 48.2265 98.2296C50.7589 102.5 51.4383 106.965 52.1782 113.928Z" fill="black" fill-opacity="0.1"/>
<path fill-rule="evenodd" clip-rule="evenodd" d="M47.3153 97.3802C53.0301 102.623 56.9301 109.921 59.0152 119.273L51.4673 119.068C50.9495 111.227 49.6415 104.282 46.3938 98.2026L47.0708 97.3735L47.3153 97.3802Z" fill="#C5CFD6"/>
</svg>
