<svg width="138" height="280" viewBox="0 0 138 280" fill="none" xmlns="http://www.w3.org/2000/svg">
<path opacity="0.87" d="M104.682 115.027H108.654V138.528H106.779C97.8783 138.528 90.0444 139.889 83.2772 142.611C76.5834 145.332 70.9931 149.157 66.5061 154.086C62.0926 158.94 58.7458 164.715 56.4655 171.408C54.1852 178.028 53.045 185.274 53.045 193.145V219.184C53.045 225.289 53.6703 230.659 54.9208 235.293C56.2448 239.853 58.047 243.715 60.3272 246.878C62.6811 249.968 65.4027 252.285 68.4921 253.829C71.6551 255.374 75.1123 256.146 78.8637 256.146C82.6151 256.146 85.9988 255.374 89.0146 253.829C92.0305 252.285 94.605 250.115 96.7382 247.32C98.9449 244.451 100.6 241.104 101.703 237.279C102.88 233.454 103.469 229.261 103.469 224.701C103.469 220.214 102.917 216.058 101.814 212.233C100.71 208.408 99.092 205.061 96.9588 202.192C94.8257 199.25 92.1776 197.006 89.0146 195.462C85.9252 193.843 82.3945 193.034 78.4224 193.034C73.2733 193.034 68.676 194.248 64.6303 196.675C60.5847 199.029 57.3849 202.119 55.0311 205.944C52.6773 209.769 51.39 213.814 51.1693 218.08L41.3494 213.226C41.7172 206.973 43.0412 201.236 45.3215 196.013C47.6754 190.791 50.8015 186.23 54.7001 182.332C58.6722 178.433 63.3431 175.417 68.7128 173.284C74.156 171.151 80.1877 170.084 86.8079 170.084C94.4579 170.084 101.152 171.555 106.889 174.498C112.627 177.366 117.371 181.302 121.122 186.304C124.947 191.306 127.816 197.08 129.729 203.626C131.641 210.1 132.597 216.94 132.597 224.149C132.597 231.873 131.347 239.081 128.846 245.775C126.419 252.469 122.888 258.316 118.254 263.318C113.62 268.32 108.029 272.219 101.483 275.014C94.936 277.809 87.5803 279.207 79.4154 279.207C70.8092 279.207 63.0856 277.588 56.2448 274.352C49.4775 271.115 43.6665 266.628 38.8117 260.891C33.9569 255.153 30.2422 248.46 27.6677 240.81C25.0932 233.16 23.806 224.885 23.806 215.984V204.288C23.806 191.71 25.5346 180.015 28.9918 169.202C32.449 158.389 37.5612 148.937 44.3285 140.845C51.1693 132.68 59.6284 126.354 69.7058 121.867C79.7832 117.307 91.442 115.027 104.682 115.027Z" fill="#080680"/>
<path fill-rule="evenodd" clip-rule="evenodd" d="M46.9975 131.365L46.3735 124.25L45.3451 124.058L43.6039 130.734L46.9975 131.365Z" fill="#B28B67"/>
<path fill-rule="evenodd" clip-rule="evenodd" d="M42.3057 127.041C43.3387 127.523 47.677 126.121 47.8278 122.944C47.9786 119.767 43.6587 119.666 42.6501 121.095C41.6414 122.524 41.2727 126.559 42.3057 127.041Z" fill="#B28B67"/>
<path fill-rule="evenodd" clip-rule="evenodd" d="M46.6689 126.397C47.3286 124.509 48.7113 123.396 48.6264 122.482C48.5698 121.872 48.2794 121.445 47.7553 121.201C47.6109 119.986 46.7665 119.323 45.2219 119.213C42.9049 119.046 41.3957 119.762 41.7484 122.021C42.3025 122.125 42.9952 122.044 43.879 122.569C44.1594 122.736 44.3289 123.122 44.3874 123.728L44.8054 123.806C45.2914 123.19 45.7209 123.011 46.0939 123.268C46.4668 123.525 46.5047 123.986 46.2074 124.653L46.2243 126.314L46.6689 126.397Z" fill="#101030"/>
<path fill-rule="evenodd" clip-rule="evenodd" d="M50.5229 142.166L34.6486 155.078L22.1894 166.388L20.5676 165.724L43.9441 139.473L50.5229 142.166Z" fill="#997659"/>
<path fill-rule="evenodd" clip-rule="evenodd" d="M23.0234 165.754C23.0361 166.246 23.0064 166.598 22.9342 166.808C22.848 167.059 22.6808 167.409 22.4327 167.857C22.145 167.74 19.5593 166.682 14.6756 164.685C14.7057 163.927 14.9472 163.61 15.4 163.734C15.8528 163.858 16.2302 163.957 16.5324 164.031L20.7086 163.876C20.7827 163.873 20.8477 163.934 20.8536 164.011C20.8537 164.012 20.8538 164.013 20.8538 164.014L20.8907 164.69C21.2276 165.045 21.5217 165.273 21.773 165.376C21.9811 165.461 22.2996 165.493 22.7287 165.47C22.8768 165.462 23.0083 165.581 23.0223 165.735C23.0229 165.742 23.0233 165.748 23.0234 165.754Z" fill="#E4E4E4"/>
<path fill-rule="evenodd" clip-rule="evenodd" d="M25.0962 164.979L22.2906 162.735C25.0873 159.137 28.3368 155.249 32.0392 151.07C35.7416 146.891 39.5316 142.946 43.4093 139.237L52.2617 142.864C47.7071 147.699 43.1833 151.935 38.6903 155.571C34.1973 159.207 29.6659 162.343 25.0962 164.979Z" fill="#DB2721"/>
<path fill-rule="evenodd" clip-rule="evenodd" d="M50.6237 145.384C46.9872 149.877 42.7717 156.117 42.7227 156.404C42.69 156.595 44.5692 160.826 48.3603 169.098L47.074 169.717C41.3007 160.938 38.5135 156.091 38.7123 155.177C39.0106 153.806 42.962 144.826 46.0126 140.03L50.6237 145.384Z" fill="#B28B67"/>
<path fill-rule="evenodd" clip-rule="evenodd" d="M47.8606 167.136L45.5651 168.067C39.8436 162.002 37.0247 157.738 37.1084 155.274C37.192 152.811 40.5548 147.396 47.1966 139.029L53.2181 146.518C47.5011 153.023 44.5588 156.457 44.3913 156.82C44.2238 157.183 45.3802 160.622 47.8606 167.136Z" fill="#FF4133"/>
<path fill-rule="evenodd" clip-rule="evenodd" d="M48.2772 167.463C48.7314 167.551 49.0503 167.652 49.2339 167.767C49.4535 167.903 49.7527 168.14 50.1318 168.477C49.9851 168.738 48.6673 171.08 46.1782 175.502C45.4856 175.317 45.2265 175.014 45.4008 174.591C45.5751 174.169 45.7165 173.815 45.825 173.532L46.2411 169.369C46.2485 169.295 46.3126 169.243 46.3843 169.253C46.3853 169.253 46.3863 169.253 46.3873 169.254L47.0138 169.355C47.3847 169.095 47.6343 168.85 47.7624 168.623C47.8684 168.434 47.9399 168.126 47.9767 167.697C47.9894 167.549 48.1161 167.443 48.2596 167.46C48.2655 167.461 48.2714 167.462 48.2772 167.463Z" fill="#E4E4E4"/>
<path fill-rule="evenodd" clip-rule="evenodd" d="M36.5631 136.712L30.7853 135.752C29.6094 135.067 28.5342 134.595 27.5595 134.337C27.2875 134.322 26.8595 134.411 27.5256 134.977C28.1916 135.543 28.8694 136.168 28.7667 136.458C28.6639 136.748 28.0607 136.622 27.9799 137.07C27.926 137.368 28.8996 137.444 30.9007 137.297L35.6393 139.315L36.5631 136.712Z" fill="#997659"/>
<path fill-rule="evenodd" clip-rule="evenodd" d="M45.5634 128.079L43.0882 128.176C42.7169 133.807 39.5385 137.278 32.0313 135.852L31.3499 143.099C38.3577 144.223 44.3481 141.552 45.2727 133.873C45.5121 131.885 45.6797 129.814 45.5634 128.079Z" fill="#AFB9C5"/>
<path fill-rule="evenodd" clip-rule="evenodd" d="M55.0184 138.361C57.7558 145.955 59.276 150.049 59.5789 150.641C59.801 151.075 61.3771 152.415 62.465 153.186C62.9017 153.495 62.7393 153.874 62.5821 153.971C61.3038 154.768 60.4071 153.77 59.2552 153.203C57.9933 152.583 58.1585 154.255 57.1587 153.781C57.4356 153.095 58.095 151.821 57.7307 150.966C57.5688 150.586 55.6123 146.364 51.8613 138.299L55.0184 138.361Z" fill="#B28B67"/>
<path fill-rule="evenodd" clip-rule="evenodd" d="M52.1133 144.012L40.7359 143.7C41.5915 138.892 43.4713 134.751 43.205 128.172L46.9206 127.396C49.7897 131.717 51.2967 136.982 52.1133 144.012Z" fill="#C5CFD6"/>
<path fill-rule="evenodd" clip-rule="evenodd" d="M52.1782 143.928L48.8837 143.842C49.5423 140.667 49.3232 135.463 48.2265 128.23C50.7589 132.5 51.4383 136.965 52.1782 143.928Z" fill="black" fill-opacity="0.1"/>
<path fill-rule="evenodd" clip-rule="evenodd" d="M47.3153 127.38C53.0301 132.623 56.9301 139.921 59.0152 149.273L51.4673 149.068C50.9495 141.227 49.6415 134.282 46.3938 128.203L47.0708 127.374L47.3153 127.38Z" fill="#C5CFD6"/>
</svg>
