<svg width="162" height="277" viewBox="0 0 162 277" fill="none" xmlns="http://www.w3.org/2000/svg">
<path opacity="0.87" d="M152.494 116.351V132.239L89.3818 277H58.598L121.71 139.3H40.0615V116.351H152.494Z" fill="#080680"/>
<path fill-rule="evenodd" clip-rule="evenodd" d="M46.9975 96.3652L46.3735 89.2496L45.3451 89.0583L43.6039 95.7339L46.9975 96.3652Z" fill="#B28B67"/>
<path fill-rule="evenodd" clip-rule="evenodd" d="M42.3057 92.0409C43.3387 92.5229 47.677 91.1214 47.8278 87.9444C47.9786 84.7674 43.6587 84.6656 42.6501 86.0949C41.6414 87.5242 41.2727 91.5588 42.3057 92.0409Z" fill="#B28B67"/>
<path fill-rule="evenodd" clip-rule="evenodd" d="M46.6689 91.3968C47.3286 89.509 48.7113 88.3962 48.6264 87.4815C48.5698 86.8718 48.2794 86.445 47.7553 86.2011C47.6109 84.9863 46.7665 84.3234 45.2219 84.2126C42.9049 84.0464 41.3957 84.7618 41.7484 87.0215C42.3025 87.1248 42.9952 87.0437 43.879 87.5691C44.1594 87.7357 44.3289 88.122 44.3874 88.7278L44.8054 88.8058C45.2914 88.1905 45.7209 88.0112 46.0939 88.2679C46.4668 88.5246 46.5047 88.9862 46.2074 89.6527L46.2243 91.3138L46.6689 91.3968Z" fill="#101030"/>
<path fill-rule="evenodd" clip-rule="evenodd" d="M50.5229 107.166L34.6486 120.078L22.1894 131.388L20.5676 130.724L43.9441 104.473L50.5229 107.166Z" fill="#997659"/>
<path fill-rule="evenodd" clip-rule="evenodd" d="M23.0234 130.754C23.0361 131.246 23.0064 131.598 22.9342 131.808C22.848 132.059 22.6808 132.409 22.4327 132.857C22.145 132.74 19.5593 131.682 14.6756 129.685C14.7057 128.927 14.9472 128.61 15.4 128.734C15.8528 128.858 16.2302 128.957 16.5324 129.031L20.7086 128.876C20.7827 128.873 20.8477 128.934 20.8536 129.011C20.8537 129.012 20.8538 129.013 20.8538 129.014L20.8907 129.69C21.2276 130.045 21.5217 130.273 21.773 130.376C21.9811 130.461 22.2996 130.493 22.7287 130.47C22.8768 130.462 23.0083 130.581 23.0223 130.735C23.0229 130.742 23.0233 130.748 23.0234 130.754Z" fill="#E4E4E4"/>
<path fill-rule="evenodd" clip-rule="evenodd" d="M25.0962 129.979L22.2906 127.735C25.0873 124.137 28.3368 120.249 32.0392 116.07C35.7416 111.891 39.5316 107.946 43.4093 104.237L52.2617 107.864C47.7071 112.699 43.1833 116.935 38.6903 120.571C34.1973 124.207 29.6659 127.343 25.0962 129.979Z" fill="#DB2721"/>
<path fill-rule="evenodd" clip-rule="evenodd" d="M50.6237 110.384C46.9872 114.877 42.7717 121.117 42.7227 121.404C42.69 121.595 44.5692 125.826 48.3603 134.098L47.074 134.717C41.3007 125.938 38.5135 121.091 38.7123 120.177C39.0106 118.806 42.962 109.826 46.0126 105.03L50.6237 110.384Z" fill="#B28B67"/>
<path fill-rule="evenodd" clip-rule="evenodd" d="M47.8606 132.136L45.5651 133.067C39.8436 127.002 37.0247 122.738 37.1084 120.274C37.192 117.811 40.5548 112.396 47.1966 104.029L53.2181 111.518C47.5011 118.023 44.5588 121.457 44.3913 121.82C44.2238 122.183 45.3802 125.622 47.8606 132.136Z" fill="#FF4133"/>
<path fill-rule="evenodd" clip-rule="evenodd" d="M48.2772 132.463C48.7314 132.551 49.0503 132.652 49.2339 132.767C49.4535 132.903 49.7527 133.14 50.1318 133.477C49.9851 133.738 48.6673 136.08 46.1782 140.502C45.4856 140.317 45.2265 140.014 45.4008 139.591C45.5751 139.169 45.7165 138.815 45.825 138.532L46.2411 134.369C46.2485 134.295 46.3126 134.243 46.3843 134.253C46.3853 134.253 46.3863 134.253 46.3873 134.254L47.0138 134.355C47.3847 134.095 47.6343 133.85 47.7624 133.623C47.8684 133.434 47.9399 133.126 47.9767 132.697C47.9894 132.549 48.1161 132.443 48.2596 132.46C48.2655 132.461 48.2714 132.462 48.2772 132.463Z" fill="#E4E4E4"/>
<path fill-rule="evenodd" clip-rule="evenodd" d="M36.5631 101.712L30.7853 100.752C29.6094 100.067 28.5342 99.5951 27.5595 99.3372C27.2875 99.3215 26.8595 99.4106 27.5256 99.977C28.1916 100.543 28.8694 101.168 28.7667 101.458C28.6639 101.748 28.0607 101.622 27.9799 102.07C27.926 102.368 28.8996 102.444 30.9007 102.297L35.6393 104.315L36.5631 101.712Z" fill="#997659"/>
<path fill-rule="evenodd" clip-rule="evenodd" d="M45.5634 93.0793L43.0882 93.1755C42.7169 98.8074 39.5385 102.278 32.0313 100.852L31.3499 108.099C38.3577 109.223 44.3481 106.552 45.2727 98.8727C45.5121 96.8848 45.6797 94.8136 45.5634 93.0793Z" fill="#AFB9C5"/>
<path fill-rule="evenodd" clip-rule="evenodd" d="M55.0184 103.361C57.7558 110.955 59.276 115.049 59.5789 115.641C59.801 116.075 61.3771 117.415 62.465 118.186C62.9017 118.495 62.7393 118.874 62.5821 118.971C61.3038 119.768 60.4071 118.77 59.2552 118.203C57.9933 117.583 58.1585 119.255 57.1587 118.781C57.4356 118.095 58.095 116.821 57.7307 115.966C57.5688 115.586 55.6123 111.364 51.8613 103.299L55.0184 103.361Z" fill="#B28B67"/>
<path fill-rule="evenodd" clip-rule="evenodd" d="M52.1133 109.012L40.7359 108.7C41.5915 103.892 43.4713 99.7506 43.205 93.1716L46.9206 92.3961C49.7897 96.7173 51.2967 101.982 52.1133 109.012Z" fill="#C5CFD6"/>
<path fill-rule="evenodd" clip-rule="evenodd" d="M52.1782 108.928L48.8837 108.842C49.5423 105.667 49.3232 100.463 48.2265 93.2296C50.7589 97.4998 51.4383 101.965 52.1782 108.928Z" fill="black" fill-opacity="0.1"/>
<path fill-rule="evenodd" clip-rule="evenodd" d="M47.3153 92.3802C53.0301 97.6233 56.9301 104.921 59.0152 114.273L51.4673 114.068C50.9495 106.227 49.6415 99.282 46.3938 93.2026L47.0708 92.3735L47.3153 92.3802Z" fill="#C5CFD6"/>
</svg>
