<svg width="140" height="280" viewBox="0 0 140 280" fill="none" xmlns="http://www.w3.org/2000/svg">
<path opacity="0.87" d="M129.17 233.086C129.17 243.09 126.816 251.549 122.109 258.464C117.474 265.304 111.112 270.49 103.02 274.021C95.0026 277.478 85.8815 279.207 75.657 279.207C65.5061 279.207 56.3482 277.478 48.1833 274.021C40.092 270.49 33.6557 265.304 28.8745 258.464C24.1668 251.549 21.8129 243.09 21.8129 233.086C21.8129 226.392 23.137 220.324 25.785 214.881C28.5067 209.437 32.2581 204.767 37.0393 200.868C41.8206 196.896 47.4845 193.88 54.0311 191.82C60.5777 189.687 67.7128 188.621 75.4363 188.621C85.7344 188.621 94.929 190.496 103.02 194.248C111.185 197.926 117.585 203.112 122.219 209.805C126.853 216.425 129.17 224.186 129.17 233.086ZM99.8206 231.321C99.8206 226.172 98.7908 221.722 96.7312 217.97C94.7451 214.145 91.9132 211.203 88.2353 209.143C84.5574 207.084 80.2911 206.054 75.4363 206.054C70.508 206.054 66.2049 207.084 62.527 209.143C58.9227 211.203 56.0907 214.145 54.0311 217.97C52.045 221.722 51.052 226.172 51.052 231.321C51.052 236.543 52.045 241.03 54.0311 244.782C56.0907 248.46 58.9594 251.292 62.6373 253.278C66.3152 255.264 70.6551 256.257 75.657 256.257C80.6589 256.257 84.962 255.264 88.5663 253.278C92.1706 251.292 94.929 248.46 96.8415 244.782C98.8276 241.03 99.8206 236.543 99.8206 231.321ZM125.639 158.72C125.639 166.811 123.506 174.02 119.24 180.346C114.973 186.598 109.052 191.489 101.476 195.02C93.9728 198.551 85.3666 200.316 75.657 200.316C65.9474 200.316 57.2676 198.551 49.6177 195.02C42.0412 191.489 36.0831 186.598 31.7432 180.346C27.4769 174.02 25.3437 166.811 25.3437 158.72C25.3437 149.157 27.5136 141.066 31.8535 134.446C36.1934 127.752 42.1148 122.676 49.6177 119.219C57.1941 115.762 65.8003 114.033 75.4363 114.033C85.2195 114.033 93.8992 115.762 101.476 119.219C109.052 122.676 114.973 127.752 119.24 134.446C123.506 141.066 125.639 149.157 125.639 158.72ZM96.5105 159.933C96.5105 155.373 95.6646 151.401 93.9728 148.017C92.281 144.56 89.8536 141.875 86.6906 139.962C83.6012 138.05 79.8498 137.094 75.4363 137.094C71.17 137.094 67.4921 138.013 64.4027 139.852C61.3133 141.691 58.9227 144.339 57.2308 147.796C55.539 151.18 54.6931 155.226 54.6931 159.933C54.6931 164.567 55.539 168.613 57.2308 172.07C58.9227 175.528 61.3133 178.249 64.4027 180.235C67.5657 182.148 71.3171 183.104 75.657 183.104C79.9969 183.104 83.7115 182.148 86.8009 180.235C89.8904 178.249 92.281 175.528 93.9728 172.07C95.6646 168.613 96.5105 164.567 96.5105 159.933Z" fill="#080680"/>
<path fill-rule="evenodd" clip-rule="evenodd" d="M46.9975 104.365L46.3735 97.2498L45.3451 97.0585L43.6039 103.734L46.9975 104.365Z" fill="#B28B67"/>
<path fill-rule="evenodd" clip-rule="evenodd" d="M42.3057 100.041C43.3387 100.523 47.677 99.1216 47.8278 95.9446C47.9786 92.7676 43.6587 92.6658 42.6501 94.0951C41.6414 95.5244 41.2727 99.559 42.3057 100.041Z" fill="#B28B67"/>
<path fill-rule="evenodd" clip-rule="evenodd" d="M46.6689 99.3969C47.3286 97.509 48.7113 96.3962 48.6264 95.4816C48.5698 94.8718 48.2794 94.445 47.7553 94.2012C47.6109 92.9863 46.7665 92.3235 45.2219 92.2127C42.9049 92.0465 41.3957 92.7619 41.7484 95.0215C42.3025 95.1249 42.9952 95.0438 43.879 95.5691C44.1594 95.7358 44.3289 96.1221 44.3874 96.7279L44.8054 96.8059C45.2914 96.1906 45.7209 96.0113 46.0939 96.268C46.4668 96.5247 46.5047 96.9863 46.2074 97.6528L46.2243 99.3139L46.6689 99.3969Z" fill="#101030"/>
<path fill-rule="evenodd" clip-rule="evenodd" d="M50.5229 115.166L34.6486 128.078L22.1894 139.388L20.5676 138.724L43.9441 112.473L50.5229 115.166Z" fill="#997659"/>
<path fill-rule="evenodd" clip-rule="evenodd" d="M23.0234 138.754C23.0361 139.247 23.0064 139.598 22.9342 139.808C22.848 140.059 22.6808 140.409 22.4327 140.858C22.145 140.74 19.5593 139.682 14.6756 137.685C14.7057 136.927 14.9472 136.61 15.4 136.734C15.8528 136.858 16.2302 136.957 16.5324 137.031L20.7086 136.876C20.7827 136.873 20.8477 136.934 20.8536 137.011C20.8537 137.012 20.8538 137.013 20.8538 137.014L20.8907 137.69C21.2276 138.045 21.5217 138.273 21.773 138.376C21.9811 138.461 22.2996 138.493 22.7287 138.47C22.8768 138.463 23.0083 138.581 23.0223 138.735C23.0229 138.742 23.0233 138.748 23.0234 138.754Z" fill="#E4E4E4"/>
<path fill-rule="evenodd" clip-rule="evenodd" d="M25.0962 137.979L22.2906 135.735C25.0873 132.137 28.3368 128.249 32.0392 124.07C35.7416 119.891 39.5316 115.946 43.4093 112.237L52.2617 115.864C47.7071 120.699 43.1833 124.935 38.6903 128.571C34.1973 132.207 29.6659 135.343 25.0962 137.979Z" fill="#DB2721"/>
<path fill-rule="evenodd" clip-rule="evenodd" d="M50.6237 118.384C46.9872 122.877 42.7717 129.117 42.7227 129.404C42.69 129.595 44.5692 133.826 48.3603 142.098L47.074 142.717C41.3007 133.938 38.5135 129.091 38.7123 128.177C39.0106 126.806 42.962 117.826 46.0126 113.03L50.6237 118.384Z" fill="#B28B67"/>
<path fill-rule="evenodd" clip-rule="evenodd" d="M47.8606 140.136L45.5651 141.067C39.8436 135.002 37.0247 130.738 37.1084 128.274C37.192 125.811 40.5548 120.396 47.1966 112.03L53.2181 119.518C47.5011 126.023 44.5588 129.457 44.3913 129.82C44.2238 130.183 45.3802 133.622 47.8606 140.136Z" fill="#FF4133"/>
<path fill-rule="evenodd" clip-rule="evenodd" d="M48.2772 140.463C48.7314 140.551 49.0503 140.653 49.2339 140.767C49.4535 140.904 49.7527 141.14 50.1318 141.477C49.9851 141.738 48.6673 144.08 46.1782 148.502C45.4856 148.318 45.2265 148.014 45.4008 147.591C45.5751 147.169 45.7165 146.816 45.825 146.532L46.2411 142.369C46.2485 142.295 46.3126 142.243 46.3843 142.253C46.3853 142.253 46.3863 142.253 46.3873 142.254L47.0138 142.355C47.3847 142.095 47.6343 141.85 47.7624 141.623C47.8684 141.434 47.9399 141.126 47.9767 140.697C47.9894 140.549 48.1161 140.443 48.2596 140.46C48.2655 140.461 48.2714 140.462 48.2772 140.463Z" fill="#E4E4E4"/>
<path fill-rule="evenodd" clip-rule="evenodd" d="M36.5631 109.712L30.7853 108.752C29.6094 108.067 28.5342 107.595 27.5595 107.337C27.2875 107.322 26.8595 107.411 27.5256 107.977C28.1916 108.544 28.8694 109.169 28.7667 109.458C28.6639 109.748 28.0607 109.622 27.9799 110.07C27.926 110.368 28.8996 110.444 30.9007 110.297L35.6393 112.315L36.5631 109.712Z" fill="#997659"/>
<path fill-rule="evenodd" clip-rule="evenodd" d="M45.5634 101.079L43.0882 101.176C42.7169 106.807 39.5385 110.278 32.0313 108.852L31.3499 116.099C38.3577 117.223 44.3481 114.552 45.2727 106.873C45.5121 104.885 45.6797 102.814 45.5634 101.079Z" fill="#AFB9C5"/>
<path fill-rule="evenodd" clip-rule="evenodd" d="M55.0184 111.361C57.7558 118.955 59.276 123.049 59.5789 123.641C59.801 124.075 61.3771 125.415 62.465 126.186C62.9017 126.495 62.7393 126.874 62.5821 126.971C61.3038 127.768 60.4071 126.77 59.2552 126.203C57.9933 125.583 58.1585 127.255 57.1587 126.781C57.4356 126.095 58.095 124.821 57.7307 123.966C57.5688 123.586 55.6123 119.364 51.8613 111.299L55.0184 111.361Z" fill="#B28B67"/>
<path fill-rule="evenodd" clip-rule="evenodd" d="M52.1133 117.012L40.7359 116.7C41.5915 111.892 43.4713 107.751 43.205 101.172L46.9206 100.396C49.7897 104.717 51.2967 109.982 52.1133 117.012Z" fill="#C5CFD6"/>
<path fill-rule="evenodd" clip-rule="evenodd" d="M52.1782 116.928L48.8837 116.842C49.5423 113.667 49.3232 108.463 48.2265 101.23C50.7589 105.5 51.4383 109.965 52.1782 116.928Z" fill="black" fill-opacity="0.1"/>
<path fill-rule="evenodd" clip-rule="evenodd" d="M47.3153 100.38C53.0301 105.623 56.9301 112.921 59.0152 122.273L51.4673 122.068C50.9495 114.227 49.6415 107.282 46.3938 101.203L47.0708 100.374L47.3153 100.38Z" fill="#C5CFD6"/>
</svg>
