<svg width="142" height="279" viewBox="0 0 142 279" fill="none" xmlns="http://www.w3.org/2000/svg">
<path opacity="0.87" d="M46.5422 254.381H48.6386C58.1275 254.381 66.1452 253.167 72.6919 250.74C79.312 248.313 84.6449 244.892 88.6906 240.479C92.8098 235.992 95.7889 230.659 97.6278 224.48C99.5403 218.228 100.497 211.313 100.497 203.737V174.608C100.497 168.429 99.8713 163.023 98.6209 158.389C97.3704 153.681 95.605 149.746 93.3247 146.583C91.118 143.42 88.5067 141.066 85.4909 139.521C82.475 137.903 79.2385 137.094 75.7813 137.094C71.9563 137.094 68.5726 137.976 65.6303 139.742C62.688 141.507 60.1871 143.935 58.1275 147.024C56.1414 150.04 54.5967 153.534 53.4934 157.506C52.4636 161.478 51.9487 165.671 51.9487 170.084C51.9487 174.351 52.4268 178.433 53.383 182.332C54.4128 186.23 55.9208 189.687 57.9068 192.703C59.9664 195.719 62.5409 198.11 65.6303 199.875C68.7198 201.567 72.3241 202.413 76.4433 202.413C80.3418 202.413 83.8726 201.677 87.0356 200.206C90.2721 198.661 93.0673 196.639 95.4211 194.138C97.7749 191.563 99.5771 188.731 100.828 185.642C102.152 182.479 102.887 179.279 103.034 176.042L113.296 180.456C113.296 185.826 112.155 191.122 109.875 196.344C107.668 201.567 104.542 206.311 100.497 210.578C96.5245 214.77 91.8904 218.154 86.5942 220.729C81.2981 223.23 75.5974 224.48 69.4921 224.48C61.9157 224.48 55.222 223.082 49.4109 220.287C43.5999 217.492 38.7083 213.63 34.7362 208.702C30.8377 203.7 27.8954 197.963 25.9093 191.489C23.9233 184.943 22.9303 177.955 22.9303 170.526C22.9303 162.802 24.144 155.557 26.5713 148.789C28.9987 141.949 32.4927 135.954 37.0533 130.805C41.6874 125.582 47.2778 121.5 53.8244 118.557C60.371 115.541 67.7267 114.033 75.8916 114.033C84.3507 114.033 91.8904 115.689 98.5105 118.999C105.131 122.309 110.758 126.906 115.392 132.791C120.026 138.602 123.557 145.479 125.984 153.424C128.485 161.368 129.736 170.047 129.736 179.463V189.724C129.736 199.654 128.743 209.07 126.757 217.97C124.771 226.871 121.718 234.999 117.599 242.354C113.479 249.71 108.22 256.073 101.821 261.443C95.4947 266.812 87.9182 270.968 79.0914 273.911C70.338 276.779 60.3342 278.214 49.0799 278.214H46.5422V254.381Z" fill="#080680"/>
<path fill-rule="evenodd" clip-rule="evenodd" d="M46.9962 108.973L46.3747 101.883L45.3469 101.692L43.6044 108.345L46.9962 108.973Z" fill="#B28B67"/>
<path fill-rule="evenodd" clip-rule="evenodd" d="M42.3054 104.665C43.3379 105.146 47.6754 103.748 47.8272 100.582C47.9789 97.4155 43.6603 97.3152 42.6515 98.7398C41.6427 100.164 41.2729 104.185 42.3054 104.665Z" fill="#B28B67"/>
<path fill-rule="evenodd" clip-rule="evenodd" d="M46.6673 104.023C47.3274 102.141 48.7101 101.032 48.6255 100.12C48.5692 99.5125 48.279 99.0872 47.7551 98.8443C47.6112 97.6336 46.7672 96.9732 45.223 96.8633C42.9067 96.6983 41.3976 97.4118 41.7494 99.6638C42.3033 99.7666 42.9959 99.6856 43.8793 100.209C44.1596 100.375 44.3289 100.76 44.3872 101.364L44.805 101.441C45.2912 100.828 45.7206 100.649 46.0934 100.905C46.4662 101.16 46.5038 101.62 46.2064 102.285L46.2228 103.94L46.6673 104.023Z" fill="#101030"/>
<path fill-rule="evenodd" clip-rule="evenodd" d="M50.5229 119.729L34.6485 132.602L22.1887 143.876L20.5676 143.215L43.9469 117.048L50.5229 119.729Z" fill="#997659"/>
<path fill-rule="evenodd" clip-rule="evenodd" d="M23.0232 143.238C23.0357 143.729 23.0058 144.079 22.9336 144.288C22.8473 144.539 22.68 144.888 22.4317 145.335C22.1441 145.217 19.5586 144.164 14.6755 142.175C14.7059 141.42 14.9475 141.104 15.4003 141.227C15.853 141.35 16.2305 141.449 16.5326 141.522L20.7089 141.367C20.7831 141.364 20.848 141.424 20.8539 141.501C20.854 141.502 20.8541 141.503 20.8541 141.504L20.8908 142.178C21.2275 142.531 21.5215 142.759 21.7729 142.861C21.9809 142.946 22.2995 142.977 22.7285 142.955C22.8766 142.947 23.0081 143.065 23.0221 143.219C23.0226 143.225 23.023 143.232 23.0232 143.238Z" fill="#E4E4E4"/>
<path fill-rule="evenodd" clip-rule="evenodd" d="M25.0949 142.472L22.2909 140.236C25.0882 136.651 28.3383 132.775 32.0413 128.609C35.7443 124.443 39.5348 120.511 43.4128 116.814L52.2617 120.424C47.7065 125.244 43.1823 129.467 38.6891 133.092C34.1959 136.717 29.6645 139.843 25.0949 142.472Z" fill="#DB2721"/>
<path fill-rule="evenodd" clip-rule="evenodd" d="M50.6275 122.94C46.989 127.418 42.7711 133.638 42.7219 133.923C42.6891 134.114 44.5669 138.329 48.3553 146.57L47.0687 147.188C41.2982 138.442 38.5125 133.614 38.7117 132.703C39.0105 131.336 42.9654 122.387 46.018 117.607L50.6275 122.94Z" fill="#B28B67"/>
<path fill-rule="evenodd" clip-rule="evenodd" d="M47.8559 144.615L45.5599 145.544C39.8402 139.502 37.0227 135.254 37.1073 132.8C37.1919 130.345 40.5568 124.948 47.202 116.61L53.2212 124.07C47.5015 130.553 44.5578 133.975 44.3901 134.337C44.2224 134.699 45.3777 138.125 47.8559 144.615Z" fill="#FF4133"/>
<path fill-rule="evenodd" clip-rule="evenodd" d="M48.2782 144.942C48.7323 145.029 49.051 145.13 49.2345 145.244C49.4539 145.38 49.753 145.616 50.1318 145.951C49.9851 146.211 48.6668 148.545 46.1769 152.952C45.4846 152.768 45.2257 152.466 45.4001 152.045C45.5745 151.624 45.716 151.272 45.8246 150.989L46.2421 146.841C46.2495 146.768 46.3136 146.716 46.3852 146.726C46.3863 146.726 46.3873 146.726 46.3883 146.726L47.0145 146.827C47.3855 146.567 47.635 146.324 47.7632 146.097C47.8692 145.909 47.9408 145.602 47.9777 145.174C47.9905 145.027 48.1172 144.921 48.2606 144.939C48.2665 144.939 48.2724 144.94 48.2782 144.942Z" fill="#E4E4E4"/>
<path fill-rule="evenodd" clip-rule="evenodd" d="M36.5647 114.299L30.7861 113.344C29.6103 112.661 28.535 112.191 27.5602 111.934C27.2882 111.919 26.8601 112.008 27.526 112.572C28.192 113.137 28.8697 113.76 28.7668 114.049C28.6639 114.338 28.0607 114.213 27.9796 114.659C27.9256 114.957 28.8994 115.032 30.901 114.884L35.6397 116.895L36.5647 114.299Z" fill="#997659"/>
<path fill-rule="evenodd" clip-rule="evenodd" d="M45.5688 105.699L43.0928 105.796C42.7193 111.406 39.5386 114.864 32.0297 113.446L31.3454 120.665C38.3548 121.782 44.348 119.119 45.2758 111.47C45.5159 109.49 45.6844 107.426 45.5688 105.699Z" fill="#AFB9C5"/>
<path fill-rule="evenodd" clip-rule="evenodd" d="M55.022 115.943C57.7559 123.511 59.274 127.59 59.5766 128.18C59.7985 128.612 61.3736 129.948 62.461 130.715C62.8974 131.023 62.7349 131.4 62.5777 131.498C61.2995 132.292 60.4034 131.298 59.252 130.734C57.9907 130.116 58.1552 131.782 57.1559 131.31C57.433 130.626 58.0927 129.357 57.7288 128.505C57.5671 128.126 55.6128 123.919 51.8659 115.883L55.022 115.943Z" fill="#B28B67"/>
<path fill-rule="evenodd" clip-rule="evenodd" d="M52.1132 121.575L40.7299 121.268C41.5877 116.476 43.4701 112.347 43.2062 105.79L46.9241 105.016C49.7931 109.322 51.2989 114.568 52.1132 121.575Z" fill="#C5CFD6"/>
<path fill-rule="evenodd" clip-rule="evenodd" d="M52.1785 121.491L48.8791 121.406C49.5398 118.242 49.3224 113.057 48.2268 105.849C50.7614 110.103 51.4401 114.552 52.1785 121.491Z" fill="black" fill-opacity="0.1"/>
<path fill-rule="evenodd" clip-rule="evenodd" d="M47.316 105.002C53.0326 110.225 56.9324 117.497 59.0153 126.817L51.4625 126.615C50.9474 118.801 49.6412 111.88 46.3937 105.822L47.0714 104.996L47.316 105.002Z" fill="#C5CFD6"/>
</svg>
