<svg width="142" height="279" viewBox="0 0 142 279" fill="none" xmlns="http://www.w3.org/2000/svg">
<path opacity="0.87" d="M46.5422 254.381H48.6386C58.1275 254.381 66.1452 253.167 72.6919 250.74C79.312 248.313 84.6449 244.892 88.6906 240.479C92.8098 235.992 95.7889 230.659 97.6278 224.48C99.5403 218.228 100.497 211.313 100.497 203.737V174.608C100.497 168.429 99.8713 163.023 98.6209 158.389C97.3704 153.681 95.605 149.746 93.3247 146.583C91.118 143.42 88.5067 141.066 85.4909 139.521C82.475 137.903 79.2385 137.094 75.7813 137.094C71.9563 137.094 68.5726 137.976 65.6303 139.742C62.688 141.507 60.1871 143.935 58.1275 147.024C56.1414 150.04 54.5967 153.534 53.4934 157.506C52.4636 161.478 51.9487 165.671 51.9487 170.084C51.9487 174.351 52.4268 178.433 53.383 182.332C54.4128 186.23 55.9208 189.687 57.9068 192.703C59.9664 195.719 62.5409 198.11 65.6303 199.875C68.7198 201.567 72.3241 202.413 76.4433 202.413C80.3418 202.413 83.8726 201.677 87.0356 200.206C90.2721 198.661 93.0673 196.639 95.4211 194.138C97.7749 191.563 99.5771 188.731 100.828 185.642C102.152 182.479 102.887 179.279 103.034 176.042L113.296 180.456C113.296 185.826 112.155 191.122 109.875 196.344C107.668 201.567 104.542 206.311 100.497 210.578C96.5245 214.77 91.8904 218.154 86.5942 220.729C81.2981 223.23 75.5974 224.48 69.4921 224.48C61.9157 224.48 55.222 223.082 49.4109 220.287C43.5999 217.492 38.7083 213.63 34.7362 208.702C30.8377 203.7 27.8954 197.963 25.9093 191.489C23.9233 184.943 22.9303 177.955 22.9303 170.526C22.9303 162.802 24.144 155.557 26.5713 148.789C28.9987 141.949 32.4927 135.954 37.0533 130.805C41.6874 125.582 47.2778 121.5 53.8244 118.557C60.371 115.541 67.7267 114.033 75.8916 114.033C84.3507 114.033 91.8904 115.689 98.5105 118.999C105.131 122.309 110.758 126.906 115.392 132.791C120.026 138.602 123.557 145.479 125.984 153.424C128.485 161.368 129.736 170.047 129.736 179.463V189.724C129.736 199.654 128.743 209.07 126.757 217.97C124.771 226.871 121.718 234.999 117.599 242.354C113.479 249.71 108.22 256.073 101.821 261.443C95.4947 266.812 87.9182 270.968 79.0914 273.911C70.338 276.779 60.3342 278.214 49.0799 278.214H46.5422V254.381Z" fill="#080680"/>
<path fill-rule="evenodd" clip-rule="evenodd" d="M46.9975 109.365L46.3735 102.25L45.3451 102.058L43.6039 108.734L46.9975 109.365Z" fill="#B28B67"/>
<path fill-rule="evenodd" clip-rule="evenodd" d="M42.3057 105.041C43.3387 105.523 47.677 104.122 47.8278 100.945C47.9786 97.7676 43.6587 97.6658 42.6501 99.0951C41.6414 100.524 41.2727 104.559 42.3057 105.041Z" fill="#B28B67"/>
<path fill-rule="evenodd" clip-rule="evenodd" d="M46.6689 104.397C47.3286 102.509 48.7113 101.396 48.6264 100.482C48.5698 99.8718 48.2794 99.445 47.7553 99.2012C47.6109 97.9863 46.7665 97.3235 45.2219 97.2127C42.9049 97.0465 41.3957 97.7619 41.7484 100.022C42.3025 100.125 42.9952 100.044 43.879 100.569C44.1594 100.736 44.3289 101.122 44.3874 101.728L44.8054 101.806C45.2914 101.191 45.7209 101.011 46.0939 101.268C46.4668 101.525 46.5047 101.986 46.2074 102.653L46.2243 104.314L46.6689 104.397Z" fill="#101030"/>
<path fill-rule="evenodd" clip-rule="evenodd" d="M50.5229 120.166L34.6486 133.078L22.1894 144.388L20.5676 143.724L43.9441 117.473L50.5229 120.166Z" fill="#997659"/>
<path fill-rule="evenodd" clip-rule="evenodd" d="M23.0234 143.754C23.0361 144.247 23.0064 144.598 22.9342 144.808C22.848 145.059 22.6808 145.409 22.4327 145.858C22.145 145.74 19.5593 144.682 14.6756 142.685C14.7057 141.927 14.9472 141.61 15.4 141.734C15.8528 141.858 16.2302 141.957 16.5324 142.031L20.7086 141.876C20.7827 141.873 20.8477 141.934 20.8536 142.011C20.8537 142.012 20.8538 142.013 20.8538 142.014L20.8907 142.69C21.2276 143.045 21.5217 143.273 21.773 143.376C21.9811 143.461 22.2996 143.493 22.7287 143.47C22.8768 143.463 23.0083 143.581 23.0223 143.735C23.0229 143.742 23.0233 143.748 23.0234 143.754Z" fill="#E4E4E4"/>
<path fill-rule="evenodd" clip-rule="evenodd" d="M25.0962 142.979L22.2906 140.735C25.0873 137.137 28.3368 133.249 32.0392 129.07C35.7416 124.891 39.5316 120.946 43.4093 117.237L52.2617 120.864C47.7071 125.699 43.1833 129.935 38.6903 133.571C34.1973 137.207 29.6659 140.343 25.0962 142.979Z" fill="#DB2721"/>
<path fill-rule="evenodd" clip-rule="evenodd" d="M50.6237 123.384C46.9872 127.877 42.7717 134.117 42.7227 134.404C42.69 134.595 44.5692 138.826 48.3603 147.098L47.074 147.717C41.3007 138.938 38.5135 134.091 38.7123 133.177C39.0106 131.806 42.962 122.826 46.0126 118.03L50.6237 123.384Z" fill="#B28B67"/>
<path fill-rule="evenodd" clip-rule="evenodd" d="M47.8606 145.136L45.5651 146.067C39.8436 140.002 37.0247 135.738 37.1084 133.274C37.192 130.811 40.5548 125.396 47.1966 117.03L53.2181 124.518C47.5011 131.023 44.5588 134.457 44.3913 134.82C44.2238 135.183 45.3802 138.622 47.8606 145.136Z" fill="#FF4133"/>
<path fill-rule="evenodd" clip-rule="evenodd" d="M48.2772 145.463C48.7314 145.551 49.0503 145.653 49.2339 145.767C49.4535 145.904 49.7527 146.14 50.1318 146.477C49.9851 146.738 48.6673 149.08 46.1782 153.502C45.4856 153.318 45.2265 153.014 45.4008 152.591C45.5751 152.169 45.7165 151.816 45.825 151.532L46.2411 147.369C46.2485 147.295 46.3126 147.243 46.3843 147.253C46.3853 147.253 46.3863 147.253 46.3873 147.254L47.0138 147.355C47.3847 147.095 47.6343 146.85 47.7624 146.623C47.8684 146.434 47.9399 146.126 47.9767 145.697C47.9894 145.549 48.1161 145.443 48.2596 145.46C48.2655 145.461 48.2714 145.462 48.2772 145.463Z" fill="#E4E4E4"/>
<path fill-rule="evenodd" clip-rule="evenodd" d="M36.5631 114.712L30.7853 113.752C29.6094 113.067 28.5342 112.595 27.5595 112.337C27.2875 112.322 26.8595 112.411 27.5256 112.977C28.1916 113.544 28.8694 114.169 28.7667 114.458C28.6639 114.748 28.0607 114.622 27.9799 115.07C27.926 115.368 28.8996 115.444 30.9007 115.297L35.6393 117.315L36.5631 114.712Z" fill="#997659"/>
<path fill-rule="evenodd" clip-rule="evenodd" d="M45.5634 106.079L43.0882 106.176C42.7169 111.807 39.5385 115.278 32.0313 113.852L31.3499 121.099C38.3577 122.223 44.3481 119.552 45.2727 111.873C45.5121 109.885 45.6797 107.814 45.5634 106.079Z" fill="#AFB9C5"/>
<path fill-rule="evenodd" clip-rule="evenodd" d="M55.0184 116.361C57.7558 123.955 59.276 128.049 59.5789 128.641C59.801 129.075 61.3771 130.415 62.465 131.186C62.9017 131.495 62.7393 131.874 62.5821 131.971C61.3038 132.768 60.4071 131.77 59.2552 131.203C57.9933 130.583 58.1585 132.255 57.1587 131.781C57.4356 131.095 58.095 129.821 57.7307 128.966C57.5688 128.586 55.6123 124.364 51.8613 116.299L55.0184 116.361Z" fill="#B28B67"/>
<path fill-rule="evenodd" clip-rule="evenodd" d="M52.1133 122.012L40.7359 121.7C41.5915 116.892 43.4713 112.751 43.205 106.172L46.9206 105.396C49.7897 109.717 51.2967 114.982 52.1133 122.012Z" fill="#C5CFD6"/>
<path fill-rule="evenodd" clip-rule="evenodd" d="M52.1782 121.928L48.8837 121.842C49.5423 118.667 49.3232 113.463 48.2265 106.23C50.7589 110.5 51.4383 114.965 52.1782 121.928Z" fill="black" fill-opacity="0.1"/>
<path fill-rule="evenodd" clip-rule="evenodd" d="M47.3153 105.38C53.0301 110.623 56.9301 117.921 59.0152 127.273L51.4673 127.068C50.9495 119.227 49.6415 112.282 46.3938 106.203L47.0708 105.374L47.3153 105.38Z" fill="#C5CFD6"/>
</svg>
