<svg width="134" height="280" viewBox="0 0 134 280" fill="none" xmlns="http://www.w3.org/2000/svg">
<path opacity="0.87" d="M117.949 182.883V209.916C117.949 222.273 116.699 232.829 114.198 241.582C111.697 250.335 108.093 257.507 103.385 263.098C98.6773 268.614 93.0502 272.697 86.5035 275.345C79.9569 277.919 72.6747 279.207 64.657 279.207C58.2575 279.207 52.2993 278.398 46.7825 276.779C41.2657 275.088 36.3006 272.513 31.8871 269.056C27.5473 265.525 23.7958 261.038 20.6329 255.595C17.5434 250.152 15.1528 243.642 13.461 236.065C11.8427 228.489 11.0336 219.772 11.0336 209.916V182.883C11.0336 170.526 12.2841 160.007 14.785 151.327C17.3596 142.647 21.0006 135.549 25.7083 130.032C30.416 124.515 36.0431 120.507 42.5898 118.006C49.1364 115.431 56.4186 114.144 64.4363 114.144C70.9094 114.144 76.8675 114.953 82.3108 116.571C87.8276 118.189 92.7559 120.727 97.0958 124.184C101.509 127.568 105.261 131.982 108.35 137.425C111.44 142.794 113.793 149.268 115.412 156.844C117.103 164.347 117.949 173.027 117.949 182.883ZM88.8206 213.888V178.801C88.8206 172.622 88.4528 167.252 87.7172 162.692C87.0552 158.058 86.0622 154.122 84.7382 150.886C83.4141 147.649 81.7591 145.038 79.773 143.052C77.787 140.992 75.5067 139.484 72.9322 138.528C70.3577 137.572 67.5257 137.094 64.4363 137.094C60.6113 137.094 57.1909 137.866 54.1751 139.411C51.1592 140.882 48.6215 143.236 46.5619 146.472C44.5022 149.709 42.9208 154.012 41.8174 159.382C40.7876 164.678 40.2727 171.151 40.2727 178.801V213.888C40.2727 220.067 40.6037 225.473 41.2657 230.107C42.0013 234.741 43.0311 238.713 44.3551 242.023C45.7527 245.334 47.4078 248.055 49.3203 250.188C51.3063 252.248 53.5866 253.793 56.1611 254.822C58.7356 255.779 61.5676 256.257 64.657 256.257C68.5555 256.257 71.976 255.484 74.9182 253.94C77.9341 252.395 80.4718 249.968 82.5314 246.658C84.5911 243.274 86.1358 238.897 87.1656 233.528C88.2689 228.084 88.8206 221.538 88.8206 213.888Z" fill="#080680"/>
<path fill-rule="evenodd" clip-rule="evenodd" d="M80.9894 109.411L80.3776 102.418L79.3518 102.231L77.6044 108.795L80.9894 109.411Z" fill="#B28B67"/>
<path fill-rule="evenodd" clip-rule="evenodd" d="M76.3042 105.168C77.335 105.641 81.6694 104.258 81.8248 101.134C81.9802 98.01 77.6666 97.9153 76.6571 99.3219C75.6477 100.728 75.2734 104.696 76.3042 105.168Z" fill="#B28B67"/>
<path fill-rule="evenodd" clip-rule="evenodd" d="M80.6607 104.532C81.3228 102.674 82.7056 101.578 82.6224 100.678C82.5669 100.078 82.2776 99.659 81.7545 99.42C81.6123 98.2253 80.77 97.5746 79.2274 97.4679C76.9135 97.3079 75.4049 98.0138 75.7534 100.236C76.3066 100.337 76.9987 100.256 77.8805 100.771C78.1603 100.935 78.329 101.314 78.3864 101.91L78.8037 101.986C79.2902 101.38 79.7195 101.203 80.0916 101.455C80.4637 101.707 80.5007 102.161 80.2026 102.817L80.2168 104.451L80.6607 104.532Z" fill="#101030"/>
<path fill-rule="evenodd" clip-rule="evenodd" d="M84.5234 119.993L68.6484 132.71L56.1865 143.847L54.5681 143.197L77.9586 117.357L84.5234 119.993Z" fill="#997659"/>
<path fill-rule="evenodd" clip-rule="evenodd" d="M57.0227 143.192C57.0345 143.677 57.0042 144.023 56.9317 144.23C56.845 144.477 56.6772 144.822 56.4284 145.263C56.1408 145.148 53.5567 144.111 48.6759 142.153C48.7074 141.407 48.9494 141.095 49.402 141.216C49.8546 141.337 50.232 141.434 50.534 141.506L54.7108 141.348C54.7849 141.345 54.8498 141.404 54.8556 141.48C54.8557 141.481 54.8558 141.482 54.8558 141.483L54.8916 142.148C55.2278 142.497 55.5216 142.721 55.7728 142.822C55.9807 142.906 56.2992 142.936 56.7284 142.913C56.8765 142.905 57.0078 143.022 57.0216 143.174C57.0221 143.18 57.0225 143.186 57.0227 143.192Z" fill="#E4E4E4"/>
<path fill-rule="evenodd" clip-rule="evenodd" d="M59.0905 142.462L56.2924 140.26C59.0921 136.719 62.3446 132.892 66.0499 128.778C69.7552 124.664 73.5476 120.78 77.4271 117.128L86.2622 120.678C81.7046 125.438 77.1787 129.609 72.6848 133.191C68.1908 136.772 63.6594 139.863 59.0905 142.462Z" fill="#DB2721"/>
<path fill-rule="evenodd" clip-rule="evenodd" d="M84.6428 123.177C80.9969 127.597 76.7689 133.735 76.7194 134.017C76.6863 134.205 78.5586 138.359 82.3362 146.48L81.0483 147.091C75.2888 138.475 72.5093 133.718 72.7098 132.819C73.0106 131.471 76.9794 122.641 80.0396 117.924L84.6428 123.177Z" fill="#B28B67"/>
<path fill-rule="evenodd" clip-rule="evenodd" d="M81.8379 144.551L79.54 145.47C73.8276 139.521 71.0154 135.337 71.1035 132.917C71.1916 130.496 74.5651 125.171 81.2239 116.941L87.2339 124.288C81.5035 130.687 78.5542 134.066 78.3859 134.423C78.2177 134.78 79.3684 138.156 81.8379 144.551Z" fill="#FF4133"/>
<path fill-rule="evenodd" clip-rule="evenodd" d="M82.2819 144.875C82.7352 144.961 83.0534 145.059 83.2366 145.171C83.4555 145.305 83.7539 145.537 84.1317 145.868C83.9848 146.124 82.6648 148.426 80.1716 152.774C79.4804 152.594 79.2222 152.296 79.397 151.881C79.5718 151.465 79.7137 151.118 79.8225 150.839L80.2455 146.75C80.2531 146.678 80.3171 146.627 80.3887 146.636C80.3897 146.636 80.3907 146.636 80.3917 146.637L81.017 146.735C81.3879 146.479 81.6375 146.238 81.7658 146.015C81.872 145.829 81.9439 145.526 81.9814 145.105C81.9944 144.959 82.121 144.855 82.2643 144.872C82.2702 144.873 82.2761 144.874 82.2819 144.875Z" fill="#E4E4E4"/>
<path fill-rule="evenodd" clip-rule="evenodd" d="M70.5684 114.655L64.7867 113.72C63.611 113.046 62.5355 112.583 61.5603 112.331C61.2881 112.316 60.8595 112.404 61.5252 112.961C62.1908 113.519 62.8681 114.134 62.7647 114.419C62.6613 114.705 62.0578 114.583 61.976 115.024C61.9215 115.318 62.8959 115.391 64.8993 115.242L69.6388 117.223L70.5684 114.655Z" fill="#997659"/>
<path fill-rule="evenodd" clip-rule="evenodd" d="M79.5887 106.183L77.1097 106.282C76.7273 111.806 73.5378 115.217 66.0224 113.831L65.3264 120.94C72.3421 122.029 78.3462 119.399 79.2866 111.866C79.5301 109.916 79.7019 107.884 79.5887 106.183Z" fill="#AFB9C5"/>
<path fill-rule="evenodd" clip-rule="evenodd" d="M89.0365 116.28C91.7559 123.744 93.2663 127.767 93.5676 128.349C93.7886 128.776 95.36 130.091 96.445 130.847C96.8805 131.15 96.7176 131.523 96.5605 131.62C95.2824 132.405 94.3888 131.425 93.2396 130.87C91.9805 130.262 92.1423 131.907 91.1449 131.442C91.4226 130.767 92.0835 129.513 91.7213 128.672C91.5604 128.299 89.6145 124.15 85.8838 116.225L89.0365 116.28Z" fill="#B28B67"/>
<path fill-rule="evenodd" clip-rule="evenodd" d="M86.1137 121.837L74.7068 121.55C75.5737 116.819 77.4664 112.741 77.2118 106.269L80.9387 105.5C83.8072 109.745 85.3082 114.922 86.1137 121.837Z" fill="#C5CFD6"/>
<path fill-rule="evenodd" clip-rule="evenodd" d="M86.179 121.754L82.8598 121.675C83.5294 118.553 83.3185 113.439 82.2273 106.331C84.7707 110.523 85.4467 114.911 86.179 121.754Z" fill="black" fill-opacity="0.1"/>
<path fill-rule="evenodd" clip-rule="evenodd" d="M81.3184 105.495C87.0421 110.641 90.941 117.811 93.0153 127.005L85.443 126.817C84.9384 119.106 83.6392 112.278 80.3924 106.305L81.0732 105.488L81.3184 105.495Z" fill="#C5CFD6"/>
</svg>
