<svg width="134" height="280" viewBox="0 0 134 280" fill="none" xmlns="http://www.w3.org/2000/svg">
<path opacity="0.87" d="M117.949 182.883V209.916C117.949 222.273 116.699 232.829 114.198 241.582C111.697 250.335 108.093 257.507 103.385 263.098C98.6773 268.614 93.0502 272.697 86.5035 275.345C79.9569 277.919 72.6747 279.207 64.657 279.207C58.2575 279.207 52.2993 278.398 46.7825 276.779C41.2657 275.088 36.3006 272.513 31.8871 269.056C27.5473 265.525 23.7958 261.038 20.6329 255.595C17.5434 250.152 15.1528 243.642 13.461 236.065C11.8427 228.489 11.0336 219.772 11.0336 209.916V182.883C11.0336 170.526 12.2841 160.007 14.785 151.327C17.3596 142.647 21.0006 135.549 25.7083 130.032C30.416 124.515 36.0431 120.507 42.5898 118.006C49.1364 115.431 56.4186 114.144 64.4363 114.144C70.9094 114.144 76.8675 114.953 82.3108 116.571C87.8276 118.189 92.7559 120.727 97.0958 124.184C101.509 127.568 105.261 131.982 108.35 137.425C111.44 142.794 113.793 149.268 115.412 156.844C117.103 164.347 117.949 173.027 117.949 182.883ZM88.8206 213.888V178.801C88.8206 172.622 88.4528 167.252 87.7172 162.692C87.0552 158.058 86.0622 154.122 84.7382 150.886C83.4141 147.649 81.7591 145.038 79.773 143.052C77.787 140.992 75.5067 139.484 72.9322 138.528C70.3577 137.572 67.5257 137.094 64.4363 137.094C60.6113 137.094 57.1909 137.866 54.1751 139.411C51.1592 140.882 48.6215 143.236 46.5619 146.472C44.5022 149.709 42.9208 154.012 41.8174 159.382C40.7876 164.678 40.2727 171.151 40.2727 178.801V213.888C40.2727 220.067 40.6037 225.473 41.2657 230.107C42.0013 234.741 43.0311 238.713 44.3551 242.023C45.7527 245.334 47.4078 248.055 49.3203 250.188C51.3063 252.248 53.5866 253.793 56.1611 254.822C58.7356 255.779 61.5676 256.257 64.657 256.257C68.5555 256.257 71.976 255.484 74.9182 253.94C77.9341 252.395 80.4718 249.968 82.5314 246.658C84.5911 243.274 86.1358 238.897 87.1656 233.528C88.2689 228.084 88.8206 221.538 88.8206 213.888Z" fill="#080680"/>
<path fill-rule="evenodd" clip-rule="evenodd" d="M80.9867 109.021L80.3773 102.052L79.3521 101.866L77.6034 108.407L80.9867 109.021Z" fill="#B28B67"/>
<path fill-rule="evenodd" clip-rule="evenodd" d="M76.3034 104.794C77.3338 105.265 81.6674 103.885 81.8237 100.772C81.9801 97.6585 77.6677 97.5653 76.6581 98.9673C75.6485 100.369 75.2731 104.323 76.3034 104.794Z" fill="#B28B67"/>
<path fill-rule="evenodd" clip-rule="evenodd" d="M80.6586 104.159C81.3211 102.307 82.704 101.214 82.6211 100.317C82.5658 99.7198 82.2767 99.3019 81.7538 99.0638C81.6121 97.8731 80.7702 97.2248 79.228 97.119C76.9148 96.9602 75.4063 97.6642 75.7539 99.8788C76.307 99.9791 76.9989 99.8984 77.8804 100.412C78.16 100.575 78.3285 100.953 78.3857 101.547L78.8029 101.623C79.2895 101.018 79.7188 100.842 80.0907 101.093C80.4625 101.344 80.4994 101.796 80.2012 102.45L80.2148 104.079L80.6586 104.159Z" fill="#101030"/>
<path fill-rule="evenodd" clip-rule="evenodd" d="M84.5225 119.559L68.6472 132.237L56.1848 143.339L54.5671 142.692L77.9605 116.934L84.5225 119.559Z" fill="#997659"/>
<path fill-rule="evenodd" clip-rule="evenodd" d="M57.0219 142.68C57.0336 143.163 57.0031 143.507 56.9306 143.714C56.8438 143.961 56.6759 144.304 56.4269 144.744C56.1394 144.63 53.5556 143.597 48.6754 141.647C48.7071 140.903 48.9492 140.592 49.4018 140.712C49.8544 140.833 50.2317 140.929 50.5337 141.001L54.7106 140.842C54.7848 140.839 54.8496 140.898 54.8554 140.973C54.8555 140.975 54.8556 140.976 54.8556 140.977L54.8912 141.64C55.2273 141.987 55.521 142.211 55.7722 142.311C55.98 142.394 56.2986 142.425 56.7277 142.402C56.8759 142.394 57.0071 142.51 57.0208 142.661C57.0214 142.667 57.0218 142.674 57.0219 142.68Z" fill="#E4E4E4"/>
<path fill-rule="evenodd" clip-rule="evenodd" d="M59.0883 141.958L56.2917 139.765C59.092 136.236 62.3451 132.421 66.051 128.319C69.7568 124.218 73.5497 120.347 77.4296 116.706L86.2612 120.24C81.703 124.986 77.1767 129.144 72.6826 132.715C68.1884 136.285 63.657 139.366 59.0883 141.958Z" fill="#DB2721"/>
<path fill-rule="evenodd" clip-rule="evenodd" d="M84.6456 122.736C80.9978 127.141 76.7673 133.259 76.7176 133.54C76.6845 133.727 78.5554 137.866 82.3302 145.957L81.0421 146.565C75.2853 137.982 72.5073 133.243 72.7082 132.348C73.0095 131.005 76.9819 122.204 80.044 117.503L84.6456 122.736Z" fill="#B28B67"/>
<path fill-rule="evenodd" clip-rule="evenodd" d="M81.8322 144.034L79.5339 144.951C73.8233 139.025 71.0124 134.857 71.1014 132.445C71.1905 130.034 74.5661 124.726 81.2283 116.524L87.236 123.841C81.5029 130.22 78.5522 133.588 78.3838 133.943C78.2154 134.299 79.3649 137.663 81.8322 144.034Z" fill="#FF4133"/>
<path fill-rule="evenodd" clip-rule="evenodd" d="M82.2819 144.357C82.7351 144.442 83.0532 144.541 83.2362 144.652C83.455 144.786 83.7532 145.017 84.1308 145.346C83.9838 145.601 82.6634 147.895 80.1693 152.228C79.4784 152.049 79.2205 151.752 79.3954 151.339C79.5703 150.925 79.7122 150.579 79.8211 150.301L80.2455 146.226C80.2531 146.154 80.3172 146.103 80.3887 146.113C80.3897 146.113 80.3907 146.113 80.3917 146.113L81.0168 146.211C81.3876 145.955 81.6372 145.716 81.7656 145.493C81.8718 145.308 81.9438 145.006 81.9815 144.586C81.9945 144.441 82.1211 144.338 82.2644 144.354C82.2703 144.355 82.2761 144.356 82.2819 144.357Z" fill="#E4E4E4"/>
<path fill-rule="evenodd" clip-rule="evenodd" d="M70.5691 114.244L64.7866 113.313C63.6109 112.642 62.5354 112.181 61.5601 111.929C61.2878 111.914 60.8591 112.003 61.5247 112.558C62.1902 113.114 62.8675 113.727 62.7639 114.012C62.6603 114.297 62.0568 114.175 61.9748 114.615C61.9201 114.908 62.8947 114.98 64.8986 114.831L69.6383 116.805L70.5691 114.244Z" fill="#997659"/>
<path fill-rule="evenodd" clip-rule="evenodd" d="M79.5931 105.804L77.1134 105.903C76.7287 111.406 73.5369 114.804 66.0199 113.427L65.321 120.508C72.3383 121.591 78.3451 118.969 79.2887 111.464C79.533 109.522 79.7057 107.498 79.5931 105.804Z" fill="#AFB9C5"/>
<path fill-rule="evenodd" clip-rule="evenodd" d="M89.0396 115.864C91.7554 123.302 93.2638 127.311 93.5649 127.891C93.7856 128.316 95.3561 129.626 96.4405 130.379C96.8757 130.681 96.7127 131.053 96.5556 131.149C95.2776 131.933 94.3846 130.956 93.2359 130.403C91.9775 129.798 92.1386 131.437 91.1416 130.974C91.4195 130.301 92.0807 129.051 91.719 128.214C91.5582 127.841 89.6145 123.707 85.8879 115.81L89.0396 115.864Z" fill="#B28B67"/>
<path fill-rule="evenodd" clip-rule="evenodd" d="M86.1131 121.401L74.7003 121.12C75.5695 116.404 77.4647 112.339 77.2125 105.889L80.9417 105.12C83.8101 109.351 85.3099 114.51 86.1131 121.401Z" fill="#C5CFD6"/>
<path fill-rule="evenodd" clip-rule="evenodd" d="M86.1783 121.319L82.8542 121.241C83.5259 118.131 83.3167 113.034 82.2266 105.951C84.7723 110.128 85.4476 114.5 86.1783 121.319Z" fill="black" fill-opacity="0.1"/>
<path fill-rule="evenodd" clip-rule="evenodd" d="M81.3187 105.117C87.0441 110.244 90.9428 117.389 93.0149 126.552L85.4377 126.367C84.9357 118.682 83.6384 111.878 80.3917 105.925L81.0733 105.111L81.3187 105.117Z" fill="#C5CFD6"/>
</svg>
