<svg width="133" height="277" viewBox="0 0 133 277" fill="none" xmlns="http://www.w3.org/2000/svg">
<path opacity="0.87" d="M86.6139 115.909V277H57.3748V150.003L18.6468 162.802V139.19L83.3038 115.909H86.6139Z" fill="#080680"/>
<path fill-rule="evenodd" clip-rule="evenodd" d="M67.9388 106.383L67.3981 100.093L66.3876 99.9322L64.6039 105.852L67.9388 106.383Z" fill="#B28B67"/>
<path fill-rule="evenodd" clip-rule="evenodd" d="M63.2956 102.606C64.3137 103.025 68.6249 101.746 68.8074 98.9275C68.9899 96.109 64.7126 96.0546 63.6987 97.3303C62.6848 98.6061 62.2776 102.187 63.2956 102.606Z" fill="#B28B67"/>
<path fill-rule="evenodd" clip-rule="evenodd" d="M67.612 102.014C68.2882 100.329 69.6723 99.326 69.5987 98.5135C69.5497 97.9719 69.2667 97.5952 68.7497 97.3835C68.6207 96.3046 67.7909 95.7235 66.2603 95.64C63.9645 95.5148 62.4595 96.1656 62.783 98.1714C63.3313 98.2579 64.0193 98.1791 64.8896 98.6376C65.1658 98.7831 65.3294 99.1249 65.3804 99.663L65.7939 99.7283C66.2831 99.1764 66.7112 99.0128 67.0781 99.2374C67.4449 99.4621 67.4771 99.8721 67.1745 100.468L67.1721 101.945L67.612 102.014Z" fill="#101030"/>
<path fill-rule="evenodd" clip-rule="evenodd" d="M71.5229 115.717L55.6433 127.305L43.1653 137.439L41.5676 136.87L65.0421 113.407L71.5229 115.717Z" fill="#997659"/>
<path fill-rule="evenodd" clip-rule="evenodd" d="M44.015 136.677C44.0219 137.117 43.988 137.431 43.9134 137.619C43.8241 137.845 43.6528 138.159 43.3993 138.562C43.1128 138.46 40.5382 137.541 35.6756 135.807C35.7147 135.129 35.9601 134.844 36.4116 134.95C36.8632 135.056 37.2397 135.14 37.5411 135.203L41.7212 135.023C41.7954 135.019 41.8597 135.073 41.8647 135.141C41.8648 135.142 41.8649 135.143 41.8649 135.144L41.8938 135.748C42.2267 136.061 42.5182 136.263 42.7685 136.352C42.9756 136.426 43.294 136.451 43.7235 136.426C43.8718 136.418 44.0019 136.523 44.0142 136.66C44.0147 136.666 44.015 136.671 44.015 136.677Z" fill="#E4E4E4"/>
<path fill-rule="evenodd" clip-rule="evenodd" d="M46.0533 136.189L43.2998 134.233C46.1174 131.02 49.3875 127.544 53.1103 123.806C56.8331 120.069 60.6398 116.538 64.5305 113.214L73.2617 116.327C68.6858 120.654 64.148 124.451 59.6482 127.717C55.1483 130.982 50.6167 133.807 46.0533 136.189Z" fill="#DB2721"/>
<path fill-rule="evenodd" clip-rule="evenodd" d="M71.7549 118.697C68.0528 122.7 63.7484 128.251 63.6956 128.505C63.6604 128.673 65.4908 132.386 69.1867 139.643L67.8894 140.203C62.213 132.52 59.4801 128.275 59.691 127.466C60.0073 126.253 64.0816 118.287 67.2001 114.023L71.7549 118.697Z" fill="#B28B67"/>
<path fill-rule="evenodd" clip-rule="evenodd" d="M68.6968 137.904L66.3845 138.749C60.7269 133.466 57.9557 129.738 58.0706 127.566C58.1856 125.394 61.624 120.586 68.3859 113.141L74.3262 119.675C68.5146 125.47 65.5225 128.528 65.35 128.85C65.1775 129.171 66.2931 132.189 68.6968 137.904Z" fill="#FF4133"/>
<path fill-rule="evenodd" clip-rule="evenodd" d="M69.3095 138.206C69.7576 138.278 70.0717 138.364 70.2519 138.462C70.4672 138.58 70.7602 138.785 71.1308 139.077C70.9825 139.308 69.6492 141.383 67.131 145.302C66.4483 145.147 66.1959 144.883 66.3737 144.509C66.5515 144.135 66.6959 143.823 66.8068 143.572L67.2714 139.905C67.2796 139.84 67.3437 139.793 67.4145 139.801C67.4155 139.801 67.4165 139.802 67.4175 139.802L68.0358 139.884C68.406 139.651 68.6559 139.433 68.7855 139.232C68.8928 139.065 68.9674 138.792 69.0093 138.414C69.0237 138.284 69.1504 138.189 69.2921 138.203C69.2979 138.204 69.3037 138.205 69.3095 138.206Z" fill="#E4E4E4"/>
<path fill-rule="evenodd" clip-rule="evenodd" d="M57.5981 111.039L51.7922 110.24C50.6172 109.634 49.5407 109.221 48.5626 108.999C48.2889 108.988 47.8566 109.074 48.5198 109.578C49.1829 110.082 49.8572 110.639 49.7498 110.902C49.6424 111.166 49.0367 111.059 48.9492 111.465C48.8909 111.735 49.8704 111.792 51.8877 111.635L56.6327 113.404L57.5981 111.039Z" fill="#997659"/>
<path fill-rule="evenodd" clip-rule="evenodd" d="M66.74 103.485L64.2381 103.597C63.7872 108.508 60.5294 111.569 52.9644 110.412L52.1785 116.734C59.2429 117.634 65.3307 115.238 66.3683 108.536C66.6368 106.801 66.8341 104.994 66.74 103.485Z" fill="#AFB9C5"/>
<path fill-rule="evenodd" clip-rule="evenodd" d="M76.1453 112.522C78.7562 119.239 80.2077 122.86 80.4999 123.382C80.7141 123.766 82.2574 124.939 83.3247 125.611C83.7531 125.881 83.5872 126.219 83.4303 126.308C82.1537 127.031 81.2788 126.154 80.1455 125.664C78.9038 125.127 79.0453 126.611 78.0614 126.202C78.3447 125.589 79.0146 124.449 78.6651 123.693C78.5098 123.357 76.6279 119.627 73.0194 112.503L76.1453 112.522Z" fill="#B28B67"/>
<path fill-rule="evenodd" clip-rule="evenodd" d="M73.1132 117.535L61.5243 117.39C62.4615 113.1 64.4332 109.391 64.2513 103.538L68.0479 102.804C70.9127 106.617 72.3767 111.286 73.1132 117.535Z" fill="#C5CFD6"/>
<path fill-rule="evenodd" clip-rule="evenodd" d="M73.1786 117.46L69.701 117.422C70.4411 114.606 70.283 110.005 69.2269 103.618C71.8408 107.366 72.4953 111.308 73.1786 117.46Z" fill="black" fill-opacity="0.1"/>
<path fill-rule="evenodd" clip-rule="evenodd" d="M68.3376 102.858C74.116 107.45 78.0085 113.888 80.0153 122.174L72.2916 122.079C71.8687 115.118 70.6246 108.963 67.3831 103.599L68.0875 102.855L68.3376 102.858Z" fill="#C5CFD6"/>
</svg>
