<svg width="133" height="313" viewBox="0 0 133 313" fill="none" xmlns="http://www.w3.org/2000/svg">
<path opacity="0.87" d="M86.6139 115.909V277H57.3748V150.003L18.6468 162.802V139.19L83.3038 115.909H86.6139Z" fill="#080680"/>
<path fill-rule="evenodd" clip-rule="evenodd" d="M67.9975 101.365L67.3735 94.2498L66.3451 94.0585L64.6039 100.734L67.9975 101.365Z" fill="#B28B67"/>
<path fill-rule="evenodd" clip-rule="evenodd" d="M63.3057 97.041C64.3387 97.5231 68.677 96.1216 68.8278 92.9446C68.9786 89.7676 64.6587 89.6658 63.6501 91.0951C62.6414 92.5244 62.2727 96.559 63.3057 97.041Z" fill="#B28B67"/>
<path fill-rule="evenodd" clip-rule="evenodd" d="M67.6689 96.3969C68.3286 94.509 69.7113 93.3962 69.6264 92.4816C69.5698 91.8718 69.2794 91.445 68.7553 91.2012C68.6109 89.9863 67.7665 89.3235 66.2219 89.2127C63.9049 89.0465 62.3957 89.7619 62.7484 92.0215C63.3025 92.1249 63.9952 92.0438 64.879 92.5691C65.1594 92.7358 65.3289 93.1221 65.3874 93.7279L65.8054 93.8059C66.2914 93.1906 66.7209 93.0113 67.0939 93.268C67.4668 93.5247 67.5047 93.9863 67.2074 94.6528L67.2243 96.3139L67.6689 96.3969Z" fill="#101030"/>
<path fill-rule="evenodd" clip-rule="evenodd" d="M71.5229 112.166L55.6486 125.078L43.1894 136.388L41.5676 135.724L64.9441 109.473L71.5229 112.166Z" fill="#997659"/>
<path fill-rule="evenodd" clip-rule="evenodd" d="M44.0234 135.754C44.0361 136.247 44.0064 136.598 43.9342 136.808C43.848 137.059 43.6808 137.409 43.4327 137.858C43.145 137.74 40.5593 136.682 35.6756 134.685C35.7057 133.927 35.9472 133.61 36.4 133.734C36.8528 133.858 37.2302 133.957 37.5324 134.031L41.7086 133.876C41.7827 133.873 41.8477 133.934 41.8536 134.011C41.8537 134.012 41.8538 134.013 41.8538 134.014L41.8907 134.69C42.2276 135.045 42.5217 135.273 42.773 135.376C42.9811 135.461 43.2996 135.493 43.7287 135.47C43.8768 135.463 44.0083 135.581 44.0223 135.735C44.0229 135.742 44.0233 135.748 44.0234 135.754Z" fill="#E4E4E4"/>
<path fill-rule="evenodd" clip-rule="evenodd" d="M46.0962 134.979L43.2906 132.735C46.0873 129.137 49.3368 125.249 53.0392 121.07C56.7416 116.891 60.5316 112.946 64.4093 109.237L73.2617 112.864C68.7071 117.699 64.1833 121.935 59.6903 125.571C55.1973 129.207 50.6659 132.343 46.0962 134.979Z" fill="#DB2721"/>
<path fill-rule="evenodd" clip-rule="evenodd" d="M71.6237 115.384C67.9872 119.877 63.7717 126.117 63.7227 126.404C63.69 126.595 65.5692 130.826 69.3603 139.098L68.074 139.717C62.3007 130.938 59.5135 126.091 59.7123 125.177C60.0106 123.806 63.962 114.826 67.0126 110.03L71.6237 115.384Z" fill="#B28B67"/>
<path fill-rule="evenodd" clip-rule="evenodd" d="M68.8606 137.136L66.5651 138.067C60.8436 132.002 58.0247 127.738 58.1084 125.274C58.192 122.811 61.5548 117.396 68.1966 109.03L74.2181 116.518C68.5011 123.023 65.5588 126.457 65.3913 126.82C65.2238 127.183 66.3802 130.622 68.8606 137.136Z" fill="#FF4133"/>
<path fill-rule="evenodd" clip-rule="evenodd" d="M69.2772 137.463C69.7314 137.551 70.0503 137.653 70.2339 137.767C70.4535 137.904 70.7527 138.14 71.1318 138.477C70.9851 138.738 69.6673 141.08 67.1782 145.502C66.4856 145.318 66.2265 145.014 66.4008 144.591C66.5751 144.169 66.7165 143.816 66.825 143.532L67.2411 139.369C67.2485 139.295 67.3126 139.243 67.3843 139.253C67.3853 139.253 67.3863 139.253 67.3873 139.254L68.0138 139.355C68.3847 139.095 68.6343 138.85 68.7624 138.623C68.8684 138.434 68.9399 138.126 68.9767 137.697C68.9894 137.549 69.1161 137.443 69.2596 137.46C69.2655 137.461 69.2714 137.462 69.2772 137.463Z" fill="#E4E4E4"/>
<path fill-rule="evenodd" clip-rule="evenodd" d="M57.5631 106.712L51.7853 105.752C50.6094 105.067 49.5342 104.595 48.5595 104.337C48.2875 104.322 47.8595 104.411 48.5256 104.977C49.1916 105.544 49.8694 106.169 49.7667 106.458C49.6639 106.748 49.0607 106.622 48.9799 107.07C48.926 107.368 49.8996 107.444 51.9007 107.297L56.6393 109.315L57.5631 106.712Z" fill="#997659"/>
<path fill-rule="evenodd" clip-rule="evenodd" d="M66.5634 98.0794L64.0882 98.1756C63.7169 103.807 60.5385 107.278 53.0313 105.852L52.3499 113.099C59.3577 114.223 65.3481 111.552 66.2727 103.873C66.5121 101.885 66.6797 99.8136 66.5634 98.0794Z" fill="#AFB9C5"/>
<path fill-rule="evenodd" clip-rule="evenodd" d="M76.0184 108.361C78.7558 115.955 80.276 120.049 80.5789 120.641C80.801 121.075 82.3771 122.415 83.465 123.186C83.9017 123.495 83.7393 123.874 83.5821 123.971C82.3038 124.768 81.4071 123.77 80.2552 123.203C78.9933 122.583 79.1585 124.255 78.1587 123.781C78.4356 123.095 79.095 121.821 78.7307 120.966C78.5688 120.586 76.6123 116.364 72.8613 108.299L76.0184 108.361Z" fill="#B28B67"/>
<path fill-rule="evenodd" clip-rule="evenodd" d="M73.1133 114.012L61.7359 113.7C62.5915 108.892 64.4713 104.751 64.205 98.1716L67.9206 97.3961C70.7897 101.717 72.2967 106.982 73.1133 114.012Z" fill="#C5CFD6"/>
<path fill-rule="evenodd" clip-rule="evenodd" d="M73.1782 113.928L69.8837 113.842C70.5423 110.667 70.3232 105.463 69.2265 98.2297C71.7589 102.5 72.4383 106.965 73.1782 113.928Z" fill="black" fill-opacity="0.1"/>
<path fill-rule="evenodd" clip-rule="evenodd" d="M68.3153 97.3802C74.0301 102.623 77.9301 109.921 80.0152 119.273L72.4673 119.068C71.9495 111.227 70.6415 104.282 67.3938 98.2026L68.0708 97.3736L68.3153 97.3802Z" fill="#C5CFD6"/>
</svg>
