<svg width="140" height="277" viewBox="0 0 140 277" fill="none" xmlns="http://www.w3.org/2000/svg">
<path opacity="0.87" d="M120.377 254.05V277H11.5853V257.36L63.7743 200.978C69.2175 194.8 73.5207 189.43 76.6836 184.869C79.8466 180.309 82.0901 176.19 83.4141 172.512C84.8117 168.76 85.5105 165.193 85.5105 161.809C85.5105 156.881 84.6278 152.578 82.8625 148.9C81.0971 145.148 78.5226 142.243 75.1389 140.183C71.8288 138.124 67.7464 137.094 62.8916 137.094C57.5219 137.094 52.9246 138.344 49.0996 140.845C45.3482 143.273 42.4794 146.656 40.4934 150.996C38.5809 155.336 37.6246 160.301 37.6246 165.891H8.38555C8.38555 156.403 10.5923 147.76 15.0057 139.962C19.4192 132.092 25.7451 125.803 33.9835 121.095C42.222 116.387 52.0051 114.033 63.333 114.033C74.3666 114.033 83.7084 115.872 91.3583 119.55C99.0083 123.155 104.819 128.304 108.791 134.997C112.764 141.691 114.75 149.672 114.75 158.94C114.75 164.089 113.904 169.165 112.212 174.167C110.52 179.169 108.129 184.134 105.04 189.062C102.024 193.917 98.4198 198.845 94.2271 203.847C90.0343 208.849 85.3634 213.961 80.2144 219.184L48.8789 254.05H120.377Z" fill="#080680"/>
<path fill-rule="evenodd" clip-rule="evenodd" d="M68.9654 104.115L68.3863 97.4481L67.3675 97.2734L65.6034 103.539L68.9654 104.115Z" fill="#B28B67"/>
<path fill-rule="evenodd" clip-rule="evenodd" d="M64.2998 100.089C65.3248 100.536 69.6485 99.2012 69.8163 96.2187C69.9842 93.2363 65.6872 93.1605 64.6757 94.5065C63.6642 95.8526 63.2749 99.6409 64.2998 100.089Z" fill="#B28B67"/>
<path fill-rule="evenodd" clip-rule="evenodd" d="M68.638 99.4728C69.3065 97.6949 70.6899 96.6414 70.6111 95.7822C70.5585 95.2094 70.2721 94.8098 69.7518 94.5835C69.6157 93.4424 68.779 92.8239 67.2419 92.7281C64.9363 92.5844 63.4293 93.265 63.7664 95.387C64.3174 95.4811 65.0076 95.4012 65.8842 95.8901C66.1623 96.0453 66.3287 96.4074 66.3832 96.9766L66.7988 97.0476C67.2865 96.4666 67.7152 96.2958 68.0849 96.535C68.4546 96.7743 68.4894 97.208 68.1893 97.836L68.1959 99.3973L68.638 99.4728Z" fill="#101030"/>
<path fill-rule="evenodd" clip-rule="evenodd" d="M72.5225 114.117L56.6453 126.313L44.1761 136.987L42.5671 136.375L65.9958 111.633L72.5225 114.117Z" fill="#997659"/>
<path fill-rule="evenodd" clip-rule="evenodd" d="M45.0187 136.28C45.0283 136.744 44.9964 137.075 44.9229 137.274C44.8351 137.511 44.6657 137.842 44.4147 138.266C44.1276 138.156 41.5479 137.175 36.6753 135.32C36.7102 134.606 36.9538 134.306 37.4059 134.42C37.858 134.534 38.235 134.625 38.5368 134.693L42.715 134.524C42.7892 134.521 42.8538 134.577 42.8593 134.65C42.8593 134.651 42.8594 134.652 42.8595 134.653L42.8921 135.29C43.2268 135.622 43.5196 135.836 43.7704 135.931C43.9779 136.01 44.2964 136.038 44.7257 136.014C44.8739 136.006 45.0046 136.117 45.0177 136.263C45.0183 136.268 45.0186 136.274 45.0187 136.28Z" fill="#E4E4E4"/>
<path fill-rule="evenodd" clip-rule="evenodd" d="M47.0733 135.664L44.2955 133.577C47.1033 130.188 50.3638 126.523 54.0771 122.582C57.7903 118.642 61.5892 114.921 65.4738 111.42L74.2617 114.766C69.6958 119.327 65.1645 123.325 60.6679 126.761C56.1712 130.197 51.6397 133.165 47.0733 135.664Z" fill="#DB2721"/>
<path fill-rule="evenodd" clip-rule="evenodd" d="M72.6932 117.208C69.0219 121.435 64.7594 127.302 64.7084 127.571C64.6743 127.75 66.5277 131.699 70.2683 139.42L68.9763 140.007C63.2542 131.824 60.4958 127.304 60.701 126.447C61.0088 125.162 65.0253 116.732 68.1119 112.224L72.6932 117.208Z" fill="#B28B67"/>
<path fill-rule="evenodd" clip-rule="evenodd" d="M69.7738 137.578L67.4694 138.463C61.7818 132.824 58.9881 128.851 59.0884 126.546C59.1886 124.241 62.5914 119.155 69.2968 111.288L75.2754 118.257C69.5082 124.377 66.5396 127.607 66.3694 127.948C66.1993 128.289 67.3341 131.499 69.7738 137.578Z" fill="#FF4133"/>
<path fill-rule="evenodd" clip-rule="evenodd" d="M70.2941 137.892C70.745 137.971 71.0614 138.064 71.2432 138.17C71.4605 138.296 71.7564 138.516 72.1309 138.828C71.9834 139.073 70.6573 141.27 68.1527 145.419C67.4654 145.251 67.2099 144.968 67.386 144.572C67.5622 144.176 67.7052 143.845 67.815 143.579L68.2569 139.686C68.2648 139.617 68.3288 139.568 68.4 139.577C68.401 139.577 68.4021 139.577 68.4031 139.577L69.0252 139.668C69.3958 139.422 69.6455 139.192 69.7744 138.979C69.8811 138.802 69.9542 138.513 69.9937 138.112C70.0074 137.973 70.134 137.874 70.2766 137.889C70.2825 137.89 70.2883 137.891 70.2941 137.892Z" fill="#E4E4E4"/>
<path fill-rule="evenodd" clip-rule="evenodd" d="M58.5815 109.087L52.7889 108.215C51.6135 107.573 50.5376 107.132 49.5611 106.894C49.2882 106.881 48.8579 106.968 49.5225 107.501C50.187 108.034 50.863 108.622 50.7577 108.897C50.6525 109.173 50.048 109.058 49.9637 109.483C49.9074 109.766 50.8841 109.831 52.8938 109.679L57.6358 111.561L58.5815 109.087Z" fill="#997659"/>
<path fill-rule="evenodd" clip-rule="evenodd" d="M67.6563 101.04L65.1671 101.146C64.7538 106.385 61.5336 109.634 53.9959 108.355L53.2595 115.099C60.2971 116.099 66.3388 113.576 67.3229 106.429C67.5777 104.579 67.761 102.652 67.6563 101.04Z" fill="#AFB9C5"/>
<path fill-rule="evenodd" clip-rule="evenodd" d="M77.0854 110.646C79.7556 117.764 81.2392 121.601 81.5364 122.155C81.7543 122.562 83.313 123.811 84.3899 124.528C84.8222 124.816 84.658 125.173 84.5009 125.266C83.2235 126.022 82.3384 125.09 81.1964 124.565C79.9452 123.991 80.0978 125.561 79.1065 125.122C79.3868 124.475 80.0518 123.274 79.6953 122.473C79.5369 122.117 77.6201 118.162 73.9449 110.608L77.0854 110.646Z" fill="#B28B67"/>
<path fill-rule="evenodd" clip-rule="evenodd" d="M74.1132 115.951L62.6248 115.731C63.5232 111.204 65.4512 107.297 65.2292 101.111L68.9873 100.357C71.8542 104.403 73.3386 109.344 74.1132 115.951Z" fill="#C5CFD6"/>
<path fill-rule="evenodd" clip-rule="evenodd" d="M74.1781 115.872L70.7892 115.812C71.4898 112.832 71.3022 107.955 70.2264 101.181C72.8009 105.168 73.4674 109.349 74.1781 115.872Z" fill="black" fill-opacity="0.1"/>
<path fill-rule="evenodd" clip-rule="evenodd" d="M69.3269 100.38C75.075 105.269 78.971 112.1 81.0151 120.874L73.3752 120.73C72.9071 113.366 71.6326 106.85 68.3881 101.159L69.0794 100.375L69.3269 100.38Z" fill="#C5CFD6"/>
</svg>
