<svg width="140" height="296" viewBox="0 0 140 296" fill="none" xmlns="http://www.w3.org/2000/svg">
<path opacity="0.87" d="M120.377 254.05V277H11.5853V257.36L63.7743 200.978C69.2175 194.8 73.5207 189.43 76.6836 184.869C79.8466 180.309 82.0901 176.19 83.4141 172.512C84.8117 168.76 85.5105 165.193 85.5105 161.809C85.5105 156.881 84.6278 152.578 82.8625 148.9C81.0971 145.148 78.5226 142.243 75.1389 140.183C71.8288 138.124 67.7464 137.094 62.8916 137.094C57.5219 137.094 52.9246 138.344 49.0996 140.845C45.3482 143.273 42.4794 146.656 40.4934 150.996C38.5809 155.336 37.6246 160.301 37.6246 165.891H8.38555C8.38555 156.403 10.5923 147.76 15.0057 139.962C19.4192 132.092 25.7451 125.803 33.9835 121.095C42.222 116.387 52.0051 114.033 63.333 114.033C74.3666 114.033 83.7084 115.872 91.3583 119.55C99.0083 123.155 104.819 128.304 108.791 134.997C112.764 141.691 114.75 149.672 114.75 158.94C114.75 164.089 113.904 169.165 112.212 174.167C110.52 179.169 108.129 184.134 105.04 189.062C102.024 193.917 98.4198 198.845 94.2271 203.847C90.0343 208.849 85.3634 213.961 80.2144 219.184L48.8789 254.05H120.377Z" fill="#080680"/>
<path fill-rule="evenodd" clip-rule="evenodd" d="M68.9975 97.3653L68.3735 90.2498L67.3451 90.0585L65.6039 96.7341L68.9975 97.3653Z" fill="#B28B67"/>
<path fill-rule="evenodd" clip-rule="evenodd" d="M64.3057 93.041C65.3387 93.5231 69.677 92.1216 69.8278 88.9446C69.9786 85.7676 65.6587 85.6658 64.6501 87.0951C63.6414 88.5244 63.2727 92.559 64.3057 93.041Z" fill="#B28B67"/>
<path fill-rule="evenodd" clip-rule="evenodd" d="M68.6689 92.3969C69.3286 90.509 70.7113 89.3962 70.6264 88.4816C70.5698 87.8718 70.2794 87.445 69.7553 87.2012C69.6109 85.9863 68.7665 85.3235 67.2219 85.2127C64.9049 85.0465 63.3957 85.7619 63.7484 88.0215C64.3025 88.1249 64.9952 88.0438 65.879 88.5691C66.1594 88.7358 66.3289 89.1221 66.3874 89.7279L66.8054 89.8059C67.2914 89.1906 67.7209 89.0113 68.0939 89.268C68.4668 89.5247 68.5047 89.9863 68.2074 90.6528L68.2243 92.3139L68.6689 92.3969Z" fill="#101030"/>
<path fill-rule="evenodd" clip-rule="evenodd" d="M72.5229 108.166L56.6486 121.078L44.1894 132.388L42.5676 131.724L65.9441 105.473L72.5229 108.166Z" fill="#997659"/>
<path fill-rule="evenodd" clip-rule="evenodd" d="M45.0234 131.754C45.0361 132.247 45.0064 132.598 44.9342 132.808C44.848 133.059 44.6808 133.409 44.4327 133.858C44.145 133.74 41.5593 132.682 36.6756 130.685C36.7057 129.927 36.9472 129.61 37.4 129.734C37.8528 129.858 38.2302 129.957 38.5324 130.031L42.7086 129.876C42.7827 129.873 42.8477 129.934 42.8536 130.011C42.8537 130.012 42.8538 130.013 42.8538 130.014L42.8907 130.69C43.2276 131.045 43.5217 131.273 43.773 131.376C43.9811 131.461 44.2996 131.493 44.7287 131.47C44.8768 131.463 45.0083 131.581 45.0223 131.735C45.0229 131.742 45.0233 131.748 45.0234 131.754Z" fill="#E4E4E4"/>
<path fill-rule="evenodd" clip-rule="evenodd" d="M47.0962 130.979L44.2906 128.735C47.0873 125.137 50.3368 121.249 54.0392 117.07C57.7416 112.891 61.5316 108.946 65.4093 105.237L74.2617 108.864C69.7071 113.699 65.1833 117.935 60.6903 121.571C56.1973 125.207 51.6659 128.343 47.0962 130.979Z" fill="#DB2721"/>
<path fill-rule="evenodd" clip-rule="evenodd" d="M72.6237 111.384C68.9872 115.877 64.7717 122.117 64.7227 122.404C64.69 122.595 66.5692 126.826 70.3603 135.098L69.074 135.717C63.3007 126.938 60.5135 122.091 60.7123 121.177C61.0106 119.806 64.962 110.826 68.0126 106.03L72.6237 111.384Z" fill="#B28B67"/>
<path fill-rule="evenodd" clip-rule="evenodd" d="M69.8606 133.136L67.5651 134.067C61.8436 128.002 59.0247 123.738 59.1084 121.274C59.192 118.811 62.5548 113.396 69.1966 105.03L75.2181 112.518C69.5011 119.023 66.5588 122.457 66.3913 122.82C66.2238 123.183 67.3802 126.622 69.8606 133.136Z" fill="#FF4133"/>
<path fill-rule="evenodd" clip-rule="evenodd" d="M70.2772 133.463C70.7314 133.551 71.0503 133.653 71.2339 133.767C71.4535 133.904 71.7527 134.14 72.1318 134.477C71.9851 134.738 70.6673 137.08 68.1782 141.502C67.4856 141.318 67.2265 141.014 67.4008 140.591C67.5751 140.169 67.7165 139.816 67.825 139.532L68.2411 135.369C68.2485 135.295 68.3126 135.243 68.3843 135.253C68.3853 135.253 68.3863 135.253 68.3873 135.254L69.0138 135.355C69.3847 135.095 69.6343 134.85 69.7624 134.623C69.8684 134.434 69.9399 134.126 69.9767 133.697C69.9894 133.549 70.1161 133.443 70.2596 133.46C70.2655 133.461 70.2714 133.462 70.2772 133.463Z" fill="#E4E4E4"/>
<path fill-rule="evenodd" clip-rule="evenodd" d="M58.5631 102.712L52.7853 101.752C51.6094 101.067 50.5342 100.595 49.5595 100.337C49.2875 100.322 48.8595 100.411 49.5256 100.977C50.1916 101.544 50.8694 102.169 50.7667 102.458C50.6639 102.748 50.0607 102.622 49.9799 103.07C49.926 103.368 50.8996 103.444 52.9007 103.297L57.6393 105.315L58.5631 102.712Z" fill="#997659"/>
<path fill-rule="evenodd" clip-rule="evenodd" d="M67.5634 94.0794L65.0882 94.1756C64.7169 99.8074 61.5385 103.278 54.0313 101.852L53.3499 109.099C60.3577 110.223 66.3481 107.552 67.2727 99.8727C67.5121 97.8848 67.6797 95.8136 67.5634 94.0794Z" fill="#AFB9C5"/>
<path fill-rule="evenodd" clip-rule="evenodd" d="M77.0184 104.361C79.7558 111.955 81.276 116.049 81.5789 116.641C81.801 117.075 83.3771 118.415 84.465 119.186C84.9017 119.495 84.7393 119.874 84.5821 119.971C83.3038 120.768 82.4071 119.77 81.2552 119.203C79.9933 118.583 80.1585 120.255 79.1587 119.781C79.4356 119.095 80.095 117.821 79.7307 116.966C79.5688 116.586 77.6123 112.364 73.8613 104.299L77.0184 104.361Z" fill="#B28B67"/>
<path fill-rule="evenodd" clip-rule="evenodd" d="M74.1133 110.012L62.7359 109.7C63.5915 104.892 65.4713 100.751 65.205 94.1716L68.9206 93.3961C71.7897 97.7173 73.2967 102.982 74.1133 110.012Z" fill="#C5CFD6"/>
<path fill-rule="evenodd" clip-rule="evenodd" d="M74.1782 109.928L70.8837 109.842C71.5423 106.667 71.3232 101.463 70.2265 94.2297C72.7589 98.4999 73.4383 102.965 74.1782 109.928Z" fill="black" fill-opacity="0.1"/>
<path fill-rule="evenodd" clip-rule="evenodd" d="M69.3153 93.3802C75.0301 98.6233 78.9301 105.921 81.0152 115.273L73.4673 115.068C72.9495 107.227 71.6415 100.282 68.3938 94.2026L69.0708 93.3736L69.3153 93.3802Z" fill="#C5CFD6"/>
</svg>
