<svg width="136" height="280" viewBox="0 0 136 280" fill="none" xmlns="http://www.w3.org/2000/svg">
<path opacity="0.87" d="M43.4724 183.766H59.9125C65.7236 183.766 70.5048 182.773 74.2562 180.787C78.0812 178.727 80.9132 175.932 82.7521 172.401C84.6646 168.797 85.6209 164.641 85.6209 159.933C85.6209 155.299 84.7749 151.29 83.0831 147.907C81.3913 144.449 78.8168 141.801 75.3596 139.962C71.976 138.05 67.6361 137.094 62.3399 137.094C58.0736 137.094 54.1383 137.94 50.534 139.631C47.0032 141.323 44.1712 143.751 42.0381 146.914C39.9785 150.003 38.9487 153.718 38.9487 158.058H9.70958C9.70958 149.378 11.9899 141.765 16.5504 135.218C21.1845 128.598 27.4369 123.412 35.3076 119.661C43.1782 115.909 51.9683 114.033 61.6779 114.033C72.2702 114.033 81.5384 115.799 89.4826 119.33C97.5004 122.787 103.716 127.899 108.129 134.666C112.616 141.434 114.86 149.819 114.86 159.823C114.86 164.604 113.72 169.385 111.44 174.167C109.233 178.874 105.959 183.141 101.62 186.966C97.3533 190.717 92.0939 193.77 85.8415 196.124C79.6627 198.404 72.5644 199.544 64.5467 199.544H43.4724V183.766ZM43.4724 206.275V190.717H64.5467C73.5942 190.717 81.4281 191.784 88.0483 193.917C94.742 195.976 100.259 198.919 104.599 202.744C108.939 206.495 112.138 210.872 114.198 215.874C116.331 220.876 117.398 226.245 117.398 231.983C117.398 239.486 116 246.179 113.205 252.064C110.41 257.875 106.474 262.803 101.399 266.849C96.397 270.895 90.5124 273.984 83.7451 276.117C76.9779 278.177 69.6589 279.207 61.7882 279.207C54.9474 279.207 48.2905 278.287 41.8174 276.448C35.4179 274.536 29.6436 271.704 24.4946 267.952C19.3456 264.127 15.2632 259.346 12.2473 253.609C9.23146 247.798 7.72353 241.067 7.72353 233.417H36.9626C36.9626 237.831 38.0292 241.766 40.1624 245.223C42.3691 248.68 45.3849 251.402 49.2099 253.388C53.1085 255.301 57.4851 256.257 62.3399 256.257C67.7096 256.257 72.307 255.301 76.1319 253.388C80.0305 251.402 83.0096 248.607 85.0692 245.003C87.1288 241.325 88.1586 236.948 88.1586 231.873C88.1586 225.841 87.0184 220.949 84.7382 217.198C82.4579 213.446 79.1846 210.688 74.9182 208.923C70.7255 207.157 65.7236 206.275 59.9125 206.275H43.4724Z" fill="#080680"/>
<path fill-rule="evenodd" clip-rule="evenodd" d="M59.9993 167.972L59.3727 160.831L58.3438 160.639L56.6039 167.337L59.9993 167.972Z" fill="#B28B67"/>
<path fill-rule="evenodd" clip-rule="evenodd" d="M55.3055 163.631C56.3389 164.115 60.678 162.709 60.8279 159.521C60.9778 156.333 56.6566 156.23 55.6481 157.664C54.6396 159.098 54.2721 163.147 55.3055 163.631Z" fill="#B28B67"/>
<path fill-rule="evenodd" clip-rule="evenodd" d="M59.6706 162.985C60.3298 161.091 61.7124 159.975 61.6272 159.057C61.5704 158.445 61.2798 158.017 60.7554 157.772C60.6106 156.553 59.7657 155.888 58.2207 155.776C55.9032 155.608 54.3938 156.326 54.7474 158.593C55.3016 158.697 55.9945 158.616 56.8787 159.143C57.1592 159.311 57.3289 159.698 57.3876 160.306L57.8057 160.384C58.2917 159.767 58.7212 159.587 59.0943 159.845C59.4675 160.103 59.5055 160.566 59.2083 161.235L59.2259 162.901L59.6706 162.985Z" fill="#101030"/>
<path fill-rule="evenodd" clip-rule="evenodd" d="M63.5225 178.818L47.6483 191.77L35.1897 203.116L33.5671 202.449L56.9407 176.113L63.5225 178.818Z" fill="#997659"/>
<path fill-rule="evenodd" clip-rule="evenodd" d="M36.0237 202.486C36.0365 202.98 36.0069 203.332 35.9349 203.543C35.8487 203.795 35.6817 204.146 35.4337 204.596C35.146 204.478 32.5599 203.416 27.6756 201.411C27.7055 200.651 27.9468 200.333 28.3996 200.457C28.8525 200.581 29.23 200.681 29.5321 200.755L33.7082 200.601C33.7824 200.598 33.8473 200.659 33.8533 200.736C33.8534 200.737 33.8535 200.739 33.8535 200.74L33.8907 201.418C34.2276 201.774 34.5218 202.003 34.7732 202.106C34.9813 202.192 35.2998 202.223 35.7289 202.201C35.877 202.193 36.0085 202.313 36.0226 202.467C36.0232 202.474 36.0235 202.48 36.0237 202.486Z" fill="#E4E4E4"/>
<path fill-rule="evenodd" clip-rule="evenodd" d="M38.0974 201.702L35.2904 199.449C38.0864 195.84 41.3353 191.939 45.0371 187.746C48.7389 183.553 52.5285 179.597 56.4057 175.876L65.2617 179.518C60.7077 184.369 56.1843 188.618 51.6915 192.265C47.1987 195.912 42.6674 199.058 38.0974 201.702Z" fill="#DB2721"/>
<path fill-rule="evenodd" clip-rule="evenodd" d="M63.6199 182.043C59.9853 186.551 55.7724 192.812 55.7235 193.099C55.6909 193.291 57.5715 197.538 61.3653 205.841L60.0793 206.462C54.3033 197.65 51.5145 192.785 51.713 191.867C52.0107 190.491 55.9585 181.48 59.0072 176.668L63.6199 182.043Z" fill="#B28B67"/>
<path fill-rule="evenodd" clip-rule="evenodd" d="M60.8653 203.873L58.5703 204.807C52.847 198.717 50.0267 194.436 50.1095 191.964C50.1922 189.491 53.5528 184.058 60.1911 175.664L66.215 183.182C60.5007 189.708 57.5599 193.154 57.3925 193.518C57.2251 193.882 58.3827 197.334 60.8653 203.873Z" fill="#FF4133"/>
<path fill-rule="evenodd" clip-rule="evenodd" d="M61.2752 204.2C61.7296 204.289 62.0486 204.391 62.2323 204.506C62.452 204.643 62.7514 204.881 63.1307 205.219C62.9841 205.481 61.6668 207.83 59.1786 212.269C58.4858 212.083 58.2264 211.778 58.4006 211.354C58.5749 210.93 58.7162 210.575 58.8246 210.291L59.2392 206.113C59.2466 206.038 59.3107 205.986 59.3824 205.996C59.3834 205.996 59.3844 205.997 59.3855 205.997L60.0121 206.099C60.3831 205.838 60.6326 205.593 60.7607 205.364C60.8667 205.175 60.938 204.865 60.9747 204.435C60.9873 204.286 61.114 204.18 61.2576 204.198C61.2635 204.198 61.2694 204.199 61.2752 204.2Z" fill="#E4E4E4"/>
<path fill-rule="evenodd" clip-rule="evenodd" d="M49.5624 173.34L43.7854 172.375C42.6096 171.687 41.5343 171.214 40.5598 170.955C40.2878 170.939 39.8599 171.028 40.5261 171.596C41.1922 172.165 41.8701 172.792 41.7675 173.082C41.6648 173.373 41.0618 173.246 40.9811 173.695C40.9273 173.995 41.9008 174.071 43.9014 173.924L48.6398 175.95L49.5624 173.34Z" fill="#997659"/>
<path fill-rule="evenodd" clip-rule="evenodd" d="M58.5585 164.674L56.0841 164.769C55.7151 170.424 52.539 173.907 45.0334 172.472L44.355 179.747C51.3612 180.878 57.3488 178.199 58.2702 170.49C58.5087 168.494 58.6755 166.415 58.5585 164.674Z" fill="#AFB9C5"/>
<path fill-rule="evenodd" clip-rule="evenodd" d="M68.0146 174.994C70.7558 182.615 72.278 186.723 72.5812 187.317C72.8036 187.753 74.3806 189.098 75.4691 189.872C75.906 190.182 75.7437 190.562 75.5866 190.66C74.3082 191.459 73.4108 190.457 72.2584 189.888C70.9959 189.265 71.1618 190.943 70.1616 190.467C70.4382 189.778 71.0973 188.501 70.7326 187.643C70.5705 187.261 68.6119 183.024 64.8567 174.931L68.0146 174.994Z" fill="#B28B67"/>
<path fill-rule="evenodd" clip-rule="evenodd" d="M65.113 180.665L53.7416 180.347C54.5948 175.523 56.472 171.369 56.2033 164.767L59.9166 163.991C62.7859 168.327 64.2941 173.61 65.113 180.665Z" fill="#C5CFD6"/>
<path fill-rule="evenodd" clip-rule="evenodd" d="M65.1784 180.58L61.8889 180.492C62.5452 177.306 62.3245 172.084 61.2267 164.825C63.7568 169.111 64.4369 173.592 65.1784 180.58Z" fill="black" fill-opacity="0.1"/>
<path fill-rule="evenodd" clip-rule="evenodd" d="M60.3146 163.973C66.0276 169.236 69.9278 176.56 72.0151 185.945L64.4722 185.736C63.9517 177.868 62.642 170.899 59.3941 164.797L60.0703 163.966L60.3146 163.973Z" fill="#C5CFD6"/>
</svg>
