<svg width="125" height="300" viewBox="0 0 125 300" fill="none" xmlns="http://www.w3.org/2000/svg">
<path opacity="0.87" d="M123.135 218.412V241.361H7.39252L6.17882 223.708L74.2562 116.351H97.5372L72.3805 159.051L35.8593 218.412H123.135ZM104.047 116.351V277H74.8079V116.351H104.047Z" fill="#080680"/>
<path fill-rule="evenodd" clip-rule="evenodd" d="M83.9975 99.3652L83.3735 92.2496L82.3451 92.0583L80.6039 98.7339L83.9975 99.3652Z" fill="#B28B67"/>
<path fill-rule="evenodd" clip-rule="evenodd" d="M79.3057 95.0409C80.3387 95.523 84.677 94.1214 84.8278 90.9444C84.9786 87.7674 80.6587 87.6657 79.6501 89.095C78.6414 90.5243 78.2727 94.5588 79.3057 95.0409Z" fill="#B28B67"/>
<path fill-rule="evenodd" clip-rule="evenodd" d="M83.6689 94.3968C84.3286 92.509 85.7113 91.3962 85.6264 90.4815C85.5698 89.8718 85.2794 89.445 84.7553 89.2011C84.6109 87.9863 83.7665 87.3234 82.2219 87.2126C79.9049 87.0464 78.3957 87.7618 78.7484 90.0215C79.3025 90.1248 79.9952 90.0437 80.879 90.5691C81.1594 90.7357 81.3289 91.122 81.3874 91.7278L81.8054 91.8058C82.2914 91.1905 82.7209 91.0112 83.0939 91.2679C83.4668 91.5246 83.5047 91.9862 83.2074 92.6527L83.2243 94.3138L83.6689 94.3968Z" fill="#101030"/>
<path fill-rule="evenodd" clip-rule="evenodd" d="M87.5229 110.166L71.6486 123.078L59.1894 134.388L57.5676 133.724L80.9441 107.473L87.5229 110.166Z" fill="#997659"/>
<path fill-rule="evenodd" clip-rule="evenodd" d="M60.0234 133.754C60.0361 134.246 60.0064 134.598 59.9342 134.808C59.848 135.059 59.6808 135.409 59.4327 135.857C59.145 135.74 56.5593 134.682 51.6756 132.685C51.7057 131.927 51.9472 131.61 52.4 131.734C52.8528 131.858 53.2302 131.957 53.5324 132.031L57.7086 131.876C57.7827 131.873 57.8477 131.934 57.8536 132.011C57.8537 132.012 57.8538 132.013 57.8538 132.014L57.8907 132.69C58.2276 133.045 58.5217 133.273 58.773 133.376C58.9811 133.461 59.2996 133.493 59.7287 133.47C59.8768 133.462 60.0083 133.581 60.0223 133.735C60.0229 133.742 60.0233 133.748 60.0234 133.754Z" fill="#E4E4E4"/>
<path fill-rule="evenodd" clip-rule="evenodd" d="M62.0962 132.979L59.2906 130.735C62.0873 127.137 65.3368 123.249 69.0392 119.07C72.7416 114.891 76.5316 110.946 80.4093 107.237L89.2617 110.864C84.7071 115.699 80.1833 119.935 75.6903 123.571C71.1973 127.207 66.6659 130.343 62.0962 132.979Z" fill="#DB2721"/>
<path fill-rule="evenodd" clip-rule="evenodd" d="M87.6237 113.384C83.9872 117.877 79.7717 124.117 79.7227 124.404C79.69 124.595 81.5692 128.826 85.3603 137.098L84.074 137.717C78.3007 128.938 75.5135 124.091 75.7123 123.177C76.0106 121.806 79.962 112.826 83.0126 108.03L87.6237 113.384Z" fill="#B28B67"/>
<path fill-rule="evenodd" clip-rule="evenodd" d="M84.8606 135.136L82.5651 136.067C76.8436 130.002 74.0247 125.738 74.1084 123.274C74.192 120.811 77.5548 115.396 84.1966 107.03L90.2181 114.518C84.5011 121.023 81.5588 124.457 81.3913 124.82C81.2238 125.183 82.3802 128.622 84.8606 135.136Z" fill="#FF4133"/>
<path fill-rule="evenodd" clip-rule="evenodd" d="M85.2772 135.463C85.7314 135.551 86.0503 135.652 86.2339 135.767C86.4535 135.904 86.7527 136.14 87.1318 136.477C86.9851 136.738 85.6673 139.08 83.1782 143.502C82.4856 143.317 82.2265 143.014 82.4008 142.591C82.5751 142.169 82.7165 141.815 82.825 141.532L83.2411 137.369C83.2485 137.295 83.3126 137.243 83.3843 137.253C83.3853 137.253 83.3863 137.253 83.3873 137.254L84.0138 137.355C84.3847 137.095 84.6343 136.85 84.7624 136.623C84.8684 136.434 84.9399 136.126 84.9767 135.697C84.9894 135.549 85.1161 135.443 85.2596 135.46C85.2655 135.461 85.2714 135.462 85.2772 135.463Z" fill="#E4E4E4"/>
<path fill-rule="evenodd" clip-rule="evenodd" d="M73.5631 104.712L67.7853 103.752C66.6094 103.067 65.5342 102.595 64.5595 102.337C64.2875 102.322 63.8595 102.411 64.5256 102.977C65.1916 103.544 65.8694 104.168 65.7667 104.458C65.6639 104.748 65.0607 104.622 64.9799 105.07C64.926 105.368 65.8996 105.444 67.9007 105.297L72.6393 107.315L73.5631 104.712Z" fill="#997659"/>
<path fill-rule="evenodd" clip-rule="evenodd" d="M82.5634 96.0793L80.0882 96.1755C79.7169 101.807 76.5385 105.278 69.0313 103.852L68.3499 111.099C75.3577 112.223 81.3481 109.552 82.2727 101.873C82.5121 99.8848 82.6797 97.8136 82.5634 96.0793Z" fill="#AFB9C5"/>
<path fill-rule="evenodd" clip-rule="evenodd" d="M92.0184 106.361C94.7558 113.955 96.276 118.049 96.5789 118.641C96.801 119.075 98.3771 120.415 99.465 121.186C99.9017 121.495 99.7393 121.874 99.5821 121.971C98.3038 122.768 97.4071 121.77 96.2552 121.203C94.9933 120.583 95.1585 122.255 94.1587 121.781C94.4356 121.095 95.095 119.821 94.7307 118.966C94.5688 118.586 92.6123 114.364 88.8613 106.299L92.0184 106.361Z" fill="#B28B67"/>
<path fill-rule="evenodd" clip-rule="evenodd" d="M89.1133 112.012L77.7359 111.7C78.5915 106.892 80.4713 102.751 80.205 96.1716L83.9206 95.3961C86.7897 99.7173 88.2967 104.982 89.1133 112.012Z" fill="#C5CFD6"/>
<path fill-rule="evenodd" clip-rule="evenodd" d="M89.1782 111.928L85.8837 111.842C86.5423 108.667 86.3232 103.463 85.2265 96.2296C87.7589 100.5 88.4383 104.965 89.1782 111.928Z" fill="black" fill-opacity="0.1"/>
<path fill-rule="evenodd" clip-rule="evenodd" d="M84.3153 95.3802C90.0301 100.623 93.9301 107.921 96.0152 117.273L88.4673 117.068C87.9495 109.227 86.6415 102.282 83.3938 96.2026L84.0708 95.3735L84.3153 95.3802Z" fill="#C5CFD6"/>
</svg>
