<svg width="125" height="277" viewBox="0 0 125 277" fill="none" xmlns="http://www.w3.org/2000/svg">
<path opacity="0.87" d="M123.135 218.412V241.361H7.39252L6.17882 223.708L74.2562 116.351H97.5372L72.3805 159.051L35.8593 218.412H123.135ZM104.047 116.351V277H74.8079V116.351H104.047Z" fill="#080680"/>
<path fill-rule="evenodd" clip-rule="evenodd" d="M83.9596 103.747L83.3894 97.1672L82.3725 96.9958L80.6039 103.182L83.9596 103.747Z" fill="#B28B67"/>
<path fill-rule="evenodd" clip-rule="evenodd" d="M79.2987 99.7782C80.3221 100.219 84.643 98.8971 84.8142 95.9525C84.9854 93.0079 80.6929 92.9371 79.6809 94.2669C78.6688 95.5968 78.2754 99.3371 79.2987 99.7782Z" fill="#B28B67"/>
<path fill-rule="evenodd" clip-rule="evenodd" d="M83.632 99.1679C84.3022 97.4114 85.6858 96.3696 85.6082 95.5211C85.5564 94.9555 85.2708 94.5612 84.7512 94.3383C84.6167 93.2115 83.7816 92.6017 82.246 92.5087C79.9426 92.3693 78.4361 93.0431 78.7701 95.1383C79.3204 95.2307 80.0101 95.1509 80.8853 95.6329C81.163 95.7858 81.3287 96.1432 81.3824 96.7052L81.7976 96.7749C82.2856 96.2006 82.7142 96.0314 83.0833 96.2673C83.4523 96.5032 83.4865 96.9315 83.1858 97.552L83.1903 99.0938L83.632 99.1679Z" fill="#101030"/>
<path fill-rule="evenodd" clip-rule="evenodd" d="M87.5225 113.594L71.6447 125.651L59.1735 136.2L57.5671 135.598L81.0063 111.15L87.5225 113.594Z" fill="#997659"/>
<path fill-rule="evenodd" clip-rule="evenodd" d="M60.0178 135.48C60.0267 135.938 59.9944 136.265 59.9206 136.462C59.8325 136.696 59.6626 137.023 59.4111 137.442C59.1242 137.335 56.5456 136.367 51.6753 134.541C51.7112 133.835 51.9551 133.539 52.4071 133.651C52.8591 133.763 53.2359 133.852 53.5376 133.919L57.7163 133.747C57.7905 133.744 57.855 133.8 57.8604 133.872C57.8605 133.873 57.8605 133.874 57.8606 133.875L57.8924 134.504C58.2267 134.832 58.5191 135.042 58.7698 135.136C58.9773 135.214 59.2957 135.241 59.7251 135.218C59.8733 135.209 60.0039 135.319 60.0168 135.462C60.0173 135.468 60.0177 135.474 60.0178 135.48Z" fill="#E4E4E4"/>
<path fill-rule="evenodd" clip-rule="evenodd" d="M62.0688 134.894L59.2965 132.837C62.1065 129.488 65.3692 125.867 69.0846 121.973C72.8001 118.079 76.6008 114.402 80.4867 110.942L89.2617 114.234C84.6935 118.741 80.1607 122.693 75.6634 126.09C71.166 129.487 66.6345 132.422 62.0688 134.894Z" fill="#DB2721"/>
<path fill-rule="evenodd" clip-rule="evenodd" d="M87.7072 116.66C84.0289 120.836 79.7569 126.63 79.7055 126.895C79.6712 127.071 81.5193 130.966 85.2498 138.579L83.9566 139.16C78.2449 131.093 75.4923 126.637 75.6988 125.791C76.0085 124.522 80.0381 116.199 83.1319 111.748L87.7072 116.66Z" fill="#B28B67"/>
<path fill-rule="evenodd" clip-rule="evenodd" d="M84.7563 136.761L82.4502 137.637C76.7694 132.08 73.9808 128.164 74.0843 125.89C74.1879 123.616 77.5988 118.594 84.317 110.824L90.2869 117.692C84.5097 123.737 81.5357 126.928 81.365 127.265C81.1944 127.601 82.3248 130.767 84.7563 136.761Z" fill="#FF4133"/>
<path fill-rule="evenodd" clip-rule="evenodd" d="M85.2974 137.072C85.7477 137.15 86.0635 137.241 86.2449 137.345C86.4618 137.47 86.757 137.686 87.1307 137.994C86.9829 138.235 85.6552 140.404 83.1475 144.5C82.4613 144.335 82.2064 144.057 82.383 143.666C82.5595 143.275 82.7028 142.948 82.8129 142.686L83.26 138.845C83.2679 138.776 83.332 138.728 83.4031 138.737C83.4041 138.737 83.4051 138.737 83.4061 138.737L84.0274 138.826C84.3979 138.583 84.6476 138.356 84.7767 138.145C84.8835 137.971 84.957 137.686 84.997 137.29C85.0109 137.153 85.1375 137.055 85.2799 137.07C85.2857 137.071 85.2916 137.071 85.2974 137.072Z" fill="#E4E4E4"/>
<path fill-rule="evenodd" clip-rule="evenodd" d="M73.5849 108.646L67.7893 107.791C66.614 107.157 65.5379 106.723 64.561 106.488C64.288 106.476 63.8573 106.563 64.5215 107.089C65.1857 107.615 65.8613 108.196 65.7555 108.469C65.6498 108.741 65.0451 108.628 64.96 109.049C64.9033 109.329 65.8807 109.393 67.892 109.239L72.6347 111.095L73.5849 108.646Z" fill="#997659"/>
<path fill-rule="evenodd" clip-rule="evenodd" d="M82.6748 100.713L80.1827 100.82C79.7609 105.984 76.5322 109.189 68.9884 107.939L68.2408 114.585C75.2844 115.561 81.3366 113.068 82.3328 106.024C82.5906 104.2 82.7771 102.301 82.6748 100.713Z" fill="#AFB9C5"/>
<path fill-rule="evenodd" clip-rule="evenodd" d="M92.0989 110.187C94.7556 117.213 96.232 121 96.528 121.547C96.7451 121.948 98.3002 123.18 99.375 123.886C99.8064 124.17 99.6418 124.522 99.4847 124.614C98.2075 125.363 97.3247 124.444 96.1847 123.927C94.9357 123.361 95.0858 124.912 94.0961 124.48C94.3771 123.841 95.0432 122.654 94.6883 121.863C94.5306 121.511 92.6217 117.608 88.9617 110.154L92.0989 110.187Z" fill="#B28B67"/>
<path fill-rule="evenodd" clip-rule="evenodd" d="M89.113 115.425L77.602 115.223C78.5091 110.75 80.447 106.889 80.234 100.779L84.0008 100.03C86.8672 104.022 88.347 108.901 89.113 115.425Z" fill="#C5CFD6"/>
<path fill-rule="evenodd" clip-rule="evenodd" d="M89.1782 115.347L85.7696 115.292C86.4789 112.35 86.2979 107.536 85.2265 100.852C87.8097 104.784 88.4736 108.91 89.1782 115.347Z" fill="black" fill-opacity="0.1"/>
<path fill-rule="evenodd" clip-rule="evenodd" d="M84.3292 100.06C90.0841 104.881 93.9794 111.621 96.015 120.282L88.3563 120.15C87.8984 112.879 86.6307 106.446 83.3869 100.831L84.0811 100.056L84.3292 100.06Z" fill="#C5CFD6"/>
</svg>
