<svg width="141" height="280" viewBox="0 0 141 280" fill="none" xmlns="http://www.w3.org/2000/svg">
<path opacity="0.87" d="M40.4934 203.075L17.2124 197.448L26.1497 116.351H114.529V140.514H50.3133L46.1205 178.028C48.4008 176.631 51.7109 175.233 56.0508 173.836C60.4642 172.365 65.4293 171.629 70.9461 171.629C78.5961 171.629 85.437 172.879 91.4687 175.38C97.5004 177.808 102.613 181.339 106.805 185.973C111.072 190.607 114.271 196.271 116.405 202.964C118.611 209.585 119.715 217.087 119.715 225.473C119.715 232.829 118.611 239.743 116.405 246.216C114.271 252.616 110.998 258.316 106.585 263.318C102.171 268.247 96.6177 272.145 89.924 275.014C83.2302 277.809 75.3596 279.207 66.312 279.207C59.4712 279.207 52.8878 278.214 46.5619 276.228C40.3095 274.168 34.6823 271.189 29.6804 267.29C24.6785 263.318 20.6696 258.464 17.6538 252.726C14.7115 246.989 13.0932 240.405 12.799 232.976H41.5967C42.1116 237.904 43.4357 242.097 45.5688 245.554C47.702 249.011 50.4972 251.659 53.9544 253.498C57.4851 255.337 61.5676 256.257 66.2017 256.257C70.3945 256.257 73.9988 255.484 77.0146 253.94C80.104 252.321 82.6418 250.078 84.6278 247.209C86.6139 244.34 88.085 240.957 89.0413 237.058C89.9975 233.16 90.4756 228.893 90.4756 224.259C90.4756 219.772 89.924 215.69 88.8206 212.012C87.7172 208.261 86.0254 205.024 83.7451 202.302C81.4649 199.581 78.5961 197.484 75.1389 196.013C71.7553 194.542 67.7832 193.807 63.2226 193.807C57.1173 193.807 52.4097 194.726 49.0996 196.565C45.8631 198.404 42.9943 200.574 40.4934 203.075Z" fill="#080680"/>
<path fill-rule="evenodd" clip-rule="evenodd" d="M72.981 156.058L72.3811 149.185L71.3579 149.002L69.6044 155.457L72.981 156.058Z" fill="#B28B67"/>
<path fill-rule="evenodd" clip-rule="evenodd" d="M68.3033 151.895C69.332 152.358 73.6625 150.992 73.8224 147.92C73.9823 144.848 69.6747 144.76 68.6646 146.145C67.6544 147.529 67.2746 151.431 68.3033 151.895Z" fill="#B28B67"/>
<path fill-rule="evenodd" clip-rule="evenodd" d="M72.6527 151.266C73.317 149.437 74.7001 148.356 74.6185 147.471C74.564 146.882 74.2758 146.469 73.7537 146.235C73.6137 145.06 72.7734 144.421 71.2329 144.318C68.922 144.164 67.4139 144.861 67.7583 147.046C68.3107 147.145 69.0021 147.064 69.882 147.57C70.1612 147.731 70.329 148.104 70.3854 148.69L70.8021 148.764C71.2891 148.167 71.7181 147.993 72.0894 148.24C72.4606 148.487 72.4968 148.934 72.198 149.579L72.2094 151.187L72.6527 151.266Z" fill="#101030"/>
<path fill-rule="evenodd" clip-rule="evenodd" d="M76.5229 166.428L60.6471 178.955L48.1826 189.923L46.5676 189.287L69.9719 163.847L76.5229 166.428Z" fill="#997659"/>
<path fill-rule="evenodd" clip-rule="evenodd" d="M49.0209 189.248C49.0319 189.725 49.001 190.066 48.9282 190.27C48.8411 190.513 48.6727 190.853 48.4231 191.288C48.1357 191.175 45.5532 190.158 40.6754 188.238C40.7081 187.504 40.9506 187.196 41.4031 187.315C41.8555 187.433 42.2327 187.528 42.5347 187.599L46.712 187.436C46.7862 187.433 46.8509 187.491 46.8566 187.566C46.8567 187.567 46.8568 187.568 46.8568 187.569L46.8915 188.224C47.2272 188.566 47.5205 188.787 47.7716 188.886C47.9794 188.968 48.2979 188.997 48.7271 188.974C48.8752 188.966 49.0063 189.081 49.0199 189.23C49.0204 189.236 49.0208 189.242 49.0209 189.248Z" fill="#E4E4E4"/>
<path fill-rule="evenodd" clip-rule="evenodd" d="M51.0845 188.56L48.2937 186.4C51.0963 182.915 54.3517 179.147 58.0599 175.096C61.7681 171.045 65.5628 167.221 69.4442 163.624L78.2622 167.099C73.7016 171.787 69.1738 175.895 64.6788 179.423C60.1839 182.952 55.6525 185.997 51.0845 188.56Z" fill="#DB2721"/>
<path fill-rule="evenodd" clip-rule="evenodd" d="M76.6611 169.578C73.0061 173.928 68.7657 179.967 68.7156 180.244C68.6822 180.428 70.5476 184.508 74.3119 192.482L73.0225 193.084C67.2765 184.627 64.5046 179.956 64.7068 179.073C65.0101 177.748 68.9961 169.064 72.0658 164.424L76.6611 169.578Z" fill="#B28B67"/>
<path fill-rule="evenodd" clip-rule="evenodd" d="M73.8145 190.585L71.5143 191.491C65.8108 185.656 63.0052 181.549 63.0977 179.171C63.1902 176.793 66.5743 171.555 73.2499 163.458L79.2486 170.666C73.5049 176.963 70.5486 180.288 70.3797 180.639C70.2108 180.99 71.3557 184.305 73.8145 190.585Z" fill="#FF4133"/>
<path fill-rule="evenodd" clip-rule="evenodd" d="M74.2861 190.905C74.7386 190.988 75.0561 191.085 75.2388 191.195C75.4571 191.326 75.7546 191.553 76.1312 191.877C75.9841 192.129 74.6619 194.393 72.1646 198.668C71.4748 198.492 71.2176 198.2 71.3929 197.792C71.5682 197.384 71.7105 197.042 71.8197 196.768L72.2495 192.751C72.2571 192.679 72.3212 192.629 72.3926 192.638C72.3936 192.639 72.3947 192.639 72.3957 192.639L73.0198 192.735C73.3905 192.482 73.6402 192.246 73.7687 192.026C73.8751 191.843 73.9474 191.545 73.9857 191.131C73.9989 190.988 74.1255 190.886 74.2686 190.902C74.2744 190.903 74.2803 190.904 74.2861 190.905Z" fill="#E4E4E4"/>
<path fill-rule="evenodd" clip-rule="evenodd" d="M62.5733 161.203L56.7877 160.29C55.6121 159.628 54.5364 159.174 53.5608 158.926C53.2883 158.912 52.8591 159 53.5244 159.548C54.1896 160.097 54.8664 160.702 54.7624 160.984C54.6583 161.266 54.0544 161.146 53.9717 161.581C53.9166 161.872 54.8918 161.942 56.8975 161.792L61.6379 163.737L62.5733 161.203Z" fill="#997659"/>
<path fill-rule="evenodd" clip-rule="evenodd" d="M71.6135 152.886L69.1309 152.987C68.7374 158.408 65.5368 161.759 58.0134 160.413L57.3029 167.387C64.3265 168.444 70.3441 165.853 71.3002 158.461C71.5477 156.548 71.7236 154.554 71.6135 152.886Z" fill="#AFB9C5"/>
<path fill-rule="evenodd" clip-rule="evenodd" d="M81.0548 162.803C83.7564 170.141 85.2572 174.096 85.557 174.668C85.7769 175.087 87.3437 176.379 88.4257 177.12C88.8601 177.418 88.6967 177.785 88.5396 177.88C87.2618 178.655 86.3712 177.692 85.2246 177.148C83.9684 176.553 84.1269 178.17 83.1316 177.715C83.4103 177.05 84.0727 175.815 83.7126 174.989C83.5525 174.622 81.6172 170.544 77.9066 162.755L81.0548 162.803Z" fill="#B28B67"/>
<path fill-rule="evenodd" clip-rule="evenodd" d="M78.1137 168.268L66.6777 168.006C67.5558 163.349 69.4612 159.334 69.2183 152.967L72.9563 152.203C75.8243 156.375 77.3193 161.466 78.1137 168.268Z" fill="#C5CFD6"/>
<path fill-rule="evenodd" clip-rule="evenodd" d="M78.1788 168.187L74.8349 168.115C75.5155 165.045 75.3129 160.017 74.2271 153.031C76.7815 157.149 77.4542 161.461 78.1788 168.187Z" fill="black" fill-opacity="0.1"/>
<path fill-rule="evenodd" clip-rule="evenodd" d="M73.3218 152.208C79.0542 157.26 82.9521 164.306 85.0155 173.347L77.419 173.175C76.9275 165.591 75.6372 158.877 72.3912 153.007L73.0757 152.202L73.3218 152.208Z" fill="#C5CFD6"/>
</svg>
