<svg width="141" height="289" viewBox="0 0 141 289" fill="none" xmlns="http://www.w3.org/2000/svg">
<path opacity="0.87" d="M40.4934 203.075L17.2124 197.448L26.1497 116.351H114.529V140.514H50.3133L46.1205 178.028C48.4008 176.631 51.7109 175.233 56.0508 173.836C60.4642 172.365 65.4293 171.629 70.9461 171.629C78.5961 171.629 85.437 172.879 91.4687 175.38C97.5004 177.808 102.613 181.339 106.805 185.973C111.072 190.607 114.271 196.271 116.405 202.964C118.611 209.585 119.715 217.087 119.715 225.473C119.715 232.829 118.611 239.743 116.405 246.216C114.271 252.616 110.998 258.316 106.585 263.318C102.171 268.247 96.6177 272.145 89.924 275.014C83.2302 277.809 75.3596 279.207 66.312 279.207C59.4712 279.207 52.8878 278.214 46.5619 276.228C40.3095 274.168 34.6823 271.189 29.6804 267.29C24.6785 263.318 20.6696 258.464 17.6538 252.726C14.7115 246.989 13.0932 240.405 12.799 232.976H41.5967C42.1116 237.904 43.4357 242.097 45.5688 245.554C47.702 249.011 50.4972 251.659 53.9544 253.498C57.4851 255.337 61.5676 256.257 66.2017 256.257C70.3945 256.257 73.9988 255.484 77.0146 253.94C80.104 252.321 82.6418 250.078 84.6278 247.209C86.6139 244.34 88.085 240.957 89.0413 237.058C89.9975 233.16 90.4756 228.893 90.4756 224.259C90.4756 219.772 89.924 215.69 88.8206 212.012C87.7172 208.261 86.0254 205.024 83.7451 202.302C81.4649 199.581 78.5961 197.484 75.1389 196.013C71.7553 194.542 67.7832 193.807 63.2226 193.807C57.1173 193.807 52.4097 194.726 49.0996 196.565C45.8631 198.404 42.9943 200.574 40.4934 203.075Z" fill="#080680"/>
<path fill-rule="evenodd" clip-rule="evenodd" d="M72.9975 153.365L72.3735 146.25L71.3451 146.058L69.6039 152.734L72.9975 153.365Z" fill="#B28B67"/>
<path fill-rule="evenodd" clip-rule="evenodd" d="M68.3057 149.041C69.3387 149.523 73.677 148.121 73.8278 144.944C73.9786 141.767 69.6587 141.666 68.6501 143.095C67.6414 144.524 67.2727 148.559 68.3057 149.041Z" fill="#B28B67"/>
<path fill-rule="evenodd" clip-rule="evenodd" d="M72.6689 148.397C73.3286 146.509 74.7113 145.396 74.6264 144.482C74.5698 143.872 74.2794 143.445 73.7553 143.201C73.6109 141.986 72.7665 141.323 71.2219 141.213C68.9049 141.046 67.3957 141.762 67.7484 144.021C68.3025 144.125 68.9952 144.044 69.879 144.569C70.1594 144.736 70.3289 145.122 70.3874 145.728L70.8054 145.806C71.2914 145.19 71.7209 145.011 72.0939 145.268C72.4668 145.525 72.5047 145.986 72.2074 146.653L72.2243 148.314L72.6689 148.397Z" fill="#101030"/>
<path fill-rule="evenodd" clip-rule="evenodd" d="M76.5229 164.166L60.6486 177.078L48.1894 188.388L46.5676 187.724L69.9441 161.473L76.5229 164.166Z" fill="#997659"/>
<path fill-rule="evenodd" clip-rule="evenodd" d="M49.0234 187.754C49.0361 188.246 49.0064 188.598 48.9342 188.808C48.848 189.059 48.6808 189.409 48.4327 189.857C48.145 189.74 45.5593 188.682 40.6756 186.685C40.7057 185.927 40.9472 185.61 41.4 185.734C41.8528 185.858 42.2302 185.957 42.5324 186.031L46.7086 185.876C46.7827 185.873 46.8477 185.934 46.8536 186.011C46.8537 186.012 46.8538 186.013 46.8538 186.014L46.8907 186.69C47.2276 187.045 47.5217 187.273 47.773 187.376C47.9811 187.461 48.2996 187.493 48.7287 187.47C48.8768 187.462 49.0083 187.581 49.0223 187.735C49.0229 187.742 49.0233 187.748 49.0234 187.754Z" fill="#E4E4E4"/>
<path fill-rule="evenodd" clip-rule="evenodd" d="M51.0962 186.979L48.2906 184.735C51.0873 181.137 54.3368 177.249 58.0392 173.07C61.7416 168.891 65.5316 164.946 69.4093 161.237L78.2617 164.864C73.7071 169.699 69.1833 173.935 64.6903 177.571C60.1973 181.207 55.6659 184.343 51.0962 186.979Z" fill="#DB2721"/>
<path fill-rule="evenodd" clip-rule="evenodd" d="M76.6237 167.384C72.9872 171.877 68.7717 178.117 68.7227 178.404C68.69 178.595 70.5692 182.826 74.3603 191.098L73.074 191.717C67.3007 182.938 64.5135 178.091 64.7123 177.177C65.0106 175.806 68.962 166.826 72.0126 162.03L76.6237 167.384Z" fill="#B28B67"/>
<path fill-rule="evenodd" clip-rule="evenodd" d="M73.8606 189.136L71.5651 190.067C65.8436 184.002 63.0247 179.738 63.1084 177.274C63.192 174.811 66.5548 169.396 73.1966 161.03L79.2181 168.518C73.5011 175.023 70.5588 178.457 70.3913 178.82C70.2238 179.183 71.3802 182.622 73.8606 189.136Z" fill="#FF4133"/>
<path fill-rule="evenodd" clip-rule="evenodd" d="M74.2772 189.463C74.7314 189.551 75.0503 189.652 75.2339 189.767C75.4535 189.904 75.7527 190.14 76.1318 190.477C75.9851 190.738 74.6673 193.08 72.1782 197.502C71.4856 197.317 71.2265 197.014 71.4008 196.591C71.5751 196.169 71.7165 195.815 71.825 195.532L72.2411 191.369C72.2485 191.295 72.3126 191.243 72.3843 191.253C72.3853 191.253 72.3863 191.253 72.3873 191.254L73.0138 191.355C73.3847 191.095 73.6343 190.85 73.7624 190.623C73.8684 190.434 73.9399 190.126 73.9767 189.697C73.9894 189.549 74.1161 189.443 74.2596 189.46C74.2655 189.461 74.2714 189.462 74.2772 189.463Z" fill="#E4E4E4"/>
<path fill-rule="evenodd" clip-rule="evenodd" d="M62.5631 158.712L56.7853 157.752C55.6094 157.067 54.5342 156.595 53.5595 156.337C53.2875 156.322 52.8595 156.411 53.5256 156.977C54.1916 157.543 54.8694 158.168 54.7667 158.458C54.6639 158.748 54.0607 158.622 53.9799 159.07C53.926 159.368 54.8996 159.444 56.9007 159.297L61.6393 161.315L62.5631 158.712Z" fill="#997659"/>
<path fill-rule="evenodd" clip-rule="evenodd" d="M71.5634 150.079L69.0882 150.176C68.7169 155.807 65.5385 159.278 58.0313 157.852L57.3499 165.099C64.3577 166.223 70.3481 163.552 71.2727 155.873C71.5121 153.885 71.6797 151.814 71.5634 150.079Z" fill="#AFB9C5"/>
<path fill-rule="evenodd" clip-rule="evenodd" d="M81.0184 160.361C83.7558 167.955 85.276 172.049 85.5789 172.641C85.801 173.075 87.3771 174.415 88.465 175.186C88.9017 175.495 88.7393 175.874 88.5821 175.971C87.3038 176.768 86.4071 175.77 85.2552 175.203C83.9933 174.583 84.1585 176.255 83.1587 175.781C83.4356 175.095 84.095 173.821 83.7307 172.966C83.5688 172.586 81.6123 168.364 77.8613 160.299L81.0184 160.361Z" fill="#B28B67"/>
<path fill-rule="evenodd" clip-rule="evenodd" d="M78.1133 166.012L66.7359 165.7C67.5915 160.892 69.4713 156.751 69.205 150.172L72.9206 149.396C75.7897 153.717 77.2967 158.982 78.1133 166.012Z" fill="#C5CFD6"/>
<path fill-rule="evenodd" clip-rule="evenodd" d="M78.1782 165.928L74.8837 165.842C75.5423 162.667 75.3232 157.463 74.2265 150.23C76.7589 154.5 77.4383 158.965 78.1782 165.928Z" fill="black" fill-opacity="0.1"/>
<path fill-rule="evenodd" clip-rule="evenodd" d="M73.3153 149.38C79.0301 154.623 82.9301 161.921 85.0152 171.273L77.4673 171.068C76.9495 163.227 75.6415 156.282 72.3938 150.203L73.0708 149.374L73.3153 149.38Z" fill="#C5CFD6"/>
</svg>
