<svg width="126" height="285" viewBox="0 0 126 285" fill="none" xmlns="http://www.w3.org/2000/svg">
<path opacity="0.87" d="M92.6824 115.027H96.6545V138.528H94.7788C85.8783 138.528 78.0444 139.889 71.2772 142.611C64.5834 145.332 58.9931 149.157 54.5061 154.086C50.0926 158.94 46.7458 164.715 44.4655 171.408C42.1852 178.028 41.045 185.274 41.045 193.145V219.184C41.045 225.289 41.6703 230.659 42.9208 235.293C44.2448 239.853 46.047 243.715 48.3272 246.878C50.6811 249.968 53.4027 252.285 56.4921 253.829C59.6551 255.374 63.1123 256.146 66.8637 256.146C70.6151 256.146 73.9988 255.374 77.0146 253.829C80.0305 252.285 82.605 250.115 84.7382 247.32C86.9449 244.451 88.5999 241.104 89.7033 237.279C90.8802 233.454 91.4687 229.261 91.4687 224.701C91.4687 220.214 90.917 216.058 89.8136 212.233C88.7103 208.408 87.092 205.061 84.9588 202.192C82.8257 199.25 80.1776 197.006 77.0146 195.462C73.9252 193.843 70.3945 193.034 66.4224 193.034C61.2733 193.034 56.676 194.248 52.6303 196.675C48.5847 199.029 45.3849 202.119 43.0311 205.944C40.6773 209.769 39.39 213.814 39.1693 218.08L29.3494 213.226C29.7172 206.973 31.0412 201.236 33.3215 196.013C35.6754 190.791 38.8015 186.23 42.7001 182.332C46.6722 178.433 51.3431 175.417 56.7128 173.284C62.156 171.151 68.1877 170.084 74.8079 170.084C82.4579 170.084 89.1516 171.555 94.8891 174.498C100.627 177.366 105.371 181.302 109.122 186.304C112.947 191.306 115.816 197.08 117.729 203.626C119.641 210.1 120.597 216.94 120.597 224.149C120.597 231.873 119.347 239.081 116.846 245.775C114.419 252.469 110.888 258.316 106.254 263.318C101.62 268.32 96.0292 272.219 89.4826 275.014C82.936 277.809 75.5803 279.207 67.4154 279.207C58.8092 279.207 51.0856 277.588 44.2448 274.352C37.4775 271.115 31.6665 266.628 26.8117 260.891C21.9569 255.153 18.2422 248.46 15.6677 240.81C13.0932 233.16 11.806 224.885 11.806 215.984V204.288C11.806 191.71 13.5346 180.015 16.9918 169.202C20.449 158.389 25.5612 148.937 32.3285 140.845C39.1693 132.68 47.6284 126.354 57.7058 121.867C67.7832 117.307 79.442 115.027 92.6824 115.027Z" fill="#080680"/>
<path fill-rule="evenodd" clip-rule="evenodd" d="M73.9975 159.365L73.3735 152.25L72.3451 152.058L70.6039 158.734L73.9975 159.365Z" fill="#B28B67"/>
<path fill-rule="evenodd" clip-rule="evenodd" d="M69.3057 155.041C70.3387 155.523 74.677 154.121 74.8278 150.944C74.9786 147.767 70.6587 147.666 69.6501 149.095C68.6414 150.524 68.2727 154.559 69.3057 155.041Z" fill="#B28B67"/>
<path fill-rule="evenodd" clip-rule="evenodd" d="M73.6689 154.397C74.3286 152.509 75.7113 151.396 75.6264 150.482C75.5698 149.872 75.2794 149.445 74.7553 149.201C74.6109 147.986 73.7665 147.323 72.2219 147.213C69.9049 147.046 68.3957 147.762 68.7484 150.021C69.3025 150.125 69.9952 150.044 70.879 150.569C71.1594 150.736 71.3289 151.122 71.3874 151.728L71.8054 151.806C72.2914 151.19 72.7209 151.011 73.0939 151.268C73.4668 151.525 73.5047 151.986 73.2074 152.653L73.2243 154.314L73.6689 154.397Z" fill="#101030"/>
<path fill-rule="evenodd" clip-rule="evenodd" d="M77.5229 170.166L61.6486 183.078L49.1894 194.388L47.5676 193.724L70.9441 167.473L77.5229 170.166Z" fill="#997659"/>
<path fill-rule="evenodd" clip-rule="evenodd" d="M50.0234 193.754C50.0361 194.246 50.0064 194.598 49.9342 194.808C49.848 195.059 49.6808 195.409 49.4327 195.857C49.145 195.74 46.5593 194.682 41.6756 192.685C41.7057 191.927 41.9472 191.61 42.4 191.734C42.8528 191.858 43.2302 191.957 43.5324 192.031L47.7086 191.876C47.7827 191.873 47.8477 191.934 47.8536 192.011C47.8537 192.012 47.8538 192.013 47.8538 192.014L47.8907 192.69C48.2276 193.045 48.5217 193.273 48.773 193.376C48.9811 193.461 49.2996 193.493 49.7287 193.47C49.8768 193.462 50.0083 193.581 50.0223 193.735C50.0229 193.742 50.0233 193.748 50.0234 193.754Z" fill="#E4E4E4"/>
<path fill-rule="evenodd" clip-rule="evenodd" d="M52.0962 192.979L49.2906 190.735C52.0873 187.137 55.3368 183.249 59.0392 179.07C62.7416 174.891 66.5316 170.946 70.4093 167.237L79.2617 170.864C74.7071 175.699 70.1833 179.935 65.6903 183.571C61.1973 187.207 56.6659 190.343 52.0962 192.979Z" fill="#DB2721"/>
<path fill-rule="evenodd" clip-rule="evenodd" d="M77.6237 173.384C73.9872 177.877 69.7717 184.117 69.7227 184.404C69.69 184.595 71.5692 188.826 75.3603 197.098L74.074 197.717C68.3007 188.938 65.5135 184.091 65.7123 183.177C66.0106 181.806 69.962 172.826 73.0126 168.03L77.6237 173.384Z" fill="#B28B67"/>
<path fill-rule="evenodd" clip-rule="evenodd" d="M74.8606 195.136L72.5651 196.067C66.8436 190.002 64.0247 185.738 64.1084 183.274C64.192 180.811 67.5548 175.396 74.1966 167.029L80.2181 174.518C74.5011 181.023 71.5588 184.457 71.3913 184.82C71.2238 185.183 72.3802 188.622 74.8606 195.136Z" fill="#FF4133"/>
<path fill-rule="evenodd" clip-rule="evenodd" d="M75.2772 195.463C75.7314 195.551 76.0503 195.652 76.2339 195.767C76.4535 195.903 76.7527 196.14 77.1318 196.477C76.9851 196.738 75.6673 199.08 73.1782 203.502C72.4856 203.317 72.2265 203.014 72.4008 202.591C72.5751 202.169 72.7165 201.815 72.825 201.532L73.2411 197.369C73.2485 197.295 73.3126 197.243 73.3843 197.253C73.3853 197.253 73.3863 197.253 73.3873 197.254L74.0138 197.355C74.3847 197.095 74.6343 196.85 74.7624 196.623C74.8684 196.434 74.9399 196.126 74.9767 195.697C74.9894 195.549 75.1161 195.443 75.2596 195.46C75.2655 195.461 75.2714 195.462 75.2772 195.463Z" fill="#E4E4E4"/>
<path fill-rule="evenodd" clip-rule="evenodd" d="M63.5631 164.712L57.7853 163.752C56.6094 163.067 55.5342 162.595 54.5595 162.337C54.2875 162.322 53.8595 162.411 54.5256 162.977C55.1916 163.543 55.8694 164.168 55.7667 164.458C55.6639 164.748 55.0607 164.622 54.9799 165.07C54.926 165.368 55.8996 165.444 57.9007 165.297L62.6393 167.315L63.5631 164.712Z" fill="#997659"/>
<path fill-rule="evenodd" clip-rule="evenodd" d="M72.5634 156.079L70.0882 156.176C69.7169 161.807 66.5385 165.278 59.0313 163.852L58.3499 171.099C65.3577 172.223 71.3481 169.552 72.2727 161.873C72.5121 159.885 72.6797 157.814 72.5634 156.079Z" fill="#AFB9C5"/>
<path fill-rule="evenodd" clip-rule="evenodd" d="M82.0184 166.361C84.7558 173.955 86.276 178.049 86.5789 178.641C86.801 179.075 88.3771 180.415 89.465 181.186C89.9017 181.495 89.7393 181.874 89.5821 181.971C88.3038 182.768 87.4071 181.77 86.2552 181.203C84.9933 180.583 85.1585 182.255 84.1587 181.781C84.4356 181.095 85.095 179.821 84.7307 178.966C84.5688 178.586 82.6123 174.364 78.8613 166.299L82.0184 166.361Z" fill="#B28B67"/>
<path fill-rule="evenodd" clip-rule="evenodd" d="M79.1133 172.012L67.7359 171.7C68.5915 166.892 70.4713 162.751 70.205 156.172L73.9206 155.396C76.7897 159.717 78.2967 164.982 79.1133 172.012Z" fill="#C5CFD6"/>
<path fill-rule="evenodd" clip-rule="evenodd" d="M79.1782 171.928L75.8837 171.842C76.5423 168.667 76.3232 163.463 75.2265 156.23C77.7589 160.5 78.4383 164.965 79.1782 171.928Z" fill="black" fill-opacity="0.1"/>
<path fill-rule="evenodd" clip-rule="evenodd" d="M74.3153 155.38C80.0301 160.623 83.9301 167.921 86.0152 177.273L78.4673 177.068C77.9495 169.227 76.6415 162.282 73.3938 156.203L74.0708 155.374L74.3153 155.38Z" fill="#C5CFD6"/>
</svg>
