<svg width="126" height="280" viewBox="0 0 126 280" fill="none" xmlns="http://www.w3.org/2000/svg">
<path opacity="0.87" d="M92.6824 115.027H96.6545V138.528H94.7788C85.8783 138.528 78.0444 139.889 71.2772 142.611C64.5834 145.332 58.9931 149.157 54.5061 154.086C50.0926 158.94 46.7458 164.715 44.4655 171.408C42.1852 178.028 41.045 185.274 41.045 193.145V219.184C41.045 225.289 41.6703 230.659 42.9208 235.293C44.2448 239.853 46.047 243.715 48.3272 246.878C50.6811 249.968 53.4027 252.285 56.4921 253.829C59.6551 255.374 63.1123 256.146 66.8637 256.146C70.6151 256.146 73.9988 255.374 77.0146 253.829C80.0305 252.285 82.605 250.115 84.7382 247.32C86.9449 244.451 88.5999 241.104 89.7033 237.279C90.8802 233.454 91.4687 229.261 91.4687 224.701C91.4687 220.214 90.917 216.058 89.8136 212.233C88.7103 208.408 87.092 205.061 84.9588 202.192C82.8257 199.25 80.1776 197.006 77.0146 195.462C73.9252 193.843 70.3945 193.034 66.4224 193.034C61.2733 193.034 56.676 194.248 52.6303 196.675C48.5847 199.029 45.3849 202.119 43.0311 205.944C40.6773 209.769 39.39 213.814 39.1693 218.08L29.3494 213.226C29.7172 206.973 31.0412 201.236 33.3215 196.013C35.6754 190.791 38.8015 186.23 42.7001 182.332C46.6722 178.433 51.3431 175.417 56.7128 173.284C62.156 171.151 68.1877 170.084 74.8079 170.084C82.4579 170.084 89.1516 171.555 94.8891 174.498C100.627 177.366 105.371 181.302 109.122 186.304C112.947 191.306 115.816 197.08 117.729 203.626C119.641 210.1 120.597 216.94 120.597 224.149C120.597 231.873 119.347 239.081 116.846 245.775C114.419 252.469 110.888 258.316 106.254 263.318C101.62 268.32 96.0292 272.219 89.4826 275.014C82.936 277.809 75.5803 279.207 67.4154 279.207C58.8092 279.207 51.0856 277.588 44.2448 274.352C37.4775 271.115 31.6665 266.628 26.8117 260.891C21.9569 255.153 18.2422 248.46 15.6677 240.81C13.0932 233.16 11.806 224.885 11.806 215.984V204.288C11.806 191.71 13.5346 180.015 16.9918 169.202C20.449 158.389 25.5612 148.937 32.3285 140.845C39.1693 132.68 47.6284 126.354 57.7058 121.867C67.7832 117.307 79.442 115.027 92.6824 115.027Z" fill="#080680"/>
<path fill-rule="evenodd" clip-rule="evenodd" d="M73.9867 158.01L73.3773 151.042L72.3521 150.856L70.6034 157.397L73.9867 158.01Z" fill="#B28B67"/>
<path fill-rule="evenodd" clip-rule="evenodd" d="M69.3034 153.783C70.3338 154.254 74.6674 152.874 74.8237 149.761C74.9801 146.648 70.6677 146.555 69.6581 147.957C68.6485 149.359 68.2731 153.313 69.3034 153.783Z" fill="#B28B67"/>
<path fill-rule="evenodd" clip-rule="evenodd" d="M73.6586 153.149C74.3211 151.297 75.704 150.203 75.6211 149.307C75.5658 148.709 75.2767 148.291 74.7538 148.053C74.6121 146.863 73.7702 146.214 72.228 146.108C69.9148 145.95 68.4063 146.654 68.7539 148.868C69.307 148.969 69.9989 148.888 70.8804 149.401C71.16 149.564 71.3285 149.942 71.3857 150.536L71.8029 150.612C72.2895 150.008 72.7188 149.831 73.0907 150.082C73.4625 150.333 73.4994 150.786 73.2012 151.44L73.2148 153.068L73.6586 153.149Z" fill="#101030"/>
<path fill-rule="evenodd" clip-rule="evenodd" d="M77.5225 168.548L61.6472 181.226L49.1848 192.328L47.5671 191.681L70.9605 165.924L77.5225 168.548Z" fill="#997659"/>
<path fill-rule="evenodd" clip-rule="evenodd" d="M50.0219 191.67C50.0336 192.152 50.0031 192.497 49.9306 192.703C49.8438 192.95 49.6759 193.294 49.4269 193.734C49.1394 193.619 46.5556 192.587 41.6754 190.636C41.7071 189.893 41.9493 189.582 42.4018 189.702C42.8544 189.823 43.2317 189.919 43.5338 189.991L47.7106 189.831C47.7848 189.829 47.8496 189.888 47.8554 189.963C47.8555 189.964 47.8556 189.965 47.8556 189.966L47.8912 190.63C48.2273 190.977 48.521 191.201 48.7722 191.301C48.9801 191.384 49.2986 191.414 49.7277 191.391C49.8759 191.384 50.0071 191.5 50.0208 191.651C50.0214 191.657 50.0218 191.663 50.0219 191.67Z" fill="#E4E4E4"/>
<path fill-rule="evenodd" clip-rule="evenodd" d="M52.0883 190.948L49.2917 188.755C52.092 185.225 55.3451 181.41 59.051 177.309C62.7568 173.208 66.5497 169.337 70.4296 165.696L79.2612 169.23C74.703 173.975 70.1767 178.134 65.6826 181.704C61.1884 185.275 56.657 188.356 52.0883 190.948Z" fill="#DB2721"/>
<path fill-rule="evenodd" clip-rule="evenodd" d="M77.6456 171.725C73.9978 176.131 69.7673 182.249 69.7176 182.53C69.6845 182.717 71.5554 186.856 75.3302 194.946L74.0421 195.555C68.2853 186.972 65.5073 182.233 65.7082 181.337C66.0095 179.994 69.9819 171.194 73.044 166.493L77.6456 171.725Z" fill="#B28B67"/>
<path fill-rule="evenodd" clip-rule="evenodd" d="M74.8322 193.024L72.5339 193.94C66.8233 188.015 64.0124 183.846 64.1014 181.435C64.1905 179.023 67.5661 173.716 74.2283 165.513L80.236 172.831C74.5029 179.21 71.5522 182.577 71.3838 182.933C71.2154 183.289 72.3649 186.652 74.8322 193.024Z" fill="#FF4133"/>
<path fill-rule="evenodd" clip-rule="evenodd" d="M75.2819 193.347C75.7351 193.432 76.0532 193.53 76.2362 193.642C76.455 193.775 76.7532 194.006 77.1308 194.335C76.9838 194.591 75.6634 196.885 73.1693 201.218C72.4784 201.039 72.2205 200.742 72.3954 200.328C72.5703 199.914 72.7122 199.568 72.8211 199.29L73.2455 195.216C73.2531 195.144 73.3172 195.093 73.3887 195.102C73.3897 195.102 73.3907 195.103 73.3917 195.103L74.0168 195.201C74.3876 194.945 74.6372 194.706 74.7656 194.483C74.8718 194.298 74.9438 193.996 74.9815 193.576C74.9945 193.431 75.1211 193.327 75.2644 193.344C75.2703 193.345 75.2761 193.346 75.2819 193.347Z" fill="#E4E4E4"/>
<path fill-rule="evenodd" clip-rule="evenodd" d="M63.5691 163.234L57.7866 162.303C56.6109 161.631 55.5354 161.17 54.5601 160.919C54.2878 160.904 53.8591 160.992 54.5247 161.548C55.1902 162.103 55.8675 162.716 55.7639 163.001C55.6603 163.286 55.0568 163.164 54.9748 163.604C54.9201 163.898 55.8947 163.97 57.8986 163.821L62.6383 165.795L63.5691 163.234Z" fill="#997659"/>
<path fill-rule="evenodd" clip-rule="evenodd" d="M72.5931 154.793L70.1134 154.893C69.7287 160.396 66.5369 163.794 59.0199 162.416L58.321 169.497C65.3383 170.58 71.3451 167.958 72.2887 160.454C72.533 158.511 72.7057 156.487 72.5931 154.793Z" fill="#AFB9C5"/>
<path fill-rule="evenodd" clip-rule="evenodd" d="M82.0396 164.853C84.7554 172.292 86.2638 176.301 86.5649 176.88C86.7856 177.306 88.3561 178.616 89.4405 179.369C89.8757 179.671 89.7127 180.042 89.5556 180.139C88.2776 180.922 87.3846 179.946 86.2359 179.393C84.9775 178.788 85.1386 180.426 84.1416 179.964C84.4195 179.291 85.0807 178.041 84.719 177.203C84.5582 176.831 82.6145 172.696 78.8879 164.8L82.0396 164.853Z" fill="#B28B67"/>
<path fill-rule="evenodd" clip-rule="evenodd" d="M79.1131 170.391L67.7003 170.11C68.5695 165.393 70.4647 161.329 70.2125 154.878L73.9417 154.11C76.8101 158.341 78.3099 163.499 79.1131 170.391Z" fill="#C5CFD6"/>
<path fill-rule="evenodd" clip-rule="evenodd" d="M79.1783 170.308L75.8542 170.231C76.5259 167.12 76.3167 162.023 75.2266 154.941C77.7723 159.118 78.4476 163.489 79.1783 170.308Z" fill="black" fill-opacity="0.1"/>
<path fill-rule="evenodd" clip-rule="evenodd" d="M74.3187 154.107C80.0441 159.234 83.9428 166.379 86.0149 175.541L78.4377 175.356C77.9357 167.671 76.6384 160.867 73.3917 154.915L74.0733 154.101L74.3187 154.107Z" fill="#C5CFD6"/>
</svg>
