<svg width="129" height="287" viewBox="0 0 129 287" fill="none" xmlns="http://www.w3.org/2000/svg">
<path opacity="0.87" d="M119.494 116.351V132.239L56.3818 277H25.598L88.7103 139.3H7.06151V116.351H119.494Z" fill="#080680"/>
<path fill-rule="evenodd" clip-rule="evenodd" d="M68.9975 98.3652L68.3735 91.2496L67.3451 91.0583L65.6039 97.7339L68.9975 98.3652Z" fill="#B28B67"/>
<path fill-rule="evenodd" clip-rule="evenodd" d="M64.3057 94.0409C65.3387 94.5229 69.677 93.1214 69.8278 89.9444C69.9786 86.7674 65.6587 86.6656 64.6501 88.0949C63.6414 89.5242 63.2727 93.5588 64.3057 94.0409Z" fill="#B28B67"/>
<path fill-rule="evenodd" clip-rule="evenodd" d="M68.6689 93.3968C69.3286 91.509 70.7113 90.3962 70.6264 89.4815C70.5698 88.8718 70.2794 88.445 69.7553 88.2011C69.6109 86.9863 68.7665 86.3234 67.2219 86.2126C64.9049 86.0464 63.3957 86.7618 63.7484 89.0215C64.3025 89.1248 64.9952 89.0437 65.879 89.5691C66.1594 89.7357 66.3289 90.122 66.3874 90.7278L66.8054 90.8058C67.2914 90.1905 67.7209 90.0112 68.0939 90.2679C68.4668 90.5246 68.5047 90.9862 68.2074 91.6527L68.2243 93.3138L68.6689 93.3968Z" fill="#101030"/>
<path fill-rule="evenodd" clip-rule="evenodd" d="M72.5229 109.166L56.6486 122.078L44.1894 133.388L42.5676 132.724L65.9441 106.473L72.5229 109.166Z" fill="#997659"/>
<path fill-rule="evenodd" clip-rule="evenodd" d="M45.0234 132.754C45.0361 133.246 45.0064 133.598 44.9342 133.808C44.848 134.059 44.6808 134.409 44.4327 134.857C44.145 134.74 41.5593 133.682 36.6756 131.685C36.7057 130.927 36.9472 130.61 37.4 130.734C37.8528 130.858 38.2302 130.957 38.5324 131.031L42.7086 130.876C42.7827 130.873 42.8477 130.934 42.8536 131.011C42.8537 131.012 42.8538 131.013 42.8538 131.014L42.8907 131.69C43.2276 132.045 43.5217 132.273 43.773 132.376C43.9811 132.461 44.2996 132.493 44.7287 132.47C44.8768 132.462 45.0083 132.581 45.0223 132.735C45.0229 132.742 45.0233 132.748 45.0234 132.754Z" fill="#E4E4E4"/>
<path fill-rule="evenodd" clip-rule="evenodd" d="M47.0962 131.979L44.2906 129.735C47.0873 126.137 50.3368 122.249 54.0392 118.07C57.7416 113.891 61.5316 109.946 65.4093 106.237L74.2617 109.864C69.7071 114.699 65.1833 118.935 60.6903 122.571C56.1973 126.207 51.6659 129.343 47.0962 131.979Z" fill="#DB2721"/>
<path fill-rule="evenodd" clip-rule="evenodd" d="M72.6237 112.384C68.9872 116.877 64.7717 123.117 64.7227 123.404C64.69 123.595 66.5692 127.826 70.3603 136.098L69.074 136.717C63.3007 127.938 60.5135 123.091 60.7123 122.177C61.0106 120.806 64.962 111.826 68.0126 107.03L72.6237 112.384Z" fill="#B28B67"/>
<path fill-rule="evenodd" clip-rule="evenodd" d="M69.8606 134.136L67.5651 135.067C61.8436 129.002 59.0247 124.738 59.1084 122.274C59.192 119.811 62.5548 114.396 69.1966 106.029L75.2181 113.518C69.5011 120.023 66.5588 123.457 66.3913 123.82C66.2238 124.183 67.3802 127.622 69.8606 134.136Z" fill="#FF4133"/>
<path fill-rule="evenodd" clip-rule="evenodd" d="M70.2772 134.463C70.7314 134.551 71.0503 134.652 71.2339 134.767C71.4535 134.903 71.7527 135.14 72.1318 135.477C71.9851 135.738 70.6673 138.08 68.1782 142.502C67.4856 142.317 67.2265 142.014 67.4008 141.591C67.5751 141.169 67.7165 140.815 67.825 140.532L68.2411 136.369C68.2485 136.295 68.3126 136.243 68.3843 136.253C68.3853 136.253 68.3863 136.253 68.3873 136.254L69.0138 136.355C69.3847 136.095 69.6343 135.85 69.7624 135.623C69.8684 135.434 69.9399 135.126 69.9767 134.697C69.9894 134.549 70.1161 134.443 70.2596 134.46C70.2655 134.461 70.2714 134.462 70.2772 134.463Z" fill="#E4E4E4"/>
<path fill-rule="evenodd" clip-rule="evenodd" d="M58.5631 103.712L52.7853 102.752C51.6094 102.067 50.5342 101.595 49.5595 101.337C49.2875 101.322 48.8595 101.411 49.5256 101.977C50.1916 102.543 50.8694 103.168 50.7667 103.458C50.6639 103.748 50.0607 103.622 49.9799 104.07C49.926 104.368 50.8996 104.444 52.9007 104.297L57.6393 106.315L58.5631 103.712Z" fill="#997659"/>
<path fill-rule="evenodd" clip-rule="evenodd" d="M67.5634 95.0793L65.0882 95.1755C64.7169 100.807 61.5385 104.278 54.0313 102.852L53.3499 110.099C60.3577 111.223 66.3481 108.552 67.2727 100.873C67.5121 98.8848 67.6797 96.8136 67.5634 95.0793Z" fill="#AFB9C5"/>
<path fill-rule="evenodd" clip-rule="evenodd" d="M77.0184 105.361C79.7558 112.955 81.276 117.049 81.5789 117.641C81.801 118.075 83.3771 119.415 84.465 120.186C84.9017 120.495 84.7393 120.874 84.5821 120.971C83.3038 121.768 82.4071 120.77 81.2552 120.203C79.9933 119.583 80.1585 121.255 79.1587 120.781C79.4356 120.095 80.095 118.821 79.7307 117.966C79.5688 117.586 77.6123 113.364 73.8613 105.299L77.0184 105.361Z" fill="#B28B67"/>
<path fill-rule="evenodd" clip-rule="evenodd" d="M74.1133 111.012L62.7359 110.7C63.5915 105.892 65.4713 101.751 65.205 95.1716L68.9206 94.3961C71.7897 98.7173 73.2967 103.982 74.1133 111.012Z" fill="#C5CFD6"/>
<path fill-rule="evenodd" clip-rule="evenodd" d="M74.1782 110.928L70.8837 110.842C71.5423 107.667 71.3232 102.463 70.2265 95.2296C72.7589 99.4998 73.4383 103.965 74.1782 110.928Z" fill="black" fill-opacity="0.1"/>
<path fill-rule="evenodd" clip-rule="evenodd" d="M69.3153 94.3802C75.0301 99.6233 78.9301 106.921 81.0152 116.273L73.4673 116.068C72.9495 108.227 71.6415 101.282 68.3938 95.2026L69.0708 94.3735L69.3153 94.3802Z" fill="#C5CFD6"/>
</svg>
