<svg width="129" height="277" viewBox="0 0 129 277" fill="none" xmlns="http://www.w3.org/2000/svg">
<path opacity="0.87" d="M119.494 116.351V132.239L56.3818 277H25.598L88.7103 139.3H7.06151V116.351H119.494Z" fill="#080680"/>
<path fill-rule="evenodd" clip-rule="evenodd" d="M68.9809 99.9378L68.3811 93.0656L67.3579 92.8833L65.6044 99.3364L68.9809 99.9378Z" fill="#B28B67"/>
<path fill-rule="evenodd" clip-rule="evenodd" d="M64.3028 95.7751C65.3314 96.2385 69.6619 94.8729 69.8219 91.8015C69.9819 88.7301 65.6743 88.6424 64.6641 90.0266C63.654 91.4107 63.2741 95.3116 64.3028 95.7751Z" fill="#B28B67"/>
<path fill-rule="evenodd" clip-rule="evenodd" d="M68.6526 95.1464C69.317 93.3181 70.7001 92.2375 70.6184 91.3529C70.564 90.7632 70.2757 90.3511 69.7537 90.1168C69.6137 88.9419 68.7735 88.3032 67.2329 88.2006C64.9221 88.0467 63.414 88.7432 63.7584 90.9282C64.3107 91.0266 65.0021 90.946 65.8821 91.4516C66.1613 91.612 66.329 91.9852 66.3854 92.5711L66.8021 92.6453C67.289 92.0486 67.7181 91.8739 68.0893 92.1211C68.4605 92.3684 68.4967 92.8148 68.1979 93.4605L68.2093 95.0674L68.6526 95.1464Z" fill="#101030"/>
<path fill-rule="evenodd" clip-rule="evenodd" d="M72.5234 110.304L56.6476 122.829L44.183 133.794L42.5681 133.158L65.9726 107.724L72.5234 110.304Z" fill="#997659"/>
<path fill-rule="evenodd" clip-rule="evenodd" d="M45.0214 133.12C45.0324 133.596 45.0015 133.937 44.9286 134.141C44.8416 134.384 44.6732 134.724 44.4236 135.159C44.1362 135.046 41.5537 134.029 36.6759 132.11C36.7086 131.376 36.9512 131.068 37.4036 131.186C37.8561 131.305 38.2333 131.4 38.5352 131.47L42.7125 131.307C42.7867 131.305 42.8514 131.363 42.8571 131.437C42.8572 131.438 42.8573 131.44 42.8573 131.441L42.892 132.095C43.2277 132.438 43.521 132.658 43.7721 132.757C43.9799 132.839 44.2984 132.868 44.7276 132.845C44.8757 132.837 45.0068 132.952 45.0203 133.101C45.0209 133.107 45.0213 133.113 45.0214 133.12Z" fill="#E4E4E4"/>
<path fill-rule="evenodd" clip-rule="evenodd" d="M47.0844 132.432L44.2937 130.273C47.0964 126.788 50.3518 123.021 54.06 118.971C57.7682 114.921 61.563 111.098 65.4444 107.502L74.2622 110.975C69.7015 115.662 65.1737 119.769 60.6788 123.297C56.1838 126.825 51.6524 129.869 47.0844 132.432Z" fill="#DB2721"/>
<path fill-rule="evenodd" clip-rule="evenodd" d="M72.6614 113.454C69.0062 117.803 64.7656 123.84 64.7155 124.117C64.6821 124.302 66.5474 128.38 70.3115 136.352L69.0222 136.954C63.2763 128.499 60.5045 123.83 60.7068 122.947C61.0101 121.622 64.9964 112.94 68.0662 108.301L72.6614 113.454Z" fill="#B28B67"/>
<path fill-rule="evenodd" clip-rule="evenodd" d="M69.8146 134.456L67.5144 135.362C61.811 129.528 59.0056 125.422 59.0981 123.045C59.1907 120.667 62.5749 115.431 69.2507 107.335L75.2493 114.541C69.5054 120.838 66.549 124.161 66.3801 124.512C66.2112 124.863 67.356 128.178 69.8146 134.456Z" fill="#FF4133"/>
<path fill-rule="evenodd" clip-rule="evenodd" d="M70.2866 134.776C70.739 134.859 71.0566 134.956 71.2392 135.065C71.4575 135.196 71.755 135.424 72.1316 135.748C71.9845 136 70.6623 138.263 68.1649 142.537C67.4752 142.361 67.218 142.069 67.3933 141.661C67.5686 141.253 67.7108 140.912 67.82 140.638L68.25 136.621C68.2576 136.55 68.3217 136.499 68.3931 136.509C68.3941 136.509 68.3951 136.509 68.3961 136.509L69.0203 136.605C69.391 136.352 69.6406 136.116 69.7692 135.896C69.8755 135.714 69.9479 135.416 69.9861 135.002C69.9994 134.859 70.126 134.757 70.269 134.773C70.2749 134.774 70.2808 134.775 70.2866 134.776Z" fill="#E4E4E4"/>
<path fill-rule="evenodd" clip-rule="evenodd" d="M58.5733 105.081L52.7876 104.169C51.612 103.507 50.5363 103.052 49.5607 102.805C49.2882 102.791 48.859 102.879 49.5242 103.427C50.1895 103.975 50.8663 104.58 50.7622 104.862C50.6581 105.144 50.0543 105.024 49.9715 105.46C49.9164 105.75 50.8917 105.82 52.8973 105.67L57.6377 107.614L58.5733 105.081Z" fill="#997659"/>
<path fill-rule="evenodd" clip-rule="evenodd" d="M67.6135 96.7663L65.1308 96.8677C64.7371 102.286 61.5364 105.636 54.0129 104.291L53.3022 111.264C60.3259 112.32 66.3437 109.73 67.3 102.34C67.5476 100.427 67.7236 98.4341 67.6135 96.7663Z" fill="#AFB9C5"/>
<path fill-rule="evenodd" clip-rule="evenodd" d="M77.0546 106.681C79.756 114.017 81.2566 117.971 81.5564 118.543C81.7762 118.962 83.343 120.253 84.425 120.994C84.8593 121.292 84.6959 121.658 84.5388 121.754C83.261 122.529 82.3705 121.566 81.2239 121.023C79.9678 120.427 80.1262 122.044 79.131 121.589C79.4097 120.924 80.0721 119.69 79.712 118.864C79.5519 118.497 77.6167 114.42 73.9064 106.632L77.0546 106.681Z" fill="#B28B67"/>
<path fill-rule="evenodd" clip-rule="evenodd" d="M74.1133 112.144L62.6768 111.883C63.5551 107.227 65.4606 103.213 65.2179 96.8467L68.9562 96.0829C71.8241 100.254 73.3191 105.344 74.1133 112.144Z" fill="#C5CFD6"/>
<path fill-rule="evenodd" clip-rule="evenodd" d="M74.1789 112.063L70.8345 111.991C71.5153 108.922 71.3128 103.896 70.2272 96.9115C72.7818 101.028 73.4544 105.339 74.1789 112.063Z" fill="black" fill-opacity="0.1"/>
<path fill-rule="evenodd" clip-rule="evenodd" d="M69.3217 96.0883C75.0543 101.139 78.9522 108.184 81.0154 117.222L73.4186 117.05C72.9272 109.468 71.637 102.756 68.3911 96.8871L69.0757 96.0828L69.3217 96.0883Z" fill="#C5CFD6"/>
</svg>
