<svg width="129" height="280" viewBox="0 0 129 280" fill="none" xmlns="http://www.w3.org/2000/svg">
<path opacity="0.87" d="M118.17 233.086C118.17 243.09 115.816 251.549 111.109 258.464C106.474 265.304 100.112 270.49 92.0204 274.021C84.0026 277.478 74.8815 279.207 64.657 279.207C54.5061 279.207 45.3482 277.478 37.1833 274.021C29.092 270.49 22.6557 265.304 17.8745 258.464C13.1668 251.549 10.8129 243.09 10.8129 233.086C10.8129 226.392 12.137 220.324 14.785 214.881C17.5067 209.437 21.2581 204.767 26.0393 200.868C30.8206 196.896 36.4845 193.88 43.0311 191.82C49.5777 189.687 56.7128 188.621 64.4363 188.621C74.7344 188.621 83.929 190.496 92.0204 194.248C100.185 197.926 106.585 203.112 111.219 209.805C115.853 216.425 118.17 224.186 118.17 233.086ZM88.8206 231.321C88.8206 226.172 87.7908 221.722 85.7312 217.97C83.7451 214.145 80.9132 211.203 77.2353 209.143C73.5574 207.084 69.2911 206.054 64.4363 206.054C59.508 206.054 55.2049 207.084 51.527 209.143C47.9227 211.203 45.0907 214.145 43.0311 217.97C41.045 221.722 40.052 226.172 40.052 231.321C40.052 236.543 41.045 241.03 43.0311 244.782C45.0907 248.46 47.9594 251.292 51.6373 253.278C55.3152 255.264 59.6551 256.257 64.657 256.257C69.6589 256.257 73.962 255.264 77.5663 253.278C81.1706 251.292 83.929 248.46 85.8415 244.782C87.8276 241.03 88.8206 236.543 88.8206 231.321ZM114.639 158.72C114.639 166.811 112.506 174.02 108.24 180.346C103.973 186.598 98.0521 191.489 90.4756 195.02C82.9728 198.551 74.3666 200.316 64.657 200.316C54.9474 200.316 46.2676 198.551 38.6177 195.02C31.0412 191.489 25.0831 186.598 20.7432 180.346C16.4769 174.02 14.3437 166.811 14.3437 158.72C14.3437 149.157 16.5136 141.066 20.8535 134.446C25.1934 127.752 31.1148 122.676 38.6177 119.219C46.1941 115.762 54.8003 114.033 64.4363 114.033C74.2195 114.033 82.8992 115.762 90.4756 119.219C98.0521 122.676 103.973 127.752 108.24 134.446C112.506 141.066 114.639 149.157 114.639 158.72ZM85.5105 159.933C85.5105 155.373 84.6646 151.401 82.9728 148.017C81.281 144.56 78.8536 141.875 75.6906 139.962C72.6012 138.05 68.8498 137.094 64.4363 137.094C60.17 137.094 56.4921 138.013 53.4027 139.852C50.3133 141.691 47.9227 144.339 46.2308 147.796C44.539 151.18 43.6931 155.226 43.6931 159.933C43.6931 164.567 44.539 168.613 46.2308 172.07C47.9227 175.528 50.3133 178.249 53.4027 180.235C56.5657 182.148 60.3171 183.104 64.657 183.104C68.9969 183.104 72.7115 182.148 75.8009 180.235C78.8904 178.249 81.281 175.528 82.9728 172.07C84.6646 168.613 85.5105 164.567 85.5105 159.933Z" fill="#080680"/>
<path fill-rule="evenodd" clip-rule="evenodd" d="M62.956 167.045L62.3653 160.263L61.344 160.084L59.5858 166.455L62.956 167.045Z" fill="#B28B67"/>
<path fill-rule="evenodd" clip-rule="evenodd" d="M58.2831 162.942C59.3102 163.399 63.6377 162.047 63.8011 159.014C63.9645 155.982 59.6616 155.9 58.6509 157.267C57.6401 158.635 57.2561 162.486 58.2831 162.942Z" fill="#B28B67"/>
<path fill-rule="evenodd" clip-rule="evenodd" d="M62.6279 162.319C63.294 160.513 64.6773 159.445 64.5969 158.571C64.5433 157.989 64.2558 157.582 63.7345 157.352C63.5962 156.192 62.7576 155.562 61.2185 155.462C58.91 155.313 57.4024 156.002 57.7436 158.16C58.2953 158.256 58.9862 158.176 59.8647 158.674C60.1434 158.832 60.3105 159.2 60.3661 159.779L60.7823 159.852C61.2696 159.262 61.6985 159.089 62.0691 159.333C62.4396 159.576 62.4752 160.017 62.1758 160.655L62.1851 162.242L62.6279 162.319Z" fill="#101030"/>
<path fill-rule="evenodd" clip-rule="evenodd" d="M66.5049 177.25L50.6285 189.631L38.1618 200.468L36.5495 199.842L59.9647 174.713L66.5049 177.25Z" fill="#997659"/>
<path fill-rule="evenodd" clip-rule="evenodd" d="M39.0019 199.779C39.0123 200.25 38.9809 200.586 38.9078 200.788C38.8204 201.028 38.6515 201.364 38.4013 201.794C38.1141 201.683 35.5328 200.682 30.6573 198.791C30.691 198.066 30.934 197.761 31.3863 197.878C31.8386 197.994 32.2157 198.087 32.5176 198.157L36.6953 197.991C36.7694 197.988 36.8341 198.046 36.8397 198.119C36.8398 198.12 36.8399 198.121 36.8399 198.123L36.8737 198.769C37.209 199.107 37.5021 199.325 37.753 199.422C37.9607 199.503 38.2792 199.531 38.7084 199.508C38.8566 199.5 38.9875 199.613 39.0009 199.761C39.0014 199.767 39.0017 199.773 39.0019 199.779Z" fill="#E4E4E4"/>
<path fill-rule="evenodd" clip-rule="evenodd" d="M41.0612 199.123L38.2762 196.995C41.0811 193.553 44.3387 189.83 48.0492 185.829C51.7596 181.827 55.5562 178.049 59.4389 174.495L68.2437 177.912C63.6807 182.543 59.1513 186.603 54.6556 190.09C50.16 193.577 45.6285 196.588 41.0612 199.123Z" fill="#DB2721"/>
<path fill-rule="evenodd" clip-rule="evenodd" d="M66.657 180.374C62.9948 184.67 58.7445 190.632 58.694 190.905C58.6604 191.088 60.5204 195.109 64.2743 202.97L62.9837 203.565C57.2483 195.231 54.4824 190.627 54.6859 189.756C54.9912 188.448 58.9907 179.877 62.0679 175.296L66.657 180.374Z" fill="#B28B67"/>
<path fill-rule="evenodd" clip-rule="evenodd" d="M63.7784 201.098L61.4764 201.995C55.7799 196.247 52.9796 192.2 53.0755 189.854C53.1714 187.509 56.5638 182.338 63.2526 174.343L69.2423 181.445C63.4883 187.664 60.5266 190.946 60.3571 191.293C60.1876 191.639 61.3281 194.908 63.7784 201.098Z" fill="#FF4133"/>
<path fill-rule="evenodd" clip-rule="evenodd" d="M64.2713 201.415C64.7231 201.497 65.0401 201.592 65.2223 201.7C65.4402 201.829 65.737 202.053 66.1127 202.372C65.9654 202.62 64.6415 204.854 62.1409 209.073C61.4523 208.901 61.1958 208.613 61.3715 208.21C61.5471 207.807 61.6897 207.471 61.7992 207.2L62.2344 203.238C62.2421 203.168 62.3062 203.118 62.3775 203.127C62.3785 203.127 62.3795 203.127 62.3806 203.127L63.0038 203.221C63.3745 202.971 63.6241 202.738 63.7529 202.521C63.8594 202.341 63.9321 202.047 63.9709 201.639C63.9843 201.498 64.1109 201.397 64.2538 201.413C64.2596 201.413 64.2655 201.414 64.2713 201.415Z" fill="#E4E4E4"/>
<path fill-rule="evenodd" clip-rule="evenodd" d="M52.5585 172.112L46.7698 171.218C45.5943 170.565 44.5185 170.117 43.5425 169.873C43.2699 169.86 42.8402 169.947 43.5051 170.489C44.1701 171.03 44.8465 171.628 44.7419 171.907C44.6373 172.186 44.0332 172.068 43.9498 172.499C43.8941 172.786 44.87 172.854 46.8775 172.703L51.6186 174.62L52.5585 172.112Z" fill="#997659"/>
<path fill-rule="evenodd" clip-rule="evenodd" d="M61.6139 163.916L59.1283 164.019C58.7261 169.359 55.5169 172.664 47.9872 171.349L47.2652 178.22C54.295 179.252 60.3233 176.691 61.2917 169.408C61.5425 167.523 61.7216 165.559 61.6139 163.916Z" fill="#AFB9C5"/>
<path fill-rule="evenodd" clip-rule="evenodd" d="M71.0497 173.694C73.7374 180.935 75.2306 184.837 75.5293 185.401C75.7483 185.815 77.3115 187.087 78.3913 187.818C78.8247 188.111 78.6609 188.473 78.5039 188.568C77.2262 189.335 76.3381 188.385 75.1935 187.85C73.9395 187.264 74.0954 188.86 73.1019 188.412C73.3813 187.755 74.0448 186.536 73.6863 185.721C73.527 185.358 71.5999 181.335 67.9049 173.651L71.0497 173.694Z" fill="#B28B67"/>
<path fill-rule="evenodd" clip-rule="evenodd" d="M68.095 179.088L56.6359 178.845C57.523 174.246 59.4383 170.279 59.2047 163.992L62.9516 163.233C65.819 167.349 67.3094 172.373 68.095 179.088Z" fill="#C5CFD6"/>
<path fill-rule="evenodd" clip-rule="evenodd" d="M68.1602 179.008L64.7965 178.942C65.4859 175.912 65.2899 170.951 64.2085 164.059C66.7718 168.119 67.4417 172.372 68.1602 179.008Z" fill="black" fill-opacity="0.1"/>
<path fill-rule="evenodd" clip-rule="evenodd" d="M63.3055 163.246C69.0449 168.225 72.942 175.176 74.9969 184.098L67.3812 183.938C66.9 176.452 65.6167 169.826 62.3714 164.036L63.0589 163.241L63.3055 163.246Z" fill="#C5CFD6"/>
<path fill-rule="evenodd" clip-rule="evenodd" d="M68.095 179.088L56.6359 178.845C57.523 174.246 59.4383 170.279 59.2047 163.992L62.9516 163.233C65.819 167.349 67.3094 172.373 68.095 179.088Z" fill="#C5CFD6"/>
<path fill-rule="evenodd" clip-rule="evenodd" d="M68.1602 179.008L64.7965 178.942C65.4859 175.912 65.2899 170.951 64.2085 164.059C66.7718 168.119 67.4417 172.372 68.1602 179.008Z" fill="black" fill-opacity="0.1"/>
<path fill-rule="evenodd" clip-rule="evenodd" d="M63.3055 163.246C69.0449 168.225 72.942 175.176 74.9969 184.098L67.3812 183.938C66.9 176.452 65.6167 169.826 62.3714 164.036L63.0589 163.241L63.3055 163.246Z" fill="#C5CFD6"/>
</svg>
