<svg width="129" height="293" viewBox="0 0 129 293" fill="none" xmlns="http://www.w3.org/2000/svg">
<path opacity="0.87" d="M118.17 233.086C118.17 243.09 115.816 251.549 111.109 258.464C106.474 265.304 100.112 270.49 92.0204 274.021C84.0026 277.478 74.8815 279.207 64.657 279.207C54.5061 279.207 45.3482 277.478 37.1833 274.021C29.092 270.49 22.6557 265.304 17.8745 258.464C13.1668 251.549 10.8129 243.09 10.8129 233.086C10.8129 226.392 12.137 220.324 14.785 214.881C17.5067 209.437 21.2581 204.767 26.0393 200.868C30.8206 196.896 36.4845 193.88 43.0311 191.82C49.5777 189.687 56.7128 188.621 64.4363 188.621C74.7344 188.621 83.929 190.496 92.0204 194.248C100.185 197.926 106.585 203.112 111.219 209.805C115.853 216.425 118.17 224.186 118.17 233.086ZM88.8206 231.321C88.8206 226.172 87.7908 221.722 85.7312 217.97C83.7451 214.145 80.9132 211.203 77.2353 209.143C73.5574 207.084 69.2911 206.054 64.4363 206.054C59.508 206.054 55.2049 207.084 51.527 209.143C47.9227 211.203 45.0907 214.145 43.0311 217.97C41.045 221.722 40.052 226.172 40.052 231.321C40.052 236.543 41.045 241.03 43.0311 244.782C45.0907 248.46 47.9594 251.292 51.6373 253.278C55.3152 255.264 59.6551 256.257 64.657 256.257C69.6589 256.257 73.962 255.264 77.5663 253.278C81.1706 251.292 83.929 248.46 85.8415 244.782C87.8276 241.03 88.8206 236.543 88.8206 231.321ZM114.639 158.72C114.639 166.811 112.506 174.02 108.24 180.346C103.973 186.598 98.0521 191.489 90.4756 195.02C82.9728 198.551 74.3666 200.316 64.657 200.316C54.9474 200.316 46.2676 198.551 38.6177 195.02C31.0412 191.489 25.0831 186.598 20.7432 180.346C16.4769 174.02 14.3437 166.811 14.3437 158.72C14.3437 149.157 16.5136 141.066 20.8535 134.446C25.1934 127.752 31.1148 122.676 38.6177 119.219C46.1941 115.762 54.8003 114.033 64.4363 114.033C74.2195 114.033 82.8992 115.762 90.4756 119.219C98.0521 122.676 103.973 127.752 108.24 134.446C112.506 141.066 114.639 149.157 114.639 158.72ZM85.5105 159.933C85.5105 155.373 84.6646 151.401 82.9728 148.017C81.281 144.56 78.8536 141.875 75.6906 139.962C72.6012 138.05 68.8498 137.094 64.4363 137.094C60.17 137.094 56.4921 138.013 53.4027 139.852C50.3133 141.691 47.9227 144.339 46.2308 147.796C44.539 151.18 43.6931 155.226 43.6931 159.933C43.6931 164.567 44.539 168.613 46.2308 172.07C47.9227 175.528 50.3133 178.249 53.4027 180.235C56.5657 182.148 60.3171 183.104 64.657 183.104C68.9969 183.104 72.7115 182.148 75.8009 180.235C78.8904 178.249 81.281 175.528 82.9728 172.07C84.6646 168.613 85.5105 164.567 85.5105 159.933Z" fill="#080680"/>
<path fill-rule="evenodd" clip-rule="evenodd" d="M60.9975 165.365L60.3735 158.25L59.3451 158.058L57.6039 164.734L60.9975 165.365Z" fill="#B28B67"/>
<path fill-rule="evenodd" clip-rule="evenodd" d="M56.3057 161.041C57.3387 161.523 61.677 160.122 61.8278 156.945C61.9786 153.768 57.6587 153.666 56.6501 155.095C55.6414 156.524 55.2727 160.559 56.3057 161.041Z" fill="#B28B67"/>
<path fill-rule="evenodd" clip-rule="evenodd" d="M60.6689 160.397C61.3286 158.509 62.7113 157.396 62.6264 156.482C62.5698 155.872 62.2794 155.445 61.7553 155.201C61.6109 153.986 60.7665 153.323 59.2219 153.213C56.9049 153.046 55.3957 153.762 55.7484 156.022C56.3025 156.125 56.9952 156.044 57.879 156.569C58.1594 156.736 58.3289 157.122 58.3874 157.728L58.8054 157.806C59.2914 157.191 59.7209 157.011 60.0939 157.268C60.4668 157.525 60.5047 157.986 60.2074 158.653L60.2243 160.314L60.6689 160.397Z" fill="#101030"/>
<path fill-rule="evenodd" clip-rule="evenodd" d="M64.5229 176.166L48.6486 189.078L36.1894 200.388L34.5676 199.724L57.9441 173.473L64.5229 176.166Z" fill="#997659"/>
<path fill-rule="evenodd" clip-rule="evenodd" d="M37.0234 199.754C37.0361 200.247 37.0064 200.598 36.9342 200.808C36.848 201.059 36.6808 201.409 36.4327 201.858C36.145 201.74 33.5593 200.682 28.6756 198.685C28.7057 197.927 28.9472 197.61 29.4 197.734C29.8528 197.858 30.2302 197.957 30.5324 198.031L34.7086 197.876C34.7827 197.873 34.8477 197.934 34.8536 198.011C34.8537 198.012 34.8538 198.013 34.8538 198.014L34.8907 198.69C35.2276 199.045 35.5217 199.273 35.773 199.376C35.9811 199.461 36.2996 199.493 36.7287 199.47C36.8768 199.463 37.0083 199.581 37.0223 199.735C37.0229 199.742 37.0233 199.748 37.0234 199.754Z" fill="#E4E4E4"/>
<path fill-rule="evenodd" clip-rule="evenodd" d="M39.0962 198.979L36.2906 196.735C39.0873 193.137 42.3368 189.249 46.0392 185.07C49.7416 180.891 53.5316 176.946 57.4093 173.237L66.2617 176.864C61.7071 181.699 57.1833 185.935 52.6903 189.571C48.1973 193.207 43.6659 196.343 39.0962 198.979Z" fill="#DB2721"/>
<path fill-rule="evenodd" clip-rule="evenodd" d="M64.6237 179.384C60.9872 183.877 56.7717 190.117 56.7227 190.404C56.69 190.595 58.5692 194.826 62.3603 203.098L61.074 203.717C55.3007 194.938 52.5135 190.091 52.7123 189.177C53.0106 187.806 56.962 178.826 60.0126 174.03L64.6237 179.384Z" fill="#B28B67"/>
<path fill-rule="evenodd" clip-rule="evenodd" d="M61.8606 201.136L59.5651 202.067C53.8436 196.002 51.0247 191.738 51.1084 189.274C51.192 186.811 54.5548 181.396 61.1966 173.03L67.2181 180.518C61.5011 187.023 58.5588 190.457 58.3913 190.82C58.2238 191.183 59.3802 194.622 61.8606 201.136Z" fill="#FF4133"/>
<path fill-rule="evenodd" clip-rule="evenodd" d="M62.2772 201.463C62.7314 201.551 63.0503 201.653 63.2339 201.767C63.4535 201.904 63.7527 202.14 64.1318 202.477C63.9851 202.738 62.6673 205.08 60.1782 209.502C59.4856 209.318 59.2265 209.014 59.4008 208.591C59.5751 208.169 59.7165 207.816 59.825 207.532L60.2411 203.369C60.2485 203.295 60.3126 203.243 60.3843 203.253C60.3853 203.253 60.3863 203.253 60.3873 203.254L61.0138 203.355C61.3847 203.095 61.6343 202.85 61.7624 202.623C61.8684 202.434 61.9399 202.126 61.9767 201.697C61.9894 201.549 62.1161 201.443 62.2596 201.46C62.2655 201.461 62.2714 201.462 62.2772 201.463Z" fill="#E4E4E4"/>
<path fill-rule="evenodd" clip-rule="evenodd" d="M50.5631 170.712L44.7853 169.752C43.6094 169.067 42.5342 168.595 41.5595 168.337C41.2875 168.322 40.8595 168.411 41.5256 168.977C42.1916 169.544 42.8694 170.169 42.7667 170.458C42.6639 170.748 42.0607 170.622 41.9799 171.07C41.926 171.368 42.8996 171.444 44.9007 171.297L49.6393 173.315L50.5631 170.712Z" fill="#997659"/>
<path fill-rule="evenodd" clip-rule="evenodd" d="M59.5634 162.079L57.0882 162.176C56.7169 167.807 53.5385 171.278 46.0313 169.852L45.3499 177.099C52.3577 178.223 58.3481 175.552 59.2727 167.873C59.5121 165.885 59.6797 163.814 59.5634 162.079Z" fill="#AFB9C5"/>
<path fill-rule="evenodd" clip-rule="evenodd" d="M69.0184 172.361C71.7558 179.955 73.276 184.049 73.5789 184.641C73.801 185.075 75.3771 186.415 76.465 187.186C76.9017 187.495 76.7393 187.874 76.5821 187.971C75.3038 188.768 74.4071 187.77 73.2552 187.203C71.9933 186.583 72.1585 188.255 71.1587 187.781C71.4356 187.095 72.095 185.821 71.7307 184.966C71.5688 184.586 69.6123 180.364 65.8613 172.299L69.0184 172.361Z" fill="#B28B67"/>
<path fill-rule="evenodd" clip-rule="evenodd" d="M66.1133 178.012L54.7359 177.7C55.5915 172.892 57.4713 168.751 57.205 162.172L60.9206 161.396C63.7897 165.717 65.2967 170.982 66.1133 178.012Z" fill="#C5CFD6"/>
<path fill-rule="evenodd" clip-rule="evenodd" d="M66.1782 177.928L62.8837 177.842C63.5423 174.667 63.3232 169.463 62.2265 162.23C64.7589 166.5 65.4383 170.965 66.1782 177.928Z" fill="black" fill-opacity="0.1"/>
<path fill-rule="evenodd" clip-rule="evenodd" d="M61.3153 161.38C67.0301 166.623 70.9301 173.921 73.0152 183.273L65.4673 183.068C64.9495 175.227 63.6415 168.282 60.3938 162.203L61.0708 161.374L61.3153 161.38Z" fill="#C5CFD6"/>
<path fill-rule="evenodd" clip-rule="evenodd" d="M66.1133 178.012L54.7359 177.7C55.5915 172.892 57.4713 168.751 57.205 162.172L60.9206 161.396C63.7897 165.717 65.2967 170.982 66.1133 178.012Z" fill="#C5CFD6"/>
<path fill-rule="evenodd" clip-rule="evenodd" d="M66.1787 177.928L62.8842 177.842C63.5427 174.667 63.3237 169.463 62.227 162.23C64.7594 166.5 65.4387 170.965 66.1787 177.928Z" fill="black" fill-opacity="0.1"/>
<path fill-rule="evenodd" clip-rule="evenodd" d="M61.3153 161.38C67.0301 166.623 70.9301 173.921 73.0152 183.273L65.4673 183.068C64.9495 175.227 63.6415 168.282 60.3938 162.203L61.0708 161.374L61.3153 161.38Z" fill="#C5CFD6"/>
</svg>
