<svg width="129" height="279" viewBox="0 0 129 279" fill="none" xmlns="http://www.w3.org/2000/svg">
<path opacity="0.87" d="M33.5422 254.381H35.6386C45.1275 254.381 53.1452 253.167 59.6919 250.74C66.312 248.313 71.6449 244.892 75.6906 240.479C79.8098 235.992 82.7889 230.659 84.6278 224.48C86.5403 218.228 87.4966 211.313 87.4966 203.737V174.608C87.4966 168.429 86.8713 163.023 85.6209 158.389C84.3704 153.681 82.605 149.746 80.3247 146.583C78.118 143.42 75.5067 141.066 72.4909 139.521C69.475 137.903 66.2385 137.094 62.7813 137.094C58.9563 137.094 55.5726 137.976 52.6303 139.742C49.688 141.507 47.1871 143.935 45.1275 147.024C43.1414 150.04 41.5967 153.534 40.4934 157.506C39.4636 161.478 38.9487 165.671 38.9487 170.084C38.9487 174.351 39.4268 178.433 40.383 182.332C41.4128 186.23 42.9208 189.687 44.9068 192.703C46.9664 195.719 49.5409 198.11 52.6303 199.875C55.7198 201.567 59.3241 202.413 63.4433 202.413C67.3418 202.413 70.8726 201.677 74.0356 200.206C77.2721 198.661 80.0673 196.639 82.4211 194.138C84.7749 191.563 86.5771 188.731 87.8276 185.642C89.1516 182.479 89.8872 179.279 90.0343 176.042L100.296 180.456C100.296 185.826 99.1554 191.122 96.8751 196.344C94.6684 201.567 91.5422 206.311 87.4966 210.578C83.5245 214.77 78.8904 218.154 73.5942 220.729C68.2981 223.23 62.5974 224.48 56.4921 224.48C48.9157 224.48 42.222 223.082 36.4109 220.287C30.5999 217.492 25.7083 213.63 21.7362 208.702C17.8377 203.7 14.8954 197.963 12.9093 191.489C10.9233 184.943 9.93025 177.955 9.93025 170.526C9.93025 162.802 11.144 155.557 13.5713 148.789C15.9987 141.949 19.4927 135.954 24.0533 130.805C28.6874 125.582 34.2778 121.5 40.8244 118.557C47.371 115.541 54.7267 114.033 62.8916 114.033C71.3507 114.033 78.8904 115.689 85.5105 118.999C92.1307 122.309 97.7578 126.906 102.392 132.791C107.026 138.602 110.557 145.479 112.984 153.424C115.485 161.368 116.736 170.047 116.736 179.463V189.724C116.736 199.654 115.743 209.07 113.757 217.97C111.771 226.871 108.718 234.999 104.599 242.354C100.479 249.71 95.2201 256.073 88.8206 261.443C82.4947 266.812 74.9182 270.968 66.0914 273.911C57.338 276.779 47.3342 278.214 36.0799 278.214H33.5422V254.381Z" fill="#080680"/>
<path fill-rule="evenodd" clip-rule="evenodd" d="M55.7983 178.619L55.4344 171.486L54.4137 171.257L52.4301 177.865L55.7983 178.619Z" fill="#B28B67"/>
<path fill-rule="evenodd" clip-rule="evenodd" d="M51.2672 174.127C52.2819 174.646 56.6685 173.404 56.9351 170.234C57.2018 167.065 52.8885 166.806 51.8284 168.197C50.7682 169.589 50.2525 173.607 51.2672 174.127Z" fill="#B28B67"/>
<path fill-rule="evenodd" clip-rule="evenodd" d="M55.6507 173.642C56.3788 171.78 57.8011 170.718 57.7497 169.801C57.7154 169.19 57.4408 168.752 56.9259 168.49C56.826 167.27 56.0063 166.577 54.4667 166.41C52.1574 166.159 50.6231 166.819 50.8931 169.09C51.443 169.214 52.1383 169.158 53.0023 169.715C53.2764 169.892 53.4317 170.284 53.4681 170.892L53.8829 170.985C54.3911 170.388 54.8269 170.224 55.1902 170.494C55.5535 170.765 55.5745 171.227 55.2531 171.882L55.2094 173.543L55.6507 173.642Z" fill="#101030"/>
<path fill-rule="evenodd" clip-rule="evenodd" d="M58.9268 189.542L42.5918 201.866L29.7282 212.713L28.1317 211.991L52.4506 186.61L58.9268 189.542Z" fill="#997659"/>
<path fill-rule="evenodd" clip-rule="evenodd" d="M30.585 212.11C30.5797 212.603 30.5372 212.953 30.4574 213.16C30.3621 213.408 30.1823 213.752 29.918 214.191C29.6348 214.063 27.0893 212.912 22.2817 210.737C22.3395 209.981 22.5924 209.673 23.0404 209.814C23.4883 209.954 23.8619 210.066 24.1612 210.151L28.3402 210.149C28.4144 210.149 28.4771 210.212 28.4803 210.289C28.4803 210.29 28.4804 210.291 28.4804 210.292L28.4926 210.969C28.8162 211.336 29.1018 211.575 29.3493 211.687C29.5541 211.78 29.8713 211.823 30.3009 211.816C30.4491 211.814 30.5762 211.937 30.5846 212.091C30.585 212.098 30.5851 212.104 30.585 212.11Z" fill="#E4E4E4"/>
<path fill-rule="evenodd" clip-rule="evenodd" d="M32.6847 211.412L29.9629 209.066C32.889 205.573 36.2783 201.806 40.1307 197.765C43.9831 193.723 47.9145 189.92 51.9249 186.355L60.6392 190.302C55.9111 194.968 51.2358 199.036 46.6131 202.506C41.9904 205.975 37.3476 208.944 32.6847 211.412Z" fill="#DB2721"/>
<path fill-rule="evenodd" clip-rule="evenodd" d="M58.9101 192.761C55.112 197.118 50.6717 203.2 50.6122 203.485C50.5726 203.675 52.2961 207.972 55.7828 216.377L54.4748 216.948C49.0257 207.964 46.4172 203.019 46.6493 202.113C46.9974 200.754 51.2739 191.923 54.4974 187.242L58.9101 192.761Z" fill="#B28B67"/>
<path fill-rule="evenodd" clip-rule="evenodd" d="M55.3549 214.398L53.027 215.245C47.5306 208.974 44.8692 204.61 45.0427 202.151C45.2162 199.693 48.7743 194.404 55.717 186.286L61.4613 193.989C55.5107 200.281 52.445 203.605 52.2644 203.962C52.0837 204.319 53.1139 207.797 55.3549 214.398Z" fill="#FF4133"/>
<path fill-rule="evenodd" clip-rule="evenodd" d="M55.7588 214.74C56.2095 214.844 56.5245 214.957 56.7038 215.078C56.9182 215.223 57.2087 215.47 57.5751 215.821C57.4191 216.076 56.0167 218.368 53.3679 222.697C52.6825 222.487 52.4346 222.174 52.6242 221.758C52.8138 221.342 52.968 220.994 53.0868 220.715L53.6546 216.57C53.6646 216.497 53.7306 216.447 53.8018 216.46C53.8029 216.46 53.8039 216.46 53.8049 216.46L54.4272 216.585C54.8074 216.338 55.0657 216.103 55.202 215.88C55.3149 215.695 55.3975 215.39 55.45 214.962C55.4681 214.815 55.5985 214.714 55.7413 214.736C55.7472 214.737 55.753 214.739 55.7588 214.74Z" fill="#E4E4E4"/>
<path fill-rule="evenodd" clip-rule="evenodd" d="M45.1758 183.582L39.4368 182.412C38.2868 181.684 37.2295 181.173 36.2648 180.88C35.9936 180.854 35.5626 180.928 36.2076 181.518C36.8525 182.109 37.5071 182.758 37.3938 183.044C37.2805 183.329 36.6824 183.182 36.5852 183.626C36.5204 183.922 37.4906 184.034 39.4958 183.959L44.1576 186.149L45.1758 183.582Z" fill="#997659"/>
<path fill-rule="evenodd" clip-rule="evenodd" d="M54.4848 175.283L52.0077 175.289C51.4312 180.904 48.1282 184.256 40.678 182.557L39.7327 189.774C46.6948 191.153 52.7787 188.702 53.9829 181.062C54.2946 179.084 54.5378 177.021 54.4848 175.283Z" fill="#AFB9C5"/>
<path fill-rule="evenodd" clip-rule="evenodd" d="M63.5583 185.904C66.0169 193.592 67.3867 197.738 67.6678 198.341C67.8739 198.783 69.4 200.18 70.4591 200.99C70.8842 201.315 70.7081 201.687 70.5474 201.779C69.2409 202.528 68.3812 201.498 67.2508 200.89C66.0123 200.224 66.1163 201.901 65.1346 201.391C65.4363 200.715 66.1417 199.466 65.8089 198.599C65.661 198.213 63.8599 193.922 60.4056 185.726L63.5583 185.904Z" fill="#B28B67"/>
<path fill-rule="evenodd" clip-rule="evenodd" d="M60.4486 191.445L49.0901 190.717C50.1206 185.944 52.1503 181.874 52.1242 175.289L55.8656 174.65C58.5752 179.073 59.889 184.389 60.4486 191.445Z" fill="#C5CFD6"/>
<path fill-rule="evenodd" clip-rule="evenodd" d="M60.5173 191.363L57.2282 191.156C58.0021 188.008 57.9731 182.799 57.1411 175.531C59.516 179.89 60.032 184.377 60.5173 191.363Z" fill="black" fill-opacity="0.1"/>
<path fill-rule="evenodd" clip-rule="evenodd" d="M56.261 174.648C61.7807 180.097 65.4118 187.532 67.1542 196.954L59.6188 196.473C59.3876 188.618 58.3339 181.631 55.3102 175.437L56.017 174.633L56.261 174.648Z" fill="#C5CFD6"/>
</svg>
