<svg width="129" height="279" viewBox="0 0 129 279" fill="none" xmlns="http://www.w3.org/2000/svg">
<path opacity="0.87" d="M33.5422 254.381H35.6386C45.1275 254.381 53.1452 253.167 59.6919 250.74C66.312 248.313 71.6449 244.892 75.6906 240.479C79.8098 235.992 82.7889 230.659 84.6278 224.48C86.5403 218.228 87.4966 211.313 87.4966 203.737V174.608C87.4966 168.429 86.8713 163.023 85.6209 158.389C84.3704 153.681 82.605 149.746 80.3247 146.583C78.118 143.42 75.5067 141.066 72.4909 139.521C69.475 137.903 66.2385 137.094 62.7813 137.094C58.9563 137.094 55.5726 137.976 52.6303 139.742C49.688 141.507 47.1871 143.935 45.1275 147.024C43.1414 150.04 41.5967 153.534 40.4934 157.506C39.4636 161.478 38.9487 165.671 38.9487 170.084C38.9487 174.351 39.4268 178.433 40.383 182.332C41.4128 186.23 42.9208 189.687 44.9068 192.703C46.9664 195.719 49.5409 198.11 52.6303 199.875C55.7198 201.567 59.3241 202.413 63.4433 202.413C67.3418 202.413 70.8726 201.677 74.0356 200.206C77.2721 198.661 80.0673 196.639 82.4211 194.138C84.7749 191.563 86.5771 188.731 87.8276 185.642C89.1516 182.479 89.8872 179.279 90.0343 176.042L100.296 180.456C100.296 185.826 99.1554 191.122 96.8751 196.344C94.6684 201.567 91.5422 206.311 87.4966 210.578C83.5245 214.77 78.8904 218.154 73.5942 220.729C68.2981 223.23 62.5974 224.48 56.4921 224.48C48.9157 224.48 42.222 223.082 36.4109 220.287C30.5999 217.492 25.7083 213.63 21.7362 208.702C17.8377 203.7 14.8954 197.963 12.9093 191.489C10.9233 184.943 9.93025 177.955 9.93025 170.526C9.93025 162.802 11.144 155.557 13.5713 148.789C15.9987 141.949 19.4927 135.954 24.0533 130.805C28.6874 125.582 34.2778 121.5 40.8244 118.557C47.371 115.541 54.7267 114.033 62.8916 114.033C71.3507 114.033 78.8904 115.689 85.5105 118.999C92.1307 122.309 97.7578 126.906 102.392 132.791C107.026 138.602 110.557 145.479 112.984 153.424C115.485 161.368 116.736 170.047 116.736 179.463V189.724C116.736 199.654 115.743 209.07 113.757 217.97C111.771 226.871 108.718 234.999 104.599 242.354C100.479 249.71 95.2201 256.073 88.8206 261.443C82.4947 266.812 74.9182 270.968 66.0914 273.911C57.338 276.779 47.3342 278.214 36.0799 278.214H33.5422V254.381Z" fill="#080680"/>
<path fill-rule="evenodd" clip-rule="evenodd" d="M55.799 179.264L55.4334 172.105L54.4124 171.876L52.4296 178.506L55.799 179.264Z" fill="#B28B67"/>
<path fill-rule="evenodd" clip-rule="evenodd" d="M51.2665 174.755C52.2815 175.276 56.6686 174.03 56.9346 170.85C57.2006 167.669 52.8865 167.408 51.8264 168.805C50.7663 170.201 50.2515 174.233 51.2665 174.755Z" fill="#B28B67"/>
<path fill-rule="evenodd" clip-rule="evenodd" d="M55.6513 174.269C56.3791 172.4 57.8014 171.335 57.7497 170.415C57.7153 169.802 57.4405 169.363 56.9255 169.099C56.8253 167.875 56.0053 167.18 54.4655 167.012C52.1557 166.76 50.6213 167.421 50.8919 169.7C51.4419 169.824 52.1373 169.769 53.0016 170.328C53.2758 170.505 53.4312 170.899 53.4677 171.509L53.8826 171.602C54.3908 171.003 54.8266 170.839 55.19 171.11C55.5535 171.381 55.5745 171.846 55.2532 172.503L55.21 174.17L55.6513 174.269Z" fill="#101030"/>
<path fill-rule="evenodd" clip-rule="evenodd" d="M58.9268 190.23L42.592 202.594L29.7287 213.477L28.1317 212.752L52.4485 187.287L58.9268 190.23Z" fill="#997659"/>
<path fill-rule="evenodd" clip-rule="evenodd" d="M30.5852 212.877C30.58 213.371 30.5376 213.722 30.4579 213.93C30.3626 214.179 30.1829 214.524 29.9187 214.964C29.6355 214.836 27.0898 213.68 22.2818 211.497C22.3393 210.739 22.5921 210.43 23.0401 210.571C23.4881 210.711 23.8618 210.824 24.161 210.91L28.34 210.909C28.4142 210.909 28.4769 210.971 28.4801 211.049C28.4801 211.05 28.4801 211.051 28.4802 211.052L28.4925 211.731C28.8163 212.099 29.1019 212.339 29.3494 212.452C29.5542 212.545 29.8714 212.588 30.301 212.581C30.4493 212.579 30.5763 212.703 30.5848 212.858C30.5851 212.864 30.5853 212.871 30.5852 212.877Z" fill="#E4E4E4"/>
<path fill-rule="evenodd" clip-rule="evenodd" d="M32.6856 212.171L29.9627 209.816C32.8884 206.312 36.2772 202.532 40.1292 198.478C43.9812 194.423 47.9123 190.607 51.9224 187.031L60.6392 190.994C55.9116 195.675 51.2365 199.756 46.614 203.237C41.9914 206.718 37.3486 209.696 32.6856 212.171Z" fill="#DB2721"/>
<path fill-rule="evenodd" clip-rule="evenodd" d="M58.9074 193.458C55.1106 197.83 50.6722 203.933 50.6128 204.219C50.5732 204.409 52.2978 208.722 55.7865 217.158L54.4787 217.731C49.0276 208.714 46.4179 203.75 46.6497 202.841C46.9974 201.477 51.2713 192.616 54.4935 187.918L58.9074 193.458Z" fill="#B28B67"/>
<path fill-rule="evenodd" clip-rule="evenodd" d="M55.3583 215.172L53.0308 216.022C47.533 209.727 44.8706 205.346 45.0435 202.879C45.2164 200.411 48.7729 195.104 55.713 186.958L61.459 194.691C55.5104 201.004 52.4458 204.34 52.2652 204.698C52.0847 205.056 53.1157 208.547 55.3583 215.172Z" fill="#FF4133"/>
<path fill-rule="evenodd" clip-rule="evenodd" d="M55.7582 215.515C56.209 215.62 56.5241 215.734 56.7035 215.855C56.9179 216 57.2085 216.249 57.5752 216.601C57.4191 216.857 56.017 219.157 53.3688 223.501C52.6832 223.29 52.4352 222.976 52.6248 222.559C52.8143 222.141 52.9685 221.792 53.0872 221.512L53.6539 217.352C53.664 217.278 53.7299 217.228 53.8012 217.241C53.8022 217.241 53.8033 217.241 53.8043 217.241L54.4268 217.366C54.807 217.119 55.0653 216.883 55.2016 216.659C55.3144 216.474 55.397 216.167 55.4493 215.738C55.4674 215.59 55.5978 215.489 55.7407 215.512C55.7465 215.513 55.7524 215.514 55.7582 215.515Z" fill="#E4E4E4"/>
<path fill-rule="evenodd" clip-rule="evenodd" d="M45.1744 184.246L39.4361 183.07C38.286 182.34 37.2287 181.828 36.2641 181.533C35.993 181.507 35.5621 181.581 36.2071 182.173C36.8521 182.766 37.5067 183.417 37.3935 183.704C37.2803 183.99 36.6822 183.842 36.5852 184.288C36.5206 184.585 37.4906 184.697 39.4955 184.623L44.1571 186.821L45.1744 184.246Z" fill="#997659"/>
<path fill-rule="evenodd" clip-rule="evenodd" d="M54.4809 175.916L52.0044 175.921C51.4296 181.557 48.1283 184.922 40.6793 183.214L39.7362 190.459C46.6971 191.845 52.7789 189.387 53.9807 181.717C54.2918 179.732 54.5343 177.66 54.4809 175.916Z" fill="#AFB9C5"/>
<path fill-rule="evenodd" clip-rule="evenodd" d="M63.5552 186.575C66.0164 194.291 67.3876 198.452 67.6689 199.057C67.8752 199.501 69.4019 200.903 70.4614 201.715C70.8867 202.042 70.7107 202.415 70.55 202.508C69.2435 203.259 68.3833 202.225 67.2525 201.615C66.0136 200.946 66.1182 202.629 65.1361 202.117C65.4377 201.439 66.1429 200.186 65.8097 199.315C65.6617 198.928 63.8591 194.622 60.4019 186.397L63.5552 186.575Z" fill="#B28B67"/>
<path fill-rule="evenodd" clip-rule="evenodd" d="M60.4482 192.136L49.0943 191.403C50.123 186.613 52.1507 182.53 52.1229 175.923L55.8626 175.282C58.5722 179.721 59.887 185.056 60.4482 192.136Z" fill="#C5CFD6"/>
<path fill-rule="evenodd" clip-rule="evenodd" d="M60.5167 192.054L57.2318 191.845C58.0038 188.686 57.9734 183.459 57.1405 176.164C59.5135 180.54 60.03 185.043 60.5167 192.054Z" fill="black" fill-opacity="0.1"/>
<path fill-rule="evenodd" clip-rule="evenodd" d="M56.2601 175.279C61.7784 180.748 65.4097 188.21 67.1538 197.665L59.6222 197.18C59.3889 189.298 58.3338 182.286 55.31 176.07L56.0162 175.263L56.2601 175.279Z" fill="#C5CFD6"/>
</svg>
