<svg width="43" height="34" viewBox="0 0 43 34" fill="none" xmlns="http://www.w3.org/2000/svg">
<path fill-rule="evenodd" clip-rule="evenodd" d="M26.585 26.3703L36.709 30.7719C39.2187 30.8715 41.3715 31.2145 43.1675 31.8009C43.6169 32.0561 44.22 32.6424 42.635 32.8757C41.0499 33.109 39.3923 33.4253 39.2911 34.002C39.19 34.5788 40.27 34.9971 39.9888 35.808C39.8014 36.3486 38.1744 35.467 35.1078 33.163L25.6758 31.5537L26.585 26.3703Z" fill="#997659"/>
<path fill-rule="evenodd" clip-rule="evenodd" d="M12.4598 1.09185L16.896 2.78306C14.809 13.2074 18.8653 21.4399 33.1618 23.4582L30.8453 36.9962C17.6016 34.7364 8.06001 26.2294 10.1478 11.7592C10.6883 8.01327 11.3994 4.16053 12.4598 1.09185Z" fill="#AFB9C5"/>
</svg>
