<svg width="98" height="106" viewBox="0 0 98 106" fill="none" xmlns="http://www.w3.org/2000/svg">
<rect x="47.9414" width="15" height="68" rx="7.5" transform="rotate(44.831 47.9414 0)" fill="white"/>
<rect x="47.9414" width="15" height="68" rx="7.5" transform="rotate(44.831 47.9414 0)" fill="white"/>
<rect x="47.9414" width="15" height="68" rx="7.5" transform="rotate(44.831 47.9414 0)" fill="#4A4A4A"/>
<rect x="97.3477" y="47.2202" width="15" height="68" rx="7.5" transform="rotate(133.981 97.3477 47.2202)" fill="#4A4A4A"/>
<rect x="97.3477" y="47.2202" width="15" height="68" rx="7.5" transform="rotate(133.981 97.3477 47.2202)" fill="#4A4A4A"/>
<rect x="97.3477" y="47.2202" width="15" height="68" rx="7.5" transform="rotate(133.981 97.3477 47.2202)" fill="#4A4A4A"/>
<rect x="56.3262" y="104.999" width="15" height="68" rx="7.5" transform="rotate(179.725 56.3262 104.999)" fill="#4A4A4A"/>
<rect x="56.3262" y="104.999" width="15" height="68" rx="7.5" transform="rotate(179.725 56.3262 104.999)" fill="#4A4A4A"/>
<rect x="56.3262" y="104.999" width="15" height="68" rx="7.5" transform="rotate(179.725 56.3262 104.999)" fill="#4A4A4A"/>
</svg>
