<svg width="112" height="126" viewBox="0 0 112 126" fill="none" xmlns="http://www.w3.org/2000/svg">
<path fill-rule="evenodd" clip-rule="evenodd" d="M64.1094 42.5356L67.3958 82.3418L68.4004 115.136L71.3932 116.585L76.2495 48.4157L64.1094 42.5356Z" fill="#997659"/>
<path fill-rule="evenodd" clip-rule="evenodd" d="M68.2988 39.6697L60.2885 78.7998L52.0549 110.559L54.5209 112.79L78.3024 48.7187L68.2988 39.6697Z" fill="#997659"/>
<path fill-rule="evenodd" clip-rule="evenodd" d="M68.3349 113.042C67.6715 113.659 67.2476 114.154 67.0634 114.526C66.8431 114.972 66.5967 115.658 66.3241 116.586C66.8465 116.839 71.5413 119.114 80.4085 123.41C81.3665 122.39 81.4747 121.641 80.7334 121.164C79.992 120.686 79.3795 120.283 78.896 119.953L73.7628 113.876C73.6716 113.769 73.5094 113.755 73.4004 113.846C73.3988 113.847 73.3973 113.849 73.3958 113.85L72.4596 114.67C71.563 114.653 70.8865 114.535 70.4301 114.313C70.0523 114.13 69.604 113.723 69.0851 113.09C68.906 112.872 68.5819 112.84 68.3613 113.019C68.3523 113.026 68.3435 113.034 68.3349 113.042Z" fill="#E4E4E4"/>
<path fill-rule="evenodd" clip-rule="evenodd" d="M66.5945 109.095L73.2273 110.154C74.4187 101.406 75.4131 91.6253 76.2106 80.8127C77.0081 70.0002 77.3778 59.3722 77.3198 48.9286L61.0137 41.0314C60.4417 53.9294 60.6318 65.9927 61.5839 77.2213C62.5361 88.4499 64.2063 99.0745 66.5945 109.095Z" fill="#0D2C1B"/>
<path fill-rule="evenodd" clip-rule="evenodd" d="M51.5521 108.056L57.8862 110.29C60.6319 101.899 63.3695 92.4574 66.0992 81.9647C68.8288 71.4721 71.1044 61.0839 72.926 50.8003L58.3066 40.0985C55.4237 52.6832 53.4405 64.5839 52.3572 75.8006C51.2739 87.0173 51.0055 97.769 51.5521 108.056Z" fill="#0D2C1B"/>
<path fill-rule="evenodd" clip-rule="evenodd" d="M51.0897 110.54C50.5013 111.219 50.1359 111.752 49.9935 112.141C49.8234 112.606 49.6528 113.314 49.4818 114.264C50.0227 114.465 54.8841 116.278 64.0659 119.703C64.902 118.595 64.9301 117.839 64.15 117.434C63.3699 117.03 62.7245 116.687 62.2138 116.406L56.5217 110.848C56.4207 110.75 56.2595 110.752 56.1617 110.853C56.1603 110.854 56.159 110.856 56.1576 110.857L55.3219 111.764C54.4373 111.834 53.7587 111.781 53.2861 111.605C52.895 111.459 52.4107 111.096 51.8334 110.516C51.6341 110.316 51.3117 110.315 51.1133 110.515C51.1052 110.523 51.0973 110.531 51.0897 110.54Z" fill="#E4E4E4"/>
<path fill-rule="evenodd" clip-rule="evenodd" d="M54.6064 37.4843C47.4556 50.5908 43.5172 57.6386 42.7912 58.6279C42.2589 59.3533 38.9389 61.2665 36.688 62.2991C35.7846 62.7136 35.9908 63.4767 36.2609 63.7162C38.4585 65.664 40.4093 64.1379 42.727 63.5075C45.2662 62.817 44.5155 65.8634 46.5225 65.349C46.1816 63.9724 45.2749 61.3644 46.1857 59.9092C46.5904 59.2624 51.3842 52.1346 60.567 38.5256L54.6064 37.4843Z" fill="#B28B67"/>
<path fill-rule="evenodd" clip-rule="evenodd" d="M59.3391 49.699L81.0721 51.7116C79.9887 42.4816 76.8759 34.2709 78.1337 21.97L71.1362 19.6641C65.172 27.128 61.6979 36.6759 59.3391 49.699Z" fill="#C5CFD6"/>
<path fill-rule="evenodd" clip-rule="evenodd" d="M58.2633 48.6823L64.5467 49.7526C64.1237 43.5408 65.8982 33.8437 69.8701 20.6611C63.9431 27.738 61.4868 35.8739 58.2633 48.6823Z" fill="black" fill-opacity="0.1"/>
<path fill-rule="evenodd" clip-rule="evenodd" d="M71.8388 19.5682C59.699 27.2295 50.4562 39.4072 44.1103 56.1011L58.413 58.5357C61.4105 44.0798 65.669 31.5938 73.3666 21.4487L72.302 19.647L71.8388 19.5682Z" fill="#C5CFD6"/>
</svg>
