<svg width="203" height="191" viewBox="0 0 203 191" fill="none" xmlns="http://www.w3.org/2000/svg">
<path d="M60.8362 90.4106C52.1798 119.085 40.1553 129.92 40.1553 129.92L152.293 119.313C154.519 119.102 155.377 116.304 153.652 114.881L66.4178 42.9244C66.4178 42.9244 69.4926 61.736 60.8362 90.4106Z" fill="url(#paint0_linear_256_6826)"/>
<g style="mix-blend-mode:screen" opacity="0.2">
<path fill-rule="evenodd" clip-rule="evenodd" d="M40.867 129.216C43.571 126.405 53.4353 114.929 60.837 90.4108C68.034 66.5706 67.122 49.5481 66.6098 44.4859C67.0127 44.2659 67.4004 44.1162 67.7712 44.0404L71.2166 46.8824C73.421 53.5536 71.2416 70.9197 65.348 90.4423C59.7346 109.037 52.3969 124.138 46.9358 129.279L41.2033 129.821C41.0843 129.637 40.9722 129.435 40.867 129.216Z" fill="url(#paint1_linear_256_6826)"/>
</g>
<defs>
<linearGradient id="paint0_linear_256_6826" x1="81.3491" y1="121.154" x2="95.3677" y2="75.5153" gradientUnits="userSpaceOnUse">
<stop stop-color="#D2D0FE"/>
<stop offset="0.472975" stop-color="#E7E9FF"/>
<stop offset="1" stop-color="#D2D0FE"/>
</linearGradient>
<linearGradient id="paint1_linear_256_6826" x1="52.8074" y1="111.242" x2="69.0661" y2="47.22" gradientUnits="userSpaceOnUse">
<stop stop-color="white"/>
<stop offset="1" stop-color="#C7C7C7"/>
</linearGradient>
</defs>
</svg>
