<svg width="210" height="204" viewBox="0 0 210 204" fill="none" xmlns="http://www.w3.org/2000/svg">
<rect width="210" height="204" rx="102" fill="white"/>
<path d="M104.643 52.7007C91.9263 53.1586 88.1735 64.375 88.1321 69.5091C86.3472 55.5863 76.3811 52.5023 71.6211 52.7007C71.4512 39.6907 82.1592 35.9495 87.6859 36.1897C101.564 35.9583 104.94 46.9955 104.643 52.7007Z" fill="#888888"/>
<path d="M104.346 118.744C91.6294 119.202 87.8766 130.419 87.8352 135.553C86.0503 121.63 76.0842 118.546 71.3243 118.744C71.1543 105.734 81.8623 101.993 87.389 102.233C101.267 102.002 104.644 113.039 104.346 118.744Z" fill="#888888"/>
<path d="M71.3208 85.7226C58.6041 86.1806 54.8512 97.3969 54.8099 102.531C53.0249 88.6083 43.0588 85.5243 38.2989 85.7226C38.129 72.7127 48.837 68.9715 54.3636 69.2116C68.2418 68.9803 71.6181 80.0174 71.3208 85.7226Z" fill="#888888"/>
<path d="M71.3208 151.766C58.6041 152.224 54.8512 163.441 54.8099 168.575C53.0249 154.652 43.0588 151.568 38.2989 151.766C38.129 138.756 48.837 135.015 54.3636 135.255C68.2418 135.024 71.6181 146.061 71.3208 151.766Z" fill="#888888"/>
<path d="M170.983 52.7007C158.266 53.1586 154.513 64.375 154.472 69.5091C152.687 55.5863 142.721 52.5023 137.961 52.7007C137.791 39.6907 148.499 35.9495 154.026 36.1897C167.904 35.9583 171.28 46.9955 170.983 52.7007Z" fill="#888888"/>
<path d="M170.983 118.744C158.266 119.202 154.513 130.419 154.472 135.553C152.687 121.63 142.721 118.546 137.961 118.744C137.791 105.734 148.499 101.993 154.026 102.233C167.904 102.002 171.28 113.039 170.983 118.744Z" fill="#888888"/>
<path d="M137.661 85.7226C124.944 86.1806 121.191 97.3969 121.15 102.531C119.365 88.6083 109.399 85.5243 104.639 85.7226C104.469 72.7127 115.177 68.9715 120.703 69.2116C134.582 68.9803 137.958 80.0174 137.661 85.7226Z" fill="#888888"/>
<path d="M137.661 151.766C124.944 152.224 121.191 163.441 121.15 168.575C119.365 154.652 109.399 151.568 104.639 151.766C104.469 138.756 115.177 135.015 120.703 135.255C134.582 135.024 137.958 146.061 137.661 151.766Z" fill="#888888"/>
<path d="M104.657 52.5481C117.481 52.0862 121.265 40.7733 121.307 35.5949C123.107 49.6375 133.157 52.7481 137.957 52.5481C138.128 65.6699 127.33 69.4433 121.757 69.2011C107.762 69.4345 104.357 58.3023 104.657 52.5481Z" fill="#888888"/>
<path d="M104.36 118.592C117.184 118.13 120.969 106.817 121.01 101.639C122.81 115.682 132.86 118.792 137.66 118.592C137.831 131.714 127.033 135.488 121.46 135.245C107.465 135.479 104.061 124.347 104.36 118.592Z" fill="#888888"/>
<path d="M71.335 85.5703C84.1588 85.1084 87.9432 73.7955 87.9849 68.6172C89.7848 82.6598 99.8347 85.7703 104.635 85.5703C104.806 98.6921 94.008 102.466 88.4349 102.223C74.44 102.457 71.0352 91.3246 71.335 85.5703Z" fill="#888888"/>
<path d="M71.335 151.614C84.1588 151.152 87.9432 139.839 87.9849 134.661C89.7848 148.704 99.8347 151.814 104.635 151.614C104.806 164.736 94.008 168.509 88.4349 168.267C74.44 168.501 71.0352 157.369 71.335 151.614Z" fill="#888888"/>
<path d="M38.0186 51.9531C50.8423 51.4912 54.6268 40.1783 54.6684 35C56.4684 49.0426 66.5183 52.1531 71.3183 51.9531C71.4896 65.075 60.6916 68.8483 55.1184 68.6061C41.1235 68.8395 37.7188 57.7074 38.0186 51.9531Z" fill="#888888"/>
<path d="M38.0186 118.592C50.8423 118.13 54.6268 106.817 54.6684 101.639C56.4684 115.682 66.5183 118.792 71.3183 118.592C71.4896 131.714 60.6916 135.488 55.1184 135.245C41.1235 135.479 37.7188 124.347 38.0186 118.592Z" fill="#888888"/>
<path d="M137.675 85.5703C150.499 85.1084 154.283 73.7955 154.325 68.6172C156.125 82.6598 166.175 85.7703 170.975 85.5703C171.146 98.6921 160.348 102.466 154.775 102.223C140.78 102.457 137.375 91.3246 137.675 85.5703Z" fill="#888888"/>
<path d="M137.675 151.614C150.499 151.152 154.283 139.839 154.325 134.661C156.125 148.704 166.175 151.814 170.975 151.614C171.146 164.736 160.348 168.509 154.775 168.267C140.78 168.501 137.375 157.369 137.675 151.614Z" fill="#888888"/>
<circle cx="105.5" cy="101.5" r="43.5" fill="#D2D0FE"/>
<path d="M139.113 90.641C137.647 86.1116 133.066 84.4311 128.564 85.9022C125.501 86.9033 115.538 91.6297 109.935 95.9762C112.292 89.2634 113.669 78.3601 113.669 75.1349C113.669 70.3716 110.666 66.5098 105.931 66.5098C101.196 66.5098 98.1915 70.3716 98.1915 75.1349C98.1915 78.3333 99.5479 89.0876 101.871 95.8122C96.2312 91.5122 86.48 86.8925 83.4556 85.9048C78.9509 84.4328 74.3709 86.1112 72.9073 90.6416C71.4437 95.1721 74.1679 99.2392 78.6726 100.71C81.7822 101.727 92.8819 103.842 99.9454 103.567C94.066 107.513 86.3034 115.804 84.3786 118.466C81.5941 122.323 81.7668 127.22 85.5994 130.022C89.4318 132.823 94.1177 131.472 96.9027 127.619C98.7715 125.033 103.96 115.53 106.01 108.717C108.059 115.53 113.249 125.031 115.117 127.619C117.901 131.474 122.589 132.821 126.42 130.022C130.251 127.223 130.424 122.321 127.639 118.466C125.717 115.804 117.954 107.513 112.074 103.567C119.14 103.842 130.239 101.727 133.346 100.713C137.85 99.2384 140.576 95.1724 139.112 90.642L139.113 90.641Z" fill="#F67D7D"/>
</svg>
