<svg width="657" height="236" viewBox="0 0 657 236" fill="none" xmlns="http://www.w3.org/2000/svg">
<path opacity="0.87" d="M76.6602 44.4219V187H50.7812V74.5977L16.5039 85.9258V65.0273L73.7305 44.4219H76.6602ZM208.652 103.699V127.625C208.652 138.562 207.546 147.905 205.332 155.652C203.118 163.4 199.928 169.747 195.762 174.695C191.595 179.578 186.615 183.191 180.82 185.535C175.026 187.814 168.581 188.953 161.484 188.953C155.82 188.953 150.547 188.237 145.664 186.805C140.781 185.307 136.387 183.029 132.48 179.969C128.639 176.844 125.319 172.872 122.52 168.055C119.785 163.237 117.669 157.475 116.172 150.77C114.74 144.064 114.023 136.349 114.023 127.625V103.699C114.023 92.7617 115.13 83.4518 117.344 75.7695C119.622 68.0872 122.845 61.8047 127.012 56.9219C131.178 52.0391 136.159 48.4909 141.953 46.2773C147.747 43.9987 154.193 42.8594 161.289 42.8594C167.018 42.8594 172.292 43.5755 177.109 45.0078C181.992 46.4401 186.354 48.6862 190.195 51.7461C194.102 54.7409 197.422 58.6471 200.156 63.4648C202.891 68.2174 204.974 73.9466 206.406 80.6523C207.904 87.293 208.652 94.9753 208.652 103.699ZM182.871 131.141V100.086C182.871 94.6172 182.546 89.8646 181.895 85.8281C181.309 81.7266 180.43 78.2435 179.258 75.3789C178.086 72.5143 176.621 70.2031 174.863 68.4453C173.105 66.6224 171.087 65.2878 168.809 64.4414C166.53 63.5951 164.023 63.1719 161.289 63.1719C157.904 63.1719 154.876 63.8555 152.207 65.2227C149.538 66.5247 147.292 68.6081 145.469 71.4727C143.646 74.3372 142.246 78.1458 141.27 82.8984C140.358 87.5859 139.902 93.3151 139.902 100.086V131.141C139.902 136.609 140.195 141.395 140.781 145.496C141.432 149.598 142.344 153.113 143.516 156.043C144.753 158.973 146.217 161.382 147.91 163.27C149.668 165.092 151.686 166.46 153.965 167.371C156.243 168.217 158.75 168.641 161.484 168.641C164.935 168.641 167.962 167.957 170.566 166.59C173.236 165.223 175.482 163.074 177.305 160.145C179.128 157.15 180.495 153.276 181.406 148.523C182.383 143.706 182.871 137.911 182.871 131.141ZM312.91 103.699V127.625C312.91 138.562 311.803 147.905 309.59 155.652C307.376 163.4 304.186 169.747 300.02 174.695C295.853 179.578 290.872 183.191 285.078 185.535C279.284 187.814 272.839 188.953 265.742 188.953C260.078 188.953 254.805 188.237 249.922 186.805C245.039 185.307 240.645 183.029 236.738 179.969C232.897 176.844 229.577 172.872 226.777 168.055C224.043 163.237 221.927 157.475 220.43 150.77C218.997 144.064 218.281 136.349 218.281 127.625V103.699C218.281 92.7617 219.388 83.4518 221.602 75.7695C223.88 68.0872 227.103 61.8047 231.27 56.9219C235.436 52.0391 240.417 48.4909 246.211 46.2773C252.005 43.9987 258.451 42.8594 265.547 42.8594C271.276 42.8594 276.549 43.5755 281.367 45.0078C286.25 46.4401 290.612 48.6862 294.453 51.7461C298.359 54.7409 301.68 58.6471 304.414 63.4648C307.148 68.2174 309.232 73.9466 310.664 80.6523C312.161 87.293 312.91 94.9753 312.91 103.699ZM287.129 131.141V100.086C287.129 94.6172 286.803 89.8646 286.152 85.8281C285.566 81.7266 284.688 78.2435 283.516 75.3789C282.344 72.5143 280.879 70.2031 279.121 68.4453C277.363 66.6224 275.345 65.2878 273.066 64.4414C270.788 63.5951 268.281 63.1719 265.547 63.1719C262.161 63.1719 259.134 63.8555 256.465 65.2227C253.796 66.5247 251.549 68.6081 249.727 71.4727C247.904 74.3372 246.504 78.1458 245.527 82.8984C244.616 87.5859 244.16 93.3151 244.16 100.086V131.141C244.16 136.609 244.453 141.395 245.039 145.496C245.69 149.598 246.602 153.113 247.773 156.043C249.01 158.973 250.475 161.382 252.168 163.27C253.926 165.092 255.944 166.46 258.223 167.371C260.501 168.217 263.008 168.641 265.742 168.641C269.193 168.641 272.22 167.957 274.824 166.59C277.493 165.223 279.74 163.074 281.562 160.145C283.385 157.15 284.753 153.276 285.664 148.523C286.641 143.706 287.129 137.911 287.129 131.141ZM417.168 103.699V127.625C417.168 138.562 416.061 147.905 413.848 155.652C411.634 163.4 408.444 169.747 404.277 174.695C400.111 179.578 395.13 183.191 389.336 185.535C383.542 187.814 377.096 188.953 370 188.953C364.336 188.953 359.062 188.237 354.18 186.805C349.297 185.307 344.902 183.029 340.996 179.969C337.155 176.844 333.835 172.872 331.035 168.055C328.301 163.237 326.185 157.475 324.688 150.77C323.255 144.064 322.539 136.349 322.539 127.625V103.699C322.539 92.7617 323.646 83.4518 325.859 75.7695C328.138 68.0872 331.361 61.8047 335.527 56.9219C339.694 52.0391 344.674 48.4909 350.469 46.2773C356.263 43.9987 362.708 42.8594 369.805 42.8594C375.534 42.8594 380.807 43.5755 385.625 45.0078C390.508 46.4401 394.87 48.6862 398.711 51.7461C402.617 54.7409 405.938 58.6471 408.672 63.4648C411.406 68.2174 413.49 73.9466 414.922 80.6523C416.419 87.293 417.168 94.9753 417.168 103.699ZM391.387 131.141V100.086C391.387 94.6172 391.061 89.8646 390.41 85.8281C389.824 81.7266 388.945 78.2435 387.773 75.3789C386.602 72.5143 385.137 70.2031 383.379 68.4453C381.621 66.6224 379.603 65.2878 377.324 64.4414C375.046 63.5951 372.539 63.1719 369.805 63.1719C366.419 63.1719 363.392 63.8555 360.723 65.2227C358.053 66.5247 355.807 68.6081 353.984 71.4727C352.161 74.3372 350.762 78.1458 349.785 82.8984C348.874 87.5859 348.418 93.3151 348.418 100.086V131.141C348.418 136.609 348.711 141.395 349.297 145.496C349.948 149.598 350.859 153.113 352.031 156.043C353.268 158.973 354.733 161.382 356.426 163.27C358.184 165.092 360.202 166.46 362.48 167.371C364.759 168.217 367.266 168.641 370 168.641C373.451 168.641 376.478 167.957 379.082 166.59C381.751 165.223 383.997 163.074 385.82 160.145C387.643 157.15 389.01 153.276 389.922 148.523C390.898 143.706 391.387 137.911 391.387 131.141ZM521.426 103.699V127.625C521.426 138.562 520.319 147.905 518.105 155.652C515.892 163.4 512.702 169.747 508.535 174.695C504.368 179.578 499.388 183.191 493.594 185.535C487.799 187.814 481.354 188.953 474.258 188.953C468.594 188.953 463.32 188.237 458.438 186.805C453.555 185.307 449.16 183.029 445.254 179.969C441.413 176.844 438.092 172.872 435.293 168.055C432.559 163.237 430.443 157.475 428.945 150.77C427.513 144.064 426.797 136.349 426.797 127.625V103.699C426.797 92.7617 427.904 83.4518 430.117 75.7695C432.396 68.0872 435.618 61.8047 439.785 56.9219C443.952 52.0391 448.932 48.4909 454.727 46.2773C460.521 43.9987 466.966 42.8594 474.062 42.8594C479.792 42.8594 485.065 43.5755 489.883 45.0078C494.766 46.4401 499.128 48.6862 502.969 51.7461C506.875 54.7409 510.195 58.6471 512.93 63.4648C515.664 68.2174 517.747 73.9466 519.18 80.6523C520.677 87.293 521.426 94.9753 521.426 103.699ZM495.645 131.141V100.086C495.645 94.6172 495.319 89.8646 494.668 85.8281C494.082 81.7266 493.203 78.2435 492.031 75.3789C490.859 72.5143 489.395 70.2031 487.637 68.4453C485.879 66.6224 483.861 65.2878 481.582 64.4414C479.303 63.5951 476.797 63.1719 474.062 63.1719C470.677 63.1719 467.65 63.8555 464.98 65.2227C462.311 66.5247 460.065 68.6081 458.242 71.4727C456.419 74.3372 455.02 78.1458 454.043 82.8984C453.132 87.5859 452.676 93.3151 452.676 100.086V131.141C452.676 136.609 452.969 141.395 453.555 145.496C454.206 149.598 455.117 153.113 456.289 156.043C457.526 158.973 458.991 161.382 460.684 163.27C462.441 165.092 464.46 166.46 466.738 167.371C469.017 168.217 471.523 168.641 474.258 168.641C477.708 168.641 480.736 167.957 483.34 166.59C486.009 165.223 488.255 163.074 490.078 160.145C491.901 157.15 493.268 153.276 494.18 148.523C495.156 143.706 495.645 137.911 495.645 131.141ZM624.707 108.387V131.336H527.246V108.387H624.707ZM588.379 69.2266V172.742H563.672V69.2266H588.379Z" fill="#080680"/>
<path fill-rule="evenodd" clip-rule="evenodd" d="M159.998 28.3652L159.374 21.2496L158.345 21.0583L156.604 27.7339L159.998 28.3652Z" fill="#B28B67"/>
<path fill-rule="evenodd" clip-rule="evenodd" d="M155.305 24.0409C156.338 24.523 160.677 23.1214 160.828 19.9444C160.978 16.7674 156.658 16.6657 155.65 18.095C154.641 19.5243 154.272 23.5588 155.305 24.0409Z" fill="#B28B67"/>
<path fill-rule="evenodd" clip-rule="evenodd" d="M159.669 23.3968C160.328 21.509 161.711 20.3962 161.626 19.4815C161.57 18.8718 161.279 18.445 160.755 18.2011C160.611 16.9863 159.766 16.3234 158.222 16.2126C155.905 16.0464 154.395 16.7618 154.748 19.0215C155.302 19.1248 155.995 19.0437 156.879 19.5691C157.159 19.7357 157.329 20.122 157.387 20.7278L157.805 20.8058C158.291 20.1905 158.721 20.0112 159.094 20.2679C159.467 20.5246 159.504 20.9862 159.207 21.6527L159.224 23.3138L159.669 23.3968Z" fill="#101030"/>
<path fill-rule="evenodd" clip-rule="evenodd" d="M163.523 39.1662L147.649 52.0784L135.19 63.388L133.568 62.724L156.944 36.4729L163.523 39.1662Z" fill="#997659"/>
<path fill-rule="evenodd" clip-rule="evenodd" d="M136.024 62.7542C136.036 63.2465 136.007 63.5977 135.934 63.8079C135.848 64.0592 135.681 64.4091 135.433 64.8575C135.145 64.7398 132.56 63.6824 127.676 61.6851C127.706 60.9274 127.947 60.6104 128.4 60.7341C128.853 60.8579 129.23 60.9568 129.533 61.0309L133.709 60.8761C133.783 60.8734 133.848 60.9336 133.854 61.0107C133.854 61.0118 133.854 61.0129 133.854 61.014L133.891 61.6901C134.228 62.0446 134.522 62.2733 134.773 62.3761C134.981 62.4612 135.3 62.4925 135.729 62.4702C135.877 62.4625 136.009 62.5812 136.023 62.7353C136.023 62.7416 136.024 62.7479 136.024 62.7542Z" fill="#E4E4E4"/>
<path fill-rule="evenodd" clip-rule="evenodd" d="M138.096 61.9793L135.291 59.7346C138.088 56.1373 141.337 52.249 145.039 48.0698C148.742 43.8905 152.532 39.9464 156.41 36.2373L165.262 39.8638C160.707 44.6991 156.184 48.9348 151.691 52.5708C147.198 56.2067 142.666 59.3429 138.096 61.9793Z" fill="#DB2721"/>
<path fill-rule="evenodd" clip-rule="evenodd" d="M163.624 42.3842C159.987 46.8768 155.772 53.1169 155.723 53.4036C155.69 53.5947 157.569 57.8261 161.361 66.0979L160.074 66.7168C154.301 57.938 151.514 53.0915 151.713 52.1773C152.011 50.8061 155.962 41.8257 159.013 37.0301L163.624 42.3842Z" fill="#B28B67"/>
<path fill-rule="evenodd" clip-rule="evenodd" d="M160.861 64.1362L158.565 65.0673C152.844 59.002 150.025 54.7376 150.109 52.2741C150.192 49.8107 153.555 44.3958 160.197 36.0295L166.218 43.5181C160.501 50.0228 157.559 53.4568 157.392 53.82C157.224 54.1832 158.38 57.6219 160.861 64.1362Z" fill="#FF4133"/>
<path fill-rule="evenodd" clip-rule="evenodd" d="M161.277 64.4632C161.731 64.5513 162.05 64.6525 162.234 64.7668C162.453 64.9035 162.753 65.1404 163.132 65.4775C162.985 65.738 161.667 68.0796 159.178 72.5022C158.486 72.3175 158.226 72.0138 158.401 71.5912C158.575 71.1686 158.717 70.8155 158.825 70.5317L159.241 66.3691C159.249 66.2952 159.313 66.2432 159.384 66.2531C159.385 66.2532 159.386 66.2534 159.387 66.2536L160.014 66.3553C160.385 66.0946 160.634 65.8504 160.762 65.6228C160.868 65.4344 160.94 65.1257 160.977 64.6967C160.989 64.5486 161.116 64.4428 161.26 64.4604C161.266 64.4611 161.271 64.4621 161.277 64.4632Z" fill="#E4E4E4"/>
<path fill-rule="evenodd" clip-rule="evenodd" d="M149.563 33.7119L143.786 32.7521C142.61 32.0668 141.534 31.5952 140.56 31.3372C140.288 31.3216 139.86 31.4106 140.526 31.9771C141.192 32.5435 141.87 33.1685 141.767 33.4581C141.664 33.7478 141.061 33.6223 140.98 34.0699C140.926 34.3684 141.9 34.444 143.901 34.2968L148.64 36.315L149.563 33.7119Z" fill="#997659"/>
<path fill-rule="evenodd" clip-rule="evenodd" d="M158.564 25.0793L156.088 25.1755C155.717 30.8074 152.539 34.2784 145.032 32.8519L144.35 40.0985C151.358 41.2226 157.348 38.5518 158.273 30.8727C158.512 28.8848 158.68 26.8136 158.564 25.0793Z" fill="#AFB9C5"/>
<path fill-rule="evenodd" clip-rule="evenodd" d="M168.018 35.3614C170.756 42.9554 172.276 47.0485 172.579 47.6407C172.801 48.0749 174.377 49.4154 175.465 50.1856C175.902 50.4948 175.739 50.8735 175.582 50.9714C174.304 51.7678 173.407 50.7696 172.255 50.2032C170.993 49.5828 171.158 51.255 170.159 50.781C170.436 50.0947 171.095 48.821 170.731 47.9659C170.569 47.5859 168.612 43.3637 164.861 35.2994L168.018 35.3614Z" fill="#B28B67"/>
<path fill-rule="evenodd" clip-rule="evenodd" d="M165.113 41.0123L153.736 40.7002C154.591 35.892 156.471 31.7506 156.205 25.1716L159.921 24.3961C162.79 28.7173 164.297 33.982 165.113 41.0123Z" fill="#C5CFD6"/>
<path fill-rule="evenodd" clip-rule="evenodd" d="M165.179 40.928L161.884 40.8416C162.543 37.6671 162.324 32.4631 161.227 25.2296C163.759 29.4998 164.439 33.9646 165.179 40.928Z" fill="black" fill-opacity="0.1"/>
<path fill-rule="evenodd" clip-rule="evenodd" d="M160.316 24.3802C166.03 29.6233 169.93 36.921 172.015 46.2733L164.468 46.0678C163.95 38.2266 162.642 31.282 159.394 25.2026L160.071 24.3735L160.316 24.3802Z" fill="#C5CFD6"/>
<g clip-path="url(#clip0_638_2302)">
<path fill-rule="evenodd" clip-rule="evenodd" d="M480.663 141.922C479.958 141.118 479.474 140.128 479.537 139.01C479.718 135.788 484.213 136.432 485.108 138.043C486.003 139.655 485.957 143.777 484.834 144.084C484.386 144.206 483.424 143.936 482.441 143.363L483.113 147.679L479.5 147.731L480.663 141.922Z" fill="#915B3C" fill-opacity="0.7"/>
<path fill-rule="evenodd" clip-rule="evenodd" d="M477.946 137.962C477.828 137.848 477.762 137.684 477.705 137.528C477.645 137.367 477.587 137.203 477.547 137.034C477.466 136.697 477.46 136.308 477.698 136.042C477.889 135.829 478.178 135.73 478.446 135.705C478.625 135.689 478.809 135.712 478.981 135.765C479.152 135.819 479.3 135.928 479.466 135.994C479.467 135.63 479.524 135.248 479.705 134.934C479.879 134.632 480.161 134.459 480.483 134.41C480.815 134.36 481.144 134.433 481.443 134.589C481.518 134.628 481.592 134.669 481.664 134.716C481.723 134.755 481.785 134.802 481.855 134.817C481.932 134.834 481.97 134.789 482.02 134.732C482.078 134.665 482.143 134.606 482.213 134.554C482.52 134.321 482.926 134.222 483.287 134.353C483.454 134.414 483.617 134.518 483.731 134.664C483.833 134.794 483.907 135.001 484.047 135.091C484.106 135.129 484.147 135.076 484.2 135.038C484.279 134.979 484.355 134.915 484.435 134.858C484.548 134.779 484.671 134.719 484.803 134.686C484.996 134.639 485.264 134.645 485.323 134.898C485.345 134.993 485.33 135.095 485.325 135.191C485.318 135.322 485.31 135.454 485.3 135.586C485.293 135.686 485.283 135.782 485.266 135.881C485.257 135.933 485.226 136.031 485.25 136.083C485.279 136.148 485.407 136.109 485.463 136.11C485.572 136.113 485.682 136.131 485.783 136.176C485.862 136.211 485.945 136.263 485.979 136.352C486.001 136.407 485.996 136.463 485.987 136.52C485.977 136.588 485.99 136.624 486 136.693C486.145 136.618 486.651 136.451 486.719 136.712C486.742 136.799 486.694 136.899 486.658 136.973C486.595 137.103 486.512 137.223 486.427 137.337C486.249 137.574 486.035 137.78 485.804 137.957C486.079 138.074 486.155 138.431 485.922 138.647C485.819 138.743 485.679 138.766 485.547 138.762C485.499 138.76 485.429 138.743 485.392 138.752C485.371 138.756 485.35 138.774 485.321 138.776C485.136 138.792 484.926 138.75 484.743 138.711C484.419 138.643 484.11 138.494 483.857 138.264C483.792 138.206 483.739 138.172 483.652 138.174C483.577 138.176 483.503 138.198 483.427 138.201C483.227 138.209 483.045 138.114 482.859 138.051C482.851 138.302 482.783 138.579 482.684 138.806C482.602 138.991 482.428 139.021 482.256 139.039C481.708 139.099 481.156 139.049 480.606 139.058C481.14 139.17 481.691 139.212 482.22 139.346C482.46 139.406 482.28 139.569 482.18 139.682C482.014 139.868 481.892 140.097 481.809 140.337C481.544 140.002 481.08 139.785 480.674 139.895C480.225 140.017 479.916 140.63 480.211 141.064C480.381 141.315 480.685 141.409 480.938 141.515C480.745 141.721 480.701 142.023 480.587 142.278C480.53 142.403 480.451 142.546 480.321 142.591C480.273 142.608 480.217 142.61 480.179 142.65C480.133 142.699 480.122 142.754 480.063 142.796C479.825 142.966 479.45 142.959 479.235 142.745C479.04 142.551 479.085 142.239 479.243 142.037C478.986 141.935 478.518 141.805 478.614 141.405C478.06 141.377 476.703 140.499 477.437 139.832C477.026 139.608 476.643 139.05 476.898 138.55C477.095 138.165 477.561 137.988 477.946 137.962Z" fill="#FF0000" fill-opacity="0.7"/>
<path fill-rule="evenodd" clip-rule="evenodd" d="M483.543 176.361C487.123 175.254 490.014 173.991 492.214 172.573C494.415 171.154 496.038 169.183 497.083 166.661C493.554 167.704 490.829 168.844 488.908 170.082C486.987 171.321 485.199 173.413 483.543 176.361Z" fill="#CF1F1F" fill-opacity="0.7"/>
<path fill-rule="evenodd" clip-rule="evenodd" d="M495.628 172.101C495.57 172.076 495.515 172.044 495.462 172.005C494.365 171.195 480.417 163.822 478.407 162.126L485.718 157.414C487.246 158.704 495.963 167.359 497.572 169.17C500.601 171.709 509.254 180.681 509.971 181.227C510.726 181.8 509.7 183.566 508.699 182.908C507.105 181.861 502.946 178.803 500.661 176.772C498.52 174.867 496.648 173.118 495.628 172.101Z" fill="#784931" fill-opacity="0.7"/>
<path fill-rule="evenodd" clip-rule="evenodd" d="M490.558 177.37C488.073 180.033 478.088 188.388 477.479 189.081C476.854 189.794 475.163 188.648 475.89 187.695C477.047 186.179 480.39 182.244 482.578 180.107C484.338 178.389 485.969 176.86 487.083 175.863C484.731 172.446 478.857 164.395 478.007 162.386L484.476 158.216C485.291 160.143 490.887 174.425 491.228 175.996C491.369 176.544 491.048 177.034 490.558 177.37Z" fill="#915B3C" fill-opacity="0.7"/>
<path fill-rule="evenodd" clip-rule="evenodd" d="M475.858 187.168C475.312 187.38 474.945 187.572 474.759 187.744C474.559 187.929 474.298 188.232 473.977 188.653C474.191 188.884 476.114 190.959 479.747 194.878C480.433 194.543 480.637 194.181 480.356 193.793C480.076 193.405 479.846 193.08 479.667 192.817L478.25 188.637C478.24 188.606 478.205 188.589 478.174 188.6C478.173 188.6 478.173 188.6 478.172 188.6L477.46 188.866C477.009 188.683 476.691 188.491 476.504 188.289C476.331 188.103 476.169 187.755 476.018 187.246C475.999 187.182 475.932 187.146 475.868 187.165C475.865 187.166 475.861 187.167 475.858 187.168Z" fill="#E4E4E4" fill-opacity="0.7"/>
<path fill-rule="evenodd" clip-rule="evenodd" d="M508.125 182.904C508.238 183.48 508.364 183.874 508.502 184.087C508.649 184.316 508.903 184.625 509.262 185.015C509.526 184.845 511.905 183.312 516.398 180.416C516.187 179.681 515.866 179.418 515.435 179.627C515.004 179.835 514.643 180.005 514.353 180.136L509.988 180.805C509.955 180.81 509.932 180.841 509.938 180.874C509.938 180.874 509.938 180.875 509.938 180.875L510.076 181.623C509.818 182.034 509.573 182.315 509.342 182.464C509.128 182.602 508.757 182.701 508.229 182.761C508.163 182.769 508.115 182.828 508.123 182.895C508.123 182.898 508.124 182.901 508.125 182.904Z" fill="#E4E4E4" fill-opacity="0.7"/>
<path fill-rule="evenodd" clip-rule="evenodd" d="M478.029 162.371C480.354 159.719 483.051 157.98 486.121 157.156C489.609 160.62 492.792 160.836 497.161 166.779C494.239 171.684 486.57 171.45 483.488 176.384C480.345 174.287 477.593 166.134 478.029 162.371Z" fill="#F4FFED"/>
<path fill-rule="evenodd" clip-rule="evenodd" d="M493.952 155.932L498.963 159.123C500.282 159.386 501.393 159.749 502.297 160.212C502.515 160.385 502.788 160.748 501.932 160.739C501.076 160.73 500.176 160.76 500.077 161.058C499.979 161.357 500.518 161.67 500.306 162.078C500.165 162.35 499.374 161.744 497.931 160.261L493.07 158.614L493.952 155.932ZM475.6 160.371L478.673 159.74C478.057 166.26 477.713 169.723 477.64 170.129C477.476 171.043 478.464 172.176 478.916 172.802C478.007 173.46 477.767 171.776 476.626 172.629C475.585 173.408 474.91 174.565 473.406 174.021C473.221 173.954 472.961 173.61 473.333 173.222C474.259 172.254 475.545 170.63 475.667 170.159C475.832 169.516 475.81 166.254 475.6 160.371Z" fill="#915B3C" fill-opacity="0.7"/>
<path fill-rule="evenodd" clip-rule="evenodd" d="M481.63 145.656L482.854 145.173C486.184 150.181 491.04 154.349 497.424 157.676L494.352 163.544C487.574 158.323 482.843 152.463 481.63 145.656Z" fill="#FF0000" fill-opacity="0.7"/>
<path fill-rule="evenodd" clip-rule="evenodd" d="M479.43 162.788L490.742 160.42C486.789 154.593 484.347 149.452 483.415 144.995L479.897 145.201C478.117 150.077 478.47 155.549 479.43 162.788Z" fill="#DDE3E9" fill-opacity="0.7"/>
<path fill-rule="evenodd" clip-rule="evenodd" d="M479.825 145.218C479.825 145.217 479.826 145.216 479.826 145.216L480.049 145.169C480.317 145.122 480.726 145.054 481.277 144.964L482.594 147.149C483.282 150.005 485.002 155.691 487.754 164.207L480.339 165.759C480.484 166.357 480.643 166.957 480.816 167.561L475.303 168.715C474.182 159.232 475.688 151.4 479.822 145.216L479.825 145.218Z" fill="#CB0000"/>
<path fill-rule="evenodd" clip-rule="evenodd" d="M479.22 157.958C480.215 161.664 481.284 164.139 482.426 165.382L480.353 165.816C479.699 163.137 479.321 160.518 479.22 157.958Z" fill="black" fill-opacity="0.7"/>
<path fill-rule="evenodd" clip-rule="evenodd" d="M481.048 160.915L484.349 158.449L484.705 160.15L481.048 160.915Z" fill="white" fill-opacity="0.7"/>
</g>
<defs>
<clipPath id="clip0_638_2302">
<rect width="54.8617" height="75.7884" fill="white" transform="translate(444 155.104) rotate(-42.5569)"/>
</clipPath>
</defs>
</svg>
