<svg width="14" height="23" viewBox="0 0 14 23" fill="none" xmlns="http://www.w3.org/2000/svg">
<path fill-rule="evenodd" clip-rule="evenodd" d="M1.5326 22.3707L5.46355 9.57667L7.4643 9.73532L8.13509 22.8943L1.5326 22.3707Z" fill="#B28B67"/>
<path fill-rule="evenodd" clip-rule="evenodd" d="M11.9622 16.6018C9.85238 16.9734 2.30943 12.2547 3.2506 6.35703C4.19176 0.459394 12.2786 2.41375 13.6079 5.53328C14.9372 8.65282 14.072 16.2302 11.9622 16.6018Z" fill="#B28B67"/>
<path fill-rule="evenodd" clip-rule="evenodd" d="M4.12125 13.2109C3.62173 9.43049 1.48263 6.71099 1.9914 5.07932C2.33057 3.99154 3.0334 3.35407 4.09989 3.1669C4.83424 1.01522 6.65618 0.219653 9.5657 0.7802C13.93 1.62102 16.4566 3.67592 14.9343 7.6364C13.8663 7.55177 12.6115 7.061 10.7694 7.5855C10.1849 7.75192 9.72205 8.37496 9.3808 9.45462L8.57513 9.39078C7.90919 8.02465 7.18083 7.48431 6.39003 7.76975C5.59923 8.0552 5.35177 8.88115 5.64766 10.2476L4.97837 13.2788L4.12125 13.2109Z" fill="#101030"/>
</svg>
