<svg width="210" height="204" viewBox="0 0 210 204" fill="none" xmlns="http://www.w3.org/2000/svg">
<rect width="210" height="204" rx="102" fill="white"/>
<circle cx="51.4637" cy="58.3968" r="17.2762" fill="#888888"/>
<circle cx="137.688" cy="58.3968" r="17.2762" fill="#888888"/>
<circle cx="120.569" cy="111.315" r="17.2762" fill="#888888"/>
<circle cx="155.743" cy="146.801" r="17.2762" fill="#888888"/>
<circle cx="121.19" cy="146.801" r="17.2762" fill="#888888"/>
<circle cx="69.5145" cy="93.5719" r="17.2762" fill="#888888"/>
<path d="M103.293 41.2762C103.293 43.545 102.846 45.7915 101.978 47.8875C101.109 49.9836 99.8368 51.8881 98.2326 53.4923C96.6283 55.0966 94.7238 56.3691 92.6278 57.2374C90.5317 58.1056 88.2852 58.5524 86.0165 58.5524C83.7477 58.5524 81.5012 58.1056 79.4051 57.2374C77.3091 56.3691 75.4046 55.0966 73.8003 53.4923C72.1961 51.8881 70.9235 49.9836 70.0553 47.8875C69.1871 45.7915 68.7402 43.545 68.7402 41.2762L86.0165 41.2762H103.293Z" fill="#888888"/>
<path d="M173.019 76.4513C173.019 78.72 172.572 80.9665 171.704 83.0626C170.836 85.1586 169.563 87.0632 167.959 88.6674C166.355 90.2716 164.45 91.5442 162.354 92.4124C160.258 93.2806 158.012 93.7275 155.743 93.7275C153.474 93.7275 151.228 93.2806 149.132 92.4124C147.036 91.5442 145.131 90.2716 143.527 88.6674C141.923 87.0631 140.65 85.1586 139.782 83.0626C138.914 80.9665 138.467 78.72 138.467 76.4513L155.743 76.4513H173.019Z" fill="#888888"/>
<path d="M35.5871 110.518C37.8558 110.505 40.1048 110.939 42.2058 111.795C44.3067 112.652 46.2183 113.914 47.8316 115.509C49.4448 117.104 50.7281 119.001 51.6081 121.092C52.4881 123.183 52.9476 125.427 52.9604 127.696C52.9732 129.965 52.539 132.214 51.6826 134.315C50.8262 136.416 49.5644 138.327 47.9692 139.941C46.374 141.554 44.4767 142.837 42.3856 143.717C40.2945 144.597 38.0505 145.057 35.7818 145.069L35.6845 127.793L35.5871 110.518Z" fill="#888888"/>
<path d="M70.3856 144.933C70.3974 142.664 70.8559 140.42 71.735 138.328C72.6141 136.237 73.8965 134.339 75.5091 132.743C77.1217 131.147 79.0328 129.885 81.1333 129.027C83.2339 128.17 85.4827 127.735 87.7514 127.747C90.0201 127.758 92.2643 128.217 94.3558 129.096C96.4473 129.975 98.3452 131.258 99.941 132.87C101.537 134.483 102.8 136.394 103.657 138.494C104.514 140.595 104.949 142.844 104.938 145.112L87.6615 145.023L70.3856 144.933Z" fill="#888888"/>
<path d="M138.868 129.369C138.88 127.1 139.338 124.856 140.217 122.765C141.097 120.673 142.379 118.775 143.992 117.179C145.604 115.583 147.515 114.321 149.616 113.464C151.716 112.606 153.965 112.171 156.234 112.183C158.503 112.195 160.747 112.653 162.838 113.532C164.93 114.411 166.828 115.694 168.423 117.306C170.019 118.919 171.282 120.83 172.139 122.931C172.997 125.031 173.432 127.28 173.42 129.549L156.144 129.459L138.868 129.369Z" fill="#888888"/>
<path d="M35.5223 162.054C35.5341 159.785 35.9926 157.541 36.8717 155.449C37.7508 153.358 39.0333 151.46 40.6458 149.864C42.2584 148.268 44.1695 147.006 46.27 146.148C48.3706 145.291 50.6194 144.856 52.8881 144.868C55.1568 144.879 57.401 145.338 59.4925 146.217C61.584 147.096 63.4819 148.379 65.0778 149.991C66.6736 151.604 67.9363 153.515 68.7936 155.615C69.6509 157.716 70.086 159.965 70.0742 162.234L52.7983 162.144L35.5223 162.054Z" fill="#888888"/>
<path d="M70.6981 162.054C70.7099 159.785 71.1684 157.541 72.0475 155.449C72.9266 153.358 74.209 151.46 75.8216 149.864C77.4342 148.268 79.3453 147.006 81.4458 146.148C83.5464 145.291 85.7952 144.856 88.0639 144.868C90.3326 144.879 92.5768 145.338 94.6683 146.217C96.7598 147.096 98.6577 148.379 100.254 149.991C101.849 151.604 103.112 153.515 103.969 155.615C104.827 157.716 105.262 159.965 105.25 162.234L87.974 162.144L70.6981 162.054Z" fill="#888888"/>
<path d="M138.466 76.14C138.466 78.4087 138.02 80.6553 137.151 82.7513C136.283 84.8474 135.011 86.7519 133.406 88.3561C131.802 89.9604 129.898 91.2329 127.802 92.1011C125.706 92.9693 123.459 93.4162 121.19 93.4162C118.922 93.4162 116.675 92.9693 114.579 92.1011C112.483 91.2329 110.578 89.9604 108.974 88.3561C107.37 86.7519 106.097 84.8474 105.229 82.7513C104.361 80.6553 103.914 78.4087 103.914 76.14L121.19 76.14H138.466Z" fill="#888888"/>
<path d="M103.293 58.7081C103.293 60.9768 102.846 63.2234 101.978 65.3194C101.109 67.4155 99.8368 69.32 98.2326 70.9242C96.6283 72.5285 94.7238 73.801 92.6278 74.6692C90.5317 75.5375 88.2852 75.9843 86.0165 75.9843C83.7477 75.9843 81.5012 75.5375 79.4051 74.6692C77.3091 73.801 75.4046 72.5285 73.8003 70.9242C72.1961 69.32 70.9235 67.4155 70.0553 65.3194C69.1871 63.2234 68.7402 60.9768 68.7402 58.7081L86.0165 58.7081H103.293Z" fill="#888888"/>
<path d="M173.642 111.626C173.642 109.357 173.195 107.111 172.327 105.015C171.459 102.919 170.186 101.014 168.582 99.41C166.978 97.8058 165.073 96.5332 162.977 95.665C160.881 94.7968 158.635 94.3499 156.366 94.3499C154.097 94.3499 151.851 94.7968 149.755 95.665C147.659 96.5332 145.754 97.8058 144.15 99.41C142.546 101.014 141.273 102.919 140.405 105.015C139.537 107.111 139.09 109.357 139.09 111.626L156.366 111.626H173.642Z" fill="#888888"/>
<path d="M70.1388 110.323C67.87 110.336 65.6261 110.795 63.5349 111.675C61.4438 112.555 59.5465 113.838 57.9513 115.452C56.3561 117.065 55.0943 118.977 54.238 121.077C53.3816 123.178 52.9474 125.427 52.9602 127.696C52.9729 129.965 53.4324 132.209 54.3125 134.3C55.1925 136.391 56.4757 138.288 58.089 139.884C59.7022 141.479 61.6139 142.74 63.7148 143.597C65.8157 144.453 68.0647 144.887 70.3334 144.875L70.2361 127.599L70.1388 110.323Z" fill="#888888"/>
<path d="M70.5652 110.381C70.5534 112.649 70.9886 114.898 71.8459 116.999C72.7032 119.099 73.9658 121.01 75.5617 122.623C77.1576 124.236 79.0554 125.518 81.1469 126.397C83.2384 127.276 85.4826 127.735 87.7513 127.747C90.02 127.758 92.2689 127.323 94.3694 126.466C96.4699 125.609 98.381 124.346 99.9936 122.75C101.606 121.154 102.889 119.256 103.768 117.165C104.647 115.073 105.105 112.829 105.117 110.56L87.8412 110.471L70.5652 110.381Z" fill="#888888"/>
<path d="M103.764 41.2289C106.032 41.2153 108.282 41.6487 110.383 42.5043C112.484 43.3599 114.396 44.621 116.01 46.2155C117.624 47.8101 118.908 49.7069 119.789 51.7977C120.669 53.8885 121.13 56.1323 121.143 58.401C121.157 60.6697 120.724 62.9189 119.868 65.0201C119.012 67.1214 117.751 69.0335 116.157 70.6473C114.562 72.2612 112.665 73.5452 110.575 74.426C108.484 75.3068 106.24 75.7671 103.971 75.7807L103.867 58.5048L103.764 41.2289Z" fill="#888888"/>
<path d="M35.2754 76.4037C37.5441 76.3901 39.7932 76.8235 41.8945 77.6791C43.9957 78.5347 45.9078 79.7958 47.5217 81.3903C49.1355 82.9849 50.4195 84.8817 51.3003 86.9725C52.1811 89.0633 52.6414 91.3071 52.6551 93.5758C52.6687 95.8445 52.2353 98.0937 51.3797 100.195C50.5241 102.296 49.263 104.208 47.6684 105.822C46.0739 107.436 44.177 108.72 42.0862 109.601C39.9954 110.482 37.7516 110.942 35.4829 110.956L35.3791 93.6796L35.2754 76.4037Z" fill="#888888"/>
<path d="M51.3534 41.1032C53.6324 41.0895 55.8917 41.5228 58.0024 42.3784C60.1131 43.2339 62.0338 44.4949 63.6549 46.0895C65.276 47.684 66.5657 49.5808 67.4504 51.6716C68.3351 53.7624 68.7975 56.0062 68.8112 58.2749C68.8248 60.5436 68.3894 62.7927 67.5299 64.894C66.6704 66.9952 65.4035 68.9074 63.8017 70.5213C62.1999 72.1352 60.2944 73.4192 58.1942 74.3001C56.0939 75.1809 53.8399 75.6413 51.561 75.655L51.4572 58.3791L51.3534 41.1032Z" fill="white"/>
<path d="M53.5524 129.354C53.5524 131.633 53.1056 133.89 52.2374 135.995C51.3691 138.101 50.0966 140.014 48.4923 141.626C46.8881 143.237 44.9836 144.515 42.8875 145.388C40.7915 146.26 38.545 146.709 36.2762 146.709C34.0075 146.709 31.7609 146.26 29.6649 145.388C27.5688 144.515 25.6643 143.237 24.0601 141.626C22.4558 140.014 21.1833 138.101 20.3151 135.995C19.4469 133.89 19 131.633 19 129.354L36.2762 129.354H53.5524Z" fill="white"/>
<path d="M52.0003 92.3542C52.0003 90.0752 52.4472 87.8186 53.3154 85.713C54.1836 83.6075 55.4561 81.6944 57.0604 80.0829C58.6646 78.4714 60.5691 77.1931 62.6652 76.321C64.7612 75.4488 67.0078 75 69.2765 75C71.5453 75 73.7918 75.4488 75.8878 76.321C77.9839 77.1931 79.8884 78.4714 81.4926 80.0829C83.0969 81.6944 84.3695 83.6075 85.2377 85.713C86.1059 87.8186 86.5527 90.0752 86.5527 92.3542L69.2765 92.3542L52.0003 92.3542Z" fill="white"/>
<path d="M155.724 58.3534C155.747 60.6323 155.323 62.8934 154.476 65.0075C153.629 67.1216 152.375 69.0473 150.787 70.6748C149.199 72.3023 147.308 73.5996 145.221 74.4926C143.133 75.3857 140.891 75.8571 138.623 75.8798C136.354 75.9025 134.103 75.4761 131.999 74.625C129.894 73.7739 127.977 72.5147 126.356 70.9194C124.736 69.324 123.444 67.4238 122.555 65.327C121.666 63.2303 121.197 60.9782 121.174 58.6993L138.449 58.5264L155.724 58.3534Z" fill="white"/>
<path d="M103 147C103 144.636 103.504 142.296 104.484 140.112C105.464 137.928 106.901 135.944 108.711 134.272C110.522 132.601 112.672 131.275 115.038 130.37C117.404 129.466 119.939 129 122.5 129C125.061 129 127.596 129.466 129.962 130.37C132.328 131.275 134.478 132.601 136.289 134.272C138.099 135.944 139.536 137.928 140.516 140.112C141.496 142.296 142 144.636 142 147L122.5 147H103Z" fill="white"/>
<path d="M156.168 164.903C153.837 164.917 151.526 164.472 149.368 163.592C147.209 162.713 145.245 161.418 143.587 159.779C141.929 158.141 140.61 156.192 139.705 154.043C138.8 151.895 138.327 149.589 138.313 147.258C138.299 144.927 138.744 142.616 139.623 140.457C140.502 138.298 141.798 136.333 143.436 134.675C145.074 133.017 147.023 131.697 149.171 130.792C151.319 129.887 153.624 129.414 155.954 129.4L156.061 147.152L156.168 164.903Z" fill="white"/>
<path d="M172.508 75.5801C170.232 75.5937 167.975 75.1589 165.867 74.3005C163.758 73.442 161.84 72.1768 160.221 70.5769C158.602 68.977 157.313 67.0739 156.43 64.9761C155.546 62.8784 155.084 60.6271 155.07 58.3509C155.057 56.0747 155.491 53.818 156.35 51.7098C157.208 49.6016 158.474 47.6831 160.074 46.0639C161.673 44.4447 163.577 43.1564 165.674 42.2727C167.772 41.389 170.023 40.9271 172.3 40.9135L172.404 58.2468L172.508 75.5801Z" fill="#888888"/>
<path d="M104.021 110.755C101.745 110.769 99.4886 110.334 97.3804 109.476C95.2722 108.617 93.3537 107.352 91.7345 105.752C90.1152 104.152 88.827 102.249 87.9433 100.151C87.0596 98.0534 86.5977 95.8022 86.584 93.5259C86.5703 91.2497 87.0051 88.9931 87.8636 86.8848C88.722 84.7766 89.9873 82.8582 91.5872 81.2389C93.1871 79.6197 95.0902 78.3315 97.1879 77.4478C99.2857 76.5641 101.537 76.1022 103.813 76.0885L103.917 93.4218L104.021 110.755Z" fill="#888888"/>
<path d="M126.846 63C129.361 63 131.852 63.4954 134.176 64.458C136.5 65.4206 138.611 66.8314 140.39 68.61C142.169 70.3886 143.579 72.5001 144.542 74.824C145.505 77.1478 146 79.6385 146 82.1538C146 84.6692 145.505 87.1599 144.542 89.4837C143.579 91.8076 142.169 93.9191 140.39 95.6977C138.611 97.4763 136.5 98.8871 134.176 99.8497C131.852 100.812 129.361 101.308 126.846 101.308H110.885C110.038 101.308 109.226 100.971 108.627 100.373C108.029 99.774 107.692 98.962 107.692 98.1154V82.1538C107.692 77.0739 109.71 72.2021 113.302 68.61C116.894 65.018 121.766 63 126.846 63ZM82.1538 63.1277C77.0739 63.1277 72.2021 65.1457 68.61 68.7377C65.018 72.3298 63 77.2016 63 82.2815C63 87.3615 65.018 92.2333 68.61 95.8254C72.2021 99.4174 77.0739 101.435 82.1538 101.435H98.1154C98.962 101.435 99.774 101.099 100.373 100.5C100.971 99.9017 101.308 99.0897 101.308 98.2431V82.2815C101.308 77.2016 99.2897 72.3298 95.6977 68.7377C92.1056 65.1457 87.2338 63.1277 82.1538 63.1277ZM82.1538 146C79.6385 146 77.1478 145.505 74.824 144.542C72.5001 143.579 70.3886 142.169 68.61 140.39C66.8314 138.611 65.4206 136.5 64.458 134.176C63.4954 131.852 63 129.361 63 126.846C63 124.331 63.4954 121.84 64.458 119.516C65.4206 117.192 66.8314 115.081 68.61 113.302C70.3886 111.524 72.5001 110.113 74.824 109.15C77.1478 108.188 79.6385 107.692 82.1538 107.692H98.1154C98.962 107.692 99.774 108.029 100.373 108.627C100.971 109.226 101.308 110.038 101.308 110.885V126.846C101.308 131.926 99.2897 136.798 95.6977 140.39C92.1056 143.982 87.2338 146 82.1538 146ZM126.846 146C129.361 146 131.852 145.505 134.176 144.542C136.5 143.579 138.611 142.169 140.39 140.39C142.169 138.611 143.579 136.5 144.542 134.176C145.505 131.852 146 129.361 146 126.846C146 124.331 145.505 121.84 144.542 119.516C143.579 117.192 142.169 115.081 140.39 113.302C138.611 111.524 136.5 110.113 134.176 109.15C131.852 108.188 129.361 107.692 126.846 107.692H110.885C110.038 107.692 109.226 108.029 108.627 108.627C108.029 109.226 107.692 110.038 107.692 110.885V126.846C107.692 131.926 109.71 136.798 113.302 140.39C116.894 143.982 121.766 146 126.846 146Z" fill="#D2D0FE"/>
<path d="M102.865 60C97.3731 87.7982 73.3333 100.102 62 102.779C91.0308 109.729 101.34 136.489 102.865 149C108.227 117.399 134.522 105.019 147 102.779C119.931 99.3698 106.298 72.8392 102.865 60Z" fill="#F67D7D"/>
</svg>
