<svg width="134" height="285" viewBox="0 0 134 285" fill="none" xmlns="http://www.w3.org/2000/svg">
<path opacity="0.87" d="M117.949 182.883V209.916C117.949 222.273 116.699 232.829 114.198 241.582C111.697 250.335 108.093 257.507 103.385 263.098C98.6773 268.614 93.0502 272.697 86.5035 275.345C79.9569 277.919 72.6747 279.207 64.657 279.207C58.2575 279.207 52.2993 278.398 46.7825 276.779C41.2657 275.088 36.3006 272.513 31.8871 269.056C27.5473 265.525 23.7958 261.038 20.6329 255.595C17.5434 250.152 15.1528 243.642 13.461 236.065C11.8427 228.489 11.0336 219.772 11.0336 209.916V182.883C11.0336 170.526 12.2841 160.007 14.785 151.327C17.3596 142.647 21.0006 135.549 25.7083 130.032C30.416 124.515 36.0431 120.507 42.5898 118.006C49.1364 115.431 56.4186 114.144 64.4363 114.144C70.9094 114.144 76.8675 114.953 82.3108 116.571C87.8276 118.189 92.7559 120.727 97.0958 124.184C101.509 127.568 105.261 131.982 108.35 137.425C111.44 142.794 113.793 149.268 115.412 156.844C117.103 164.347 117.949 173.027 117.949 182.883ZM88.8206 213.888V178.801C88.8206 172.622 88.4528 167.252 87.7172 162.692C87.0552 158.058 86.0622 154.122 84.7382 150.886C83.4141 147.649 81.7591 145.038 79.773 143.052C77.787 140.992 75.5067 139.484 72.9322 138.528C70.3577 137.572 67.5257 137.094 64.4363 137.094C60.6113 137.094 57.1909 137.866 54.1751 139.411C51.1592 140.882 48.6215 143.236 46.5619 146.472C44.5022 149.709 42.9208 154.012 41.8174 159.382C40.7876 164.678 40.2727 171.151 40.2727 178.801V213.888C40.2727 220.067 40.6037 225.473 41.2657 230.107C42.0013 234.741 43.0311 238.713 44.3551 242.023C45.7527 245.334 47.4078 248.055 49.3203 250.188C51.3063 252.248 53.5866 253.793 56.1611 254.822C58.7356 255.779 61.5676 256.257 64.657 256.257C68.5555 256.257 71.976 255.484 74.9182 253.94C77.9341 252.395 80.4718 249.968 82.5314 246.658C84.5911 243.274 86.1358 238.897 87.1656 233.528C88.2689 228.084 88.8206 221.538 88.8206 213.888Z" fill="#080680"/>
<path fill-rule="evenodd" clip-rule="evenodd" d="M62.6331 233.709C61.9316 232.925 61.453 231.974 61.5217 230.923C61.7199 227.893 66.2149 228.665 67.1023 230.217C67.9897 231.769 67.9219 235.653 66.7959 235.9C66.3469 235.999 65.3857 235.709 64.4048 235.133L65.055 239.226L61.4387 239.141L62.6331 233.709Z" fill="#915B3C" fill-opacity="0.7"/>
<path fill-rule="evenodd" clip-rule="evenodd" d="M60.0018 229.861C59.8841 229.751 59.819 229.595 59.7625 229.448C59.7039 229.294 59.6469 229.139 59.6074 228.98C59.5286 228.663 59.5246 228.299 59.764 228.06C59.9561 227.867 60.2462 227.786 60.5145 227.773C60.6932 227.765 60.8771 227.792 61.0491 227.849C61.2196 227.905 61.3672 228.012 61.5327 228.081C61.5359 227.74 61.5952 227.386 61.7778 227.099C61.9535 226.824 62.2362 226.674 62.5595 226.64C62.8914 226.605 63.2201 226.685 63.5189 226.842C63.5937 226.881 63.6678 226.922 63.7388 226.969C63.7983 227.007 63.8601 227.054 63.9296 227.07C64.0071 227.089 64.0451 227.048 64.0948 226.997C64.1532 226.937 64.2191 226.884 64.2889 226.838C64.5975 226.632 65.0042 226.554 65.3652 226.69C65.5316 226.753 65.6937 226.856 65.8075 226.997C65.9089 227.122 65.9822 227.318 66.1213 227.407C66.1804 227.444 66.2214 227.397 66.2746 227.363C66.3544 227.311 66.4304 227.254 66.5112 227.204C66.6248 227.134 66.7479 227.082 66.88 227.057C67.0734 227.02 67.3413 227.036 67.3989 227.274C67.4205 227.363 67.4054 227.458 67.3995 227.547C67.3914 227.67 67.3829 227.793 67.3726 227.915C67.3648 228.008 67.3546 228.098 67.3366 228.189C67.3269 228.238 67.2963 228.328 67.3192 228.378C67.3478 228.439 67.4769 228.408 67.5323 228.411C67.6416 228.418 67.7514 228.438 67.8528 228.484C67.9314 228.52 68.0142 228.571 68.048 228.656C68.0688 228.708 68.0639 228.76 68.0548 228.813C68.0439 228.876 68.0574 228.91 68.0666 228.974C68.2127 228.911 68.7198 228.773 68.786 229.02C68.808 229.102 68.7604 229.193 68.724 229.261C68.6602 229.38 68.5761 229.488 68.4901 229.592C68.3107 229.807 68.0957 229.991 67.8641 230.148C68.1383 230.267 68.2126 230.603 67.978 230.796C67.8744 230.882 67.7342 230.898 67.6025 230.889C67.5543 230.886 67.4846 230.867 67.4468 230.874C67.4264 230.878 67.4047 230.893 67.3764 230.895C67.1907 230.902 66.9805 230.855 66.7985 230.813C66.4741 230.736 66.1664 230.586 65.9141 230.363C65.8494 230.305 65.796 230.272 65.7096 230.271C65.6339 230.269 65.5598 230.287 65.4842 230.287C65.284 230.287 65.1027 230.192 64.9163 230.127C64.907 230.36 64.8379 230.617 64.7371 230.825C64.6549 230.995 64.4802 231.015 64.3085 231.027C63.7593 231.062 63.2072 230.995 62.6568 230.983C63.1906 231.108 63.7416 231.167 64.2708 231.311C64.51 231.377 64.3292 231.522 64.2281 231.624C64.0616 231.791 63.9386 232 63.854 232.222C63.5904 231.899 63.1279 231.679 62.7207 231.767C62.2707 231.864 61.9584 232.425 62.2505 232.841C62.4201 233.082 62.7233 233.181 62.9757 233.289C62.7812 233.474 62.7364 233.754 62.6204 233.988C62.5632 234.103 62.4827 234.233 62.3528 234.271C62.3047 234.285 62.2482 234.285 62.2105 234.321C62.1638 234.365 62.1531 234.415 62.0933 234.453C61.8547 234.603 61.4797 234.582 61.2651 234.374C61.071 234.186 61.1184 233.896 61.2773 233.714C61.0206 233.608 60.5535 233.47 60.6517 233.1C60.0972 233.053 58.7438 232.183 59.4821 231.588C59.0719 231.364 58.692 230.829 58.95 230.372C59.1486 230.02 59.6167 229.871 60.0018 229.861Z" fill="#FF0000" fill-opacity="0.7"/>
<path fill-rule="evenodd" clip-rule="evenodd" d="M64.7655 266.53C68.3734 265.598 71.2882 264.489 73.51 263.202C75.7317 261.915 77.3752 260.071 78.4405 257.67C74.8838 258.542 72.1358 259.539 70.1967 260.662C68.2576 261.785 66.4472 263.741 64.7655 266.53Z" fill="#CF1F1F" fill-opacity="0.7"/>
<path fill-rule="evenodd" clip-rule="evenodd" d="M76.8887 262.796C76.8319 262.77 76.7772 262.738 76.7251 262.699C75.6454 261.888 61.8954 254.353 59.9175 252.666L67.1695 248.474C68.6734 249.757 77.2449 258.308 78.826 260.089C81.8076 262.615 90.3135 271.464 91.02 272.01C91.7632 272.583 90.7395 274.22 89.753 273.557C88.1834 272.502 84.0874 269.439 81.8398 267.423C79.7328 265.533 77.8917 263.801 76.8887 262.796Z" fill="#784931" fill-opacity="0.7"/>
<path fill-rule="evenodd" clip-rule="evenodd" d="M71.7397 267.86C69.2489 270.309 59.254 277.908 58.6443 278.546C58.0172 279.203 56.3385 278.043 57.068 277.161C58.2287 275.756 61.5815 272.125 63.7731 270.168C65.536 268.593 67.17 267.196 68.2855 266.286C65.9594 262.93 60.1488 255.009 59.3127 253.056L65.7814 249.322C66.5832 251.194 72.0839 265.059 72.4154 266.573C72.5526 267.103 72.2303 267.558 71.7397 267.86Z" fill="#915B3C" fill-opacity="0.7"/>
<path fill-rule="evenodd" clip-rule="evenodd" d="M56.7454 276.666C56.2027 276.845 55.8388 277.013 55.6537 277.168C55.4549 277.335 55.1952 277.611 54.8744 277.997C55.0852 278.223 56.9795 280.257 60.5575 284.098C61.2393 283.808 61.4424 283.474 61.1668 283.097C60.8912 282.72 60.6653 282.403 60.4891 282.149L59.1068 278.146C59.0963 278.116 59.0625 278.099 59.0311 278.108C59.0305 278.108 59.03 278.108 59.0294 278.108L58.3226 278.332C57.8777 278.142 57.5632 277.948 57.379 277.75C57.2085 277.567 57.0498 277.233 56.9029 276.746C56.8845 276.685 56.8181 276.648 56.7546 276.664C56.7515 276.664 56.7484 276.665 56.7454 276.666Z" fill="#E4E4E4" fill-opacity="0.7"/>
<path fill-rule="evenodd" clip-rule="evenodd" d="M89.1565 273.287C89.2674 273.847 89.3912 274.231 89.528 274.442C89.6749 274.669 89.9275 274.977 90.2858 275.367C90.5525 275.212 92.949 273.826 97.4754 271.208C97.2677 270.492 96.9468 270.226 96.5128 270.41C96.0788 270.594 95.716 270.744 95.4244 270.859L91.039 271.335C91.0059 271.339 90.983 271.368 90.9879 271.4C90.988 271.4 90.9881 271.401 90.9882 271.401L91.1227 272.127C90.8611 272.514 90.6138 272.775 90.3809 272.91C90.1652 273.034 89.7924 273.116 89.2625 273.153C89.1959 273.158 89.1478 273.214 89.155 273.278C89.1553 273.281 89.1558 273.284 89.1565 273.287Z" fill="#E4E4E4" fill-opacity="0.7"/>
<path fill-rule="evenodd" clip-rule="evenodd" d="M59.501 252.984C61.8326 250.538 64.5305 248.981 67.5945 248.311C71.0525 251.758 74.2246 252.087 78.5474 257.937C75.6086 262.512 67.9658 261.992 64.8668 266.589C61.7459 264.463 59.0457 256.564 59.501 252.984Z" fill="#F4FFED"/>
<path fill-rule="evenodd" clip-rule="evenodd" d="M75.4541 247.28L80.4214 250.568C81.7336 250.873 82.8382 251.267 83.7352 251.75C83.9508 251.927 84.2203 252.29 83.3674 252.249C82.5145 252.209 81.6166 252.205 81.5164 252.491C81.4161 252.778 81.9501 253.102 81.7361 253.491C81.5934 253.75 80.8094 253.132 79.3839 251.637L74.5531 249.856L75.4541 247.28ZM57.1286 250.918L60.1958 250.419C59.5285 256.735 59.1569 260.089 59.081 260.481C58.9103 261.364 59.8853 262.502 60.3305 263.127C59.42 263.734 59.1942 262.088 58.0502 262.875C57.006 263.593 56.3246 264.693 54.8294 264.109C54.6456 264.037 54.3901 263.693 54.7636 263.329C55.6943 262.423 56.9896 260.891 57.1143 260.437C57.2842 259.819 57.289 256.646 57.1286 250.918Z" fill="#915B3C" fill-opacity="0.7"/>
<path fill-rule="evenodd" clip-rule="evenodd" d="M63.5246 237.122L64.733 236.702C67.967 241.63 72.7095 245.806 78.9604 249.23L75.8919 254.749C69.2676 249.492 64.6628 243.697 63.5246 237.122Z" fill="#FF0000" fill-opacity="0.7"/>
<path fill-rule="evenodd" clip-rule="evenodd" d="M61.1256 253.56L72.2879 251.705C68.4409 245.983 66.0767 240.972 65.1954 236.673L61.7276 236.741C59.9349 241.345 60.2384 246.595 61.1256 253.56Z" fill="#DDE3E9" fill-opacity="0.7"/>
<path fill-rule="evenodd" clip-rule="evenodd" d="M61.5496 236.802C61.5499 236.801 61.5502 236.801 61.5504 236.8L61.7698 236.763C62.0342 236.728 62.4373 236.678 62.9792 236.612L64.2567 238.749C64.91 241.505 66.5553 247.006 69.1924 255.25L61.8888 256.465C62.0267 257.041 62.1781 257.621 62.3431 258.205L56.9125 259.108C55.887 249.999 57.4316 242.563 61.5464 236.8L61.5496 236.802Z" fill="#CB0000"/>
<path fill-rule="evenodd" clip-rule="evenodd" d="M60.8097 248.938C61.745 252.503 62.7617 254.899 63.8598 256.124L61.846 256.462C61.2324 253.887 60.887 251.379 60.8097 248.938Z" fill="black" fill-opacity="0.7"/>
<path fill-rule="evenodd" clip-rule="evenodd" d="M62.6102 251.814L65.919 249.541L66.2591 251.206L62.6102 251.814Z" fill="white" fill-opacity="0.7"/>
</svg>
