<svg width="134" height="294" viewBox="0 0 134 294" fill="none" xmlns="http://www.w3.org/2000/svg">
<path opacity="0.87" d="M117.949 182.883V209.916C117.949 222.273 116.699 232.829 114.198 241.582C111.697 250.335 108.093 257.507 103.385 263.098C98.6773 268.614 93.0502 272.697 86.5035 275.345C79.9569 277.919 72.6747 279.207 64.657 279.207C58.2575 279.207 52.2993 278.398 46.7825 276.779C41.2657 275.088 36.3006 272.513 31.8871 269.056C27.5473 265.525 23.7958 261.038 20.6329 255.595C17.5434 250.152 15.1528 243.642 13.461 236.065C11.8427 228.489 11.0336 219.772 11.0336 209.916V182.883C11.0336 170.526 12.2841 160.007 14.785 151.327C17.3596 142.647 21.0006 135.549 25.7083 130.032C30.416 124.515 36.0431 120.507 42.5898 118.006C49.1364 115.431 56.4186 114.144 64.4363 114.144C70.9094 114.144 76.8675 114.953 82.3108 116.571C87.8276 118.189 92.7559 120.727 97.0958 124.184C101.509 127.568 105.261 131.982 108.35 137.425C111.44 142.794 113.793 149.268 115.412 156.844C117.103 164.347 117.949 173.027 117.949 182.883ZM88.8206 213.888V178.801C88.8206 172.622 88.4528 167.252 87.7172 162.692C87.0552 158.058 86.0622 154.122 84.7382 150.886C83.4141 147.649 81.7591 145.038 79.773 143.052C77.787 140.992 75.5067 139.484 72.9322 138.528C70.3577 137.572 67.5257 137.094 64.4363 137.094C60.6113 137.094 57.1909 137.866 54.1751 139.411C51.1592 140.882 48.6215 143.236 46.5619 146.472C44.5022 149.709 42.9208 154.012 41.8174 159.382C40.7876 164.678 40.2727 171.151 40.2727 178.801V213.888C40.2727 220.067 40.6037 225.473 41.2657 230.107C42.0013 234.741 43.0311 238.713 44.3551 242.023C45.7527 245.334 47.4078 248.055 49.3203 250.188C51.3063 252.248 53.5866 253.793 56.1611 254.822C58.7356 255.779 61.5676 256.257 64.657 256.257C68.5555 256.257 71.976 255.484 74.9182 253.94C77.9341 252.395 80.4718 249.968 82.5314 246.658C84.5911 243.274 86.1358 238.897 87.1656 233.528C88.2689 228.084 88.8206 221.538 88.8206 213.888Z" fill="#080680"/>
<path fill-rule="evenodd" clip-rule="evenodd" d="M62.3949 229.552C61.7087 228.733 61.2483 227.732 61.337 226.616C61.5927 223.399 66.0714 224.146 66.9289 225.778C67.7864 227.41 67.6448 231.53 66.5146 231.811C66.0638 231.922 65.1085 231.63 64.1389 231.035L64.7111 235.365L61.0977 235.333L62.3949 229.552Z" fill="#915B3C" fill-opacity="0.7"/>
<path fill-rule="evenodd" clip-rule="evenodd" d="M59.7708 225.531C59.6552 225.414 59.593 225.249 59.5394 225.092C59.4837 224.929 59.4296 224.764 59.3932 224.594C59.3204 224.255 59.3233 223.866 59.5673 223.606C59.763 223.397 60.0546 223.305 60.3231 223.287C60.502 223.274 60.6854 223.301 60.8562 223.359C61.0257 223.416 61.1712 223.529 61.3354 223.599C61.3451 223.235 61.4111 222.854 61.5991 222.544C61.78 222.246 62.0656 222.081 62.3896 222.039C62.722 221.996 63.0492 222.077 63.345 222.24C63.419 222.281 63.4924 222.323 63.5625 222.372C63.6212 222.412 63.6822 222.461 63.7513 222.478C63.8285 222.496 63.8672 222.452 63.9179 222.396C63.9774 222.331 64.0443 222.273 64.115 222.222C64.4275 221.997 64.8357 221.907 65.1941 222.047C65.3592 222.111 65.5193 222.219 65.6304 222.368C65.7294 222.5 65.799 222.709 65.9365 222.802C65.9948 222.841 66.0367 222.79 66.0905 222.752C66.1713 222.696 66.2484 222.633 66.3302 222.579C66.445 222.501 66.5691 222.444 66.7017 222.415C66.8958 222.372 67.1634 222.384 67.2164 222.638C67.2363 222.734 67.2195 222.835 67.2119 222.931C67.2014 223.063 67.1906 223.194 67.1779 223.326C67.1683 223.425 67.1565 223.522 67.1367 223.62C67.1262 223.672 67.0938 223.769 67.1157 223.822C67.1432 223.887 67.2729 223.851 67.3282 223.854C67.4373 223.859 67.5468 223.879 67.6473 223.927C67.7252 223.964 67.807 224.018 67.8392 224.107C67.859 224.163 67.8531 224.219 67.843 224.276C67.8309 224.344 67.8437 224.38 67.8517 224.448C67.999 224.377 68.5087 224.222 68.5702 224.485C68.5907 224.572 68.5413 224.671 68.5036 224.744C68.4376 224.873 68.3514 224.99 68.2635 225.102C68.0799 225.336 67.8615 225.537 67.627 225.708C67.8988 225.832 67.9668 226.19 67.7285 226.401C67.6233 226.494 67.4828 226.514 67.3512 226.506C67.3031 226.504 67.2338 226.485 67.1958 226.493C67.1754 226.497 67.1534 226.514 67.1251 226.516C66.9392 226.527 66.73 226.48 66.5488 226.438C66.2259 226.361 65.921 226.206 65.673 225.97C65.6094 225.91 65.5567 225.875 65.4703 225.875C65.3946 225.875 65.3202 225.895 65.2446 225.896C65.0444 225.9 64.865 225.801 64.6798 225.734C64.6661 225.984 64.5921 226.26 64.4873 226.485C64.4019 226.668 64.2269 226.693 64.0549 226.708C63.5051 226.754 62.9543 226.692 62.4042 226.688C62.9356 226.813 63.4854 226.867 64.0118 227.013C64.2498 227.079 64.0661 227.238 63.9631 227.349C63.7935 227.531 63.6665 227.757 63.5777 227.995C63.3203 227.654 62.862 227.426 62.4531 227.527C62.0014 227.638 61.6784 228.244 61.9626 228.684C62.1276 228.94 62.4288 229.04 62.6792 229.152C62.4812 229.354 62.431 229.654 62.3107 229.907C62.2513 230.031 62.1683 230.172 62.0377 230.214C61.9893 230.23 61.9328 230.231 61.8945 230.269C61.847 230.318 61.8352 230.372 61.7747 230.413C61.5333 230.578 61.1587 230.561 60.9481 230.342C60.7576 230.144 60.8105 229.833 60.9729 229.635C60.7182 229.527 60.2538 229.386 60.359 228.989C59.8054 228.947 58.4687 228.038 59.2182 227.389C58.8123 227.155 58.4427 226.589 58.7093 226.095C58.9146 225.714 59.3855 225.548 59.7708 225.531Z" fill="#FF0000" fill-opacity="0.7"/>
<path fill-rule="evenodd" clip-rule="evenodd" d="M64.4768 264.049C68.0817 263.025 71.0006 261.83 73.2336 260.463C75.4666 259.096 77.1348 257.163 78.2382 254.666C74.6853 255.626 71.9344 256.703 69.9855 257.897C68.0366 259.09 66.2004 261.141 64.4768 264.049Z" fill="#CF1F1F" fill-opacity="0.7"/>
<path fill-rule="evenodd" clip-rule="evenodd" d="M76.6572 260.071C76.6002 260.044 76.5454 260.011 76.4933 259.971C75.416 259.135 61.6424 251.441 59.6724 249.699L67.0898 245.158C68.5877 246.483 77.1017 255.338 78.6684 257.185C81.6384 259.794 90.0804 268.964 90.7851 269.526C91.5264 270.117 90.4598 271.859 89.4739 271.178C87.9053 270.094 83.8176 266.941 81.5809 264.856C79.484 262.903 77.6534 261.111 76.6572 260.071Z" fill="#784931" fill-opacity="0.7"/>
<path fill-rule="evenodd" clip-rule="evenodd" d="M71.4663 265.22C68.9201 267.825 58.7443 275.947 58.1203 276.625C57.4784 277.324 55.8147 276.139 56.5635 275.203C57.755 273.714 61.1886 269.858 63.4253 267.772C65.2244 266.095 66.8909 264.604 68.0277 263.633C65.7549 260.163 60.0689 251.977 59.2658 249.949L65.8296 245.931C66.5997 247.876 71.864 262.284 72.1686 263.862C72.2965 264.414 71.9645 264.895 71.4663 265.22Z" fill="#915B3C" fill-opacity="0.7"/>
<path fill-rule="evenodd" clip-rule="evenodd" d="M56.5439 274.675C55.9923 274.874 55.6214 275.058 55.4314 275.226C55.2274 275.406 54.9597 275.703 54.6282 276.117C54.8368 276.353 56.7115 278.472 60.2524 282.474C60.9467 282.154 61.1583 281.798 60.8871 281.403C60.6159 281.008 60.3938 280.678 60.2207 280.411L58.9011 276.2C58.8911 276.168 58.8572 276.15 58.8254 276.16C58.8248 276.16 58.8242 276.161 58.8236 276.161L58.1053 276.41C57.6595 276.217 57.3455 276.017 57.1632 275.811C56.9945 275.621 56.8406 275.269 56.7015 274.757C56.6841 274.693 56.6177 274.655 56.5533 274.672C56.5501 274.673 56.547 274.674 56.5439 274.675Z" fill="#E4E4E4" fill-opacity="0.7"/>
<path fill-rule="evenodd" clip-rule="evenodd" d="M88.9 271.16C89.0005 271.738 89.117 272.135 89.2495 272.352C89.3918 272.584 89.638 272.899 89.988 273.297C90.2566 273.133 92.6703 271.655 97.2292 268.864C97.0351 268.125 96.7201 267.854 96.2842 268.053C95.8483 268.251 95.484 268.413 95.1913 268.537L90.8117 269.104C90.7786 269.109 90.7553 269.139 90.7596 269.172C90.7596 269.173 90.7597 269.173 90.7598 269.174L90.8808 269.924C90.6131 270.33 90.3619 270.604 90.1272 270.748C89.91 270.881 89.537 270.972 89.0082 271.019C88.9417 271.025 88.8927 271.084 88.8987 271.151C88.899 271.154 88.8995 271.157 88.9 271.16Z" fill="#E4E4E4" fill-opacity="0.7"/>
<path fill-rule="evenodd" clip-rule="evenodd" d="M59.2888 249.935C61.6746 247.338 64.4113 245.662 67.4991 244.909C70.9058 248.453 74.0834 248.743 78.3133 254.785C75.2786 259.621 67.6172 259.21 64.4213 264.071C61.3283 261.902 58.7652 253.688 59.2888 249.935Z" fill="#F4FFED"/>
<path fill-rule="evenodd" clip-rule="evenodd" d="M75.3566 243.867L80.2919 247.173C81.6043 247.467 82.707 247.855 83.6 248.339C83.8137 248.517 84.0787 248.886 83.2232 248.858C82.3677 248.829 81.4665 248.838 81.3615 249.134C81.2564 249.43 81.7875 249.755 81.5667 250.158C81.4195 250.427 80.642 249.803 79.2342 248.287L74.4126 246.528L75.3566 243.867ZM56.9068 247.879L59.9931 247.32C59.2264 253.824 58.8019 257.278 58.7198 257.682C58.5349 258.592 59.496 259.748 59.9332 260.384C59.0101 261.021 58.8087 259.332 57.6483 260.158C56.5892 260.913 55.8884 262.053 54.3965 261.475C54.2131 261.404 53.962 261.054 54.3425 260.675C55.2906 259.728 56.6142 258.135 56.7463 257.666C56.9264 257.028 56.9799 253.765 56.9068 247.879Z" fill="#915B3C" fill-opacity="0.7"/>
<path fill-rule="evenodd" clip-rule="evenodd" d="M63.2751 233.309L64.5107 232.853C67.7234 237.938 72.4819 242.217 78.7865 245.691L75.5796 251.486C68.9239 246.11 64.3305 240.142 63.2751 233.309Z" fill="#FF0000" fill-opacity="0.7"/>
<path fill-rule="evenodd" clip-rule="evenodd" d="M60.6795 250.385L72.0428 248.28C68.2257 242.363 65.9032 237.166 65.0753 232.689L61.553 232.813C59.6609 237.647 59.8872 243.125 60.6795 250.385Z" fill="#DDE3E9" fill-opacity="0.7"/>
<path fill-rule="evenodd" clip-rule="evenodd" d="M61.4814 232.829C61.4817 232.828 61.482 232.827 61.4823 232.826L61.7061 232.785C61.9755 232.744 62.3864 232.685 62.9387 232.608L64.2049 234.823C64.8266 237.694 66.4144 243.419 68.9684 251.996L61.5196 253.376C61.6509 253.977 61.7959 254.581 61.9547 255.188L56.4161 256.214C55.515 246.708 57.2024 238.913 61.4783 232.827L61.4814 232.829Z" fill="#CB0000"/>
<path fill-rule="evenodd" clip-rule="evenodd" d="M60.581 245.551C61.4897 249.279 62.5008 251.778 63.6142 253.048L61.5319 253.433C60.9394 250.74 60.6224 248.112 60.581 245.551Z" fill="black" fill-opacity="0.7"/>
<path fill-rule="evenodd" clip-rule="evenodd" d="M62.3404 248.55L65.6975 246.161L66.0135 247.87L62.3404 248.55Z" fill="white" fill-opacity="0.7"/>
</svg>
