<svg width="158" height="283" viewBox="0 0 158 283" fill="none" xmlns="http://www.w3.org/2000/svg">
<path opacity="0.87" d="M111.614 115.909V277H82.3748V150.003L43.6468 162.802V139.19L108.304 115.909H111.614Z" fill="#080680"/>
<path fill-rule="evenodd" clip-rule="evenodd" d="M32.7401 238.062C32.3378 237.188 32.2057 236.219 32.6312 235.294C33.8571 232.629 37.8887 234.423 38.2057 236.031C38.5227 237.638 37.1294 241.099 35.9687 241.045C35.5058 241.023 34.6863 240.528 33.9461 239.771L33.1674 243.596L29.7401 242.634L32.7401 238.062Z" fill="#915B3C" fill-opacity="0.7"/>
<path fill-rule="evenodd" clip-rule="evenodd" d="M31.4213 233.945C31.3443 233.815 31.3332 233.659 31.3278 233.512C31.3222 233.36 31.3187 233.206 31.3336 233.053C31.3632 232.748 31.4804 232.421 31.7916 232.267C32.0412 232.144 32.3486 232.145 32.6121 232.202C32.7877 232.24 32.9562 232.312 33.1035 232.407C33.2496 232.501 33.3565 232.635 33.4936 232.739C33.6101 232.434 33.7855 232.131 34.0574 231.921C34.3189 231.719 34.6422 231.656 34.9659 231.709C35.2982 231.762 35.5891 231.919 35.8255 232.136C35.8847 232.19 35.9427 232.246 35.9959 232.306C36.0404 232.356 36.0848 232.413 36.1463 232.446C36.215 232.483 36.2652 232.456 36.3304 232.422C36.4069 232.383 36.4881 232.353 36.571 232.329C36.9378 232.223 37.3567 232.258 37.6603 232.472C37.8001 232.571 37.9223 232.705 37.9855 232.86C38.0418 232.998 38.0473 233.193 38.1522 233.308C38.1967 233.357 38.2521 233.326 38.3148 233.308C38.4091 233.283 38.5016 233.251 38.5963 233.227C38.7294 233.193 38.8656 233.178 39.0017 233.189C39.201 233.205 39.4545 233.288 39.4309 233.516C39.422 233.602 39.3759 233.683 39.3404 233.762C39.2917 233.87 39.2426 233.978 39.1918 234.085C39.1533 234.167 39.1135 234.245 39.0657 234.322C39.0403 234.363 38.9806 234.436 38.9862 234.486C38.9933 234.549 39.1287 234.554 39.181 234.571C39.2843 234.605 39.3837 234.651 39.4664 234.719C39.5305 234.771 39.5933 234.838 39.5978 234.922C39.6006 234.974 39.5784 235.02 39.552 235.065C39.5204 235.119 39.5221 235.153 39.5096 235.213C39.6721 235.193 40.208 235.199 40.1898 235.438C40.1837 235.517 40.1073 235.587 40.0495 235.638C39.9482 235.729 39.8308 235.805 39.7133 235.875C39.4682 236.023 39.1991 236.133 38.9232 236.214C39.1482 236.392 39.1083 236.712 38.8171 236.825C38.6886 236.875 38.5477 236.854 38.4233 236.812C38.3778 236.797 38.3168 236.762 38.2779 236.759C38.257 236.757 38.2308 236.766 38.2031 236.759C38.0212 236.718 37.8336 236.623 37.672 236.538C37.3839 236.387 37.1365 236.173 36.9673 235.908C36.9239 235.84 36.8835 235.796 36.8004 235.773C36.7276 235.752 36.6501 235.749 36.577 235.73C36.3836 235.679 36.2402 235.547 36.0817 235.441C35.9949 235.648 35.8427 235.86 35.676 236.021C35.54 236.153 35.3643 236.127 35.1946 236.092C34.6522 235.984 34.1409 235.782 33.6132 235.63C34.0874 235.879 34.6001 236.073 35.0633 236.338C35.2727 236.458 35.0494 236.543 34.9179 236.608C34.7013 236.715 34.5127 236.872 34.3572 237.049C34.2101 236.692 33.8363 236.376 33.4136 236.351C32.9465 236.322 32.4578 236.746 32.6017 237.194C32.6852 237.453 32.9452 237.62 33.1533 237.781C32.9035 237.898 32.7669 238.137 32.577 238.318C32.4833 238.407 32.3621 238.503 32.2241 238.503C32.173 238.503 32.1184 238.489 32.0701 238.511C32.0102 238.539 31.983 238.581 31.9127 238.6C31.6322 238.673 31.2768 238.559 31.1387 238.317C31.0138 238.099 31.156 237.851 31.3704 237.728C31.1575 237.568 30.7523 237.324 30.9702 237.017C30.4502 236.833 29.4322 235.706 30.3437 235.361C30.0222 235.055 29.8332 234.478 30.2348 234.134C30.544 233.868 31.0459 233.855 31.4213 233.945Z" fill="#FF0000" fill-opacity="0.7"/>
<path fill-rule="evenodd" clip-rule="evenodd" d="M24.335 267.545C28.0893 267.821 31.2218 267.711 33.7324 267.216C36.2429 266.721 38.3484 265.523 40.0489 263.623C36.3609 263.307 33.4213 263.365 31.2301 263.797C29.0389 264.229 26.7405 265.479 24.335 267.545Z" fill="#CF1F1F" fill-opacity="0.7"/>
<path fill-rule="evenodd" clip-rule="evenodd" d="M36.9682 267.655C36.9228 267.616 36.8809 267.571 36.8432 267.521C36.0628 266.488 25.3811 255.782 24.0049 253.713L31.8083 252.195C32.8546 253.768 38.4894 263.824 39.4747 265.857C41.5536 268.962 47.0487 279.259 47.5555 279.948C48.0886 280.672 46.7094 281.804 45.9756 280.928C44.8081 279.535 41.8435 275.628 40.306 273.19C38.8646 270.903 37.6266 268.835 36.9682 267.655Z" fill="#784931" fill-opacity="0.7"/>
<path fill-rule="evenodd" clip-rule="evenodd" d="M30.6035 271.05C27.5723 272.477 16.0184 276.219 15.2657 276.603C14.4914 276.998 13.2172 275.46 14.1501 274.896C15.6346 273.997 19.8063 271.78 22.4194 270.7C24.5213 269.832 26.4526 269.082 27.759 268.61C26.4713 264.925 23.1284 256.132 22.8697 254.144L30.0238 252.774C30.2719 254.68 31.6958 268.664 31.5961 270.11C31.5813 270.622 31.1513 270.93 30.6035 271.05Z" fill="#915B3C" fill-opacity="0.7"/>
<path fill-rule="evenodd" clip-rule="evenodd" d="M13.2289 274.471C12.6808 274.464 12.301 274.5 12.0894 274.58C11.8623 274.666 11.5505 274.828 11.1538 275.067C11.2899 275.327 12.5127 277.661 14.8223 282.07C15.5279 282.022 15.8023 281.793 15.6456 281.382C15.4888 280.972 15.3622 280.629 15.2655 280.355L15.0273 276.464C15.0255 276.435 14.9986 276.409 14.9674 276.408C14.9668 276.408 14.9662 276.408 14.9656 276.408L14.2542 276.39C13.8923 276.092 13.6519 275.83 13.533 275.603C13.423 275.393 13.3632 275.054 13.3537 274.588C13.3525 274.529 13.3008 274.477 13.2381 274.472C13.235 274.471 13.232 274.471 13.2289 274.471Z" fill="#E4E4E4" fill-opacity="0.7"/>
<path fill-rule="evenodd" clip-rule="evenodd" d="M45.337 280.096C45.2906 280.644 45.3044 281.037 45.3786 281.273C45.4581 281.527 45.6173 281.889 45.856 282.36C46.1557 282.302 48.8494 281.782 53.9369 280.799C53.9331 280.076 53.6964 279.732 53.2269 279.765C52.7575 279.797 52.3662 279.821 52.0532 279.835L47.6901 278.895C47.6571 278.888 47.6271 278.907 47.623 278.938C47.623 278.938 47.6229 278.939 47.6228 278.94L47.5533 279.649C47.1946 279.921 46.8844 280.083 46.6225 280.134C46.3801 280.181 45.998 280.138 45.4763 280.006C45.4107 279.99 45.3489 280.026 45.3382 280.087C45.3377 280.09 45.3373 280.093 45.337 280.096Z" fill="#E4E4E4" fill-opacity="0.7"/>
<path fill-rule="evenodd" clip-rule="evenodd" d="M23.4561 253.974C26.3374 252.502 29.3232 251.93 32.4135 252.259C34.7512 256.368 37.6707 257.617 40.1714 264.124C36.1311 267.308 29.0222 264.54 24.8241 267.694C22.4446 264.862 22.0443 257.021 23.4561 253.974Z" fill="#F4FFED"/>
<path fill-rule="evenodd" clip-rule="evenodd" d="M40.6255 253.809L44.4931 257.882C45.6846 258.484 46.6462 259.107 47.378 259.749C47.5356 259.955 47.6899 260.331 46.8678 260.072C46.0457 259.814 45.169 259.574 44.9847 259.788C44.8003 260.003 45.2248 260.416 44.8984 260.687C44.6807 260.867 44.1001 260.141 43.1565 258.508L38.9684 255.738L40.6255 253.809ZM21.6069 252.042L24.7571 252.43C22.2016 257.567 20.8277 260.29 20.6353 260.6C20.2024 261.297 20.813 262.511 21.0601 263.154C19.987 263.425 20.262 261.981 18.906 262.341C17.6683 262.671 16.6706 263.416 15.3843 262.531C15.2261 262.422 15.0797 262.066 15.5547 261.858C16.7382 261.341 18.4664 260.394 18.725 260.045C19.0776 259.569 20.0382 256.902 21.6069 252.042Z" fill="#915B3C" fill-opacity="0.7"/>
<path fill-rule="evenodd" clip-rule="evenodd" d="M31.9619 241.444L33.312 241.408C35.0442 246.548 38.5324 251.447 43.7767 256.105L38.9639 260.049C33.9123 253.705 31.0663 247.442 31.9619 241.444Z" fill="#FF0000" fill-opacity="0.7"/>
<path fill-rule="evenodd" clip-rule="evenodd" d="M24.7555 255.02L36.6724 256.43C34.563 250.43 33.736 245.448 34.1914 241.483L30.6486 240.606C27.3825 244.111 26.0418 248.744 24.7555 255.02Z" fill="#DDE3E9" fill-opacity="0.7"/>
<path fill-rule="evenodd" clip-rule="evenodd" d="M30.6995 240.654C30.7 240.653 30.7006 240.653 30.7011 240.652L30.9368 240.68C31.2179 240.721 31.6458 240.786 32.2205 240.876L32.851 243.078C32.6482 245.649 32.5926 250.871 32.6842 258.744L24.8376 257.819C24.7964 258.358 24.768 258.902 24.7523 259.454L18.918 258.766C20.7462 250.578 24.6725 244.54 30.6969 240.651L30.6995 240.654Z" fill="#CB0000"/>
<path fill-rule="evenodd" clip-rule="evenodd" d="M26.0012 251.044C25.8336 254.423 26.1383 256.8 26.9152 258.175L24.6401 257.916C24.8277 255.493 25.2814 253.202 26.0012 251.044Z" fill="black" fill-opacity="0.7"/>
<path fill-rule="evenodd" clip-rule="evenodd" d="M26.8965 254.008L30.822 252.965L30.6525 254.458L26.8965 254.008Z" fill="white" fill-opacity="0.7"/>
</svg>
