<svg width="158" height="313" viewBox="0 0 158 313" fill="none" xmlns="http://www.w3.org/2000/svg">
<path opacity="0.87" d="M111.614 115.909V277H82.3748V150.003L43.6468 162.802V139.19L108.304 115.909H111.614Z" fill="#080680"/>
<path fill-rule="evenodd" clip-rule="evenodd" d="M32.7378 231.691C32.3339 230.701 32.2005 229.607 32.6252 228.571C33.8491 225.585 37.887 227.662 38.2063 229.478C38.5256 231.294 37.1353 235.174 35.9733 235.097C35.5099 235.066 34.689 234.497 33.947 233.634L33.1724 237.933L29.7404 236.801L32.7378 231.691Z" fill="#915B3C" fill-opacity="0.7"/>
<path fill-rule="evenodd" clip-rule="evenodd" d="M31.4643 227.061C31.3897 226.915 31.3809 226.738 31.3777 226.572C31.3744 226.4 31.3731 226.226 31.3901 226.054C31.4241 225.709 31.5454 225.339 31.8572 225.165C32.1073 225.026 32.413 225.027 32.6743 225.092C32.8484 225.134 33.0149 225.216 33.16 225.323C33.304 225.429 33.4083 225.581 33.5432 225.698C33.6635 225.354 33.8425 225.011 34.1159 224.773C34.379 224.545 34.7015 224.474 35.0227 224.533C35.3523 224.594 35.6394 224.77 35.8714 225.016C35.9295 225.077 35.9863 225.14 36.0384 225.208C36.082 225.264 36.1252 225.329 36.186 225.366C36.2537 225.407 36.304 225.377 36.3694 225.339C36.446 225.295 36.5273 225.261 36.6101 225.234C36.9764 225.114 37.3926 225.153 37.6914 225.395C37.829 225.507 37.9486 225.659 38.0092 225.834C38.0632 225.99 38.0658 226.21 38.1685 226.34C38.212 226.396 38.2675 226.36 38.3302 226.34C38.4243 226.311 38.5168 226.275 38.6114 226.248C38.7443 226.209 38.8799 226.193 39.0152 226.205C39.2132 226.223 39.4641 226.317 39.4373 226.575C39.4272 226.672 39.3801 226.764 39.3437 226.852C39.2936 226.975 39.2432 227.097 39.1911 227.218C39.1516 227.31 39.1109 227.398 39.0623 227.485C39.0363 227.532 38.9759 227.614 38.9808 227.671C38.9869 227.742 39.1214 227.747 39.1732 227.767C39.2755 227.805 39.3737 227.858 39.455 227.934C39.518 227.992 39.5794 228.069 39.5827 228.164C39.5847 228.223 39.5619 228.275 39.5351 228.325C39.5029 228.386 39.504 228.425 39.4907 228.492C39.6526 228.47 40.1855 228.477 40.164 228.746C40.1568 228.836 40.0798 228.914 40.0215 228.973C39.9194 229.075 39.8015 229.161 39.6836 229.241C39.4377 229.407 39.1684 229.532 38.8928 229.624C39.114 229.824 39.0696 230.186 38.7784 230.314C38.6498 230.371 38.51 230.347 38.3869 230.3C38.3418 230.283 38.2816 230.244 38.243 230.24C38.2222 230.238 38.1961 230.247 38.1686 230.24C37.9882 230.194 37.8031 230.086 37.6435 229.99C37.3593 229.819 37.1163 229.578 36.9519 229.278C36.9097 229.201 36.8701 229.152 36.7878 229.126C36.7157 229.103 36.6387 229.099 36.5663 229.077C36.3747 229.019 36.234 228.87 36.0779 228.75C35.9885 228.985 35.8341 229.225 35.6658 229.407C35.5287 229.555 35.3542 229.526 35.186 229.487C34.6481 229.364 34.1425 229.137 33.6199 228.965C34.0879 229.246 34.5949 229.466 35.0518 229.765C35.2583 229.901 35.035 229.996 34.9032 230.07C34.6862 230.191 34.4964 230.368 34.3391 230.568C34.198 230.164 33.8308 229.808 33.4108 229.779C32.9466 229.748 32.4544 230.226 32.5909 230.732C32.6701 231.026 32.9263 231.214 33.1309 231.396C32.8808 231.528 32.7414 231.799 32.5498 232.002C32.4554 232.103 32.3335 232.211 32.1961 232.212C32.1453 232.212 32.0912 232.196 32.0429 232.221C31.9829 232.253 31.9553 232.301 31.8851 232.321C31.605 232.405 31.2531 232.275 31.1193 232.002C30.9983 231.755 31.1434 231.475 31.3584 231.336C31.149 231.155 30.7496 230.879 30.9708 230.533C30.4562 230.325 29.4601 229.052 30.3718 228.662C30.0565 228.315 29.877 227.664 30.2815 227.274C30.5929 226.975 31.0923 226.959 31.4643 227.061Z" fill="#FF0000" fill-opacity="0.7"/>
<path fill-rule="evenodd" clip-rule="evenodd" d="M24.2081 265.181C27.9535 265.305 31.0979 265.055 33.6413 264.434C36.1847 263.812 38.3625 262.48 40.1746 260.437C36.4979 260.27 33.5496 260.457 31.3298 261C29.11 261.542 26.7361 262.936 24.2081 265.181Z" fill="#CF1F1F" fill-opacity="0.7"/>
<path fill-rule="evenodd" clip-rule="evenodd" d="M37.0215 265.104C36.9753 265.061 36.9332 265.013 36.896 264.958C36.1244 263.835 25.3507 252.309 24.0054 250.049L32.454 247.985C33.4769 249.703 38.8873 260.731 39.8164 262.968C41.85 266.358 47.0959 277.665 47.5959 278.415C48.1218 279.204 46.5751 280.537 45.8437 279.588C44.6799 278.078 41.7477 273.829 40.2525 271.162C38.8508 268.662 37.6534 266.398 37.0215 265.104Z" fill="#784931" fill-opacity="0.7"/>
<path fill-rule="evenodd" clip-rule="evenodd" d="M30.5076 268.426C27.2886 270.132 15.1218 274.766 14.3207 275.222C13.4966 275.691 12.273 274.056 13.2714 273.393C14.8599 272.338 19.3055 269.711 22.0714 268.406C24.2962 267.357 26.3375 266.445 27.7162 265.867C26.609 261.869 23.6881 252.34 23.5414 250.164L31.0176 248.337C31.1583 250.424 31.7813 265.751 31.5905 267.347C31.5441 267.911 31.0811 268.269 30.5076 268.426Z" fill="#915B3C" fill-opacity="0.7"/>
<path fill-rule="evenodd" clip-rule="evenodd" d="M13.4144 272.884C12.8283 272.905 12.4192 272.967 12.187 273.069C11.9377 273.179 11.5922 273.38 11.1505 273.673C11.2773 273.961 12.4171 276.551 14.5698 281.442C15.3284 281.349 15.6387 281.074 15.5006 280.615C15.3626 280.157 15.2518 279.774 15.1682 279.468L15.1948 275.054C15.195 275.021 15.1681 274.994 15.1348 274.994C15.1341 274.993 15.1335 274.994 15.1329 274.994L14.3728 275.012C14.0071 274.692 13.7688 274.406 13.658 274.155C13.5554 273.922 13.5159 273.54 13.5395 273.01C13.5425 272.943 13.4909 272.887 13.4242 272.884C13.4209 272.884 13.4176 272.884 13.4144 272.884Z" fill="#E4E4E4" fill-opacity="0.7"/>
<path fill-rule="evenodd" clip-rule="evenodd" d="M45.3025 279.397C45.2221 279.978 45.212 280.392 45.2723 280.638C45.3371 280.903 45.4755 281.278 45.6875 281.764C45.9935 281.689 48.7427 281.017 53.9353 279.748C53.9757 278.985 53.7581 278.632 53.2824 278.688C52.8068 278.744 52.4106 278.787 52.094 278.815L47.7498 278.021C47.717 278.015 47.6855 278.037 47.6795 278.07C47.6794 278.071 47.6793 278.071 47.6792 278.072L47.5657 278.824C47.1872 279.128 46.8643 279.313 46.597 279.378C46.3495 279.439 45.9667 279.411 45.4484 279.296C45.3833 279.281 45.3187 279.322 45.3042 279.387C45.3035 279.391 45.3029 279.394 45.3025 279.397Z" fill="#E4E4E4" fill-opacity="0.7"/>
<path fill-rule="evenodd" clip-rule="evenodd" d="M23.5676 250.158C26.6316 248.41 29.7488 247.649 32.9193 247.872C35.0836 252.286 38.022 253.53 40.2092 260.574C35.845 264.256 28.6735 261.529 24.1482 265.185C21.8633 262.176 21.9254 253.572 23.5676 250.158Z" fill="#F4FFED"/>
<path fill-rule="evenodd" clip-rule="evenodd" d="M40.7209 249.274L44.4139 253.927C45.5743 254.607 46.5061 255.313 47.2093 256.046C47.3584 256.281 47.4984 256.713 46.6923 256.425C45.8862 256.137 45.0253 255.871 44.835 256.121C44.6447 256.371 45.0513 256.842 44.7182 257.159C44.4962 257.37 43.9457 256.539 43.067 254.666L39.0109 251.521L40.7209 249.274ZM21.9259 247.473L25.0358 247.881C22.3236 253.842 20.8667 257.002 20.6652 257.362C20.2117 258.173 20.7749 259.566 20.9976 260.305C19.9242 260.631 20.247 258.961 18.89 259.394C17.6515 259.79 16.6363 260.663 15.3918 259.657C15.2388 259.533 15.106 259.124 15.5842 258.878C16.7755 258.266 18.5219 257.152 18.7904 256.746C19.1566 256.192 20.2017 253.102 21.9259 247.473Z" fill="#915B3C" fill-opacity="0.7"/>
<path fill-rule="evenodd" clip-rule="evenodd" d="M32.4322 235.537L33.7479 235.479C35.2581 241.301 38.4863 246.827 43.4323 252.057L38.6119 256.599C33.9112 249.45 31.355 242.366 32.4322 235.537Z" fill="#FF0000" fill-opacity="0.7"/>
<path fill-rule="evenodd" clip-rule="evenodd" d="M24.7559 251.009L36.2202 252.467C34.3879 245.668 33.7596 240.011 34.3354 235.495L30.9429 234.54C27.6676 238.567 26.2136 243.854 24.7559 251.009Z" fill="#DDE3E9" fill-opacity="0.7"/>
<path fill-rule="evenodd" clip-rule="evenodd" d="M30.8699 234.533C30.8705 234.532 30.871 234.531 30.8716 234.531L31.0973 234.559C31.3663 234.603 31.7755 234.672 32.3252 234.767L32.8562 237.262C32.5732 240.186 32.341 246.122 32.1595 255.07L24.6445 254.114C24.5865 254.726 24.5405 255.346 24.5066 255.973L18.9188 255.262C20.9574 245.934 24.9403 239.023 30.8675 234.53L30.8699 234.533Z" fill="#CB0000"/>
<path fill-rule="evenodd" clip-rule="evenodd" d="M26.1354 246.376C25.8647 250.203 26.0662 252.892 26.7397 254.44L24.6389 254.173C24.8955 251.427 25.3943 248.828 26.1354 246.376Z" fill="black" fill-opacity="0.7"/>
<path fill-rule="evenodd" clip-rule="evenodd" d="M26.897 249.768L30.8225 248.516L30.6027 250.239L26.897 249.768Z" fill="white" fill-opacity="0.7"/>
<path fill-rule="evenodd" clip-rule="evenodd" d="M32.7378 231.691C32.3339 230.701 32.2005 229.607 32.6252 228.571C33.8491 225.585 37.887 227.662 38.2063 229.478C38.5256 231.294 37.1353 235.174 35.9733 235.097C35.5099 235.066 34.689 234.497 33.947 233.634L33.1724 237.933L29.7404 236.801L32.7378 231.691Z" fill="#915B3C" fill-opacity="0.7"/>
<path fill-rule="evenodd" clip-rule="evenodd" d="M31.4643 227.061C31.3897 226.915 31.3809 226.738 31.3777 226.572C31.3744 226.4 31.3731 226.226 31.3901 226.054C31.4241 225.709 31.5454 225.339 31.8572 225.165C32.1073 225.026 32.413 225.027 32.6743 225.092C32.8484 225.134 33.0149 225.216 33.16 225.323C33.304 225.429 33.4083 225.581 33.5432 225.698C33.6635 225.354 33.8425 225.011 34.1159 224.773C34.379 224.545 34.7015 224.474 35.0227 224.533C35.3523 224.594 35.6394 224.77 35.8714 225.016C35.9295 225.077 35.9863 225.14 36.0384 225.208C36.082 225.264 36.1252 225.329 36.186 225.366C36.2537 225.407 36.304 225.377 36.3694 225.339C36.446 225.295 36.5273 225.261 36.6101 225.234C36.9764 225.114 37.3926 225.153 37.6914 225.395C37.829 225.507 37.9486 225.659 38.0092 225.834C38.0632 225.99 38.0658 226.21 38.1685 226.34C38.212 226.396 38.2675 226.36 38.3302 226.34C38.4243 226.311 38.5168 226.275 38.6114 226.248C38.7443 226.209 38.8799 226.193 39.0152 226.205C39.2132 226.223 39.4641 226.317 39.4373 226.575C39.4272 226.672 39.3801 226.764 39.3437 226.852C39.2936 226.975 39.2432 227.097 39.1911 227.218C39.1516 227.31 39.1109 227.398 39.0623 227.485C39.0363 227.532 38.9759 227.614 38.9808 227.671C38.9869 227.742 39.1214 227.747 39.1732 227.767C39.2755 227.805 39.3737 227.858 39.455 227.934C39.518 227.992 39.5794 228.069 39.5827 228.164C39.5847 228.223 39.5619 228.275 39.5351 228.325C39.5029 228.386 39.504 228.425 39.4907 228.492C39.6526 228.47 40.1855 228.477 40.164 228.746C40.1568 228.836 40.0798 228.914 40.0215 228.973C39.9194 229.075 39.8015 229.161 39.6836 229.241C39.4377 229.407 39.1684 229.532 38.8928 229.624C39.114 229.824 39.0696 230.186 38.7784 230.314C38.6498 230.371 38.51 230.347 38.3869 230.3C38.3418 230.283 38.2816 230.244 38.243 230.24C38.2222 230.238 38.1961 230.247 38.1686 230.24C37.9882 230.194 37.8031 230.086 37.6435 229.99C37.3593 229.819 37.1163 229.578 36.9519 229.278C36.9097 229.201 36.8701 229.152 36.7878 229.126C36.7157 229.103 36.6387 229.099 36.5663 229.077C36.3747 229.019 36.234 228.87 36.0779 228.75C35.9885 228.985 35.8341 229.225 35.6658 229.407C35.5287 229.555 35.3542 229.526 35.186 229.487C34.6481 229.364 34.1425 229.137 33.6199 228.965C34.0879 229.246 34.5949 229.466 35.0518 229.765C35.2583 229.901 35.035 229.996 34.9032 230.07C34.6862 230.191 34.4964 230.368 34.3391 230.568C34.198 230.164 33.8308 229.808 33.4108 229.779C32.9466 229.748 32.4544 230.226 32.5909 230.732C32.6701 231.026 32.9263 231.214 33.1309 231.396C32.8808 231.528 32.7414 231.799 32.5498 232.002C32.4554 232.103 32.3335 232.211 32.1961 232.212C32.1453 232.212 32.0912 232.196 32.0429 232.221C31.9829 232.253 31.9553 232.301 31.8851 232.321C31.605 232.405 31.2531 232.275 31.1193 232.002C30.9983 231.755 31.1434 231.475 31.3584 231.336C31.149 231.155 30.7496 230.879 30.9708 230.533C30.4562 230.325 29.4601 229.052 30.3718 228.662C30.0565 228.315 29.877 227.664 30.2815 227.274C30.5929 226.975 31.0923 226.959 31.4643 227.061Z" fill="#FF0000" fill-opacity="0.7"/>
<path fill-rule="evenodd" clip-rule="evenodd" d="M24.2081 265.181C27.9535 265.305 31.0979 265.055 33.6413 264.434C36.1847 263.812 38.3625 262.48 40.1746 260.437C36.4979 260.27 33.5496 260.457 31.3298 261C29.11 261.542 26.7361 262.936 24.2081 265.181Z" fill="#CF1F1F" fill-opacity="0.7"/>
<path fill-rule="evenodd" clip-rule="evenodd" d="M37.0215 265.104C36.9753 265.061 36.9332 265.013 36.896 264.958C36.1244 263.835 25.3507 252.309 24.0054 250.049L32.454 247.985C33.4769 249.703 38.8873 260.731 39.8164 262.968C41.85 266.358 47.0959 277.665 47.5959 278.415C48.1218 279.204 46.5751 280.537 45.8437 279.588C44.6799 278.078 41.7477 273.829 40.2525 271.162C38.8508 268.662 37.6534 266.398 37.0215 265.104Z" fill="#784931" fill-opacity="0.7"/>
<path fill-rule="evenodd" clip-rule="evenodd" d="M30.5076 268.426C27.2886 270.132 15.1218 274.766 14.3207 275.222C13.4966 275.691 12.273 274.056 13.2714 273.393C14.8599 272.338 19.3055 269.711 22.0714 268.406C24.2962 267.357 26.3375 266.445 27.7162 265.867C26.609 261.869 23.6881 252.34 23.5414 250.164L31.0176 248.337C31.1583 250.424 31.7813 265.751 31.5905 267.347C31.5441 267.911 31.0811 268.269 30.5076 268.426Z" fill="#915B3C" fill-opacity="0.7"/>
<path fill-rule="evenodd" clip-rule="evenodd" d="M13.4144 272.884C12.8283 272.905 12.4192 272.967 12.187 273.069C11.9377 273.179 11.5922 273.38 11.1505 273.673C11.2773 273.961 12.4171 276.551 14.5698 281.442C15.3284 281.349 15.6387 281.074 15.5006 280.615C15.3626 280.157 15.2518 279.774 15.1682 279.468L15.1948 275.054C15.195 275.021 15.1681 274.994 15.1348 274.994C15.1341 274.993 15.1335 274.994 15.1329 274.994L14.3728 275.012C14.0071 274.692 13.7688 274.406 13.658 274.155C13.5554 273.922 13.5159 273.54 13.5395 273.01C13.5425 272.943 13.4909 272.887 13.4242 272.884C13.4209 272.884 13.4176 272.884 13.4144 272.884Z" fill="#E4E4E4" fill-opacity="0.7"/>
<path fill-rule="evenodd" clip-rule="evenodd" d="M45.3025 279.397C45.2221 279.978 45.212 280.392 45.2723 280.638C45.3371 280.903 45.4755 281.278 45.6875 281.764C45.9935 281.689 48.7427 281.017 53.9353 279.748C53.9757 278.985 53.7581 278.632 53.2824 278.688C52.8068 278.744 52.4106 278.787 52.094 278.815L47.7498 278.021C47.717 278.015 47.6855 278.037 47.6795 278.07C47.6794 278.071 47.6793 278.071 47.6792 278.072L47.5657 278.824C47.1872 279.128 46.8643 279.313 46.597 279.378C46.3495 279.439 45.9667 279.411 45.4484 279.296C45.3833 279.281 45.3187 279.322 45.3042 279.387C45.3035 279.391 45.3029 279.394 45.3025 279.397Z" fill="#E4E4E4" fill-opacity="0.7"/>
<path fill-rule="evenodd" clip-rule="evenodd" d="M23.5676 250.158C26.6316 248.41 29.7488 247.649 32.9193 247.872C35.0836 252.286 38.022 253.53 40.2092 260.574C35.845 264.256 28.6735 261.529 24.1482 265.185C21.8633 262.176 21.9254 253.572 23.5676 250.158Z" fill="#F4FFED"/>
<path fill-rule="evenodd" clip-rule="evenodd" d="M40.7209 249.274L44.4139 253.927C45.5743 254.607 46.5061 255.313 47.2093 256.046C47.3584 256.281 47.4984 256.713 46.6923 256.425C45.8862 256.137 45.0253 255.871 44.835 256.121C44.6447 256.371 45.0513 256.842 44.7182 257.159C44.4962 257.37 43.9457 256.539 43.067 254.666L39.0109 251.521L40.7209 249.274ZM21.9259 247.473L25.0358 247.881C22.3236 253.842 20.8667 257.002 20.6652 257.362C20.2117 258.173 20.7749 259.566 20.9976 260.305C19.9242 260.631 20.247 258.961 18.89 259.394C17.6515 259.79 16.6363 260.663 15.3918 259.657C15.2388 259.533 15.106 259.124 15.5842 258.878C16.7755 258.266 18.5219 257.152 18.7904 256.746C19.1566 256.192 20.2017 253.102 21.9259 247.473Z" fill="#915B3C" fill-opacity="0.7"/>
<path fill-rule="evenodd" clip-rule="evenodd" d="M32.4322 235.537L33.7479 235.479C35.2581 241.301 38.4863 246.827 43.4323 252.057L38.6119 256.599C33.9112 249.45 31.355 242.366 32.4322 235.537Z" fill="#FF0000" fill-opacity="0.7"/>
<path fill-rule="evenodd" clip-rule="evenodd" d="M24.7559 251.009L36.2202 252.467C34.3879 245.668 33.7596 240.011 34.3354 235.495L30.9429 234.54C27.6676 238.567 26.2136 243.854 24.7559 251.009Z" fill="#DDE3E9" fill-opacity="0.7"/>
<path fill-rule="evenodd" clip-rule="evenodd" d="M30.8699 234.533C30.8705 234.532 30.871 234.531 30.8716 234.531L31.0973 234.559C31.3663 234.603 31.7755 234.672 32.3252 234.767L32.8562 237.262C32.5732 240.186 32.341 246.122 32.1595 255.07L24.6445 254.114C24.5865 254.726 24.5405 255.346 24.5066 255.973L18.9188 255.262C20.9574 245.934 24.9403 239.023 30.8675 234.53L30.8699 234.533Z" fill="#CB0000"/>
<path fill-rule="evenodd" clip-rule="evenodd" d="M26.1354 246.376C25.8647 250.203 26.0662 252.892 26.7397 254.44L24.6389 254.173C24.8955 251.427 25.3943 248.828 26.1354 246.376Z" fill="black" fill-opacity="0.7"/>
<path fill-rule="evenodd" clip-rule="evenodd" d="M26.897 249.768L30.8225 248.516L30.6027 250.239L26.897 249.768Z" fill="white" fill-opacity="0.7"/>
</svg>
