<svg width="140" height="285" viewBox="0 0 140 285" fill="none" xmlns="http://www.w3.org/2000/svg">
<path opacity="0.87" d="M120.377 254.05V277H11.5853V257.36L63.7743 200.978C69.2175 194.8 73.5207 189.43 76.6836 184.869C79.8466 180.309 82.0901 176.19 83.4141 172.512C84.8117 168.76 85.5105 165.193 85.5105 161.809C85.5105 156.881 84.6278 152.578 82.8625 148.9C81.0971 145.148 78.5226 142.243 75.1389 140.183C71.8288 138.124 67.7464 137.094 62.8916 137.094C57.5219 137.094 52.9246 138.344 49.0996 140.845C45.3482 143.273 42.4794 146.656 40.4934 150.996C38.5809 155.336 37.6246 160.301 37.6246 165.891H8.38555C8.38555 156.403 10.5923 147.76 15.0057 139.962C19.4192 132.092 25.7451 125.803 33.9835 121.095C42.222 116.387 52.0051 114.033 63.333 114.033C74.3666 114.033 83.7084 115.872 91.3583 119.55C99.0083 123.155 104.819 128.304 108.791 134.997C112.764 141.691 114.75 149.672 114.75 158.94C114.75 164.089 113.904 169.165 112.212 174.167C110.52 179.169 108.129 184.134 105.04 189.062C102.024 193.917 98.4198 198.845 94.2271 203.847C90.0343 208.849 85.3634 213.961 80.2144 219.184L48.8789 254.05H120.377Z" fill="#080680"/>
<path fill-rule="evenodd" clip-rule="evenodd" d="M65.4064 235.04C64.7073 234.268 64.2276 233.334 64.2887 232.303C64.4649 229.335 68.9167 230.115 69.8048 231.641C70.6928 233.167 70.6512 236.973 69.539 237.21C69.0954 237.304 68.1426 237.015 67.1685 236.445L67.8386 240.46L64.2605 240.359L65.4064 235.04Z" fill="#915B3C" fill-opacity="0.7"/>
<path fill-rule="evenodd" clip-rule="evenodd" d="M62.7724 231.251C62.6545 231.142 62.5887 230.99 62.5316 230.845C62.4723 230.695 62.4146 230.544 62.3743 230.388C62.2938 230.077 62.2874 229.722 62.524 229.489C62.7137 229.302 63.0017 229.224 63.2684 229.213C63.4462 229.206 63.6293 229.233 63.8006 229.29C63.9707 229.345 64.1182 229.451 64.2832 229.519C64.2841 229.186 64.3407 228.84 64.5204 228.561C64.6934 228.293 64.9736 228.147 65.2949 228.116C65.6247 228.083 65.9522 228.163 66.2504 228.318C66.3251 228.357 66.3991 228.398 66.47 228.443C66.5294 228.481 66.5912 228.527 66.6604 228.544C66.7376 228.562 66.7751 228.523 66.8242 228.473C66.8819 228.414 66.9471 228.363 67.0162 228.318C67.3218 228.118 67.7258 228.044 68.0857 228.179C68.2516 228.241 68.4135 228.343 68.5276 228.481C68.6292 228.604 68.7035 228.796 68.8425 228.883C68.9014 228.92 68.9419 228.874 68.9946 228.841C69.0736 228.791 69.1489 228.736 69.2289 228.688C69.3413 228.619 69.4634 228.57 69.5947 228.545C69.7868 228.51 70.0533 228.527 70.1122 228.76C70.1343 228.847 70.1199 228.94 70.1146 229.027C70.1074 229.147 70.0998 229.267 70.0903 229.387C70.0831 229.478 70.0736 229.565 70.0563 229.654C70.047 229.702 70.0171 229.79 70.0402 229.838C70.0691 229.899 70.1973 229.868 70.2524 229.872C70.3611 229.879 70.4705 229.9 70.5717 229.945C70.6501 229.98 70.7327 230.031 70.7669 230.114C70.7879 230.164 70.7834 230.216 70.7747 230.267C70.7643 230.329 70.7779 230.362 70.7875 230.425C70.9324 230.363 71.4358 230.231 71.5033 230.473C71.5258 230.553 71.479 230.642 71.4432 230.708C71.3806 230.824 71.2977 230.93 71.2128 231.03C71.0357 231.24 70.8232 231.419 70.5939 231.571C70.8673 231.689 70.9435 232.017 70.7114 232.205C70.6089 232.288 70.4696 232.303 70.3385 232.294C70.2906 232.29 70.2212 232.272 70.1836 232.278C70.1633 232.282 70.1419 232.297 70.1138 232.298C69.9291 232.304 69.7197 232.258 69.5384 232.215C69.2153 232.139 68.9082 231.99 68.6558 231.771C68.5911 231.714 68.5378 231.681 68.4519 231.68C68.3766 231.678 68.303 231.695 68.2278 231.695C68.0287 231.694 67.8477 231.599 67.6619 231.535C67.6543 231.763 67.5872 232.013 67.4883 232.216C67.4077 232.382 67.2341 232.401 67.0633 232.411C66.5173 232.443 65.9678 232.375 65.4204 232.36C65.9521 232.485 66.5004 232.545 67.0277 232.689C67.2661 232.754 67.0872 232.896 66.9873 232.995C66.8228 233.157 66.7019 233.361 66.6192 233.577C66.355 233.26 65.8935 233.043 65.489 233.127C65.0422 233.219 64.7353 233.766 65.0285 234.174C65.1988 234.41 65.5009 234.508 65.7528 234.615C65.5605 234.795 65.5178 235.069 65.404 235.296C65.3479 235.409 65.2686 235.536 65.1397 235.572C65.092 235.585 65.0358 235.585 64.9985 235.619C64.9524 235.662 64.942 235.712 64.8828 235.748C64.6465 235.893 64.2733 235.871 64.0585 235.667C63.8643 235.482 63.9095 235.199 64.0664 235.022C63.8104 234.918 63.3449 234.779 63.4401 234.419C62.8883 234.37 61.5365 233.513 62.2668 232.936C61.8574 232.714 61.476 232.19 61.7296 231.744C61.9248 231.401 62.3894 231.258 62.7724 231.251Z" fill="#FF0000" fill-opacity="0.7"/>
<path fill-rule="evenodd" clip-rule="evenodd" d="M67.5356 267.311C71.1445 266.409 74.0579 265.328 76.2758 264.067C78.4936 262.807 80.1285 260.992 81.1805 258.623C77.6224 259.465 74.8755 260.437 72.9398 261.537C71.0041 262.637 69.2027 264.562 67.5356 267.311Z" fill="#CF1F1F" fill-opacity="0.7"/>
<path fill-rule="evenodd" clip-rule="evenodd" d="M79.639 263.657C79.5823 263.631 79.5276 263.599 79.4754 263.56C78.395 262.758 64.653 255.28 62.6724 253.611L69.8681 249.531C71.374 250.8 79.9651 259.249 81.5511 261.007C84.5367 263.506 93.0643 272.247 93.7714 272.787C94.5152 273.355 93.5061 274.957 92.5194 274.3C90.9495 273.255 86.8507 270.224 84.5994 268.23C82.4889 266.362 80.6443 264.65 79.639 263.657Z" fill="#784931" fill-opacity="0.7"/>
<path fill-rule="evenodd" clip-rule="evenodd" d="M74.5038 268.691C72.0321 271.089 62.0994 278.517 61.4946 279.143C60.8725 279.787 59.1887 278.635 59.9116 277.77C61.0618 276.393 64.3867 272.835 66.5629 270.92C68.3132 269.379 69.9361 268.012 71.0442 267.122C68.6998 263.804 62.8464 255.972 61.9989 254.044L68.435 250.401C69.2476 252.25 74.8296 265.934 75.1704 267.427C75.3108 267.949 74.9919 268.396 74.5038 268.691Z" fill="#915B3C" fill-opacity="0.7"/>
<path fill-rule="evenodd" clip-rule="evenodd" d="M59.485 277.287C58.9454 277.459 58.5839 277.621 58.4004 277.773C58.2034 277.936 57.9464 278.205 57.6292 278.582C57.8408 278.805 59.7418 280.81 63.3325 284.598C64.01 284.317 64.2102 283.991 63.933 283.619C63.6559 283.247 63.4288 282.936 63.2516 282.685L61.8479 278.751C61.8373 278.722 61.8034 278.705 61.7722 278.713C61.7716 278.713 61.7711 278.713 61.7705 278.714L61.0676 278.929C60.6231 278.74 60.3084 278.548 60.1235 278.354C59.9524 278.173 59.7921 277.844 59.6425 277.366C59.6237 277.306 59.5573 277.269 59.4942 277.284C59.4911 277.285 59.488 277.286 59.485 277.287Z" fill="#E4E4E4" fill-opacity="0.7"/>
<path fill-rule="evenodd" clip-rule="evenodd" d="M91.9146 273.953C92.0292 274.506 92.1556 274.886 92.2939 275.095C92.4423 275.32 92.6972 275.625 93.0583 276.013C93.3243 275.862 95.7149 274.505 100.23 271.943C100.018 271.235 99.6947 270.97 99.2613 271.15C98.828 271.33 98.4657 271.476 98.1745 271.588L93.7871 272.034C93.7539 272.038 93.7312 272.066 93.7363 272.098C93.7364 272.098 93.7365 272.099 93.7366 272.1L93.8758 272.817C93.6164 273.198 93.3705 273.454 93.1381 273.586C92.9229 273.708 92.5502 273.786 92.02 273.821C91.9533 273.825 91.9055 273.88 91.9131 273.943C91.9135 273.947 91.914 273.95 91.9146 273.953Z" fill="#E4E4E4" fill-opacity="0.7"/>
<path fill-rule="evenodd" clip-rule="evenodd" d="M62.2441 253.953C64.5571 251.558 67.2415 250.038 70.2974 249.396C73.773 252.809 76.9432 253.15 81.298 258.935C78.3923 263.425 70.7558 262.872 67.6902 267.382C64.5596 265.272 61.8122 257.477 62.2441 253.953Z" fill="#F4FFED"/>
<path fill-rule="evenodd" clip-rule="evenodd" d="M78.159 248.368L83.137 251.649C84.4492 251.958 85.5544 252.353 86.4529 252.836C86.6691 253.012 86.9402 253.373 86.0881 253.329C85.2361 253.285 84.3393 253.276 84.2407 253.56C84.142 253.843 84.6771 254.167 84.4653 254.551C84.3242 254.807 83.5379 254.191 82.1065 252.703L77.2725 250.915L78.159 248.368ZM59.8756 251.883L62.9363 251.403C62.3027 257.657 61.949 260.979 61.8753 261.367C61.7094 262.241 62.6891 263.373 63.1369 263.994C62.2307 264.591 61.9966 262.959 60.8582 263.733C59.819 264.44 59.1442 265.526 57.6479 264.94C57.4639 264.868 57.207 264.527 57.5782 264.168C58.5029 263.274 59.7887 261.763 59.9108 261.314C60.0773 260.702 60.0655 257.558 59.8756 251.883Z" fill="#915B3C" fill-opacity="0.7"/>
<path fill-rule="evenodd" clip-rule="evenodd" d="M66.2809 238.342L67.4803 237.934C70.7214 242.809 75.4585 246.95 81.6916 250.358L78.6691 255.785C72.0553 250.57 67.4467 244.832 66.2809 238.342Z" fill="#FF0000" fill-opacity="0.7"/>
<path fill-rule="evenodd" clip-rule="evenodd" d="M63.9475 254.569L75.0428 252.795C71.1858 247.138 68.8077 242.189 67.9085 237.948L64.459 237.999C62.6994 242.526 63.0286 247.702 63.9475 254.569Z" fill="#DDE3E9" fill-opacity="0.7"/>
<path fill-rule="evenodd" clip-rule="evenodd" d="M64.2456 238.074C64.2459 238.073 64.2461 238.072 64.2464 238.072L64.4644 238.037C64.727 238.004 65.1275 237.956 65.6659 237.893L66.9472 240.005C67.6111 242.723 69.2755 248.149 71.9402 256.283L64.6849 257.444C64.825 258.013 64.9786 258.585 65.1457 259.161L59.751 260.025C58.6841 251.047 60.1812 243.729 64.2424 238.072L64.2456 238.074Z" fill="#CB0000"/>
<path fill-rule="evenodd" clip-rule="evenodd" d="M63.5585 250.017C64.5025 253.529 65.521 255.89 66.6142 257.1L64.6227 257.423C64.0023 254.887 63.6475 252.419 63.5585 250.017Z" fill="black" fill-opacity="0.7"/>
<path fill-rule="evenodd" clip-rule="evenodd" d="M65.3733 252.852L68.6656 250.617L69.014 252.268L65.3733 252.852Z" fill="white" fill-opacity="0.7"/>
</svg>
