<svg width="140" height="296" viewBox="0 0 140 296" fill="none" xmlns="http://www.w3.org/2000/svg">
<path opacity="0.87" d="M120.377 254.05V277H11.5853V257.36L63.7743 200.978C69.2175 194.8 73.5207 189.43 76.6836 184.869C79.8466 180.309 82.0901 176.19 83.4141 172.512C84.8117 168.76 85.5105 165.193 85.5105 161.809C85.5105 156.881 84.6278 152.578 82.8625 148.9C81.0971 145.148 78.5226 142.243 75.1389 140.183C71.8288 138.124 67.7464 137.094 62.8916 137.094C57.5219 137.094 52.9246 138.344 49.0996 140.845C45.3482 143.273 42.4794 146.656 40.4934 150.996C38.5809 155.336 37.6246 160.301 37.6246 165.891H8.38555C8.38555 156.403 10.5923 147.76 15.0057 139.962C19.4192 132.092 25.7451 125.803 33.9835 121.095C42.222 116.387 52.0051 114.033 63.333 114.033C74.3666 114.033 83.7084 115.872 91.3583 119.55C99.0083 123.155 104.819 128.304 108.791 134.997C112.764 141.691 114.75 149.672 114.75 158.94C114.75 164.089 113.904 169.165 112.212 174.167C110.52 179.169 108.129 184.134 105.04 189.062C102.024 193.917 98.4198 198.845 94.2271 203.847C90.0343 208.849 85.3634 213.961 80.2144 219.184L48.8789 254.05H120.377Z" fill="#080680"/>
<path fill-rule="evenodd" clip-rule="evenodd" d="M65.3949 225.552C64.7087 224.733 64.2483 223.732 64.337 222.616C64.5927 219.399 69.0714 220.146 69.9289 221.778C70.7864 223.41 70.6448 227.53 69.5146 227.81C69.0638 227.922 68.1085 227.63 67.1389 227.035L67.7111 231.365L64.0977 231.333L65.3949 225.552Z" fill="#915B3C" fill-opacity="0.7"/>
<path fill-rule="evenodd" clip-rule="evenodd" d="M62.7708 221.531C62.6552 221.414 62.593 221.249 62.5394 221.092C62.4837 220.929 62.4296 220.764 62.3932 220.594C62.3204 220.255 62.3233 219.866 62.5673 219.606C62.763 219.397 63.0546 219.305 63.3231 219.286C63.502 219.274 63.6854 219.301 63.8562 219.359C64.0257 219.416 64.1712 219.529 64.3354 219.599C64.3451 219.235 64.4111 218.854 64.5991 218.544C64.78 218.246 65.0656 218.08 65.3896 218.039C65.722 217.996 66.0492 218.077 66.345 218.24C66.419 218.281 66.4924 218.323 66.5625 218.372C66.6212 218.412 66.6822 218.461 66.7513 218.478C66.8285 218.496 66.8672 218.452 66.9179 218.396C66.9774 218.331 67.0443 218.273 67.115 218.222C67.4275 217.997 67.8357 217.907 68.1941 218.047C68.3592 218.111 68.5193 218.219 68.6304 218.368C68.7294 218.5 68.799 218.709 68.9365 218.801C68.9948 218.841 69.0367 218.79 69.0905 218.752C69.1713 218.696 69.2484 218.633 69.3302 218.578C69.445 218.501 69.5691 218.444 69.7017 218.415C69.8958 218.372 70.1634 218.384 70.2164 218.638C70.2363 218.734 70.2195 218.835 70.2119 218.931C70.2014 219.063 70.1906 219.194 70.1779 219.326C70.1683 219.425 70.1565 219.522 70.1367 219.62C70.1262 219.672 70.0938 219.769 70.1157 219.821C70.1432 219.887 70.2729 219.851 70.3282 219.854C70.4373 219.859 70.5468 219.879 70.6473 219.927C70.7252 219.964 70.807 220.018 70.8392 220.107C70.859 220.163 70.8531 220.219 70.843 220.276C70.8309 220.343 70.8437 220.38 70.8517 220.448C70.999 220.377 71.5087 220.222 71.5702 220.485C71.5907 220.572 71.5413 220.671 71.5036 220.744C71.4376 220.873 71.3514 220.99 71.2635 221.102C71.0799 221.336 70.8615 221.537 70.627 221.708C70.8988 221.832 70.9668 222.19 70.7285 222.401C70.6233 222.494 70.4828 222.513 70.3512 222.506C70.3031 222.504 70.2338 222.485 70.1958 222.493C70.1754 222.497 70.1534 222.514 70.1251 222.516C69.9392 222.527 69.73 222.48 69.5488 222.437C69.2259 222.361 68.921 222.206 68.673 221.97C68.6094 221.91 68.5567 221.875 68.4703 221.875C68.3946 221.875 68.3202 221.895 68.2446 221.896C68.0444 221.9 67.865 221.8 67.6798 221.734C67.6661 221.984 67.5921 222.26 67.4873 222.485C67.4019 222.668 67.2269 222.693 67.0549 222.708C66.5051 222.754 65.9543 222.692 65.4042 222.688C65.9356 222.813 66.4854 222.867 67.0118 223.013C67.2498 223.079 67.0661 223.238 66.9631 223.349C66.7935 223.531 66.6665 223.757 66.5777 223.995C66.3203 223.654 65.862 223.426 65.4531 223.527C65.0014 223.638 64.6784 224.244 64.9626 224.684C65.1276 224.94 65.4288 225.04 65.6792 225.152C65.4812 225.354 65.431 225.654 65.3107 225.907C65.2513 226.031 65.1683 226.172 65.0377 226.214C64.9893 226.23 64.9328 226.231 64.8945 226.269C64.847 226.318 64.8352 226.372 64.7747 226.413C64.5333 226.577 64.1587 226.561 63.9481 226.342C63.7576 226.144 63.8105 225.833 63.9729 225.635C63.7182 225.527 63.2538 225.386 63.359 224.989C62.8054 224.947 61.4687 224.038 62.2182 223.389C61.8123 223.155 61.4427 222.589 61.7093 222.095C61.9146 221.714 62.3855 221.548 62.7708 221.531Z" fill="#FF0000" fill-opacity="0.7"/>
<path fill-rule="evenodd" clip-rule="evenodd" d="M67.4768 260.049C71.0817 259.025 74.0006 257.83 76.2336 256.463C78.4666 255.095 80.1348 253.163 81.2382 250.665C77.6853 251.626 74.9344 252.703 72.9855 253.897C71.0366 255.09 69.2004 257.141 67.4768 260.049Z" fill="#CF1F1F" fill-opacity="0.7"/>
<path fill-rule="evenodd" clip-rule="evenodd" d="M79.6572 256.07C79.6002 256.044 79.5454 256.011 79.4933 255.971C78.416 255.135 64.6424 247.441 62.6724 245.699L70.0898 241.158C71.5877 242.482 80.1017 251.338 81.6684 253.185C84.6384 255.794 93.0804 264.964 93.7851 265.526C94.5264 266.117 93.4598 267.859 92.4739 267.177C90.9053 266.094 86.8176 262.94 84.5809 260.856C82.484 258.903 80.6534 257.111 79.6572 256.07Z" fill="#784931" fill-opacity="0.7"/>
<path fill-rule="evenodd" clip-rule="evenodd" d="M74.4663 261.22C71.9201 263.825 61.7443 271.947 61.1203 272.626C60.4784 273.324 58.8147 272.139 59.5635 271.203C60.755 269.714 64.1886 265.858 66.4253 263.772C68.2244 262.095 69.8909 260.604 71.0277 259.633C68.7549 256.163 63.0689 247.978 62.2658 245.949L68.8296 241.931C69.5997 243.876 74.864 258.284 75.1686 259.862C75.2965 260.414 74.9645 260.896 74.4663 261.22Z" fill="#915B3C" fill-opacity="0.7"/>
<path fill-rule="evenodd" clip-rule="evenodd" d="M59.5439 270.675C58.9923 270.874 58.6214 271.058 58.4314 271.226C58.2274 271.406 57.9597 271.703 57.6282 272.117C57.8368 272.352 59.7115 274.471 63.2524 278.474C63.9467 278.154 64.1583 277.797 63.8871 277.403C63.6159 277.008 63.3938 276.678 63.2207 276.411L61.9011 272.2C61.8911 272.168 61.8572 272.15 61.8254 272.16C61.8248 272.16 61.8242 272.16 61.8236 272.161L61.1053 272.41C60.6595 272.217 60.3455 272.017 60.1632 271.811C59.9945 271.621 59.8406 271.269 59.7015 270.757C59.6841 270.693 59.6177 270.655 59.5533 270.672C59.5501 270.673 59.547 270.674 59.5439 270.675Z" fill="#E4E4E4" fill-opacity="0.7"/>
<path fill-rule="evenodd" clip-rule="evenodd" d="M91.9 267.16C92.0005 267.738 92.117 268.135 92.2495 268.352C92.3918 268.584 92.638 268.899 92.988 269.297C93.2566 269.133 95.6703 267.655 100.229 264.864C100.035 264.125 99.7201 263.854 99.2842 264.053C98.8483 264.251 98.484 264.413 98.1913 264.537L93.8117 265.104C93.7786 265.109 93.7553 265.139 93.7596 265.172C93.7596 265.173 93.7597 265.173 93.7598 265.174L93.8808 265.924C93.6131 266.33 93.3619 266.604 93.1272 266.748C92.91 266.881 92.537 266.972 92.0082 267.019C91.9417 267.025 91.8927 267.084 91.8987 267.151C91.899 267.154 91.8995 267.157 91.9 267.16Z" fill="#E4E4E4" fill-opacity="0.7"/>
<path fill-rule="evenodd" clip-rule="evenodd" d="M62.2888 245.935C64.6746 243.338 67.4113 241.662 70.4991 240.909C73.9058 244.453 77.0834 244.743 81.3133 250.785C78.2786 255.621 70.6172 255.21 67.4213 260.071C64.3283 257.902 61.7652 249.687 62.2888 245.935Z" fill="#F4FFED"/>
<path fill-rule="evenodd" clip-rule="evenodd" d="M78.3566 239.867L83.2919 243.173C84.6043 243.467 85.707 243.855 86.6 244.339C86.8137 244.517 87.0787 244.886 86.2232 244.858C85.3677 244.829 84.4665 244.838 84.3615 245.134C84.2564 245.43 84.7875 245.755 84.5667 246.158C84.4195 246.427 83.642 245.803 82.2342 244.287L77.4126 242.528L78.3566 239.867ZM59.9068 243.879L62.9931 243.32C62.2264 249.824 61.8019 253.278 61.7198 253.682C61.5349 254.592 62.496 255.748 62.9332 256.384C62.0101 257.021 61.8087 255.332 60.6483 256.158C59.5892 256.913 58.8884 258.053 57.3965 257.475C57.2131 257.404 56.962 257.054 57.3425 256.675C58.2906 255.728 59.6142 254.135 59.7463 253.666C59.9264 253.028 59.9799 249.765 59.9068 243.879Z" fill="#915B3C" fill-opacity="0.7"/>
<path fill-rule="evenodd" clip-rule="evenodd" d="M66.2751 229.309L67.5107 228.853C70.7234 233.938 75.4819 238.217 81.7865 241.691L78.5796 247.486C71.9239 242.109 67.3305 236.142 66.2751 229.309Z" fill="#FF0000" fill-opacity="0.7"/>
<path fill-rule="evenodd" clip-rule="evenodd" d="M63.6795 246.384L75.0428 244.28C71.2257 238.363 68.9032 233.166 68.0753 228.689L64.553 228.813C62.6609 233.647 62.8872 239.125 63.6795 246.384Z" fill="#DDE3E9" fill-opacity="0.7"/>
<path fill-rule="evenodd" clip-rule="evenodd" d="M64.4814 228.829C64.4817 228.828 64.482 228.827 64.4823 228.826L64.7061 228.785C64.9755 228.744 65.3864 228.685 65.9387 228.608L67.2049 230.823C67.8266 233.694 69.4144 239.419 71.9684 247.996L64.5196 249.376C64.6509 249.977 64.7959 250.581 64.9547 251.188L59.4161 252.214C58.515 242.708 60.2024 234.913 64.4783 228.827L64.4814 228.829Z" fill="#CB0000"/>
<path fill-rule="evenodd" clip-rule="evenodd" d="M63.581 241.551C64.4897 245.279 65.5008 247.778 66.6142 249.048L64.5319 249.433C63.9394 246.74 63.6224 244.112 63.581 241.551Z" fill="black" fill-opacity="0.7"/>
<path fill-rule="evenodd" clip-rule="evenodd" d="M65.3404 244.55L68.6975 242.161L69.0135 243.869L65.3404 244.55Z" fill="white" fill-opacity="0.7"/>
</svg>
