<svg width="136" height="280" viewBox="0 0 136 280" fill="none" xmlns="http://www.w3.org/2000/svg">
<path opacity="0.87" d="M43.4724 183.766H59.9125C65.7236 183.766 70.5048 182.773 74.2562 180.787C78.0812 178.727 80.9132 175.932 82.7521 172.401C84.6646 168.797 85.6209 164.641 85.6209 159.933C85.6209 155.299 84.7749 151.29 83.0831 147.907C81.3913 144.449 78.8168 141.801 75.3596 139.962C71.976 138.05 67.6361 137.094 62.3399 137.094C58.0736 137.094 54.1383 137.94 50.534 139.631C47.0032 141.323 44.1712 143.751 42.0381 146.914C39.9785 150.003 38.9487 153.718 38.9487 158.058H9.70958C9.70958 149.378 11.9899 141.765 16.5504 135.218C21.1845 128.598 27.4369 123.412 35.3076 119.661C43.1782 115.909 51.9683 114.033 61.6779 114.033C72.2702 114.033 81.5384 115.799 89.4826 119.33C97.5004 122.787 103.716 127.899 108.129 134.666C112.616 141.434 114.86 149.819 114.86 159.823C114.86 164.604 113.72 169.385 111.44 174.167C109.233 178.874 105.959 183.141 101.62 186.966C97.3533 190.717 92.0939 193.77 85.8415 196.124C79.6627 198.404 72.5644 199.544 64.5467 199.544H43.4724V183.766ZM43.4724 206.275V190.717H64.5467C73.5942 190.717 81.4281 191.784 88.0483 193.917C94.742 195.976 100.259 198.919 104.599 202.744C108.939 206.495 112.138 210.872 114.198 215.874C116.331 220.876 117.398 226.245 117.398 231.983C117.398 239.486 116 246.179 113.205 252.064C110.41 257.875 106.474 262.803 101.399 266.849C96.397 270.895 90.5124 273.984 83.7451 276.117C76.9779 278.177 69.6589 279.207 61.7882 279.207C54.9474 279.207 48.2905 278.287 41.8174 276.448C35.4179 274.536 29.6436 271.704 24.4946 267.952C19.3456 264.127 15.2632 259.346 12.2473 253.609C9.23146 247.798 7.72353 241.067 7.72353 233.417H36.9626C36.9626 237.831 38.0292 241.766 40.1624 245.223C42.3691 248.68 45.3849 251.402 49.2099 253.388C53.1085 255.301 57.4851 256.257 62.3399 256.257C67.7096 256.257 72.307 255.301 76.1319 253.388C80.0305 251.402 83.0096 248.607 85.0692 245.003C87.1288 241.325 88.1586 236.948 88.1586 231.873C88.1586 225.841 87.0184 220.949 84.7382 217.198C82.4579 213.446 79.1846 210.688 74.9182 208.923C70.7255 207.157 65.7236 206.275 59.9125 206.275H43.4724Z" fill="#080680"/>
<path fill-rule="evenodd" clip-rule="evenodd" d="M66.3949 161.552C65.7087 160.733 65.2483 159.732 65.337 158.616C65.5927 155.399 70.0714 156.146 70.9289 157.778C71.7864 159.41 71.6448 163.53 70.5146 163.81C70.0638 163.922 69.1085 163.63 68.1389 163.035L68.7111 167.365L65.0977 167.333L66.3949 161.552Z" fill="#915B3C" fill-opacity="0.7"/>
<path fill-rule="evenodd" clip-rule="evenodd" d="M63.7708 157.531C63.6552 157.414 63.593 157.249 63.5394 157.092C63.4837 156.929 63.4296 156.764 63.3932 156.594C63.3204 156.255 63.3233 155.866 63.5673 155.606C63.763 155.397 64.0546 155.305 64.3231 155.286C64.502 155.274 64.6854 155.301 64.8562 155.359C65.0257 155.416 65.1712 155.529 65.3354 155.599C65.3451 155.235 65.4111 154.854 65.5991 154.544C65.78 154.246 66.0656 154.08 66.3896 154.039C66.722 153.996 67.0492 154.077 67.345 154.24C67.419 154.281 67.4924 154.323 67.5625 154.372C67.6212 154.412 67.6822 154.461 67.7513 154.478C67.8285 154.496 67.8672 154.452 67.9179 154.396C67.9774 154.331 68.0443 154.273 68.115 154.222C68.4275 153.997 68.8357 153.907 69.1941 154.047C69.3592 154.111 69.5193 154.219 69.6304 154.368C69.7294 154.5 69.799 154.709 69.9365 154.801C69.9948 154.841 70.0367 154.79 70.0905 154.752C70.1713 154.696 70.2484 154.633 70.3302 154.578C70.445 154.501 70.5691 154.444 70.7017 154.415C70.8958 154.372 71.1634 154.384 71.2164 154.638C71.2363 154.734 71.2195 154.835 71.2119 154.931C71.2014 155.063 71.1906 155.194 71.1779 155.326C71.1683 155.425 71.1565 155.522 71.1367 155.62C71.1262 155.672 71.0938 155.769 71.1157 155.821C71.1432 155.887 71.2729 155.851 71.3282 155.854C71.4373 155.859 71.5468 155.879 71.6473 155.927C71.7252 155.964 71.807 156.018 71.8392 156.107C71.859 156.163 71.8531 156.219 71.843 156.276C71.8309 156.343 71.8437 156.38 71.8517 156.448C71.999 156.377 72.5087 156.222 72.5702 156.485C72.5907 156.572 72.5413 156.671 72.5036 156.744C72.4376 156.873 72.3514 156.99 72.2635 157.102C72.0799 157.336 71.8615 157.537 71.627 157.708C71.8988 157.832 71.9668 158.19 71.7285 158.401C71.6233 158.494 71.4828 158.513 71.3512 158.506C71.3031 158.504 71.2338 158.485 71.1958 158.493C71.1754 158.497 71.1534 158.514 71.1251 158.516C70.9392 158.527 70.73 158.48 70.5488 158.437C70.2259 158.361 69.921 158.206 69.673 157.97C69.6094 157.91 69.5567 157.875 69.4703 157.875C69.3946 157.875 69.3202 157.895 69.2446 157.896C69.0444 157.9 68.865 157.8 68.6798 157.734C68.6661 157.984 68.5921 158.26 68.4873 158.485C68.4019 158.668 68.2269 158.693 68.0549 158.708C67.5051 158.754 66.9543 158.692 66.4042 158.688C66.9356 158.813 67.4854 158.867 68.0118 159.013C68.2498 159.079 68.0661 159.238 67.9631 159.349C67.7935 159.531 67.6665 159.757 67.5777 159.995C67.3203 159.654 66.862 159.426 66.4531 159.527C66.0014 159.638 65.6784 160.244 65.9626 160.684C66.1276 160.94 66.4288 161.04 66.6792 161.152C66.4812 161.354 66.431 161.654 66.3107 161.907C66.2513 162.031 66.1683 162.172 66.0377 162.214C65.9893 162.23 65.9328 162.231 65.8945 162.269C65.847 162.318 65.8352 162.372 65.7747 162.413C65.5333 162.577 65.1587 162.561 64.9481 162.342C64.7576 162.144 64.8105 161.833 64.9729 161.635C64.7182 161.527 64.2538 161.386 64.359 160.989C63.8054 160.947 62.4687 160.038 63.2182 159.389C62.8123 159.155 62.4427 158.589 62.7093 158.095C62.9146 157.714 63.3855 157.548 63.7708 157.531Z" fill="#FF0000" fill-opacity="0.7"/>
<path fill-rule="evenodd" clip-rule="evenodd" d="M68.4768 196.049C72.0817 195.025 75.0006 193.83 77.2336 192.463C79.4666 191.095 81.1348 189.163 82.2382 186.665C78.6853 187.626 75.9344 188.703 73.9855 189.897C72.0366 191.09 70.2004 193.141 68.4768 196.049Z" fill="#CF1F1F" fill-opacity="0.7"/>
<path fill-rule="evenodd" clip-rule="evenodd" d="M80.6572 192.07C80.6002 192.044 80.5454 192.011 80.4933 191.971C79.416 191.135 65.6424 183.441 63.6724 181.699L71.0898 177.158C72.5877 178.482 81.1017 187.338 82.6684 189.185C85.6384 191.794 94.0804 200.964 94.7851 201.526C95.5264 202.117 94.4598 203.859 93.4739 203.177C91.9053 202.094 87.8176 198.94 85.5809 196.856C83.484 194.903 81.6534 193.111 80.6572 192.07Z" fill="#784931" fill-opacity="0.7"/>
<path fill-rule="evenodd" clip-rule="evenodd" d="M75.4663 197.22C72.9201 199.825 62.7443 207.947 62.1203 208.626C61.4784 209.324 59.8147 208.139 60.5635 207.203C61.755 205.714 65.1886 201.858 67.4253 199.772C69.2244 198.095 70.8909 196.604 72.0277 195.633C69.7549 192.163 64.0689 183.978 63.2658 181.949L69.8296 177.931C70.5997 179.876 75.864 194.284 76.1686 195.862C76.2965 196.414 75.9645 196.896 75.4663 197.22Z" fill="#915B3C" fill-opacity="0.7"/>
<path fill-rule="evenodd" clip-rule="evenodd" d="M60.5439 206.675C59.9923 206.874 59.6214 207.058 59.4314 207.226C59.2274 207.406 58.9597 207.703 58.6282 208.117C58.8368 208.352 60.7115 210.471 64.2524 214.474C64.9467 214.154 65.1583 213.797 64.8871 213.403C64.6159 213.008 64.3938 212.678 64.2207 212.411L62.9011 208.2C62.8911 208.168 62.8572 208.15 62.8254 208.16C62.8248 208.16 62.8242 208.16 62.8236 208.161L62.1053 208.41C61.6595 208.217 61.3455 208.017 61.1632 207.811C60.9945 207.621 60.8406 207.269 60.7015 206.757C60.6841 206.693 60.6177 206.655 60.5533 206.672C60.5501 206.673 60.547 206.674 60.5439 206.675Z" fill="#E4E4E4" fill-opacity="0.7"/>
<path fill-rule="evenodd" clip-rule="evenodd" d="M92.9 203.16C93.0005 203.738 93.117 204.135 93.2495 204.352C93.3918 204.584 93.638 204.899 93.988 205.297C94.2566 205.133 96.6703 203.655 101.229 200.864C101.035 200.125 100.72 199.854 100.284 200.053C99.8483 200.251 99.484 200.413 99.1913 200.537L94.8117 201.104C94.7786 201.109 94.7553 201.139 94.7596 201.172C94.7596 201.173 94.7597 201.173 94.7598 201.174L94.8808 201.924C94.6131 202.33 94.3619 202.604 94.1272 202.748C93.91 202.881 93.537 202.972 93.0082 203.019C92.9417 203.025 92.8927 203.084 92.8987 203.151C92.899 203.154 92.8995 203.157 92.9 203.16Z" fill="#E4E4E4" fill-opacity="0.7"/>
<path fill-rule="evenodd" clip-rule="evenodd" d="M63.2888 181.935C65.6746 179.338 68.4113 177.662 71.4991 176.909C74.9058 180.453 78.0834 180.743 82.3133 186.785C79.2786 191.621 71.6172 191.21 68.4213 196.071C65.3283 193.902 62.7652 185.687 63.2888 181.935Z" fill="#F4FFED"/>
<path fill-rule="evenodd" clip-rule="evenodd" d="M79.3566 175.867L84.2919 179.173C85.6043 179.467 86.707 179.855 87.6 180.339C87.8137 180.517 88.0787 180.886 87.2232 180.858C86.3677 180.829 85.4665 180.838 85.3615 181.134C85.2564 181.43 85.7875 181.755 85.5667 182.158C85.4195 182.427 84.642 181.803 83.2342 180.287L78.4126 178.528L79.3566 175.867ZM60.9068 179.879L63.9931 179.32C63.2264 185.824 62.8019 189.278 62.7198 189.682C62.5349 190.592 63.496 191.748 63.9332 192.384C63.0101 193.021 62.8087 191.332 61.6483 192.158C60.5892 192.913 59.8884 194.053 58.3965 193.475C58.2131 193.404 57.962 193.054 58.3425 192.675C59.2906 191.728 60.6142 190.135 60.7463 189.666C60.9264 189.028 60.9799 185.765 60.9068 179.879Z" fill="#915B3C" fill-opacity="0.7"/>
<path fill-rule="evenodd" clip-rule="evenodd" d="M67.2751 165.309L68.5107 164.853C71.7234 169.938 76.4819 174.217 82.7865 177.691L79.5796 183.486C72.9239 178.109 68.3305 172.142 67.2751 165.309Z" fill="#FF0000" fill-opacity="0.7"/>
<path fill-rule="evenodd" clip-rule="evenodd" d="M64.6795 182.384L76.0428 180.28C72.2257 174.363 69.9032 169.166 69.0753 164.689L65.553 164.813C63.6609 169.647 63.8872 175.125 64.6795 182.384Z" fill="#DDE3E9" fill-opacity="0.7"/>
<path fill-rule="evenodd" clip-rule="evenodd" d="M65.4814 164.829C65.4817 164.828 65.482 164.827 65.4823 164.826L65.7061 164.785C65.9755 164.744 66.3864 164.685 66.9387 164.608L68.2049 166.823C68.8266 169.694 70.4144 175.419 72.9684 183.996L65.5196 185.376C65.6509 185.977 65.7959 186.581 65.9547 187.188L60.4161 188.214C59.515 178.708 61.2024 170.913 65.4783 164.827L65.4814 164.829Z" fill="#CB0000"/>
<path fill-rule="evenodd" clip-rule="evenodd" d="M64.581 177.551C65.4897 181.279 66.5008 183.778 67.6142 185.048L65.5319 185.433C64.9394 182.74 64.6224 180.112 64.581 177.551Z" fill="black" fill-opacity="0.7"/>
<path fill-rule="evenodd" clip-rule="evenodd" d="M66.3404 180.55L69.6975 178.161L70.0135 179.869L66.3404 180.55Z" fill="white" fill-opacity="0.7"/>
</svg>
