<svg width="156" height="300" viewBox="0 0 156 300" fill="none" xmlns="http://www.w3.org/2000/svg">
<path opacity="0.87" d="M123.135 218.412V241.361H7.39252L6.17882 223.708L74.2562 116.351H97.5372L72.3805 159.051L35.8593 218.412H123.135ZM104.047 116.351V277H74.8079V116.351H104.047Z" fill="#080680"/>
<path fill-rule="evenodd" clip-rule="evenodd" d="M112.395 192.552C111.709 191.733 111.248 190.732 111.337 189.616C111.593 186.399 116.071 187.146 116.929 188.778C117.786 190.41 117.645 194.53 116.515 194.811C116.064 194.922 115.108 194.63 114.139 194.035L114.711 198.365L111.098 198.333L112.395 192.552Z" fill="#915B3C" fill-opacity="0.7"/>
<path fill-rule="evenodd" clip-rule="evenodd" d="M109.771 188.531C109.655 188.414 109.593 188.249 109.539 188.092C109.484 187.929 109.43 187.764 109.393 187.594C109.32 187.255 109.323 186.866 109.567 186.606C109.763 186.397 110.055 186.305 110.323 186.287C110.502 186.274 110.685 186.301 110.856 186.359C111.026 186.416 111.171 186.529 111.335 186.599C111.345 186.235 111.411 185.854 111.599 185.544C111.78 185.246 112.066 185.081 112.39 185.039C112.722 184.996 113.049 185.077 113.345 185.24C113.419 185.281 113.492 185.323 113.562 185.372C113.621 185.412 113.682 185.461 113.751 185.478C113.828 185.496 113.867 185.452 113.918 185.396C113.977 185.331 114.044 185.273 114.115 185.222C114.427 184.997 114.836 184.907 115.194 185.047C115.359 185.111 115.519 185.219 115.63 185.368C115.729 185.5 115.799 185.709 115.936 185.802C115.995 185.841 116.037 185.79 116.091 185.752C116.171 185.696 116.248 185.633 116.33 185.579C116.445 185.501 116.569 185.444 116.702 185.415C116.896 185.372 117.163 185.384 117.216 185.638C117.236 185.734 117.219 185.835 117.212 185.931C117.201 186.063 117.191 186.194 117.178 186.326C117.168 186.425 117.156 186.522 117.137 186.62C117.126 186.672 117.094 186.769 117.116 186.822C117.143 186.887 117.273 186.851 117.328 186.854C117.437 186.859 117.547 186.879 117.647 186.927C117.725 186.964 117.807 187.018 117.839 187.107C117.859 187.163 117.853 187.219 117.843 187.276C117.831 187.344 117.844 187.38 117.852 187.448C117.999 187.377 118.509 187.222 118.57 187.485C118.591 187.572 118.541 187.671 118.504 187.744C118.438 187.873 118.351 187.99 118.263 188.102C118.08 188.336 117.862 188.537 117.627 188.708C117.899 188.832 117.967 189.19 117.728 189.401C117.623 189.494 117.483 189.514 117.351 189.506C117.303 189.504 117.234 189.485 117.196 189.493C117.175 189.497 117.153 189.514 117.125 189.516C116.939 189.527 116.73 189.48 116.549 189.438C116.226 189.361 115.921 189.206 115.673 188.97C115.609 188.91 115.557 188.875 115.47 188.875C115.395 188.875 115.32 188.895 115.245 188.896C115.044 188.9 114.865 188.801 114.68 188.734C114.666 188.984 114.592 189.26 114.487 189.485C114.402 189.668 114.227 189.693 114.055 189.708C113.505 189.754 112.954 189.692 112.404 189.688C112.936 189.813 113.485 189.867 114.012 190.013C114.25 190.079 114.066 190.238 113.963 190.349C113.793 190.531 113.667 190.757 113.578 190.995C113.32 190.654 112.862 190.426 112.453 190.527C112.001 190.638 111.678 191.244 111.963 191.684C112.128 191.94 112.429 192.04 112.679 192.152C112.481 192.354 112.431 192.654 112.311 192.907C112.251 193.031 112.168 193.172 112.038 193.214C111.989 193.23 111.933 193.231 111.894 193.269C111.847 193.318 111.835 193.372 111.775 193.413C111.533 193.578 111.159 193.561 110.948 193.342C110.758 193.144 110.81 192.833 110.973 192.635C110.718 192.527 110.254 192.386 110.359 191.989C109.805 191.947 108.469 191.038 109.218 190.389C108.812 190.155 108.443 189.589 108.709 189.095C108.915 188.714 109.386 188.548 109.771 188.531Z" fill="#FF0000" fill-opacity="0.7"/>
<path fill-rule="evenodd" clip-rule="evenodd" d="M114.477 227.049C118.082 226.025 121.001 224.83 123.234 223.463C125.467 222.096 127.135 220.163 128.238 217.665C124.685 218.626 121.934 219.703 119.986 220.897C118.037 222.09 116.2 224.141 114.477 227.049Z" fill="#CF1F1F" fill-opacity="0.7"/>
<path fill-rule="evenodd" clip-rule="evenodd" d="M126.657 223.071C126.6 223.044 126.545 223.011 126.493 222.971C125.416 222.135 111.642 214.441 109.672 212.699L117.09 208.158C118.588 209.483 127.102 218.338 128.668 220.185C131.638 222.794 140.08 231.964 140.785 232.526C141.526 233.117 140.46 234.859 139.474 234.177C137.905 233.094 133.818 229.94 131.581 227.856C129.484 225.903 127.653 224.111 126.657 223.071Z" fill="#784931" fill-opacity="0.7"/>
<path fill-rule="evenodd" clip-rule="evenodd" d="M121.466 228.22C118.92 230.825 108.744 238.947 108.12 239.626C107.478 240.324 105.815 239.139 106.564 238.203C107.755 236.714 111.189 232.858 113.425 230.772C115.224 229.095 116.891 227.604 118.028 226.633C115.755 223.163 110.069 214.978 109.266 212.949L115.83 208.931C116.6 210.876 121.864 225.284 122.169 226.862C122.297 227.414 121.964 227.895 121.466 228.22Z" fill="#915B3C" fill-opacity="0.7"/>
<path fill-rule="evenodd" clip-rule="evenodd" d="M106.544 237.675C105.992 237.874 105.621 238.058 105.431 238.226C105.227 238.406 104.96 238.703 104.628 239.117C104.837 239.352 106.712 241.471 110.252 245.474C110.947 245.154 111.158 244.798 110.887 244.403C110.616 244.008 110.394 243.678 110.221 243.411L108.901 239.2C108.891 239.168 108.857 239.15 108.825 239.16C108.825 239.16 108.824 239.16 108.824 239.161L108.105 239.41C107.66 239.217 107.345 239.017 107.163 238.811C106.994 238.621 106.841 238.269 106.702 237.757C106.684 237.693 106.618 237.655 106.553 237.672C106.55 237.673 106.547 237.674 106.544 237.675Z" fill="#E4E4E4" fill-opacity="0.7"/>
<path fill-rule="evenodd" clip-rule="evenodd" d="M138.9 234.16C139 234.738 139.117 235.135 139.25 235.352C139.392 235.584 139.638 235.899 139.988 236.297C140.257 236.133 142.67 234.655 147.229 231.864C147.035 231.125 146.72 230.854 146.284 231.053C145.848 231.251 145.484 231.413 145.191 231.537L140.812 232.104C140.779 232.109 140.755 232.139 140.76 232.172C140.76 232.173 140.76 232.173 140.76 232.174L140.881 232.924C140.613 233.33 140.362 233.604 140.127 233.748C139.91 233.881 139.537 233.972 139.008 234.019C138.942 234.025 138.893 234.084 138.899 234.151C138.899 234.154 138.899 234.157 138.9 234.16Z" fill="#E4E4E4" fill-opacity="0.7"/>
<path fill-rule="evenodd" clip-rule="evenodd" d="M109.289 212.935C111.675 210.338 114.411 208.662 117.499 207.909C120.906 211.453 124.083 211.743 128.313 217.785C125.279 222.621 117.617 222.21 114.421 227.071C111.328 224.902 108.765 216.687 109.289 212.935Z" fill="#F4FFED"/>
<path fill-rule="evenodd" clip-rule="evenodd" d="M125.357 206.867L130.292 210.173C131.604 210.467 132.707 210.855 133.6 211.339C133.814 211.517 134.079 211.886 133.223 211.858C132.368 211.829 131.467 211.838 131.361 212.134C131.256 212.43 131.788 212.755 131.567 213.158C131.42 213.427 130.642 212.803 129.234 211.287L124.413 209.528L125.357 206.867ZM106.907 210.879L109.993 210.32C109.226 216.824 108.802 220.278 108.72 220.682C108.535 221.592 109.496 222.748 109.933 223.384C109.01 224.021 108.809 222.332 107.648 223.158C106.589 223.913 105.888 225.053 104.397 224.475C104.213 224.404 103.962 224.054 104.343 223.675C105.291 222.728 106.614 221.135 106.746 220.666C106.926 220.028 106.98 216.765 106.907 210.879Z" fill="#915B3C" fill-opacity="0.7"/>
<path fill-rule="evenodd" clip-rule="evenodd" d="M113.275 196.309L114.511 195.853C117.723 200.938 122.482 205.217 128.787 208.691L125.58 214.486C118.924 209.11 114.33 203.142 113.275 196.309Z" fill="#FF0000" fill-opacity="0.7"/>
<path fill-rule="evenodd" clip-rule="evenodd" d="M110.679 213.385L122.043 211.28C118.226 205.363 115.903 200.166 115.075 195.689L111.553 195.813C109.661 200.647 109.887 206.125 110.679 213.385Z" fill="#DDE3E9" fill-opacity="0.7"/>
<path fill-rule="evenodd" clip-rule="evenodd" d="M111.481 195.829C111.482 195.828 111.482 195.827 111.482 195.826L111.706 195.785C111.976 195.744 112.386 195.685 112.939 195.608L114.205 197.823C114.827 200.694 116.414 206.419 118.968 214.996L111.52 216.376C111.651 216.977 111.796 217.581 111.955 218.188L106.416 219.214C105.515 209.708 107.202 201.913 111.478 195.827L111.481 195.829Z" fill="#CB0000"/>
<path fill-rule="evenodd" clip-rule="evenodd" d="M110.581 208.551C111.49 212.279 112.501 214.778 113.614 216.048L111.532 216.433C110.939 213.74 110.622 211.112 110.581 208.551Z" fill="black" fill-opacity="0.7"/>
<path fill-rule="evenodd" clip-rule="evenodd" d="M112.34 211.55L115.698 209.161L116.014 210.869L112.34 211.55Z" fill="white" fill-opacity="0.7"/>
</svg>
