<svg width="155" height="277" viewBox="0 0 155 277" fill="none" xmlns="http://www.w3.org/2000/svg">
<path opacity="0.87" d="M123.135 218.412V241.361H7.39252L6.17882 223.708L74.2562 116.351H97.5372L72.3805 159.051L35.8593 218.412H123.135ZM104.047 116.351V277H74.8079V116.351H104.047Z" fill="#080680"/>
<path fill-rule="evenodd" clip-rule="evenodd" d="M112.387 201.749C111.69 200.987 111.209 200.065 111.265 199.052C111.424 196.13 115.842 196.916 116.73 198.421C117.618 199.927 117.597 203.673 116.495 203.901C116.056 203.992 115.11 203.704 114.141 203.139L114.826 207.093L111.278 206.979L112.387 201.749Z" fill="#915B3C" fill-opacity="0.7"/>
<path fill-rule="evenodd" clip-rule="evenodd" d="M109.752 198.006C109.635 197.899 109.568 197.749 109.511 197.607C109.451 197.459 109.393 197.31 109.352 197.157C109.27 196.852 109.262 196.503 109.496 196.275C109.684 196.093 109.97 196.017 110.235 196.007C110.412 196.001 110.595 196.029 110.766 196.085C110.935 196.14 111.083 196.244 111.247 196.311C111.246 195.985 111.301 195.645 111.478 195.372C111.649 195.109 111.927 194.967 112.247 194.938C112.575 194.907 112.901 194.987 113.199 195.14C113.274 195.179 113.347 195.219 113.418 195.264C113.478 195.301 113.539 195.346 113.608 195.363C113.685 195.382 113.722 195.343 113.771 195.294C113.828 195.237 113.893 195.187 113.961 195.143C114.265 194.948 114.666 194.877 115.025 195.011C115.191 195.072 115.352 195.173 115.467 195.309C115.569 195.43 115.643 195.619 115.782 195.705C115.841 195.742 115.881 195.697 115.933 195.664C116.012 195.616 116.087 195.562 116.166 195.514C116.278 195.448 116.399 195.4 116.529 195.376C116.72 195.342 116.986 195.36 117.046 195.589C117.068 195.675 117.054 195.766 117.049 195.851C117.043 195.969 117.036 196.087 117.027 196.204C117.02 196.293 117.011 196.38 116.995 196.467C116.986 196.513 116.956 196.6 116.98 196.647C117.009 196.707 117.136 196.678 117.191 196.681C117.299 196.689 117.408 196.709 117.509 196.754C117.587 196.789 117.67 196.839 117.704 196.921C117.726 196.971 117.721 197.021 117.713 197.072C117.703 197.132 117.717 197.165 117.727 197.227C117.87 197.166 118.371 197.039 118.439 197.276C118.462 197.355 118.416 197.442 118.381 197.507C118.319 197.621 118.237 197.724 118.153 197.822C117.978 198.027 117.767 198.202 117.54 198.35C117.813 198.468 117.89 198.79 117.66 198.974C117.559 199.055 117.42 199.069 117.29 199.06C117.242 199.056 117.173 199.037 117.135 199.044C117.115 199.047 117.094 199.062 117.066 199.063C116.882 199.068 116.673 199.022 116.493 198.979C116.171 198.903 115.864 198.756 115.612 198.539C115.547 198.484 115.494 198.451 115.408 198.449C115.333 198.448 115.26 198.464 115.185 198.463C114.987 198.461 114.806 198.368 114.621 198.304C114.615 198.528 114.549 198.774 114.452 198.972C114.373 199.135 114.2 199.153 114.03 199.162C113.487 199.191 112.939 199.122 112.394 199.106C112.924 199.23 113.47 199.292 113.996 199.435C114.234 199.5 114.056 199.638 113.957 199.735C113.794 199.894 113.675 200.093 113.594 200.305C113.329 199.993 112.869 199.778 112.467 199.859C112.022 199.948 111.72 200.483 112.014 200.885C112.184 201.118 112.486 201.215 112.737 201.321C112.547 201.497 112.505 201.765 112.393 201.989C112.338 202.099 112.26 202.223 112.132 202.258C112.084 202.271 112.028 202.27 111.991 202.304C111.946 202.346 111.936 202.395 111.877 202.43C111.642 202.572 111.271 202.549 111.056 202.347C110.862 202.165 110.905 201.887 111.06 201.714C110.805 201.61 110.341 201.473 110.434 201.12C109.884 201.069 108.534 200.223 109.258 199.659C108.849 199.439 108.467 198.923 108.717 198.487C108.91 198.15 109.371 198.012 109.752 198.006Z" fill="#FF0000" fill-opacity="0.7"/>
<path fill-rule="evenodd" clip-rule="evenodd" d="M114.513 233.588C118.122 232.709 121.034 231.65 123.248 230.409C125.462 229.169 127.089 227.377 128.131 225.034C124.572 225.854 121.827 226.805 119.895 227.888C117.962 228.97 116.169 230.87 114.513 233.588Z" fill="#CF1F1F" fill-opacity="0.7"/>
<path fill-rule="evenodd" clip-rule="evenodd" d="M126.598 229.996C126.541 229.97 126.486 229.939 126.434 229.9C125.353 229.104 111.622 221.673 109.64 220.02L116.789 216.026C118.296 217.284 126.9 225.65 128.49 227.391C131.477 229.868 140.019 238.522 140.727 239.057C141.471 239.62 140.473 241.197 139.487 240.545C137.917 239.508 133.817 236.501 131.564 234.526C129.451 232.675 127.605 230.979 126.598 229.996Z" fill="#784931" fill-opacity="0.7"/>
<path fill-rule="evenodd" clip-rule="evenodd" d="M121.475 235.004C119.019 237.362 109.138 244.659 108.538 245.274C107.92 245.908 106.232 244.763 106.95 243.911C108.091 242.557 111.394 239.056 113.557 237.173C115.297 235.658 116.911 234.314 118.013 233.439C115.655 230.153 109.769 222.392 108.913 220.484L115.322 216.913C116.143 218.742 121.787 232.282 122.135 233.758C122.278 234.274 121.961 234.714 121.475 235.004Z" fill="#915B3C" fill-opacity="0.7"/>
<path fill-rule="evenodd" clip-rule="evenodd" d="M106.441 243.437C105.904 243.604 105.545 243.763 105.363 243.911C105.167 244.071 104.912 244.335 104.598 244.704C104.81 244.925 106.716 246.908 110.315 250.653C110.989 250.379 111.187 250.059 110.909 249.691C110.631 249.324 110.402 249.017 110.225 248.769L108.805 244.889C108.794 244.86 108.76 244.843 108.729 244.851C108.728 244.851 108.728 244.851 108.727 244.852L108.028 245.061C107.583 244.873 107.269 244.683 107.083 244.49C106.912 244.312 106.75 243.987 106.599 243.516C106.58 243.456 106.513 243.42 106.45 243.434C106.447 243.435 106.444 243.436 106.441 243.437Z" fill="#E4E4E4" fill-opacity="0.7"/>
<path fill-rule="evenodd" clip-rule="evenodd" d="M138.876 240.138C138.993 240.686 139.122 241.064 139.261 241.271C139.411 241.494 139.667 241.798 140.031 242.183C140.296 242.034 142.681 240.701 147.186 238.183C146.97 237.481 146.645 237.218 146.213 237.394C145.78 237.57 145.418 237.713 145.128 237.822L140.74 238.247C140.707 238.25 140.684 238.278 140.689 238.309C140.689 238.31 140.689 238.31 140.69 238.311L140.833 239.022C140.575 239.398 140.33 239.651 140.098 239.781C139.884 239.901 139.511 239.976 138.981 240.008C138.914 240.012 138.866 240.066 138.874 240.129C138.875 240.132 138.875 240.135 138.876 240.138Z" fill="#E4E4E4" fill-opacity="0.7"/>
<path fill-rule="evenodd" clip-rule="evenodd" d="M109.203 220.38C111.501 218.023 114.174 216.533 117.222 215.911C120.711 219.297 123.879 219.647 128.257 225.38C125.378 229.804 117.749 229.225 114.71 233.668C111.573 231.57 108.79 223.859 109.203 220.38Z" fill="#F4FFED"/>
<path fill-rule="evenodd" clip-rule="evenodd" d="M125.082 214.886L130.067 218.161C131.379 218.472 132.484 218.869 133.384 219.351C133.6 219.527 133.873 219.886 133.021 219.839C132.17 219.793 131.275 219.78 131.177 220.061C131.08 220.342 131.616 220.666 131.406 221.046C131.266 221.3 130.478 220.685 129.042 219.203L124.207 217.41L125.082 214.886ZM106.837 218.306L109.892 217.841C109.285 224.046 108.945 227.341 108.873 227.726C108.711 228.592 109.694 229.72 110.144 230.338C109.241 230.927 109.001 229.306 107.867 230.07C106.832 230.768 106.163 231.843 104.666 231.256C104.482 231.184 104.224 230.844 104.593 230.489C105.513 229.606 106.791 228.111 106.911 227.666C107.075 227.059 107.05 223.939 106.837 218.306Z" fill="#915B3C" fill-opacity="0.7"/>
<path fill-rule="evenodd" clip-rule="evenodd" d="M113.248 204.966L114.44 204.567C117.686 209.4 122.418 213.513 128.635 216.906L125.649 222.261C119.045 217.079 114.435 211.388 113.248 204.966Z" fill="#FF0000" fill-opacity="0.7"/>
<path fill-rule="evenodd" clip-rule="evenodd" d="M110.966 221.025L122.006 219.313C118.143 213.708 115.755 208.808 114.842 204.613L111.407 204.651C109.674 209.119 110.023 214.235 110.966 221.025Z" fill="#DDE3E9" fill-opacity="0.7"/>
<path fill-rule="evenodd" clip-rule="evenodd" d="M111.167 204.737C111.167 204.736 111.167 204.735 111.168 204.734L111.384 204.701C111.645 204.669 112.044 204.623 112.579 204.563L113.863 206.654C114.535 209.343 116.214 214.71 118.899 222.756L111.683 223.877C111.825 224.439 111.98 225.005 112.149 225.574L106.784 226.408C105.685 217.534 107.145 210.309 111.164 204.735L111.167 204.737Z" fill="#CB0000"/>
<path fill-rule="evenodd" clip-rule="evenodd" d="M110.521 216.528C111.472 219.997 112.491 222.331 113.58 223.53L111.607 223.841C110.981 221.336 110.619 218.898 110.521 216.528Z" fill="black" fill-opacity="0.7"/>
<path fill-rule="evenodd" clip-rule="evenodd" d="M112.346 219.331L115.624 217.125L115.979 218.764L112.346 219.331Z" fill="white" fill-opacity="0.7"/>
</svg>
