<svg width="141" height="280" viewBox="0 0 141 280" fill="none" xmlns="http://www.w3.org/2000/svg">
<path opacity="0.87" d="M40.4934 203.075L17.2124 197.448L26.1497 116.351H114.529V140.514H50.3133L46.1205 178.028C48.4008 176.631 51.7109 175.233 56.0508 173.836C60.4642 172.365 65.4293 171.629 70.9461 171.629C78.5961 171.629 85.437 172.879 91.4687 175.38C97.5004 177.808 102.613 181.339 106.805 185.973C111.072 190.607 114.271 196.271 116.405 202.964C118.611 209.585 119.715 217.087 119.715 225.473C119.715 232.829 118.611 239.743 116.405 246.216C114.271 252.616 110.998 258.316 106.585 263.318C102.171 268.247 96.6177 272.145 89.924 275.014C83.2302 277.809 75.3596 279.207 66.312 279.207C59.4712 279.207 52.8878 278.214 46.5619 276.228C40.3095 274.168 34.6823 271.189 29.6804 267.29C24.6785 263.318 20.6696 258.464 17.6538 252.726C14.7115 246.989 13.0932 240.405 12.799 232.976H41.5967C42.1116 237.904 43.4357 242.097 45.5688 245.554C47.702 249.011 50.4972 251.659 53.9544 253.498C57.4851 255.337 61.5676 256.257 66.2017 256.257C70.3945 256.257 73.9988 255.484 77.0146 253.94C80.104 252.321 82.6418 250.078 84.6278 247.209C86.6139 244.34 88.085 240.957 89.0413 237.058C89.9975 233.16 90.4756 228.893 90.4756 224.259C90.4756 219.772 89.924 215.69 88.8206 212.012C87.7172 208.261 86.0254 205.024 83.7451 202.302C81.4649 199.581 78.5961 197.484 75.1389 196.013C71.7553 194.542 67.7832 193.807 63.2226 193.807C57.1173 193.807 52.4097 194.726 49.0996 196.565C45.8631 198.404 42.9943 200.574 40.4934 203.075Z" fill="#080680"/>
<path fill-rule="evenodd" clip-rule="evenodd" d="M77.3713 154.186C76.6677 153.392 76.19 152.427 76.2657 151.357C76.4837 148.274 81.0178 149.04 81.9046 150.615C82.7913 152.19 82.6999 156.14 81.5615 156.397C81.1076 156.499 80.1387 156.208 79.1518 155.627L79.784 159.786L76.1331 159.717L77.3713 154.186Z" fill="#915B3C" fill-opacity="0.7"/>
<path fill-rule="evenodd" clip-rule="evenodd" d="M74.7426 150.288C74.6249 150.176 74.5604 150.018 74.5046 149.867C74.4465 149.711 74.3902 149.554 74.3514 149.392C74.2741 149.068 74.2721 148.698 74.5141 148.452C74.7082 148.255 75.0001 148.171 75.2698 148.157C75.4494 148.147 75.634 148.175 75.8065 148.232C75.9775 148.288 76.1252 148.397 76.2911 148.466C76.2963 148.119 76.3579 147.757 76.543 147.464C76.7211 147.182 77.0061 147.028 77.3311 146.992C77.6648 146.955 77.9946 147.035 78.2939 147.194C78.3688 147.234 78.4431 147.275 78.5141 147.322C78.5737 147.361 78.6356 147.408 78.7053 147.425C78.783 147.444 78.8214 147.402 78.8717 147.349C78.9307 147.288 78.9972 147.234 79.0676 147.186C79.3789 146.975 79.788 146.894 80.1499 147.031C80.3167 147.094 80.479 147.199 80.5925 147.341C80.6936 147.468 80.7662 147.668 80.9055 147.758C80.9646 147.796 81.0061 147.748 81.0597 147.713C81.1402 147.66 81.2169 147.601 81.2984 147.55C81.4129 147.478 81.5369 147.425 81.6698 147.398C81.8643 147.359 82.1334 147.375 82.1899 147.617C82.2111 147.708 82.1954 147.805 82.1889 147.896C82.1801 148.021 82.1708 148.146 82.1598 148.271C82.1513 148.366 82.1406 148.458 82.122 148.551C82.112 148.601 82.0807 148.693 82.1034 148.743C82.1318 148.806 82.2617 148.773 82.3173 148.776C82.4271 148.783 82.5374 148.803 82.639 148.849C82.7178 148.885 82.8006 148.938 82.8341 149.024C82.8547 149.076 82.8495 149.13 82.84 149.184C82.8287 149.248 82.842 149.283 82.8509 149.348C82.9981 149.283 83.5084 149.14 83.5735 149.391C83.5952 149.475 83.5468 149.568 83.5098 149.637C83.445 149.759 83.3599 149.87 83.2729 149.976C83.0913 150.196 82.8743 150.385 82.6407 150.546C82.9155 150.667 82.9882 151.008 82.7514 151.207C82.6468 151.294 82.5058 151.311 82.3735 151.303C82.3251 151.3 82.2552 151.281 82.2172 151.288C82.1967 151.292 82.1748 151.308 82.1464 151.31C81.9597 151.318 81.7488 151.271 81.5661 151.229C81.2407 151.152 80.9323 151 80.6801 150.773C80.6154 150.715 80.5621 150.681 80.4752 150.681C80.3992 150.68 80.3246 150.698 80.2486 150.698C80.0475 150.699 79.8659 150.603 79.6789 150.537C79.6683 150.776 79.5974 151.037 79.4949 151.25C79.4113 151.424 79.2357 151.446 79.063 151.458C78.511 151.496 77.9567 151.43 77.4038 151.42C77.9394 151.545 78.4926 151.603 79.0235 151.748C79.2635 151.814 79.0809 151.963 78.9788 152.067C78.8105 152.239 78.6857 152.453 78.5994 152.679C78.3365 152.351 77.873 152.129 77.4634 152.22C77.0107 152.321 76.6937 152.894 76.9848 153.317C77.1538 153.562 77.4578 153.662 77.7108 153.77C77.5144 153.961 77.4676 154.246 77.3498 154.485C77.2917 154.603 77.21 154.736 77.0792 154.775C77.0309 154.789 76.9741 154.79 76.936 154.826C76.8889 154.871 76.8778 154.923 76.8175 154.962C76.5769 155.116 76.2002 155.096 75.9857 154.885C75.7918 154.694 75.8411 154.398 76.0019 154.212C75.7446 154.105 75.276 153.966 75.3769 153.589C74.82 153.543 73.4652 152.662 74.2104 152.052C73.7995 151.825 73.4209 151.281 73.6828 150.814C73.8844 150.454 74.3556 150.3 74.7426 150.288Z" fill="#FF0000" fill-opacity="0.7"/>
<path fill-rule="evenodd" clip-rule="evenodd" d="M79.5076 187.483C83.1146 186.525 86.0306 185.391 88.2557 184.082C90.4807 182.772 92.1315 180.903 93.208 178.475C89.6524 179.371 86.9036 180.391 84.9616 181.534C83.0196 182.677 81.2016 184.66 79.5076 187.483Z" fill="#CF1F1F" fill-opacity="0.7"/>
<path fill-rule="evenodd" clip-rule="evenodd" d="M91.6476 183.68C91.5907 183.654 91.536 183.621 91.4838 183.582C90.4049 182.763 76.648 175.182 74.6724 173.478L81.9725 169.189C83.4746 170.484 92.0294 179.122 93.6063 180.922C96.5845 183.473 105.072 192.414 105.778 192.964C106.52 193.543 105.484 195.209 104.498 194.541C102.929 193.477 98.8351 190.388 96.5907 188.353C94.4866 186.444 92.6486 184.694 91.6476 183.68Z" fill="#784931" fill-opacity="0.7"/>
<path fill-rule="evenodd" clip-rule="evenodd" d="M86.4863 188.77C83.9793 191.263 73.9315 199.008 73.3176 199.658C72.6862 200.327 71.0119 199.159 71.747 198.262C72.9168 196.834 76.2931 193.139 78.498 191.145C80.2714 189.542 81.915 188.118 83.0366 187.191C80.7261 183.803 74.952 175.805 74.1256 173.83L80.6221 170.016C81.4146 171.909 86.8461 185.93 87.1698 187.462C87.3043 187.998 86.9792 188.461 86.4863 188.77Z" fill="#915B3C" fill-opacity="0.7"/>
<path fill-rule="evenodd" clip-rule="evenodd" d="M71.5134 197.758C70.9681 197.943 70.6022 198.114 70.4157 198.274C70.2154 198.444 69.9533 198.726 69.6294 199.12C69.8395 199.349 71.7282 201.407 75.2954 205.294C75.9808 204.996 76.1863 204.656 75.912 204.273C75.6377 203.891 75.4129 203.571 75.2377 203.313L73.8736 199.251C73.8633 199.22 73.8294 199.203 73.7979 199.212C73.7973 199.212 73.7967 199.213 73.7962 199.213L73.086 199.443C72.6409 199.253 72.3265 199.057 72.1429 198.857C71.9729 198.672 71.8156 198.332 71.671 197.839C71.6528 197.777 71.5864 197.739 71.5227 197.755C71.5195 197.756 71.5164 197.757 71.5134 197.758Z" fill="#E4E4E4" fill-opacity="0.7"/>
<path fill-rule="evenodd" clip-rule="evenodd" d="M103.908 194.34C104.016 194.905 104.137 195.293 104.273 195.506C104.418 195.734 104.669 196.044 105.025 196.436C105.292 196.279 107.694 194.867 112.23 192.2C112.026 191.477 111.707 191.21 111.272 191.398C110.838 191.587 110.474 191.739 110.183 191.857L105.799 192.359C105.766 192.362 105.743 192.392 105.747 192.424C105.747 192.425 105.748 192.425 105.748 192.426L105.878 193.159C105.615 193.551 105.366 193.816 105.133 193.953C104.917 194.08 104.544 194.164 104.014 194.204C103.948 194.209 103.899 194.266 103.906 194.331C103.907 194.334 103.907 194.337 103.908 194.34Z" fill="#E4E4E4" fill-opacity="0.7"/>
<path fill-rule="evenodd" clip-rule="evenodd" d="M74.2655 173.774C76.613 171.286 79.3222 169.695 82.3932 169.002C85.8362 172.477 89.0099 172.796 93.3055 178.701C90.3387 183.35 82.6904 182.86 79.5631 187.531C76.4503 185.393 73.7902 177.403 74.2655 173.774Z" fill="#F4FFED"/>
<path fill-rule="evenodd" clip-rule="evenodd" d="M90.251 167.968L95.209 171.262C96.5213 171.563 97.6254 171.956 98.5212 172.439C98.7363 172.616 99.0045 172.981 98.1508 172.944C97.2972 172.907 96.3984 172.906 96.2967 173.195C96.1951 173.485 96.7283 173.809 96.5123 174.202C96.3683 174.464 95.5861 173.844 94.1658 172.343L89.3376 170.568L90.251 167.968ZM71.8897 171.713L74.9624 171.196C74.2665 177.566 73.8797 180.948 73.802 181.344C73.6272 182.234 74.5982 183.378 75.0411 184.006C74.127 184.621 73.9082 182.963 72.7595 183.761C71.711 184.49 71.024 185.601 69.5298 185.018C69.3461 184.947 69.0918 184.601 69.4674 184.233C70.4031 183.315 71.7065 181.766 71.8333 181.308C72.0062 180.684 72.025 177.485 71.8897 171.713Z" fill="#915B3C" fill-opacity="0.7"/>
<path fill-rule="evenodd" clip-rule="evenodd" d="M78.2778 157.696L79.4939 157.266C82.7218 162.238 87.4689 166.444 93.7351 169.883L90.6271 175.48C83.9939 170.189 79.3923 164.345 78.2778 157.696Z" fill="#FF0000" fill-opacity="0.7"/>
<path fill-rule="evenodd" clip-rule="evenodd" d="M75.8231 174.316L87.0428 172.391C83.2043 166.613 80.8521 161.549 79.986 157.199L76.5027 157.283C74.6815 161.952 74.9629 167.267 75.8231 174.316Z" fill="#DDE3E9" fill-opacity="0.7"/>
<path fill-rule="evenodd" clip-rule="evenodd" d="M76.3545 157.331C76.3548 157.33 76.355 157.33 76.3553 157.329L76.576 157.291C76.8417 157.254 77.2471 157.202 77.7919 157.132L79.0662 159.292C79.7105 162.081 81.3394 167.645 83.9528 175.984L76.6078 177.245C76.7438 177.829 76.8934 178.416 77.0566 179.006L71.5952 179.944C70.6052 170.722 72.1906 163.184 76.3513 157.329L76.3545 157.331Z" fill="#CB0000"/>
<path fill-rule="evenodd" clip-rule="evenodd" d="M75.5688 169.634C76.4966 173.245 77.5118 175.67 78.6142 176.908L76.5811 177.259C75.9734 174.651 75.636 172.109 75.5688 169.634Z" fill="black" fill-opacity="0.7"/>
<path fill-rule="evenodd" clip-rule="evenodd" d="M77.3576 172.545L80.6803 170.238L81.0135 171.916L77.3576 172.545Z" fill="white" fill-opacity="0.7"/>
</svg>
