<svg width="141" height="289" viewBox="0 0 141 289" fill="none" xmlns="http://www.w3.org/2000/svg">
<path opacity="0.87" d="M40.4934 203.075L17.2124 197.448L26.1497 116.351H114.529V140.514H50.3133L46.1205 178.028C48.4008 176.631 51.7109 175.233 56.0508 173.836C60.4642 172.365 65.4293 171.629 70.9461 171.629C78.5961 171.629 85.437 172.879 91.4687 175.38C97.5004 177.808 102.613 181.339 106.805 185.973C111.072 190.607 114.271 196.271 116.405 202.964C118.611 209.585 119.715 217.087 119.715 225.473C119.715 232.829 118.611 239.743 116.405 246.216C114.271 252.616 110.998 258.316 106.585 263.318C102.171 268.247 96.6177 272.145 89.924 275.014C83.2302 277.809 75.3596 279.207 66.312 279.207C59.4712 279.207 52.8878 278.214 46.5619 276.228C40.3095 274.168 34.6823 271.189 29.6804 267.29C24.6785 263.318 20.6696 258.464 17.6538 252.726C14.7115 246.989 13.0932 240.405 12.799 232.976H41.5967C42.1116 237.904 43.4357 242.097 45.5688 245.554C47.702 249.011 50.4972 251.659 53.9544 253.498C57.4851 255.337 61.5676 256.257 66.2017 256.257C70.3945 256.257 73.9988 255.484 77.0146 253.94C80.104 252.321 82.6418 250.078 84.6278 247.209C86.6139 244.34 88.085 240.957 89.0413 237.058C89.9975 233.16 90.4756 228.893 90.4756 224.259C90.4756 219.772 89.924 215.69 88.8206 212.012C87.7172 208.261 86.0254 205.024 83.7451 202.302C81.4649 199.581 78.5961 197.484 75.1389 196.013C71.7553 194.542 67.7832 193.807 63.2226 193.807C57.1173 193.807 52.4097 194.726 49.0996 196.565C45.8631 198.404 42.9943 200.574 40.4934 203.075Z" fill="#080680"/>
<path fill-rule="evenodd" clip-rule="evenodd" d="M77.3949 154.552C76.7087 153.733 76.2483 152.732 76.337 151.616C76.5927 148.399 81.0714 149.146 81.9289 150.778C82.7864 152.41 82.6448 156.53 81.5146 156.811C81.0638 156.922 80.1085 156.63 79.1389 156.035L79.7111 160.365L76.0977 160.333L77.3949 154.552Z" fill="#915B3C" fill-opacity="0.7"/>
<path fill-rule="evenodd" clip-rule="evenodd" d="M74.7708 150.531C74.6552 150.414 74.593 150.249 74.5394 150.092C74.4837 149.929 74.4296 149.764 74.3932 149.594C74.3204 149.255 74.3233 148.866 74.5673 148.606C74.763 148.397 75.0546 148.305 75.3231 148.287C75.502 148.274 75.6854 148.301 75.8562 148.359C76.0257 148.416 76.1712 148.529 76.3354 148.599C76.3451 148.235 76.4111 147.854 76.5991 147.544C76.78 147.246 77.0656 147.081 77.3896 147.039C77.722 146.996 78.0492 147.077 78.345 147.24C78.419 147.281 78.4924 147.323 78.5625 147.372C78.6212 147.412 78.6822 147.461 78.7513 147.478C78.8285 147.496 78.8672 147.452 78.9179 147.396C78.9774 147.331 79.0443 147.273 79.115 147.222C79.4275 146.997 79.8357 146.907 80.1941 147.047C80.3592 147.111 80.5193 147.219 80.6304 147.368C80.7294 147.5 80.799 147.709 80.9365 147.802C80.9948 147.841 81.0367 147.79 81.0905 147.752C81.1713 147.696 81.2484 147.633 81.3302 147.579C81.445 147.501 81.5691 147.444 81.7017 147.415C81.8958 147.372 82.1634 147.384 82.2164 147.638C82.2363 147.734 82.2195 147.835 82.2119 147.931C82.2014 148.063 82.1906 148.194 82.1779 148.326C82.1683 148.425 82.1565 148.522 82.1367 148.62C82.1262 148.672 82.0938 148.769 82.1157 148.822C82.1432 148.887 82.2729 148.851 82.3282 148.854C82.4373 148.859 82.5468 148.879 82.6473 148.927C82.7252 148.964 82.807 149.018 82.8392 149.107C82.859 149.163 82.8531 149.219 82.843 149.276C82.8309 149.344 82.8437 149.38 82.8517 149.448C82.999 149.377 83.5087 149.222 83.5702 149.485C83.5907 149.572 83.5413 149.671 83.5036 149.744C83.4376 149.873 83.3514 149.99 83.2635 150.102C83.0799 150.336 82.8615 150.537 82.627 150.708C82.8988 150.832 82.9668 151.19 82.7285 151.401C82.6233 151.494 82.4828 151.514 82.3512 151.506C82.3031 151.504 82.2338 151.485 82.1958 151.493C82.1754 151.497 82.1534 151.514 82.1251 151.516C81.9392 151.527 81.73 151.48 81.5488 151.438C81.2259 151.361 80.921 151.206 80.673 150.97C80.6094 150.91 80.5567 150.875 80.4703 150.875C80.3946 150.875 80.3202 150.895 80.2446 150.896C80.0444 150.9 79.865 150.801 79.6798 150.734C79.6661 150.984 79.5921 151.26 79.4873 151.485C79.4019 151.668 79.2269 151.693 79.0549 151.708C78.5051 151.754 77.9543 151.692 77.4042 151.688C77.9356 151.813 78.4854 151.867 79.0118 152.013C79.2498 152.079 79.0661 152.238 78.9631 152.349C78.7935 152.531 78.6665 152.757 78.5777 152.995C78.3203 152.654 77.862 152.426 77.4531 152.527C77.0014 152.638 76.6784 153.244 76.9626 153.684C77.1276 153.94 77.4288 154.04 77.6792 154.152C77.4812 154.354 77.431 154.654 77.3107 154.907C77.2513 155.031 77.1683 155.172 77.0377 155.214C76.9893 155.23 76.9328 155.231 76.8945 155.269C76.847 155.318 76.8352 155.372 76.7747 155.413C76.5333 155.578 76.1587 155.561 75.9481 155.342C75.7576 155.144 75.8105 154.833 75.9729 154.635C75.7182 154.527 75.2538 154.386 75.359 153.989C74.8054 153.947 73.4687 153.038 74.2182 152.389C73.8123 152.155 73.4427 151.589 73.7093 151.095C73.9146 150.714 74.3855 150.548 74.7708 150.531Z" fill="#FF0000" fill-opacity="0.7"/>
<path fill-rule="evenodd" clip-rule="evenodd" d="M79.4768 189.049C83.0817 188.025 86.0006 186.83 88.2336 185.463C90.4666 184.096 92.1348 182.163 93.2382 179.665C89.6853 180.626 86.9344 181.703 84.9855 182.897C83.0366 184.09 81.2004 186.141 79.4768 189.049Z" fill="#CF1F1F" fill-opacity="0.7"/>
<path fill-rule="evenodd" clip-rule="evenodd" d="M91.6572 185.071C91.6002 185.044 91.5454 185.011 91.4933 184.971C90.416 184.135 76.6424 176.441 74.6724 174.699L82.0898 170.158C83.5877 171.483 92.1017 180.338 93.6684 182.185C96.6384 184.794 105.08 193.964 105.785 194.526C106.526 195.117 105.46 196.859 104.474 196.177C102.905 195.094 98.8176 191.94 96.5809 189.856C94.484 187.903 92.6534 186.111 91.6572 185.071Z" fill="#784931" fill-opacity="0.7"/>
<path fill-rule="evenodd" clip-rule="evenodd" d="M86.4663 190.22C83.9201 192.825 73.7443 200.947 73.1203 201.626C72.4784 202.324 70.8147 201.139 71.5635 200.203C72.755 198.714 76.1886 194.858 78.4253 192.772C80.2244 191.095 81.8909 189.604 83.0277 188.633C80.7549 185.163 75.0689 176.978 74.2658 174.949L80.8296 170.931C81.5997 172.876 86.864 187.284 87.1686 188.862C87.2965 189.414 86.9645 189.895 86.4663 190.22Z" fill="#915B3C" fill-opacity="0.7"/>
<path fill-rule="evenodd" clip-rule="evenodd" d="M71.5439 199.675C70.9923 199.874 70.6214 200.058 70.4314 200.226C70.2274 200.406 69.9597 200.703 69.6282 201.117C69.8368 201.352 71.7115 203.471 75.2524 207.474C75.9467 207.154 76.1583 206.798 75.8871 206.403C75.6159 206.008 75.3938 205.678 75.2207 205.411L73.9011 201.2C73.8911 201.168 73.8572 201.15 73.8254 201.16C73.8248 201.16 73.8242 201.16 73.8236 201.161L73.1053 201.41C72.6595 201.217 72.3455 201.017 72.1632 200.811C71.9945 200.621 71.8406 200.269 71.7015 199.757C71.6841 199.693 71.6177 199.655 71.5533 199.672C71.5501 199.673 71.547 199.674 71.5439 199.675Z" fill="#E4E4E4" fill-opacity="0.7"/>
<path fill-rule="evenodd" clip-rule="evenodd" d="M103.9 196.16C104 196.738 104.117 197.135 104.25 197.352C104.392 197.584 104.638 197.899 104.988 198.297C105.257 198.133 107.67 196.655 112.229 193.864C112.035 193.125 111.72 192.854 111.284 193.053C110.848 193.251 110.484 193.413 110.191 193.537L105.812 194.104C105.779 194.109 105.755 194.139 105.76 194.172C105.76 194.173 105.76 194.173 105.76 194.174L105.881 194.924C105.613 195.33 105.362 195.604 105.127 195.748C104.91 195.881 104.537 195.972 104.008 196.019C103.942 196.025 103.893 196.084 103.899 196.151C103.899 196.154 103.899 196.157 103.9 196.16Z" fill="#E4E4E4" fill-opacity="0.7"/>
<path fill-rule="evenodd" clip-rule="evenodd" d="M74.2888 174.935C76.6746 172.338 79.4113 170.662 82.4991 169.909C85.9058 173.453 89.0834 173.743 93.3133 179.785C90.2786 184.621 82.6172 184.21 79.4213 189.071C76.3283 186.902 73.7652 178.687 74.2888 174.935Z" fill="#F4FFED"/>
<path fill-rule="evenodd" clip-rule="evenodd" d="M90.3566 168.867L95.2919 172.173C96.6043 172.467 97.707 172.855 98.6 173.339C98.8137 173.517 99.0787 173.886 98.2232 173.858C97.3677 173.829 96.4665 173.838 96.3615 174.134C96.2564 174.43 96.7875 174.755 96.5667 175.158C96.4195 175.427 95.642 174.803 94.2342 173.287L89.4126 171.528L90.3566 168.867ZM71.9068 172.879L74.9931 172.32C74.2264 178.824 73.8019 182.278 73.7198 182.682C73.5349 183.592 74.496 184.748 74.9332 185.384C74.0101 186.021 73.8087 184.332 72.6483 185.158C71.5892 185.913 70.8884 187.053 69.3965 186.475C69.2131 186.404 68.962 186.054 69.3425 185.675C70.2906 184.728 71.6142 183.135 71.7463 182.666C71.9264 182.028 71.9799 178.765 71.9068 172.879Z" fill="#915B3C" fill-opacity="0.7"/>
<path fill-rule="evenodd" clip-rule="evenodd" d="M78.2751 158.309L79.5107 157.853C82.7234 162.938 87.4819 167.217 93.7865 170.691L90.5796 176.486C83.9239 171.11 79.3305 165.142 78.2751 158.309Z" fill="#FF0000" fill-opacity="0.7"/>
<path fill-rule="evenodd" clip-rule="evenodd" d="M75.6795 175.385L87.0428 173.28C83.2257 167.363 80.9032 162.166 80.0753 157.689L76.553 157.813C74.6609 162.647 74.8872 168.125 75.6795 175.385Z" fill="#DDE3E9" fill-opacity="0.7"/>
<path fill-rule="evenodd" clip-rule="evenodd" d="M76.4814 157.829C76.4817 157.828 76.482 157.827 76.4823 157.826L76.7061 157.785C76.9755 157.744 77.3864 157.685 77.9387 157.608L79.2049 159.823C79.8266 162.694 81.4144 168.419 83.9684 176.996L76.5196 178.376C76.6509 178.977 76.7959 179.581 76.9547 180.188L71.4161 181.214C70.515 171.708 72.2024 163.913 76.4783 157.827L76.4814 157.829Z" fill="#CB0000"/>
<path fill-rule="evenodd" clip-rule="evenodd" d="M75.581 170.551C76.4897 174.279 77.5008 176.778 78.6142 178.048L76.5319 178.433C75.9394 175.74 75.6224 173.112 75.581 170.551Z" fill="black" fill-opacity="0.7"/>
<path fill-rule="evenodd" clip-rule="evenodd" d="M77.3404 173.55L80.6975 171.161L81.0135 172.869L77.3404 173.55Z" fill="white" fill-opacity="0.7"/>
</svg>
