<svg width="126" height="280" viewBox="0 0 126 280" fill="none" xmlns="http://www.w3.org/2000/svg">
<path opacity="0.87" d="M92.6824 115.027H96.6545V138.528H94.7788C85.8783 138.528 78.0444 139.889 71.2772 142.611C64.5834 145.332 58.9931 149.157 54.5061 154.086C50.0926 158.94 46.7458 164.715 44.4655 171.408C42.1852 178.028 41.045 185.274 41.045 193.145V219.184C41.045 225.289 41.6703 230.659 42.9208 235.293C44.2448 239.853 46.047 243.715 48.3272 246.878C50.6811 249.968 53.4027 252.285 56.4921 253.829C59.6551 255.374 63.1123 256.146 66.8637 256.146C70.6151 256.146 73.9988 255.374 77.0146 253.829C80.0305 252.285 82.605 250.115 84.7382 247.32C86.9449 244.451 88.5999 241.104 89.7033 237.279C90.8802 233.454 91.4687 229.261 91.4687 224.701C91.4687 220.214 90.917 216.058 89.8136 212.233C88.7103 208.408 87.092 205.061 84.9588 202.192C82.8257 199.25 80.1776 197.006 77.0146 195.462C73.9252 193.843 70.3945 193.034 66.4224 193.034C61.2733 193.034 56.676 194.248 52.6303 196.675C48.5847 199.029 45.3849 202.119 43.0311 205.944C40.6773 209.769 39.39 213.814 39.1693 218.08L29.3494 213.226C29.7172 206.973 31.0412 201.236 33.3215 196.013C35.6754 190.791 38.8015 186.23 42.7001 182.332C46.6722 178.433 51.3431 175.417 56.7128 173.284C62.156 171.151 68.1877 170.084 74.8079 170.084C82.4579 170.084 89.1516 171.555 94.8891 174.498C100.627 177.366 105.371 181.302 109.122 186.304C112.947 191.306 115.816 197.08 117.729 203.626C119.641 210.1 120.597 216.94 120.597 224.149C120.597 231.873 119.347 239.081 116.846 245.775C114.419 252.469 110.888 258.316 106.254 263.318C101.62 268.32 96.0292 272.219 89.4826 275.014C82.936 277.809 75.5803 279.207 67.4154 279.207C58.8092 279.207 51.0856 277.588 44.2448 274.352C37.4775 271.115 31.6665 266.628 26.8117 260.891C21.9569 255.153 18.2422 248.46 15.6677 240.81C13.0932 233.16 11.806 224.885 11.806 215.984V204.288C11.806 191.71 13.5346 180.015 16.9918 169.202C20.449 158.389 25.5612 148.937 32.3285 140.845C39.1693 132.68 47.6284 126.354 57.7058 121.867C67.7832 117.307 79.442 115.027 92.6824 115.027Z" fill="#080680"/>
<path fill-rule="evenodd" clip-rule="evenodd" d="M74.3673 149.329C73.6662 148.526 73.1925 147.546 73.2741 146.458C73.5091 143.323 78.05 144.082 78.9305 145.679C79.8111 147.277 79.6984 151.293 78.5559 151.559C78.1003 151.665 77.1307 151.374 76.1444 150.787L76.7561 155.013L73.0967 154.958L74.3673 149.329Z" fill="#915B3C" fill-opacity="0.7"/>
<path fill-rule="evenodd" clip-rule="evenodd" d="M71.7408 145.383C71.6235 145.269 71.5597 145.108 71.5046 144.955C71.4473 144.796 71.3917 144.636 71.3538 144.471C71.278 144.141 71.278 143.764 71.5216 143.512C71.717 143.311 72.0097 143.223 72.2798 143.208C72.4597 143.197 72.6445 143.224 72.8168 143.281C72.9878 143.338 73.1351 143.449 73.3009 143.518C73.3079 143.164 73.3715 142.795 73.5584 142.495C73.7382 142.207 74.0244 142.049 74.35 142.01C74.6843 141.971 75.0141 142.052 75.313 142.212C75.3878 142.252 75.4619 142.294 75.5328 142.342C75.5922 142.381 75.654 142.429 75.7237 142.446C75.8014 142.465 75.8401 142.422 75.8907 142.368C75.9501 142.305 76.017 142.249 76.0877 142.2C76.4005 141.984 76.8106 141.899 77.1723 142.037C77.339 142.101 77.5009 142.207 77.6138 142.352C77.7144 142.481 77.786 142.685 77.925 142.776C77.984 142.814 78.0258 142.765 78.0797 142.729C78.1606 142.674 78.2377 142.614 78.3196 142.562C78.4346 142.488 78.559 142.433 78.6922 142.405C78.8872 142.365 79.1566 142.379 79.2119 142.626C79.2326 142.719 79.2164 142.817 79.2095 142.91C79.1999 143.038 79.19 143.166 79.1783 143.293C79.1693 143.39 79.1581 143.483 79.139 143.578C79.1287 143.629 79.0969 143.723 79.1194 143.774C79.1475 143.838 79.2778 143.804 79.3334 143.807C79.4433 143.813 79.5536 143.833 79.6551 143.88C79.7338 143.916 79.8165 143.969 79.8496 144.057C79.8699 144.111 79.8644 144.165 79.8547 144.22C79.843 144.286 79.8561 144.321 79.8647 144.388C80.0124 144.32 80.5241 144.172 80.588 144.428C80.6093 144.513 80.5603 144.609 80.5229 144.68C80.4574 144.804 80.3716 144.918 80.2839 145.026C80.1009 145.251 79.8827 145.445 79.6479 145.61C79.9224 145.732 79.9934 146.08 79.7552 146.283C79.6501 146.373 79.5088 146.391 79.3764 146.383C79.3279 146.38 79.2581 146.361 79.2199 146.369C79.1994 146.373 79.1773 146.389 79.1489 146.391C78.9619 146.4 78.751 146.353 78.5683 146.311C78.2429 146.234 77.9349 146.081 77.6836 145.851C77.6191 145.792 77.5658 145.757 77.4789 145.757C77.4027 145.756 77.3279 145.775 77.2518 145.776C77.0505 145.778 76.8691 145.68 76.6823 145.614C76.6704 145.858 76.598 146.125 76.4942 146.342C76.4097 146.519 76.2337 146.543 76.0607 146.556C75.5078 146.597 74.9531 146.533 74.3995 146.525C74.9351 146.65 75.4888 146.707 76.0196 146.852C76.2596 146.918 76.076 147.071 75.9731 147.177C75.8038 147.353 75.6777 147.572 75.5901 147.803C75.3286 147.469 74.8656 147.245 74.4549 147.34C74.0012 147.445 73.6807 148.031 73.97 148.46C74.1379 148.71 74.4418 148.81 74.6946 148.92C74.4969 149.114 74.4486 149.406 74.3293 149.65C74.2705 149.77 74.188 149.906 74.0569 149.947C74.0084 149.961 73.9515 149.962 73.9132 149.999C73.8658 150.046 73.8544 150.098 73.7938 150.138C73.5521 150.296 73.175 150.278 72.9614 150.063C72.7682 149.87 72.8191 149.568 72.9811 149.377C72.724 149.27 72.2555 149.13 72.3585 148.745C71.8011 148.701 70.4492 147.809 71.1986 147.183C70.7884 146.954 70.4121 146.401 70.6768 145.923C70.8806 145.555 71.3532 145.397 71.7408 145.383Z" fill="#FF0000" fill-opacity="0.7"/>
<path fill-rule="evenodd" clip-rule="evenodd" d="M76.4948 183.096C80.101 182.113 83.0181 180.955 85.2464 179.623C87.4746 178.291 89.1323 176.397 90.2195 173.941C86.665 174.863 83.9154 175.905 81.9707 177.067C80.0259 178.23 78.2006 180.24 76.4948 183.096Z" fill="#CF1F1F" fill-opacity="0.7"/>
<path fill-rule="evenodd" clip-rule="evenodd" d="M88.6509 179.224C88.594 179.198 88.5392 179.165 88.4871 179.126C87.4088 178.301 73.6453 170.674 71.6719 168.955L79.0184 164.568C80.5189 165.874 89.0576 174.598 90.6304 176.417C93.6053 178.991 102.075 188.022 102.78 188.577C103.522 189.16 102.474 190.856 101.488 190.183C99.9189 189.111 95.8277 185.997 93.5863 183.942C91.4851 182.015 89.65 180.249 88.6509 179.224Z" fill="#784931" fill-opacity="0.7"/>
<path fill-rule="evenodd" clip-rule="evenodd" d="M83.4779 184.338C80.9553 186.875 70.8567 194.768 70.2388 195.429C69.6032 196.109 67.9331 194.934 68.6737 194.022C69.8521 192.57 73.2511 188.812 75.4687 186.783C77.2523 185.15 78.9049 183.701 80.0326 182.756C77.7371 179.336 71.9979 171.264 71.1808 169.268L77.704 165.374C78.4876 167.288 83.8527 181.461 84.1689 183.011C84.3007 183.553 83.9729 184.024 83.4779 184.338Z" fill="#915B3C" fill-opacity="0.7"/>
<path fill-rule="evenodd" clip-rule="evenodd" d="M68.5248 193.509C67.977 193.699 67.6091 193.875 67.4212 194.038C67.2194 194.212 66.9551 194.5 66.6282 194.901C66.8378 195.133 68.7209 197.215 72.2777 201.148C72.9666 200.841 73.1745 200.494 72.9015 200.107C72.6284 199.72 72.4047 199.396 72.2303 199.135L70.8838 195.014C70.8736 194.983 70.8397 194.966 70.8081 194.975C70.8075 194.975 70.8069 194.975 70.8063 194.976L70.093 195.214C69.6476 195.022 69.3333 194.825 69.1502 194.622C68.9807 194.435 68.8248 194.091 68.6824 193.59C68.6645 193.527 68.5981 193.489 68.5341 193.506C68.5309 193.507 68.5278 193.508 68.5248 193.509Z" fill="#E4E4E4" fill-opacity="0.7"/>
<path fill-rule="evenodd" clip-rule="evenodd" d="M100.904 190.053C101.009 190.623 101.129 191.014 101.263 191.228C101.407 191.458 101.656 191.77 102.01 192.165C102.277 192.005 104.684 190.567 109.229 187.852C109.029 187.123 108.712 186.854 108.277 187.046C107.841 187.239 107.478 187.395 107.186 187.515L102.803 188.042C102.77 188.046 102.747 188.076 102.752 188.108C102.752 188.109 102.752 188.11 102.752 188.11L102.879 188.85C102.614 189.247 102.364 189.516 102.13 189.656C101.914 189.785 101.541 189.872 101.011 189.915C100.945 189.92 100.896 189.978 100.903 190.043C100.903 190.047 100.904 190.05 100.904 190.053Z" fill="#E4E4E4" fill-opacity="0.7"/>
<path fill-rule="evenodd" clip-rule="evenodd" d="M71.2743 169.228C73.6369 166.697 76.3571 165.073 79.4347 164.357C82.8633 167.86 86.0386 168.167 90.3081 174.126C87.3143 178.849 79.6609 178.388 76.5063 183.134C73.4014 180.983 70.7798 172.906 71.2743 169.228Z" fill="#F4FFED"/>
<path fill-rule="evenodd" clip-rule="evenodd" d="M87.2926 163.32L92.2417 166.619C93.554 166.917 94.6575 167.308 95.5522 167.792C95.7668 167.969 96.0337 168.335 95.1793 168.302C94.3249 168.268 93.4252 168.271 93.3222 168.563C93.2192 168.855 93.7515 169.18 93.5337 169.577C93.3884 169.841 92.6081 169.22 91.1927 167.713L86.3671 165.944L87.2926 163.32ZM68.8963 167.169L71.9743 166.636C71.2504 173.058 70.8487 176.469 70.7692 176.868C70.5905 177.766 71.5576 178.914 71.9982 179.545C71.0805 180.169 70.8686 178.499 69.7152 179.308C68.6625 180.047 67.9701 181.17 66.4768 180.589C66.2932 180.517 66.0402 180.17 66.4177 179.797C67.3583 178.868 68.6698 177.302 68.7987 176.84C68.9744 176.21 69.0069 172.986 68.8963 167.169Z" fill="#915B3C" fill-opacity="0.7"/>
<path fill-rule="evenodd" clip-rule="evenodd" d="M75.277 152.935L76.5008 152.496C79.7227 157.512 84.4743 161.747 90.7557 165.2L87.6087 170.874C80.9666 165.55 76.3683 159.656 75.277 152.935Z" fill="#FF0000" fill-opacity="0.7"/>
<path fill-rule="evenodd" clip-rule="evenodd" d="M72.7665 169.734L84.0428 167.739C80.2128 161.907 77.8722 156.79 77.0211 152.391L73.5225 152.49C71.6734 157.224 71.9331 162.603 72.7665 169.734Z" fill="#DDE3E9" fill-opacity="0.7"/>
<path fill-rule="evenodd" clip-rule="evenodd" d="M73.4047 152.526C73.405 152.525 73.4053 152.524 73.4056 152.523L73.6275 152.484C73.8947 152.446 74.3022 152.391 74.85 152.318L76.1211 154.5C76.7565 157.321 78.3692 162.948 80.9593 171.381L73.5734 172.688C73.7075 173.278 73.8553 173.872 74.0168 174.469L68.525 175.441C67.57 166.108 69.1955 158.469 73.4016 152.524L73.4047 152.526Z" fill="#CB0000"/>
<path fill-rule="evenodd" clip-rule="evenodd" d="M72.5736 164.993C73.4939 168.65 74.5075 171.104 75.6142 172.354L73.5618 172.719C72.9601 170.077 72.6307 167.502 72.5736 164.993Z" fill="black" fill-opacity="0.7"/>
<path fill-rule="evenodd" clip-rule="evenodd" d="M74.3508 167.938L77.6871 165.6L78.0135 167.289L74.3508 167.938Z" fill="white" fill-opacity="0.7"/>
</svg>
