<svg width="126" height="280" viewBox="0 0 126 280" fill="none" xmlns="http://www.w3.org/2000/svg">
<path opacity="0.87" d="M92.6824 115.027H96.6545V138.528H94.7788C85.8783 138.528 78.0444 139.889 71.2772 142.611C64.5834 145.332 58.9931 149.157 54.5061 154.086C50.0926 158.94 46.7458 164.715 44.4655 171.408C42.1852 178.028 41.045 185.274 41.045 193.145V219.184C41.045 225.289 41.6703 230.659 42.9208 235.293C44.2448 239.853 46.047 243.715 48.3272 246.878C50.6811 249.968 53.4027 252.285 56.4921 253.829C59.6551 255.374 63.1123 256.146 66.8637 256.146C70.6151 256.146 73.9988 255.374 77.0146 253.829C80.0305 252.285 82.605 250.115 84.7382 247.32C86.9449 244.451 88.5999 241.104 89.7033 237.279C90.8802 233.454 91.4687 229.261 91.4687 224.701C91.4687 220.214 90.917 216.058 89.8136 212.233C88.7103 208.408 87.092 205.061 84.9588 202.192C82.8257 199.25 80.1776 197.006 77.0146 195.462C73.9252 193.843 70.3945 193.034 66.4224 193.034C61.2733 193.034 56.676 194.248 52.6303 196.675C48.5847 199.029 45.3849 202.119 43.0311 205.944C40.6773 209.769 39.39 213.814 39.1693 218.08L29.3494 213.226C29.7172 206.973 31.0412 201.236 33.3215 196.013C35.6754 190.791 38.8015 186.23 42.7001 182.332C46.6722 178.433 51.3431 175.417 56.7128 173.284C62.156 171.151 68.1877 170.084 74.8079 170.084C82.4579 170.084 89.1516 171.555 94.8891 174.498C100.627 177.366 105.371 181.302 109.122 186.304C112.947 191.306 115.816 197.08 117.729 203.626C119.641 210.1 120.597 216.94 120.597 224.149C120.597 231.873 119.347 239.081 116.846 245.775C114.419 252.469 110.888 258.316 106.254 263.318C101.62 268.32 96.0292 272.219 89.4826 275.014C82.936 277.809 75.5803 279.207 67.4154 279.207C58.8092 279.207 51.0856 277.588 44.2448 274.352C37.4775 271.115 31.6665 266.628 26.8117 260.891C21.9569 255.153 18.2422 248.46 15.6677 240.81C13.0932 233.16 11.806 224.885 11.806 215.984V204.288C11.806 191.71 13.5346 180.015 16.9918 169.202C20.449 158.389 25.5612 148.937 32.3285 140.845C39.1693 132.68 47.6284 126.354 57.7058 121.867C67.7832 117.307 79.442 115.027 92.6824 115.027Z" fill="#080680"/>
<path fill-rule="evenodd" clip-rule="evenodd" d="M74.3723 149.866C73.6738 149.06 73.2023 148.077 73.2851 146.984C73.5236 143.836 78.054 144.592 78.9307 146.195C79.8073 147.798 79.6897 151.832 78.5493 152.101C78.0945 152.208 77.1273 151.916 76.1439 151.328L76.7488 155.572L73.0972 155.521L74.3723 149.866Z" fill="#915B3C" fill-opacity="0.7"/>
<path fill-rule="evenodd" clip-rule="evenodd" d="M71.7462 145.908C71.6292 145.793 71.5657 145.631 71.5108 145.478C71.4538 145.318 71.3984 145.157 71.3608 144.991C71.2855 144.66 71.286 144.281 71.5297 144.028C71.7251 143.825 72.0177 143.737 72.2875 143.721C72.4672 143.71 72.6517 143.737 72.8238 143.794C72.9946 143.851 73.1416 143.962 73.3071 144.032C73.3145 143.676 73.3785 143.305 73.5656 143.003C73.7456 142.714 74.0317 142.554 74.357 142.515C74.691 142.475 75.0204 142.556 75.3187 142.717C75.3934 142.757 75.4674 142.799 75.5382 142.847C75.5975 142.887 75.6591 142.934 75.7287 142.951C75.8064 142.97 75.845 142.927 75.8957 142.873C75.9551 142.809 76.0219 142.753 76.0927 142.704C76.4055 142.486 76.8152 142.4 77.1764 142.539C77.3428 142.603 77.5044 142.709 77.617 142.855C77.7173 142.984 77.7886 143.189 77.9273 143.28C77.9862 143.319 78.0281 143.269 78.0819 143.233C78.1628 143.178 78.2399 143.118 78.3218 143.064C78.4367 142.99 78.5611 142.935 78.6942 142.907C78.8891 142.866 79.1581 142.88 79.213 143.128C79.2336 143.221 79.2173 143.32 79.2103 143.414C79.2006 143.542 79.1905 143.67 79.1786 143.799C79.1696 143.896 79.1582 143.99 79.139 144.085C79.1287 144.136 79.0968 144.231 79.1192 144.282C79.1471 144.346 79.2773 144.312 79.3329 144.315C79.4427 144.321 79.5529 144.341 79.6542 144.388C79.7328 144.424 79.8153 144.477 79.8482 144.565C79.8685 144.619 79.8629 144.674 79.8531 144.729C79.8413 144.796 79.8545 144.831 79.8629 144.898C80.0105 144.83 80.5219 144.681 80.5854 144.938C80.6066 145.023 80.5575 145.119 80.5201 145.19C80.4545 145.316 80.3686 145.43 80.2809 145.538C80.0978 145.765 79.8795 145.96 79.6448 146.126C79.9188 146.248 79.9894 146.598 79.7512 146.802C79.646 146.893 79.5049 146.911 79.3726 146.903C79.3242 146.901 79.2544 146.882 79.2163 146.889C79.1957 146.893 79.1737 146.91 79.1453 146.911C78.9585 146.921 78.7479 146.874 78.5655 146.832C78.2404 146.755 77.933 146.602 77.6822 146.371C77.6179 146.311 77.5647 146.277 77.4779 146.276C77.4018 146.276 77.3271 146.295 77.251 146.296C77.0499 146.298 76.8688 146.2 76.6823 146.134C76.6701 146.379 76.5974 146.647 76.4935 146.866C76.4088 147.044 76.2329 147.068 76.0602 147.081C75.5077 147.123 74.9537 147.059 74.4007 147.052C74.9356 147.177 75.4886 147.233 76.0187 147.379C76.2584 147.445 76.0748 147.599 75.9719 147.706C75.8025 147.882 75.6762 148.102 75.5884 148.335C75.3276 148 74.8654 147.775 74.4551 147.871C74.0016 147.977 73.6807 148.566 73.9691 148.998C74.1366 149.248 74.44 149.348 74.6924 149.458C74.4947 149.654 74.4461 149.947 74.3266 150.193C74.2677 150.314 74.1851 150.45 74.0541 150.491C74.0056 150.506 73.9488 150.507 73.9105 150.544C73.863 150.591 73.8516 150.644 73.791 150.684C73.5493 150.843 73.1727 150.825 72.9596 150.61C72.7668 150.415 72.8181 150.112 72.9801 149.92C72.7235 149.812 72.2557 149.672 72.359 149.285C71.8022 149.242 70.4529 148.347 71.2023 147.718C70.7928 147.487 70.4176 146.932 70.6826 146.452C70.8867 146.082 71.359 145.922 71.7462 145.908Z" fill="#FF0000" fill-opacity="0.7"/>
<path fill-rule="evenodd" clip-rule="evenodd" d="M76.4922 183.755C80.0981 182.765 83.0156 181.601 85.2446 180.263C87.4736 178.925 89.1331 177.024 90.2231 174.562C86.6689 175.49 83.919 176.538 81.9736 177.706C80.0281 178.873 78.201 180.89 76.4922 183.755Z" fill="#CF1F1F" fill-opacity="0.7"/>
<path fill-rule="evenodd" clip-rule="evenodd" d="M88.6523 179.865C88.5954 179.839 88.5407 179.806 88.4886 179.766C87.4104 178.94 73.6452 171.302 71.6724 169.579L79.0308 165.166C80.5308 166.476 89.0654 175.221 90.6372 177.045C93.6113 179.625 102.076 188.679 102.781 189.235C103.523 189.82 102.472 191.523 101.486 190.849C99.917 189.775 95.8264 186.654 93.5858 184.594C91.4853 182.663 89.651 180.893 88.6523 179.865Z" fill="#784931" fill-opacity="0.7"/>
<path fill-rule="evenodd" clip-rule="evenodd" d="M83.4759 184.985C80.9493 187.534 70.8377 195.464 70.2188 196.128C69.5822 196.811 67.9132 195.635 68.6551 194.719C69.8357 193.261 73.2405 189.486 75.4613 187.448C77.2475 185.808 78.9025 184.351 80.0317 183.403C77.74 179.974 72.0097 171.883 71.195 169.882L77.725 165.967C78.5063 167.886 83.8545 182.098 84.1687 183.653C84.2999 184.197 83.9714 184.669 83.4759 184.985Z" fill="#915B3C" fill-opacity="0.7"/>
<path fill-rule="evenodd" clip-rule="evenodd" d="M68.5279 194.203C67.9795 194.395 67.6112 194.572 67.4229 194.736C67.2207 194.911 66.9559 195.201 66.6282 195.604C66.8376 195.836 68.7193 197.924 72.2734 201.869C72.9633 201.56 73.1718 201.212 72.899 200.823C72.6263 200.435 72.4028 200.11 72.2287 199.847L70.8866 195.712C70.8765 195.681 70.8426 195.663 70.811 195.673C70.8104 195.673 70.8098 195.673 70.8092 195.673L70.095 195.913C69.6495 195.721 69.3353 195.523 69.1524 195.32C68.983 195.132 68.8274 194.787 68.6856 194.284C68.6677 194.221 68.6013 194.183 68.5373 194.2C68.5341 194.201 68.531 194.202 68.5279 194.203Z" fill="#E4E4E4" fill-opacity="0.7"/>
<path fill-rule="evenodd" clip-rule="evenodd" d="M100.904 190.738C101.008 191.309 101.127 191.701 101.261 191.916C101.405 192.146 101.653 192.458 102.006 192.854C102.274 192.693 104.682 191.249 109.229 188.52C109.031 187.79 108.713 187.521 108.278 187.714C107.843 187.907 107.479 188.064 107.187 188.185L102.805 188.719C102.772 188.723 102.749 188.753 102.753 188.786C102.754 188.786 102.754 188.787 102.754 188.787L102.879 189.529C102.614 189.928 102.364 190.197 102.13 190.338C101.913 190.468 101.54 190.555 101.011 190.599C100.945 190.605 100.896 190.662 100.902 190.728C100.903 190.731 100.903 190.734 100.904 190.738Z" fill="#E4E4E4" fill-opacity="0.7"/>
<path fill-rule="evenodd" clip-rule="evenodd" d="M71.2766 169.846C73.6432 167.304 76.3661 165.671 79.4455 164.949C82.8703 168.459 86.0461 168.763 90.3089 174.736C87.3082 179.477 79.6534 179.025 76.4919 183.79C73.389 181.636 70.7772 173.536 71.2766 169.846Z" fill="#F4FFED"/>
<path fill-rule="evenodd" clip-rule="evenodd" d="M87.3038 163.911L92.2505 167.211C93.5629 167.509 94.6663 167.899 95.5607 168.383C95.7751 168.561 96.0417 168.927 95.1871 168.895C94.3325 168.862 93.4325 168.865 93.3292 169.158C93.2259 169.451 93.758 169.776 93.5396 170.174C93.394 170.439 92.6142 169.817 91.2001 168.309L86.3752 166.541L87.3038 163.911ZM68.8985 167.787L71.9779 167.25C71.2468 173.686 70.8412 177.104 70.7613 177.504C70.5815 178.404 71.5476 179.553 71.9876 180.185C71.069 180.811 70.8589 179.138 69.7044 179.95C68.6506 180.691 67.9567 181.817 66.4637 181.236C66.2801 181.165 66.0274 180.818 66.4055 180.444C67.3473 179.512 68.6608 177.941 68.7902 177.478C68.9667 176.846 69.0028 173.616 68.8985 167.787Z" fill="#915B3C" fill-opacity="0.7"/>
<path fill-rule="evenodd" clip-rule="evenodd" d="M75.2767 153.497L76.5025 153.055C79.7228 158.083 84.4756 162.325 90.7608 165.782L87.6038 171.476C80.9595 166.143 76.3619 160.237 75.2767 153.497Z" fill="#FF0000" fill-opacity="0.7"/>
<path fill-rule="evenodd" clip-rule="evenodd" d="M72.7519 170.343L84.0428 168.329C80.2149 162.483 77.8774 157.353 77.0302 152.94L73.5276 153.044C71.6713 157.794 71.9254 163.19 72.7519 170.343Z" fill="#DDE3E9" fill-opacity="0.7"/>
<path fill-rule="evenodd" clip-rule="evenodd" d="M73.4176 153.076C73.4179 153.075 73.4182 153.075 73.4185 153.074L73.6407 153.034C73.9083 152.996 74.3163 152.94 74.8649 152.866L76.1352 155.053C76.7683 157.883 78.3768 163.526 80.9608 171.983L73.5644 173.303C73.698 173.895 73.8454 174.49 74.0064 175.089L68.5067 176.07C67.5608 166.708 69.1967 159.043 73.4144 153.074L73.4176 153.076Z" fill="#CB0000"/>
<path fill-rule="evenodd" clip-rule="evenodd" d="M72.5748 165.586C73.4932 169.255 74.5064 171.716 75.6142 172.97L73.5568 173.338C72.9566 170.687 72.6293 168.103 72.5748 165.586Z" fill="black" fill-opacity="0.7"/>
<path fill-rule="evenodd" clip-rule="evenodd" d="M74.3495 168.54L77.6894 166.193L78.014 167.886L74.3495 168.54Z" fill="white" fill-opacity="0.7"/>
</svg>
