<svg width="151" height="287" viewBox="0 0 151 287" fill="none" xmlns="http://www.w3.org/2000/svg">
<path opacity="0.87" d="M119.494 116.351V132.239L56.3818 277H25.598L88.7103 139.3H7.06151V116.351H119.494Z" fill="#080680"/>
<path fill-rule="evenodd" clip-rule="evenodd" d="M107.395 95.5524C106.709 94.7329 106.248 93.7319 106.337 92.6155C106.593 89.3989 111.071 90.1461 111.929 91.7782C112.786 93.4103 112.645 97.53 111.515 97.8105C111.064 97.9223 110.108 97.6303 109.139 97.0348L109.711 101.365L106.098 101.333L107.395 95.5524Z" fill="#915B3C" fill-opacity="0.7"/>
<path fill-rule="evenodd" clip-rule="evenodd" d="M104.771 91.5307C104.655 91.4142 104.593 91.2487 104.539 91.0917C104.484 90.9285 104.43 90.7637 104.393 90.594C104.32 90.2551 104.323 89.8661 104.567 89.6055C104.763 89.3966 105.055 89.3046 105.323 89.2864C105.502 89.2743 105.685 89.3009 105.856 89.3587C106.026 89.416 106.171 89.5285 106.335 89.599C106.345 89.2345 106.411 88.8536 106.599 88.544C106.78 88.2461 107.066 88.0805 107.39 88.0389C107.722 87.9961 108.049 88.0766 108.345 88.2398C108.419 88.2806 108.492 88.3234 108.562 88.3717C108.621 88.4121 108.682 88.4608 108.751 88.4776C108.828 88.4964 108.867 88.4522 108.918 88.3963C108.977 88.3308 109.044 88.2732 109.115 88.2223C109.427 87.997 109.836 87.9069 110.194 88.0467C110.359 88.1111 110.519 88.2194 110.63 88.3677C110.729 88.4998 110.799 88.7088 110.936 88.8014C110.995 88.8408 111.037 88.7897 111.091 88.7521C111.171 88.6957 111.248 88.6333 111.33 88.5785C111.445 88.5014 111.569 88.444 111.702 88.4146C111.896 88.3716 112.163 88.3844 112.216 88.6383C112.236 88.7336 112.219 88.8353 112.212 88.9311C112.201 89.0627 112.191 89.1943 112.178 89.3257C112.168 89.4254 112.156 89.5217 112.137 89.6196C112.126 89.6718 112.094 89.7689 112.116 89.8215C112.143 89.8871 112.273 89.8511 112.328 89.8538C112.437 89.8593 112.547 89.8794 112.647 89.9269C112.725 89.9637 112.807 90.0175 112.839 90.1074C112.859 90.1626 112.853 90.2191 112.843 90.2756C112.831 90.3435 112.844 90.3796 112.852 90.4482C112.999 90.3774 113.509 90.2216 113.57 90.4846C113.591 90.5722 113.541 90.6706 113.504 90.744C113.438 90.8727 113.351 90.9902 113.263 91.1021C113.08 91.3356 112.862 91.5366 112.627 91.7079C112.899 91.8315 112.967 92.1897 112.728 92.4006C112.623 92.4937 112.483 92.5135 112.351 92.5063C112.303 92.5037 112.234 92.4846 112.196 92.4926C112.175 92.4969 112.153 92.514 112.125 92.5157C111.939 92.5268 111.73 92.4802 111.549 92.4375C111.226 92.3613 110.921 92.2055 110.673 91.9701C110.609 91.9097 110.557 91.8748 110.47 91.875C110.395 91.8751 110.32 91.8952 110.245 91.8964C110.044 91.8998 109.865 91.8005 109.68 91.7338C109.666 91.9844 109.592 92.2599 109.487 92.4845C109.402 92.6677 109.227 92.6929 109.055 92.7075C108.505 92.7544 107.954 92.6919 107.404 92.6879C107.936 92.8128 108.485 92.8671 109.012 93.0132C109.25 93.0792 109.066 93.2382 108.963 93.3487C108.793 93.5305 108.667 93.7566 108.578 93.9951C108.32 93.6537 107.862 93.4262 107.453 93.5268C107.001 93.638 106.678 94.244 106.963 94.6842C107.128 94.9397 107.429 95.0404 107.679 95.1518C107.481 95.3538 107.431 95.6542 107.311 95.9065C107.251 96.031 107.168 96.1716 107.038 96.214C106.989 96.2297 106.933 96.2305 106.894 96.2694C106.847 96.3176 106.835 96.3718 106.775 96.413C106.533 96.5775 106.159 96.5614 105.948 96.3421C105.758 96.1438 105.81 95.8331 105.973 95.6352C105.718 95.5265 105.254 95.3855 105.359 94.9886C104.805 94.947 103.469 94.0379 104.218 93.3887C103.812 93.1548 103.443 92.5886 103.709 92.0947C103.915 91.7143 104.386 91.5476 104.771 91.5307Z" fill="#FF0000" fill-opacity="0.7"/>
<path fill-rule="evenodd" clip-rule="evenodd" d="M109.477 130.049C113.082 129.025 116.001 127.83 118.234 126.463C120.467 125.095 122.135 123.163 123.238 120.665C119.685 121.626 116.934 122.703 114.986 123.897C113.037 125.09 111.2 127.141 109.477 130.049Z" fill="#CF1F1F" fill-opacity="0.7"/>
<path fill-rule="evenodd" clip-rule="evenodd" d="M121.657 126.07C121.6 126.044 121.545 126.011 121.493 125.971C120.416 125.135 106.642 117.441 104.672 115.699L112.09 111.158C113.588 112.482 122.102 121.338 123.668 123.185C126.638 125.794 135.08 134.964 135.785 135.526C136.526 136.117 135.46 137.859 134.474 137.177C132.905 136.094 128.818 132.94 126.581 130.856C124.484 128.903 122.653 127.111 121.657 126.07Z" fill="#784931" fill-opacity="0.7"/>
<path fill-rule="evenodd" clip-rule="evenodd" d="M116.466 131.22C113.92 133.825 103.744 141.947 103.12 142.626C102.478 143.324 100.815 142.139 101.564 141.203C102.755 139.714 106.189 135.858 108.425 133.772C110.224 132.095 111.891 130.604 113.028 129.633C110.755 126.163 105.069 117.978 104.266 115.949L110.83 111.931C111.6 113.876 116.864 128.284 117.169 129.862C117.297 130.414 116.964 130.896 116.466 131.22Z" fill="#915B3C" fill-opacity="0.7"/>
<path fill-rule="evenodd" clip-rule="evenodd" d="M101.544 140.675C100.992 140.874 100.621 141.058 100.431 141.226C100.227 141.406 99.9597 141.703 99.6282 142.117C99.8368 142.352 101.712 144.471 105.252 148.474C105.947 148.154 106.158 147.797 105.887 147.403C105.616 147.008 105.394 146.678 105.221 146.411L103.901 142.2C103.891 142.168 103.857 142.15 103.825 142.16C103.825 142.16 103.824 142.16 103.824 142.161L103.105 142.41C102.66 142.217 102.345 142.017 102.163 141.811C101.994 141.621 101.841 141.269 101.702 140.757C101.684 140.693 101.618 140.655 101.553 140.672C101.55 140.673 101.547 140.674 101.544 140.675Z" fill="#E4E4E4" fill-opacity="0.7"/>
<path fill-rule="evenodd" clip-rule="evenodd" d="M133.9 137.16C134 137.738 134.117 138.135 134.25 138.352C134.392 138.584 134.638 138.899 134.988 139.297C135.257 139.133 137.67 137.655 142.229 134.864C142.035 134.125 141.72 133.854 141.284 134.053C140.848 134.251 140.484 134.413 140.191 134.537L135.812 135.104C135.779 135.109 135.755 135.139 135.76 135.172C135.76 135.173 135.76 135.173 135.76 135.174L135.881 135.924C135.613 136.33 135.362 136.604 135.127 136.748C134.91 136.881 134.537 136.972 134.008 137.019C133.942 137.025 133.893 137.084 133.899 137.151C133.899 137.154 133.899 137.157 133.9 137.16Z" fill="#E4E4E4" fill-opacity="0.7"/>
<path fill-rule="evenodd" clip-rule="evenodd" d="M104.289 115.935C106.675 113.338 109.411 111.662 112.499 110.909C115.906 114.453 119.083 114.743 123.313 120.785C120.279 125.621 112.617 125.21 109.421 130.071C106.328 127.902 103.765 119.687 104.289 115.935Z" fill="#F4FFED"/>
<path fill-rule="evenodd" clip-rule="evenodd" d="M120.357 109.867L125.292 113.173C126.604 113.467 127.707 113.855 128.6 114.339C128.814 114.517 129.079 114.886 128.223 114.858C127.368 114.829 126.467 114.838 126.361 115.134C126.256 115.43 126.788 115.755 126.567 116.158C126.42 116.427 125.642 115.803 124.234 114.287L119.413 112.528L120.357 109.867ZM101.907 113.879L104.993 113.32C104.226 119.824 103.802 123.278 103.72 123.682C103.535 124.592 104.496 125.748 104.933 126.384C104.01 127.021 103.809 125.332 102.648 126.158C101.589 126.913 100.888 128.053 99.3965 127.475C99.2131 127.404 98.962 127.054 99.3425 126.675C100.291 125.728 101.614 124.135 101.746 123.666C101.926 123.028 101.98 119.765 101.907 113.879Z" fill="#915B3C" fill-opacity="0.7"/>
<path fill-rule="evenodd" clip-rule="evenodd" d="M108.275 99.3086L109.511 98.8532C112.723 103.938 117.482 108.217 123.787 111.691L120.58 117.486C113.924 112.109 109.33 106.142 108.275 99.3086Z" fill="#FF0000" fill-opacity="0.7"/>
<path fill-rule="evenodd" clip-rule="evenodd" d="M105.679 116.384L117.043 114.28C113.226 108.363 110.903 103.166 110.075 98.6889L106.553 98.8129C104.661 103.647 104.887 109.125 105.679 116.384Z" fill="#DDE3E9" fill-opacity="0.7"/>
<path fill-rule="evenodd" clip-rule="evenodd" d="M106.481 98.8288C106.482 98.8279 106.482 98.827 106.482 98.8261L106.706 98.7846C106.976 98.7443 107.386 98.6853 107.939 98.6079L109.205 100.823C109.827 103.694 111.414 109.419 113.968 117.996L106.52 119.376C106.651 119.977 106.796 120.581 106.955 121.188L101.416 122.214C100.515 112.708 102.202 104.913 106.478 98.8268L106.481 98.8288Z" fill="#CB0000"/>
<path fill-rule="evenodd" clip-rule="evenodd" d="M105.581 111.551C106.49 115.279 107.501 117.778 108.614 119.048L106.532 119.433C105.939 116.74 105.622 114.112 105.581 111.551Z" fill="black" fill-opacity="0.7"/>
<path fill-rule="evenodd" clip-rule="evenodd" d="M107.34 114.55L110.698 112.161L111.014 113.869L107.34 114.55Z" fill="white" fill-opacity="0.7"/>
</svg>
