<svg width="150" height="277" viewBox="0 0 150 277" fill="none" xmlns="http://www.w3.org/2000/svg">
<path opacity="0.87" d="M119.494 116.351V132.239L56.3818 277H25.598L88.7103 139.3H7.06151V116.351H119.494Z" fill="#080680"/>
<path fill-rule="evenodd" clip-rule="evenodd" d="M107.338 94.2043C106.635 93.4109 106.158 92.4459 106.233 91.3762C106.451 88.2941 110.983 89.0593 111.869 90.6338C112.756 92.2083 112.665 96.1577 111.527 96.4145C111.073 96.5169 110.105 96.2265 109.118 95.6448L109.751 99.8038L106.101 99.7344L107.338 94.2043Z" fill="#915B3C" fill-opacity="0.7"/>
<path fill-rule="evenodd" clip-rule="evenodd" d="M104.71 90.308C104.593 90.1957 104.528 90.0374 104.472 89.8873C104.414 89.7312 104.358 89.5737 104.319 89.4117C104.242 89.0881 104.24 88.7176 104.482 88.4721C104.676 88.2753 104.968 88.191 105.237 88.1767C105.417 88.1672 105.601 88.1946 105.774 88.2515C105.945 88.308 106.092 88.4168 106.258 88.4858C106.263 88.1387 106.325 87.7767 106.51 87.4839C106.688 87.2022 106.973 87.0477 107.298 87.0117C107.631 86.9747 107.961 87.055 108.26 87.2137C108.335 87.2535 108.409 87.295 108.48 87.3418C108.54 87.381 108.602 87.428 108.671 87.4448C108.749 87.4636 108.787 87.4219 108.838 87.3692C108.897 87.3075 108.963 87.2534 109.033 87.2057C109.345 86.9947 109.754 86.9134 110.115 87.0505C110.282 87.1137 110.444 87.2186 110.558 87.3611C110.659 87.4881 110.732 87.6879 110.871 87.7777C110.93 87.8158 110.971 87.7676 111.025 87.7325C111.105 87.6796 111.182 87.6211 111.264 87.5697C111.378 87.4976 111.502 87.4444 111.635 87.4178C111.829 87.379 112.098 87.3942 112.155 87.6366C112.176 87.7276 112.16 87.8243 112.154 87.9155C112.145 88.0407 112.136 88.1659 112.125 88.2909C112.116 88.3858 112.106 88.4774 112.087 88.5704C112.077 88.6199 112.046 88.7121 112.068 88.7624C112.097 88.8252 112.227 88.7923 112.282 88.7956C112.392 88.802 112.502 88.8223 112.604 88.8687C112.683 88.9046 112.765 88.9568 112.799 89.0428C112.819 89.0956 112.814 89.1493 112.805 89.203C112.793 89.2675 112.807 89.3021 112.816 89.3675C112.963 89.3017 113.473 89.159 113.538 89.4103C113.56 89.4939 113.511 89.587 113.474 89.6565C113.41 89.7784 113.324 89.8893 113.237 89.9949C113.056 90.2153 112.839 90.4042 112.606 90.5648C112.88 90.6855 112.953 91.0274 112.716 91.2256C112.612 91.3131 112.471 91.3303 112.338 91.322C112.29 91.319 112.22 91.3 112.182 91.3073C112.162 91.3112 112.14 91.3272 112.111 91.3285C111.925 91.3369 111.714 91.2903 111.531 91.2475C111.206 91.1713 110.898 91.0196 110.646 90.7926C110.581 90.7344 110.528 90.7006 110.441 90.6997C110.365 90.699 110.29 90.7172 110.214 90.7176C110.013 90.7185 109.832 90.622 109.645 90.5564C109.634 90.7949 109.563 91.0565 109.461 91.2692C109.377 91.4428 109.202 91.4648 109.029 91.4768C108.477 91.5152 107.923 91.4496 107.37 91.4396C107.906 91.5645 108.459 91.6224 108.99 91.7674C109.23 91.833 109.047 91.9824 108.945 92.0864C108.777 92.2577 108.652 92.4716 108.566 92.6977C108.303 92.3697 107.84 92.1479 107.43 92.2391C106.978 92.34 106.661 92.9135 106.952 93.3359C107.121 93.5811 107.425 93.6804 107.678 93.7893C107.481 93.9794 107.434 94.265 107.317 94.504C107.259 94.6219 107.177 94.7548 107.046 94.7937C106.998 94.8082 106.941 94.8084 106.903 94.845C106.856 94.8903 106.845 94.9418 106.785 94.9804C106.544 95.1343 106.167 95.1148 105.953 94.9036C105.759 94.7126 105.809 94.4173 105.969 94.2306C105.712 94.1242 105.244 93.9848 105.344 93.6079C104.788 93.5621 103.433 92.6813 104.178 92.0714C103.768 91.844 103.389 91.3007 103.651 90.8332C103.852 90.4733 104.323 90.3198 104.71 90.308Z" fill="#FF0000" fill-opacity="0.7"/>
<path fill-rule="evenodd" clip-rule="evenodd" d="M109.474 127.493C113.08 126.535 115.995 125.402 118.219 124.093C120.444 122.783 122.094 120.915 123.17 118.487C119.616 119.383 116.868 120.403 114.926 121.546C112.985 122.688 111.167 124.671 109.474 127.493Z" fill="#CF1F1F" fill-opacity="0.7"/>
<path fill-rule="evenodd" clip-rule="evenodd" d="M121.611 123.691C121.554 123.665 121.499 123.632 121.447 123.593C120.368 122.775 106.616 115.195 104.641 113.493L111.939 109.204C113.44 110.498 121.992 119.134 123.569 120.934C126.546 123.484 135.031 132.423 135.737 132.972C136.479 133.551 135.443 135.217 134.457 134.549C132.888 133.486 128.796 130.398 126.552 128.362C124.449 126.454 122.611 124.705 121.611 123.691Z" fill="#784931" fill-opacity="0.7"/>
<path fill-rule="evenodd" clip-rule="evenodd" d="M116.451 128.779C113.944 131.272 103.899 139.016 103.286 139.665C102.654 140.334 100.981 139.167 101.716 138.269C102.885 136.842 106.26 133.148 108.465 131.155C110.238 129.552 111.881 128.128 113.002 127.201C110.692 123.813 104.92 115.818 104.094 113.844L110.588 110.031C111.381 111.923 116.81 125.94 117.134 127.472C117.268 128.008 116.943 128.471 116.451 128.779Z" fill="#915B3C" fill-opacity="0.7"/>
<path fill-rule="evenodd" clip-rule="evenodd" d="M101.481 137.766C100.936 137.95 100.57 138.122 100.384 138.281C100.184 138.452 99.9216 138.734 99.5978 139.127C99.8079 139.356 101.696 141.414 105.262 145.3C105.947 145.002 106.153 144.661 105.879 144.279C105.604 143.897 105.38 143.577 105.204 143.319L103.841 139.258C103.83 139.228 103.797 139.21 103.765 139.219C103.765 139.22 103.764 139.22 103.763 139.22L103.053 139.451C102.608 139.26 102.294 139.064 102.111 138.864C101.941 138.679 101.783 138.34 101.639 137.846C101.621 137.784 101.554 137.747 101.491 137.763C101.487 137.764 101.484 137.765 101.481 137.766Z" fill="#E4E4E4" fill-opacity="0.7"/>
<path fill-rule="evenodd" clip-rule="evenodd" d="M133.867 134.349C133.975 134.913 134.096 135.302 134.232 135.514C134.377 135.742 134.628 136.052 134.984 136.444C135.251 136.287 137.652 134.875 142.186 132.209C141.983 131.486 141.664 131.219 141.229 131.407C140.795 131.596 140.432 131.749 140.14 131.866L135.757 132.368C135.724 132.372 135.701 132.401 135.706 132.433C135.706 132.434 135.706 132.434 135.706 132.435L135.837 133.168C135.574 133.56 135.325 133.824 135.092 133.962C134.876 134.089 134.503 134.172 133.974 134.213C133.907 134.218 133.859 134.275 133.865 134.34C133.866 134.343 133.866 134.346 133.867 134.349Z" fill="#E4E4E4" fill-opacity="0.7"/>
<path fill-rule="evenodd" clip-rule="evenodd" d="M104.233 113.788C106.58 111.3 109.288 109.71 112.358 109.017C115.8 112.491 118.973 112.809 123.267 118.713C120.301 123.361 112.655 122.871 109.529 127.541C106.417 125.403 103.758 117.416 104.233 113.788Z" fill="#F4FFED"/>
<path fill-rule="evenodd" clip-rule="evenodd" d="M120.215 107.983L125.171 111.276C126.483 111.577 127.587 111.97 128.482 112.453C128.697 112.63 128.965 112.994 128.112 112.958C127.259 112.921 126.36 112.92 126.259 113.209C126.157 113.498 126.69 113.823 126.474 114.216C126.33 114.477 125.548 113.858 124.128 112.357L119.302 110.583L120.215 107.983ZM101.859 111.727L104.931 111.211C104.235 117.578 103.848 120.96 103.77 121.356C103.596 122.246 104.566 123.389 105.009 124.017C104.095 124.632 103.876 122.974 102.728 123.772C101.68 124.5 100.993 125.612 99.4993 125.029C99.3157 124.957 99.0615 124.612 99.437 124.244C100.372 123.326 101.676 121.778 101.802 121.32C101.975 120.696 101.994 117.498 101.859 111.727Z" fill="#915B3C" fill-opacity="0.7"/>
<path fill-rule="evenodd" clip-rule="evenodd" d="M108.245 97.7138L109.461 97.2842C112.688 102.255 117.433 106.46 123.698 109.898L120.591 115.493C113.959 110.204 109.359 104.361 108.245 97.7138Z" fill="#FF0000" fill-opacity="0.7"/>
<path fill-rule="evenodd" clip-rule="evenodd" d="M105.791 114.329L117.007 112.404C113.17 106.628 110.818 101.566 109.953 97.2164L106.47 97.3006C104.65 101.968 104.931 107.282 105.791 114.329Z" fill="#DDE3E9" fill-opacity="0.7"/>
<path fill-rule="evenodd" clip-rule="evenodd" d="M106.323 97.349C106.323 97.3481 106.323 97.3473 106.324 97.3464L106.544 97.3085C106.81 97.2722 107.215 97.2193 107.76 97.1498L109.034 99.3088C109.678 102.097 111.306 107.66 113.918 115.997L106.575 117.258C106.711 117.841 106.861 118.428 107.024 119.018L101.564 119.956C100.575 110.736 102.16 103.2 106.32 97.3471L106.323 97.349Z" fill="#CB0000"/>
<path fill-rule="evenodd" clip-rule="evenodd" d="M105.537 109.648C106.464 113.259 107.479 115.683 108.581 116.921L106.549 117.272C105.941 114.664 105.604 112.123 105.537 109.648Z" fill="black" fill-opacity="0.7"/>
<path fill-rule="evenodd" clip-rule="evenodd" d="M107.325 112.559L110.647 110.253L110.98 111.93L107.325 112.559Z" fill="white" fill-opacity="0.7"/>
</svg>
