<svg width="129" height="293" viewBox="0 0 129 293" fill="none" xmlns="http://www.w3.org/2000/svg">
<path opacity="0.87" d="M118.17 233.086C118.17 243.09 115.816 251.549 111.109 258.464C106.474 265.304 100.112 270.49 92.0204 274.021C84.0026 277.478 74.8815 279.207 64.657 279.207C54.5061 279.207 45.3482 277.478 37.1833 274.021C29.092 270.49 22.6557 265.304 17.8745 258.464C13.1668 251.549 10.8129 243.09 10.8129 233.086C10.8129 226.392 12.137 220.324 14.785 214.881C17.5067 209.437 21.2581 204.767 26.0393 200.868C30.8206 196.896 36.4845 193.88 43.0311 191.82C49.5777 189.687 56.7128 188.621 64.4363 188.621C74.7344 188.621 83.929 190.496 92.0204 194.248C100.185 197.926 106.585 203.112 111.219 209.805C115.853 216.425 118.17 224.186 118.17 233.086ZM88.8206 231.321C88.8206 226.172 87.7908 221.722 85.7312 217.97C83.7451 214.145 80.9132 211.203 77.2353 209.143C73.5574 207.084 69.2911 206.054 64.4363 206.054C59.508 206.054 55.2049 207.084 51.527 209.143C47.9227 211.203 45.0907 214.145 43.0311 217.97C41.045 221.722 40.052 226.172 40.052 231.321C40.052 236.543 41.045 241.03 43.0311 244.782C45.0907 248.46 47.9594 251.292 51.6373 253.278C55.3152 255.264 59.6551 256.257 64.657 256.257C69.6589 256.257 73.962 255.264 77.5663 253.278C81.1706 251.292 83.929 248.46 85.8415 244.782C87.8276 241.03 88.8206 236.543 88.8206 231.321ZM114.639 158.72C114.639 166.811 112.506 174.02 108.24 180.346C103.973 186.598 98.0521 191.489 90.4756 195.02C82.9728 198.551 74.3666 200.316 64.657 200.316C54.9474 200.316 46.2676 198.551 38.6177 195.02C31.0412 191.489 25.0831 186.598 20.7432 180.346C16.4769 174.02 14.3437 166.811 14.3437 158.72C14.3437 149.157 16.5136 141.066 20.8535 134.446C25.1934 127.752 31.1148 122.676 38.6177 119.219C46.1941 115.762 54.8003 114.033 64.4363 114.033C74.2195 114.033 82.8992 115.762 90.4756 119.219C98.0521 122.676 103.973 127.752 108.24 134.446C112.506 141.066 114.639 149.157 114.639 158.72ZM85.5105 159.933C85.5105 155.373 84.6646 151.401 82.9728 148.017C81.281 144.56 78.8536 141.875 75.6906 139.962C72.6012 138.05 68.8498 137.094 64.4363 137.094C60.17 137.094 56.4921 138.013 53.4027 139.852C50.3133 141.691 47.9227 144.339 46.2308 147.796C44.539 151.18 43.6931 155.226 43.6931 159.933C43.6931 164.567 44.539 168.613 46.2308 172.07C47.9227 175.528 50.3133 178.249 53.4027 180.235C56.5657 182.148 60.3171 183.104 64.657 183.104C68.9969 183.104 72.7115 182.148 75.8009 180.235C78.8904 178.249 81.281 175.528 82.9728 172.07C84.6646 168.613 85.5105 164.567 85.5105 159.933Z" fill="#080680"/>
<path fill-rule="evenodd" clip-rule="evenodd" d="M64.3949 153.552C63.7087 152.733 63.2483 151.732 63.337 150.616C63.5927 147.399 68.0714 148.146 68.9289 149.778C69.7864 151.41 69.6448 155.53 68.5146 155.811C68.0638 155.922 67.1085 155.63 66.1389 155.035L66.7111 159.365L63.0977 159.333L64.3949 153.552Z" fill="#915B3C" fill-opacity="0.7"/>
<path fill-rule="evenodd" clip-rule="evenodd" d="M61.7708 149.531C61.6552 149.414 61.593 149.249 61.5394 149.092C61.4837 148.929 61.4296 148.764 61.3932 148.594C61.3204 148.255 61.3233 147.866 61.5673 147.606C61.763 147.397 62.0546 147.305 62.3231 147.287C62.502 147.274 62.6854 147.301 62.8562 147.359C63.0257 147.416 63.1712 147.529 63.3354 147.599C63.3451 147.235 63.4111 146.854 63.5991 146.544C63.78 146.246 64.0656 146.081 64.3896 146.039C64.722 145.996 65.0492 146.077 65.345 146.24C65.419 146.281 65.4924 146.323 65.5625 146.372C65.6212 146.412 65.6822 146.461 65.7513 146.478C65.8285 146.496 65.8672 146.452 65.9179 146.396C65.9774 146.331 66.0443 146.273 66.115 146.222C66.4275 145.997 66.8357 145.907 67.1941 146.047C67.3592 146.111 67.5193 146.219 67.6304 146.368C67.7294 146.5 67.799 146.709 67.9365 146.802C67.9948 146.841 68.0367 146.79 68.0905 146.752C68.1713 146.696 68.2484 146.633 68.3302 146.579C68.445 146.501 68.5691 146.444 68.7017 146.415C68.8958 146.372 69.1634 146.384 69.2164 146.638C69.2363 146.734 69.2195 146.835 69.2119 146.931C69.2014 147.063 69.1906 147.194 69.1779 147.326C69.1683 147.425 69.1565 147.522 69.1367 147.62C69.1262 147.672 69.0938 147.769 69.1157 147.822C69.1432 147.887 69.2729 147.851 69.3282 147.854C69.4373 147.859 69.5468 147.879 69.6473 147.927C69.7252 147.964 69.807 148.018 69.8392 148.107C69.859 148.163 69.8531 148.219 69.843 148.276C69.8309 148.344 69.8437 148.38 69.8517 148.448C69.999 148.377 70.5087 148.222 70.5702 148.485C70.5907 148.572 70.5413 148.671 70.5036 148.744C70.4376 148.873 70.3514 148.99 70.2635 149.102C70.0799 149.336 69.8615 149.537 69.627 149.708C69.8988 149.832 69.9668 150.19 69.7285 150.401C69.6233 150.494 69.4828 150.514 69.3512 150.506C69.3031 150.504 69.2338 150.485 69.1958 150.493C69.1754 150.497 69.1534 150.514 69.1251 150.516C68.9392 150.527 68.73 150.48 68.5488 150.438C68.2259 150.361 67.921 150.206 67.673 149.97C67.6094 149.91 67.5567 149.875 67.4703 149.875C67.3946 149.875 67.3202 149.895 67.2446 149.896C67.0444 149.9 66.865 149.801 66.6798 149.734C66.6661 149.984 66.5921 150.26 66.4873 150.485C66.4019 150.668 66.2269 150.693 66.0549 150.708C65.5051 150.754 64.9543 150.692 64.4042 150.688C64.9356 150.813 65.4854 150.867 66.0118 151.013C66.2498 151.079 66.0661 151.238 65.9631 151.349C65.7935 151.531 65.6665 151.757 65.5777 151.995C65.3203 151.654 64.862 151.426 64.4531 151.527C64.0014 151.638 63.6784 152.244 63.9626 152.684C64.1276 152.94 64.4288 153.04 64.6792 153.152C64.4812 153.354 64.431 153.654 64.3107 153.907C64.2513 154.031 64.1683 154.172 64.0377 154.214C63.9893 154.23 63.9328 154.231 63.8945 154.269C63.847 154.318 63.8352 154.372 63.7747 154.413C63.5333 154.578 63.1587 154.561 62.9481 154.342C62.7576 154.144 62.8105 153.833 62.9729 153.635C62.7182 153.527 62.2538 153.386 62.359 152.989C61.8054 152.947 60.4687 152.038 61.2182 151.389C60.8123 151.155 60.4427 150.589 60.7093 150.095C60.9146 149.714 61.3855 149.548 61.7708 149.531Z" fill="#FF0000" fill-opacity="0.7"/>
<path fill-rule="evenodd" clip-rule="evenodd" d="M66.4768 188.049C70.0817 187.025 73.0006 185.83 75.2336 184.463C77.4666 183.096 79.1348 181.163 80.2382 178.666C76.6853 179.626 73.9344 180.703 71.9855 181.897C70.0366 183.09 68.2004 185.141 66.4768 188.049Z" fill="#CF1F1F" fill-opacity="0.7"/>
<path fill-rule="evenodd" clip-rule="evenodd" d="M78.6572 184.071C78.6002 184.044 78.5454 184.011 78.4933 183.971C77.416 183.135 63.6424 175.441 61.6724 173.699L69.0898 169.158C70.5877 170.483 79.1017 179.338 80.6684 181.185C83.6384 183.794 92.0804 192.964 92.7851 193.526C93.5264 194.117 92.4598 195.859 91.4739 195.178C89.9053 194.094 85.8176 190.941 83.5809 188.856C81.484 186.903 79.6534 185.111 78.6572 184.071Z" fill="#784931" fill-opacity="0.7"/>
<path fill-rule="evenodd" clip-rule="evenodd" d="M73.4663 189.22C70.9201 191.825 60.7443 199.947 60.1203 200.625C59.4784 201.324 57.8147 200.139 58.5635 199.203C59.755 197.714 63.1886 193.858 65.4253 191.772C67.2244 190.095 68.8909 188.604 70.0277 187.633C67.7549 184.163 62.0689 175.977 61.2658 173.949L67.8296 169.931C68.5997 171.876 73.864 186.284 74.1686 187.862C74.2965 188.414 73.9645 188.895 73.4663 189.22Z" fill="#915B3C" fill-opacity="0.7"/>
<path fill-rule="evenodd" clip-rule="evenodd" d="M58.5439 198.675C57.9923 198.874 57.6214 199.058 57.4314 199.226C57.2274 199.406 56.9597 199.703 56.6282 200.117C56.8368 200.353 58.7115 202.472 62.2524 206.474C62.9467 206.154 63.1583 205.798 62.8871 205.403C62.6159 205.008 62.3938 204.678 62.2207 204.411L60.9011 200.2C60.8911 200.168 60.8572 200.15 60.8254 200.16C60.8248 200.16 60.8242 200.161 60.8236 200.161L60.1053 200.41C59.6595 200.217 59.3455 200.017 59.1632 199.811C58.9945 199.621 58.8406 199.269 58.7015 198.757C58.6841 198.693 58.6177 198.655 58.5533 198.672C58.5501 198.673 58.547 198.674 58.5439 198.675Z" fill="#E4E4E4" fill-opacity="0.7"/>
<path fill-rule="evenodd" clip-rule="evenodd" d="M90.9 195.16C91.0005 195.738 91.117 196.135 91.2495 196.352C91.3918 196.584 91.638 196.899 91.988 197.297C92.2566 197.133 94.6703 195.655 99.2292 192.864C99.0351 192.125 98.7201 191.854 98.2842 192.053C97.8483 192.251 97.484 192.413 97.1913 192.537L92.8117 193.104C92.7786 193.109 92.7553 193.139 92.7596 193.172C92.7596 193.173 92.7597 193.173 92.7598 193.174L92.8808 193.924C92.6131 194.33 92.3619 194.604 92.1272 194.748C91.91 194.881 91.537 194.972 91.0082 195.019C90.9417 195.025 90.8927 195.084 90.8987 195.151C90.899 195.154 90.8995 195.157 90.9 195.16Z" fill="#E4E4E4" fill-opacity="0.7"/>
<path fill-rule="evenodd" clip-rule="evenodd" d="M61.2888 173.935C63.6746 171.338 66.4113 169.662 69.4991 168.909C72.9058 172.453 76.0834 172.743 80.3133 178.785C77.2786 183.621 69.6172 183.21 66.4213 188.071C63.3283 185.902 60.7652 177.688 61.2888 173.935Z" fill="#F4FFED"/>
<path fill-rule="evenodd" clip-rule="evenodd" d="M77.3566 167.867L82.2919 171.173C83.6043 171.467 84.707 171.855 85.6 172.339C85.8137 172.517 86.0787 172.886 85.2232 172.858C84.3677 172.829 83.4665 172.838 83.3615 173.134C83.2564 173.43 83.7875 173.755 83.5667 174.158C83.4195 174.427 82.642 173.803 81.2342 172.287L76.4126 170.528L77.3566 167.867ZM58.9068 171.879L61.9931 171.32C61.2264 177.824 60.8019 181.278 60.7198 181.682C60.5349 182.592 61.496 183.748 61.9332 184.384C61.0101 185.021 60.8087 183.332 59.6483 184.158C58.5892 184.913 57.8884 186.053 56.3965 185.475C56.2131 185.404 55.962 185.054 56.3425 184.675C57.2906 183.728 58.6142 182.135 58.7463 181.666C58.9264 181.028 58.9799 177.765 58.9068 171.879Z" fill="#915B3C" fill-opacity="0.7"/>
<path fill-rule="evenodd" clip-rule="evenodd" d="M65.2751 157.309L66.5107 156.853C69.7234 161.938 74.4819 166.217 80.7865 169.691L77.5796 175.486C70.9239 170.11 66.3305 164.142 65.2751 157.309Z" fill="#FF0000" fill-opacity="0.7"/>
<path fill-rule="evenodd" clip-rule="evenodd" d="M62.6795 174.385L74.0428 172.28C70.2257 166.363 67.9032 161.166 67.0753 156.689L63.553 156.813C61.6609 161.647 61.8872 167.125 62.6795 174.385Z" fill="#DDE3E9" fill-opacity="0.7"/>
<path fill-rule="evenodd" clip-rule="evenodd" d="M63.4814 156.829C63.4817 156.828 63.482 156.827 63.4823 156.826L63.7061 156.785C63.9755 156.744 64.3864 156.685 64.9387 156.608L66.2049 158.823C66.8266 161.694 68.4144 167.419 70.9684 175.996L63.5196 177.376C63.6509 177.977 63.7959 178.581 63.9547 179.188L58.4161 180.214C57.515 170.708 59.2024 162.913 63.4783 156.827L63.4814 156.829Z" fill="#CB0000"/>
<path fill-rule="evenodd" clip-rule="evenodd" d="M62.581 169.551C63.4897 173.279 64.5008 175.778 65.6142 177.048L63.5319 177.433C62.9394 174.74 62.6224 172.112 62.581 169.551Z" fill="black" fill-opacity="0.7"/>
<path fill-rule="evenodd" clip-rule="evenodd" d="M64.3404 172.55L67.6975 170.161L68.0135 171.87L64.3404 172.55Z" fill="white" fill-opacity="0.7"/>
</svg>
