<svg width="129" height="280" viewBox="0 0 129 280" fill="none" xmlns="http://www.w3.org/2000/svg">
<path opacity="0.87" d="M118.17 233.086C118.17 243.09 115.816 251.549 111.109 258.464C106.474 265.304 100.112 270.49 92.0204 274.021C84.0026 277.478 74.8815 279.207 64.657 279.207C54.5061 279.207 45.3482 277.478 37.1833 274.021C29.092 270.49 22.6557 265.304 17.8745 258.464C13.1668 251.549 10.8129 243.09 10.8129 233.086C10.8129 226.392 12.137 220.324 14.785 214.881C17.5067 209.437 21.2581 204.767 26.0393 200.868C30.8206 196.896 36.4845 193.88 43.0311 191.82C49.5777 189.687 56.7128 188.621 64.4363 188.621C74.7344 188.621 83.929 190.496 92.0204 194.248C100.185 197.926 106.585 203.112 111.219 209.805C115.853 216.425 118.17 224.186 118.17 233.086ZM88.8206 231.321C88.8206 226.172 87.7908 221.722 85.7312 217.97C83.7451 214.145 80.9132 211.203 77.2353 209.143C73.5574 207.084 69.2911 206.054 64.4363 206.054C59.508 206.054 55.2049 207.084 51.527 209.143C47.9227 211.203 45.0907 214.145 43.0311 217.97C41.045 221.722 40.052 226.172 40.052 231.321C40.052 236.543 41.045 241.03 43.0311 244.782C45.0907 248.46 47.9594 251.292 51.6373 253.278C55.3152 255.264 59.6551 256.257 64.657 256.257C69.6589 256.257 73.962 255.264 77.5663 253.278C81.1706 251.292 83.929 248.46 85.8415 244.782C87.8276 241.03 88.8206 236.543 88.8206 231.321ZM114.639 158.72C114.639 166.811 112.506 174.02 108.24 180.346C103.973 186.598 98.0521 191.489 90.4756 195.02C82.9728 198.551 74.3666 200.316 64.657 200.316C54.9474 200.316 46.2676 198.551 38.6177 195.02C31.0412 191.489 25.0831 186.598 20.7432 180.346C16.4769 174.02 14.3437 166.811 14.3437 158.72C14.3437 149.157 16.5136 141.066 20.8535 134.446C25.1934 127.752 31.1148 122.676 38.6177 119.219C46.1941 115.762 54.8003 114.033 64.4363 114.033C74.2195 114.033 82.8992 115.762 90.4756 119.219C98.0521 122.676 103.973 127.752 108.24 134.446C112.506 141.066 114.639 149.157 114.639 158.72ZM85.5105 159.933C85.5105 155.373 84.6646 151.401 82.9728 148.017C81.281 144.56 78.8536 141.875 75.6906 139.962C72.6012 138.05 68.8498 137.094 64.4363 137.094C60.17 137.094 56.4921 138.013 53.4027 139.852C50.3133 141.691 47.9227 144.339 46.2308 147.796C44.539 151.18 43.6931 155.226 43.6931 159.933C43.6931 164.567 44.539 168.613 46.2308 172.07C47.9227 175.528 50.3133 178.249 53.4027 180.235C56.5657 182.148 60.3171 183.104 64.657 183.104C68.9969 183.104 72.7115 182.148 75.8009 180.235C78.8904 178.249 81.281 175.528 82.9728 172.07C84.6646 168.613 85.5105 164.567 85.5105 159.933Z" fill="#080680"/>
<path fill-rule="evenodd" clip-rule="evenodd" d="M63.6295 157.718C62.928 156.935 62.4494 155.983 62.5184 154.931C62.7173 151.899 67.2138 152.671 68.1011 154.224C68.9885 155.777 68.9198 159.663 67.7934 159.911C67.3442 160.01 66.3827 159.72 65.4016 159.144L66.0511 163.239L62.4335 163.155L63.6295 157.718Z" fill="#915B3C" fill-opacity="0.7"/>
<path fill-rule="evenodd" clip-rule="evenodd" d="M60.9986 153.869C60.8808 153.758 60.8157 153.603 60.7593 153.455C60.7007 153.302 60.6437 153.147 60.6043 152.988C60.5255 152.67 60.5215 152.306 60.7611 152.066C60.9533 151.874 61.2434 151.792 61.5117 151.779C61.6905 151.771 61.8745 151.798 62.0464 151.855C62.217 151.911 62.3646 152.019 62.5301 152.087C62.5334 151.746 62.5927 151.391 62.7754 151.105C62.9512 150.829 63.2341 150.679 63.5574 150.645C63.8893 150.61 64.2181 150.69 64.5169 150.847C64.5917 150.886 64.6659 150.927 64.7369 150.974C64.7963 151.012 64.8582 151.059 64.9277 151.075C65.0052 151.094 65.0431 151.053 65.0929 151.002C65.1513 150.942 65.2172 150.889 65.287 150.842C65.5958 150.637 66.0026 150.558 66.3636 150.695C66.53 150.757 66.6921 150.861 66.8059 151.001C66.9073 151.126 66.9805 151.323 67.1197 151.412C67.1788 151.449 67.2198 151.402 67.273 151.368C67.3528 151.316 67.4289 151.259 67.5097 151.209C67.6233 151.139 67.7464 151.087 67.8786 151.062C68.072 151.024 68.34 151.04 68.3975 151.278C68.4191 151.368 68.404 151.463 68.3981 151.552C68.39 151.675 68.3815 151.798 68.3711 151.92C68.3632 152.014 68.3531 152.103 68.335 152.195C68.3254 152.243 68.2947 152.334 68.3176 152.383C68.3462 152.445 68.4753 152.413 68.5307 152.417C68.64 152.423 68.7499 152.444 68.8513 152.49C68.9299 152.525 69.0127 152.577 69.0465 152.661C69.0673 152.713 69.0624 152.766 69.0533 152.819C69.0423 152.882 69.0558 152.916 69.065 152.98C69.2111 152.916 69.7183 152.778 69.7845 153.025C69.8065 153.107 69.7589 153.199 69.7225 153.267C69.6586 153.386 69.5745 153.494 69.4884 153.598C69.3089 153.813 69.0939 153.998 68.8622 154.154C69.1364 154.274 69.2107 154.61 68.976 154.804C68.8723 154.889 68.7321 154.905 68.6004 154.897C68.5521 154.893 68.4825 154.875 68.4446 154.881C68.4243 154.885 68.4025 154.901 68.3743 154.902C68.1885 154.91 67.9783 154.863 67.7962 154.82C67.4719 154.744 67.164 154.594 66.9118 154.37C66.8471 154.312 66.7937 154.279 66.7073 154.278C66.6316 154.277 66.5574 154.294 66.4818 154.294C66.2816 154.294 66.1003 154.199 65.9138 154.134C65.9046 154.368 65.8353 154.624 65.7345 154.833C65.6523 155.003 65.4775 155.024 65.3057 155.035C64.7564 155.07 64.2042 155.003 63.6538 154.991C64.1877 155.116 64.7387 155.175 65.268 155.32C65.5072 155.385 65.3263 155.531 65.2252 155.633C65.0586 155.8 64.9355 156.009 64.8509 156.231C64.5874 155.908 64.1248 155.688 63.7175 155.776C63.2674 155.873 62.9549 156.435 63.247 156.851C63.4166 157.092 63.7197 157.191 63.9722 157.299C63.7777 157.484 63.7327 157.765 63.6167 157.999C63.5595 158.114 63.4789 158.244 63.349 158.282C63.3009 158.296 63.2444 158.296 63.2067 158.332C63.16 158.376 63.1492 158.426 63.0894 158.464C62.8507 158.614 62.4756 158.593 62.261 158.385C62.0669 158.197 62.1144 157.907 62.2734 157.725C62.0167 157.619 61.5495 157.48 61.6479 157.111C61.0932 157.063 59.7398 156.193 60.4783 155.598C60.0681 155.373 59.6883 154.838 59.9464 154.38C60.1451 154.028 60.6134 153.879 60.9986 153.869Z" fill="#FF0000" fill-opacity="0.7"/>
<path fill-rule="evenodd" clip-rule="evenodd" d="M65.7626 190.558C69.3704 189.626 72.2853 188.516 74.5072 187.228C76.7291 185.94 78.3729 184.095 79.4386 181.693C75.8819 182.565 73.1339 183.564 71.1947 184.688C69.2555 185.812 67.4448 187.768 65.7626 190.558Z" fill="#CF1F1F" fill-opacity="0.7"/>
<path fill-rule="evenodd" clip-rule="evenodd" d="M77.8864 186.822C77.8297 186.796 77.7749 186.764 77.7228 186.725C76.6432 185.913 62.8929 178.377 60.915 176.689L68.1689 172.493C69.6727 173.777 78.2437 182.331 79.8246 184.112C82.806 186.64 91.3112 195.493 92.0176 196.038C92.7608 196.612 91.7366 198.25 90.7502 197.587C89.1805 196.531 85.0847 193.468 82.8372 191.451C80.7303 189.56 78.8894 187.827 77.8864 186.822Z" fill="#784931" fill-opacity="0.7"/>
<path fill-rule="evenodd" clip-rule="evenodd" d="M72.737 191.887C70.2455 194.338 60.2485 201.942 59.6387 202.581C59.0113 203.239 57.3328 202.078 58.0626 201.195C59.2237 199.79 62.5773 196.156 64.7695 194.197C66.5328 192.622 68.1672 191.223 69.2829 190.313C66.9574 186.956 61.1483 179.031 60.3126 177.078L66.7824 173.34C67.5838 175.213 73.0817 189.084 73.413 190.599C73.5501 191.129 73.2277 191.585 72.737 191.887Z" fill="#915B3C" fill-opacity="0.7"/>
<path fill-rule="evenodd" clip-rule="evenodd" d="M57.7432 200.7C57.2005 200.88 56.8365 201.047 56.6513 201.203C56.4525 201.37 56.1926 201.646 55.8717 202.032C56.0825 202.258 57.9766 204.293 61.5542 208.136C62.2361 207.846 62.4393 207.512 62.1637 207.134C61.8882 206.757 61.6623 206.44 61.4862 206.185L60.1046 202.181C60.0942 202.151 60.0603 202.133 60.0289 202.142C60.0283 202.142 60.0278 202.143 60.0272 202.143L59.3203 202.367C58.8754 202.177 58.5609 201.983 58.3767 201.785C58.2062 201.602 58.0476 201.267 57.9008 200.78C57.8823 200.719 57.8159 200.682 57.7525 200.698C57.7493 200.698 57.7463 200.699 57.7432 200.7Z" fill="#E4E4E4" fill-opacity="0.7"/>
<path fill-rule="evenodd" clip-rule="evenodd" d="M90.1539 197.32C90.2647 197.879 90.3885 198.264 90.5252 198.475C90.672 198.702 90.9245 199.01 91.2827 199.4C91.5494 199.246 93.9462 197.858 98.473 195.238C98.2654 194.522 97.9446 194.256 97.5106 194.44C97.0766 194.625 96.7137 194.774 96.4221 194.889L92.0368 195.366C92.0037 195.37 91.9808 195.399 91.9856 195.431C91.9857 195.432 91.9858 195.432 91.9859 195.433L92.1203 196.159C91.8587 196.546 91.6113 196.807 91.3783 196.942C91.1626 197.067 90.7898 197.148 90.26 197.186C90.1934 197.19 90.1452 197.246 90.1524 197.311C90.1528 197.314 90.1533 197.317 90.1539 197.32Z" fill="#E4E4E4" fill-opacity="0.7"/>
<path fill-rule="evenodd" clip-rule="evenodd" d="M60.499 177.006C62.8312 174.559 65.5295 173 68.5938 172.33C72.0512 175.778 75.2234 176.106 79.5451 181.958C76.6052 186.537 68.9622 186.017 65.8621 190.617C62.7414 188.491 60.0428 180.588 60.499 177.006Z" fill="#F4FFED"/>
<path fill-rule="evenodd" clip-rule="evenodd" d="M76.4533 171.298L81.4202 174.587C82.7324 174.891 83.837 175.285 84.734 175.768C84.9496 175.945 85.2191 176.308 84.3661 176.268C83.5132 176.228 82.6153 176.223 82.5149 176.51C82.4146 176.797 82.9486 177.121 82.7345 177.51C82.5918 177.77 81.8078 177.151 80.3826 175.656L75.5518 173.875L76.4533 171.298ZM58.1264 174.941L61.1938 174.44C60.5254 180.759 60.1532 184.114 60.0773 184.506C59.9064 185.389 60.8812 186.528 61.3263 187.153C60.4157 187.76 60.1901 186.113 59.0459 186.901C58.0016 187.62 57.32 188.72 55.8248 188.136C55.641 188.064 55.3856 187.72 55.7592 187.356C56.6901 186.449 57.9857 184.917 58.1104 184.463C58.2805 183.844 58.2858 180.67 58.1264 174.941Z" fill="#915B3C" fill-opacity="0.7"/>
<path fill-rule="evenodd" clip-rule="evenodd" d="M64.5221 161.136L65.7308 160.716C68.9646 165.645 73.7072 169.822 79.9588 173.247L76.8887 178.769C70.2641 173.511 65.6594 167.714 64.5221 161.136Z" fill="#FF0000" fill-opacity="0.7"/>
<path fill-rule="evenodd" clip-rule="evenodd" d="M62.1209 177.581L73.2855 175.723C69.4388 169.999 67.0751 164.986 66.1943 160.685L62.726 160.754C60.9321 165.36 61.2347 170.613 62.1209 177.581Z" fill="#DDE3E9" fill-opacity="0.7"/>
<path fill-rule="evenodd" clip-rule="evenodd" d="M62.5491 160.814C62.5494 160.813 62.5497 160.813 62.55 160.812L62.7694 160.775C63.0338 160.74 63.437 160.69 63.979 160.623L65.2564 162.762C65.9094 165.519 67.554 171.022 70.1902 179.27L62.8849 180.486C63.0228 181.063 63.1741 181.644 63.3391 182.227L57.9073 183.132C56.8831 174.019 58.4294 166.579 62.546 160.812L62.5491 160.814Z" fill="#CB0000"/>
<path fill-rule="evenodd" clip-rule="evenodd" d="M61.8069 172.957C62.7419 176.524 63.7586 178.92 64.8569 180.146L62.8423 180.485C62.2289 177.908 61.8838 175.399 61.8069 172.957Z" fill="black" fill-opacity="0.7"/>
<path fill-rule="evenodd" clip-rule="evenodd" d="M63.6075 175.834L66.9168 173.559L67.2567 175.225L63.6075 175.834Z" fill="white" fill-opacity="0.7"/>
</svg>
