<svg width="129" height="279" viewBox="0 0 129 279" fill="none" xmlns="http://www.w3.org/2000/svg">
<path opacity="0.87" d="M33.5422 254.381H35.6386C45.1275 254.381 53.1452 253.167 59.6919 250.74C66.312 248.313 71.6449 244.892 75.6906 240.479C79.8098 235.992 82.7889 230.659 84.6278 224.48C86.5403 218.228 87.4966 211.313 87.4966 203.737V174.608C87.4966 168.429 86.8713 163.023 85.6209 158.389C84.3704 153.681 82.605 149.746 80.3247 146.583C78.118 143.42 75.5067 141.066 72.4909 139.521C69.475 137.903 66.2385 137.094 62.7813 137.094C58.9563 137.094 55.5726 137.976 52.6303 139.742C49.688 141.507 47.1871 143.935 45.1275 147.024C43.1414 150.04 41.5967 153.534 40.4934 157.506C39.4636 161.478 38.9487 165.671 38.9487 170.084C38.9487 174.351 39.4268 178.433 40.383 182.332C41.4128 186.23 42.9208 189.687 44.9068 192.703C46.9664 195.719 49.5409 198.11 52.6303 199.875C55.7198 201.567 59.3241 202.413 63.4433 202.413C67.3418 202.413 70.8726 201.677 74.0356 200.206C77.2721 198.661 80.0673 196.639 82.4211 194.138C84.7749 191.563 86.5771 188.731 87.8276 185.642C89.1516 182.479 89.8872 179.279 90.0343 176.042L100.296 180.456C100.296 185.826 99.1554 191.122 96.8751 196.344C94.6684 201.567 91.5422 206.311 87.4966 210.578C83.5245 214.77 78.8904 218.154 73.5942 220.729C68.2981 223.23 62.5974 224.48 56.4921 224.48C48.9157 224.48 42.222 223.082 36.4109 220.287C30.5999 217.492 25.7083 213.63 21.7362 208.702C17.8377 203.7 14.8954 197.963 12.9093 191.489C10.9233 184.943 9.93025 177.955 9.93025 170.526C9.93025 162.802 11.144 155.557 13.5713 148.789C15.9987 141.949 19.4927 135.954 24.0533 130.805C28.6874 125.582 34.2778 121.5 40.8244 118.557C47.371 115.541 54.7267 114.033 62.8916 114.033C71.3507 114.033 78.8904 115.689 85.5105 118.999C92.1307 122.309 97.7578 126.906 102.392 132.791C107.026 138.602 110.557 145.479 112.984 153.424C115.485 161.368 116.736 170.047 116.736 179.463V189.724C116.736 199.654 115.743 209.07 113.757 217.97C111.771 226.871 108.718 234.999 104.599 242.354C100.479 249.71 95.2201 256.073 88.8206 261.443C82.4947 266.812 74.9182 270.968 66.0914 273.911C57.338 276.779 47.3342 278.214 36.0799 278.214H33.5422V254.381Z" fill="#080680"/>
<path fill-rule="evenodd" clip-rule="evenodd" d="M66.3949 169.552C65.7087 168.733 65.2483 167.732 65.337 166.616C65.5927 163.399 70.0714 164.146 70.9289 165.778C71.7864 167.41 71.6448 171.53 70.5146 171.811C70.0638 171.922 69.1085 171.63 68.1389 171.035L68.7111 175.365L65.0977 175.333L66.3949 169.552Z" fill="#915B3C" fill-opacity="0.7"/>
<path fill-rule="evenodd" clip-rule="evenodd" d="M63.7708 165.531C63.6552 165.414 63.593 165.249 63.5394 165.092C63.4837 164.929 63.4296 164.764 63.3932 164.594C63.3204 164.255 63.3233 163.866 63.5673 163.606C63.763 163.397 64.0546 163.305 64.3231 163.287C64.502 163.274 64.6854 163.301 64.8562 163.359C65.0257 163.416 65.1712 163.529 65.3354 163.599C65.3451 163.235 65.4111 162.854 65.5991 162.544C65.78 162.246 66.0656 162.081 66.3896 162.039C66.722 161.996 67.0492 162.077 67.345 162.24C67.419 162.281 67.4924 162.323 67.5625 162.372C67.6212 162.412 67.6822 162.461 67.7513 162.478C67.8285 162.496 67.8672 162.452 67.9179 162.396C67.9774 162.331 68.0443 162.273 68.115 162.222C68.4275 161.997 68.8357 161.907 69.1941 162.047C69.3592 162.111 69.5193 162.219 69.6304 162.368C69.7294 162.5 69.799 162.709 69.9365 162.802C69.9948 162.841 70.0367 162.79 70.0905 162.752C70.1713 162.696 70.2484 162.633 70.3302 162.579C70.445 162.501 70.5691 162.444 70.7017 162.415C70.8958 162.372 71.1634 162.384 71.2164 162.638C71.2363 162.734 71.2195 162.835 71.2119 162.931C71.2014 163.063 71.1906 163.194 71.1779 163.326C71.1683 163.425 71.1565 163.522 71.1367 163.62C71.1262 163.672 71.0938 163.769 71.1157 163.822C71.1432 163.887 71.2729 163.851 71.3282 163.854C71.4373 163.859 71.5468 163.879 71.6473 163.927C71.7252 163.964 71.807 164.018 71.8392 164.107C71.859 164.163 71.8531 164.219 71.843 164.276C71.8309 164.344 71.8437 164.38 71.8517 164.448C71.999 164.377 72.5087 164.222 72.5702 164.485C72.5907 164.572 72.5413 164.671 72.5036 164.744C72.4376 164.873 72.3514 164.99 72.2635 165.102C72.0799 165.336 71.8615 165.537 71.627 165.708C71.8988 165.832 71.9668 166.19 71.7285 166.401C71.6233 166.494 71.4828 166.514 71.3512 166.506C71.3031 166.504 71.2338 166.485 71.1958 166.493C71.1754 166.497 71.1534 166.514 71.1251 166.516C70.9392 166.527 70.73 166.48 70.5488 166.438C70.2259 166.361 69.921 166.206 69.673 165.97C69.6094 165.91 69.5567 165.875 69.4703 165.875C69.3946 165.875 69.3202 165.895 69.2446 165.896C69.0444 165.9 68.865 165.801 68.6798 165.734C68.6661 165.984 68.5921 166.26 68.4873 166.485C68.4019 166.668 68.2269 166.693 68.0549 166.708C67.5051 166.754 66.9543 166.692 66.4042 166.688C66.9356 166.813 67.4854 166.867 68.0118 167.013C68.2498 167.079 68.0661 167.238 67.9631 167.349C67.7935 167.531 67.6665 167.757 67.5777 167.995C67.3203 167.654 66.862 167.426 66.4531 167.527C66.0014 167.638 65.6784 168.244 65.9626 168.684C66.1276 168.94 66.4288 169.04 66.6792 169.152C66.4812 169.354 66.431 169.654 66.3107 169.907C66.2513 170.031 66.1683 170.172 66.0377 170.214C65.9893 170.23 65.9328 170.231 65.8945 170.269C65.847 170.318 65.8352 170.372 65.7747 170.413C65.5333 170.578 65.1587 170.561 64.9481 170.342C64.7576 170.144 64.8105 169.833 64.9729 169.635C64.7182 169.527 64.2538 169.386 64.359 168.989C63.8054 168.947 62.4687 168.038 63.2182 167.389C62.8123 167.155 62.4427 166.589 62.7093 166.095C62.9146 165.714 63.3855 165.548 63.7708 165.531Z" fill="#FF0000" fill-opacity="0.7"/>
<path fill-rule="evenodd" clip-rule="evenodd" d="M68.4768 204.049C72.0817 203.025 75.0006 201.83 77.2336 200.463C79.4666 199.096 81.1348 197.163 82.2382 194.666C78.6853 195.626 75.9344 196.703 73.9855 197.897C72.0366 199.09 70.2004 201.141 68.4768 204.049Z" fill="#CF1F1F" fill-opacity="0.7"/>
<path fill-rule="evenodd" clip-rule="evenodd" d="M80.6572 200.071C80.6002 200.044 80.5454 200.011 80.4933 199.971C79.416 199.135 65.6424 191.441 63.6724 189.699L71.0898 185.158C72.5877 186.483 81.1017 195.338 82.6684 197.185C85.6384 199.794 94.0804 208.964 94.7851 209.526C95.5264 210.117 94.4598 211.859 93.4739 211.178C91.9053 210.094 87.8176 206.941 85.5809 204.856C83.484 202.903 81.6534 201.111 80.6572 200.071Z" fill="#784931" fill-opacity="0.7"/>
<path fill-rule="evenodd" clip-rule="evenodd" d="M75.4663 205.22C72.9201 207.825 62.7443 215.947 62.1203 216.625C61.4784 217.324 59.8147 216.139 60.5635 215.203C61.755 213.714 65.1886 209.858 67.4253 207.772C69.2244 206.095 70.8909 204.604 72.0277 203.633C69.7549 200.163 64.0689 191.977 63.2658 189.949L69.8296 185.931C70.5997 187.876 75.864 202.284 76.1686 203.862C76.2965 204.414 75.9645 204.895 75.4663 205.22Z" fill="#915B3C" fill-opacity="0.7"/>
<path fill-rule="evenodd" clip-rule="evenodd" d="M60.5439 214.675C59.9923 214.874 59.6214 215.058 59.4314 215.226C59.2274 215.406 58.9597 215.703 58.6282 216.117C58.8368 216.353 60.7115 218.472 64.2524 222.474C64.9467 222.154 65.1583 221.798 64.8871 221.403C64.6159 221.008 64.3938 220.678 64.2207 220.411L62.9011 216.2C62.8911 216.168 62.8572 216.15 62.8254 216.16C62.8248 216.16 62.8242 216.161 62.8236 216.161L62.1053 216.41C61.6595 216.217 61.3455 216.017 61.1632 215.811C60.9945 215.621 60.8406 215.269 60.7015 214.757C60.6841 214.693 60.6177 214.655 60.5533 214.672C60.5501 214.673 60.547 214.674 60.5439 214.675Z" fill="#E4E4E4" fill-opacity="0.7"/>
<path fill-rule="evenodd" clip-rule="evenodd" d="M92.9 211.16C93.0005 211.738 93.117 212.135 93.2495 212.352C93.3918 212.584 93.638 212.899 93.988 213.297C94.2566 213.133 96.6703 211.655 101.229 208.864C101.035 208.125 100.72 207.854 100.284 208.053C99.8483 208.251 99.484 208.413 99.1913 208.537L94.8117 209.104C94.7786 209.109 94.7553 209.139 94.7596 209.172C94.7596 209.173 94.7597 209.173 94.7598 209.174L94.8808 209.924C94.6131 210.33 94.3619 210.604 94.1272 210.748C93.91 210.881 93.537 210.972 93.0082 211.019C92.9417 211.025 92.8927 211.084 92.8987 211.151C92.899 211.154 92.8995 211.157 92.9 211.16Z" fill="#E4E4E4" fill-opacity="0.7"/>
<path fill-rule="evenodd" clip-rule="evenodd" d="M63.2888 189.935C65.6746 187.338 68.4113 185.662 71.4991 184.909C74.9058 188.453 78.0834 188.743 82.3133 194.785C79.2786 199.621 71.6172 199.21 68.4213 204.071C65.3283 201.902 62.7652 193.688 63.2888 189.935Z" fill="#F4FFED"/>
<path fill-rule="evenodd" clip-rule="evenodd" d="M79.3566 183.867L84.2919 187.173C85.6043 187.467 86.707 187.855 87.6 188.339C87.8137 188.517 88.0787 188.886 87.2232 188.858C86.3677 188.829 85.4665 188.838 85.3615 189.134C85.2564 189.43 85.7875 189.755 85.5667 190.158C85.4195 190.427 84.642 189.803 83.2342 188.287L78.4126 186.528L79.3566 183.867ZM60.9068 187.879L63.9931 187.32C63.2264 193.824 62.8019 197.278 62.7198 197.682C62.5349 198.592 63.496 199.748 63.9332 200.384C63.0101 201.021 62.8087 199.332 61.6483 200.158C60.5892 200.913 59.8884 202.053 58.3965 201.475C58.2131 201.404 57.962 201.054 58.3425 200.675C59.2906 199.728 60.6142 198.135 60.7463 197.666C60.9264 197.028 60.9799 193.765 60.9068 187.879Z" fill="#915B3C" fill-opacity="0.7"/>
<path fill-rule="evenodd" clip-rule="evenodd" d="M67.2751 173.309L68.5107 172.853C71.7234 177.938 76.4819 182.217 82.7865 185.691L79.5796 191.486C72.9239 186.11 68.3305 180.142 67.2751 173.309Z" fill="#FF0000" fill-opacity="0.7"/>
<path fill-rule="evenodd" clip-rule="evenodd" d="M64.6795 190.385L76.0428 188.28C72.2257 182.363 69.9032 177.166 69.0753 172.689L65.553 172.813C63.6609 177.647 63.8872 183.125 64.6795 190.385Z" fill="#DDE3E9" fill-opacity="0.7"/>
<path fill-rule="evenodd" clip-rule="evenodd" d="M65.4814 172.829C65.4817 172.828 65.482 172.827 65.4823 172.826L65.7061 172.785C65.9755 172.744 66.3864 172.685 66.9387 172.608L68.2049 174.823C68.8266 177.694 70.4144 183.419 72.9684 191.996L65.5196 193.376C65.6509 193.977 65.7959 194.581 65.9547 195.188L60.4161 196.214C59.515 186.708 61.2024 178.913 65.4783 172.827L65.4814 172.829Z" fill="#CB0000"/>
<path fill-rule="evenodd" clip-rule="evenodd" d="M64.581 185.551C65.4897 189.279 66.5008 191.778 67.6142 193.048L65.5319 193.433C64.9394 190.74 64.6224 188.112 64.581 185.551Z" fill="black" fill-opacity="0.7"/>
<path fill-rule="evenodd" clip-rule="evenodd" d="M66.3404 188.55L69.6975 186.161L70.0135 187.87L66.3404 188.55Z" fill="white" fill-opacity="0.7"/>
</svg>
