<svg width="112" height="126" viewBox="0 0 112 126" fill="none" xmlns="http://www.w3.org/2000/svg">
<g clip-path="url(#clip0_250_2775)">
<path fill-rule="evenodd" clip-rule="evenodd" d="M64.1084 42.5356L67.3948 82.3418L68.3994 115.136L71.3922 116.585L76.2485 48.4157L64.1084 42.5356Z" fill="#997659"/>
<path fill-rule="evenodd" clip-rule="evenodd" d="M68.2969 39.6697L60.2865 78.7998L52.0529 110.559L54.519 112.79L78.3004 48.7187L68.2969 39.6697Z" fill="#997659"/>
<path fill-rule="evenodd" clip-rule="evenodd" d="M68.332 113.042C67.6686 113.659 67.2447 114.154 67.0605 114.526C66.8402 114.972 66.5938 115.658 66.3212 116.586C66.8436 116.839 71.5384 119.114 80.4056 123.41C81.3635 122.39 81.4718 121.641 80.7304 121.164C79.9891 120.686 79.3766 120.283 78.8931 119.953L73.7598 113.876C73.6687 113.769 73.5065 113.755 73.3975 113.846C73.3959 113.847 73.3944 113.849 73.3928 113.85L72.4567 114.67C71.5601 114.653 70.8835 114.535 70.4271 114.313C70.0494 114.13 69.6011 113.723 69.0821 113.09C68.903 112.872 68.579 112.84 68.3584 113.019C68.3493 113.026 68.3405 113.034 68.332 113.042Z" fill="#E4E4E4"/>
<path fill-rule="evenodd" clip-rule="evenodd" d="M66.5926 109.095L73.2253 110.154C74.4167 101.406 75.4112 91.6253 76.2087 80.8127C77.0062 70.0002 77.3759 59.3722 77.3178 48.9286L61.0117 41.0314C60.4397 53.9294 60.6298 65.9927 61.582 77.2213C62.5342 88.4499 64.2043 99.0745 66.5926 109.095Z" fill="#0D2C1B"/>
<path fill-rule="evenodd" clip-rule="evenodd" d="M51.5501 108.056L57.8842 110.29C60.6299 101.899 63.3676 92.4574 66.0972 81.9647C68.8268 71.4721 71.1025 61.0839 72.9241 50.8003L58.3047 40.0985C55.4217 52.6832 53.4386 64.5839 52.3552 75.8006C51.2719 87.0173 51.0035 97.769 51.5501 108.056Z" fill="#0D2C1B"/>
<path fill-rule="evenodd" clip-rule="evenodd" d="M51.0868 110.54C50.4983 111.219 50.1329 111.752 49.9906 112.141C49.8205 112.606 49.6499 113.314 49.4789 114.264C50.0198 114.465 54.8811 116.278 64.0629 119.703C64.8991 118.595 64.9271 117.839 64.147 117.434C63.3669 117.03 62.7216 116.687 62.2108 116.406L56.5188 110.848C56.4178 110.75 56.2566 110.752 56.1588 110.853C56.1574 110.854 56.156 110.856 56.1547 110.857L55.319 111.764C54.4344 111.834 53.7558 111.781 53.2832 111.605C52.8921 111.459 52.4078 111.096 51.8305 110.516C51.6312 110.316 51.3088 110.315 51.1104 110.515C51.1022 110.523 51.0944 110.531 51.0868 110.54Z" fill="#E4E4E4"/>
<path fill-rule="evenodd" clip-rule="evenodd" d="M87.584 47.3703L97.708 51.7719C100.218 51.8715 102.371 52.2145 104.166 52.8009C104.616 53.0561 105.219 53.6424 103.634 53.8757C102.049 54.109 100.391 54.4253 100.29 55.002C100.189 55.5788 101.269 55.9971 100.988 56.808C100.8 57.3486 99.1734 56.467 96.1069 54.163L86.6749 52.5537L87.584 47.3703Z" fill="#997659"/>
<path fill-rule="evenodd" clip-rule="evenodd" d="M73.4598 22.0918L77.896 23.7831C75.809 34.2074 79.8653 42.4399 94.1618 44.4582L91.8453 57.9962C78.6016 55.7364 69.06 47.2294 71.1478 32.7592C71.6883 29.0133 72.3994 25.1605 73.4598 22.0918Z" fill="#AFB9C5"/>
<path fill-rule="evenodd" clip-rule="evenodd" d="M54.6055 37.4843C47.4546 50.5908 43.5162 57.6386 42.7903 58.6279C42.2579 59.3533 38.938 61.2665 36.6871 62.2991C35.7836 62.7136 35.9898 63.4767 36.26 63.7162C38.4575 65.664 40.4083 64.1379 42.726 63.5075C45.2652 62.817 44.5145 65.8634 46.5215 65.349C46.1806 63.9724 45.2739 61.3644 46.1847 59.9092C46.5894 59.2624 51.3832 52.1346 60.566 38.5256L54.6055 37.4843Z" fill="#B28B67"/>
<path fill-rule="evenodd" clip-rule="evenodd" d="M59.3382 49.699L81.0712 51.7116C79.9877 42.4816 76.8749 34.2709 78.1327 21.97L71.1352 19.6641C65.171 27.128 61.6969 36.6759 59.3382 49.699Z" fill="#C5CFD6"/>
<path fill-rule="evenodd" clip-rule="evenodd" d="M58.2623 48.6823L64.5457 49.7526C64.1227 43.5408 65.8972 33.8437 69.8692 20.6611C63.9421 27.738 61.4858 35.8739 58.2623 48.6823Z" fill="black" fill-opacity="0.1"/>
<path fill-rule="evenodd" clip-rule="evenodd" d="M71.8388 19.5682C59.699 27.2295 50.4562 39.4072 44.1103 56.1011L58.413 58.5357C61.4105 44.0798 65.669 31.5938 73.3666 21.4487L72.302 19.647L71.8388 19.5682Z" fill="#C5CFD6"/>
</g>
<defs>
<clipPath id="clip0_250_2775">
<rect width="91" height="108" fill="white" transform="matrix(-0.978517 -0.206164 -0.206164 0.978517 111.479 19.6216)"/>
</clipPath>
</defs>
</svg>
