<svg width="210" height="204" viewBox="0 0 210 204" fill="none" xmlns="http://www.w3.org/2000/svg">
<rect width="210" height="204" rx="102" fill="white"/>
<path d="M105.228 69.7906C105.682 82.5084 116.802 86.2615 121.892 86.3029C108.088 88.088 105.031 98.0548 105.228 102.815C92.3293 102.985 88.6202 92.2762 88.8583 86.7491C88.6289 72.8699 99.5713 69.4933 105.228 69.7906Z" fill="#888888"/>
<path d="M39.1534 36.583C41.2748 36.5703 43.3779 36.9755 45.3427 37.7755C47.3074 38.5756 49.0954 39.7548 50.6045 41.2458C52.1135 42.7369 53.3141 44.5105 54.1377 46.4656C54.9613 48.4206 55.3918 50.5187 55.4045 52.6401C55.4173 54.7615 55.012 56.8646 54.212 58.8294C53.412 60.7942 52.2327 62.5821 50.7417 64.0912C49.2507 65.6002 47.477 66.8008 45.522 67.6244C43.567 68.448 41.4688 68.8785 39.3475 68.8912L39.2504 52.7371L39.1534 36.583Z" fill="#888888"/>
<path d="M72.4405 69.3843C74.5619 69.3715 76.665 69.7768 78.6298 70.5768C80.5946 71.3769 82.3825 72.5561 83.8916 74.0471C85.4006 75.5381 86.6012 77.3118 87.4248 79.2668C88.2484 81.2219 88.6789 83.32 88.6916 85.4413C88.7044 87.5627 88.2992 89.6659 87.4991 91.6306C86.6991 93.5954 85.5199 95.3834 84.0288 96.8925C82.5378 98.4015 80.7641 99.6021 78.8091 100.426C76.8541 101.249 74.756 101.68 72.6346 101.693L72.5375 85.5384L72.4405 69.3843Z" fill="#888888"/>
<path d="M105.243 103.157C107.365 103.144 109.468 103.55 111.433 104.35C113.397 105.15 115.185 106.329 116.694 107.82C118.203 109.311 119.404 111.085 120.228 113.04C121.051 114.995 121.482 117.093 121.494 119.214C121.507 121.336 121.102 123.439 120.302 125.404C119.502 127.368 118.323 129.156 116.832 130.665C115.341 132.174 113.567 133.375 111.612 134.199C109.657 135.022 107.559 135.453 105.437 135.465L105.34 119.311L105.243 103.157Z" fill="#888888"/>
<path d="M138.044 135.715C140.165 135.703 142.269 136.108 144.233 136.908C146.198 137.708 147.986 138.887 149.495 140.378C151.004 141.869 152.205 143.643 153.028 145.598C153.852 147.553 154.282 149.651 154.295 151.772C154.308 153.894 153.903 155.997 153.103 157.962C152.303 159.926 151.123 161.714 149.632 163.224C148.141 164.733 146.368 165.933 144.413 166.757C142.458 167.58 140.359 168.011 138.238 168.024L138.141 151.869L138.044 135.715Z" fill="#888888"/>
<path d="M138.385 68.8916C136.263 68.8916 134.163 68.4737 132.203 67.6619C130.243 66.85 128.462 65.6601 126.962 64.16C125.462 62.66 124.272 60.8791 123.46 58.9192C122.648 56.9592 122.23 54.8586 122.23 52.7372C122.23 50.6157 122.648 48.5151 123.46 46.5551C124.272 44.5952 125.462 42.8144 126.962 41.3143C128.462 39.8142 130.243 38.6243 132.203 37.8124C134.163 37.0006 136.263 36.5828 138.385 36.5828L138.385 52.7372V68.8916Z" fill="#888888"/>
<path d="M170.846 168.413C168.724 168.413 166.624 167.995 164.664 167.184C162.704 166.372 160.923 165.182 159.423 163.682C157.923 162.182 156.733 160.401 155.921 158.441C155.109 156.481 154.691 154.38 154.691 152.259C154.691 150.137 155.109 148.037 155.921 146.077C156.733 144.117 157.923 142.336 159.423 140.836C160.923 139.336 162.704 138.146 164.664 137.334C166.624 136.522 168.724 136.104 170.846 136.104L170.846 152.259V168.413Z" fill="#888888"/>
<path d="M138.654 101.964C138.654 99.8423 139.072 97.7417 139.884 95.7817C140.696 93.8218 141.886 92.041 143.386 90.5409C144.886 89.0408 146.667 87.8509 148.626 87.0391C150.586 86.2272 152.687 85.8094 154.808 85.8094C156.93 85.8094 159.031 86.2272 160.991 87.0391C162.95 87.8509 164.731 89.0408 166.231 90.5409C167.731 92.041 168.921 93.8218 169.733 95.7817C170.545 97.7417 170.963 99.8423 170.963 101.964L154.808 101.964H138.654Z" fill="#888888"/>
<path d="M72.8103 168.052C72.8103 165.93 73.2282 163.83 74.04 161.87C74.8519 159.91 76.0418 158.129 77.5419 156.629C79.0419 155.129 80.8228 153.939 82.7827 153.127C84.7427 152.315 86.8433 151.898 88.9647 151.898C91.0862 151.898 93.1868 152.315 95.1468 153.127C97.1067 153.939 98.8876 155.129 100.388 156.629C101.888 158.129 103.078 159.91 103.889 161.87C104.701 163.83 105.119 165.93 105.119 168.052L88.9647 168.052H72.8103Z" fill="#888888"/>
<path d="M39.5213 135.008C39.5213 132.887 39.9391 130.786 40.751 128.826C41.5628 126.866 42.7527 125.085 44.2528 123.585C45.7529 122.085 47.5337 120.895 49.4937 120.083C51.4536 119.271 53.5543 118.854 55.6757 118.854C57.7971 118.854 59.8978 119.271 61.8577 120.083C63.8176 120.895 65.5985 122.085 67.0986 123.585C68.5986 125.085 69.7886 126.866 70.6004 128.826C71.4122 130.786 71.8301 132.887 71.8301 135.008L55.6757 135.008H39.5213Z" fill="#888888"/>
<path d="M72.1827 36.2606C72.6367 48.9783 83.7568 52.7315 88.8469 52.7728C75.0436 54.558 71.986 64.5248 72.1827 69.2851C59.2844 69.455 55.5753 58.7462 55.8134 53.2191C55.584 39.3399 66.5264 35.9633 72.1827 36.2606Z" fill="#888888"/>
<path d="M105.269 69.7553C104.814 57.0375 93.6944 53.2844 88.6043 53.243C102.408 51.4579 105.465 41.4911 105.269 36.7308C118.167 36.5608 121.876 47.2697 121.638 52.7968C121.867 66.676 110.925 70.0526 105.269 69.7553Z" fill="#888888"/>
<path d="M138.028 102.835C138.482 115.553 149.602 119.306 154.693 119.347C140.889 121.132 137.832 131.099 138.028 135.859C125.13 136.029 121.421 125.32 121.659 119.793C121.43 105.914 132.372 102.537 138.028 102.835Z" fill="#888888"/>
<path d="M39.5418 102.473C52.2596 102.019 56.0128 90.899 56.0541 85.8089C57.8392 99.6122 67.8061 102.67 72.5664 102.473C72.7363 115.371 62.0275 119.08 56.5004 118.842C42.6211 119.072 39.2445 108.129 39.5418 102.473Z" fill="#888888"/>
<path d="M72.5848 135.517C85.3026 135.063 89.0557 123.943 89.0971 118.853C90.8822 132.656 100.849 135.714 105.609 135.517C105.779 148.416 95.0704 152.125 89.5433 151.887C75.6641 152.116 72.2875 141.174 72.5848 135.517Z" fill="#888888"/>
<path d="M138.188 69.6723C150.906 69.2183 154.659 58.0982 154.701 53.0081C156.486 66.8114 166.453 69.869 171.213 69.6723C171.383 82.5706 160.674 86.2797 155.147 86.0416C141.268 86.271 137.891 75.3286 138.188 69.6723Z" fill="#888888"/>
<path d="M71.8375 69.1653C59.082 71.7414 57.2644 76.4004 56.0443 85.9303C53.357 73.8985 49.3019 70.7704 39.2793 69.1653H71.8375Z" fill="#888888"/>
<path d="M137.681 135.618C124.926 138.194 123.108 142.853 121.888 152.383C119.201 140.351 115.146 137.223 105.123 135.618H137.681Z" fill="#888888"/>
<path d="M106.098 168.42C118.854 165.844 120.671 161.185 121.891 151.655C124.579 163.686 128.634 166.815 138.656 168.42H106.098Z" fill="#888888"/>
<path d="M171.215 135.132C168.639 122.377 163.98 120.559 154.45 119.339C166.482 116.652 169.61 112.597 171.215 102.574V135.132Z" fill="#888888"/>
<path d="M138.168 102.088C135.592 89.3325 130.933 87.5149 121.403 86.2948C133.435 83.6075 136.563 79.5524 138.168 69.5298V102.088Z" fill="#888888"/>
<path d="M72.5684 167.691C69.9922 154.935 65.3333 153.118 55.8033 151.898C67.8351 149.21 70.9633 145.155 72.5684 135.133V167.691Z" fill="#888888"/>
<path d="M39.2793 136.104C41.8554 148.86 46.5144 150.677 56.0443 151.897C44.0125 154.585 40.8844 158.64 39.2793 168.662V136.104Z" fill="#888888"/>
<path d="M104.88 102.331C92.125 104.907 90.3074 109.566 89.0873 119.096C86.3999 107.065 82.3448 103.936 72.3223 102.331H104.88Z" fill="#888888"/>
<path d="M170.486 36.2429C157.73 38.819 155.913 43.478 154.693 53.008C152.005 40.9761 147.95 37.848 137.928 36.2429H170.486Z" fill="#888888"/>
<path d="M115.152 52.4078C117.039 51.5572 119.264 52.2368 120.354 53.9966C121.274 55.4828 123.039 56.2257 124.747 55.8534C126.765 55.4135 128.806 56.536 129.504 58.4796C130.094 60.1221 131.672 61.2133 133.418 61.2022C135.478 61.189 137.248 62.7079 137.525 64.7499C137.759 66.4764 139.08 67.8707 140.787 68.2193C142.802 68.6308 144.222 70.4829 144.066 72.5336C143.933 74.2682 144.936 75.9054 146.533 76.5975C148.417 77.4147 149.422 79.5209 148.84 81.4906C148.348 83.1572 148.986 84.9648 150.404 85.9704C152.078 87.1584 152.621 89.4262 151.64 91.2296C150.809 92.7553 151.053 94.6518 152.232 95.9282C153.625 97.4378 153.68 99.7656 152.341 101.324C151.21 102.643 151.049 104.542 151.937 106.036C152.989 107.804 152.551 110.087 150.915 111.334C149.531 112.388 148.975 114.208 149.534 115.855C150.194 117.804 149.282 119.941 147.422 120.82C145.85 121.563 144.923 123.228 145.125 124.954C145.364 126.994 144.018 128.895 142.019 129.368C140.328 129.768 139.066 131.205 138.902 132.934C138.709 134.978 136.992 136.556 134.939 136.605C133.202 136.647 131.662 137.79 131.139 139.447C130.522 141.406 128.511 142.591 126.491 142.216C124.781 141.898 123.034 142.695 122.175 144.208C121.159 145.996 118.946 146.739 117.045 145.954C115.435 145.29 113.56 145.708 112.401 147.009C111.031 148.548 108.715 148.819 107.013 147.657C105.572 146.672 103.653 146.695 102.246 147.728C100.581 148.95 98.261 148.74 96.8333 147.248C95.6248 145.985 93.7459 145.615 92.1523 146.333C90.2653 147.184 88.0401 146.505 86.9504 144.745C86.0301 143.259 84.2651 142.516 82.5571 142.888C80.5393 143.328 78.4983 142.205 77.8001 140.262C77.2101 138.619 75.6315 137.528 73.8863 137.539C71.8257 137.552 70.0556 136.033 69.7792 133.991C69.5454 132.265 68.2241 130.871 66.517 130.522C64.502 130.111 63.0817 128.258 63.2383 126.208C63.3708 124.473 62.3675 122.836 60.7714 122.144C58.887 121.327 57.8815 119.22 58.4637 117.251C58.9563 115.584 58.3177 113.777 56.9003 112.771C55.2256 111.583 54.6825 109.315 55.6642 107.512C56.4948 105.986 56.2506 104.09 55.0723 102.813C53.6787 101.304 53.6243 98.9757 54.9625 97.4169C56.0944 96.0983 56.2552 94.1989 55.3669 92.7054C54.3153 90.9371 54.7526 88.6543 56.3892 87.4074C57.7728 86.3532 58.3286 84.5333 57.7701 82.886C57.1095 80.9375 58.0222 78.7999 59.8824 77.9209C61.4536 77.1785 62.3814 75.5133 62.1793 73.7874C61.9404 71.7469 63.2862 69.8467 65.2854 69.3733C66.9758 68.973 68.238 67.5366 68.4016 65.8072C68.5949 63.763 70.3124 62.1857 72.3651 62.136C74.1024 62.094 75.642 60.9516 76.1646 59.2942C76.7823 57.3353 78.793 56.1503 80.8124 56.5254C82.5228 56.8432 84.2697 56.0459 85.129 54.5333C86.1448 52.7451 88.3576 52.0025 90.2587 52.7871C91.8692 53.4517 93.744 53.0336 94.9025 51.7323C96.2727 50.1933 98.5894 49.9225 100.291 51.0847C101.732 52.069 103.651 52.046 105.058 51.0134C106.723 49.7915 109.043 50.0009 110.471 51.4932C111.679 52.7563 113.558 53.1262 115.152 52.4078Z" fill="#D2D0FE"/>
<path d="M114.301 67.1379L114.553 85.4052L131.892 79.3835L121.284 94.2592L138.923 99.5251L121.508 105.327L132.71 119.869L115.139 114.382L115.625 132.645L104.609 117.964L94.1938 132.973L93.9415 114.706L76.6031 120.727L87.2103 105.852L69.5717 100.586L86.9867 94.7838L75.7852 80.2417L93.3561 85.7294L92.8702 67.4657L103.886 82.1471L114.301 67.1379Z" fill="#F67D7D"/>
</svg>
