<svg width="79" height="85" viewBox="0 0 79 85" fill="none" xmlns="http://www.w3.org/2000/svg">
<g clip-path="url(#clip0_256_4818)">
<rect x="0.769531" y="17" width="68" height="68" rx="34" fill="url(#paint0_linear_256_4818)"/>
<path d="M50.773 103.555L50.2768 54.0848M50.2768 54.0848L49.8223 8.77124M50.2768 54.0848L0.223823 54.5868L127.142 53.3138" stroke="#F67D7D" stroke-width="4.58314"/>
</g>
<path d="M59.5528 11.0602C55.5177 12.8833 52.7053 16.7253 51.8034 18.4184C56.1472 19.701 64.9183 21.0278 67.8243 18.7779C70.8328 16.4485 70.3661 14.253 69.6255 12.6775C68.8849 11.1021 64.5967 8.78136 59.5528 11.0602Z" stroke="#F67D7D" stroke-width="3.32418"/>
<path d="M62.0574 36.3507L61.3846 37.8705L62.0574 36.3507ZM71.6088 35.1069C70.6925 35.0516 69.9048 35.7496 69.8495 36.6658C69.7942 37.5821 70.4921 38.3698 71.4084 38.4251L71.6088 35.1069ZM50.2191 18.7093C50.6532 21.9165 51.8415 25.9366 53.6651 29.5019C55.4628 33.0165 58.0298 36.3855 61.3846 37.8705L62.7302 34.8308C60.4217 33.809 58.3022 31.268 56.6246 27.9882C54.973 24.7591 53.8973 21.1004 53.5133 18.2634L50.2191 18.7093ZM61.3846 37.8705C65.0621 39.4984 68.2312 39.6784 70.306 39.3749C71.2617 39.2352 72.2152 38.9597 72.8239 38.494C72.983 38.3724 73.2579 38.1343 73.4421 37.7543C73.6649 37.2946 73.7415 36.6141 73.3327 35.9924C73.0079 35.4983 72.5406 35.3082 72.3221 35.2359C72.0648 35.1508 71.8127 35.1193 71.6088 35.1069L71.4084 38.4251C71.4495 38.4276 71.391 38.4292 71.2781 38.3919C71.2041 38.3674 70.8319 38.2396 70.5551 37.8186C70.1944 37.2699 70.272 36.6732 70.4508 36.3044C70.591 36.0151 70.7769 35.8747 70.8042 35.8538C70.886 35.7912 70.628 35.9683 69.8249 36.0858C68.3824 36.2968 65.8458 36.21 62.7302 34.8308L61.3846 37.8705Z" fill="#F67D7D"/>
<path d="M36.4523 23.753L36.1468 25.3868L36.4523 23.753ZM29.8088 18.4209C30.6286 18.834 30.9582 19.8335 30.5451 20.6532C30.132 21.4729 29.1326 21.8026 28.3129 21.3895L29.8088 18.4209ZM53.1041 19.1122C51.3301 20.8178 48.6345 22.6377 45.6696 23.9076C42.7256 25.1686 39.3049 25.9773 36.1468 25.3868L36.7578 22.1193C39.005 22.5395 41.7155 21.985 44.3608 20.852C46.9852 19.7279 49.3368 18.1229 50.8002 16.7159L53.1041 19.1122ZM36.1468 25.3868C32.6715 24.7369 30.2014 23.484 28.7585 22.4197C28.3964 22.1526 28.0844 21.8866 27.8315 21.6322C27.6034 21.4028 27.3373 21.098 27.1626 20.746C27.0893 20.5982 26.9173 20.2216 26.9561 19.7348C26.9783 19.457 27.0733 19.1111 27.3238 18.7934C27.5762 18.4733 27.8965 18.2961 28.1767 18.2093C28.6638 18.0585 29.0856 18.1577 29.2476 18.2011C29.461 18.2583 29.6532 18.3425 29.8088 18.4209L28.3129 21.3895C28.2751 21.3705 28.3052 21.39 28.3878 21.4122C28.419 21.4205 28.7413 21.5144 29.16 21.3847C29.4062 21.3085 29.7001 21.1484 29.934 20.8518C30.1661 20.5575 30.2504 20.2413 30.2698 19.9991C30.3029 19.5833 30.1566 19.3011 30.1402 19.2681C30.0793 19.1456 30.0524 19.1513 30.1889 19.2886C30.3006 19.4009 30.4785 19.5578 30.7318 19.7446C31.7504 20.4959 33.7496 21.5567 36.7578 22.1193L36.1468 25.3868Z" fill="#F67D7D"/>
<path d="M47.9962 6.81761C50.6004 10.8605 50.8985 16.0233 50.7221 18.0994C46.0043 16.7063 37.2231 12.7419 35.9004 8.97579C34.5311 5.07677 36.2519 3.34995 37.8567 2.35019C39.4616 1.35043 44.7411 1.76394 47.9962 6.81761Z" stroke="#F67D7D" stroke-width="3.32418"/>
<defs>
<linearGradient id="paint0_linear_256_4818" x1="0.76953" y1="51" x2="55.2015" y2="23.824" gradientUnits="userSpaceOnUse">
<stop stop-color="#668AE9"/>
<stop offset="1" stop-color="#6DB9EA"/>
</linearGradient>
<clipPath id="clip0_256_4818">
<rect x="0.769531" y="17" width="68" height="68" rx="34" fill="white"/>
</clipPath>
</defs>
</svg>
