<svg version="1" xmlns="http://www.w3.org/2000/svg" width="658.667" height="658.667" viewBox="0 0 494.000000 494.000000"><path d="M221.9 36.4c-.2.3-3.2.6-6.7.7-3.4.1-6.2.5-6.2.8 0 .3-2.1.7-4.8.8-4.1.2-7.5.7-9.2 1.3-.3.1-.9.2-1.3.1s-3.6.6-7 1.5-6.9 1.8-7.7 1.9c-.8.2-1.5.4-1.5.5 0 .1-.8.3-1.7.5-3.3.6-9.3 2.8-10.5 3.8-.7.5-1.3.6-1.3.2 0-.4-1.1 0-2.5.9s-2.5 1.4-2.5 1c0-.3-1.1.1-2.5 1s-2.5 1.4-2.5 1.1c0-.3-1.9.4-4.2 1.6-2.4 1.2-4.4 2.1-4.6 2-.5-.3-10.7 5.2-11 6-.2.5-.8.7-1.3.3-.5-.3-1.2.2-1.5 1-.3.9-1.2 1.6-1.9 1.6-1.7 0-7.5 3.3-7.5 4.2 0 .5-.7.8-1.5.8s-1.5.5-1.5 1.1c0 .5-.5.7-1.2.3-.8-.5-.9-.2-.5 1 .4.9.3 1.5-.2 1.1-1.1-.6-7.1 2.6-7.1 3.8 0 .5.5.5 1.2.1s.8-.3.4.5c-.4.6-1.2.9-1.7.5-1.2-.7-4.1 1.5-3.3 2.7.3.5-.3.6-1.2.2-1.2-.4-1.5-.3-1 .5.4.7.1 1.2-.9 1.2-.9 0-2.6.9-3.7 2-2.1 1.9-2.1 2.1-.3 3.3 1.4 1.1 1.5 1.6.5 2.2-.9.6-1.1.4-.5-.5.6-1 .4-1.2-.9-.7-1 .4-1.5.3-1.1-.3 1-1.6-1.1-1.2-2.5.5-1.1 1.4-.7 1.9 1.3 1.6.4 0 .7.4.7.9 0 1.3-1.3 1.3-2.7-.1-.9-.9-2.3-.1-5.6 3.4-2.5 2.5-4.2 4.8-3.9 5.1.3.3 0 .6-.6.6-2.1 0-13.9 13.6-12.8 14.7.3.4 1.2-.1 1.9-.9.9-1.2 1.7-1.3 3.2-.7 1.9.9 1.9.9-.2.5-1.3-.2-2.4.2-2.7 1.1-.4.9-1.3 1.3-2.2.9-1.9-.7-2.1-.5-10.7 12.4-8.1 12.1-12.4 20-18 33.1-8.5 20-12.8 36.4-15.7 60.4-.9 7-.6 41.8.4 46.5.2 1.4.7 4.2 1 6.2 7.2 48.4 33.6 95.2 71.5 127 30.9 25.9 64.9 40.8 107.6 47.3 12.1 1.8 46.8 1.2 58.4-1 1.4-.3 4.2-.8 6.1-1.1 14.2-2.3 35.5-9.3 51.5-17 41.7-20 77.9-56.2 97.3-97.5 8.6-18.5 15.3-40.5 18.4-60.9 2.3-15.4 1.7-47.5-1.3-64.5-5.9-33.8-23.3-71.9-43.1-93.9-1-1.1-1.8-2.4-1.8-2.9s-.7-.7-1.5-.3c-.8.3-1.4.2-1.4-.2.5-2.9-2.9-7.2-5.7-7.2-1.6 0-1.7-.2-.4-1 1-.7 1.1-1 .3-1.1-.7-.1-1.7-.2-2.2-.3-.6 0-1.6-.8-2.3-1.6-1.1-1.2-1.1-1.2.6 0 1.7 1.3 1.9 1.3 1.4 0-.3-.8-1.5-1.5-2.7-1.4-1.4 0-1.8-.3-1.2-.9 1.3-1.3-2.7-5-4.2-4-.5.3-.7.2-.4-.3.3-.5-1.3-2.7-3.5-4.9-2.3-2.2-3.8-3.5-3.5-2.8.8 1.3-3 .6-3.9-.8-.3-.5.2-.6 1-.3.9.3 1.6.1 1.6-.5s-.3-1.1-.8-1.1c-.7 0-9-5.9-13.4-9.5-2.2-1.8-18.2-11-18.6-10.7-.1.2-1-.4-1.9-1.3-.8-.9-2.2-1.4-3-1.1-.8.3-1.2.2-.9-.3.6-.9-9.1-5.6-11.1-5.4-.7 0-1-.3-.7-.8.5-.8 0-1-3.8-1.3-.7-.1-1.9-.7-2.6-1.4-.7-.6-2-1.2-2.8-1.2-2.2 0-2.2 0-5.1-1.5-3-1.6-4.5-1.2-3.7 1 .4.8 1.1 1.2 1.7.8.6-.4.7-.1.2.7-.6 1-1.1 1-2-.3-.7-.9-1.6-1.3-2.1-.9-.4.4-.3-.1.4-1 1.1-1.4 1-1.8-.8-2.8-1.1-.6-2.8-1-3.8-.9-.9.1-3-.3-4.5-1-1.6-.6-3.3-.9-3.8-.5-.5.3-.9.1-.9-.3 0-.5-.8-.9-1.7-1-1.9-.2-5.1-.8-9.3-1.8-1.4-.3-4.6-.7-7.1-.9-2.6-.2-5-.6-5.5-.9-.5-.3-3.2-.4-6.1-.4-2.8.1-4.9-.1-4.6-.6.2-.4 0-.7-.5-.7-.6 0-1.2.7-1.6 1.5-.3.8-1.1 1.5-1.8 1.4-1 0-1-.2 0-.6.6-.2 1.2-.8 1.2-1.2 0-1.1-17.2-1-19.4.1-1.3.7-1.6.7-1.2-.1.7-1-.6-1.6-1.5-.7zm7.9 3c-.8.6-1.3 1.7-1.1 2.3.3.7 0 1.3-.5 1.3-1.4 0-.8-3.3.6-3.8.7-.2.9-.9.6-1.4-.5-.7-.2-.8.6-.3 1 .6 1 1-.2 1.9zm8.7-1.4c.3.6-.1.7-.9.4-1.8-.7-2.1-1.4-.7-1.4.6 0 1.3.4 1.6 1zm-15 1.8c-.3.3-1.1 0-1.8-.7-.9-1-.8-1.1.6-.5 1 .3 1.5.9 1.2 1.2zM205.3 41c.3 1.1.1 1.8-.4 1.4-.5-.3-.9-1.2-.9-2 0-2 .7-1.7 1.3.6zm32.5.5c-.3.3-.9-.2-1.2-1.2-.6-1.4-.5-1.5.5-.6.7.7 1 1.5.7 1.8zm7.7-1.5c-.3.5-1.2 1-1.8 1-.7 0-.6-.4.3-1 1.9-1.2 2.3-1.2 1.5 0zm11.5.2c0 .4-.4.8-.9.8-.6 0-1.2-.4-1.5-.8-.3-.5.1-.9.9-.9s1.5.4 1.5.9zm-56 1.9c0 .5-.4.9-.8.9-.5 0-.9-.7-.9-1.5s.4-1.2.9-.9c.4.3.8.9.8 1.5zm64.2-.3c-.7.2-1 .8-.7 1.3.4.5-.2.6-1.1.2-1.1-.4-1.3-.8-.6-1.1.7-.2 1-.8.7-1.3-.4-.5.2-.6 1.1-.2 1.1.4 1.3.8.6 1.1zm-71.7 1c-.3.3-1.1 0-1.8-.7-.9-1-.8-1.1.6-.5 1 .3 1.5.9 1.2 1.2zm26.9-.2c.3.8.2 1.2-.4.9-.6-.3-1-1-1-1.6 0-1.4.7-1.1 1.4.7zm20.9.1c-.5 1.2-.3 1.4.7.8.9-.5 1.1-.4.6.4-.6.9-1.1.9-2.2 0-1.2-1-1.2-1.4-.2-2 1.8-1.2 1.8-1.1 1.1.8zm8.7-.2c0 1.1-2.9 1.1-3.3.1-.4-1 .1-1.2 1.4-.9 1 .3 1.9.7 1.9.8zm22.5 1.7c1.1 2.4 1.2 2.8.2 1.6-.8-1-1.6-1.5-1.9-1.2-.4.3-.9 0-1.4-.7-.5-.8-.3-1 .6-.4 1 .6 1.2.4.7-.8-1.1-3 .2-1.8 1.8 1.5zm-84.1-.6c.3.8.2 1.2-.4.9-.6-.3-1-.1-1 .6s-.2 1-.5.7c-.5-.5.4-3.8 1-3.8.2 0 .6.7.9 1.6zm28.7.7c-1 .9-1.1.8-.5-.6.3-1 .9-1.5 1.2-1.2.3.3 0 1.1-.7 1.8zm36.9-.1c0 .6-.6.5-1.5-.2-.8-.7-1.5-1.4-1.5-1.6 0-.2.7-.1 1.5.2.8.4 1.5 1.1 1.5 1.6zm-55.7.3c.4.8.1 1.7-.5 2.1-.7.5-.8.2-.3-.6.6-1 .4-1.2-1-.6-1.5.5-1.6.4-.5-.9 1.5-1.9 1.6-1.9 2.3 0zm11.1-.7c.2.4-.4.8-1.4.8-1 0-1.6-.4-1.4-.8.3-.4.9-.8 1.4-.8.5 0 1.1.4 1.4.8zm17.3.7c.5.4.2.4-.6 0-1.1-.6-1.3-.4-.8.8.8 2.2.4 2.1-1.6-.1-1.6-1.8-1.6-1.9.3-1.7 1.1.1 2.3.5 2.7 1zm9.3 0c.7.9.8 1.5.2 1.5-.5 0-1.2-.7-1.6-1.5-.3-.8-.4-1.5-.2-1.5s.9.7 1.6 1.5zm24 0c1.1 1.3 1 1.4-.5.9-1.4-.6-1.6-.4-1 .6.5.8.4 1.1-.3.6-.6-.4-.9-1.3-.5-2.1.7-1.9.8-1.9 2.3 0zm19.9.3c.7 1.4.6 1.9-.4 1.9-.7 0-1.1-.7-.7-1.5.4-1.1.1-1.3-.8-.7-.9.5-1.1.4-.6-.3 1-1.6 1.4-1.5 2.5.6zM176.5 48c.1 1-.4 2.1-1.1 2.4-1 .4-1.1-.1-.4-1.8.5-1.3.7-2.7.4-3-.2-.3-.1-.4.3-.1.4.3.7 1.4.8 2.5zm44.8-1c-.3 1.1-1 2.3-1.6 2.7-.5.3-.8.2-.5-.3.3-.5.8-1.7 1.1-2.7.9-2.4 1.6-2.2 1 .3zm23.7-1.3c-.1 1.3-3 4.8-3 3.6 0-.7.5-1.5 1-1.8.6-.4.8-1.1.5-1.6-.4-.5-.1-.9.4-.9.6 0 1.1.3 1.1.7zm23.7 0c-.4.3-.1 1.3.6 2.2 1.1 1.4 1 1.4-.5.2-2.1-1.5-2.3-3.1-.6-3.1.6 0 .8.3.5.7zm-88 1.7c0 .8-.6 1.2-1.5.9-1.1-.5-1.1-.7 0-1.4.7-.5 1.3-.9 1.4-.9 0 0 .1.6.1 1.4zm28.6-.1c.3.8 0 1.4-.7 1.4s-1.3-.6-1.3-1.4c0-.7.4-1.3.8-1.3s.9.6 1.2 1.3zm23.2-.3c.4.6 1 .8 1.5.5.4-.3 1.4.3 2.1 1.2 1.2 1.5 1.2 1.6-.1.8-.8-.6-1.7-1-2-1-1.2-.1-4.4-2.4-3.3-2.5.6 0 1.5.5 1.8 1zm-40.6 2.2c-1.1 2.1-1.5 2.2-2.5.6-.5-.7-.3-.8.6-.3.9.6 1.2.4.8-.7-.4-.8 0-1.5.7-1.5 1 0 1.1.5.4 1.9zm10.6-1.2c.3.5.1 1-.4 1-.6 0-1.1-.5-1.1-1 0-.6.2-1 .4-1 .3 0 .8.4 1.1 1zm16.5-.5c0 .2-1 .9-2.2 1.5-2.2 1.1-2.2 1-.4-.4 2.1-1.7 2.6-1.9 2.6-1.1zm11 .5c.8.5 1.1 1 .5 1-.5 0-1.7-.5-2.5-1s-1-1-.5-1c.6 0 1.7.5 2.5 1zm10.6 1.5c.1.8-.3 1.8-.8 2.2-.7.3-.8.1-.4-.5.4-.7.1-1.2-.6-1.3-1 0-1-.2 0-.6.6-.2.9-1 .5-1.6-.3-.7-.2-.8.2-.4.5.4 1 1.4 1.1 2.2zm17.2-.4c.3 1.1.2 1.1-.7-.1-1-1.3-1.2-1.3-2.1 0-.5.8-1 1-1 .4 0-2.7 3.1-3 3.8-.3zm19.2-1.2c0 .6-.4 1.2-.8 1.5-.5.3-.9-.1-.9-.9s.4-1.5.9-1.5c.4 0 .8.4.8.9zm15.1.8c1.3 1.7 1.3 1.7-.6.3-1.1-.8-2.2-1.6-2.4-1.7-.2-.2 0-.3.6-.3s1.7.8 2.4 1.7zm-95.4.8c0 .8-.4 1.5-.9 1.5-1 0-1.1-1.4-.1-2.3.9-1 1-.9 1 .8zm77.3-.1c0 .2-.7.6-1.5 1-.8.3-1.5.1-1.5-.4 0-.6.7-1 1.5-1s1.5.2 1.5.4zm26.1 1.9c-1 .9-1.1.8-.5-.6.3-1 .9-1.5 1.2-1.2.3.3 0 1.1-.7 1.8zm-127.1.2c0 1.1-2.9 1.1-3.3.1-.4-1 .1-1.2 1.4-.9 1 .3 1.9.7 1.9.8zm117.5-.5c-.3.5-1.2 1-1.8 1-.7 0-.6-.4.3-1 1.9-1.2 2.3-1.2 1.5 0zm12.9.6c.3.8.2 1.2-.4.9-.6-.3-1-1-1-1.6 0-1.4.7-1.1 1.4.7zM169 54.5c0 .5-.5.3-1-.5s-1-2-1-2.5c0-.6.5-.3 1 .5s1 1.9 1 2.5zm10-2.3c0 .6-.3.8-.7.5-.3-.4-1.3-.1-2.2.6-1.4 1.1-1.4 1-.2-.6 1.5-2 3.1-2.2 3.1-.5zm6 1.9c0 .5-.5.9-1.2.9-.6 0-.8-.3-.5-.7.4-.3.1-1.3-.6-2.2-1.1-1.4-1-1.4.6-.2.9.7 1.7 1.7 1.7 2.2zm16.8-.5c.1.1-.6.4-1.7.7-1.5.3-1.8.1-1.4-1.1.5-1.1.3-1.3-.7-.7-.9.5-1.1.4-.6-.4.6-.9 1.2-.9 2.4.1 1 .7 1.8 1.3 2 1.4zm4.5-1.2c.4 1 0 1.2-1.5.8-1.5-.4-1.7-.7-.6-1.3 1.7-1.1 1.5-1.1 2.1.5zm39 .3c-.5 1.2-.3 1.4.7.8.8-.5 1.1-.4.6.3-.4.6-1.3.9-2.2.5-1.1-.4-1.2-.9-.3-1.9 1.5-1.9 2-1.8 1.2.3zm5.7-.9c0 .5-.7.9-1.5.9s-1.2-.4-.9-.9c.3-.4.9-.8 1.5-.8.5 0 .9.4.9.8zm6 .6c-.7.7-1.3.7-2 0-.6-.6-.3-1 1-1s1.6.4 1 1zm6.4-.6c.3.5-.1.9-.9.9s-1.5-.4-1.5-.9c0-.4.4-.8.9-.8.6 0 1.2.4 1.5.8zm4.9.6c.3.8 0 1.7-.7 1.9-1 .4-1.2-.1-.9-1.4.6-2.3.9-2.4 1.6-.5zm7.2-.4c.3.6-.1.7-.9.4-1.8-.7-2.1-1.4-.7-1.4.6 0 1.3.4 1.6 1zm32.4.4c.9 1.1.9 1.6 0 2.2-.8.5-.9.3-.4-.6.6-1 .4-1.2-.8-.7-1.1.4-1.4.2-1-.9.6-1.7.8-1.7 2.2 0zm-115.4.6c-.3.5-.1 1 .6 1s1 .3.6.6c-.9.9-2.8-.6-2.2-1.7.4-.5.8-.9 1.1-.9.3 0 .2.4-.1 1zm42-.1c.3.5 0 1.3-.6 1.7-.7.4-.9.3-.5-.4.3-.6-.2-1.3-1.1-1.5-1.6-.4-1.6-.5-.1-.6.9 0 1.9.3 2.3.8zm46.5-.5c0 .2-.9.6-2 .9-1.1.3-1.8.1-1.4-.4.5-.9 3.4-1.3 3.4-.5zm-116.6 1.8c-.5.7-.2.9.8.5 1.2-.4 1.4-.1 1.1 1.4-.5 1.8-.6 1.9-1.8.2-1.2-1.6-1.1-3.3.1-3.3.3 0 .2.5-.2 1.2zm43.2 2c-.9 1.2-1.6 1.9-1.6 1.5 0-1.1 2.4-4.7 2.8-4.2.2.2-.3 1.4-1.2 2.7zm5.9-.3c0 1.6-.3 2.7-.7 2.4-1.3-.7-.7-5.3.6-5.3.1 0 .1 1.3.1 2.9zm38.9-1.7c-.5.8-.1.9 1.2.4 1.4-.5 1.6-.4.7.5-1.3 1.3-3.7.3-2.8-1.2.4-.5.8-.9 1.1-.9.3 0 .2.5-.2 1.2zm6 0c-.5.7-.2.9.8.6.8-.4 1.5 0 1.5.7 0 1-.5 1.1-1.9.4-1.6-.9-1.7-2.9-.2-2.9.3 0 .2.5-.2 1.2zm28.1-.2c-.3.5-.1 1 .6 1s1 .3.6.6c-.9.9-2.8-.6-2.2-1.7.4-.5.8-.9 1.1-.9.3 0 .2.4-.1 1zm13.5 2c0 1-.3 2.1-.7 2.3-.5.3-.8-.8-.8-2.3 0-1.5.3-2.6.8-2.3.4.2.7 1.3.7 2.3zm12.7-2.4c-.3.3-1.2.4-1.9.1-.8-.3-.5-.6.6-.6 1.1-.1 1.7.2 1.3.5zm-156.9 1.8c-1 .7-1.5 1.6-1.1 2 .4.4-.1.4-1.1 0-1.7-.6-1.6-.8.5-2 3.1-1.7 3.9-1.7 1.7 0zm23.3.9c-1 .9-1.1.8-.5-.6.3-1 .9-1.5 1.2-1.2.3.3 0 1.1-.7 1.8zm47.4-1.3c-.3.5-1.2 1-1.8 1-.7 0-.6-.4.3-1 1.9-1.2 2.3-1.2 1.5 0zm65.9.5c-2.3 1.7-3.4 1.9-3.4.4 0-.5.4-.8.9-.4.5.3 1.2.1 1.6-.5.3-.5 1.1-1 1.8-1 .6 0 .2.7-.9 1.5zm13.5 1.9c-.3.3-1.1-.5-1.8-1.7-1.3-2.1-1.2-2.1.5-.5 1 1 1.6 2 1.3 2.2zM172.7 57c-.1 1.1-.5 2-.9 2-1 0-1-.4-.2-2.4.8-2.2 1.3-2 1.1.4zm11.3-.5c0 .2-.6.5-1.3.8-.8.3-1.4-.1-1.4-.8 0-.7.6-1.1 1.4-.8.7.3 1.3.6 1.3.8zm4.1.8c-1 .9-1.1.8-.5-.6.3-1 .9-1.5 1.2-1.2.3.3 0 1.1-.7 1.8zM198 56c.8.5 1.1 1 .5 1-.5 0-1.7-.5-2.5-1s-1-1-.5-1c.6 0 1.7.5 2.5 1zm25 0c0 .5-.4 1-1 1-.5 0-1-.5-1-1 0-.6.5-1 1-1 .6 0 1 .4 1 1zm21.2.9c1.1 1.1 1 1.2-.2.5-1.8-1-4-1.4-4-.7 0 .2.5 1.4 1.1 2.6.9 2 .9 2-.4.5-.8-1-1.7-1.5-2.1-1.1-.4.4-.4-.1 0-1.1.6-1.5.4-1.7-.6-1.1-.8.5-1.1.4-.7-.2.9-1.4 5.4-1 6.9.6zm30.5-.5c.5.5.2.6-.6.1-1-.6-1.3-.4-.9.7.4.8.1 1.5-.7 1.5-.7 0-1.1-.6-.8-1.3.5-1.4-1.4-1.3-3.7.1-1.2.7-1.3.6-.3-.7 1.4-1.6 5.7-1.8 7-.4zm42-.8c-.8.9-4.7 1.3-5.1.6-.2-.4.9-.8 2.5-.8 1.7-.1 2.8 0 2.6.2zM257 58.1c0 .5-.4.9-.8.9-.5 0-.9-.7-.9-1.5s.4-1.2.9-.9c.4.3.8.9.8 1.5zm-110.9 1.2c-.8.8-1.4.7-2.3-.2-1.1-1-.9-1.1.6-.5 1.5.6 1.7.4 1.1-.6-.6-.9-.4-1.1.4-.5.9.5 1 1 .2 1.8zm14.9-1.4c0 .6-.4 1.2-.8 1.5-.5.3-.9-.1-.9-.9s.4-1.5.9-1.5c.4 0 .8.4.8.9zm35.3 1.7c-.7 1.9-1 1.8-1.6-.5-.3-1.3-.1-1.8.9-1.4.7.2 1 1.1.7 1.9zm31.8-.3c-1 .9-1.1.8-.5-.6.3-1 .9-1.5 1.2-1.2.3.3 0 1.1-.7 1.8zm20.4-1.4c.3.5 0 1.3-.6 1.7-.7.4-.9.3-.5-.4.3-.5 0-1.3-.6-1.5-.9-.4-1-.6-.1-.6.6-.1 1.4.3 1.8.8zm16.7-.2c-.6.2-.9 1-.6 1.5.4.7.2.8-.5.4-1.3-.9-.5-2.6 1.2-2.5.9 0 .8.2-.1.6zm52.1 1.4c-.4 1.5-.8 1.7-1.4.8-.6-1.1.4-2.8 1.8-2.9 0 0-.1.9-.4 2.1zm5.7-1.7c0 .2-.7.7-1.6 1-.8.3-1.2.2-.9-.4.6-1 2.5-1.4 2.5-.6zm-131.5 2.4c-.3.3-1.1 0-1.8-.7-.9-1-.8-1.1.6-.5 1 .3 1.5.9 1.2 1.2zm41.5 2.4c0 .5-.5.8-1.1.8-.5 0-.8-.4-.4-.9.3-.5.1-1.2-.5-1.6-.5-.3-1-1.1-1-1.8 0-1.2 2.9 2.3 3 3.5zm4-2.7c0 1.1-2.9 1.1-3.3.1-.4-1 .1-1.2 1.4-.9 1 .3 1.9.7 1.9.8zm44.2.8c-.7.8-.9 1.7-.5 2 .3.4.1.7-.5.7-.7 0-1.2-.2-1.2-.5 0-1 2.4-4.4 2.9-4 .2.3-.1 1.1-.7 1.8zm-139.9.6c.3 1.3.1 1.8-.9 1.4-.7-.2-1-1.1-.7-1.9.7-1.9 1-1.8 1.6.5zm15-.5c.3.8 0 1.7-.7 1.9-1 .4-1.2-.1-.9-1.4.6-2.3.9-2.4 1.6-.5zm9 .5c.3 1.3.1 1.8-.9 1.4-.7-.2-1-1.1-.7-1.9.7-1.9 1-1.8 1.6.5zm10.6.3c-1.1 2.1-1.5 2.2-2.5.6-.5-.7-.3-.8.6-.3.9.6 1.2.4.8-.7-.4-.8 0-1.5.7-1.5 1 0 1.1.5.4 1.9zm11.6-1.2c-.3.5-1.2 1-1.8 1-.7 0-.6-.4.3-1 1.9-1.2 2.3-1.2 1.5 0zm15.5-.2c0 .4-1 .9-2.2.9-1.8.2-2 0-.8-.7 1.8-1.2 3-1.3 3-.2zm22.5.2c-.3.5-1.2 1-1.8 1-.7 0-.6-.4.3-1 1.9-1.2 2.3-1.2 1.5 0zm28.8.4c.4 1 0 1.2-1.5.8-1.5-.4-1.7-.7-.6-1.3 1.7-1.1 1.5-1.1 2.1.5zm6.7.1c0 .1-.9.5-1.9.8-1.3.3-1.8.1-1.4-.9.4-1 3.3-1 3.3.1zm29.5.5c.3.5-.4.6-1.5.3s-2.2-.9-2.5-1.3c-.3-.5.4-.6 1.5-.3s2.2.9 2.5 1.3zm21.3-.8c.7.7 1.2 1.7 1.2 2.2 0 .6-.5.3-1.1-.7-.6-.9-1.4-1.5-2-1.2-.5.4-.9.1-.9-.4 0-1.4 1.3-1.4 2.8.1zm-39.3.8c.4.6-.1.7-1.1.3-1.3-.5-1.5-.3-.9.7.5.9.4 1.1-.4.6-.6-.4-.9-1.2-.6-1.7.8-1.2 2.2-1.2 3 .1zm52.5 0c0 .5-.5 1-1.1 1-.5 0-.7-.5-.4-1 .3-.6.8-1 1.1-1 .2 0 .4.4.4 1zm-118.5.9c.3.6-.3 1.4-1.3 2-1.4.7-1.9.6-1.9-.4 0-.7.7-1.1 1.5-.7 1 .3 1.3.1.8-.6-.4-.7-.5-1.2-.2-1.2s.7.4 1.1.9zm11.6 1.4c-.8.8-1.4.7-2.3-.2-1.1-1-.9-1.1.6-.5 1.5.6 1.7.4 1.1-.6-.6-.9-.4-1.1.4-.5.9.5 1 1 .2 1.8zm9.6 0c-.1.5-1.1 1.1-2 1.3-.9.1-1.5-.2-1.1-.7.3-.5 1-.6 1.6-.3.8.5.9.1.5-1s-.3-1.5.4-1.1c.5.4.8 1.2.6 1.8zm17.3-1.4c0 .5-.8 1.5-1.7 2.2-1.6 1.2-1.7 1.2-.6-.2.7-.9 1-1.9.6-2.2-.3-.4-.1-.7.5-.7.7 0 1.2.4 1.2.9zm20.8 2.3c.3-.2.7.1.9.7.1.7 0 .8-.4.1-.2-.5-.9-.8-1.3-.5-.5.3-1.4-.5-2-1.7-1.1-2.2-1.1-2.2.5-.3.9 1.1 1.9 1.9 2.3 1.7zm4.2 1.2c0 .6-.7.1-1.5-1-.8-1-1.5-2.3-1.5-2.8 0-.6.7-.1 1.5 1 .8 1 1.5 2.3 1.5 2.8zm15.3-2.7c-.4 1-.2 1.4.5.9.6-.3 1.3-.2 1.6.3.4.5-.1.8-.9.7-2-.3-2.8-1.3-2-2.5 1-1.7 1.5-1.3.8.6zm23.3.8c.2 1.2-.2 1.2-1.7.5-2.3-1.3-2.5-2.2-.2-1.3 1.2.5 1.4.3.8-.8-.5-.8-.4-1.1 0-.6.5.4 1 1.4 1.1 2.2zm-160 .5c0 1.2-.4 1.6-.9 1.1s-.6-1.4-.3-2c1-1.5 1.2-1.4 1.2.9zm3.9 0c0 .7-.7 1.5-1.5 1.7-1.3.4-1.3.3 0-.6 1.3-1 1.3-1.2 0-2.2-1.3-.9-1.3-1 0-.6.8.2 1.5 1 1.5 1.7zm16.7-1.3c-.6.2-.9 1-.6 1.5.4.7.2.8-.5.4-1.3-.9-.5-2.6 1.2-2.5.9 0 .8.2-.1.6zm16.7-.4c-.2.1-1.3.9-2.4 1.7-1.9 1.4-1.9 1.4-.6-.3.7-.9 1.8-1.7 2.4-1.7.6 0 .8.1.6.3zm8.5 1.2c-.4.8-1.1 1.2-1.6.9-.6-.4-.5-1 .3-1.5 1.9-1.2 1.9-1.1 1.3.6zm98.2 1c0 1.4-.4 2.5-.8 2.5-.6 0-.5-2.5.1-4.8.3-1 .7.2.7 2.3zm5.9.4c-.6.5-2.5-1-2.5-2 0-.5.6-.4 1.4.3.8.7 1.2 1.5 1.1 1.7zm21.6-1.1c-.7.2-1.8-.1-2.3-.6-.8-.8-.4-.9 1.3-.5 1.3.4 1.8.8 1 1.1zm-176.6.2c-.3.5-1.2 1-1.8 1-.7 0-.6-.4.3-1 1.9-1.2 2.3-1.2 1.5 0zm15.5 0c0 .5-.4 1-1 1-.5 0-1-.5-1-1 0-.6.5-1 1-1 .6 0 1 .4 1 1zm38.1.3c-.6.8-.8 1.7-.4 2 .3.4.1.7-.5.7-1.5 0-1.5-1.3 0-2.8 1.6-1.6 2.3-1.5.9.1zm12 0c-.6.8-.8 1.7-.4 2 .3.4.1.7-.5.7-1.5 0-1.5-1.3 0-2.8 1.6-1.6 2.3-1.5.9.1zm11.6.7c.1 1.1-.2 2-.7 2-.6 0-.7-1.7-.1-3.8.3-.8.7.1.8 1.8zm15.9-.5c-.1.8-.6 1.8-1.1 2.2-.4.5-.5.2 0-.6.6-1.1.4-1.3-1.1-.8-1.8.7-1.8.7 0-.8 2.4-1.8 2.5-1.8 2.2 0zm21.2.6c.3 1.1.2 1.1-.7-.1-1-1.3-1.2-1.3-2.1 0-.5.8-1 1-1 .4 0-2.7 3.1-3 3.8-.3zm21.2.4c0 .2-.7.1-1.7-.2-1.2-.5-1.4-.3-.8.8.5.8.4 1.1 0 .6-.5-.4-1-1.4-1.1-2.2-.2-1.2.2-1.2 1.7-.5 1 .6 1.9 1.3 1.9 1.5zm26 .6c0 .5-.5.9-1.2.9-.6 0-.8-.3-.5-.7.4-.3.1-1.3-.6-2.2-1.1-1.4-1-1.4.6-.2.9.7 1.7 1.7 1.7 2.2zm12 0c0 .5-.5.9-1.2.9-.6 0-.8-.3-.5-.7.4-.3.1-1.3-.6-2.2-1.1-1.4-1-1.4.6-.2.9.7 1.7 1.7 1.7 2.2zm9-2.7c0 .2-.8 1-1.7 1.7-1.6 1.3-1.7 1.2-.4-.4 1.3-1.6 2.1-2.1 2.1-1.3zm5 .6c0 .4-.7.7-1.5.6-2.3-.3-2.6-1.2-.5-1.3 1.1-.1 2 .2 2 .7zm-153.5 1.8c-.3.3-1.1 0-1.8-.7-.9-1-.8-1.1.6-.5 1 .3 1.5.9 1.2 1.2zm-9.5 1.1c.7 1.5.7 1.9-.5 1.7-.8-.1-1.8-.6-2.2-1.1-.5-.4-.2-.5.6 0 1.1.6 1.3.4.8-.8-.9-2.3 0-2.1 1.3.2zm5.3.2c-.4 1.5-.8 1.7-1.4.8-.6-1.1.4-2.8 1.8-2.9 0 0-.1.9-.4 2.1zm66.7.4c-1.4 1.7-3 2-3 .4 0-.5.5-.7 1-.4.6.3 1.3-.1 1.6-1 .4-.9.9-1.4 1.2-1.1.3.3-.1 1.2-.8 2.1zm34.1 0c.5-.4.9-.1.9.4 0 .6-.4 1.1-.8 1.1-1.2 0-3.2-2.2-3.2-3.5 0-.5.5-.2 1.1.8.6.9 1.4 1.5 2 1.2zm8.3-1.3c-.5.8-.2.9 1.1.4 1.5-.5 1.6-.4.5.9-1 1.2-1.5 1.3-2.1.3-.7-1.2-.3-2.8.7-2.8.3 0 .2.5-.2 1.2zm45.5.6c.7 1.4.6 1.9-.4 1.9-.7 0-1.1-.7-.7-1.5.4-1.1.1-1.3-.8-.7-.9.5-1.1.4-.6-.3 1-1.6 1.4-1.5 2.5.6zm5.4.3c-.4 1.5-.8 1.7-1.4.8-.6-1.1.4-2.8 1.8-2.9 0 0-.1.9-.4 2.1zM200.5 67c-.3.5-1.2 1-1.8 1-.7 0-.6-.4.3-1 1.9-1.2 2.3-1.2 1.5 0zm29.5 1.2c0 .6-.6.5-1.5-.2-.8-.7-1.5-1.4-1.5-1.6 0-.2.7-.1 1.5.2.8.4 1.5 1.1 1.5 1.6zm2.4.8c-.6.6-1 .3-1-1s.4-1.6 1-1c.7.7.7 1.3 0 2zM133 68c0 .5-.5 1-1.1 1-.5 0-.7-.5-.4-1 .3-.6.8-1 1.1-1 .2 0 .4.4.4 1zm18-.6c0 .2-.7.7-1.6 1-.8.3-1.2.2-.9-.4.6-1 2.5-1.4 2.5-.6zm60.9 1c.9 1.1.9 1.6 0 2.2-.8.5-.9.3-.4-.6.6-1 .4-1.2-.8-.7-1.1.4-1.4.2-1-.9.6-1.7.8-1.7 2.2 0zm6.7-.2c.5.7.3.8-.6.3-1-.6-1.2-.4-.7.7.4 1.2.1 1.4-1.4 1.1-1.8-.5-1.9-.6-.2-1.9 2.2-1.6 2-1.6 2.9-.2zm26.7.7c.3 1.3.1 1.8-.9 1.4-.7-.2-1-1.1-.7-1.9.7-1.9 1-1.8 1.6.5zm5.7-1.1c0 .5-.7.9-1.5.9s-1.2-.4-.9-.9c.3-.4.9-.8 1.5-.8.5 0 .9.4.9.8zm6 .6c-.7.7-1.3.7-2 0-.6-.6-.3-1 1-1s1.6.4 1 1zm6.4-.6c.3.5-.1.9-.9.9s-1.5-.4-1.5-.9c0-.4.4-.8.9-.8.6 0 1.2.4 1.5.8zm4.5.6c.9 1 .8 1.5-.3 1.9-1.1.4-1.3.1-.9-1 .5-1.2.3-1.4-.7-.8-.9.5-1.1.4-.6-.3.9-1.5 1.1-1.5 2.5.2zm12.5.2c.3.8.2 1.2-.4.9-.6-.3-1-1-1-1.6 0-1.4.7-1.1 1.4.7zm17.4 1c.1.1-.6.4-1.7.7-1.5.3-1.8.1-1.4-1.1.5-1.1.3-1.3-.7-.7-.9.5-1.1.4-.6-.4.6-.9 1.2-.9 2.4.1 1 .7 1.8 1.3 2 1.4zm4.5-1.2c.4 1 0 1.2-1.5.8-1.5-.4-1.7-.7-.6-1.3 1.7-1.1 1.5-1.1 2.1.5zm10.6.8c-1.6 3.1-1.6 3.1-2.3 1.3-.3-.9-.2-1.4.3-1.1.5.3 1.1-.1 1.5-.9.3-.8.8-1.5 1.1-1.5.3 0 0 1-.6 2.2zm27.7 1.4c.1.9-.1 1.3-.4.9-.4-.4-.7-1-.7-1.3 0-.4-.4-1.4-.9-2.2-.7-1.2-.6-1.3.4-.3.8.7 1.5 2 1.6 2.9zm-194.3-1.9c.3.5-.8.8-2.3.8-1.5 0-2.6-.3-2.3-.8.2-.4 1.3-.7 2.3-.7 1 0 2.1.3 2.3.7zm37.4 0c-.9.2-1.4.9-1.1 1.5.4.7.2.8-.5.4-1.5-1-.4-2.6 1.7-2.5 1.5.1 1.5.2-.1.6zm8.8.3c-.3.5 0 1 .7 1 .8 0 .5.5-.5 1.1-1.4.8-2.2.8-3-.1-.9-.8-.8-1 .6-.4 1 .3 1.7.3 1.6-.2-.2-1.4 0-2.4.7-2.4.3 0 .2.4-.1 1zm32.7.8c-.7.2-1 .8-.7 1.2.3.5 0 1.2-.6 1.6-.8.4-.9.3-.5-.4s.1-1.2-.6-1.3c-1 0-1-.2 0-.6.6-.2 1-.9.7-1.4-.4-.5.2-.6 1.1-.2 1.1.4 1.3.8.6 1.1zm63.3-.8c-.3.5 0 1 .7 1.1 1 0 1 .2 0 .6-.6.2-.9 1-.6 1.5.4.7.2.8-.5.4-.6-.4-.9-1.2-.6-1.7.4-.5 0-.9-.7-.9-.9 0-.9-.3.2-1 1.9-1.2 2.3-1.2 1.5 0zm20.5-.6c0 .2-.9.6-2 .9-1.1.3-1.8.1-1.4-.4.5-.9 3.4-1.3 3.4-.5zm-144.3 2.1c0 .8-.4 1.2-.9.9-.4-.3-.8-.9-.8-1.5 0-.5.4-.9.8-.9.5 0 .9.7.9 1.5zm36.6.2c-.3.7-.6 1.3-.8 1.3-.2 0-.5-.6-.8-1.3-.3-.8.1-1.4.8-1.4.7 0 1.1.6.8 1.4zm53.2-.8c.3.6-.3 1.4-1.3 2-1.4.7-1.9.6-1.9-.4 0-.7.7-1.1 1.5-.7 1 .3 1.3.1.8-.6-.4-.7-.5-1.2-.2-1.2s.7.4 1.1.9zm6.1 1.6c.2 1.2-.2 1.2-1.7.5-2.3-1.3-2.5-2.2-.2-1.3 1.2.5 1.4.3.8-.8-.5-.8-.4-1.1 0-.6.5.4 1 1.4 1.1 2.2zm64.1-1c0 .8-.4 1.2-.9.9-.4-.3-.8-.9-.8-1.5 0-.5.4-.9.8-.9.5 0 .9.7.9 1.5zM141.3 73c.3 1.1.2 1.8-.3 1.5-.4-.3-1-1.4-1.3-2.5-.3-1.1-.2-1.8.3-1.5.4.3 1 1.4 1.3 2.5zm7-1.5c-.3.9-.8 1.4-1 1.1-.3-.3-.2-.9.2-1.5.9-1.6 1.5-1.3.8.4zm6.4-.1c0 .8-.6 1.2-1.5.9-1.1-.5-1.1-.7 0-1.4.7-.5 1.3-.9 1.4-.9 0 0 .1.6.1 1.4zm22.8.6c.6.1 1.2.4 1.5.7.3.4-.1.2-.9-.2-1.1-.6-1.3-.4-.7 1.1.6 1.6.5 1.7-.6.4-.7-.8-2-2-2.8-2.8-1.3-1.1-1.2-1.2.5-.4 1.1.6 2.5 1.1 3 1.2zm20.8-.7c.4-.3.7-.1.7.5 0 1.7-1.6 1.5-3.1-.6-1.2-1.5-1.2-1.6.2-.5.9.7 1.9 1 2.2.6zm36.8.2c.5-.4.6.2.2 1.1-.4 1.1-.8 1.3-1.1.6-.2-.7-.8-1-1.2-.7-.5.3-1.2 0-1.6-.6-.4-.8-.3-.9.4-.5s1.2.1 1.3-.6c0-1 .2-1 .6 0 .2.6.9 1 1.4.7zm43.2.6c-.4 1.5-.8 1.7-1.4.8-.6-1.1.4-2.8 1.8-2.9 0 0-.1.9-.4 2.1zm16.1.8c-.2.3-1.2-.3-2.2-1.3-1.6-1.7-1.6-1.8.5-.5 1.2.7 2 1.5 1.7 1.8zm21.6-1.4c-1.4 1.7-3 2-3 .4 0-.5.4-.8.9-.4.5.3 1.2.1 1.6-.5.3-.5.9-1 1.2-1 .3 0 0 .7-.7 1.5zm21.5.5c.6.1 1.2.4 1.5.7.3.4-.1.2-.9-.2-1.1-.6-1.3-.4-.7 1.1.6 1.6.5 1.7-.6.4-.7-.8-2-2-2.8-2.8-1.3-1.1-1.2-1.2.5-.4 1.1.6 2.5 1.1 3 1.2zm-206.8.5c.5.4.2.5-.6 0-1.1-.6-1.3-.4-.8.8.9 2.3 0 2.1-1.3-.2-.7-1.5-.7-1.9.5-1.7.8.1 1.8.6 2.2 1.1zm5.7.1c.9 2.4.2 2.6-1.2.4-.7-1.1-.8-2-.3-2s1.2.7 1.5 1.6zm20.9.1c-.5 1.2-.3 1.4.7.8.9-.6 1.1-.4.5.4-.5.9-1.1.9-1.7.3-.6-.6-.7-1.5-.4-2.1 1.1-1.7 1.6-1.3.9.6zm14.3-.5c.4.7.3.8-.4.4s-1.2-.2-1.2.5-.3 1-.6.6c-.6-.5.3-2.7 1.1-2.7.2 0 .7.5 1.1 1.2zm38.2.9c.3 1.1.2 1.1-.7-.1-1-1.3-1.2-1.3-2.1 0-.5.8-1 1-1 .4 0-2.7 3.1-3 3.8-.3zm11.2-1.7c0 .2-.7.7-1.6 1-.8.3-1.2.2-.9-.4.6-1 2.5-1.4 2.5-.6zm23.3 1.6c1 1.2.9 1.2-.3.3-.8-.6-2.3-.9-3.3-.8-.9.2-1.5 0-1.2-.5.7-1.2 3.3-.6 4.8 1zm28.3-.8c.3.4-.2.5-1.3.4-1-.2-2.5.2-3.3.8-1.3.9-1.3.9-.2-.6 1.2-1.6 3.5-1.8 4.8-.6zm12.5.1c-.6.8-.8 1.7-.4 2 .3.4.1.7-.5.7-1.5 0-1.5-1.3 0-2.8 1.6-1.6 2.3-1.5.9.1zm20.7.8c.3 1.1.2 1.1-.7-.1-1-1.3-1.2-1.3-2.1 0-.5.8-1 1-1 .4 0-2.7 3.1-3 3.8-.3zm25.8-.9c.4.7.3.8-.4.4s-1.2-.2-1.2.5-.3 1-.6.6c-.6-.5.3-2.7 1.1-2.7.2 0 .7.5 1.1 1.2zm13.1 1c.2 1.7 0 1.9-.7.8-.5-.8-.6-1.8-.4-2.2.8-1.2 1-1 1.1 1.4zm-219.7.9c0 .5-.4.9-.8.9-.5 0-.9-.7-.9-1.5s.4-1.2.9-.9c.4.3.8.9.8 1.5zm103.7-.6c0 .8-.4 1.5-.9 1.5-1 0-1.1-1.4-.1-2.3.9-1 1-.9 1 .8zm28 0c0 .8-.4 1.5-.9 1.5-1 0-1.1-1.4-.1-2.3.9-1 1-.9 1 .8zm63.8-.5c-.3.5-.1 1 .6 1s1 .3.6.6c-.9.9-2.8-.6-2.2-1.7.4-.5.8-.9 1.1-.9.3 0 .2.4-.1 1zm-167.8.7c-.4.3-.1 1.3.6 2.2 1.1 1.4 1 1.4-.5.2-2.1-1.5-2.3-3.1-.6-3.1.6 0 .8.3.5.7zm11.7.5c-.5.7-.2.9.9.5s1.4-.2 1 .9c-.4 1.1-.9 1.2-1.9.3-1.2-1-1.1-2.9.2-2.9.3 0 .2.5-.2 1.2zm24 .4c.3.8.2 1.2-.4.9-.6-.3-1-1-1-1.6 0-1.4.7-1.1 1.4.7zm15.7.7c-1 .9-1.1.8-.5-.6.3-1 .9-1.5 1.2-1.2.3.3 0 1.1-.7 1.8zm17.2-.2c-.4 1.5-.8 1.7-1.4.8-.6-1.1.4-2.8 1.8-2.9 0 0-.1.9-.4 2.1zm27.2-1.2c.3.5 0 1.3-.6 1.7-.7.4-.9.3-.5-.4.3-.5 0-1.3-.6-1.5-.9-.4-1-.6-.1-.6.6-.1 1.4.3 1.8.8zm16.7-.2c-.6.2-.9 1-.6 1.5.4.7.2.8-.5.4-1.3-.9-.5-2.6 1.2-2.5.9 0 .8.2-.1.6zm27.1 1.9c-.7 1.9-1 1.8-1.6-.5-.3-1.3-.1-1.8.9-1.4.7.2 1 1.1.7 1.9zm32.1-1.4c-.5.7-.2.9.9.5s1.4-.2 1 .9c-.4 1.1-.9 1.2-1.9.3-1.2-1-1.1-2.9.2-2.9.3 0 .2.5-.2 1.2zm-190 1.2c-.3.9-1.2 1.2-2.2.9-1.5-.6-.9-1.1 2.5-2.2.1-.1 0 .5-.3 1.3zm26 .1c-1 .8-2.3 1.5-2.8 1.5-.6 0-.1-.7 1-1.5 1-.8 2.3-1.5 2.8-1.5.6 0 .1.7-1 1.5zm22.1-.5c-.3.5-1.4 1-2.3.9-1.4 0-1.3-.2.3-.9 2.7-1.1 2.7-1.1 2 0zm2.7 1.3c-.7.8-.9 1.7-.5 2 .3.4.1.7-.5.7-.7 0-1.2-.2-1.2-.5 0-1 2.4-4.4 2.9-4 .2.3-.1 1.1-.7 1.8zm87.8-1.9c0 .2-.7.9-1.5 1.6-1.3 1.1-1.4 1-.9-.4.5-1.4 2.4-2.3 2.4-1.2zm69.5.6c-.3.5-1.4 1-2.3.9-1.4 0-1.3-.2.3-.9 2.7-1.1 2.7-1.1 2 0zm-225.3 1.8c-.4 1.1-.1 1.3.8.7.8-.5 1.1-.4.6.3-.4.6-1.2.9-2 .6-1.6-.6-1.7-3.1 0-3.1.7 0 1 .7.6 1.5zm5.4-.6c.5.7.3.8-.6.3-1-.6-1.2-.4-.6 1.1.5 1.4.4 1.6-.5.7-.6-.6-.8-1.6-.5-2.2.9-1.4 1.3-1.4 2.2.1zm22.4-.8c0 .2-.7.7-1.6 1-.8.3-1.2.2-.9-.4.6-1 2.5-1.4 2.5-.6zm24.3.8c-.6.7-.9 2.1-.8 3.1.2.9 0 1.5-.5 1.2-1.3-.8.1-5.5 1.7-5.5.3 0 .1.6-.4 1.2zm6.8.5c1.2 1.6 1.2 1.7-.2.6-.9-.7-1.9-1-2.2-.6-.4.3-.7.1-.7-.5 0-1.7 1.6-1.5 3.1.5zm25.4-.7c-.3.5-1.2 1-1.8 1-.7 0-.6-.4.3-1 1.9-1.2 2.3-1.2 1.5 0zm7.5.4c-.7.7-1.3.7-2 0-.6-.6-.3-1 1-1s1.6.4 1 1zm7-.4c1.2.7 1 .9-.8.7-1.2 0-2.2-.5-2.2-.9 0-1.1 1.2-1 3 .2zm10.6.2c.5.7.3.8-.6.3-1-.6-1.2-.4-.7.8.4 1.1.2 1.4-.9 1-1.1-.4-1.2-.9-.3-1.9 1.4-1.7 1.6-1.7 2.5-.2zm4.5 2c-1 1.1-1.1.9-.5-.6.6-1.5.4-1.7-.6-1.1-.9.6-1.1.4-.5-.4.5-.9 1-1 1.8-.2s.7 1.4-.2 2.3zm6.2-1.5c-.5 1.2-.3 1.4.7.8.8-.5 1.1-.4.6.3-.4.6-1.3.9-2.2.5-1.1-.4-1.2-.9-.3-1.9 1.5-1.9 2-1.8 1.2.3zm17-.3c.4 1 0 1.2-1.5.8-1.5-.4-1.7-.7-.6-1.3 1.7-1.1 1.5-1.1 2.1.5zm6.7.1c0 .1-.9.5-1.9.8-1.3.3-1.8.1-1.4-.9.4-1 3.3-1 3.3.1zm15 0c.7.9.8 1.5.2 1.5-.5 0-1.2-.7-1.6-1.5-.3-.8-.4-1.5-.2-1.5s.9.7 1.6 1.5zm11.9-.1c.9 1 .8 1.5-.3 1.9-1.1.4-1.3.1-.9-1 .5-1.2.3-1.4-.7-.8-.9.5-1.1.4-.6-.3.9-1.5 1.1-1.5 2.5.2zm11.1-.6c0 .4-1 .9-2.2.9-1.8.2-2 0-.8-.7 1.8-1.2 3-1.3 3-.2zm6 .6c-.7.7-1.3.7-2 0-.6-.6-.3-1 1-1s1.6.4 1 1zm7.5.4c-.3.3-1.1 0-1.8-.7-.9-1-.8-1.1.6-.5 1 .3 1.5.9 1.2 1.2zm16.8-.6c-.6.7-.9 2.1-.8 3.1.2.9 0 1.5-.5 1.2-1.3-.8.1-5.5 1.7-5.5.3 0 .1.6-.4 1.2zm6.8.5c1.2 1.6 1.2 1.7-.2.6-.9-.7-1.9-1-2.2-.6-.4.3-.7.1-.7-.5 0-1.7 1.6-1.5 3.1.5zm12.9-.2c0 .1-.9.5-1.9.8-1.3.3-1.8.1-1.4-.9.4-1 3.3-1 3.3.1zm-220.5 1.6c-.4.5-1.2.9-1.8.8-.9 0-.8-.2.1-.6.6-.2.9-1 .6-1.5-.4-.7-.2-.8.5-.4.6.4.9 1.2.6 1.7zm152.9-.5c.3.8.2 1.2-.4.9-.6-.3-1-1-1-1.6 0-1.4.7-1.1 1.4.7zm-134.8.6c.4.7.3.8-.4.4-1.1-.7-1.7.7-1.2 2.9.1.5-.2.6-.7.2-1.1-1.2-1.1-3.1.2-3.9 1.3-1 1.3-1 2.1.4zm15.4-.8c0 .2-.7.7-1.6 1-.8.3-1.2.2-.9-.4.6-1 2.5-1.4 2.5-.6zm27.3 1.6c-.3 1.1-1 2.3-1.6 2.7-.5.3-.8.2-.5-.3.3-.5.8-1.7 1.1-2.7.9-2.4 1.6-2.2 1 .3zm5.2.1c-.4.5-1.2.9-1.8.8-.9 0-.8-.2.1-.6.6-.2.9-1 .6-1.5-.4-.7-.2-.8.5-.4.6.4.9 1.2.6 1.7zm9.3.4c-.3.3-.9-.2-1.2-1.2-.6-1.4-.5-1.5.5-.6.7.7 1 1.5.7 1.8zm6.6-1.3c-.5.8-.2.9 1.1.4 1.5-.5 1.6-.4.5.9-1 1.2-1.5 1.3-2.1.3-.7-1.2-.3-2.8.7-2.8.3 0 .2.5-.2 1.2zm34.6-.3c0 .5-.8 1.5-1.7 2.2-1.6 1.2-1.7 1.2-.6-.2.7-.9 1-1.9.6-2.2-.3-.4-.1-.7.5-.7.7 0 1.2.4 1.2.9zm4.1.8c-.5 1-.9 2.2-.9 2.6 0 .5-.4 1.2-.8 1.5-.4.4-.3.1.1-.7.6-1.1.4-1.3-.8-.8-1.1.4-1.4.2-1-.8.3-.8.9-1.3 1.3-1 .4.3 1-.2 1.4-1 .3-.8.8-1.5 1.1-1.5.3 0 .1.8-.4 1.7zm16.9 2.1c1.3 1.1 1.2 1.2-.4.6-1.5-.6-1.7-.4-1.1.7.4.8.6 1.2.2.9-.3-.3-.6-1-.7-1.5-.1-.6-.6-1.9-1.2-3-.8-1.7-.7-1.8.4-.5.8.8 2 2.1 2.8 2.8zm2.7-3.1c-.4.3-.1 1.3.6 2.2 1.1 1.4 1 1.4-.5.2-2.1-1.5-2.3-3.1-.6-3.1.6 0 .8.3.5.7zm41.9.5c.4.7.3.8-.4.4s-1.2-.2-1.2.5-.3 1-.6.6c-.6-.5.3-2.7 1.1-2.7.2 0 .7.5 1.1 1.2zm11.1-.6c-.3.3-1.2.4-1.9.1-.8-.3-.5-.6.6-.6 1.1-.1 1.7.2 1.3.5zm22.7 1c.3.8.2 1.2-.4.9-.6-.3-1-1-1-1.6 0-1.4.7-1.1 1.4.7zm6.9 1.5c-.8.8-1.3.7-1.8-.2-.6-.8-.4-1 .5-.4 1 .6 1.2.4.6-1.1s-.5-1.7.5-.7c.9 1 1 1.6.2 2.4zm-226.7-.6c-.1.8-.5 1.7-.8 2.1-.5.4-.4-1.6.1-3.4.3-.9.9.1.7 1.3zm30.6-.1c.7-.4.8-.2.4.5-.9 1.3-2.6.5-2.5-1.2 0-.9.2-.8.6.1.2.6 1 .9 1.5.6zm16.8.1c-.7.9-1.5 1.3-1.9 1-.3-.3.1-1 .9-1.5 2.1-1.4 2.4-1.2 1 .5zm51.5.3c-.3.3-1.1 0-1.8-.7-.9-1-.8-1.1.6-.5 1 .3 1.5.9 1.2 1.2zm67-.8c-.3.5-1.2 1-1.8 1-.7 0-.6-.4.3-1 1.9-1.2 2.3-1.2 1.5 0zm11 .8c-.3.3-1.1 0-1.8-.7-.9-1-.8-1.1.6-.5 1 .3 1.5.9 1.2 1.2zm18 0c-.3.3-1.1 0-1.8-.7-.9-1-.8-1.1.6-.5 1 .3 1.5.9 1.2 1.2zm40.3.7c.2.1-.5.6-1.5.9-.9.4-1.4.4-1 0 .4-.4-.1-1.3-1.1-2.1-1.5-1.2-1.4-1.3.8-.2 1.4.6 2.6 1.3 2.8 1.4zm-247.7 1.2c-1.2 2-1.4 1.4-.5-1.2.4-.9.9-1.4 1.1-1.1.3.2 0 1.3-.6 2.3zm9.4.2c-.6.5-2.5-1-2.5-2 0-.5.6-.4 1.4.3.8.7 1.2 1.5 1.1 1.7zm11.5.3c0 1.9-1.6.5-1.7-1.4-.2-1.8 0-2 .7-.8.5.8 1 1.8 1 2.2zm5.6-2c.5.7.3.8-.6.3-1-.6-1.2-.4-.6 1.1.5 1.4.4 1.6-.5.7-.6-.6-.8-1.6-.5-2.2.9-1.4 1.3-1.4 2.2.1zm25.2 0c1.5 1.5 1.5 2.8.1 2.8-.5 0-.8-.4-.4-.9.3-.6-.3-1.4-1.2-2-1-.6-1.3-1.1-.7-1.1.5 0 1.5.5 2.2 1.2zm23.2-.7c0 .2-1 .9-2.2 1.5-2.2 1.1-2.2 1-.4-.4 2.1-1.7 2.6-1.9 2.6-1.1zm32.6.7c.4.7.3.8-.4.4s-1.2-.2-1.2.5-.3 1-.6.6c-.6-.5.3-2.7 1.1-2.7.2 0 .7.5 1.1 1.2zm9.2 0c-.2.6-1 1.3-1.6 1.4-.7.1-.8 0-.2-.3.5-.2.8-.9.4-1.4-.3-.5 0-.9.6-.9.7 0 1 .5.8 1.2zm6.2 0c0 .4-.4.8-.9.8-.6 0-1.2-.4-1.5-.8-.3-.5.1-.9.9-.9s1.5.4 1.5.9zm22.8.9c.3 1.1.2 1.1-.7-.1-1-1.3-1.2-1.3-2.1 0-.5.8-1 1-1 .4 0-2.7 3.1-3 3.8-.3zm21.6-.9c-.3.4-.9.8-1.5.8-.5 0-.9-.4-.9-.8 0-.5.7-.9 1.5-.9s1.2.4.9.9zm5.2-.3c-.4.5-.1 1.2.4 1.4.6.3.5.4-.2.3-1.5-.3-2.3-2.6-.8-2.6.6 0 .9.4.6.9zm10.3 1.4c0 .9-.2.8-.6-.1-.2-.6-1-.9-1.5-.6-.7.4-.8.2-.4-.5.9-1.3 2.6-.5 2.5 1.2zm28.9-1.1c1.5 1.5 1.5 2.8.1 2.8-.5 0-.8-.4-.4-.9.3-.6-.3-1.4-1.2-2-1-.6-1.3-1.1-.7-1.1.5 0 1.5.5 2.2 1.2zm-175.3.8c.3.6-.1.7-.9.4-1.8-.7-2.1-1.4-.7-1.4.6 0 1.3.4 1.6 1zm11.5-.6c0 .2-.7.7-1.6 1-.8.3-1.2.2-.9-.4.6-1 2.5-1.4 2.5-.6zm49.3 1c.4 1 .1 1.3-.8.9-.8-.3-1.2-.9-.9-1.4.7-1.2 1.1-1.1 1.7.5zm95.1-.5c.3.5-.1 1.1-.9 1.5-.8.3-1.7 0-2.1-.6-.4-.7-.3-.8.4-.4s1.2.2 1.2-.3c0-1.3.7-1.4 1.4-.2zm32.6 1.2c0 .5-.4.9-.8.9-.5 0-.9-.7-.9-1.5s.4-1.2.9-.9c.4.3.8.9.8 1.5zm-218.4.1c.5.7.3.8-.6.3-1-.6-1.2-.4-.6 1 .5 1.5.4 1.6-.9.5s-1.3-1.5-.3-2.1c1.7-1.1 1.6-1.1 2.4.3zm10.8 1.1c.4-.4.4.1 0 1.2-.5 1.1-.9 1.4-1.2.7-.2-.7-.8-1-1.2-.7-.5.3-1.2 0-1.6-.6-.5-.8-.3-.9.6-.4 1 .6 1.2.3.7-1.1-.7-1.8-.6-1.8.6-.2.8 1 1.7 1.5 2.1 1.1zm122.7 0c-1 .9-1.1.8-.5-.6.3-1 .9-1.5 1.2-1.2.3.3 0 1.1-.7 1.8zm64.3-.7c.3.8.2 1.2-.4.9-.6-.3-1-1-1-1.6 0-1.4.7-1.1 1.4.7zm29.7.7c-.8.8-1.4.7-2.3-.2-1.1-1-.9-1.1.6-.5 1.5.6 1.7.4 1.1-.6-.6-.9-.4-1.1.4-.5.9.5 1 1 .2 1.8zm-203.7.1c-.3.9-1.2 1.2-2.2.9-1.5-.6-.9-1.1 2.5-2.2.1-.1 0 .5-.3 1.3zm31.6.8c0 .6-.6.5-1.5-.2-.8-.7-1.5-1.4-1.5-1.6 0-.2.7-.1 1.5.2.8.4 1.5 1.1 1.5 1.6zm19.5-1c.5-.4.5-.1.1.6-.5.9-1.2.9-2.7.2-1-.6-1.9-1.3-1.9-1.6 0-.2.8 0 1.9.5 1 .6 2.2.7 2.6.3zm7.6-.2c.9-1.3 1-1.3.6 0-.2.8-1 1.5-1.7 1.5s-1.5-.7-1.7-1.5c-.4-1.3-.3-1.3.6 0 1 1.3 1.2 1.3 2.2 0zm112.1 1.3c-.7.8-.9 1.7-.5 2 .3.4.1.7-.5.7-.7 0-1.2-.2-1.2-.5 0-1 2.4-4.4 2.9-4 .2.3-.1 1.1-.7 1.8zm20.8-.1c0 .6-.6.5-1.5-.2-.8-.7-1.5-1.4-1.5-1.6 0-.2.7-.1 1.5.2.8.4 1.5 1.1 1.5 1.6zm-225.7.2c.3.8 0 1.7-.7 1.9-1 .4-1.2-.1-.9-1.4.6-2.3.9-2.4 1.6-.5zM152 84c-1.8 1.2-3 1.3-3 .2 0-.4 1-.9 2.2-.9 1.8-.2 2 0 .8.7zm5.3.9c.3 1.3.1 1.8-.9 1.4-.7-.2-1-1.1-.7-1.9.7-1.9 1-1.8 1.6.5zm5.3-.7c.5.7.3.8-.6.3-1-.6-1.2-.4-.6 1.1.5 1.4.4 1.6-.5.7-.6-.6-.8-1.6-.5-2.2.9-1.4 1.3-1.4 2.2.1zm45.5.5c1.3 1.6 1.2 1.7-.3.4-1.7-1.3-2.2-2.1-1.4-2.1.2 0 1 .8 1.7 1.7zm9-.4c-.6.8-.8 1.7-.4 2 .3.4.1.7-.5.7-1.5 0-1.5-1.3 0-2.8 1.6-1.6 2.3-1.5.9.1zm6.3-.5c.3.5-.1.9-.9.9s-1.5-.4-1.5-.9c0-.4.4-.8.9-.8.6 0 1.2.4 1.5.8zm4.1.2c.3.6-.1.7-.9.4-1.8-.7-2.1-1.4-.7-1.4.6 0 1.3.4 1.6 1zm29.5.4c-.7.7-1.3.7-2 0-.6-.6-.3-1 1-1s1.6.4 1 1zm10.2 1.8c-.8.8-.9.4-.5-1.3.4-1.3.8-1.8 1.1-1 .2.7-.1 1.8-.6 2.3zm23.8-2.8c0 .2-.7.7-1.6 1-.8.3-1.2.2-.9-.4.6-1 2.5-1.4 2.5-.6zm6 2.7c0 .5-.5.9-1.2.9-.6 0-.8-.3-.5-.7.4-.3.1-1.3-.6-2.2-1.1-1.4-1-1.4.6-.2.9.7 1.7 1.7 1.7 2.2zm8.5-2.1c-.3.5-1.2 1-1.8 1-.7 0-.6-.4.3-1 1.9-1.2 2.3-1.2 1.5 0zm17.2.5c.5.4.2.4-.6 0-1.1-.6-1.3-.4-.8.8.8 2.2.4 2.1-1.6-.1-1.6-1.8-1.6-1.9.3-1.7 1.1.1 2.3.5 2.7 1zm34.6.4c.3 1.3.1 1.8-.9 1.4-.7-.2-1-1.1-.7-1.9.7-1.9 1-1.8 1.6.5zm-220.8 1.2c-.4.5-1.2.9-1.8.8-.9 0-.8-.2.1-.6.6-.2.9-1 .6-1.5-.4-.7-.2-.8.5-.4.6.4.9 1.2.6 1.7zm33.5-.6c0 .1-.9.5-1.9.8-1.3.3-1.8.1-1.4-.9.4-1 3.3-1 3.3.1zm64.3-.8c.3.5-.8.8-2.3.8-1.5 0-2.6-.3-2.3-.8.2-.4 1.3-.7 2.3-.7 1 0 2.1.3 2.3.7zm48 0c.3.5-.8.8-2.3.8-1.5 0-2.6-.3-2.3-.8.2-.4 1.3-.7 2.3-.7 1 0 2.1.3 2.3.7zm47.7.8c0 .1-.9.5-1.9.8-1.3.3-1.8.1-1.4-.9.4-1 3.3-1 3.3.1zm-205.5.4c-.3.6.3 1.4 1.2 2 1 .6 1.3 1.1.8 1.1-1.3 0-3.5-2-3.5-3.2 0-.4.5-.8 1.1-.8.5 0 .8.4.4.9zm52.5 0c0 .6-.4 1.2-.8 1.5-.5.3-.9-.1-.9-.9s.4-1.5.9-1.5c.4 0 .8.4.8.9zm4.5 2c0 1.6-.3 2.7-.7 2.4-1.3-.7-.7-5.3.6-5.3.1 0 .1 1.3.1 2.9zm14.8.1c.3 1.1.2 1.8-.3 1.5-.4-.3-1-1.4-1.3-2.5-.3-1.1-.2-1.8.3-1.5.4.3 1 1.4 1.3 2.5zm9-1c-.3 1.1-1 2.3-1.6 2.7-.5.3-.8.2-.5-.3.3-.5.8-1.7 1.1-2.7.9-2.4 1.6-2.2 1 .3zm46.5 1.1c-.3.8-.7.3-1.1-1-.4-1.7-.3-2.1.5-1.3.5.5.8 1.6.6 2.3zm10.8-1.9c.4.7.3.8-.4.4s-1.2 0-1.2 1-.3 1.5-.6 1.1c-.7-.6.2-3.7 1-3.7.3 0 .8.5 1.2 1.2zm28.5 2c-1 1.1-1.1.9-.5-.6.6-1.5.4-1.7-.6-1.1-.9.6-1.1.4-.5-.4.5-.9 1-1 1.8-.2s.7 1.4-.2 2.3zm17.2-.2c.3 1.1.2 1.8-.3 1.5-.4-.3-1-1.4-1.3-2.5-.3-1.1-.2-1.8.3-1.5.4.3 1 1.4 1.3 2.5zm9-1c-.3 1.1-1 2.3-1.6 2.7-.5.3-.8.2-.5-.3.3-.5.8-1.7 1.1-2.7.9-2.4 1.6-2.2 1 .3zm27-.3c-.3.7-.6 1.3-.8 1.3-.2 0-.5-.6-.8-1.3-.3-.8.1-1.4.8-1.4.7 0 1.1.6.8 1.4zm18.3-.5c.4.7.4 1-.1.6-.4-.4-1.4-.1-2.2.7-.8.8-1.9 1.5-2.5 1.5-.6 0 0-.9 1.3-2 2.9-2.3 2.6-2.3 3.5-.8zm-244.3 1.7c.3 1.5.1 1.8-1.1 1.4-1.1-.5-1.3-.3-.7.7.5.9.4 1.1-.3.6-.9-.5-.8-1.2.1-2.6 1.4-2.4 1.4-2.4 2-.1zm13.9-.7c-1.4 1.4-4.4 2-3.6.7.3-.5.9-.7 1.4-.4.5.3 1.1.1 1.5-.5.3-.5.9-1 1.3-1 .3 0 .1.5-.6 1.2zm13.1.9c-.8.8-1.3.7-1.8-.2-.5-.8-.4-1 .3-.5.7.4 1.2.2 1.2-.5s.3-.9.7-.6c.4.4.2 1.2-.4 1.8zm76.1-.5c.3.8.2 1.2-.4.9-.6-.3-1-1-1-1.6 0-1.4.7-1.1 1.4.7zm126.6-.1c-1.4 1.7-3 2-3 .4 0-.5.4-.8.9-.4.5.3 1.2.1 1.6-.5.3-.5.9-1 1.2-1 .3 0 0 .7-.7 1.5zM105 88c0 .5-.2 1-.4 1-.3 0-.8-.5-1.1-1-.3-.6-.1-1 .4-1 .6 0 1.1.4 1.1 1zm8-.6c0 .3-.4.8-1 1.1-.5.3-1 .1-1-.4 0-.6.5-1.1 1-1.1.6 0 1 .2 1 .4zm43.1 1.3c1.3 1.7 1.3 1.7-.6.3-1.1-.8-2.2-1.6-2.4-1.7-.2-.2 0-.3.6-.3s1.7.8 2.4 1.7zm4.4.4c-.4.5-1.2.9-1.8.8-.9 0-.8-.2.1-.6.6-.2.9-1 .6-1.5-.4-.7-.2-.8.5-.4.6.4.9 1.2.6 1.7zm5-1.1c.3.6-.1.7-.9.4-1.8-.7-2.1-1.4-.7-1.4.6 0 1.3.4 1.6 1zm25.5 0c0 .5-.4 1-1 1-.5 0-1-.5-1-1 0-.6.5-1 1-1 .6 0 1 .4 1 1zm11.5 0c-.3.5-1.2 1-1.8 1-.7 0-.6-.4.3-1 1.9-1.2 2.3-1.2 1.5 0zm9.9.6c.3.8.2 1.2-.4.9-.6-.3-1-1-1-1.6 0-1.4.7-1.1 1.4.7zm6.3-.2c0 .8-.6 1.2-1.5.9-1.1-.5-1.1-.7 0-1.4.7-.5 1.3-.9 1.4-.9 0 0 .1.6.1 1.4zm7.9-.2c.5.7.3.8-.6.3-1-.6-1.2-.4-.7.8.4 1.1.2 1.4-.9 1-1.1-.4-1.2-.9-.3-1.9 1.4-1.7 1.6-1.7 2.5-.2zm17.8.3c1.1.8 1.5 1.5.9 1.5-.7 0-1.5-.5-1.8-1-.4-.6-1.1-.8-1.6-.5-.5.4-.9.1-.9-.4 0-1.5 1.1-1.3 3.4.4zm26.6-.4c0 .5-.4.8-.9.4-.5-.3-1.2-.1-1.6.5-.3.5-1.1 1-1.8 1-.6 0-.2-.7.9-1.5 2.3-1.7 3.4-1.9 3.4-.4zm2 .9c-.6 1.1-1.3 2-1.6 2-.2 0 0-.9.6-2s1.3-2 1.6-2c.2 0 0 .9-.6 2zm14.9-.6c.9 1 .8 1.5-.3 1.9-.9.4-1.8.1-2.2-.5-.5-.7-.2-.8.6-.3 1 .6 1.2.4.7-.8-.8-2.1-.3-2.2 1.2-.3zm8.1.1c0 .2-.6.5-1.3.8-.8.3-1.4-.1-1.4-.8 0-.7.6-1.1 1.4-.8.7.3 1.3.6 1.3.8zm4.1.8c-1 .9-1.1.8-.5-.6.3-1 .9-1.5 1.2-1.2.3.3 0 1.1-.7 1.8zm14.4-1.3c-.3.5-1.2 1-1.8 1-.7 0-.6-.4.3-1 1.9-1.2 2.3-1.2 1.5 0zm11 0c.3.6-.1.7-.9.4-1.8-.7-2.1-1.4-.7-1.4.6 0 1.3.4 1.6 1zm-183 1c.4.6-.1.7-1.1.3-1.3-.5-1.5-.3-.9.7.5.9.4 1.1-.4.6-.6-.4-.9-1.2-.6-1.7.8-1.2 2.2-1.2 3 .1zm32 0c.3.6-.1.7-.9.4-1.8-.7-2.1-1.4-.7-1.4.6 0 1.3.4 1.6 1zm160 0c.4.6-.1.7-1.1.3-1.3-.5-1.5-.3-.9.7.5.9.4 1.1-.4.6-.6-.4-.9-1.2-.6-1.7.8-1.2 2.2-1.2 3 .1zm-199.9 1.2c.5.7.3.8-.6.3-1-.6-1.2-.4-.6 1 .5 1.5.4 1.6-.9.5s-1.3-1.5-.3-2.1c1.7-1.1 1.6-1.1 2.4.3zm18.7.5c-.5 1.2-.3 1.4.7.8.9-.5 1.1-.4.6.3-.5.9-1.2.8-2.6-.1-2-1.2-1.8-1.5 1.7-2.6.1-.1-.1.6-.4 1.6zm11.7-.2c0 .1-.7.8-1.5 1.5-1.3 1.1-1.4 1-.9-.5.6-1.4.4-1.6-.6-1-.8.5-1.1.4-.6-.3.5-.9 3.6-.7 3.6.3zm92-.5c0 .5-.4 1-1 1-.5 0-1-.5-1-1 0-.6.5-1 1-1 .6 0 1 .4 1 1zm68 .5c0 .1-.7.8-1.5 1.5-1.3 1.1-1.4 1-.9-.5.6-1.4.4-1.6-.6-1-.8.5-1.1.4-.6-.3.5-.9 3.6-.7 3.6.3zm15.4.1c.3.8.2 1.2-.4.9-.6-.3-1-1-1-1.6 0-1.4.7-1.1 1.4.7zM109 90.4c0 .2-.7.9-1.5 1.6-1.3 1.1-1.4 1-.9-.4.5-1.4 2.4-2.3 2.4-1.2zm11.3 1.1c-.3.9-.8 1.4-1 1.1-.3-.3-.2-.9.2-1.5.9-1.6 1.5-1.3.8.4zm28.7 0c0 1.1-2.9 1.1-3.3.1-.4-1 .1-1.2 1.4-.9 1 .3 1.9.7 1.9.8zm46-1c0 .2-1 .9-2.2 1.5-2.2 1.1-2.2 1-.4-.4 2.1-1.7 2.6-1.9 2.6-1.1zm15.3.7c-.2.5-1.3.8-2.3.8-1 0-2.1-.3-2.3-.8-.3-.4.8-.7 2.3-.7 1.5 0 2.6.3 2.3.7zm96 0c-.2.5-1.3.8-2.3.8-1 0-2.1-.3-2.3-.8-.3-.4.8-.7 2.3-.7 1.5 0 2.6.3 2.3.7zm31.2.7c-.8 1.4-2.5 1.4-2.5 0 0-.5.5-.7 1-.4.6.3 1 .1 1-.6s.3-1 .6-.6c.3.3.3 1-.1 1.6zm-234.1.3c-.3.4-.9.8-1.5.8-.5 0-.9-.4-.9-.8 0-.5.7-.9 1.5-.9s1.2.4.9.9zm11.6 0c0 .4-.4.8-.9.8-.6 0-1.2-.4-1.5-.8-.3-.5.1-.9.9-.9s1.5.4 1.5.9zm10 .3c0 .1-.9.5-1.9.8-1.3.3-1.8.1-1.4-.9.4-1 3.3-1 3.3.1zm14-.3c0 .4-.4.8-.9.8-.6 0-1.2-.4-1.5-.8-.3-.5.1-.9.9-.9s1.5.4 1.5.9zm32 0c0 .6-.3.8-.7.5-.3-.4-1.3-.1-2.2.6-1.4 1.1-1.4 1-.2-.6 1.5-2 3.1-2.2 3.1-.5zm6.6.6c.1.7 0 .8-.3.2-.2-.5-.9-.8-1.4-.4-.5.3-.9 0-.9-.6 0-1.5 2.3-.7 2.6.8zm41.6 1.4c-.8.8-.9.4-.5-1.3.4-1.3.8-1.8 1.1-1 .2.7-.1 1.8-.6 2.3zm23.3-1.2c.3.5-.4.6-1.5.3s-2.2-.9-2.5-1.3c-.3-.5.4-.6 1.5-.3s2.2.9 2.5 1.3zm25-1c.3.6-.1.7-.9.4-1.8-.7-2.1-1.4-.7-1.4.6 0 1.3.4 1.6 1zm6.1-.1c-.6.9-4.6 2.2-4.6 1.5 0-.3 1-.9 2.3-1.4 2.9-1.1 2.9-1.1 2.3-.1zm25.9.1c-.3.5-1.2 1-1.8 1-.7 0-.6-.4.3-1 1.9-1.2 2.3-1.2 1.5 0zm31.5.2c0 .6-.3.8-.7.5-.3-.4-1.3-.1-2.2.6-1.4 1.1-1.4 1-.2-.6 1.5-2 3.1-2.2 3.1-.5zm13.5.6c-.3.3-1.1 0-1.8-.7-.9-1-.8-1.1.6-.5 1 .3 1.5.9 1.2 1.2zm17.1-.9c-.6.9-4.6 2.2-4.6 1.5 0-.3 1-.9 2.3-1.4 2.9-1.1 2.9-1.1 2.3-.1zm-232.9 1.7c-.3.3-1.2.4-1.9.1-.8-.3-.5-.6.6-.6 1.1-.1 1.7.2 1.3.5zm28.3.2c0 1.2-2.2 3.2-3.4 3.2-.6 0-.3-.5.7-1.1.9-.6 1.5-1.4 1.2-2-.4-.5-.1-.9.4-.9.6 0 1.1.4 1.1.8zm15.4.4c-.5.8-.2.9 1.1.4 1.8-.6 1.8-.6.2 1.2-.9 1-1.4 2.2-1 2.5.3.4.1.7-.5.7s-.9-1.2-.7-2.8c.5-3.4.4-3.2 1.1-3.2.3 0 .2.5-.2 1.2zm14.2 1.3c.2 1.2-.2 1.2-1.7.5-2.3-1.3-2.5-2.2-.2-1.3 1.2.5 1.4.3.8-.8-.5-.8-.4-1.1 0-.6.5.4 1 1.4 1.1 2.2zM233 94c0 .5-.4 1-1 1-.5 0-1-.5-1-1 0-.6.5-1 1-1 .6 0 1 .4 1 1zm4.3 1c-.3 1.2-.8 1.9-1.1 1.6-.5-.6.5-3.6 1.2-3.6.2 0 .2.9-.1 2zm13.3-.8c.4.7.3.8-.4.4s-1.2 0-1.2 1-.3 1.5-.6 1.1c-.7-.6.2-3.7 1-3.7.3 0 .8.5 1.2 1.2zm13.2 1.9c-.3.8-.7.3-1.1-1-.4-1.7-.3-2.1.5-1.3.5.5.8 1.6.6 2.3zm12 0c-.3.8-.7.3-1.1-1-.4-1.7-.3-2.1.5-1.3.5.5.8 1.6.6 2.3zM281 94c0 .5-.4 1-1 1-.5 0-1-.5-1-1 0-.6.5-1 1-1 .6 0 1 .4 1 1zm51.4.2c-.5.7-.2.9.9.5s1.4-.2 1 .9c-.4 1.1-.9 1.2-1.9.3-1.2-1-1.1-2.9.2-2.9.3 0 .2.5-.2 1.2zm8.6 1.2c-.5 1.3-.6 2.7-.3 3 .4.3.1.6-.5.6-.7 0-1.2-.2-1.2-.4 0-1.1 2-5.6 2.5-5.6.2 0 0 1.1-.5 2.4zm24.6-.2c.4-.4.3 0-.4.9-.6.9-.9 1.9-.5 2.2.3.4.1.7-.6.7s-1.1-.6-.8-1.3c.2-.6 0-2.1-.5-3.2-.8-1.8-.8-1.9.5-.3.8 1 1.8 1.4 2.3 1zm-272.3.5c-.7.3-.9 1.1-.6 1.9.3.8.1 1.4-.4 1.4s-.9-1.1-.9-2.4c0-1.7.4-2.2 1.5-1.8.9.3 1.1.7.4.9zm5.9.1c-.7.2-1 .8-.7 1.3.4.5-.2.6-1.1.2-1.1-.4-1.3-.8-.6-1.1.7-.2 1-.8.7-1.3-.4-.5.2-.6 1.1-.2 1.1.4 1.3.8.6 1.1zm11.1.1c.3 1.5.1 1.8-1.1 1.4-1.1-.5-1.3-.3-.7.7.5.9.4 1.1-.3.6-.9-.5-.8-1.2.1-2.6 1.4-2.4 1.4-2.4 2-.1zm8.4-.6c0 .8-.6 1.4-1.4 1.4-1.7 0-1.7-1.4 0-2 .6-.3 1.2-.6 1.3-.6 0-.1.1.5.1 1.2zm15.6.6c.3 1.5.1 1.8-1.1 1.4-1.1-.5-1.3-.3-.7.7.5.9.4 1.1-.3.6-.9-.5-.8-1.2.1-2.6 1.4-2.4 1.4-2.4 2-.1zm10-.6c.7-.3.8-.2.4.2-1.2 1.3-3.6 1.5-4.4.3-.3-.7-.1-.8.5-.4.7.4 1.2.1 1.3-.6 0-1 .2-1 .6 0 .2.6 1 .9 1.6.5zm21.4.9c-.3.8-.6.5-.6-.6-.1-1.1.2-1.7.5-1.3.3.3.4 1.2.1 1.9zm50.8-1.3c.3.5 0 1.3-.6 1.7-.7.4-.9.3-.5-.4.3-.5 0-1.3-.6-1.5-.9-.4-1-.6-.1-.6.6-.1 1.4.3 1.8.8zm28.1 1.6c.1 1.4-.2 2.5-.6 2.5-.6 0-.7-3.6-.1-4.8.4-.7.6.1.7 2.3zm24.1.5c-.1 1.1-.4 2-.8 2s-.6-1.1-.5-2.4c0-1.3.4-2.2.8-2 .4.2.6 1.3.5 2.4zm27.7-1.5c-1 .8-2.3 1.5-2.8 1.5-.6 0-.1-.7 1-1.5 1-.8 2.3-1.5 2.8-1.5.6 0 .1.7-1 1.5zm4.2 1.1c.1.9 0 1.3-.4 1-.3-.4-.7-1.4-.8-2.2-.1-.9 0-1.3.4-1 .3.4.7 1.4.8 2.2zm26.4-1.1c.5-.3 1.2 0 1.6.6.4.8.3.9-.4.5s-1.2-.1-1.3.6c0 1-.2 1-.6 0-.2-.6-.9-1-1.4-.7-.5.4-.6-.2-.2-1.1.4-1.1.8-1.3 1.1-.6.2.7.8 1 1.2.7zm21.3 0c-.3.9-.8 1.4-1 1.1-.3-.3-.2-.9.2-1.5.9-1.6 1.5-1.3.8.4zm8.8.2c1.3 1.6 1.2 1.7-.3.4-1.7-1.3-2.2-2.1-1.4-2.1.2 0 1 .8 1.7 1.7zm12.6.5c-.3.8-.6.5-.6-.6-.1-1.1.2-1.7.5-1.3.3.3.4 1.2.1 1.9zm-220-.1c-.9.6-1.5 1.4-1.2 2 .4.5.1.9-.4.9-.6 0-1.1-.4-1.1-.8 0-1.2 2.2-3.2 3.5-3.2.5 0 .2.5-.8 1.1zM161 96c0 .5-.5 1-1.1 1-.5 0-.7-.5-.4-1 .3-.6.8-1 1.1-1 .2 0 .4.4.4 1zm28.3 1c.3 1.1.1 1.8-.4 1.4-.5-.3-.9-1.2-.9-2 0-2 .7-1.7 1.3.6zm5.7-1.6c0 .2-.7.7-1.6 1-.8.3-1.2.2-.9-.4.6-1 2.5-1.4 2.5-.6zm14 1.1c-.7.8-1.7 1.5-2.3 1.5-.6 0-.2-.7.9-1.5 2.5-1.9 3-1.9 1.4 0zm13-.5c-.8.5-1.9 1-2.5 1-.5 0-.3-.5.5-1s2-1 2.5-1c.6 0 .3.5-.5 1zm5.2 2.2c-.8.8-.9.4-.5-1.3.4-1.3.8-1.8 1.1-1 .2.7-.1 1.8-.6 2.3zm29.8-1.8c-.7.7-1.3.7-2 0-.6-.6-.3-1 1-1s1.6.4 1 1zm28.3.6c.3 1.1.1 1.8-.4 1.4-.5-.3-.9-1.2-.9-2 0-2 .7-1.7 1.3.6zm5.7-1.6c0 .2-.7.7-1.6 1-.8.3-1.2.2-.9-.4.6-1 2.5-1.4 2.5-.6zm14.4 1.1c-1 .8-2.3 1.5-2.8 1.5-.6 0-.1-.7 1-1.5 1-.8 2.3-1.5 2.8-1.5.6 0 .1.7-1 1.5zM318 96c-.8.5-1.9 1-2.5 1-.5 0-.3-.5.5-1s2-1 2.5-1c.6 0 .3.5-.5 1zm34.7 1c-1.9 2.5-2 2.6-1.4.8.3-.9.1-1.9-.6-2.1-.7-.3-.2-.4 1-.4 1.8.1 2 .4 1 1.7zM125 98.1c0 .5-.4.9-.8.9-.5 0-.9-.7-.9-1.5s.4-1.2.9-.9c.4.3.8.9.8 1.5zm107.6-.6c-.1.8-.8 2.1-1.6 2.8-1 1-1.1.9-.4-.3.5-.8.9-1.8 1-2.3.3-1.4.4-1.7.8-1.7.2 0 .3.7.2 1.5zm102.5.8c-1 .9-1.1.8-.5-.6.3-1 .9-1.5 1.2-1.2.3.3 0 1.1-.7 1.8zm-229 1.2c.5-.4.9-.1.9.4 0 .6-.4 1.1-.8 1.1-1.2 0-3.2-2.2-3.2-3.5 0-.5.5-.2 1.1.8.6.9 1.4 1.5 2 1.2zm5.5.3c-1.7 1.6-1.8 1.6-.5-.5.7-1.2 1.5-2 1.8-1.7.3.2-.3 1.2-1.3 2.2zm28.8-1.9c.3.5 0 1.4-.8 2-1 .9-1.5.8-1.9-.3-.4-1.1-.1-1.3 1-.9s1.4.2.9-.5c-.4-.7-.5-1.2-.2-1.2s.7.4 1 .9zm44.3-.2c-.4.3-.1 1.3.6 2.2 1.1 1.4 1 1.4-.5.2-2.1-1.5-2.3-3.1-.6-3.1.6 0 .8.3.5.7zm27.6 1.9c-.7 1.9-1 1.8-1.6-.5-.3-1.3-.1-1.8.9-1.4.7.2 1 1.1.7 1.9zm5-.9c-.5 1.2-.3 1.4.7.8.9-.6 1.1-.4.5.4-.5.9-1.1.9-1.7.3-.6-.6-.7-1.5-.4-2.1 1.1-1.7 1.6-1.3.9.6zm35.1-.5c-.5.7-.2.9.9.5s1.4-.2 1 .9c-.4 1.1-.9 1.2-1.9.3-1.2-1-1.1-2.9.2-2.9.3 0 .2.5-.2 1.2zm28.3-.5c-.4.3-.1 1.3.6 2.2 1.1 1.4 1 1.4-.5.2-2.1-1.5-2.3-3.1-.6-3.1.6 0 .8.3.5.7zm27.6 1.9c-.7 1.9-1 1.8-1.6-.5-.3-1.3-.1-1.8.9-1.4.7.2 1 1.1.7 1.9zm5-.9c-.5 1.2-.3 1.4.7.8.9-.6 1.1-.4.5.4-.5.9-1.1.9-1.7.3-.6-.6-.7-1.5-.4-2.1 1.1-1.7 1.6-1.3.9.6zm63.7 1.8c0 .5-.5.3-1-.5s-1-2-1-2.5c0-.6.5-.3 1 .5s1 1.9 1 2.5zm-212-1c0 1.1-2.9 1.1-3.3.1-.4-1 .1-1.2 1.4-.9 1 .3 1.9.7 1.9.8zm96 0c0 1.1-2.9 1.1-3.3.1-.4-1 .1-1.2 1.4-.9 1 .3 1.9.7 1.9.8zm72 0c0 1.1-2.9 1.1-3.3.1-.4-1 .1-1.2 1.4-.9 1 .3 1.9.7 1.9.8zm11.5-.5c-.3.5-1.2 1-1.8 1-.7 0-.6-.4.3-1 1.9-1.2 2.3-1.2 1.5 0zm12.5.5c0 1.1-2.9 1.1-3.3.1-.4-1 .1-1.2 1.4-.9 1 .3 1.9.7 1.9.8zm-268.2 1.9c-1.5 2.9-1.5 2.9-2.2 1.1-.4-1.1-.2-1.4.6-.9.7.5.9.2.6-.8-.4-.8 0-1.5.7-1.5 1.1 0 1.1.5.3 2.1zm11.5-1c.3.8 0 1.7-.7 1.9-1 .4-1.2-.1-.9-1.4.6-2.3.9-2.4 1.6-.5zm16.7.1c0 .1-.9.5-1.9.8-1.3.3-1.8.1-1.4-.9.4-1 3.3-1 3.3.1zm3.9.7c-1.6 3.1-1.6 3.1-2.3 1.3-.3-.9-.2-1.4.3-1.1.5.3 1.1-.1 1.5-.9.3-.8.8-1.5 1.1-1.5.3 0 0 1-.6 2.2zm10.1-1.1c0 .4-.9.7-1.9.6-1.1 0-1.8-.4-1.6-.7.6-.9 3.5-.8 3.5.1zm5.4.5c.3.8.2 1.2-.4.9-.6-.3-1-1-1-1.6 0-1.4.7-1.1 1.4.7zm17 .7c.4-.4.4.1 0 1.2-.5 1.1-.9 1.4-1.2.7-.2-.7-.8-1-1.3-.7-.5.4-.6-.2-.2-1.1.5-1.3.3-1.5-.7-.9-.9.6-1.1.4-.5-.5.6-1 1.1-1 2 .3.7.9 1.5 1.4 1.9 1zm4.9-.9c.4 1 0 1.2-1.5.8-1.5-.4-1.7-.7-.6-1.3 1.7-1.1 1.5-1.1 2.1.5zm19.1.9c.4-.4.4.1 0 1.1-.6 1.5-.4 1.7.7 1.1.8-.5 1.1-.4.6 0-1.4 1.6-3.6 1.4-3-.3.4-1 .2-1.3-.5-.8-.6.3-1.4.1-1.8-.5-.5-.8-.3-.9.6-.4 1 .6 1.2.3.7-1.1-.7-1.8-.6-1.8.6-.2.8 1 1.7 1.5 2.1 1.1zm4.9-.9c.4 1 0 1.2-1.5.8-1.5-.4-1.7-.7-.6-1.3 1.7-1.1 1.5-1.1 2.1.5zm43.2-.4c.3.6-.1.7-.9.4-1.8-.7-2.1-1.4-.7-1.4.6 0 1.3.4 1.6 1zm11.5.5c0 .1-.9.5-1.9.8-1.3.3-1.8.1-1.4-.9.4-1 3.3-1 3.3.1zm5.6-.3c.5.7.3.8-.6.3-1-.6-1.2-.4-.7.9.5 1.1.3 1.5-.5 1s-.9-.2-.5.9c.9 2.4 0 2.1-1.4-.4-.6-1.2-.7-1.9-.1-1.5.5.3 1.2-.1 1.6-.9.7-1.8 1.2-1.9 2.2-.3zm30.8 1.1c.4-.4.4.1 0 1.1-.6 1.5-.4 1.7.7 1.1.8-.5 1.1-.4.6 0-1.4 1.6-3.6 1.4-3-.3.4-1 .2-1.3-.5-.8-.6.3-1.4.1-1.8-.5-.5-.8-.3-.9.6-.4 1 .6 1.2.3.7-1.1-.7-1.8-.6-1.8.6-.2.8 1 1.7 1.5 2.1 1.1zm4.9-.9c.4 1 0 1.2-1.5.8-1.5-.4-1.7-.7-.6-1.3 1.7-1.1 1.5-1.1 2.1.5zm44.7-.4c0 .4-.7.7-1.5.6-2.3-.3-2.6-1.2-.5-1.3 1.1-.1 2 .2 2 .7zm6 2.5c0 .5-.5.3-1-.5s-1-2-1-2.5c0-.6.5-.3 1 .5s1 1.9 1 2.5zm40.4-1.2c.4-.4.4.1 0 1.1-.6 1.5-.4 1.7.7 1.1.8-.5 1.1-.4.6 0-1.4 1.6-3.6 1.4-3-.3.4-1 .2-1.3-.5-.8-.6.3-1.4.1-1.8-.5-.5-.8-.3-.9.6-.4 1 .6 1.2.3.7-1.1-.7-1.8-.6-1.8.6-.2.8 1 1.7 1.5 2.1 1.1zm4.9-.9c.4 1 0 1.2-1.5.8-1.5-.4-1.7-.7-.6-1.3 1.7-1.1 1.5-1.1 2.1.5zm-229.8.6c-.3.5 0 1 .7 1.1 1 0 1 .2 0 .6-.6.2-.9 1-.6 1.5.4.7.2.8-.5.4-.6-.4-.9-1.2-.6-1.7.4-.5 0-.9-.7-.9-.9 0-.9-.3.2-1 1.9-1.2 2.3-1.2 1.5 0zm24 0c-.3.5-.1 1 .6 1s1 .3.6.6c-.9.9-2.8-.6-2.2-1.7.4-.5.8-.9 1.1-.9.3 0 .2.4-.1 1zm19.8.5c-.3.9-.8 1.4-1 1.1-.3-.3-.2-.9.2-1.5.9-1.6 1.5-1.3.8.4zm14.2-.6c.3.5 0 1.3-.6 1.7-.7.4-.9.3-.5-.4.3-.6-.2-1.3-1.1-1.5-1.6-.4-1.6-.5-.1-.6.9 0 1.9.3 2.3.8zm46 1.3c-.9.6-1.9.7-2.2.4-.4-.3-.1-.6.6-.6s.9-.4.6-1c-.4-.6.1-.7 1.1-.3 1.5.6 1.5.7-.1 1.5zm16-1.2c-.3.5-.1 1 .6 1s1 .3.6.6c-.9.9-2.8-.6-2.2-1.7.4-.5.8-.9 1.1-.9.3 0 .2.4-.1 1zm19.8.5c-.3.9-.8 1.4-1 1.1-.3-.3-.2-.9.2-1.5.9-1.6 1.5-1.3.8.4zm14.2-.6c.3.5 0 1.3-.6 1.7-.7.4-.9.3-.5-.4.3-.6-.2-1.3-1.1-1.5-1.6-.4-1.6-.5-.1-.6.9 0 1.9.3 2.3.8zm38 .1c-.3.5-.1 1 .6 1s1 .3.6.6c-.9.9-2.8-.6-2.2-1.7.4-.5.8-.9 1.1-.9.3 0 .2.4-.1 1zm24 0c-.3.5-.1 1 .6 1s1 .3.6.6c-.9.9-2.8-.6-2.2-1.7.4-.5.8-.9 1.1-.9.3 0 .2.4-.1 1zm-168.1 1.2c-.5.8-.1.9 1.2.5 1.8-.7 1.8-.6.2.6-1 .8-1.5 1.6-1.2 1.9.3.4 0 .9-.7 1.4-.8.5-1 .3-.4-.6.6-1 .3-1.2-1.1-.7-1.8.7-1.8.7 0-.8 1.1-.8 1.6-1.5 1.2-1.5-.4 0-.4-.5-.1-1 .3-.6.8-1 1.1-1 .3 0 .2.5-.2 1.2zm11.7 1.1c-1 .9-1.1.8-.5-.6.3-1 .9-1.5 1.2-1.2.3.3 0 1.1-.7 1.8zm16.9-1.4c0 .6-.4 1.2-.8 1.5-.5.3-.9-.1-.9-.9s.4-1.5.9-1.5c.4 0 .8.4.8.9zm67.4.3c-.5.8-.1.9 1.2.5 1.8-.7 1.8-.6.2.6-1 .8-1.5 1.6-1.2 1.9.3.4 0 .9-.7 1.4-.8.5-1 .3-.4-.6.6-1 .3-1.2-1.1-.7-1.8.7-1.8.7 0-.8 1.1-.8 1.6-1.5 1.2-1.5-.4 0-.4-.5-.1-1 .3-.6.8-1 1.1-1 .3 0 .2.5-.2 1.2zm11.7 1.1c-1 .9-1.1.8-.5-.6.3-1 .9-1.5 1.2-1.2.3.3 0 1.1-.7 1.8zm16.9-1.4c0 .6-.4 1.2-.8 1.5-.5.3-.9-.1-.9-.9s.4-1.5.9-1.5c.4 0 .8.4.8.9zm7.4.3c-.5.7-.2.9.8.5 1.2-.4 1.4-.1 1.1 1.4-.5 1.8-.6 1.9-1.8.2-1.2-1.6-1.1-3.3.1-3.3.3 0 .2.5-.2 1.2zm20.9.5c-.3.7-.6 1.3-.8 1.3-.2 0-.5-.6-.8-1.3-.3-.8.1-1.4.8-1.4.7 0 1.1.6.8 1.4zm35.1-.8c.3.5 0 1.4-.8 2-1 .9-1.5.8-1.9-.3-.4-1.1-.1-1.3 1-.9s1.4.2.9-.5c-.4-.7-.5-1.2-.2-1.2s.7.4 1 .9zM92 103.5c-1.4 1.7-3 2-3 .4 0-.5.4-.8.9-.4.5.3 1.2.1 1.6-.5.3-.5.9-1 1.2-1 .3 0 0 .7-.7 1.5zm4.5-.6c.3.5 0 1.3-.6 1.7-.7.4-.9.3-.5-.4.3-.5 0-1.3-.6-1.5-.9-.4-1-.6-.1-.6.6-.1 1.4.3 1.8.8zm16.1 1.1c.5-.1 1 .4 1.2 1.2.3 1.1.2 1.1-.6 0-.5-.8-1.3-1.3-1.8-1.2-.5.1-1-.4-1.2-1.2-.3-1.1-.2-1.1.6 0 .5.8 1.3 1.3 1.8 1.2zm11.4-.5c-1.4 1.7-3 2-3 .4 0-.5.4-.8.9-.4.5.3 1.2.1 1.6-.5.3-.5.9-1 1.2-1 .3 0 0 .7-.7 1.5zm10.3.6c-.4 1.5-.8 1.7-1.4.8-.6-1.1.4-2.8 1.8-2.9 0 0-.1.9-.4 2.1zm16.1.8c-.2.3-1.2-.3-2.2-1.3-1.6-1.7-1.6-1.8.5-.5 1.2.7 2 1.5 1.7 1.8zm22.7-1.2c1.3 1.6 1.2 1.7-.3.4-1-.7-1.8-1.5-1.8-1.7 0-.8.8-.3 2.1 1.3zm13.3-.1c.3.8.2 1.2-.4.9-.6-.3-1-1-1-1.6 0-1.4.7-1.1 1.4.7zm43.9.5c-.8.8-1.3.7-1.8-.2-.5-.8-.4-1 .3-.5.7.4 1.2.2 1.2-.5s.3-.9.7-.6c.4.4.2 1.2-.4 1.8zm14.7-1.7c0 .2-.8 1-1.7 1.7-1.6 1.3-1.7 1.2-.4-.4 1.3-1.6 2.1-2.1 2.1-1.3zm24.1 1.3c1.3 1.6 1.2 1.7-.3.4-1.7-1.3-2.2-2.1-1.4-2.1.2 0 1 .8 1.7 1.7zm13.3-.1c.3.8.2 1.2-.4.9-.6-.3-1-1-1-1.6 0-1.4.7-1.1 1.4.7zm59.9-.3c.4-.3.7-.1.7.5 0 1.7-1.6 1.5-3.1-.6-1.2-1.5-1.2-1.6.2-.5.9.7 1.9 1 2.2.6zm22.8.4c1.3 1.6 1.2 1.7-.3.4-1.7-1.3-2.2-2.1-1.4-2.1.2 0 1 .8 1.7 1.7zm-263.6.3c-.3.5-1.2 1-1.8 1-.7 0-.6-.4.3-1 1.9-1.2 2.3-1.2 1.5 0zm39.6.3c-.6.8-.8 1.7-.4 2 .3.4.1.7-.5.7-1.5 0-1.5-1.3 0-2.8 1.6-1.6 2.3-1.5.9.1zm18.7.1c-.7.8-1.5 1.2-1.7 1.1-.5-.6 1-2.5 2-2.5.5 0 .4.6-.3 1.4zm39 1.1c-.3.3-.9-.2-1.2-1.2-.6-1.4-.5-1.5.5-.6.7.7 1 1.5.7 1.8zm9.1-.3c-1.2 2.3-2.1 2.4-1.2.1.5-1.2.3-1.4-.7-.8-.8.5-1.1.4-.7-.2.3-.5 1.3-1 2.1-1 1.1 0 1.3.5.5 1.9zm7 .1c0 .9-.2.8-.6-.1-.2-.6-1-.9-1.5-.6-.7.4-.8.2-.4-.5.9-1.3 2.6-.5 2.5 1.2zm79.9.2c-.3.3-.9-.2-1.2-1.2-.6-1.4-.5-1.5.5-.6.7.7 1 1.5.7 1.8zm9.1-.3c-1.2 2.3-2.1 2.4-1.2.1.5-1.2.3-1.4-.7-.8-.8.5-1.1.4-.7-.2.3-.5 1.3-1 2.1-1 1.1 0 1.3.5.5 1.9zm7 .1c0 .9-.2.8-.6-.1-.2-.6-1-.9-1.5-.6-.7.4-.8.2-.4-.5.9-1.3 2.6-.5 2.5 1.2zm21.8-.3c-.1 1.1-.5 2-.9 2-1 0-1-.4-.2-2.4.8-2.2 1.3-2 1.1.4zm19.1-.6c-.7.8-1.5 1.2-1.7 1.1-.5-.6 1-2.5 2-2.5.5 0 .4.6-.3 1.4zm-187.3.5c.3.5 0 1.3-.6 1.7-.8.5-.9.3-.4-.6.6-1 .4-1.2-.9-.7-1 .4-1.5.3-1.1-.3.8-1.3 2.2-1.3 3-.1zm15.8.6c-.3.9-.8 1.4-1 1.1-.3-.3-.2-.9.2-1.5.9-1.6 1.5-1.3.8.4zm46.1-.6c.4.5-.3.7-1.4.4-2.3-.6-2.6-1.3-.6-1.3.8 0 1.7.4 2 .9zm10.6 1.2c0 .5-.4.9-.8.9-.5 0-.9-.7-.9-1.5s.4-1.2.9-.9c.4.3.8.9.8 1.5zm17.5-1.1c.4.6-.1.7-1.1.3-1.3-.5-1.5-.3-.9.7.5.9.4 1.1-.4.6-.6-.4-.9-1.2-.6-1.7.8-1.2 2.2-1.2 3 .1zm6-.1c.3.5 0 1.3-.6 1.7-.8.5-.9.3-.4-.6.6-1 .4-1.2-.9-.7-1 .4-1.5.3-1.1-.3.8-1.3 2.2-1.3 3-.1zm15.8.6c-.3.9-.8 1.4-1 1.1-.3-.3-.2-.9.2-1.5.9-1.6 1.5-1.3.8.4zm44.7.6c0 .5-.8.9-1.7.8-1.1 0-1.3-.3-.5-.6.6-.2.9-1 .6-1.5-.4-.7-.2-.8.4-.4.7.4 1.2 1.1 1.2 1.7zm35.5-1.2c.3.5 0 1.3-.6 1.7-.8.5-.9.3-.4-.6.6-1 .4-1.2-.9-.7-1 .4-1.5.3-1.1-.3.8-1.3 2.2-1.3 3-.1zm15.8.6c-.3.9-.8 1.4-1 1.1-.3-.3-.2-.9.2-1.5.9-1.6 1.5-1.3.8.4zm11.7-1.1c0 .2-.7.7-1.6 1-.8.3-1.2.2-.9-.4.6-1 2.5-1.4 2.5-.6zm-286.7 2.1c-.3.9-.8 1.4-1 1.1-.3-.3-.2-.9.2-1.5.9-1.6 1.5-1.3.8.4zm8.5-.1c-.2.1-1 .7-2 1.4-1.2 1-1.8 1-2.4.1-.5-.8-.3-.9.6-.4 1 .6 1.2.4.7-.7-.4-1.2-.1-1.4 1.4-1.1 1.1.3 1.8.6 1.7.7zm2.6-.2c-.5.7-.2.9.9.5s1.4-.2 1 .9c-.4 1.1-.9 1.2-1.9.3-1.2-1-1.1-2.9.2-2.9.3 0 .2.5-.2 1.2zm39.9 1.4c-.7 1.9-1 1.8-1.6-.5-.3-1.3-.1-1.8.9-1.4.7.2 1 1.1.7 1.9zm24.7-1.1c0 .1-.7.8-1.5 1.5-1.3 1.1-1.4 1-.9-.5.6-1.4.4-1.6-.6-1-.8.5-1.1.4-.6-.3.5-.9 3.6-.7 3.6.3zm9.5-.5c-.3.5.2 1 1.1 1 1 0 1.5.3 1.1.6-1 1-3.9-.5-3.2-1.6.3-.5.8-1 1.1-1 .3 0 .2.4-.1 1zm13.6 1.3c-1 .9-1.1.8-.5-.6.3-1 .9-1.5 1.2-1.2.3.3 0 1.1-.7 1.8zm22.3-1.1c-.5.8-.2.9 1.1.4 1.5-.5 1.6-.4.5.9-1 1.2-1.5 1.3-2.1.3-.7-1.2-.3-2.8.7-2.8.3 0 .2.5-.2 1.2zm50.6.3c0 .1-.7.8-1.5 1.5-1.3 1.1-1.4 1-.9-.5.6-1.4.4-1.6-.6-1-.8.5-1.1.4-.6-.3.5-.9 3.6-.7 3.6.3zm9.5-.5c-.3.5.2 1 1.1 1 1 0 1.5.3 1.1.6-1 1-3.9-.5-3.2-1.6.3-.5.8-1 1.1-1 .3 0 .2.4-.1 1zm13.6 1.3c-1 .9-1.1.8-.5-.6.3-1 .9-1.5 1.2-1.2.3.3 0 1.1-.7 1.8zm22.3-1.1c-.5.8-.2.9 1.1.4 1.5-.5 1.6-.4.5.9-1 1.2-1.5 1.3-2.1.3-.7-1.2-.3-2.8.7-2.8.3 0 .2.5-.2 1.2zm33.7 1.1c-1 .9-1.1.8-.5-.6.3-1 .9-1.5 1.2-1.2.3.3 0 1.1-.7 1.8zm16.9-.8c0 .1-.7.8-1.5 1.5-1.3 1.1-1.4 1-.9-.5.6-1.4.4-1.6-.6-1-.8.5-1.1.4-.6-.3.5-.9 3.6-.7 3.6.3zm9.5-.5c-.3.5.2 1 1.1 1 1 0 1.5.3 1.1.6-1 1-3.9-.5-3.2-1.6.3-.5.8-1 1.1-1 .3 0 .2.4-.1 1zm11.1.9c0 1.6-.3 1.7-1.4.9-1.2-1-.7-1.9 1.3-2.8.1 0 .1.9.1 1.9zm-180.6.6c0 1.1-2.9 1.1-3.3.1-.4-1 .1-1.2 1.4-.9 1 .3 1.9.7 1.9.8zm19.7-.9c-.3.3-1.2.4-1.9.1-.8-.3-.5-.6.6-.6 1.1-.1 1.7.2 1.3.5zm20.7 1c.5 1.4.4 1.5-.9.4-1.7-1.4-1.9-2-.6-2 .5 0 1.2.7 1.5 1.6zm55.6-.1c0 1.1-2.9 1.1-3.3.1-.4-1 .1-1.2 1.4-.9 1 .3 1.9.7 1.9.8zm-219.9.8c-.6.8-.9 1.6-.6 1.9.3.3-.3 1.1-1.2 1.9-1.6 1.3-1.7 1.2-.4-.4.7-.9 1-1.7.6-1.7s-.2-.7.5-1.5 1.5-1.5 1.7-1.5c.3 0 0 .6-.6 1.3zm7.4.5c-.3.3-1.1 0-1.8-.7-.9-1-.8-1.1.6-.5 1 .3 1.5.9 1.2 1.2zm24.8-.6c-1.1 1.8-1.1 3-.1 5 .6 1.3.5 1.6-.5 1.2-2-.7-1.2-7.4.9-7.4.3 0 .2.6-.3 1.2zm7.2.6c-.3.3-1.1 0-1.8-.7-.9-1-.8-1.1.6-.5 1 .3 1.5.9 1.2 1.2zm12.9-.3c-.4.8-1.1 1.5-1.6 1.5-.6 0-.5-.6.2-1.5.7-.8 1.4-1.5 1.6-1.5.2 0 .1.7-.2 1.5zm10.5-.1c.9 1 .8 1.5-.3 1.9-1.1.4-1.3.1-.9-1 .5-1.2.3-1.4-.7-.8-.9.5-1.1.4-.6-.3.9-1.5 1.1-1.5 2.5.2zm11.1-.6c0 .4-1 .9-2.2.9-1.8.2-2 0-.8-.7 1.8-1.2 3-1.3 3-.2zm6 .4c0 .4-.4.8-.9.8-.6 0-1.2-.4-1.5-.8-.3-.5.1-.9.9-.9s1.5.4 1.5.9zm6.4 0c-.3.4-.9.8-1.5.8-.5 0-.9-.4-.9-.8 0-.5.7-.9 1.5-.9s1.2.4.9.9zm33.6 1.9c0 .5-.5.9-1.2.9-.6 0-.8-.3-.5-.7.4-.3.1-1.3-.6-2.2-1.1-1.4-1-1.4.6-.2.9.7 1.7 1.7 1.7 2.2zm10-1.9c0 .6-.3.8-.7.5-.3-.4-1.3-.1-2.2.6-1.4 1.1-1.4 1-.2-.6 1.5-2 3.1-2.2 3.1-.5zm5.1.5c1.3 1.6 1.2 1.7-.3.4-1-.7-1.8-1.5-1.8-1.7 0-.8.8-.3 2.1 1.3zm11.1 1.5c-.8.8-.9.4-.5-1.3.4-1.3.8-1.8 1.1-1 .2.7-.1 1.8-.6 2.3zm6.5-2.6c-.3.3-1.2.4-1.9.1-.8-.3-.5-.6.6-.6 1.1-.1 1.7.2 1.3.5zm17.3.6c0 .4-.4.8-.9.8-.6 0-1.2-.4-1.5-.8-.3-.5.1-.9.9-.9s1.5.4 1.5.9zm6-.2c0 .5-.4 1-1 1-.5 0-1-.5-1-1 0-.6.5-1 1-1 .6 0 1 .4 1 1zm6.4.2c-.3.4-.9.8-1.5.8-.5 0-.9-.4-.9-.8 0-.5.7-.9 1.5-.9s1.2.4.9.9zm33.6 1.9c0 .5-.5.9-1.2.9-.6 0-.8-.3-.5-.7.4-.3.1-1.3-.6-2.2-1.1-1.4-1-1.4.6-.2.9.7 1.7 1.7 1.7 2.2zm10-1.9c0 .6-.3.8-.7.5-.3-.4-1.3-.1-2.2.6-1.4 1.1-1.4 1-.2-.6 1.5-2 3.1-2.2 3.1-.5zm5.1.5c1.3 1.6 1.2 1.7-.3.4-1-.7-1.8-1.5-1.8-1.7 0-.8.8-.3 2.1 1.3zm13.2.2c.3 1.3.1 1.8-.9 1.4-.7-.2-1-1.1-.7-1.9.7-1.9 1-1.8 1.6.5zm10 1.2c-.8.8-1.3.7-1.8-.2-.6-.8-.4-1 .5-.4 1 .6 1.2.4.6-1.1s-.5-1.7.5-.7c.9 1 1 1.6.2 2.4zm10.2-2.1c-.3.5-1.2 1-1.8 1-.7 0-.6-.4.3-1 1.9-1.2 2.3-1.2 1.5 0zm7.5.2c0 .4-.4.8-.9.8-.6 0-1.2-.4-1.5-.8-.3-.5.1-.9.9-.9s1.5.4 1.5.9zm6.4 0c-.3.4-.9.8-1.5.8-.5 0-.9-.4-.9-.8 0-.5.7-.9 1.5-.9s1.2.4.9.9zm-222 1.4c.3.8.2 1.2-.4.9-.6-.3-1-1-1-1.6 0-1.4.7-1.1 1.4.7zm39.2-.7c-.4.5-.1 1.1.6 1.3.8.3.6.6-.4 1-1.1.5-1.5.2-1.3-1 .5-2.3.4-2.2 1.1-2.2.3 0 .3.4 0 .9zm64 1.6c.1.8-.3 1.8-.8 2.2-.7.3-.8.1-.4-.5.4-.7.1-1.2-.6-1.3-1 0-1-.2 0-.6.6-.2.9-1 .5-1.6-.3-.7-.2-.8.2-.4.5.4 1 1.4 1.1 2.2zm32-1.6c-.4.5-.1 1.1.6 1.3.8.3.6.6-.4 1-1.1.5-1.5.2-1.3-1 .5-2.3.4-2.2 1.1-2.2.3 0 .3.4 0 .9zm96 0c-.4.5-.1 1.1.6 1.3.8.3.6.6-.4 1-1.1.5-1.5.2-1.3-1 .5-2.3.4-2.2 1.1-2.2.3 0 .3.4 0 .9zm-282 1.3c.5.7.3.8-.6.3-1-.6-1.2-.4-.7.8.3.9 0 1.8-.9 2.1-.8.3-1.3.2-1.1-.2.2-.4.7-1.5 1-2.5.7-2 1.3-2.1 2.3-.5zm14.1.3c0 .8-.4 1.2-.9.9-.4-.3-.8-.9-.8-1.5 0-.5.4-.9.8-.9.5 0 .9.7.9 1.5zm17.9-.3c.4.7.3.8-.4.4s-1.2-.2-1.2.5-.3 1-.6.6c-.6-.5.3-2.7 1.1-2.7.2 0 .7.5 1.1 1.2zm77.2 1.9c-.3.8-.7.3-1.1-1-.4-1.7-.3-2.1.5-1.3.5.5.8 1.6.6 2.3zm18.5-.5c-.4 1.1-.9 1.2-1.9.3-1.9-1.5-1.8-2 .3-1.2 1.2.5 1.4.3.8-.7-.5-.8-.4-1.1.3-.6.6.4.9 1.3.5 2.2zm77.5.5c-.3.8-.7.3-1.1-1-.4-1.7-.3-2.1.5-1.3.5.5.8 1.6.6 2.3zm18.5-.5c-.4 1.1-.9 1.2-1.9.3-1.9-1.5-1.8-2 .3-1.2 1.2.5 1.4.3.8-.7-.5-.8-.4-1.1.3-.6.6.4.9 1.3.5 2.2zm28.1-.2c-.3.7-1.2 1.3-2.1 1.3-1.4 0-1.4-.1.1-1.2.8-.7 1.2-1.6.8-2-.4-.5-.2-.5.5-.1s1 1.2.7 2zm9.6.6c0 1-.3 2.1-.7 2.3-.5.3-.8-.8-.8-2.3 0-1.5.3-2.6.8-2.3.4.2.7 1.3.7 2.3zm-271.6-.4c.3.8.2 1.2-.4.9-.6-.3-1-1-1-1.6 0-1.4.7-1.1 1.4.7zm20.1 1.4c-.3.4 0 1.1.5 1.3.7.4.6.5-.1.3-.6-.1-.9-.5-.7-.8.2-.4-.6-1.4-1.7-2.3-1.9-1.6-1.9-1.6.3-.5 1.2.6 2 1.5 1.7 2zm31.6-1.2c-.7.2-1.8-.1-2.3-.6-.8-.8-.4-.9 1.3-.5 1.3.4 1.8.8 1 1.1zm18.3-.5c-.3.8-1.2 1.4-2.1 1.4-1.3 0-1.3-.2.3-1.4 1-.7 1.9-1.3 2.1-1.3.1 0 0 .6-.3 1.3zm11.6.2c0 .2-.6.5-1.3.8-.8.3-1.4-.1-1.4-.8 0-.7.6-1.1 1.4-.8.7.3 1.3.6 1.3.8zm3.2.8c-.7.8-.9 1.7-.5 2 .3.4.1.7-.5.7-.7 0-1.2-.2-1.2-.5 0-1 2.4-4.4 2.9-4 .2.3-.1 1.1-.7 1.8zm12 0c-.7.8-.9 1.7-.5 2 .3.4.1.7-.5.7-.7 0-1.2-.2-1.2-.5 0-1 2.4-4.4 2.9-4 .2.3-.1 1.1-.7 1.8zm7.8-.2c0 .5-.4.9-.8.9-.5 0-.9-.7-.9-1.5s.4-1.2.9-.9c.4.3.8.9.8 1.5zm55.2-.9c-1.4 1.4-4.4 2-3.6.7.3-.5.9-.7 1.4-.4.5.3 1.1.1 1.5-.5.3-.5.9-1 1.3-1 .3 0 .1.5-.6 1.2zm9 1.1c-.7.8-.9 1.7-.5 2 .3.4.1.7-.5.7-.7 0-1.2-.2-1.2-.5 0-1 2.4-4.4 2.9-4 .2.3-.1 1.1-.7 1.8zm9.3-1.3c-.3.5-1.2 1-1.8 1-.7 0-.6-.4.3-1 1.9-1.2 2.3-1.2 1.5 0zm3 .9c-.3.6-1.1 1.1-1.6 1.1s-.4-.6.3-1.4c1.4-1.6 2.4-1.3 1.3.3zm11.7.4c-.7.8-.9 1.7-.5 2 .3.4.1.7-.5.7-.7 0-1.2-.2-1.2-.5 0-1 2.4-4.4 2.9-4 .2.3-.1 1.1-.7 1.8zm7.8-.2c0 .5-.4.9-.8.9-.5 0-.9-.7-.9-1.5s.4-1.2.9-.9c.4.3.8.9.8 1.5zm52.2-1.4c-.6.2-.9 1-.6 1.5.4.7.2.8-.5.4-1.3-.9-.5-2.6 1.2-2.5.9 0 .8.2-.1.6zm3.9 1c1.3 1.6 1.2 1.7-.3.4-1.7-1.3-2.2-2.1-1.4-2.1.2 0 1 .8 1.7 1.7zm20.1.6c-.7.8-.9 1.7-.5 2 .3.4.1.7-.5.7-.7 0-1.2-.2-1.2-.5 0-1 2.4-4.4 2.9-4 .2.3-.1 1.1-.7 1.8zm12 0c-.7.8-.9 1.7-.5 2 .3.4.1.7-.5.7-.7 0-1.2-.2-1.2-.5 0-1 2.4-4.4 2.9-4 .2.3-.1 1.1-.7 1.8zm7.8-.2c0 .5-.4.9-.8.9-.5 0-.9-.7-.9-1.5s.4-1.2.9-.9c.4.3.8.9.8 1.5zm-266.5-.2c-.9.8-3.6 1-3 .2.2-.4 1.1-.8 2-.8.8 0 1.3.3 1 .6zm26.5.5c-.7.7-1.3.7-2 0-.6-.6-.3-1 1-1s1.6.4 1 1zm8.4-.6c.2.4-.4.8-1.4.8-1 0-1.6-.4-1.4-.8.3-.4.9-.8 1.4-.8.5 0 1.1.4 1.4.8zm8.6-.4c0 .2-.8 1-1.7 1.7-1.6 1.3-1.7 1.2-.4-.4 1.3-1.6 2.1-2.1 2.1-1.3zm37 .4c0 .5-.7.9-1.5.9s-1.2-.4-.9-.9c.3-.4.9-.8 1.5-.8.5 0 .9.4.9.8zm5.4.8c.3.8.2 1.2-.4.9-.6-.3-1-1-1-1.6 0-1.4.7-1.1 1.4.7zm8.6.9c0 .2-.7.1-1.7-.2-1.2-.5-1.4-.3-.8.8.5.8.4 1.1 0 .6-.5-.4-1-1.4-1.1-2.2-.2-1.2.2-1.2 1.7-.5 1 .6 1.9 1.3 1.9 1.5zm20.1-1.2c-.6.8-.8 1.7-.4 2 .3.4.1.7-.5.7-1.5 0-1.5-1.3 0-2.8 1.6-1.6 2.3-1.5.9.1zm8.9-.3c-.8.5-1.9 1-2.5 1-.5 0-.3-.5.5-1s2-1 2.5-1c.6 0 .3.5-.5 1zm53-.2c0 .5-.7.9-1.5.9s-1.2-.4-.9-.9c.3-.4.9-.8 1.5-.8.5 0 .9.4.9.8zm5.4.8c.3.8.2 1.2-.4.9-.6-.3-1-1-1-1.6 0-1.4.7-1.1 1.4.7zm8.6.9c0 .2-.7.1-1.7-.2-1.2-.5-1.4-.3-.8.8.5.8.4 1.1 0 .6-.5-.4-1-1.4-1.1-2.2-.2-1.2.2-1.2 1.7-.5 1 .6 1.9 1.3 1.9 1.5zm20.1-1.2c-.6.8-.8 1.7-.4 2 .3.4.1.7-.5.7-1.5 0-1.5-1.3 0-2.8 1.6-1.6 2.3-1.5.9.1zm7.4.5c-.3.3-1.1 0-1.8-.7-.9-1-.8-1.1.6-.5 1 .3 1.5.9 1.2 1.2zm15.6.5c-1 .9-1.1.8-.5-.6.3-1 .9-1.5 1.2-1.2.3.3 0 1.1-.7 1.8zm38.9-1.5c0 .5-.7.9-1.5.9s-1.2-.4-.9-.9c.3-.4.9-.8 1.5-.8.5 0 .9.4.9.8zm10-.4c0 .3-.4.8-1 1.1-.5.3-1 .1-1-.4 0-.6.5-1.1 1-1.1.6 0 1 .2 1 .4zm-296.6 3.2c.3.8.2 1.2-.4.9-.6-.3-1-1-1-1.6 0-1.4.7-1.1 1.4.7zm16 0c.3.8.2 1.2-.4.9-.6-.3-1-1-1-1.6 0-1.4.7-1.1 1.4.7zm16 0c.3.8.2 1.2-.4.9-.6-.3-1-1-1-1.6 0-1.4.7-1.1 1.4.7zm4.8.2c-.4 1.1-.1 1.3.9.7.8-.5 1.1-.4.6 0-1.2 1.3-3.6 1.5-4.4.3-.4-.7-.1-.8.7-.3.9.6 1.2.4.8-.7-.4-.8-.1-1.5.7-1.5.8 0 1.1.7.7 1.5zm6.1 1.3c-.8.8-1.3.7-1.8-.2-.6-.8-.4-1 .5-.4 1 .6 1.2.4.6-1.1s-.5-1.7.5-.7c.9 1 1 1.6.2 2.4zm15.1-1.9c-.5.8-.1.9 1.2.4 1.4-.5 1.6-.4.7.5-1.3 1.3-3.7.3-2.8-1.2.4-.5.8-.9 1.1-.9.3 0 .2.5-.2 1.2zm26.9.5c-.5 1.2-.3 1.4.8.8.8-.5 1.1-.5.6.1-.5.5-1.2.9-1.5.8-.4-.1-1.3.6-2 1.5-1.1 1.4-1.1 1.4-.5-.3.5-1.4.3-1.7-.7-1.1-.9.5-1.1.4-.6-.4.4-.6 1.1-.9 1.6-.6.4.3 1-.2 1.4-1 .3-.8.8-1.5 1-1.5.3 0 .2.7-.1 1.7zm6 1.4c-.8.8-1.3.7-1.8-.2-.6-.8-.4-1 .5-.4 1 .6 1.2.4.6-1.1s-.5-1.7.5-.7c.9 1 1 1.6.2 2.4zm42-1.4c-.5 1.2-.3 1.4.8.8.8-.5 1.1-.5.6.1-.5.5-1.2.9-1.5.8-.4-.1-1.3.6-2 1.5-1.1 1.4-1.1 1.4-.5-.3.5-1.4.3-1.7-.7-1.1-.9.5-1.1.4-.6-.4.4-.6 1.1-.9 1.6-.6.4.3 1-.2 1.4-1 .3-.8.8-1.5 1-1.5.3 0 .2.7-.1 1.7zm6 1.4c-.8.8-1.3.7-1.8-.2-.6-.8-.4-1 .5-.4 1 .6 1.2.4.6-1.1s-.5-1.7.5-.7c.9 1 1 1.6.2 2.4zm42-1.4c-.5 1.2-.3 1.4.8.8.8-.5 1.1-.5.6.1-.5.5-1.2.9-1.5.8-.4-.1-1.3.6-2 1.5-1.1 1.4-1.1 1.4-.5-.3.5-1.4.3-1.7-.7-1.1-.9.5-1.1.4-.6-.4.4-.6 1.1-.9 1.6-.6.4.3 1-.2 1.4-1 .3-.8.8-1.5 1-1.5.3 0 .2.7-.1 1.7zm6 1.4c-.8.8-1.3.7-1.8-.2-.6-.8-.4-1 .5-.4 1 .6 1.2.4.6-1.1s-.5-1.7.5-.7c.9 1 1 1.6.2 2.4zm42-1.4c-.5 1.2-.3 1.4.8.8.8-.5 1.1-.5.6.1-.5.5-1.2.9-1.5.8-.4-.1-1.3.6-2 1.5-1.1 1.4-1.1 1.4-.5-.3.5-1.4.3-1.7-.7-1.1-.9.5-1.1.4-.6-.4.4-.6 1.1-.9 1.6-.6.4.3 1-.2 1.4-1 .3-.8.8-1.5 1-1.5.3 0 .2.7-.1 1.7zm6 1.4c-.8.8-1.3.7-1.8-.2-.6-.8-.4-1 .5-.4 1 .6 1.2.4.6-1.1s-.5-1.7.5-.7c.9 1 1 1.6.2 2.4zm42-1.4c-.5 1.2-.3 1.4.8.8.8-.5 1.1-.5.6.1-.5.5-1.2.9-1.5.8-.4-.1-1.3.6-2 1.5-1.1 1.4-1.1 1.4-.5-.3.5-1.4.3-1.7-.7-1.1-.9.5-1.1.4-.6-.4.4-.6 1.1-.9 1.6-.6.4.3 1-.2 1.4-1 .3-.8.8-1.5 1-1.5.3 0 .2.7-.1 1.7zm6 1.4c-.8.8-1.3.7-1.8-.2-.6-.8-.4-1 .5-.4 1 .6 1.2.4.6-1.1s-.5-1.7.5-.7c.9 1 1 1.6.2 2.4zm-293-.8c.4-.3.7-.1.7.5s-.8 1-1.8.9c-1 0-1.9-.7-1.9-1.4 0-.9.4-1 1.2-.3.7.5 1.5.7 1.8.3zm7.5-.1c-.2.6-1.2 1.2-2.1 1.4-.9.1-1.5-.2-1.1-.7.3-.5 1-.7 1.5-.4.5.4.9.1.9-.4 0-.6.3-1.1.6-1.1s.4.5.2 1.2zm12.2 1c0 .6-.6.5-1.5-.2-.8-.7-1.5-1.4-1.5-1.6 0-.2.7-.1 1.5.2.8.4 1.5 1.1 1.5 1.6zm3.2.1c-.7.8-1 1.6-.7 1.9.3.3-.2 1.1-1.2 1.9-1.5 1.2-1.6 1.2-.8-.1.6-.8 1-1.7 1.1-2 .3-1.7 1.7-4 2.2-3.6.3.3 0 1.2-.6 1.9zm16 0c-.7.8-.9 1.7-.5 2 .3.4.1.7-.5.7-.7 0-1.2-.2-1.2-.5 0-1 2.4-4.4 2.9-4 .2.3-.1 1.1-.7 1.8zm20.2-.7c.5 1.4.4 1.5-.9.4-1.7-1.4-1.9-2-.6-2 .5 0 1.2.7 1.5 1.6zm48 0c.5 1.4.4 1.5-.9.4-1.7-1.4-1.9-2-.6-2 .5 0 1.2.7 1.5 1.6zm19.2 3.1c.1.7-.2 1.5-.6 1.8-.5.3-.7-.3-.5-1.5.2-1.1 0-2.2-.6-2.5-.5-.4-.9-1.2-.9-1.8.1-1.4 2.3 2.2 2.6 4zm28.8-3.1c.5 1.4.4 1.5-.9.4-1.7-1.4-1.9-2-.6-2 .5 0 1.2.7 1.5 1.6zm48 0c.5 1.4.4 1.5-.9.4-1.7-1.4-1.9-2-.6-2 .5 0 1.2.7 1.5 1.6zm19.2 3.1c.1.7-.2 1.5-.6 1.8-.5.3-.7-.3-.5-1.5.2-1.1 0-2.2-.6-2.5-.5-.4-.9-1.2-.9-1.8.1-1.4 2.3 2.2 2.6 4zm28.8-3.1c.5 1.4.4 1.5-.9.4-1.7-1.4-1.9-2-.6-2 .5 0 1.2.7 1.5 1.6zm12.1.4c.3.5-.4.6-1.5.3s-2.2-.9-2.5-1.3c-.3-.5.4-.6 1.5-.3s2.2.9 2.5 1.3zm35.9-.4c.5 1.4.4 1.5-.9.4-1.7-1.4-1.9-2-.6-2 .5 0 1.2.7 1.5 1.6zm11.7.1c1.3 1.6 1.2 1.7-.3.4-1.7-1.3-2.2-2.1-1.4-2.1.2 0 1 .8 1.7 1.7zm-295.7 2.2c-.2.3-1.2-.3-2.2-1.3-1.6-1.7-1.6-1.8.5-.5 1.2.7 2 1.5 1.7 1.8zm14.7-1.2c1.3 1.6 1.2 1.7-.3.4-1-.7-1.8-1.5-1.8-1.7 0-.8.8-.3 2.1 1.3zm51.9-.2c1.1 1.3 1 1.4-.4.9-.9-.3-1.6-1-1.6-1.5 0-1.3.6-1.1 2 .6zm6.6-.3c.5.7.3.8-.6.3-1-.6-1.2-.4-.7.7.4 1.2.1 1.4-1.4 1.1-1.8-.5-1.9-.6-.2-1.9 2.2-1.6 2-1.6 2.9-.2zm41.4.3c1.1 1.3 1 1.4-.4.9-.9-.3-1.6-1-1.6-1.5 0-1.3.6-1.1 2 .6zm6.6-.3c.5.7.3.8-.6.3-1-.6-1.2-.4-.7.7.4 1.2.1 1.4-1.4 1.1-1.8-.5-1.9-.6-.2-1.9 2.2-1.6 2-1.6 2.9-.2zm24 0c.5.7.3.8-.6.3-1-.6-1.2-.4-.7.8.4 1.1.2 1.4-.9 1-1.1-.4-1.2-.9-.3-1.9 1.4-1.7 1.6-1.7 2.5-.2zm7.2 1.4c.1.1-.6.4-1.7.7-1.5.3-1.8.1-1.4-1.1.5-1.1.3-1.3-.7-.7-.9.5-1.1.4-.6-.4.6-.9 1.2-.9 2.4.1 1 .7 1.8 1.3 2 1.4zm4.5-1.1c.4.8.1 1.7-.5 2.1-.7.5-.8.2-.3-.6.6-1 .4-1.2-1-.6-1.5.5-1.6.4-.5-.9 1.5-1.9 1.6-1.9 2.3 0zm5.7 0c1.1 1.3 1 1.4-.4.9-.9-.3-1.6-1-1.6-1.5 0-1.3.6-1.1 2 .6zm6.6-.3c.5.7.3.8-.6.3-1-.6-1.2-.4-.7.7.4 1.2.1 1.4-1.4 1.1-1.8-.5-1.9-.6-.2-1.9 2.2-1.6 2-1.6 2.9-.2zm41.4.3c1.1 1.3 1 1.4-.4.9-.9-.3-1.6-1-1.6-1.5 0-1.3.6-1.1 2 .6zm6.6-.3c.5.7.3.8-.6.3-1-.6-1.2-.4-.7.7.4 1.2.1 1.4-1.4 1.1-1.8-.5-1.9-.6-.2-1.9 2.2-1.6 2-1.6 2.9-.2zm41.4.3c1.1 1.3 1 1.4-.4.9-.9-.3-1.6-1-1.6-1.5 0-1.3.6-1.1 2 .6zm6.6-.3c.5.7.3.8-.6.3-1-.6-1.2-.4-.7.7.4 1.2.1 1.4-1.4 1.1-1.8-.5-1.9-.6-.2-1.9 2.2-1.6 2-1.6 2.9-.2zm27.7.2c.4 1 0 1.2-1.5.8-1.5-.4-1.7-.7-.6-1.3 1.7-1.1 1.5-1.1 2.1.5zm-245.8.6c-.3.5 0 1 .7 1.1 1 0 1 .2 0 .6-.6.2-.9 1-.6 1.5.4.6.2.8-.4.5-.5-.4-.9-1.5-.7-2.5.5-2.3.4-2.2 1.1-2.2.3 0 .2.4-.1 1zm-67.2 1.5c-.3.9-.8 1.4-1 1.1-.3-.3-.2-.9.2-1.5.9-1.6 1.5-1.3.8.4zm16 0c-.3.9-.8 1.4-1 1.1-.3-.3-.2-.9.2-1.5.9-1.6 1.5-1.3.8.4zm16 0c-.3.9-.8 1.4-1 1.1-.3-.3-.2-.9.2-1.5.9-1.6 1.5-1.3.8.4zm16 0c-.3.9-.8 1.4-1 1.1-.3-.3-.2-.9.2-1.5.9-1.6 1.5-1.3.8.4zm7.4.5c-.1 2.1-1 1.8-1.3-.5-.1-.8.2-1.5.6-1.5.5 0 .8.9.7 2zm20.6-.3c-.3.7-.6 1.3-.8 1.3-.2 0-.5-.6-.8-1.3-.3-.8.1-1.4.8-1.4.7 0 1.1.6.8 1.4zm27.4.3c-.1 2.1-1 1.8-1.3-.5-.1-.8.2-1.5.6-1.5.5 0 .8.9.7 2zm24.6.3c.4-.3.7-.4.7 0 0 1.8-2.1 1.4-3-.5-1-2.1-1-2.1.3-.6.8 1 1.7 1.5 2 1.1zm23.4-.3c-.1 2.1-1 1.8-1.3-.5-.1-.8.2-1.5.6-1.5.5 0 .8.9.7 2zm48 0c-.1 2.1-1 1.8-1.3-.5-.1-.8.2-1.5.6-1.5.5 0 .8.9.7 2zm24.6.3c.4-.3.7-.4.7 0 0 1.8-2.1 1.4-3-.5-1-2.1-1-2.1.3-.6.8 1 1.7 1.5 2 1.1zm23.4-.3c-.1 2.1-1 1.8-1.3-.5-.1-.8.2-1.5.6-1.5.5 0 .8.9.7 2zm11.9.6c.1.9 0 1.3-.4 1-.3-.4-.7-1.4-.8-2.2-.1-.9 0-1.3.4-1 .3.4.7 1.4.8 2.2zm36.1-.6c-.1 2.1-1 1.8-1.3-.5-.1-.8.2-1.5.6-1.5.5 0 .8.9.7 2zm12.6-.3c-.3.7-.8 1.3-1.2 1.3-.4 0-.8-.6-.8-1.3 0-.8.6-1.4 1.3-1.4.7 0 1 .6.7 1.4zm-314.6.7c0 .8-.6 1.2-1.5.9-1.1-.5-1.1-.7 0-1.4.7-.5 1.3-.9 1.4-.9 0 0 .1.6.1 1.4zm16 .8c-.3.8-.6.5-.6-.6-.1-1.1.2-1.7.5-1.3.3.3.4 1.2.1 1.9zm52 0c-.3.8-.6.5-.6-.6-.1-1.1.2-1.7.5-1.3.3.3.4 1.2.1 1.9zm3 0c-.3.8-.6.5-.6-.6-.1-1.1.2-1.7.5-1.3.3.3.4 1.2.1 1.9zm7.1.3c-.3.3-.9-.2-1.2-1.2-.6-1.4-.5-1.5.5-.6.7.7 1 1.5.7 1.8zm37.9-.3c-.3.8-.6.5-.6-.6-.1-1.1.2-1.7.5-1.3.3.3.4 1.2.1 1.9zm3 0c-.3.8-.6.5-.6-.6-.1-1.1.2-1.7.5-1.3.3.3.4 1.2.1 1.9zm45 0c-.3.8-.6.5-.6-.6-.1-1.1.2-1.7.5-1.3.3.3.4 1.2.1 1.9zm3 0c-.3.8-.6.5-.6-.6-.1-1.1.2-1.7.5-1.3.3.3.4 1.2.1 1.9zm45 0c-.3.8-.6.5-.6-.6-.1-1.1.2-1.7.5-1.3.3.3.4 1.2.1 1.9zm3 0c-.3.8-.6.5-.6-.6-.1-1.1.2-1.7.5-1.3.3.3.4 1.2.1 1.9zm45 0c-.3.8-.6.5-.6-.6-.1-1.1.2-1.7.5-1.3.3.3.4 1.2.1 1.9zm3 0c-.3.8-.6.5-.6-.6-.1-1.1.2-1.7.5-1.3.3.3.4 1.2.1 1.9zm6.8-1.1c1.1 1.6.1 1.9-1.3.3-.7-.8-.8-1.4-.3-1.4s1.3.5 1.6 1.1zm38.2 1.1c-.3.8-.6.5-.6-.6-.1-1.1.2-1.7.5-1.3.3.3.4 1.2.1 1.9zm3 0c-.3.8-.6.5-.6-.6-.1-1.1.2-1.7.5-1.3.3.3.4 1.2.1 1.9zm12.7-.6c.3.8.2 1.2-.4.9-.6-.3-1-1-1-1.6 0-1.4.7-1.1 1.4.7zm4.4.9c-.3.3-.9-.2-1.2-1.2-.6-1.4-.5-1.5.5-.6.7.7 1 1.5.7 1.8zm-282.8-.9c0 .8-1.9 1.3-2.4.6-.3-.5.1-.9.9-.9s1.5.2 1.5.3zm45 0c0 .8-1.9 1.3-2.4.6-.3-.5.1-.9.9-.9s1.5.2 1.5.3zm12 .4c0 .5-.2 1-.4 1-.3 0-.8-.5-1.1-1-.3-.6-.1-1 .4-1 .6 0 1.1.4 1.1 1zm22-.5c0 .7-3 1.3-3.4.7-.3-.4.4-.9 1.5-.9 1-.1 1.9 0 1.9.2zm26 .5c0 .5-.2 1-.4 1-.3 0-.8-.5-1.1-1-.3-.6-.1-1 .4-1 .6 0 1.1.4 1.1 1zm24 0c0 .5-.2 1-.4 1-.3 0-.8-.5-1.1-1-.3-.6-.1-1 .4-1 .6 0 1.1.4 1.1 1zm12-.6c0 .3-.4.8-1 1.1-.5.3-1 .1-1-.4 0-.6.5-1.1 1-1.1.6 0 1 .2 1 .4zm12 .6c0 .5-.2 1-.4 1-.3 0-.8-.5-1.1-1-.3-.6-.1-1 .4-1 .6 0 1.1.4 1.1 1zm22-.5c0 .7-3 1.3-3.4.7-.3-.4.4-.9 1.5-.9 1-.1 1.9 0 1.9.2zm26 .5c0 .5-.2 1-.4 1-.3 0-.8-.5-1.1-1-.3-.6-.1-1 .4-1 .6 0 1.1.4 1.1 1zm36-.4c0 .8-1.9 1.3-2.4.6-.3-.5.1-.9.9-.9s1.5.2 1.5.3zm12 .4c0 .5-.2 1-.4 1-.3 0-.8-.5-1.1-1-.3-.6-.1-1 .4-1 .6 0 1.1.4 1.1 1zM421.3 387.4c-10.4 3.4-18.6 10.6-23.1 20.5-2.2 4.7-2.7 7-2.7 14.6 0 7.7.4 9.8 2.7 14.7 3.7 8 10.5 14.9 18.1 18.4 5.4 2.5 7.4 2.9 15.2 2.9 7.7 0 9.8-.4 14.7-2.7 7.9-3.7 14.2-9.8 18.1-17.7 2.9-5.9 3.2-7.4 3.2-15.6s-.3-9.7-3.2-15.6c-6.2-12.5-17.2-19.8-31.1-20.5-4.9-.3-9.2.1-11.9 1z"/></svg>