<svg width="90" height="22" viewBox="0 0 90 22" fill="none" xmlns="http://www.w3.org/2000/svg">
<rect x="0.638672" y="0.4375" width="89.2293" height="21.1238" rx="3.4375" fill="#77BBFA"/>
<path d="M16.384 13.8157V8.0771L14.5532 9.90783L13.5675 8.88685L17.0881 5.36621L20.6087 8.88685L19.623 9.90783L17.7922 8.0771V13.8157H16.384ZM12.8633 16.6323C12.4761 16.6323 12.1447 16.4945 11.8691 16.2189C11.5936 15.9434 11.4555 15.6117 11.4551 15.224V13.1116H12.8633V15.224H21.3129V13.1116H22.7211V15.224C22.7211 15.6113 22.5833 15.9429 22.3078 16.2189C22.0323 16.4949 21.7006 16.6327 21.3129 16.6323H12.8633Z" fill="white"/>
<path d="M32.9902 7.60449L30.4414 14.999H28.9004L32.1113 6.46777H33.0957L32.9902 7.60449ZM35.123 14.999L32.5683 7.60449L32.457 6.46777H33.4472L36.6699 14.999H35.123ZM35 11.835V13.001H30.3593V11.835H35ZM41.3515 13.6865V5.99902H42.7695V14.999H41.4863L41.3515 13.6865ZM37.2265 11.8994V11.7764C37.2265 11.2959 37.2832 10.8584 37.3965 10.4639C37.5097 10.0654 37.6738 9.72363 37.8886 9.43848C38.1035 9.14941 38.3652 8.92871 38.6738 8.77637C38.9824 8.62012 39.33 8.54199 39.7168 8.54199C40.0996 8.54199 40.4355 8.61621 40.7246 8.76465C41.0136 8.91309 41.2597 9.12598 41.4629 9.40332C41.666 9.67676 41.8281 10.0049 41.9492 10.3877C42.0703 10.7666 42.1562 11.1885 42.207 11.6533V12.0459C42.1562 12.499 42.0703 12.9131 41.9492 13.2881C41.8281 13.6631 41.666 13.9873 41.4629 14.2607C41.2597 14.5342 41.0117 14.7451 40.7187 14.8936C40.4297 15.042 40.0918 15.1162 39.705 15.1162C39.3222 15.1162 38.9765 15.0361 38.6679 14.876C38.3632 14.7158 38.1035 14.4912 37.8886 14.2021C37.6738 13.9131 37.5097 13.5732 37.3965 13.1826C37.2832 12.7881 37.2265 12.3604 37.2265 11.8994ZM38.6386 11.7764V11.8994C38.6386 12.1885 38.664 12.458 38.7148 12.708C38.7695 12.958 38.8535 13.1787 38.9668 13.3701C39.08 13.5576 39.2265 13.7061 39.4062 13.8154C39.5898 13.9209 39.8086 13.9736 40.0625 13.9736C40.3828 13.9736 40.6465 13.9033 40.8535 13.7627C41.0605 13.6221 41.2226 13.4326 41.3398 13.1943C41.4609 12.9521 41.5429 12.6826 41.5859 12.3857V11.3252C41.5625 11.0947 41.5136 10.8799 41.4394 10.6807C41.3691 10.4814 41.2734 10.3076 41.1523 10.1592C41.0312 10.0068 40.8808 9.88965 40.7011 9.80762C40.5254 9.72168 40.3164 9.67871 40.0742 9.67871C39.8164 9.67871 39.5976 9.7334 39.4179 9.84277C39.2382 9.95215 39.0898 10.1025 38.9726 10.2939C38.8593 10.4854 38.7754 10.708 38.7207 10.9619C38.666 11.2158 38.6386 11.4873 38.6386 11.7764ZM48.1132 13.6865V5.99902H49.5312V14.999H48.248L48.1132 13.6865ZM43.9882 11.8994V11.7764C43.9882 11.2959 44.0449 10.8584 44.1582 10.4639C44.2715 10.0654 44.4355 9.72363 44.6504 9.43848C44.8652 9.14941 45.1269 8.92871 45.4355 8.77637C45.7441 8.62012 46.0918 8.54199 46.4785 8.54199C46.8613 8.54199 47.1972 8.61621 47.4863 8.76465C47.7754 8.91309 48.0215 9.12598 48.2246 9.40332C48.4277 9.67676 48.5898 10.0049 48.7109 10.3877C48.832 10.7666 48.9179 11.1885 48.9687 11.6533V12.0459C48.9179 12.499 48.832 12.9131 48.7109 13.2881C48.5898 13.6631 48.4277 13.9873 48.2246 14.2607C48.0215 14.5342 47.7734 14.7451 47.4804 14.8936C47.1914 15.042 46.8535 15.1162 46.4668 15.1162C46.084 15.1162 45.7382 15.0361 45.4297 14.876C45.125 14.7158 44.8652 14.4912 44.6504 14.2021C44.4355 13.9131 44.2715 13.5732 44.1582 13.1826C44.0449 12.7881 43.9882 12.3604 43.9882 11.8994ZM45.4004 11.7764V11.8994C45.4004 12.1885 45.4257 12.458 45.4765 12.708C45.5312 12.958 45.6152 13.1787 45.7285 13.3701C45.8418 13.5576 45.9882 13.7061 46.1679 13.8154C46.3515 13.9209 46.5703 13.9736 46.8242 13.9736C47.1445 13.9736 47.4082 13.9033 47.6152 13.7627C47.8222 13.6221 47.9843 13.4326 48.1015 13.1943C48.2226 12.9521 48.3047 12.6826 48.3476 12.3857V11.3252C48.3242 11.0947 48.2754 10.8799 48.2011 10.6807C48.1308 10.4814 48.0351 10.3076 47.914 10.1592C47.7929 10.0068 47.6425 9.88965 47.4629 9.80762C47.2871 9.72168 47.0781 9.67871 46.8359 9.67871C46.5781 9.67871 46.3593 9.7334 46.1797 9.84277C46 9.95215 45.8515 10.1025 45.7343 10.2939C45.6211 10.4854 45.5371 10.708 45.4824 10.9619C45.4277 11.2158 45.4004 11.4873 45.4004 11.7764ZM55.6074 6.46777V14.999H54.1367V6.46777H55.6074ZM59.0879 10.2002V11.3662H55.2324V10.2002H59.0879ZM59.5742 6.46777V7.63965H55.2324V6.46777H59.5742ZM62.1172 8.65918V14.999H60.6992V8.65918H62.1172ZM60.6054 6.99512C60.6054 6.78027 60.6757 6.60254 60.8164 6.46191C60.9609 6.31738 61.1601 6.24512 61.414 6.24512C61.664 6.24512 61.8613 6.31738 62.0058 6.46191C62.1504 6.60254 62.2226 6.78027 62.2226 6.99512C62.2226 7.20605 62.1504 7.38184 62.0058 7.52246C61.8613 7.66309 61.664 7.7334 61.414 7.7334C61.1601 7.7334 60.9609 7.66309 60.8164 7.52246C60.6757 7.38184 60.6054 7.20605 60.6054 6.99512ZM65.1757 5.99902V14.999H63.7578V5.99902H65.1757ZM69.5175 15.1162C69.0488 15.1162 68.625 15.04 68.2461 14.8877C67.8711 14.7314 67.5507 14.5146 67.2851 14.2373C67.0234 13.96 66.8222 13.6338 66.6816 13.2588C66.541 12.8838 66.4707 12.4795 66.4707 12.0459V11.8115C66.4707 11.3154 66.5429 10.8662 66.6875 10.4639C66.832 10.0615 67.0332 9.71777 67.291 9.43262C67.5488 9.14355 67.8535 8.92285 68.205 8.77051C68.5566 8.61816 68.9375 8.54199 69.3476 8.54199C69.8007 8.54199 70.1972 8.61816 70.5371 8.77051C70.8769 8.92285 71.1582 9.1377 71.3808 9.41504C71.6074 9.68848 71.7754 10.0146 71.8847 10.3936C71.998 10.7725 72.0547 11.1904 72.0547 11.6475V12.251H67.1562V11.2373H70.6601V11.126C70.6523 10.8721 70.6015 10.6338 70.5078 10.4111C70.4179 10.1885 70.2793 10.0088 70.0918 9.87207C69.9043 9.73535 69.6543 9.66699 69.3418 9.66699C69.1074 9.66699 68.8984 9.71777 68.7148 9.81934C68.5351 9.91699 68.3847 10.0596 68.2636 10.2471C68.1425 10.4346 68.0488 10.6611 67.9824 10.9268C67.9199 11.1885 67.8886 11.4834 67.8886 11.8115V12.0459C67.8886 12.3232 67.9257 12.5811 68 12.8193C68.0781 13.0537 68.1914 13.2588 68.3398 13.4346C68.4882 13.6104 68.6679 13.749 68.8789 13.8506C69.0898 13.9482 69.33 13.9971 69.5996 13.9971C69.9394 13.9971 70.2422 13.9287 70.5078 13.792C70.7734 13.6553 71.0039 13.4619 71.1992 13.2119L71.9433 13.9326C71.8066 14.1318 71.6289 14.3232 71.4101 14.5068C71.1914 14.6865 70.9238 14.833 70.6074 14.9463C70.2949 15.0596 69.9316 15.1162 69.5175 15.1162ZM76.7129 13.2822C76.7129 13.1416 76.6777 13.0146 76.6074 12.9014C76.5371 12.7842 76.4023 12.6787 76.2031 12.585C76.0078 12.4912 75.7187 12.4053 75.3359 12.3271C75 12.2529 74.6914 12.165 74.4101 12.0635C74.1328 11.958 73.8945 11.8311 73.6953 11.6826C73.4961 11.5342 73.3418 11.3584 73.2324 11.1553C73.123 10.9521 73.0683 10.7178 73.0683 10.4521C73.0683 10.1943 73.125 9.9502 73.2382 9.71973C73.3515 9.48926 73.5136 9.28613 73.7246 9.11035C73.9355 8.93457 74.1914 8.7959 74.4922 8.69434C74.7968 8.59277 75.1367 8.54199 75.5117 8.54199C76.0429 8.54199 76.498 8.63184 76.8769 8.81152C77.2597 8.9873 77.5527 9.22754 77.7558 9.53223C77.959 9.83301 78.0605 10.1729 78.0605 10.5518H76.6484C76.6484 10.3838 76.6054 10.2275 76.5195 10.083C76.4375 9.93457 76.3125 9.81543 76.1445 9.72559C75.9765 9.63184 75.7656 9.58496 75.5117 9.58496C75.2695 9.58496 75.0683 9.62402 74.9082 9.70215C74.7519 9.77637 74.6347 9.87402 74.5566 9.99512C74.4824 10.1162 74.4453 10.249 74.4453 10.3936C74.4453 10.499 74.4648 10.5947 74.5039 10.6807C74.5468 10.7627 74.6172 10.8389 74.7148 10.9092C74.8125 10.9756 74.9453 11.0381 75.1132 11.0967C75.2851 11.1553 75.5 11.2119 75.7578 11.2666C76.2422 11.3682 76.6582 11.499 77.0058 11.6592C77.3574 11.8154 77.6269 12.0186 77.8144 12.2686C78.0019 12.5146 78.0957 12.8271 78.0957 13.2061C78.0957 13.4873 78.0351 13.7451 77.914 13.9795C77.7968 14.21 77.625 14.4111 77.3984 14.583C77.1718 14.751 76.9004 14.8818 76.584 14.9756C76.2715 15.0693 75.9199 15.1162 75.5293 15.1162C74.955 15.1162 74.4687 15.0146 74.0703 14.8115C73.6718 14.6045 73.3691 14.3408 73.1621 14.0205C72.959 13.6963 72.8574 13.3604 72.8574 13.0127H74.2226C74.2382 13.2744 74.3105 13.4834 74.4394 13.6396C74.5722 13.792 74.7363 13.9033 74.9316 13.9736C75.1308 14.04 75.3359 14.0732 75.5468 14.0732C75.8007 14.0732 76.0136 14.04 76.1855 13.9736C76.3574 13.9033 76.4882 13.8096 76.5781 13.6924C76.6679 13.5713 76.7129 13.4346 76.7129 13.2822Z" fill="white"/>
</svg>
