<svg width="40" height="28" viewBox="0 0 40 28" fill="none" xmlns="http://www.w3.org/2000/svg">
<rect width="40" height="28" rx="4" fill="#5599DB"/>
<path d="M28 11.7812V7.03125C28 6.75 27.7812 6 27 6C26.75 6 26.5312 6.09375 26.375 6.25L23.6875 8.375C22.375 9.4375 20.6875 10 19 10H13C11.875 10 11 10.9062 11 12V15C11 16.125 11.875 17 13 17L12.9688 18C12.9688 19.25 13.25 20.4375 13.7812 21.4688C13.9375 21.8125 14.2812 22 14.6562 22H17.9688C18.7812 22 19.2812 21.0938 18.7812 20.4375C18.2812 19.75 17.9688 18.9375 17.9688 18C17.9688 17.6562 18.0312 17.3438 18.0938 17H19C20.6875 17 22.375 17.5938 23.6875 18.6562L26.375 20.7812C26.5 20.9062 26.7812 21 26.9688 21C27.75 21 27.9688 20.3125 27.9688 20V15.25C28.5938 14.9062 28.9688 14.25 28.9688 13.5312C29 12.7812 28.5938 12.125 28 11.7812ZM14.9688 20.5C14.625 19.7188 14.4688 18.875 14.4688 18C14.4688 17.5625 14.5312 17.2188 14.5625 17H16.5938C16.5 17.3438 16.4688 17.6875 16.4688 18C16.4688 18.9062 16.6875 19.75 17.0625 20.5H14.9688ZM18.5 15.5H13C12.7188 15.5 12.5 15.2812 12.5 15V12C12.5 11.75 12.7188 11.5 13 11.5H18.5V15.5ZM26.5 18.9688L24.625 17.5C23.3125 16.4375 21.6875 15.7812 20 15.5938V11.4375C21.6875 11.25 23.3125 10.5938 24.625 9.53125L26.5 8.0625V18.9688Z" fill="white"/>
</svg>
