<svg width="111" height="79" viewBox="0 0 111 79" fill="none" xmlns="http://www.w3.org/2000/svg">
<rect x="37.7801" width="73.2199" height="42.5148" rx="15.5582" fill="#357ABD"/>
<path d="M108.301 49.0801C100.429 49.0801 99.1094 44.2533 99.4333 41.8399H93.1168C93.1168 49.0112 103.802 50.5872 108.301 49.0801Z" fill="#357ABD"/>
<rect y="17.3855" width="90.3188" height="52.4432" rx="15.5582" fill="#5599DB"/>
<path d="M86.9891 77.9273C77.2796 77.9273 75.6514 71.9733 76.0509 68.9963H68.2594C68.2594 77.8422 81.4395 79.7864 86.9891 77.9273Z" fill="#5599DB"/>
<path d="M52.914 37.3415C52.914 37.3415 53.0225 34.8549 55.4412 32.8612C56.8774 31.6775 58.6021 31.3346 60.1475 31.3135C61.5588 31.2962 62.8202 31.5351 63.5744 31.9028C64.8636 32.5342 67.381 34.0713 67.381 37.3415C67.381 40.7826 65.1824 42.3424 62.683 44.0611C60.1837 45.7798 59.5447 47.4654 59.5447 49.3973" stroke="#D6EAFE" stroke-width="3.31361" stroke-miterlimit="10" stroke-linecap="round"/>
<path d="M59.5448 57.5343C60.8764 57.5343 61.9559 56.4547 61.9559 55.1231C61.9559 53.7914 60.8764 52.7119 59.5448 52.7119C58.2131 52.7119 57.1336 53.7914 57.1336 55.1231C57.1336 56.4547 58.2131 57.5343 59.5448 57.5343Z" fill="#D6EAFE"/>
<path d="M42.3959 57.5343C43.7275 57.5343 44.807 56.4547 44.807 55.1231C44.807 53.7914 43.7275 52.7119 42.3959 52.7119C41.0642 52.7119 39.9847 53.7914 39.9847 55.1231C39.9847 56.4547 41.0642 57.5343 42.3959 57.5343Z" fill="#D6EAFE"/>
<path d="M33.6554 57.5343C34.987 57.5343 36.0665 56.4547 36.0665 55.1231C36.0665 53.7914 34.987 52.7119 33.6554 52.7119C32.3237 52.7119 31.2442 53.7914 31.2442 55.1231C31.2442 56.4547 32.3237 57.5343 33.6554 57.5343Z" fill="#D6EAFE"/>
<path d="M24.9148 57.5343C26.2465 57.5343 27.326 56.4547 27.326 55.1231C27.326 53.7914 26.2465 52.7119 24.9148 52.7119C23.5832 52.7119 22.5037 53.7914 22.5037 55.1231C22.5037 56.4547 23.5832 57.5343 24.9148 57.5343Z" fill="#D6EAFE"/>
<path d="M52.4432 36.7332C52.4432 36.7332 52.5517 34.2467 54.9704 32.253C56.4065 31.0693 58.1313 30.7264 59.6767 30.7053C61.088 30.688 62.3493 30.9268 63.1036 31.2946C64.3928 31.926 66.9102 33.4631 66.9102 36.7332C66.9102 40.1744 64.7115 41.7342 62.2122 43.4529C59.7128 45.1716 59.0739 46.8571 59.0739 48.7891" stroke="white" stroke-width="3.31361" stroke-miterlimit="10" stroke-linecap="round"/>
<path d="M59.0739 56.926C60.4055 56.926 61.4851 55.8465 61.4851 54.5149C61.4851 53.1832 60.4055 52.1037 59.0739 52.1037C57.7422 52.1037 56.6627 53.1832 56.6627 54.5149C56.6627 55.8465 57.7422 56.926 59.0739 56.926Z" fill="white"/>
<path d="M41.9517 56.926C43.2833 56.926 44.3628 55.8465 44.3628 54.5149C44.3628 53.1832 43.2833 52.1037 41.9517 52.1037C40.62 52.1037 39.5405 53.1832 39.5405 54.5149C39.5405 55.8465 40.62 56.926 41.9517 56.926Z" fill="white"/>
<path d="M33.2111 56.926C34.5428 56.926 35.6223 55.8465 35.6223 54.5149C35.6223 53.1832 34.5428 52.1037 33.2111 52.1037C31.8795 52.1037 30.8 53.1832 30.8 54.5149C30.8 55.8465 31.8795 56.926 33.2111 56.926Z" fill="white"/>
<path d="M24.4706 56.926C25.8023 56.926 26.8818 55.8465 26.8818 54.5149C26.8818 53.1832 25.8023 52.1037 24.4706 52.1037C23.139 52.1037 22.0594 53.1832 22.0594 54.5149C22.0594 55.8465 23.139 56.926 24.4706 56.926Z" fill="white"/>
</svg>
