<svg width="17" height="14" viewBox="0 0 17 14" fill="none" xmlns="http://www.w3.org/2000/svg">
<path d="M8.29691 0C3.85941 0 0.296915 2.9375 0.296915 6.5C0.296915 8.0625 0.953165 9.46875 2.07816 10.5938C1.67191 12.1875 0.359415 13.5625 0.359415 13.5938C0.296915 13.6562 0.265665 13.7812 0.296915 13.875C0.359415 13.9688 0.421915 14 0.546915 14C2.60941 14 4.17191 13.0312 4.92191 12.4062C5.95316 12.7812 7.07816 13 8.29691 13C12.7032 13 16.2969 10.0938 16.2969 6.5C16.2969 2.9375 12.7032 0 8.29691 0ZM4.29691 8.5H3.92191C3.76566 8.5 3.67191 8.40625 3.67191 8.25V7.75C3.67191 7.625 3.76566 7.5 3.92191 7.5H4.29691C4.48441 7.5 4.60941 7.40625 4.60941 7.3125C4.60941 7.28125 4.57816 7.21875 4.54691 7.1875L3.85941 6.59375C3.60941 6.375 3.45316 6.0625 3.45316 5.71875C3.45316 5.0625 4.04691 4.53125 4.76566 4.53125H5.17191C5.29691 4.53125 5.42191 4.625 5.42191 4.78125V5.28125C5.42191 5.40625 5.29691 5.53125 5.17191 5.53125H4.76566C4.57816 5.53125 4.45316 5.625 4.45316 5.71875C4.45316 5.75 4.48441 5.8125 4.51566 5.84375L5.20316 6.4375C5.45316 6.65625 5.60941 6.96875 5.60941 7.3125C5.60941 7.96875 5.01566 8.5 4.29691 8.5ZM10.2969 8.25C10.2969 8.40625 10.1719 8.5 10.0469 8.5H9.54691C9.39066 8.5 9.29691 8.40625 9.29691 8.25V6.125L8.51566 7.875C8.42191 8.0625 8.14066 8.0625 8.04691 7.875L7.29691 6.125V8.25C7.29691 8.40625 7.17191 8.5 7.04691 8.5H6.54691C6.39066 8.5 6.29691 8.40625 6.29691 8.25V5C6.29691 4.75 6.51566 4.5 6.79691 4.5H7.29691C7.48441 4.5 7.64066 4.625 7.73441 4.78125L8.29691 5.90625L8.82816 4.78125C8.92191 4.625 9.10941 4.5 9.29691 4.5H9.79691C10.0469 4.5 10.2969 4.75 10.2969 5V8.25ZM11.7969 8.5H11.4219C11.2657 8.5 11.1719 8.40625 11.1719 8.25V7.75C11.1719 7.625 11.2657 7.5 11.4219 7.5H11.7969C11.9844 7.5 12.1094 7.40625 12.1094 7.3125C12.1094 7.28125 12.0782 7.21875 12.0469 7.1875L11.3594 6.59375C11.1094 6.375 10.9532 6.0625 10.9532 5.71875C10.9532 5.0625 11.5469 4.53125 12.2657 4.53125H12.6719C12.7969 4.53125 12.9219 4.625 12.9219 4.78125V5.28125C12.9219 5.40625 12.7969 5.53125 12.6719 5.53125H12.2657C12.0782 5.53125 11.9532 5.625 11.9532 5.71875C11.9532 5.75 11.9844 5.8125 12.0157 5.84375L12.7032 6.4375C12.9532 6.65625 13.1094 6.96875 13.1094 7.3125C13.1094 7.96875 12.5157 8.5 11.7969 8.5Z" fill="#484848"/>
</svg>
