<svg width="17" height="14" viewBox="0 0 17 14" fill="none" xmlns="http://www.w3.org/2000/svg">
<path d="M14.7969 0H1.79691C0.953165 0 0.296915 0.6875 0.296915 1.5V12.5C0.296915 13.3438 0.953165 14 1.79691 14H14.7969C15.6094 14 16.2969 13.3438 16.2969 12.5V1.5C16.2969 0.6875 15.6094 0 14.7969 0ZM1.29691 1.5C1.29691 1.25 1.51566 1 1.79691 1H3.29691V3H1.29691V1.5ZM15.2969 12.5C15.2969 12.7812 15.0469 13 14.7969 13H1.79691C1.51566 13 1.29691 12.7812 1.29691 12.5V4H15.2969V12.5ZM15.2969 3H4.29691V1H14.7969C15.0469 1 15.2969 1.25 15.2969 1.5V3Z" fill="#484848"/>
</svg>
