<svg width="19" height="19" viewBox="0 0 19 19" fill="none" xmlns="http://www.w3.org/2000/svg">
<path d="M7.79452 11.7812L3.78418 15.7916C4.41323 16.2634 5.12097 16.5779 5.98592 16.5779H7.79448C8.109 16.5779 8.42353 16.4993 8.73809 16.4206V18.5438C8.73809 18.7797 8.89537 18.9369 9.13127 18.9369C9.36717 18.9369 9.52445 18.7797 9.52445 18.5438V16.1847C9.52445 16.1847 9.52445 16.1847 9.52445 16.1061C9.83898 15.9488 10.0749 15.7916 10.3108 15.4771L10.6253 15.1625C10.7826 15.0053 10.7826 14.7694 10.6253 14.6121L7.79452 11.7812Z" fill="black"/>
<path d="M4.80651 8.79284C4.72788 8.71422 4.5706 8.63556 4.49198 8.71422C4.25608 8.71422 4.0988 8.71422 3.70565 8.71422C3.54837 8.71422 3.46975 8.71422 3.39113 8.8715C3.23385 9.10741 3.07661 9.34331 2.91933 9.57921C2.91933 9.57921 2.91933 9.57921 2.8407 9.57921H0.481683C0.245781 9.57921 0.088501 9.73649 0.088501 9.97239C0.088501 10.2083 0.245781 10.3656 0.481683 10.3656H2.6048C2.52618 10.6801 2.44752 10.9946 2.44752 11.3092V13.1177C2.44752 13.9827 2.76205 14.6904 3.23385 15.3195L7.24419 11.3091L4.80651 8.79284Z" fill="black"/>
<path d="M10.0749 6.04055C10.1535 6.11918 10.2322 6.11918 10.3894 6.11918C10.4681 6.11918 10.5467 6.11918 10.6253 6.04055C10.7826 5.96193 10.8612 5.72603 10.7826 5.56875C10.5467 5.09695 10.4681 4.70376 10.3894 4.31062C10.3894 4.15334 10.2321 3.99609 9.99625 3.99609H9.20992C9.05264 3.99609 8.97402 4.07472 8.89539 4.15337C8.81677 4.232 8.81677 4.38928 8.81677 4.4679C8.81677 4.7038 8.97402 4.93967 9.1313 5.09695L10.0749 6.04055Z" fill="black"/>
<path d="M14.793 11.8596H16.2085C16.4444 11.8596 16.6016 11.7023 16.6016 11.4664C16.6016 11.2305 16.4444 11.0732 16.2085 11.0732H14.0067L8.58097 5.64748C8.18779 5.2543 7.95192 4.70387 7.95192 4.15345V2.81666C7.95192 2.58075 7.79464 2.42347 7.55874 2.42347C7.55874 2.42347 7.55874 2.42347 7.48012 2.42347C7.24422 2.03029 7.00831 1.63715 6.69379 1.32259C5.98608 0.536257 4.96382 0.0644531 3.94159 0.0644531C3.0766 0.0644531 2.21161 0.378977 1.50394 0.92944C1.42532 1.00806 1.34666 1.16534 1.34666 1.24396C1.34666 1.40124 1.42529 1.47987 1.50394 1.55849L3.94159 2.9739C3.86297 3.68161 3.46978 4.31069 2.76208 4.70387L0.638957 3.44574C0.481677 3.36712 0.324434 3.36712 0.245775 3.44574C0.0884946 3.52436 0.00987288 3.60302 0.00987288 3.76027C-0.0687489 4.86115 0.324397 5.88339 1.11076 6.66975C1.81847 7.45608 2.91932 7.92788 3.94159 7.92788C4.25611 7.92788 4.49205 7.92788 4.80657 7.7706L11.0973 14.0613L15.3435 18.3076C15.7367 18.7008 16.2872 18.9366 16.8376 18.9366C17.9385 18.9366 18.8821 17.993 18.8821 16.8921C18.8821 16.3417 18.6462 15.7912 18.253 15.3981L14.793 11.8596Z" fill="black"/>
<path d="M14.3999 10.2863C14.4785 10.3649 14.5572 10.3649 14.7144 10.3649H14.8717C15.029 10.2863 15.1076 10.129 15.1076 9.97175V8.94952C15.1076 8.79224 14.9504 8.55634 14.7931 8.55634C14.2427 8.5563 13.8495 8.47768 13.3777 8.24178C13.2204 8.16316 12.9845 8.24178 12.9059 8.39906C12.8273 8.55634 12.8273 8.79224 12.9845 8.87087L14.3999 10.2863Z" fill="black"/>
<path d="M18.882 4.15269C18.2529 3.52365 16.7589 3.99541 15.9725 4.3886L14.793 3.20908C15.1075 2.3441 15.5793 0.850064 15.0289 0.299601C14.8716 0.142321 14.6357 0.142321 14.4784 0.299601C14.3212 0.456881 14.3212 0.692783 14.4784 0.850064C14.6357 1.00734 14.4784 1.95095 14.0853 2.97318L11.569 3.36637C11.4117 3.36637 11.2544 3.52365 11.2544 3.75955C11.0972 5.96133 13.063 7.92716 15.422 7.92716C15.5793 7.92716 15.8152 7.76988 15.8152 7.61264L16.2084 5.09634C17.2306 4.70316 18.1742 4.54588 18.3315 4.70316C18.4888 4.86044 18.7247 4.86044 18.882 4.70316C19.0393 4.54584 19.0393 4.30997 18.882 4.15269Z" fill="black"/>
</svg>