<svg width="63" height="70" viewBox="0 0 63 70" fill="none" xmlns="http://www.w3.org/2000/svg">
<path d="M3.83539 24.7491V59.3473C3.83539 61.1825 4.56442 62.9426 5.8621 64.2402C7.15979 65.5379 8.91982 66.267 10.755 66.267H52.2728C54.1081 66.267 55.8681 65.5379 57.1658 64.2402C58.4635 62.9426 59.1925 61.1825 59.1925 59.3473V24.7491M3.83539 24.7491V17.8295C3.83539 15.9943 4.56442 14.2343 5.8621 12.9366C7.15979 11.6389 8.91982 10.9099 10.755 10.9099H17.6747M3.83539 24.7491H59.1925M59.1925 24.7491V17.8295C59.1925 15.9943 58.4635 14.2343 57.1658 12.9366C55.8681 11.6389 54.1081 10.9099 52.2728 10.9099H45.3532M17.6747 10.9099H45.3532M17.6747 10.9099V3.99023M45.3532 10.9099V3.99023" stroke="black" stroke-width="6.91956" stroke-linecap="round" stroke-linejoin="round"/>
<path d="M30.8864 35.8516V55.9502" stroke="black" stroke-width="5.03241"/>
<path d="M20.8371 45.2354H40.9357" stroke="black" stroke-width="5.03241"/>
</svg>
