<svg width="16" height="17" viewBox="0 0 16 17" fill="none" xmlns="http://www.w3.org/2000/svg">
<g id="Calendar Icon">
<g id="Calendar Icon_2">
<path id="Shape" d="M3.51131 11.3396H4.1142C4.33618 11.3396 4.51613 11.125 4.51613 10.8602C4.51613 10.5955 4.33618 10.3809 4.1142 10.3809H3.51131C3.28933 10.3809 3.10938 10.5955 3.10938 10.8602C3.10938 11.125 3.28933 11.3396 3.51131 11.3396Z" fill="#484848"/>
<path id="Shape_2" d="M3.51131 14.2146H4.1142C4.33618 14.2146 4.51613 14 4.51613 13.7352C4.51613 13.4705 4.33618 13.2559 4.1142 13.2559H3.51131C3.28933 13.2559 3.10938 13.4705 3.10938 13.7352C3.10938 14 3.28933 14.2146 3.51131 14.2146Z" fill="#484848"/>
<path id="Shape_3" d="M6.52693 8.46461H7.12983C7.35181 8.46461 7.53176 8.24999 7.53176 7.98524C7.53176 7.72048 7.35181 7.50586 7.12983 7.50586H6.52693C6.30495 7.50586 6.125 7.72048 6.125 7.98524C6.125 8.24999 6.30495 8.46461 6.52693 8.46461Z" fill="#484848"/>
<path id="Shape_4" d="M6.52693 11.3396H7.12983C7.35181 11.3396 7.53176 11.125 7.53176 10.8602C7.53176 10.5955 7.35181 10.3809 7.12983 10.3809H6.52693C6.30495 10.3809 6.125 10.5955 6.125 10.8602C6.125 11.125 6.30495 11.3396 6.52693 11.3396Z" fill="#484848"/>
<path id="Shape_5" d="M6.52693 14.2146H7.12983C7.35181 14.2146 7.53176 14 7.53176 13.7352C7.53176 13.4705 7.35181 13.2559 7.12983 13.2559H6.52693C6.30495 13.2559 6.125 13.4705 6.125 13.7352C6.125 14 6.30495 14.2146 6.52693 14.2146Z" fill="#484848"/>
<path id="Shape_6" d="M9.54256 8.46461H10.1455C10.3674 8.46461 10.5474 8.24999 10.5474 7.98524C10.5474 7.72048 10.3674 7.50586 10.1455 7.50586H9.54256C9.32058 7.50586 9.14062 7.72048 9.14062 7.98524C9.14062 8.24999 9.32058 8.46461 9.54256 8.46461Z" fill="#484848"/>
<path id="Shape_7" d="M9.54256 11.3396H10.1455C10.3674 11.3396 10.5474 11.125 10.5474 10.8602C10.5474 10.5955 10.3674 10.3809 10.1455 10.3809H9.54256C9.32058 10.3809 9.14062 10.5955 9.14062 10.8602C9.14062 11.125 9.32058 11.3396 9.54256 11.3396Z" fill="#484848"/>
<path id="Shape_8" d="M9.54256 14.2146H10.1455C10.3674 14.2146 10.5474 14 10.5474 13.7352C10.5474 13.4705 10.3674 13.2559 10.1455 13.2559H9.54256C9.32058 13.2559 9.14062 13.4705 9.14062 13.7352C9.14062 14 9.32058 14.2146 9.54256 14.2146Z" fill="#484848"/>
<path id="Shape_9" d="M12.5582 8.46461H13.1611C13.3831 8.46461 13.563 8.24999 13.563 7.98524C13.563 7.72048 13.3831 7.50586 13.1611 7.50586H12.5582C12.3362 7.50586 12.1562 7.72048 12.1562 7.98524C12.1562 8.24999 12.3362 8.46461 12.5582 8.46461Z" fill="#484848"/>
<path id="Shape_10" d="M12.5582 11.3396H13.1611C13.3831 11.3396 13.563 11.125 13.563 10.8602C13.563 10.5955 13.3831 10.3809 13.1611 10.3809H12.5582C12.3362 10.3809 12.1562 10.5955 12.1562 10.8602C12.1562 11.125 12.3362 11.3396 12.5582 11.3396Z" fill="#484848"/>
<path id="Shape_11" fill-rule="evenodd" clip-rule="evenodd" d="M4.45622 0.439453C4.24212 0.439453 4.06856 0.618307 4.06856 0.838934V1.87758H2.71175C1.64125 1.87758 0.773438 2.77185 0.773438 3.87499V14.4612C0.773438 15.5644 1.64125 16.4586 2.71175 16.4586H13.9539C15.0244 16.4586 15.8922 15.5644 15.8922 14.4612V3.87499C15.8922 2.77185 15.0244 1.87758 13.9539 1.87758H12.5971V0.838934C12.5971 0.618307 12.4236 0.439453 12.2095 0.439453C11.9954 0.439453 11.8218 0.618307 11.8218 0.838934V1.87758H4.84388V0.838934C4.84388 0.618307 4.67032 0.439453 4.45622 0.439453ZM14.6968 14.1884C14.6968 14.8067 14.2084 15.3078 13.6058 15.3078H3.05984C2.45732 15.3078 1.96888 14.8067 1.96888 14.1884V6.35228H14.6968V14.1884ZM11.881 3.79898V2.86327H4.8063V3.79898C4.8063 4.0057 4.66378 4.17327 4.46318 4.17327C4.26258 4.17327 4.09997 4.0057 4.09997 3.79898V2.86327H3.01485C2.41306 2.86327 1.92521 3.36599 1.92521 3.98613V5.29613H14.7224V3.98613C14.7224 3.36599 14.2346 2.86327 13.6328 2.86327H12.6074V3.79898C12.6074 4.0057 12.4448 4.17327 12.2442 4.17327C12.0436 4.17327 11.881 4.0057 11.881 3.79898Z" fill="#484848"/>
</g>
</g>
</svg>
