<svg width="26" height="21" viewBox="0 0 26 21" fill="none" xmlns="http://www.w3.org/2000/svg">
<path d="M24.5469 0.5H8.29691C7.59379 0.5 7.04691 1.08594 7.04691 1.75V5.5C4.93754 5.5 3.29691 7.17969 3.29691 9.25C3.29691 11.3594 4.93754 13 7.04691 13C9.11723 13 10.7969 11.3594 10.7969 9.25C10.7969 7.64844 9.74223 6.28125 8.29691 5.73438V1.75H24.5469V15.5H22.0469V13C22.0469 12.3359 21.461 11.75 20.7969 11.75H15.7969C15.0938 11.75 14.5469 12.3359 14.5469 13V15.5H12.711C12.6719 15.5 12.6719 15.4609 12.6329 15.4219C11.9688 14.4062 10.836 13.8984 9.62504 13.8984C8.57035 13.8984 8.29691 14.25 7.04691 14.25C5.79691 14.25 5.52348 13.8984 4.42973 13.8984C3.21879 13.8984 2.08598 14.4062 1.42191 15.4219C1.03129 16.0078 0.796915 16.7109 0.796915 17.4922V18.9375C0.796915 19.8359 1.46098 20.5 2.35941 20.5H11.7344C12.5938 20.5 13.2969 19.8359 13.2969 18.9375V17.4922C13.2969 17.2578 13.2579 17.0234 13.1797 16.75H24.5469C25.211 16.75 25.7969 16.2031 25.7969 15.5V1.75C25.7969 1.08594 25.211 0.5 24.5469 0.5ZM9.54691 9.25C9.54691 10.6562 8.4141 11.75 7.04691 11.75C5.64066 11.75 4.54691 10.6562 4.54691 9.25C4.54691 7.88281 5.64066 6.75 7.04691 6.75C8.4141 6.75 9.54691 7.88281 9.54691 9.25ZM12.0469 18.9375C12.0469 19.1328 11.8907 19.25 11.7344 19.25H2.35941C2.1641 19.25 2.04691 19.1328 2.04691 18.9375V17.4922C2.04691 16.9844 2.1641 16.5156 2.43754 16.0859C2.86723 15.5 3.60941 15.1484 4.42973 15.1484C5.2891 15.1484 5.6016 15.5 7.04691 15.5C8.45316 15.5 8.80473 15.1484 9.62504 15.1484C10.4454 15.1484 11.1875 15.5 11.6172 16.0859C11.8907 16.5156 12.0469 16.9844 12.0469 17.4922V18.9375ZM20.7969 15.5H15.7969V13H20.7969V15.5Z" fill="#484848"/>
</svg>
