<svg width="26" height="21" viewBox="0 0 26 21" fill="none" xmlns="http://www.w3.org/2000/svg">
<path d="M24.25 0.5H8C7.29688 0.5 6.75 1.08594 6.75 1.75V5.5C4.64062 5.5 3 7.17969 3 9.25C3 11.3594 4.64062 13 6.75 13C8.82031 13 10.5 11.3594 10.5 9.25C10.5 7.64844 9.44531 6.28125 8 5.73438V1.75H24.25V15.5H21.75V13C21.75 12.3359 21.1641 11.75 20.5 11.75H15.5C14.7969 11.75 14.25 12.3359 14.25 13V15.5H12.4141C12.375 15.5 12.375 15.4609 12.3359 15.4219C11.6719 14.4062 10.5391 13.8984 9.32812 13.8984C8.27344 13.8984 8 14.25 6.75 14.25C5.5 14.25 5.22656 13.8984 4.13281 13.8984C2.92188 13.8984 1.78906 14.4062 1.125 15.4219C0.734375 16.0078 0.5 16.7109 0.5 17.4922V18.9375C0.5 19.8359 1.16406 20.5 2.0625 20.5H11.4375C12.2969 20.5 13 19.8359 13 18.9375V17.4922C13 17.2578 12.9609 17.0234 12.8828 16.75H24.25C24.9141 16.75 25.5 16.2031 25.5 15.5V1.75C25.5 1.08594 24.9141 0.5 24.25 0.5ZM9.25 9.25C9.25 10.6562 8.11719 11.75 6.75 11.75C5.34375 11.75 4.25 10.6562 4.25 9.25C4.25 7.88281 5.34375 6.75 6.75 6.75C8.11719 6.75 9.25 7.88281 9.25 9.25ZM11.75 18.9375C11.75 19.1328 11.5938 19.25 11.4375 19.25H2.0625C1.86719 19.25 1.75 19.1328 1.75 18.9375V17.4922C1.75 16.9844 1.86719 16.5156 2.14062 16.0859C2.57031 15.5 3.3125 15.1484 4.13281 15.1484C4.99219 15.1484 5.30469 15.5 6.75 15.5C8.15625 15.5 8.50781 15.1484 9.32812 15.1484C10.1484 15.1484 10.8906 15.5 11.3203 16.0859C11.5938 16.5156 11.75 16.9844 11.75 17.4922V18.9375ZM20.5 15.5H15.5V13H20.5V15.5Z" fill="#484848"/>
</svg>
