<svg xmlns="http://www.w3.org/2000/svg" width="6" height="5" viewBox="0 0 8 5" fill="none">
  <path d="M0.161952 0.973215L4.00167 5L7.84138 0.973215C7.94569 0.863461 8.00271 0.716205 7.9999 0.563841C7.99709 0.411477 7.93467 0.266486 7.82638 0.160764C7.71809 0.0550423 7.5728 -0.00274992 7.42247 0.000100613C7.27214 0.00295162 7.12909 0.0662122 7.02478 0.175966L4.00167 3.34807L0.975224 0.175966C0.870914 0.0662122 0.727858 0.00295162 0.577528 0.000100613C0.427197 -0.00274992 0.281906 0.0550423 0.173617 0.160764C0.0653286 0.266486 0.00291252 0.411477 9.9659e-05 0.563841C-0.0027132 0.716205 0.0543075 0.863461 0.158618 0.973215H0.161952Z" fill="black"/>
</svg>