<svg width="16" height="16" viewBox="0 0 16 16" fill="none" xmlns="http://www.w3.org/2000/svg">
<g id="clock-regular 1" clip-path="url(#clip0_426_2201)">
<path id="Vector" d="M14.4748 7.85042C14.4748 9.47938 13.8277 11.0416 12.6759 12.1935C11.524 13.3453 9.9618 13.9924 8.33284 13.9924C6.70387 13.9924 5.14163 13.3453 3.98978 12.1935C2.83793 11.0416 2.19082 9.47938 2.19082 7.85042C2.19082 6.22145 2.83793 4.65921 3.98978 3.50736C5.14163 2.35551 6.70387 1.7084 8.33284 1.7084C9.9618 1.7084 11.524 2.35551 12.6759 3.50736C13.8277 4.65921 14.4748 6.22145 14.4748 7.85042ZM0.773438 7.85042C0.773438 9.85529 1.56987 11.7781 2.98753 13.1957C4.4052 14.6134 6.32796 15.4098 8.33284 15.4098C10.3377 15.4098 12.2605 14.6134 13.6781 13.1957C15.0958 11.7781 15.8922 9.85529 15.8922 7.85042C15.8922 5.84554 15.0958 3.92278 13.6781 2.50511C12.2605 1.08745 10.3377 0.291016 8.33284 0.291016C6.32796 0.291016 4.4052 1.08745 2.98753 2.50511C1.56987 3.92278 0.773438 5.84554 0.773438 7.85042ZM7.62414 3.83448V7.85042C7.62414 8.08665 7.74226 8.30811 7.9401 8.44099L10.7749 10.3308C11.0997 10.5494 11.5397 10.4608 11.7582 10.133C11.9767 9.80523 11.8881 9.3682 11.5603 9.14969L9.04153 7.47245V3.83448C9.04153 3.44175 8.72557 3.12579 8.33284 3.12579C7.9401 3.12579 7.62414 3.44175 7.62414 3.83448Z" fill="#484848"/>
</g>
<defs>
<clipPath id="clip0_426_2201">
<rect width="15.1188" height="15.1188" fill="white" transform="translate(0.773438 0.291016)"/>
</clipPath>
</defs>
</svg>
