<svg width="18" height="18" viewBox="0 0 18 18" fill="none" xmlns="http://www.w3.org/2000/svg">
<path d="M15.3965 0.965625L16.3563 1.92539L9.63789 8.64375L16.3563 15.3621L15.3965 16.3219L8.67813 9.60352L1.95977 16.3219L1 15.3621L7.71836 8.64375L1 1.92539L1.95977 0.965625L8.67813 7.68398L15.3965 0.965625Z" fill="#4A4A4A"/>
<path d="M15.3965 0.965625L15.8791 0.483025L15.3965 0.000423431L14.9139 0.483025L15.3965 0.965625ZM16.3563 1.92539L16.8389 2.40799L17.3215 1.92539L16.8389 1.44279L16.3563 1.92539ZM9.63789 8.64375L9.15529 8.16115L8.67269 8.64375L9.15529 9.12635L9.63789 8.64375ZM16.3563 15.3621L16.8389 15.8447L17.3215 15.3621L16.8389 14.8795L16.3563 15.3621ZM15.3965 16.3219L14.9139 16.8045L15.3965 17.2871L15.8791 16.8045L15.3965 16.3219ZM8.67813 9.60352L9.16073 9.12091L8.67813 8.63832L8.19552 9.12091L8.67813 9.60352ZM1.95977 16.3219L1.47717 16.8045L1.95977 17.2871L2.44237 16.8045L1.95977 16.3219ZM1 15.3621L0.5174 14.8795L0.0347996 15.3621L0.5174 15.8447L1 15.3621ZM7.71836 8.64375L8.20096 9.12635L8.68356 8.64375L8.20096 8.16115L7.71836 8.64375ZM1 1.92539L0.5174 1.44279L0.0347996 1.92539L0.5174 2.40799L1 1.92539ZM1.95977 0.965625L2.44237 0.483025L1.95977 0.000423431L1.47717 0.483025L1.95977 0.965625ZM8.67813 7.68398L8.19552 8.16658L8.67813 8.64919L9.16073 8.16658L8.67813 7.68398ZM14.9139 1.44823L15.8736 2.40799L16.8389 1.44279L15.8791 0.483025L14.9139 1.44823ZM15.8736 1.44279L9.15529 8.16115L10.1205 9.12635L16.8389 2.40799L15.8736 1.44279ZM9.15529 9.12635L15.8736 15.8447L16.8389 14.8795L10.1205 8.16115L9.15529 9.12635ZM15.8736 14.8795L14.9139 15.8393L15.8791 16.8045L16.8389 15.8447L15.8736 14.8795ZM15.8791 15.8393L9.16073 9.12091L8.19552 10.0861L14.9139 16.8045L15.8791 15.8393ZM8.19552 9.12091L1.47717 15.8393L2.44237 16.8045L9.16073 10.0861L8.19552 9.12091ZM2.44237 15.8393L1.4826 14.8795L0.5174 15.8447L1.47717 16.8045L2.44237 15.8393ZM1.4826 15.8447L8.20096 9.12635L7.23576 8.16115L0.5174 14.8795L1.4826 15.8447ZM8.20096 8.16115L1.4826 1.44279L0.5174 2.40799L7.23576 9.12635L8.20096 8.16115ZM1.4826 2.40799L2.44237 1.44823L1.47717 0.483025L0.5174 1.44279L1.4826 2.40799ZM1.47717 1.44823L8.19552 8.16658L9.16073 7.20138L2.44237 0.483025L1.47717 1.44823ZM9.16073 8.16658L15.8791 1.44823L14.9139 0.483025L8.19552 7.20138L9.16073 8.16658Z" fill="#4A4A4A"/>
</svg>
