<svg width="40" height="40" viewBox="0 0 40 40" fill="none" xmlns="http://www.w3.org/2000/svg">
<path d="M9.01081 20.0248L17.5324 27.6333C17.7 27.7822 17.9087 27.8561 18.1173 27.8561C18.3588 27.8561 18.5979 27.7576 18.7726 27.5642L31.9359 12.911C32.0872 12.7434 32.161 12.5347 32.161 12.3249C32.161 11.8338 31.7648 11.4458 31.283 11.4458C31.0416 11.4458 30.8013 11.5443 30.6278 11.7377L18.0493 25.7391L10.183 18.7132C10.0142 18.5643 9.80554 18.4905 9.59689 18.4905C9.1081 18.4905 8.71777 18.8843 8.71777 19.3684C8.71777 19.6099 8.81623 19.8514 9.01081 20.0248Z" fill="#484848"/>
<circle cx="20" cy="20" r="19" stroke="#484848" stroke-width="2"/>
</svg>
