<svg width="30" height="30" viewBox="0 0 30 30" fill="none" xmlns="http://www.w3.org/2000/svg">
<path d="M16.8173 10.375V7.435H13.9473V10.375H16.8173ZM16.8173 22.065V13.315H13.9473V22.065H16.8173ZM15.3823 0.189999C18.0423 0.189999 20.504 0.854999 22.7673 2.185C24.9607 3.445 26.6873 5.17167 27.9473 7.365C29.2773 9.62833 29.9423 12.09 29.9423 14.75C29.9423 17.41 29.2773 19.8717 27.9473 22.135C26.6873 24.3283 24.9607 26.055 22.7673 27.315C20.504 28.645 18.0423 29.31 15.3823 29.31C12.7223 29.31 10.2607 28.645 7.99732 27.315C5.80399 26.0317 4.07732 24.2933 2.81732 22.1C1.48732 19.8367 0.822324 17.3867 0.822324 14.75C0.822324 12.1133 1.48732 9.66333 2.81732 7.4C4.10066 5.20667 5.83899 3.46833 8.03232 2.185C10.2957 0.854999 12.7457 0.189999 15.3823 0.189999Z" fill="#6086E9"/>
</svg>
