<svg width="10" height="14" viewBox="0 0 10 14" fill="none" xmlns="http://www.w3.org/2000/svg">
<g id="file-regular 2">
<path id="Vector" d="M6.66667 11.2153C6.85 11.2153 7 11.0653 7 10.8819V4.88192H5.33333C4.96458 4.88192 4.66667 4.584 4.66667 4.21525V2.54858H1.33333C1.15 2.54858 1 2.69858 1 2.88192V10.8819C1 11.0653 1.15 11.2153 1.33333 11.2153H6.66667ZM0 2.88192C0 2.1465 0.597917 1.54858 1.33333 1.54858H4.78125C5.13542 1.54858 5.475 1.68817 5.725 1.93817L7.61042 3.82358C7.86042 4.07358 8 4.41317 8 4.76733V10.8819C8 11.6173 7.40208 12.2153 6.66667 12.2153H1.33333C0.597917 12.2153 0 11.6173 0 10.8819V2.88192Z" fill="#5599DB"/>
</g>
</svg>
