<svg width="17" height="18" viewBox="0 0 17 18" fill="none" xmlns="http://www.w3.org/2000/svg">
<path d="M9.4467 9.625V3.9369C9.4467 3.60918 9.18103 3.34351 8.85331 3.34351C8.5256 3.34351 8.25992 3.60918 8.25992 3.9369V9.625L6.30595 7.67104C6.07422 7.4393 5.69851 7.4393 5.46678 7.67104C5.23503 7.90277 5.23503 8.27848 5.46678 8.51021L8.85331 11.8968L12.2399 8.51021C12.4716 8.27848 12.4716 7.90277 12.2399 7.67104C12.0081 7.43931 11.6324 7.43931 11.4006 7.67104L9.4467 9.625Z" fill="#5599DB"/>
<path d="M3.88636 11.0576C4.21408 11.0576 4.47975 11.3233 4.47975 11.651V12.6004C4.47975 13.0592 4.85169 13.4312 5.3105 13.4312H11.9565C12.4153 13.4312 12.7872 13.0592 12.7872 12.6004V11.651C12.7872 11.3233 13.0529 11.0576 13.3806 11.0576C13.7083 11.0576 13.974 11.3233 13.974 11.651V12.6004C13.974 13.7147 13.0707 14.618 11.9565 14.618H5.3105C4.19625 14.618 3.29297 13.7147 3.29297 12.6004V11.651C3.29297 11.3233 3.55864 11.0576 3.88636 11.0576Z" fill="#5599DB"/>
</svg>
