<svg version="1.1" id="Layer_1" xmlns="http://www.w3.org/2000/svg" xmlns:xlink="http://www.w3.org/1999/xlink" x="0px" y="0px"
	 width="100%" viewBox="0 0 3200 3200" enable-background="new 0 0 3200 3200" xml:space="preserve">
<path fill="#373737" opacity="1.000000" stroke="none" 
	d="
M1892.000000,3202.000000 
	C1261.333496,3202.000000 631.667053,3202.000000 2.000422,3202.000000 
	C2.000282,2135.333740 2.000282,1068.667725 2.000141,2.001138 
	C1068.665894,2.000759 2135.331787,2.000759 3201.998047,2.000379 
	C3201.998779,1068.665527 3201.998779,2135.331055 3201.999512,3201.998291 
	C2765.666748,3202.000000 2329.333252,3202.000000 1892.000000,3202.000000 
M1585.307007,2673.521484 
	C1584.204834,2673.686523 1583.102661,2673.851562 1580.145874,2673.968750 
	C1547.941528,2671.455078 1515.654053,2669.715332 1483.550049,2666.267822 
	C1415.110474,2658.917236 1348.169189,2644.050293 1282.626831,2623.119141 
	C1096.618652,2563.717041 937.513062,2461.922119 805.297302,2318.371338 
	C691.677124,2195.010254 610.792175,2052.772461 562.182861,1892.230957 
	C538.825317,1815.088379 524.065430,1736.262573 518.627441,1655.902100 
	C516.110657,1618.710571 516.733154,1581.306641 516.510010,1543.307983 
	C516.341309,1542.205322 516.172607,1541.102661 516.051331,1538.154297 
	C518.125061,1479.796143 524.523560,1421.938843 535.676697,1364.595337 
	C564.432373,1216.749023 620.679016,1080.265869 705.804626,956.017029 
	C819.886414,789.503906 968.197693,662.771118 1151.107422,577.135254 
	C1293.162964,510.626831 1443.038696,477.400208 1599.719727,474.451691 
	C1640.065063,473.692413 1680.307129,475.813446 1720.487549,479.594208 
	C1778.309082,485.034912 1835.323975,494.957489 1891.508301,509.601807 
	C2074.916992,557.406921 2235.344971,646.626709 2372.932617,776.959473 
	C2379.630371,783.304138 2386.354248,789.621033 2391.477783,794.453064 
	C2438.829590,747.099365 2485.571777,700.355286 2532.550537,653.374695 
	C2533.007568,654.091187 2532.731934,653.457458 2532.283203,652.990051 
	C2530.206299,650.827148 2528.108643,648.682617 2525.969727,646.581238 
	C2463.965088,585.657898 2396.591064,531.395752 2323.709961,484.022400 
	C2185.801514,394.380585 2036.112671,333.422333 1875.021729,300.470367 
	C1811.615845,287.500397 1747.534546,279.514282 1682.899780,276.181519 
	C1640.612305,274.001038 1598.305786,273.379639 1555.286743,275.376465 
	C1554.191772,275.600891 1553.096924,275.825317 1550.195312,276.090973 
	C1542.553955,276.617432 1534.916138,277.205078 1527.270508,277.660278 
	C1482.342163,280.335175 1437.770752,285.943085 1393.422974,293.556488 
	C1273.483887,314.147064 1158.693970,350.873047 1049.213257,403.927612 
	C904.606079,474.004547 777.393066,567.851929 667.480042,685.078491 
	C528.821716,832.963013 429.861359,1003.871643 371.045807,1197.880493 
	C335.949036,1313.650513 317.279236,1432.092163 315.945099,1553.092773 
	C315.574371,1586.716919 317.235016,1620.363403 317.422424,1654.718506 
	C317.657837,1655.810425 317.893219,1656.902344 318.195282,1659.737183 
	C320.022003,1679.636108 321.621674,1699.558960 323.716217,1719.429688 
	C331.275696,1791.146606 345.172974,1861.671631 365.084625,1930.945923 
	C431.759277,2162.912109 553.538452,2361.376709 729.815125,2526.014404 
	C878.714661,2665.082764 1051.305542,2763.373291 1246.715210,2821.347900 
	C1349.415283,2851.817139 1454.386108,2869.040039 1561.359131,2873.424316 
	C1613.308838,2875.553223 1665.275513,2874.670166 1717.192993,2870.504150 
	C1772.060547,2866.101807 1826.457886,2858.659180 1880.303345,2847.419434 
	C2050.063721,2811.983154 2206.655762,2745.492432 2349.819336,2647.524658 
	C2412.967041,2604.312012 2471.631104,2555.652832 2526.327148,2502.177979 
	C2529.068359,2499.497803 2531.623291,2496.626709 2532.937988,2495.242188 
	C2485.397949,2447.705078 2438.803467,2401.113525 2392.155029,2354.468018 
	C2185.270752,2554.860596 1937.503174,2662.979980 1647.292725,2673.472656 
	C1646.196777,2673.685547 1645.100708,2673.898438 1642.129639,2674.119629 
	C1623.419189,2674.112793 1604.708862,2674.105957 1585.307007,2673.521484 
M1526.766724,2030.999512 
	C1526.766968,2053.658691 1526.719116,2076.318115 1526.803223,2098.976807 
	C1526.822998,2104.298340 1527.050781,2109.642090 1527.586548,2114.934814 
	C1533.516357,2173.519043 1599.352661,2205.821777 1649.099609,2174.316162 
	C1674.791260,2158.045166 1686.842285,2134.132080 1686.828003,2103.722900 
	C1686.740967,1918.783691 1686.784912,1733.844482 1686.774658,1548.905273 
	C1686.774536,1546.241821 1686.778931,1543.566528 1686.549316,1540.916870 
	C1683.879761,1510.103638 1668.592529,1487.444580 1640.862183,1474.280273 
	C1613.030029,1461.067383 1585.647217,1463.934326 1560.434448,1481.581909 
	C1544.778076,1492.540649 1533.604980,1507.347412 1529.752930,1526.445679 
	C1527.859375,1535.834351 1526.897705,1545.573364 1526.887329,1555.155273 
	C1526.717529,1713.103271 1526.766724,1871.051270 1526.766724,2030.999512 
M1794.240479,1152.759766 
	C1789.290649,1147.809937 1784.366943,1142.833618 1779.383789,1137.917603 
	C1774.289673,1132.892090 1769.137085,1127.925781 1765.161377,1124.054565 
	C1727.102173,1162.116333 1689.960449,1199.260742 1653.713623,1235.510010 
	C1690.394653,1272.195068 1727.747314,1309.551758 1765.452271,1347.260742 
	C1775.756226,1337.087646 1786.781738,1326.202148 1798.125732,1315.002197 
	C1802.278931,1319.204468 1805.641602,1322.606812 1810.144531,1327.162964 
	C1798.235107,1338.804688 1787.338501,1349.456299 1777.444336,1359.127930 
	C1814.898315,1396.583984 1852.255737,1433.943726 1889.932251,1471.622314 
	C1900.192505,1461.396851 1911.195923,1450.430786 1920.634644,1441.023926 
	C1925.570679,1444.631714 1929.520752,1447.518799 1932.963623,1450.035156 
	C1921.254150,1461.912842 1910.380981,1472.942383 1899.417603,1484.063354 
	C1937.590332,1522.231567 1975.135498,1559.772339 2013.444702,1598.077026 
	C2025.038086,1586.194580 2035.708496,1575.257935 2046.747192,1563.943970 
	C2050.623291,1567.887817 2054.035156,1571.359131 2057.868896,1575.259766 
	C2046.777832,1586.504150 2035.844238,1597.588623 2024.787354,1608.798340 
	C2026.275879,1610.545898 2027.263306,1611.880859 2028.424072,1613.042603 
	C2062.574463,1647.219971 2096.741943,1681.380249 2130.907471,1715.542603 
	C2131.849609,1716.484741 2132.783691,1717.436279 2133.750977,1718.352051 
	C2136.057373,1720.535034 2138.473145,1720.593628 2140.842529,1718.516724 
	C2142.343262,1717.201538 2143.720703,1715.744019 2145.133789,1714.330933 
	C2178.120117,1681.345459 2211.109863,1648.363159 2244.073975,1615.355835 
	C2246.098633,1613.328491 2247.919434,1611.097778 2250.126221,1608.637085 
	C2098.220947,1456.734619 1946.730591,1305.247314 1794.240479,1152.759766 
M1347.179443,1222.179199 
	C1260.468506,1308.890747 1173.757568,1395.602295 1086.749146,1482.611206 
	C1088.906372,1485.020386 1090.551880,1487.042847 1092.385010,1488.878052 
	C1125.595825,1522.129272 1158.829468,1555.357666 1192.058594,1588.590576 
	C1193.001221,1589.533203 1193.998169,1590.427124 1194.882812,1591.421021 
	C1198.028809,1594.955688 1201.079956,1594.712280 1204.173096,1591.338989 
	C1205.523315,1589.866577 1206.988281,1588.499146 1208.402222,1587.085205 
	C1350.046387,1445.439575 1491.691528,1303.794922 1633.327026,1162.140625 
	C1635.637695,1159.829712 1637.828125,1157.398438 1639.190796,1155.957764 
	C1601.431641,1118.198853 1564.040039,1080.807617 1526.295532,1043.063354 
	C1467.385986,1101.972778 1407.782715,1161.576050 1347.179443,1222.179199 
M1625.049438,1093.950562 
	C1637.666626,1106.566162 1650.283691,1119.181885 1662.053955,1130.950684 
	C1681.249878,1111.747681 1699.767090,1093.223633 1717.500732,1075.483521 
	C1680.797241,1038.780762 1643.482056,1001.466309 1606.658203,964.643127 
	C1588.726440,982.563660 1570.202026,1001.076355 1550.881958,1020.384338 
	C1574.966553,1044.271118 1599.507935,1068.610840 1625.049438,1093.950562 
M1099.585938,1541.414795 
	C1089.697876,1531.527222 1079.836792,1521.612427 1069.898560,1511.775513 
	C1067.932251,1509.829224 1066.207153,1506.834961 1063.074829,1508.438721 
	C1053.935547,1554.383545 1044.887695,1599.868530 1035.517944,1646.971802 
	C1082.736328,1637.527832 1128.373291,1628.400146 1176.694824,1618.735596 
	C1150.332520,1591.961182 1125.362183,1567.281860 1099.585938,1541.414795 
z"/>
<path fill="#FE324A" opacity="1.000000" stroke="none" 
	d="
M1648.000000,2674.027832 
	C1937.503174,2662.979980 2185.270752,2554.860596 2392.155029,2354.468018 
	C2438.803467,2401.113525 2485.397949,2447.705078 2532.937988,2495.242188 
	C2531.623291,2496.626709 2529.068359,2499.497803 2526.327148,2502.177979 
	C2471.631104,2555.652832 2412.967041,2604.312012 2349.819336,2647.524658 
	C2206.655762,2745.492432 2050.063721,2811.983154 1880.303345,2847.419434 
	C1826.457886,2858.659180 1772.060547,2866.101807 1717.192993,2870.504150 
	C1665.275513,2874.670166 1613.308838,2875.553223 1561.359131,2873.424316 
	C1454.386108,2869.040039 1349.415283,2851.817139 1246.715210,2821.347900 
	C1051.305542,2763.373291 878.714661,2665.082764 729.815125,2526.014404 
	C553.538452,2361.376709 431.759277,2162.912109 365.084625,1930.945923 
	C345.172974,1861.671631 331.275696,1791.146606 323.716217,1719.429688 
	C321.621674,1699.558960 320.022003,1679.636108 318.437897,1658.506592 
	C318.441559,1656.183960 318.202637,1655.091797 317.963715,1653.999634 
	C317.235016,1620.363403 315.574371,1586.716919 315.945099,1553.092773 
	C317.279236,1432.092163 335.949036,1313.650513 371.045807,1197.880493 
	C429.861359,1003.871643 528.821716,832.963013 667.480042,685.078491 
	C777.393066,567.851929 904.606079,474.004547 1049.213257,403.927612 
	C1158.693970,350.873047 1273.483887,314.147064 1393.422974,293.556488 
	C1437.770752,285.943085 1482.342163,280.335175 1527.270508,277.660278 
	C1534.916138,277.205078 1542.553955,276.617432 1551.453857,276.352295 
	C1553.808594,276.383789 1554.904785,276.153900 1556.000977,275.924011 
	C1598.305786,273.379639 1640.612305,274.001038 1682.899780,276.181519 
	C1747.534546,279.514282 1811.615845,287.500397 1875.021729,300.470367 
	C2036.112671,333.422333 2185.801514,394.380585 2323.709961,484.022400 
	C2396.591064,531.395752 2463.965088,585.657898 2525.969727,646.581238 
	C2528.108643,648.682617 2530.206299,650.827148 2532.283203,652.990051 
	C2532.731934,653.457458 2533.007568,654.091187 2532.550537,653.374695 
	C2485.571777,700.355286 2438.829590,747.099365 2391.477783,794.453064 
	C2386.354248,789.621033 2379.630371,783.304138 2372.932617,776.959473 
	C2235.344971,646.626709 2074.916992,557.406921 1891.508301,509.601807 
	C1835.323975,494.957489 1778.309082,485.034912 1720.487549,479.594208 
	C1680.307129,475.813446 1640.065063,473.692413 1599.719727,474.451691 
	C1443.038696,477.400208 1293.162964,510.626831 1151.107422,577.135254 
	C968.197693,662.771118 819.886414,789.503906 705.804626,956.017029 
	C620.679016,1080.265869 564.432373,1216.749023 535.676697,1364.595337 
	C524.523560,1421.938843 518.125061,1479.796143 515.730896,1539.420898 
	C515.584412,1541.791382 515.758362,1542.895264 515.932312,1543.999023 
	C516.733154,1581.306641 516.110657,1618.710571 518.627441,1655.902100 
	C524.065430,1736.262573 538.825317,1815.088379 562.182861,1892.230957 
	C610.792175,2052.772461 691.677124,2195.010254 805.297302,2318.371338 
	C937.513062,2461.922119 1096.618652,2563.717041 1282.626831,2623.119141 
	C1348.169189,2644.050293 1415.110474,2658.917236 1483.550049,2666.267822 
	C1515.654053,2669.715332 1547.941528,2671.455078 1581.417847,2674.288574 
	C1583.792725,2674.438477 1584.895508,2674.268799 1585.998413,2674.099121 
	C1604.708862,2674.105957 1623.419189,2674.112793 1643.419678,2674.400879 
	C1645.806396,2674.464111 1646.903198,2674.246094 1648.000000,2674.027832 
z"/>
<path fill="#FFFFFF" opacity="1.000000" stroke="none" 
	d="
M1526.766724,2029.999512 
	C1526.766724,1871.051270 1526.717529,1713.103271 1526.887329,1555.155273 
	C1526.897705,1545.573364 1527.859375,1535.834351 1529.752930,1526.445679 
	C1533.604980,1507.347412 1544.778076,1492.540649 1560.434448,1481.581909 
	C1585.647217,1463.934326 1613.030029,1461.067383 1640.862183,1474.280273 
	C1668.592529,1487.444580 1683.879761,1510.103638 1686.549316,1540.916870 
	C1686.778931,1543.566528 1686.774536,1546.241821 1686.774658,1548.905273 
	C1686.784912,1733.844482 1686.740967,1918.783691 1686.828003,2103.722900 
	C1686.842285,2134.132080 1674.791260,2158.045166 1649.099609,2174.316162 
	C1599.352661,2205.821777 1533.516357,2173.519043 1527.586548,2114.934814 
	C1527.050781,2109.642090 1526.822998,2104.298340 1526.803223,2098.976807 
	C1526.719116,2076.318115 1526.766968,2053.658691 1526.766724,2029.999512 
z"/>
<path fill="#FEFEFE" opacity="1.000000" stroke="none" 
	d="
M1794.740356,1153.259888 
	C1946.730591,1305.247314 2098.220947,1456.734619 2250.126221,1608.637085 
	C2247.919434,1611.097778 2246.098633,1613.328491 2244.073975,1615.355835 
	C2211.109863,1648.363159 2178.120117,1681.345459 2145.133789,1714.330933 
	C2143.720703,1715.744019 2142.343262,1717.201538 2140.842529,1718.516724 
	C2138.473145,1720.593628 2136.057373,1720.535034 2133.750977,1718.352051 
	C2132.783691,1717.436279 2131.849609,1716.484741 2130.907471,1715.542603 
	C2096.741943,1681.380249 2062.574463,1647.219971 2028.424072,1613.042603 
	C2027.263306,1611.880859 2026.275879,1610.545898 2024.787354,1608.798340 
	C2035.844238,1597.588623 2046.777832,1586.504150 2057.868896,1575.259766 
	C2054.035156,1571.359131 2050.623291,1567.887817 2046.747192,1563.943970 
	C2035.708496,1575.257935 2025.038086,1586.194580 2013.444702,1598.077026 
	C1975.135498,1559.772339 1937.590332,1522.231567 1899.417603,1484.063354 
	C1910.380981,1472.942383 1921.254150,1461.912842 1932.963623,1450.035156 
	C1929.520752,1447.518799 1925.570679,1444.631714 1920.634644,1441.023926 
	C1911.195923,1450.430786 1900.192505,1461.396851 1889.932251,1471.622314 
	C1852.255737,1433.943726 1814.898315,1396.583984 1777.444336,1359.127930 
	C1787.338501,1349.456299 1798.235107,1338.804688 1810.144531,1327.162964 
	C1805.641602,1322.606812 1802.278931,1319.204468 1798.125732,1315.002197 
	C1786.781738,1326.202148 1775.756226,1337.087646 1765.452271,1347.260742 
	C1727.747314,1309.551758 1690.394653,1272.195068 1653.713623,1235.510010 
	C1689.960449,1199.260742 1727.102173,1162.116333 1765.161377,1124.054565 
	C1769.137085,1127.925781 1774.289673,1132.892090 1779.383789,1137.917603 
	C1784.366943,1142.833618 1789.290649,1147.809937 1794.740356,1153.259888 
z"/>
<path fill="#FEFEFE" opacity="1.000000" stroke="none" 
	d="
M1347.679443,1221.679199 
	C1407.782715,1161.576050 1467.385986,1101.972778 1526.295532,1043.063354 
	C1564.040039,1080.807617 1601.431641,1118.198853 1639.190796,1155.957764 
	C1637.828125,1157.398438 1635.637695,1159.829712 1633.327026,1162.140625 
	C1491.691528,1303.794922 1350.046387,1445.439575 1208.402222,1587.085205 
	C1206.988281,1588.499146 1205.523315,1589.866577 1204.173096,1591.338989 
	C1201.079956,1594.712280 1198.028809,1594.955688 1194.882812,1591.421021 
	C1193.998169,1590.427124 1193.001221,1589.533203 1192.058594,1588.590576 
	C1158.829468,1555.357666 1125.595825,1522.129272 1092.385010,1488.878052 
	C1090.551880,1487.042847 1088.906372,1485.020386 1086.749146,1482.611206 
	C1173.757568,1395.602295 1260.468506,1308.890747 1347.679443,1221.679199 
z"/>
<path fill="#FCFCFC" opacity="1.000000" stroke="none" 
	d="
M1624.549316,1093.450684 
	C1599.507935,1068.610840 1574.966553,1044.271118 1550.881958,1020.384338 
	C1570.202026,1001.076355 1588.726440,982.563660 1606.658203,964.643127 
	C1643.482056,1001.466309 1680.797241,1038.780762 1717.500732,1075.483521 
	C1699.767090,1093.223633 1681.249878,1111.747681 1662.053955,1130.950684 
	C1650.283691,1119.181885 1637.666626,1106.566162 1624.549316,1093.450684 
z"/>
<path fill="#FBFBFB" opacity="1.000000" stroke="none" 
	d="
M1100.085938,1541.914795 
	C1125.362183,1567.281860 1150.332520,1591.961182 1176.694824,1618.735596 
	C1128.373291,1628.400146 1082.736328,1637.527832 1035.517944,1646.971802 
	C1044.887695,1599.868530 1053.935547,1554.383545 1063.074829,1508.438721 
	C1066.207153,1506.834961 1067.932251,1509.829224 1069.898560,1511.775513 
	C1079.836792,1521.612427 1089.697876,1531.527222 1100.085938,1541.914795 
z"/>
<path fill="#9F3441" opacity="1.000000" stroke="none" 
	d="
M1555.643799,275.650238 
	C1554.904785,276.153900 1553.808594,276.383789 1552.357178,276.331696 
	C1553.096924,275.825317 1554.191772,275.600891 1555.643799,275.650238 
z"/>
<path fill="#9F3441" opacity="1.000000" stroke="none" 
	d="
M516.221191,1543.653564 
	C515.758362,1542.895264 515.584412,1541.791382 515.707153,1540.343750 
	C516.172607,1541.102661 516.341309,1542.205322 516.221191,1543.653564 
z"/>
<path fill="#9F3441" opacity="1.000000" stroke="none" 
	d="
M317.693054,1654.359131 
	C318.202637,1655.091797 318.441559,1656.183960 318.404572,1657.635254 
	C317.893219,1656.902344 317.657837,1655.810425 317.693054,1654.359131 
z"/>
<path fill="#9F3441" opacity="1.000000" stroke="none" 
	d="
M1585.652710,2673.810303 
	C1584.895508,2674.268799 1583.792725,2674.438477 1582.345215,2674.312500 
	C1583.102661,2673.851562 1584.204834,2673.686523 1585.652710,2673.810303 
z"/>
<path fill="#9F3441" opacity="1.000000" stroke="none" 
	d="
M1647.646362,2673.750244 
	C1646.903198,2674.246094 1645.806396,2674.464111 1644.357178,2674.396973 
	C1645.100708,2673.898438 1646.196777,2673.685547 1647.646362,2673.750244 
z"/>
</svg>