<svg version="1.1" id="Layer_1" xmlns="http://www.w3.org/2000/svg" xmlns:xlink="http://www.w3.org/1999/xlink" x="0px" y="0px"
	 width="100%" viewBox="0 0 3200 3200" enable-background="new 0 0 3200 3200" xml:space="preserve">
<path fill="#373737" opacity="1.000000" stroke="none" 
	d="
M2860.000000,3202.000000 
	C2371.943848,3202.000000 1883.887817,3202.000000 1394.647705,3201.388428 
	C1390.481079,3197.636475 1387.567139,3194.427246 1384.505615,3191.365479 
	C1170.736816,2977.574951 956.933594,2763.818848 743.222534,2549.970703 
	C727.214417,2533.952148 711.655762,2517.468994 696.301636,2500.820312 
	C690.314514,2494.328613 685.471252,2486.781738 680.810547,2479.633789 
	C684.433411,2482.267578 687.455383,2484.881348 690.257263,2487.712891 
	C796.043762,2594.617432 916.389771,2681.144287 1052.001099,2746.335205 
	C1213.047119,2823.752686 1383.019897,2865.690674 1561.366333,2873.424316 
	C1633.373169,2876.546875 1705.246582,2873.541260 1776.860596,2864.484863 
	C1854.733276,2854.636475 1931.145508,2838.308350 2005.977783,2814.703369 
	C2198.046387,2754.117920 2366.768799,2653.944336 2512.735840,2515.299805 
	C2519.933594,2508.462891 2526.969727,2501.456299 2532.977295,2495.604004 
	C2485.535889,2448.164307 2438.775879,2401.405762 2391.615479,2354.246826 
	C2248.716064,2495.398193 2079.243164,2592.676025 1882.910034,2641.527588 
	C1686.399780,2690.423096 1490.603516,2685.781738 1296.670776,2627.335693 
	C1102.891724,2568.936279 938.010742,2463.883789 801.674255,2314.500488 
	C422.047180,1898.544678 416.386475,1253.095337 804.993652,831.370483 
	C1003.579956,615.860413 1251.234619,499.083130 1543.416992,476.737701 
	C1872.985840,459.601654 2155.631592,567.608704 2394.012939,795.792847 
	C2396.453369,793.443604 2399.098633,790.979065 2401.654297,788.424683 
	C2442.909424,747.187256 2484.147705,705.933105 2525.411621,664.704529 
	C2527.997559,662.120850 2530.763184,659.716675 2534.041992,657.640442 
	C2550.618408,673.135315 2566.981445,687.835266 2582.519775,703.360413 
	C2786.383789,907.049805 2990.130371,1110.857056 3193.923584,1314.617310 
	C3196.500488,1317.193604 3199.302979,1319.544067 3202.000000,1322.000000 
	C3202.000000,1836.056030 3202.000000,2350.112061 3201.245605,2865.198975 
	C3199.718994,2867.610352 3198.496094,2868.912354 3198.240234,2870.382812 
	C3190.636230,2914.047852 3176.261963,2955.266846 3155.091553,2994.275635 
	C3137.156738,3027.322510 3114.859863,3057.025146 3088.694580,3083.816162 
	C3078.494873,3094.260254 3067.236328,3103.723633 3056.029297,3113.120117 
	C3028.020264,3136.604004 2996.998535,3155.378906 2963.471436,3169.791748 
	C2932.178467,3183.243896 2899.755127,3193.175781 2865.916016,3198.013428 
	C2863.286865,3198.389404 2860.389404,3198.321289 2860.000000,3202.000000 
M1526.767090,1792.999512 
	C1526.767578,1895.321045 1526.741699,1997.642578 1526.796997,2099.964111 
	C1526.805298,2115.291748 1528.372070,2130.239502 1536.177124,2144.087402 
	C1548.654297,2166.225098 1567.266479,2181.068359 1591.785156,2185.410400 
	C1617.746460,2190.008545 1642.095093,2183.479980 1661.838745,2164.612305 
	C1679.463867,2147.769287 1686.912354,2126.950684 1686.885620,2102.641113 
	C1686.696167,1930.327515 1686.785278,1758.013550 1686.784790,1585.699829 
	C1686.784790,1572.701294 1686.532104,1559.696777 1686.846313,1546.705811 
	C1687.183960,1532.746216 1683.144165,1519.789062 1676.791992,1507.897949 
	C1654.209961,1465.625366 1598.151978,1453.363159 1559.696045,1482.011841 
	C1544.660645,1493.212646 1533.603882,1507.593384 1529.774048,1526.312622 
	C1527.919678,1535.376099 1526.918213,1544.775635 1526.892578,1554.026733 
	C1526.673462,1633.017090 1526.767090,1712.008423 1526.767090,1792.999512 
M2006.303711,1590.970947 
	C2008.467896,1592.970337 2010.632080,1594.969727 2013.229614,1597.369507 
	C2024.577393,1586.051514 2035.596558,1575.061157 2046.082764,1564.602417 
	C2050.303223,1568.543579 2053.845947,1571.851807 2057.771729,1575.517944 
	C2046.561768,1586.780762 2035.640625,1597.753418 2023.365112,1610.086670 
	C2026.976562,1612.851074 2029.894531,1614.613647 2032.239990,1616.950684 
	C2064.340088,1648.936279 2096.361084,1681.001343 2128.401611,1713.046997 
	C2129.814941,1714.460571 2131.296875,1715.812988 2132.626953,1717.301025 
	C2135.675293,1720.711182 2138.727539,1720.971680 2141.939941,1717.551880 
	C2143.080078,1716.338257 2144.286621,1715.187378 2145.464600,1714.009644 
	C2178.216309,1681.262207 2210.972168,1648.518921 2243.710693,1615.758179 
	C2245.815674,1613.651489 2247.787354,1611.411133 2249.793457,1609.262695 
	C2237.305420,1593.953247 1769.436401,1127.357056 1764.572266,1124.674805 
	C1727.107788,1162.141357 1689.968018,1199.283203 1653.736328,1235.516968 
	C1690.410278,1272.193359 1727.762817,1309.548218 1765.463257,1347.251099 
	C1775.760986,1337.083252 1786.786377,1326.197021 1798.126343,1315.000000 
	C1802.282349,1319.207642 1805.643433,1322.610474 1810.157349,1327.180298 
	C1798.237061,1338.815063 1787.333008,1349.458130 1777.426025,1359.128052 
	C1814.897461,1396.589111 1852.260498,1433.941772 1889.942139,1471.613037 
	C1900.193237,1461.395996 1911.196411,1450.429443 1920.632935,1441.024170 
	C1925.570435,1444.632568 1929.520508,1447.519409 1932.967163,1450.038330 
	C1921.304810,1461.963745 1910.475708,1473.037231 1899.647949,1484.109253 
	C1935.189453,1519.705444 1970.243042,1554.813354 2006.303711,1590.970947 
M1296.240967,1499.241211 
	C1410.937622,1384.544312 1525.634277,1269.847534 1639.100708,1156.380981 
	C1601.028931,1118.308350 1563.656250,1080.934814 1527.867432,1045.145142 
	C1381.985596,1191.027222 1235.284424,1337.728516 1087.452637,1485.560425 
	C1089.075684,1486.810547 1091.981812,1488.587646 1094.328613,1490.926025 
	C1126.437866,1522.921875 1158.469971,1554.995239 1190.521118,1587.049438 
	C1191.934937,1588.463501 1193.419312,1589.814453 1194.749878,1591.302979 
	C1197.824829,1594.742920 1200.858887,1594.893799 1204.047119,1591.463257 
	C1205.634155,1589.755371 1207.330200,1588.148682 1208.979858,1586.499146 
	C1237.733276,1557.746216 1266.487183,1528.993774 1296.240967,1499.241211 
M1702.719360,1058.288574 
	C1670.974609,1026.540283 1639.229858,994.791931 1608.113647,963.672241 
	C1589.031860,982.550781 1570.400391,1000.983765 1552.355835,1018.836182 
	C1589.174805,1055.654419 1626.526855,1093.005737 1664.516113,1130.994263 
	C1681.200195,1114.286621 1698.802368,1096.689453 1716.359375,1079.047119 
	C1719.063232,1076.330200 1718.252930,1073.747925 1715.726318,1071.285034 
	C1711.676025,1067.336792 1707.717651,1063.293945 1702.719360,1058.288574 
M1076.556885,1518.389160 
	C1071.954712,1515.067505 1069.672485,1508.508301 1063.053467,1508.138794 
	C1053.898193,1554.135864 1044.819092,1599.750366 1035.414307,1647.000732 
	C1082.674316,1637.560913 1128.225586,1628.462402 1173.776855,1619.363892 
	C1174.264893,1618.600464 1174.752930,1617.837158 1175.240845,1617.073730 
	C1142.683838,1584.513550 1110.123535,1551.956543 1076.556885,1518.389160 
z"/>
<path fill="#6F6F6F" opacity="1.000000" stroke="none" 
	d="
M680.107056,2479.715576 
	C685.471252,2486.781738 690.314514,2494.328613 696.301636,2500.820312 
	C711.655762,2517.468994 727.214417,2533.952148 743.222534,2549.970703 
	C956.933594,2763.818848 1170.736816,2977.574951 1384.505615,3191.365479 
	C1387.567139,3194.427246 1390.481079,3197.636475 1393.731934,3201.388428 
	C1045.291504,3202.000000 696.583069,3202.000000 347.200897,3201.213379 
	C344.461853,3199.615479 342.462402,3198.402344 340.321625,3198.051025 
	C295.662506,3190.721924 253.354645,3176.611084 213.513458,3155.004150 
	C139.655396,3114.949707 83.805359,3057.296143 45.701550,2982.639160 
	C24.061947,2940.240479 10.619917,2895.163818 5.692729,2847.685059 
	C5.434130,2845.192871 6.162762,2841.987305 2.000000,2842.000000 
	C2.000000,2015.958252 2.000000,1189.916382 2.817370,363.041565 
	C5.115192,354.548279 6.824480,346.924042 8.038021,339.221741 
	C14.669307,297.133270 27.685661,257.090942 47.281132,219.316895 
	C69.855225,175.800964 99.160995,137.409271 135.835068,104.637550 
	C174.780258,69.836372 218.566635,43.327316 267.708862,25.670210 
	C294.396637,16.081141 321.736877,9.148156 349.916077,5.661056 
	C352.018829,5.400842 355.045380,5.893514 354.000000,2.000000 
	C1186.041870,2.000000 2018.083618,2.000000 2850.891357,2.797943 
	C2858.026611,4.987091 2864.350098,6.652817 2870.772949,7.724862 
	C2911.415039,14.508550 2950.096436,27.300039 2986.643799,46.218235 
	C3029.848389,68.582390 3067.932373,97.701248 3100.570068,133.932770 
	C3136.176025,173.459473 3163.104980,218.104568 3180.904785,268.226746 
	C3188.588623,289.863037 3194.637207,311.944092 3198.203857,334.667816 
	C3198.559814,336.936920 3197.758301,340.359161 3202.000000,340.000000 
	C3202.000000,666.708435 3202.000000,993.416931 3202.000000,1321.062622 
	C3199.302979,1319.544067 3196.500488,1317.193604 3193.923584,1314.617310 
	C2990.130371,1110.857056 2786.383789,907.049805 2582.519775,703.360413 
	C2566.981445,687.835266 2550.618408,673.135315 2534.082520,657.007996 
	C2531.316406,653.156555 2529.370361,650.084106 2526.856445,647.581909 
	C2496.361816,617.228088 2464.184082,588.753113 2430.716553,561.721497 
	C2337.838867,486.704407 2236.497559,425.692963 2126.721924,378.836273 
	C2036.916382,340.503662 1943.922485,312.693481 1847.770752,295.320465 
	C1776.467773,282.437225 1704.610107,275.702667 1632.236572,274.431915 
	C1581.227783,273.536224 1530.365479,276.460846 1479.602173,281.646118 
	C1428.842407,286.831116 1378.608521,295.093719 1328.869995,306.319458 
	C1176.813477,340.637817 1035.399536,400.260498 904.924927,485.594849 
	C818.080688,542.393555 739.143677,608.639160 668.106018,684.350281 
	C625.612793,729.639160 586.338867,777.496460 550.698120,828.328064 
	C471.424713,941.389587 411.693939,1063.961304 371.544098,1196.119873 
	C339.222015,1302.512451 320.849152,1411.281982 316.487762,1522.292725 
	C313.896027,1588.259888 315.949402,1654.171265 323.604004,1719.871948 
	C329.817017,1773.199341 338.778931,1825.994751 351.283783,1878.190063 
	C377.744934,1988.639404 417.905457,2093.862061 472.044281,2193.716553 
	C517.813904,2278.134766 572.313293,2356.493896 635.557495,2428.764648 
	C647.598022,2442.523682 659.567932,2456.344482 671.825867,2470.734863 
	C673.421082,2472.227783 674.760803,2473.122559 676.038696,2474.020020 
	C675.976929,2474.022217 675.990356,2473.899170 676.000977,2474.519287 
	C676.728210,2476.089111 677.444824,2477.039062 678.091980,2477.986572 
	C678.022522,2477.984375 678.038879,2477.846191 678.244202,2478.328613 
	C679.017212,2479.192871 679.584961,2479.575195 680.081421,2479.908203 
	C680.010071,2479.858887 680.107056,2479.715576 680.107056,2479.715576 
z"/>
<path fill="#010101" opacity="1.000000" stroke="none" 
	d="
M353.062683,2.000000 
	C355.045380,5.893514 352.018829,5.400842 349.916077,5.661056 
	C321.736877,9.148156 294.396637,16.081141 267.708862,25.670210 
	C218.566635,43.327316 174.780258,69.836372 135.835068,104.637550 
	C99.160995,137.409271 69.855225,175.800964 47.281132,219.316895 
	C27.685661,257.090942 14.669307,297.133270 8.038021,339.221741 
	C6.824480,346.924042 5.115192,354.548279 2.817370,362.104248 
	C2.000000,242.147598 2.000000,122.295197 2.000000,2.000000 
	C118.708084,2.000000 235.416718,2.000000 353.062683,2.000000 
z"/>
<path fill="#010101" opacity="1.000000" stroke="none" 
	d="
M2.000000,2842.937256 
	C6.162762,2841.987305 5.434130,2845.192871 5.692729,2847.685059 
	C10.619917,2895.163818 24.061947,2940.240479 45.701550,2982.639160 
	C83.805359,3057.296143 139.655396,3114.949707 213.513458,3155.004150 
	C253.354645,3176.611084 295.662506,3190.721924 340.321625,3198.051025 
	C342.462402,3198.402344 344.461853,3199.615479 346.263580,3201.213379 
	C231.475967,3202.000000 116.951942,3202.000000 2.000000,3202.000000 
	C2.000000,3082.625244 2.000000,2963.249756 2.000000,2842.937256 
z"/>
<path fill="#010101" opacity="1.000000" stroke="none" 
	d="
M3202.000000,339.062683 
	C3197.758301,340.359161 3198.559814,336.936920 3198.203857,334.667816 
	C3194.637207,311.944092 3188.588623,289.863037 3180.904785,268.226746 
	C3163.104980,218.104568 3136.176025,173.459473 3100.570068,133.932770 
	C3067.932373,97.701248 3029.848389,68.582390 2986.643799,46.218235 
	C2950.096436,27.300039 2911.415039,14.508550 2870.772949,7.724862 
	C2864.350098,6.652817 2858.026611,4.987091 2851.828613,2.797943 
	C2968.518066,2.000000 3085.036377,2.000000 3202.000000,2.000000 
	C3202.000000,114.041397 3202.000000,226.083374 3202.000000,339.062683 
z"/>
<path fill="#000000" opacity="1.000000" stroke="none" 
	d="
M2860.937256,3202.000000 
	C2860.389404,3198.321289 2863.286865,3198.389404 2865.916016,3198.013428 
	C2899.755127,3193.175781 2932.178467,3183.243896 2963.471436,3169.791748 
	C2996.998535,3155.378906 3028.020264,3136.604004 3056.029297,3113.120117 
	C3067.236328,3103.723633 3078.494873,3094.260254 3088.694580,3083.816162 
	C3114.859863,3057.025146 3137.156738,3027.322510 3155.091553,2994.275635 
	C3176.261963,2955.266846 3190.636230,2914.047852 3198.240234,2870.382812 
	C3198.496094,2868.912354 3199.718994,2867.610352 3201.245605,2866.114746 
	C3202.000000,2977.855225 3202.000000,3089.710693 3202.000000,3202.000000 
	C3088.625244,3202.000000 2975.249756,3202.000000 2860.937256,3202.000000 
z"/>
<path fill="#FE324A" opacity="1.000000" stroke="none" 
	d="
M671.570374,2470.136719 
	C659.567932,2456.344482 647.598022,2442.523682 635.557495,2428.764648 
	C572.313293,2356.493896 517.813904,2278.134766 472.044281,2193.716553 
	C417.905457,2093.862061 377.744934,1988.639404 351.283783,1878.190063 
	C338.778931,1825.994751 329.817017,1773.199341 323.604004,1719.871948 
	C315.949402,1654.171265 313.896027,1588.259888 316.487762,1522.292725 
	C320.849152,1411.281982 339.222015,1302.512451 371.544098,1196.119873 
	C411.693939,1063.961304 471.424713,941.389587 550.698120,828.328064 
	C586.338867,777.496460 625.612793,729.639160 668.106018,684.350281 
	C739.143677,608.639160 818.080688,542.393555 904.924927,485.594849 
	C1035.399536,400.260498 1176.813477,340.637817 1328.869995,306.319458 
	C1378.608521,295.093719 1428.842407,286.831116 1479.602173,281.646118 
	C1530.365479,276.460846 1581.227783,273.536224 1632.236572,274.431915 
	C1704.610107,275.702667 1776.467773,282.437225 1847.770752,295.320465 
	C1943.922485,312.693481 2036.916382,340.503662 2126.721924,378.836273 
	C2236.497559,425.692963 2337.838867,486.704407 2430.716553,561.721497 
	C2464.184082,588.753113 2496.361816,617.228088 2526.856445,647.581909 
	C2529.370361,650.084106 2531.316406,653.156555 2533.485840,656.596558 
	C2530.763184,659.716675 2527.997559,662.120850 2525.411621,664.704529 
	C2484.147705,705.933105 2442.909424,747.187256 2401.654297,788.424683 
	C2399.098633,790.979065 2396.453369,793.443604 2394.012939,795.792847 
	C2155.631592,567.608704 1872.985840,459.601654 1543.416992,476.737701 
	C1251.234619,499.083130 1003.579956,615.860413 804.993652,831.370483 
	C416.386475,1253.095337 422.047180,1898.544678 801.674255,2314.500488 
	C938.010742,2463.883789 1102.891724,2568.936279 1296.670776,2627.335693 
	C1490.603516,2685.781738 1686.399780,2690.423096 1882.910034,2641.527588 
	C2079.243164,2592.676025 2248.716064,2495.398193 2391.615479,2354.246826 
	C2438.775879,2401.405762 2485.535889,2448.164307 2532.977295,2495.604004 
	C2526.969727,2501.456299 2519.933594,2508.462891 2512.735840,2515.299805 
	C2366.768799,2653.944336 2198.046387,2754.117920 2005.977783,2814.703369 
	C1931.145508,2838.308350 1854.733276,2854.636475 1776.860596,2864.484863 
	C1705.246582,2873.541260 1633.373169,2876.546875 1561.366333,2873.424316 
	C1383.019897,2865.690674 1213.047119,2823.752686 1052.001099,2746.335205 
	C916.389771,2681.144287 796.043762,2594.617432 690.257263,2487.712891 
	C687.455383,2484.881348 684.433411,2482.267578 680.810547,2479.633789 
	C680.107056,2479.715576 680.010071,2479.858887 680.172546,2479.236328 
	C679.569641,2478.357910 678.804260,2478.102051 678.038879,2477.846191 
	C678.038879,2477.846191 678.022522,2477.984375 678.341248,2477.359619 
	C677.770081,2475.789551 676.880249,2474.844482 675.990356,2473.899170 
	C675.990356,2473.899170 675.976929,2474.022217 675.801575,2473.439453 
	C674.274231,2471.950195 672.922302,2471.043457 671.570374,2470.136719 
z"/>
<path fill="#FFFFFF" opacity="1.000000" stroke="none" 
	d="
M1526.767090,1791.999512 
	C1526.767090,1712.008423 1526.673462,1633.017090 1526.892578,1554.026733 
	C1526.918213,1544.775635 1527.919678,1535.376099 1529.774048,1526.312622 
	C1533.603882,1507.593384 1544.660645,1493.212646 1559.696045,1482.011841 
	C1598.151978,1453.363159 1654.209961,1465.625366 1676.791992,1507.897949 
	C1683.144165,1519.789062 1687.183960,1532.746216 1686.846313,1546.705811 
	C1686.532104,1559.696777 1686.784790,1572.701294 1686.784790,1585.699829 
	C1686.785278,1758.013550 1686.696167,1930.327515 1686.885620,2102.641113 
	C1686.912354,2126.950684 1679.463867,2147.769287 1661.838745,2164.612305 
	C1642.095093,2183.479980 1617.746460,2190.008545 1591.785156,2185.410400 
	C1567.266479,2181.068359 1548.654297,2166.225098 1536.177124,2144.087402 
	C1528.372070,2130.239502 1526.805298,2115.291748 1526.796997,2099.964111 
	C1526.741699,1997.642578 1526.767578,1895.321045 1526.767090,1791.999512 
z"/>
<path fill="#FEFEFE" opacity="1.000000" stroke="none" 
	d="
M2005.800171,1590.446045 
	C1970.243042,1554.813354 1935.189453,1519.705444 1899.647949,1484.109253 
	C1910.475708,1473.037231 1921.304810,1461.963745 1932.967163,1450.038330 
	C1929.520508,1447.519409 1925.570435,1444.632568 1920.632935,1441.024170 
	C1911.196411,1450.429443 1900.193237,1461.395996 1889.942139,1471.613037 
	C1852.260498,1433.941772 1814.897461,1396.589111 1777.426025,1359.128052 
	C1787.333008,1349.458130 1798.237061,1338.815063 1810.157349,1327.180298 
	C1805.643433,1322.610474 1802.282349,1319.207642 1798.126343,1315.000000 
	C1786.786377,1326.197021 1775.760986,1337.083252 1765.463257,1347.251099 
	C1727.762817,1309.548218 1690.410278,1272.193359 1653.736328,1235.516968 
	C1689.968018,1199.283203 1727.107788,1162.141357 1764.572266,1124.674805 
	C1769.436401,1127.357056 2237.305420,1593.953247 2249.793457,1609.262695 
	C2247.787354,1611.411133 2245.815674,1613.651489 2243.710693,1615.758179 
	C2210.972168,1648.518921 2178.216309,1681.262207 2145.464600,1714.009644 
	C2144.286621,1715.187378 2143.080078,1716.338257 2141.939941,1717.551880 
	C2138.727539,1720.971680 2135.675293,1720.711182 2132.626953,1717.301025 
	C2131.296875,1715.812988 2129.814941,1714.460571 2128.401611,1713.046997 
	C2096.361084,1681.001343 2064.340088,1648.936279 2032.239990,1616.950684 
	C2029.894531,1614.613647 2026.976562,1612.851074 2023.365112,1610.086670 
	C2035.640625,1597.753418 2046.561768,1586.780762 2057.771729,1575.517944 
	C2053.845947,1571.851807 2050.303223,1568.543579 2046.082764,1564.602417 
	C2035.596558,1575.061157 2024.577393,1586.051514 2013.229614,1597.369507 
	C2010.632080,1594.969727 2008.467896,1592.970337 2005.800171,1590.446045 
z"/>
<path fill="#FEFEFE" opacity="1.000000" stroke="none" 
	d="
M1295.740967,1499.741211 
	C1266.487183,1528.993774 1237.733276,1557.746216 1208.979858,1586.499146 
	C1207.330200,1588.148682 1205.634155,1589.755371 1204.047119,1591.463257 
	C1200.858887,1594.893799 1197.824829,1594.742920 1194.749878,1591.302979 
	C1193.419312,1589.814453 1191.934937,1588.463501 1190.521118,1587.049438 
	C1158.469971,1554.995239 1126.437866,1522.921875 1094.328613,1490.926025 
	C1091.981812,1488.587646 1089.075684,1486.810547 1087.452637,1485.560425 
	C1235.284424,1337.728516 1381.985596,1191.027222 1527.867432,1045.145142 
	C1563.656250,1080.934814 1601.028931,1118.308350 1639.100708,1156.380981 
	C1525.634277,1269.847534 1410.937622,1384.544312 1295.740967,1499.741211 
z"/>
<path fill="#FCFCFC" opacity="1.000000" stroke="none" 
	d="
M1703.219971,1058.789795 
	C1707.717651,1063.293945 1711.676025,1067.336792 1715.726318,1071.285034 
	C1718.252930,1073.747925 1719.063232,1076.330200 1716.359375,1079.047119 
	C1698.802368,1096.689453 1681.200195,1114.286621 1664.516113,1130.994263 
	C1626.526855,1093.005737 1589.174805,1055.654419 1552.355835,1018.836182 
	C1570.400391,1000.983765 1589.031860,982.550781 1608.113647,963.672241 
	C1639.229858,994.791931 1670.974609,1026.540283 1703.219971,1058.789795 
z"/>
<path fill="#FBFBFB" opacity="1.000000" stroke="none" 
	d="
M1077.061401,1518.893066 
	C1110.123535,1551.956543 1142.683838,1584.513550 1175.240845,1617.073730 
	C1174.752930,1617.837158 1174.264893,1618.600464 1173.776855,1619.363892 
	C1128.225586,1628.462402 1082.674316,1637.560913 1035.414307,1647.000732 
	C1044.819092,1599.750366 1053.898193,1554.135864 1063.053467,1508.138794 
	C1069.672485,1508.508301 1071.954712,1515.067505 1077.061401,1518.893066 
z"/>
<path fill="#373737" opacity="1.000000" stroke="none" 
	d="
M671.825867,2470.734863 
	C672.922302,2471.043457 674.274231,2471.950195 675.863403,2473.437256 
	C674.760803,2473.122559 673.421082,2472.227783 671.825867,2470.734863 
z"/>
<path fill="#373737" opacity="1.000000" stroke="none" 
	d="
M676.000977,2474.519287 
	C676.880249,2474.844482 677.770081,2475.789551 678.410706,2477.361816 
	C677.444824,2477.039062 676.728210,2476.089111 676.000977,2474.519287 
z"/>
<path fill="#373737" opacity="1.000000" stroke="none" 
	d="
M678.244202,2478.328613 
	C678.804260,2478.102051 679.569641,2478.357910 680.243896,2479.285645 
	C679.584961,2479.575195 679.017212,2479.192871 678.244202,2478.328613 
z"/>
</svg>