<svg width="28" height="25" viewBox="0 0 28 25" fill="none" xmlns="http://www.w3.org/2000/svg">
<path d="M18.8438 17.1719C18.75 17.2656 18.75 17.3594 18.75 17.4531V22.75H2.25V6.25H13.5469C13.6406 6.25 13.7344 6.25 13.8281 6.15625L15.3281 4.65625C15.5625 4.42188 15.375 4 15.0469 4H2.25C0.984375 4 0 5.03125 0 6.25V22.75C0 24.0156 0.984375 25 2.25 25H18.75C19.9688 25 21 24.0156 21 22.75V15.9531C21 15.625 20.5781 15.4375 20.3438 15.6719L18.8438 17.1719ZM26.1562 7.75C27.2344 6.67188 27.2344 4.9375 26.1562 3.85938L24.1406 1.84375C23.0625 0.765625 21.3281 0.765625 20.25 1.84375L7.96875 14.125L7.5 18.3906C7.35938 19.6094 8.39062 20.6406 9.60938 20.5L13.875 20.0312L26.1562 7.75ZM21.5625 9.15625L12.8438 17.875L9.75 18.25L10.125 15.1562L18.8438 6.4375L21.5625 9.15625ZM24.5625 5.45312C24.7969 5.64062 24.7969 5.92188 24.6094 6.15625L23.1562 7.60938L20.4375 4.84375L21.8438 3.4375C22.0312 3.20312 22.3594 3.20312 22.5469 3.4375L24.5625 5.45312Z" fill="#484848"/>
</svg>
