<svg width="593" height="354" viewBox="0 0 593 354" fill="none" xmlns="http://www.w3.org/2000/svg">
<path d="M10.7559 11.6523H4.91602V16.0273H11.7422V18H2.44531V3.78125H11.6738V5.77344H4.91602V9.69922H10.7559V11.6523ZM17.3184 10.9102L19.3301 7.43359H21.9668L18.7344 12.6387L22.0742 18H19.457L17.3477 14.3867L15.248 18H12.6113L15.9512 12.6387L12.7285 7.43359H15.3457L17.3184 10.9102ZM29.8965 18C29.7923 17.7982 29.7012 17.4694 29.623 17.0137C28.8678 17.8014 27.9434 18.1953 26.8496 18.1953C25.7884 18.1953 24.9225 17.8926 24.252 17.2871C23.5814 16.6816 23.2461 15.9329 23.2461 15.041C23.2461 13.9147 23.6628 13.0521 24.4961 12.4531C25.3359 11.8477 26.5339 11.5449 28.0898 11.5449H29.5449V10.8516C29.5449 10.3047 29.3919 9.86849 29.0859 9.54297C28.7799 9.21094 28.3145 9.04492 27.6895 9.04492C27.1491 9.04492 26.7064 9.18164 26.3613 9.45508C26.0163 9.72201 25.8438 10.0638 25.8438 10.4805H23.4707C23.4707 9.90104 23.6628 9.36068 24.0469 8.85938C24.431 8.35156 24.9518 7.95443 25.6094 7.66797C26.2734 7.38151 27.0124 7.23828 27.8262 7.23828C29.0632 7.23828 30.0495 7.55078 30.7852 8.17578C31.5208 8.79427 31.8984 9.66667 31.918 10.793V15.5586C31.918 16.5091 32.0514 17.2676 32.3184 17.834V18H29.8965ZM27.2891 16.291C27.7578 16.291 28.1973 16.1771 28.6074 15.9492C29.0241 15.7214 29.3366 15.4154 29.5449 15.0312V13.0391H28.2656C27.3867 13.0391 26.7259 13.1921 26.2832 13.498C25.8405 13.804 25.6191 14.237 25.6191 14.7969C25.6191 15.2526 25.7689 15.6172 26.0684 15.8906C26.3743 16.1576 26.7812 16.291 27.2891 16.291ZM36.6348 7.43359L36.7031 8.53711C37.4453 7.67122 38.4609 7.23828 39.75 7.23828C41.1628 7.23828 42.1296 7.77865 42.6504 8.85938C43.4186 7.77865 44.4993 7.23828 45.8926 7.23828C47.0579 7.23828 47.9238 7.56055 48.4902 8.20508C49.0632 8.84961 49.3561 9.80013 49.3691 11.0566V18H46.9961V11.125C46.9961 10.4544 46.8496 9.96289 46.5566 9.65039C46.2637 9.33789 45.7786 9.18164 45.1016 9.18164C44.5612 9.18164 44.1185 9.32812 43.7734 9.62109C43.4349 9.90755 43.1973 10.2852 43.0605 10.7539L43.0703 18H40.6973V11.0469C40.6647 9.80339 40.0299 9.18164 38.793 9.18164C37.8424 9.18164 37.1686 9.56901 36.7715 10.3438V18H34.3984V7.43359H36.6348ZM61.0586 12.8242C61.0586 14.4583 60.6875 15.7637 59.9453 16.7402C59.2031 17.7103 58.207 18.1953 56.957 18.1953C55.7982 18.1953 54.8704 17.8145 54.1738 17.0527V22.0625H51.8008V7.43359H53.9883L54.0859 8.50781C54.7826 7.66146 55.7298 7.23828 56.9277 7.23828C58.2168 7.23828 59.2259 7.72005 59.9551 8.68359C60.6908 9.64062 61.0586 10.972 61.0586 12.6777V12.8242ZM58.6953 12.6191C58.6953 11.5645 58.4837 10.7279 58.0605 10.1094C57.6439 9.49089 57.0449 9.18164 56.2637 9.18164C55.2936 9.18164 54.597 9.58203 54.1738 10.3828V15.0703C54.6035 15.8906 55.3066 16.3008 56.2832 16.3008C57.0384 16.3008 57.6276 15.998 58.0508 15.3926C58.4805 14.7806 58.6953 13.8561 58.6953 12.6191ZM65.5996 18H63.2266V3H65.5996V18ZM72.8457 18.1953C71.3418 18.1953 70.1211 17.7233 69.1836 16.7793C68.2526 15.8288 67.7871 14.5658 67.7871 12.9902V12.6973C67.7871 11.6426 67.9889 10.7018 68.3926 9.875C68.8027 9.04167 69.3757 8.39388 70.1113 7.93164C70.847 7.4694 71.6673 7.23828 72.5723 7.23828C74.0111 7.23828 75.1211 7.69727 75.9023 8.61523C76.6901 9.5332 77.084 10.832 77.084 12.5117V13.4688H70.1797C70.2513 14.3411 70.541 15.0312 71.0488 15.5391C71.5632 16.0469 72.2077 16.3008 72.9824 16.3008C74.0697 16.3008 74.9551 15.8613 75.6387 14.9824L76.918 16.2031C76.4948 16.8346 75.9284 17.3262 75.2188 17.6777C74.5156 18.0228 73.7246 18.1953 72.8457 18.1953ZM72.5625 9.14258C71.9115 9.14258 71.3841 9.37044 70.9805 9.82617C70.5833 10.2819 70.3294 10.9167 70.2188 11.7305H74.7402V11.5547C74.6882 10.7604 74.4766 10.1615 74.1055 9.75781C73.7344 9.34766 73.2201 9.14258 72.5625 9.14258Z" fill="#4A4A4A"/>
<rect x="2" y="40" width="586" height="312" fill="white" stroke="#979797" stroke-width="3"/>
<rect x="3" y="41" width="584" height="60" fill="#E8E8E8" stroke="#979797"/>
<path d="M302.5 349.5V40.5" stroke="#979797" stroke-width="3" stroke-linecap="square"/>
<path d="M2.4983 100.5H587.502" stroke="#979797" stroke-width="3" stroke-linecap="square"/>
<path d="M36.7559 71.6523H30.916V76.0273H37.7422V78H28.4453V63.7812H37.6738V65.7734H30.916V69.6992H36.7559V71.6523ZM41.7559 67.4336L41.8242 68.5371C42.5664 67.6712 43.582 67.2383 44.8711 67.2383C46.2839 67.2383 47.2507 67.7786 47.7715 68.8594C48.5397 67.7786 49.6204 67.2383 51.0137 67.2383C52.179 67.2383 53.0449 67.5605 53.6113 68.2051C54.1842 68.8496 54.4772 69.8001 54.4902 71.0566V78H52.1172V71.125C52.1172 70.4544 51.9707 69.9629 51.6777 69.6504C51.3848 69.3379 50.8997 69.1816 50.2227 69.1816C49.6823 69.1816 49.2396 69.3281 48.8945 69.6211C48.556 69.9076 48.3184 70.2852 48.1816 70.7539L48.1914 78H45.8184V71.0469C45.7858 69.8034 45.151 69.1816 43.9141 69.1816C42.9635 69.1816 42.2897 69.569 41.8926 70.3438V78H39.5195V67.4336H41.7559ZM63.2402 78C63.1361 77.7982 63.0449 77.4694 62.9668 77.0137C62.2116 77.8014 61.2871 78.1953 60.1934 78.1953C59.1322 78.1953 58.2663 77.8926 57.5957 77.2871C56.9251 76.6816 56.5898 75.9329 56.5898 75.041C56.5898 73.9147 57.0065 73.0521 57.8398 72.4531C58.6797 71.8477 59.8776 71.5449 61.4336 71.5449H62.8887V70.8516C62.8887 70.3047 62.7357 69.8685 62.4297 69.543C62.1237 69.2109 61.6582 69.0449 61.0332 69.0449C60.4928 69.0449 60.0501 69.1816 59.7051 69.4551C59.36 69.722 59.1875 70.0638 59.1875 70.4805H56.8145C56.8145 69.901 57.0065 69.3607 57.3906 68.8594C57.7747 68.3516 58.2956 67.9544 58.9531 67.668C59.6172 67.3815 60.3561 67.2383 61.1699 67.2383C62.4069 67.2383 63.3932 67.5508 64.1289 68.1758C64.8646 68.7943 65.2422 69.6667 65.2617 70.793V75.5586C65.2617 76.5091 65.3952 77.2676 65.6621 77.834V78H63.2402ZM60.6328 76.291C61.1016 76.291 61.541 76.1771 61.9512 75.9492C62.3678 75.7214 62.6803 75.4154 62.8887 75.0312V73.0391H61.6094C60.7305 73.0391 60.0697 73.1921 59.627 73.498C59.1842 73.804 58.9629 74.237 58.9629 74.7969C58.9629 75.2526 59.1126 75.6172 59.4121 75.8906C59.7181 76.1576 60.125 76.291 60.6328 76.291ZM70.2715 78H67.8984V67.4336H70.2715V78ZM67.752 64.6895C67.752 64.3249 67.8659 64.0221 68.0938 63.7812C68.3281 63.5404 68.6602 63.4199 69.0898 63.4199C69.5195 63.4199 69.8516 63.5404 70.0859 63.7812C70.3203 64.0221 70.4375 64.3249 70.4375 64.6895C70.4375 65.0475 70.3203 65.347 70.0859 65.5879C69.8516 65.8223 69.5195 65.9395 69.0898 65.9395C68.6602 65.9395 68.3281 65.8223 68.0938 65.5879C67.8659 65.347 67.752 65.0475 67.752 64.6895ZM75.3887 78H73.0156V63H75.3887V78Z" fill="#4A4A4A"/>
<path d="M334.67 72.5215H331.916V78H329.445V63.7812H334.445C336.086 63.7812 337.352 64.1491 338.244 64.8848C339.136 65.6204 339.582 66.6849 339.582 68.0781C339.582 69.0286 339.351 69.8262 338.889 70.4707C338.433 71.1087 337.795 71.6003 336.975 71.9453L340.168 77.873V78H337.521L334.67 72.5215ZM331.916 70.5391H334.455C335.288 70.5391 335.939 70.3307 336.408 69.9141C336.877 69.4909 337.111 68.9147 337.111 68.1855C337.111 67.4238 336.893 66.8346 336.457 66.418C336.027 66.0013 335.383 65.7865 334.523 65.7734H331.916V70.5391ZM341.252 72.6191C341.252 71.584 341.457 70.653 341.867 69.8262C342.277 68.9928 342.854 68.3548 343.596 67.9121C344.338 67.4629 345.191 67.2383 346.154 67.2383C347.58 67.2383 348.736 67.6973 349.621 68.6152C350.513 69.5332 350.995 70.7507 351.066 72.2676L351.076 72.8242C351.076 73.8659 350.874 74.7969 350.471 75.6172C350.074 76.4375 349.501 77.0723 348.752 77.5215C348.01 77.9707 347.15 78.1953 346.174 78.1953C344.683 78.1953 343.488 77.7005 342.59 76.7109C341.698 75.7148 341.252 74.39 341.252 72.7363V72.6191ZM343.625 72.8242C343.625 73.9115 343.85 74.7643 344.299 75.3828C344.748 75.9948 345.373 76.3008 346.174 76.3008C346.975 76.3008 347.596 75.9883 348.039 75.3633C348.488 74.7383 348.713 73.8236 348.713 72.6191C348.713 71.5514 348.482 70.7051 348.02 70.0801C347.564 69.4551 346.942 69.1426 346.154 69.1426C345.38 69.1426 344.764 69.4518 344.309 70.0703C343.853 70.6823 343.625 71.6003 343.625 72.8242ZM355.607 78H353.234V63H355.607V78ZM362.854 78.1953C361.35 78.1953 360.129 77.7233 359.191 76.7793C358.26 75.8288 357.795 74.5658 357.795 72.9902V72.6973C357.795 71.6426 357.997 70.7018 358.4 69.875C358.811 69.0417 359.383 68.3939 360.119 67.9316C360.855 67.4694 361.675 67.2383 362.58 67.2383C364.019 67.2383 365.129 67.6973 365.91 68.6152C366.698 69.5332 367.092 70.832 367.092 72.5117V73.4688H360.188C360.259 74.3411 360.549 75.0312 361.057 75.5391C361.571 76.0469 362.215 76.3008 362.99 76.3008C364.077 76.3008 364.963 75.8613 365.646 74.9824L366.926 76.2031C366.503 76.8346 365.936 77.3262 365.227 77.6777C364.523 78.0228 363.732 78.1953 362.854 78.1953ZM362.57 69.1426C361.919 69.1426 361.392 69.3704 360.988 69.8262C360.591 70.2819 360.337 70.9167 360.227 71.7305H364.748V71.5547C364.696 70.7604 364.484 70.1615 364.113 69.7578C363.742 69.3477 363.228 69.1426 362.57 69.1426Z" fill="#4A4A4A"/>
<path d="M2.4983 150.5H587.502" stroke="#979797" stroke-width="3" stroke-linecap="square"/>
<path d="M2.4983 200.5H587.502" stroke="#979797" stroke-width="3" stroke-linecap="square"/>
<path d="M2.4983 250.5H587.502" stroke="#979797" stroke-width="3" stroke-linecap="square"/>
<path d="M2.4983 300.5H587.502" stroke="#979797" stroke-width="3" stroke-linecap="square"/>
<path d="M32.647 130C32.5688 129.849 32.5005 129.602 32.4419 129.26C31.8755 129.851 31.1821 130.146 30.3618 130.146C29.5659 130.146 28.9165 129.919 28.4136 129.465C27.9106 129.011 27.6592 128.45 27.6592 127.781C27.6592 126.936 27.9717 126.289 28.5967 125.84C29.2266 125.386 30.125 125.159 31.292 125.159H32.3833V124.639C32.3833 124.229 32.2686 123.901 32.0391 123.657C31.8096 123.408 31.4604 123.284 30.9917 123.284C30.5864 123.284 30.2544 123.386 29.9956 123.591C29.7368 123.792 29.6074 124.048 29.6074 124.36H27.8276C27.8276 123.926 27.9717 123.521 28.2598 123.145C28.5479 122.764 28.9385 122.466 29.4316 122.251C29.9297 122.036 30.4839 121.929 31.0942 121.929C32.022 121.929 32.7617 122.163 33.3135 122.632C33.8652 123.096 34.1484 123.75 34.1631 124.595V128.169C34.1631 128.882 34.2632 129.451 34.4634 129.875V130H32.647ZM30.6914 128.718C31.043 128.718 31.3726 128.633 31.6802 128.462C31.9927 128.291 32.2271 128.062 32.3833 127.773V126.279H31.4238C30.7646 126.279 30.269 126.394 29.937 126.624C29.605 126.853 29.439 127.178 29.439 127.598C29.439 127.939 29.5513 128.213 29.7759 128.418C30.0054 128.618 30.3105 128.718 30.6914 128.718ZM37.7007 122.075L37.752 122.903C38.3086 122.253 39.0703 121.929 40.0371 121.929C41.0967 121.929 41.8218 122.334 42.2124 123.145C42.7886 122.334 43.5991 121.929 44.644 121.929C45.5181 121.929 46.1675 122.17 46.5923 122.654C47.022 123.137 47.2417 123.85 47.2515 124.792V130H45.4717V124.844C45.4717 124.341 45.3618 123.972 45.1421 123.738C44.9224 123.503 44.5586 123.386 44.0508 123.386C43.6455 123.386 43.3135 123.496 43.0547 123.716C42.8008 123.931 42.6226 124.214 42.52 124.565L42.5273 130H40.7476V124.785C40.7231 123.853 40.2471 123.386 39.3193 123.386C38.6064 123.386 38.1011 123.677 37.8032 124.258V130H36.0234V122.075H37.7007ZM51.3091 120.149V122.075H52.708V123.394H51.3091V127.817C51.3091 128.12 51.3677 128.34 51.4849 128.477C51.6069 128.608 51.8218 128.674 52.1294 128.674C52.3345 128.674 52.542 128.65 52.752 128.601V129.978C52.3467 130.09 51.9561 130.146 51.5801 130.146C50.2129 130.146 49.5293 129.392 49.5293 127.883V123.394H48.2256V122.075H49.5293V120.149H51.3091ZM61.1309 130H53.9604V128.777L57.5127 124.902C58.0254 124.331 58.3892 123.855 58.604 123.474C58.8237 123.088 58.9336 122.703 58.9336 122.317C58.9336 121.809 58.7896 121.399 58.5015 121.086C58.2183 120.774 57.835 120.618 57.3516 120.618C56.7754 120.618 56.3286 120.793 56.0112 121.145C55.6938 121.497 55.5352 121.978 55.5352 122.588H53.7554C53.7554 121.938 53.9019 121.355 54.1948 120.837C54.4927 120.315 54.915 119.91 55.4619 119.622C56.0137 119.333 56.6484 119.189 57.3662 119.189C58.4014 119.189 59.2168 119.451 59.8125 119.973C60.4131 120.491 60.7134 121.208 60.7134 122.126C60.7134 122.659 60.562 123.218 60.2593 123.804C59.9614 124.385 59.4707 125.046 58.7871 125.789L56.1797 128.579H61.1309V130ZM62.9619 124.712L63.5405 119.336H69.2681V120.874H65.02L64.7271 123.423C65.2202 123.14 65.7769 122.998 66.397 122.998C67.4126 122.998 68.2012 123.323 68.7627 123.972C69.3291 124.622 69.6123 125.496 69.6123 126.594C69.6123 127.678 69.2998 128.542 68.6748 129.187C68.0498 129.827 67.1929 130.146 66.104 130.146C65.1274 130.146 64.3169 129.871 63.6724 129.319C63.0327 128.762 62.686 128.03 62.6323 127.122H64.3535C64.4219 127.639 64.6074 128.037 64.9102 128.315C65.2129 128.589 65.6084 128.726 66.0967 128.726C66.6436 128.726 67.0684 128.53 67.3711 128.14C67.6787 127.749 67.8325 127.217 67.8325 126.543C67.8325 125.894 67.6641 125.381 67.3271 125.005C66.9902 124.624 66.5264 124.434 65.9355 124.434C65.6133 124.434 65.3398 124.478 65.1152 124.565C64.8906 124.648 64.6465 124.814 64.3828 125.063L62.9619 124.712ZM77.7275 122.148C77.7275 122.671 77.5933 123.137 77.3247 123.547C77.0562 123.953 76.6899 124.272 76.2261 124.507C76.7827 124.766 77.21 125.12 77.5078 125.569C77.8105 126.018 77.9619 126.526 77.9619 127.092C77.9619 128.03 77.6445 128.774 77.0098 129.326C76.375 129.873 75.5303 130.146 74.4756 130.146C73.416 130.146 72.5664 129.871 71.9268 129.319C71.292 128.767 70.9746 128.025 70.9746 127.092C70.9746 126.521 71.126 126.008 71.4287 125.554C71.7314 125.1 72.1562 124.751 72.7031 124.507C72.2441 124.272 71.8804 123.953 71.6118 123.547C71.3481 123.137 71.2163 122.671 71.2163 122.148C71.2163 121.24 71.5093 120.52 72.0952 119.988C72.6812 119.456 73.4722 119.189 74.4683 119.189C75.4692 119.189 76.2627 119.456 76.8486 119.988C77.4346 120.52 77.7275 121.24 77.7275 122.148ZM76.1821 127.004C76.1821 126.477 76.0234 126.052 75.7061 125.73C75.3936 125.403 74.9785 125.239 74.4609 125.239C73.9434 125.239 73.5283 125.4 73.2158 125.723C72.9082 126.045 72.7544 126.472 72.7544 127.004C72.7544 127.527 72.9058 127.944 73.2085 128.257C73.5161 128.569 73.9385 128.726 74.4756 128.726C75.0127 128.726 75.4302 128.574 75.728 128.271C76.0308 127.969 76.1821 127.546 76.1821 127.004ZM75.9551 122.214C75.9551 121.75 75.8208 121.37 75.5522 121.072C75.2837 120.769 74.9224 120.618 74.4683 120.618C74.0142 120.618 73.6553 120.762 73.3916 121.05C73.1279 121.333 72.9961 121.721 72.9961 122.214C72.9961 122.703 73.1279 123.091 73.3916 123.379C73.6602 123.667 74.0215 123.811 74.4756 123.811C74.9297 123.811 75.2886 123.667 75.5522 123.379C75.8208 123.091 75.9551 122.703 75.9551 122.214ZM91.4897 126.206C91.4312 127.427 91.1309 128.391 90.5889 129.099C90.0469 129.802 89.312 130.154 88.3843 130.154C87.5005 130.154 86.9097 129.778 86.6118 129.026C86.3628 129.397 86.0723 129.675 85.7402 129.861C85.4131 130.046 85.0688 130.139 84.7075 130.139C83.9946 130.139 83.4526 129.846 83.0815 129.26C82.7153 128.674 82.5762 127.891 82.6641 126.909C82.7422 126.113 82.9351 125.396 83.2427 124.756C83.5552 124.116 83.9482 123.623 84.4219 123.276C84.9004 122.925 85.4082 122.749 85.9453 122.749C86.3555 122.749 86.7168 122.8 87.0293 122.903C87.3467 123.005 87.7178 123.218 88.1426 123.54L87.7617 127.664C87.6689 128.63 87.9473 129.114 88.5967 129.114C89.0947 129.114 89.5024 128.848 89.8198 128.315C90.1421 127.778 90.3179 127.085 90.3472 126.235C90.4302 124.434 90.0811 123.054 89.2998 122.097C88.5234 121.14 87.354 120.662 85.7915 120.662C84.8345 120.662 83.9849 120.901 83.2427 121.379C82.5054 121.858 81.9194 122.551 81.4849 123.459C81.0503 124.363 80.811 125.393 80.7671 126.55C80.7085 127.727 80.8477 128.743 81.1846 129.597C81.5264 130.447 82.0464 131.094 82.7446 131.538C83.4478 131.982 84.3047 132.205 85.3154 132.205C85.7256 132.205 86.1528 132.156 86.5972 132.058C87.0464 131.96 87.4272 131.829 87.7397 131.663L88.0181 132.666C87.7202 132.861 87.3174 133.018 86.8096 133.135C86.3066 133.257 85.7988 133.318 85.2861 133.318C84.0459 133.318 82.9814 133.054 82.0928 132.527C81.2041 132.004 80.5376 131.245 80.0933 130.249C79.6343 129.219 79.4316 127.986 79.4854 126.55C79.5439 125.212 79.8442 124.011 80.3862 122.947C80.9282 121.877 81.668 121.047 82.6055 120.457C83.5479 119.866 84.6196 119.57 85.8208 119.57C87.0366 119.57 88.0815 119.839 88.9556 120.376C89.8345 120.908 90.4912 121.677 90.9258 122.683C91.3604 123.684 91.5483 124.858 91.4897 126.206ZM84.0996 126.909C84.0361 127.573 84.0947 128.079 84.2754 128.425C84.4561 128.767 84.7441 128.938 85.1396 128.938C85.4033 128.938 85.6523 128.823 85.8867 128.594C86.1211 128.359 86.3115 128.04 86.458 127.634L86.7876 124.023C86.5435 123.931 86.3066 123.884 86.0771 123.884C85.5352 123.884 85.0933 124.141 84.7515 124.653C84.4097 125.161 84.1924 125.913 84.0996 126.909ZM96.3237 128.726C96.7681 128.726 97.1367 128.596 97.4297 128.337C97.7227 128.079 97.8789 127.759 97.8984 127.378H99.5757C99.5562 127.871 99.4023 128.333 99.1143 128.762C98.8262 129.187 98.4355 129.524 97.9424 129.773C97.4492 130.022 96.917 130.146 96.3457 130.146C95.2373 130.146 94.3584 129.788 93.709 129.07C93.0596 128.352 92.7349 127.361 92.7349 126.096V125.913C92.7349 124.707 93.0571 123.743 93.7017 123.02C94.3462 122.292 95.2251 121.929 96.3384 121.929C97.2808 121.929 98.0474 122.205 98.6382 122.756C99.2339 123.303 99.5464 124.023 99.5757 124.917H97.8984C97.8789 124.463 97.7227 124.089 97.4297 123.796C97.1416 123.503 96.7729 123.357 96.3237 123.357C95.7476 123.357 95.3032 123.567 94.9907 123.987C94.6782 124.402 94.5195 125.034 94.5146 125.884V126.169C94.5146 127.029 94.6685 127.671 94.9761 128.096C95.2886 128.516 95.7378 128.726 96.3237 128.726ZM100.586 125.964C100.586 125.188 100.74 124.49 101.048 123.87C101.355 123.245 101.788 122.766 102.344 122.434C102.901 122.097 103.541 121.929 104.263 121.929C105.333 121.929 106.199 122.273 106.863 122.961C107.532 123.65 107.894 124.563 107.947 125.701L107.955 126.118C107.955 126.899 107.803 127.598 107.5 128.213C107.203 128.828 106.773 129.304 106.211 129.641C105.655 129.978 105.01 130.146 104.278 130.146C103.16 130.146 102.264 129.775 101.59 129.033C100.921 128.286 100.586 127.292 100.586 126.052V125.964ZM102.366 126.118C102.366 126.934 102.535 127.573 102.872 128.037C103.208 128.496 103.677 128.726 104.278 128.726C104.878 128.726 105.345 128.491 105.677 128.022C106.014 127.554 106.182 126.868 106.182 125.964C106.182 125.164 106.009 124.529 105.662 124.06C105.32 123.591 104.854 123.357 104.263 123.357C103.682 123.357 103.221 123.589 102.879 124.053C102.537 124.512 102.366 125.2 102.366 126.118ZM113.609 123.701C113.375 123.662 113.133 123.643 112.884 123.643C112.068 123.643 111.519 123.955 111.236 124.58V130H109.456V122.075H111.155L111.199 122.961C111.629 122.273 112.225 121.929 112.986 121.929C113.24 121.929 113.45 121.963 113.616 122.031L113.609 123.701ZM116.385 122.075L116.436 122.991C117.022 122.283 117.791 121.929 118.743 121.929C120.394 121.929 121.233 122.874 121.263 124.763V130H119.483V124.866C119.483 124.363 119.373 123.992 119.153 123.752C118.938 123.508 118.584 123.386 118.091 123.386C117.374 123.386 116.839 123.711 116.487 124.36V130H114.708V122.075H116.385ZM126.573 130.146C125.445 130.146 124.529 129.792 123.826 129.084C123.128 128.372 122.779 127.424 122.779 126.243V126.023C122.779 125.232 122.93 124.526 123.233 123.906C123.541 123.281 123.97 122.795 124.522 122.449C125.074 122.102 125.689 121.929 126.368 121.929C127.447 121.929 128.279 122.273 128.865 122.961C129.456 123.65 129.751 124.624 129.751 125.884V126.602H124.573C124.627 127.256 124.844 127.773 125.225 128.154C125.611 128.535 126.094 128.726 126.675 128.726C127.491 128.726 128.155 128.396 128.667 127.737L129.627 128.652C129.31 129.126 128.885 129.495 128.353 129.758C127.825 130.017 127.232 130.146 126.573 130.146ZM126.36 123.357C125.872 123.357 125.477 123.528 125.174 123.87C124.876 124.211 124.686 124.688 124.603 125.298H127.994V125.166C127.955 124.57 127.796 124.121 127.518 123.818C127.239 123.511 126.854 123.357 126.36 123.357ZM133.033 130H131.253V118.75H133.033V130ZM136.871 130H135.091V118.75H136.871V130ZM139.925 128.125C140.257 128.125 140.513 128.22 140.694 128.411C140.875 128.596 140.965 128.831 140.965 129.114C140.965 129.392 140.875 129.624 140.694 129.81C140.513 129.99 140.257 130.081 139.925 130.081C139.607 130.081 139.356 129.99 139.17 129.81C138.985 129.629 138.892 129.397 138.892 129.114C138.892 128.831 138.982 128.596 139.163 128.411C139.344 128.22 139.598 128.125 139.925 128.125ZM146.495 130.146C145.367 130.146 144.451 129.792 143.748 129.084C143.05 128.372 142.701 127.424 142.701 126.243V126.023C142.701 125.232 142.852 124.526 143.155 123.906C143.462 123.281 143.892 122.795 144.444 122.449C144.996 122.102 145.611 121.929 146.29 121.929C147.369 121.929 148.201 122.273 148.787 122.961C149.378 123.65 149.673 124.624 149.673 125.884V126.602H144.495C144.549 127.256 144.766 127.773 145.147 128.154C145.533 128.535 146.016 128.726 146.597 128.726C147.413 128.726 148.077 128.396 148.589 127.737L149.549 128.652C149.231 129.126 148.807 129.495 148.274 129.758C147.747 130.017 147.154 130.146 146.495 130.146ZM146.282 123.357C145.794 123.357 145.398 123.528 145.096 123.87C144.798 124.211 144.607 124.688 144.524 125.298H147.916V125.166C147.876 124.57 147.718 124.121 147.439 123.818C147.161 123.511 146.775 123.357 146.282 123.357ZM150.728 125.979C150.728 124.758 151.011 123.779 151.578 123.042C152.144 122.3 152.903 121.929 153.855 121.929C154.695 121.929 155.374 122.222 155.892 122.808V118.75H157.671V130H156.06L155.972 129.18C155.44 129.824 154.729 130.146 153.841 130.146C152.913 130.146 152.161 129.773 151.585 129.026C151.014 128.279 150.728 127.263 150.728 125.979ZM152.508 126.133C152.508 126.938 152.662 127.568 152.969 128.022C153.282 128.472 153.724 128.696 154.295 128.696C155.022 128.696 155.555 128.372 155.892 127.722V124.338C155.564 123.704 155.037 123.386 154.31 123.386C153.733 123.386 153.289 123.616 152.977 124.075C152.664 124.529 152.508 125.215 152.508 126.133ZM164.329 129.224C163.807 129.839 163.064 130.146 162.103 130.146C161.243 130.146 160.591 129.895 160.147 129.392C159.708 128.889 159.488 128.162 159.488 127.209V122.075H161.268V127.188C161.268 128.193 161.685 128.696 162.52 128.696C163.384 128.696 163.968 128.386 164.271 127.766V122.075H166.05V130H164.373L164.329 129.224Z" fill="#4A4A4A"/>
<path d="M337.551 130H335.705V125.261H330.937V130H329.084V119.336H330.937V123.774H335.705V119.336H337.551V130ZM343.066 130.146C341.938 130.146 341.022 129.792 340.319 129.084C339.621 128.372 339.272 127.424 339.272 126.243V126.023C339.272 125.232 339.423 124.526 339.726 123.906C340.034 123.281 340.463 122.795 341.015 122.449C341.567 122.102 342.182 121.929 342.861 121.929C343.94 121.929 344.772 122.273 345.358 122.961C345.949 123.65 346.245 124.624 346.245 125.884V126.602H341.066C341.12 127.256 341.337 127.773 341.718 128.154C342.104 128.535 342.587 128.726 343.168 128.726C343.984 128.726 344.648 128.396 345.161 127.737L346.12 128.652C345.803 129.126 345.378 129.495 344.846 129.758C344.318 130.017 343.725 130.146 343.066 130.146ZM342.854 123.357C342.365 123.357 341.97 123.528 341.667 123.87C341.369 124.211 341.179 124.688 341.096 125.298H344.487V125.166C344.448 124.57 344.289 124.121 344.011 123.818C343.732 123.511 343.347 123.357 342.854 123.357ZM352.368 130C352.29 129.849 352.221 129.602 352.163 129.26C351.596 129.851 350.903 130.146 350.083 130.146C349.287 130.146 348.637 129.919 348.134 129.465C347.631 129.011 347.38 128.45 347.38 127.781C347.38 126.936 347.692 126.289 348.317 125.84C348.947 125.386 349.846 125.159 351.013 125.159H352.104V124.639C352.104 124.229 351.989 123.901 351.76 123.657C351.53 123.408 351.181 123.284 350.712 123.284C350.307 123.284 349.975 123.386 349.716 123.591C349.458 123.792 349.328 124.048 349.328 124.36H347.548C347.548 123.926 347.692 123.521 347.98 123.145C348.269 122.764 348.659 122.466 349.152 122.251C349.65 122.036 350.205 121.929 350.815 121.929C351.743 121.929 352.482 122.163 353.034 122.632C353.586 123.096 353.869 123.75 353.884 124.595V128.169C353.884 128.882 353.984 129.451 354.184 129.875V130H352.368ZM350.412 128.718C350.764 128.718 351.093 128.633 351.401 128.462C351.713 128.291 351.948 128.062 352.104 127.773V126.279H351.145C350.485 126.279 349.99 126.394 349.658 126.624C349.326 126.853 349.16 127.178 349.16 127.598C349.16 127.939 349.272 128.213 349.497 128.418C349.726 128.618 350.031 128.718 350.412 128.718ZM355.415 125.979C355.415 124.758 355.698 123.779 356.264 123.042C356.831 122.3 357.59 121.929 358.542 121.929C359.382 121.929 360.061 122.222 360.578 122.808V118.75H362.358V130H360.747L360.659 129.18C360.126 129.824 359.416 130.146 358.527 130.146C357.6 130.146 356.848 129.773 356.271 129.026C355.7 128.279 355.415 127.263 355.415 125.979ZM357.194 126.133C357.194 126.938 357.348 127.568 357.656 128.022C357.968 128.472 358.41 128.696 358.981 128.696C359.709 128.696 360.241 128.372 360.578 127.722V124.338C360.251 123.704 359.724 123.386 358.996 123.386C358.42 123.386 357.976 123.616 357.663 124.075C357.351 124.529 357.194 125.215 357.194 126.133ZM375.388 120.83H372.062V130H370.224V120.83H366.928V119.336H375.388V120.83ZM381.884 127.517H377.753L376.889 130H374.963L378.991 119.336H380.654L384.689 130H382.756L381.884 127.517ZM378.273 126.023H381.364L379.819 121.599L378.273 126.023Z" fill="#4A4A4A"/>
<path d="M337.551 181H335.705V176.261H330.937V181H329.084V170.336H330.937V174.774H335.705V170.336H337.551V181ZM343.066 181.146C341.938 181.146 341.022 180.792 340.319 180.084C339.621 179.372 339.272 178.424 339.272 177.243V177.023C339.272 176.232 339.423 175.526 339.726 174.906C340.034 174.281 340.463 173.795 341.015 173.449C341.567 173.102 342.182 172.929 342.861 172.929C343.94 172.929 344.772 173.273 345.358 173.961C345.949 174.65 346.245 175.624 346.245 176.884V177.602H341.066C341.12 178.256 341.337 178.773 341.718 179.154C342.104 179.535 342.587 179.726 343.168 179.726C343.984 179.726 344.648 179.396 345.161 178.737L346.12 179.652C345.803 180.126 345.378 180.495 344.846 180.758C344.318 181.017 343.725 181.146 343.066 181.146ZM342.854 174.357C342.365 174.357 341.97 174.528 341.667 174.87C341.369 175.211 341.179 175.688 341.096 176.298H344.487V176.166C344.448 175.57 344.289 175.121 344.011 174.818C343.732 174.511 343.347 174.357 342.854 174.357ZM352.368 181C352.29 180.849 352.221 180.602 352.163 180.26C351.596 180.851 350.903 181.146 350.083 181.146C349.287 181.146 348.637 180.919 348.134 180.465C347.631 180.011 347.38 179.45 347.38 178.781C347.38 177.936 347.692 177.289 348.317 176.84C348.947 176.386 349.846 176.159 351.013 176.159H352.104V175.639C352.104 175.229 351.989 174.901 351.76 174.657C351.53 174.408 351.181 174.284 350.712 174.284C350.307 174.284 349.975 174.386 349.716 174.591C349.458 174.792 349.328 175.048 349.328 175.36H347.548C347.548 174.926 347.692 174.521 347.98 174.145C348.269 173.764 348.659 173.466 349.152 173.251C349.65 173.036 350.205 172.929 350.815 172.929C351.743 172.929 352.482 173.163 353.034 173.632C353.586 174.096 353.869 174.75 353.884 175.595V179.169C353.884 179.882 353.984 180.451 354.184 180.875V181H352.368ZM350.412 179.718C350.764 179.718 351.093 179.633 351.401 179.462C351.713 179.291 351.948 179.062 352.104 178.773V177.279H351.145C350.485 177.279 349.99 177.394 349.658 177.624C349.326 177.853 349.16 178.178 349.16 178.598C349.16 178.939 349.272 179.213 349.497 179.418C349.726 179.618 350.031 179.718 350.412 179.718ZM355.415 176.979C355.415 175.758 355.698 174.779 356.264 174.042C356.831 173.3 357.59 172.929 358.542 172.929C359.382 172.929 360.061 173.222 360.578 173.808V169.75H362.358V181H360.747L360.659 180.18C360.126 180.824 359.416 181.146 358.527 181.146C357.6 181.146 356.848 180.773 356.271 180.026C355.7 179.279 355.415 178.263 355.415 176.979ZM357.194 177.133C357.194 177.938 357.348 178.568 357.656 179.022C357.968 179.472 358.41 179.696 358.981 179.696C359.709 179.696 360.241 179.372 360.578 178.722V175.338C360.251 174.704 359.724 174.386 358.996 174.386C358.42 174.386 357.976 174.616 357.663 175.075C357.351 175.529 357.194 176.215 357.194 177.133ZM375.388 171.83H372.062V181H370.224V171.83H366.928V170.336H375.388V171.83ZM381.884 178.517H377.753L376.889 181H374.963L378.991 170.336H380.654L384.689 181H382.756L381.884 178.517ZM378.273 177.023H381.364L379.819 172.599L378.273 177.023Z" fill="#4A4A4A"/>
<path d="M337.221 226.528C337.114 227.666 336.694 228.555 335.961 229.194C335.229 229.829 334.255 230.146 333.039 230.146C332.189 230.146 331.44 229.946 330.791 229.546C330.146 229.141 329.648 228.567 329.296 227.825C328.945 227.083 328.762 226.221 328.747 225.239V224.243C328.747 223.237 328.925 222.351 329.282 221.584C329.638 220.818 330.148 220.227 330.812 219.812C331.481 219.397 332.253 219.189 333.127 219.189C334.304 219.189 335.251 219.509 335.969 220.149C336.687 220.789 337.104 221.692 337.221 222.859H335.375C335.288 222.092 335.063 221.541 334.702 221.204C334.345 220.862 333.82 220.691 333.127 220.691C332.321 220.691 331.701 220.986 331.267 221.577C330.837 222.163 330.617 223.025 330.607 224.163V225.107C330.607 226.26 330.812 227.139 331.223 227.744C331.638 228.35 332.243 228.652 333.039 228.652C333.767 228.652 334.313 228.489 334.68 228.162C335.046 227.834 335.278 227.29 335.375 226.528H337.221ZM338.378 225.964C338.378 225.188 338.532 224.49 338.84 223.87C339.147 223.245 339.58 222.766 340.136 222.434C340.693 222.097 341.333 221.929 342.055 221.929C343.125 221.929 343.991 222.273 344.655 222.961C345.324 223.65 345.686 224.563 345.739 225.701L345.747 226.118C345.747 226.899 345.595 227.598 345.292 228.213C344.995 228.828 344.565 229.304 344.003 229.641C343.447 229.978 342.802 230.146 342.07 230.146C340.952 230.146 340.056 229.775 339.382 229.033C338.713 228.286 338.378 227.292 338.378 226.052V225.964ZM340.158 226.118C340.158 226.934 340.327 227.573 340.664 228.037C341 228.496 341.469 228.726 342.07 228.726C342.67 228.726 343.137 228.491 343.469 228.022C343.806 227.554 343.974 226.868 343.974 225.964C343.974 225.164 343.801 224.529 343.454 224.06C343.112 223.591 342.646 223.357 342.055 223.357C341.474 223.357 341.013 223.589 340.671 224.053C340.329 224.512 340.158 225.2 340.158 226.118ZM348.903 222.075L348.955 222.991C349.541 222.283 350.31 221.929 351.262 221.929C352.912 221.929 353.752 222.874 353.781 224.763V230H352.001V224.866C352.001 224.363 351.892 223.992 351.672 223.752C351.457 223.508 351.103 223.386 350.61 223.386C349.892 223.386 349.357 223.711 349.006 224.36V230H347.226V222.075H348.903ZM360.043 227.847C360.043 227.529 359.912 227.288 359.648 227.122C359.389 226.956 358.957 226.809 358.352 226.682C357.746 226.555 357.241 226.394 356.835 226.199C355.947 225.769 355.502 225.146 355.502 224.331C355.502 223.647 355.791 223.076 356.367 222.617C356.943 222.158 357.675 221.929 358.564 221.929C359.511 221.929 360.275 222.163 360.856 222.632C361.442 223.101 361.735 223.708 361.735 224.456H359.956C359.956 224.114 359.829 223.831 359.575 223.606C359.321 223.376 358.984 223.262 358.564 223.262C358.173 223.262 357.854 223.352 357.604 223.533C357.36 223.713 357.238 223.955 357.238 224.258C357.238 224.531 357.353 224.744 357.583 224.895C357.812 225.046 358.276 225.2 358.974 225.356C359.672 225.508 360.219 225.691 360.615 225.906C361.015 226.116 361.311 226.37 361.501 226.667C361.696 226.965 361.794 227.327 361.794 227.751C361.794 228.464 361.499 229.043 360.908 229.487C360.317 229.927 359.543 230.146 358.586 230.146C357.937 230.146 357.358 230.029 356.85 229.795C356.342 229.561 355.947 229.238 355.664 228.828C355.38 228.418 355.239 227.976 355.239 227.502H356.967C356.992 227.922 357.15 228.247 357.443 228.477C357.736 228.701 358.125 228.813 358.608 228.813C359.077 228.813 359.433 228.726 359.677 228.55C359.921 228.369 360.043 228.135 360.043 227.847ZM368.151 229.224C367.629 229.839 366.887 230.146 365.925 230.146C365.065 230.146 364.414 229.895 363.969 229.392C363.53 228.889 363.31 228.162 363.31 227.209V222.075H365.09V227.188C365.09 228.193 365.507 228.696 366.342 228.696C367.207 228.696 367.79 228.386 368.093 227.766V222.075H369.873V230H368.195L368.151 229.224ZM373.579 230H371.799V218.75H373.579V230ZM377.753 220.149V222.075H379.152V223.394H377.753V227.817C377.753 228.12 377.812 228.34 377.929 228.477C378.051 228.608 378.266 228.674 378.574 228.674C378.779 228.674 378.986 228.65 379.196 228.601V229.978C378.791 230.09 378.4 230.146 378.024 230.146C376.657 230.146 375.974 229.392 375.974 227.883V223.394H374.67V222.075H375.974V220.149H377.753ZM385.253 230C385.175 229.849 385.107 229.602 385.048 229.26C384.482 229.851 383.789 230.146 382.968 230.146C382.172 230.146 381.523 229.919 381.02 229.465C380.517 229.011 380.266 228.45 380.266 227.781C380.266 226.936 380.578 226.289 381.203 225.84C381.833 225.386 382.731 225.159 383.898 225.159H384.99V224.639C384.99 224.229 384.875 223.901 384.646 223.657C384.416 223.408 384.067 223.284 383.598 223.284C383.193 223.284 382.861 223.386 382.602 223.591C382.343 223.792 382.214 224.048 382.214 224.36H380.434C380.434 223.926 380.578 223.521 380.866 223.145C381.154 222.764 381.545 222.466 382.038 222.251C382.536 222.036 383.09 221.929 383.701 221.929C384.628 221.929 385.368 222.163 385.92 222.632C386.472 223.096 386.755 223.75 386.77 224.595V228.169C386.77 228.882 386.87 229.451 387.07 229.875V230H385.253ZM383.298 228.718C383.649 228.718 383.979 228.633 384.287 228.462C384.599 228.291 384.833 228.062 384.99 227.773V226.279H384.03C383.371 226.279 382.875 226.394 382.543 226.624C382.211 226.853 382.045 227.178 382.045 227.598C382.045 227.939 382.158 228.213 382.382 228.418C382.612 228.618 382.917 228.718 383.298 228.718ZM390.285 222.075L390.336 222.991C390.922 222.283 391.691 221.929 392.644 221.929C394.294 221.929 395.134 222.874 395.163 224.763V230H393.383V224.866C393.383 224.363 393.273 223.992 393.054 223.752C392.839 223.508 392.485 223.386 391.992 223.386C391.274 223.386 390.739 223.711 390.388 224.36V230H388.608V222.075H390.285ZM399.213 220.149V222.075H400.612V223.394H399.213V227.817C399.213 228.12 399.272 228.34 399.389 228.477C399.511 228.608 399.726 228.674 400.034 228.674C400.239 228.674 400.446 228.65 400.656 228.601V229.978C400.251 230.09 399.86 230.146 399.484 230.146C398.117 230.146 397.434 229.392 397.434 227.883V223.394H396.13V222.075H397.434V220.149H399.213Z" fill="#4A4A4A"/>
<path d="M334.658 278.253C334.658 277.785 334.492 277.423 334.16 277.169C333.833 276.916 333.239 276.659 332.38 276.4C331.521 276.142 330.837 275.854 330.329 275.536C329.357 274.926 328.872 274.13 328.872 273.148C328.872 272.289 329.221 271.581 329.919 271.024C330.622 270.468 331.533 270.189 332.651 270.189C333.393 270.189 334.055 270.326 334.636 270.6C335.217 270.873 335.673 271.264 336.005 271.771C336.337 272.274 336.503 272.833 336.503 273.449H334.658C334.658 272.892 334.482 272.458 334.13 272.145C333.784 271.828 333.286 271.669 332.636 271.669C332.031 271.669 331.56 271.798 331.223 272.057C330.891 272.316 330.725 272.677 330.725 273.141C330.725 273.532 330.905 273.859 331.267 274.123C331.628 274.381 332.224 274.635 333.054 274.884C333.884 275.128 334.55 275.409 335.053 275.727C335.556 276.039 335.925 276.4 336.159 276.811C336.394 277.216 336.511 277.692 336.511 278.239C336.511 279.127 336.169 279.835 335.485 280.363C334.807 280.885 333.884 281.146 332.717 281.146C331.945 281.146 331.235 281.005 330.585 280.722C329.941 280.434 329.438 280.038 329.077 279.535C328.72 279.032 328.542 278.446 328.542 277.777H330.395C330.395 278.383 330.595 278.852 330.996 279.184C331.396 279.516 331.97 279.682 332.717 279.682C333.361 279.682 333.845 279.552 334.167 279.293C334.494 279.03 334.658 278.683 334.658 278.253ZM340.195 271.149V273.075H341.594V274.394H340.195V278.817C340.195 279.12 340.253 279.34 340.371 279.477C340.493 279.608 340.708 279.674 341.015 279.674C341.22 279.674 341.428 279.65 341.638 279.601V280.978C341.232 281.09 340.842 281.146 340.466 281.146C339.099 281.146 338.415 280.392 338.415 278.883V274.394H337.111V273.075H338.415V271.149H340.195ZM347.761 280.224C347.238 280.839 346.496 281.146 345.534 281.146C344.675 281.146 344.023 280.895 343.579 280.392C343.139 279.889 342.919 279.162 342.919 278.209V273.075H344.699V278.188C344.699 279.193 345.117 279.696 345.952 279.696C346.816 279.696 347.399 279.386 347.702 278.766V273.075H349.482V281H347.805L347.761 280.224ZM350.961 276.979C350.961 275.758 351.245 274.779 351.811 274.042C352.377 273.3 353.137 272.929 354.089 272.929C354.929 272.929 355.607 273.222 356.125 273.808V269.75H357.905V281H356.293L356.206 280.18C355.673 280.824 354.963 281.146 354.074 281.146C353.146 281.146 352.395 280.773 351.818 280.026C351.247 279.279 350.961 278.263 350.961 276.979ZM352.741 277.133C352.741 277.938 352.895 278.568 353.203 279.022C353.515 279.472 353.957 279.696 354.528 279.696C355.256 279.696 355.788 279.372 356.125 278.722V275.338C355.798 274.704 355.271 274.386 354.543 274.386C353.967 274.386 353.522 274.616 353.21 275.075C352.897 275.529 352.741 276.215 352.741 277.133ZM363.251 281.146C362.124 281.146 361.208 280.792 360.505 280.084C359.807 279.372 359.458 278.424 359.458 277.243V277.023C359.458 276.232 359.609 275.526 359.912 274.906C360.219 274.281 360.649 273.795 361.201 273.449C361.752 273.102 362.368 272.929 363.046 272.929C364.125 272.929 364.958 273.273 365.544 273.961C366.135 274.65 366.43 275.624 366.43 276.884V277.602H361.252C361.306 278.256 361.523 278.773 361.904 279.154C362.29 279.535 362.773 279.726 363.354 279.726C364.169 279.726 364.833 279.396 365.346 278.737L366.306 279.652C365.988 280.126 365.563 280.495 365.031 280.758C364.504 281.017 363.911 281.146 363.251 281.146ZM363.039 274.357C362.551 274.357 362.155 274.528 361.853 274.87C361.555 275.211 361.364 275.688 361.281 276.298H364.672V276.166C364.633 275.57 364.475 275.121 364.196 274.818C363.918 274.511 363.532 274.357 363.039 274.357ZM369.47 273.075L369.521 273.991C370.107 273.283 370.876 272.929 371.828 272.929C373.479 272.929 374.318 273.874 374.348 275.763V281H372.568V275.866C372.568 275.363 372.458 274.992 372.238 274.752C372.023 274.508 371.669 274.386 371.176 274.386C370.458 274.386 369.924 274.711 369.572 275.36V281H367.792V273.075H369.47ZM378.398 271.149V273.075H379.797V274.394H378.398V278.817C378.398 279.12 378.457 279.34 378.574 279.477C378.696 279.608 378.911 279.674 379.218 279.674C379.423 279.674 379.631 279.65 379.841 279.601V280.978C379.436 281.09 379.045 281.146 378.669 281.146C377.302 281.146 376.618 280.392 376.618 278.883V274.394H375.314V273.075H376.618V271.149H378.398Z" fill="#4A4A4A"/>
<path d="M336.789 320.83H333.464V330H331.625V320.83H328.33V319.336H336.789V320.83ZM343.286 327.517H339.155L338.291 330H336.364L340.393 319.336H342.055L346.091 330H344.157L343.286 327.517ZM339.675 326.023H342.766L341.22 321.599L339.675 326.023Z" fill="#4A4A4A"/>
<path d="M32.647 181C32.5688 180.849 32.5005 180.602 32.4419 180.26C31.8755 180.851 31.1821 181.146 30.3618 181.146C29.5659 181.146 28.9165 180.919 28.4136 180.465C27.9106 180.011 27.6592 179.45 27.6592 178.781C27.6592 177.936 27.9717 177.289 28.5967 176.84C29.2266 176.386 30.125 176.159 31.292 176.159H32.3833V175.639C32.3833 175.229 32.2686 174.901 32.0391 174.657C31.8096 174.408 31.4604 174.284 30.9917 174.284C30.5864 174.284 30.2544 174.386 29.9956 174.591C29.7368 174.792 29.6074 175.048 29.6074 175.36H27.8276C27.8276 174.926 27.9717 174.521 28.2598 174.145C28.5479 173.764 28.9385 173.466 29.4316 173.251C29.9297 173.036 30.4839 172.929 31.0942 172.929C32.022 172.929 32.7617 173.163 33.3135 173.632C33.8652 174.096 34.1484 174.75 34.1631 175.595V179.169C34.1631 179.882 34.2632 180.451 34.4634 180.875V181H32.647ZM30.6914 179.718C31.043 179.718 31.3726 179.633 31.6802 179.462C31.9927 179.291 32.2271 179.062 32.3833 178.773V177.279H31.4238C30.7646 177.279 30.269 177.394 29.937 177.624C29.605 177.853 29.439 178.178 29.439 178.598C29.439 178.939 29.5513 179.213 29.7759 179.418C30.0054 179.618 30.3105 179.718 30.6914 179.718ZM37.7007 173.075L37.752 173.903C38.3086 173.253 39.0703 172.929 40.0371 172.929C41.0967 172.929 41.8218 173.334 42.2124 174.145C42.7886 173.334 43.5991 172.929 44.644 172.929C45.5181 172.929 46.1675 173.17 46.5923 173.654C47.022 174.137 47.2417 174.85 47.2515 175.792V181H45.4717V175.844C45.4717 175.341 45.3618 174.972 45.1421 174.738C44.9224 174.503 44.5586 174.386 44.0508 174.386C43.6455 174.386 43.3135 174.496 43.0547 174.716C42.8008 174.931 42.6226 175.214 42.52 175.565L42.5273 181H40.7476V175.785C40.7231 174.853 40.2471 174.386 39.3193 174.386C38.6064 174.386 38.1011 174.677 37.8032 175.258V181H36.0234V173.075H37.7007ZM51.3091 171.149V173.075H52.708V174.394H51.3091V178.817C51.3091 179.12 51.3677 179.34 51.4849 179.477C51.6069 179.608 51.8218 179.674 52.1294 179.674C52.3345 179.674 52.542 179.65 52.752 179.601V180.978C52.3467 181.09 51.9561 181.146 51.5801 181.146C50.2129 181.146 49.5293 180.392 49.5293 178.883V174.394H48.2256V173.075H49.5293V171.149H51.3091ZM61.1309 181H53.9604V179.777L57.5127 175.902C58.0254 175.331 58.3892 174.855 58.604 174.474C58.8237 174.088 58.9336 173.703 58.9336 173.317C58.9336 172.809 58.7896 172.399 58.5015 172.086C58.2183 171.774 57.835 171.618 57.3516 171.618C56.7754 171.618 56.3286 171.793 56.0112 172.145C55.6938 172.497 55.5352 172.978 55.5352 173.588H53.7554C53.7554 172.938 53.9019 172.355 54.1948 171.837C54.4927 171.315 54.915 170.91 55.4619 170.622C56.0137 170.333 56.6484 170.189 57.3662 170.189C58.4014 170.189 59.2168 170.451 59.8125 170.973C60.4131 171.491 60.7134 172.208 60.7134 173.126C60.7134 173.659 60.562 174.218 60.2593 174.804C59.9614 175.385 59.4707 176.046 58.7871 176.789L56.1797 179.579H61.1309V181ZM62.9619 175.712L63.5405 170.336H69.2681V171.874H65.02L64.7271 174.423C65.2202 174.14 65.7769 173.998 66.397 173.998C67.4126 173.998 68.2012 174.323 68.7627 174.972C69.3291 175.622 69.6123 176.496 69.6123 177.594C69.6123 178.678 69.2998 179.542 68.6748 180.187C68.0498 180.827 67.1929 181.146 66.104 181.146C65.1274 181.146 64.3169 180.871 63.6724 180.319C63.0327 179.762 62.686 179.03 62.6323 178.122H64.3535C64.4219 178.639 64.6074 179.037 64.9102 179.315C65.2129 179.589 65.6084 179.726 66.0967 179.726C66.6436 179.726 67.0684 179.53 67.3711 179.14C67.6787 178.749 67.8325 178.217 67.8325 177.543C67.8325 176.894 67.6641 176.381 67.3271 176.005C66.9902 175.624 66.5264 175.434 65.9355 175.434C65.6133 175.434 65.3398 175.478 65.1152 175.565C64.8906 175.648 64.6465 175.814 64.3828 176.063L62.9619 175.712ZM77.7275 173.148C77.7275 173.671 77.5933 174.137 77.3247 174.547C77.0562 174.953 76.6899 175.272 76.2261 175.507C76.7827 175.766 77.21 176.12 77.5078 176.569C77.8105 177.018 77.9619 177.526 77.9619 178.092C77.9619 179.03 77.6445 179.774 77.0098 180.326C76.375 180.873 75.5303 181.146 74.4756 181.146C73.416 181.146 72.5664 180.871 71.9268 180.319C71.292 179.767 70.9746 179.025 70.9746 178.092C70.9746 177.521 71.126 177.008 71.4287 176.554C71.7314 176.1 72.1562 175.751 72.7031 175.507C72.2441 175.272 71.8804 174.953 71.6118 174.547C71.3481 174.137 71.2163 173.671 71.2163 173.148C71.2163 172.24 71.5093 171.52 72.0952 170.988C72.6812 170.456 73.4722 170.189 74.4683 170.189C75.4692 170.189 76.2627 170.456 76.8486 170.988C77.4346 171.52 77.7275 172.24 77.7275 173.148ZM76.1821 178.004C76.1821 177.477 76.0234 177.052 75.7061 176.73C75.3936 176.403 74.9785 176.239 74.4609 176.239C73.9434 176.239 73.5283 176.4 73.2158 176.723C72.9082 177.045 72.7544 177.472 72.7544 178.004C72.7544 178.527 72.9058 178.944 73.2085 179.257C73.5161 179.569 73.9385 179.726 74.4756 179.726C75.0127 179.726 75.4302 179.574 75.728 179.271C76.0308 178.969 76.1821 178.546 76.1821 178.004ZM75.9551 173.214C75.9551 172.75 75.8208 172.37 75.5522 172.072C75.2837 171.769 74.9224 171.618 74.4683 171.618C74.0142 171.618 73.6553 171.762 73.3916 172.05C73.1279 172.333 72.9961 172.721 72.9961 173.214C72.9961 173.703 73.1279 174.091 73.3916 174.379C73.6602 174.667 74.0215 174.811 74.4756 174.811C74.9297 174.811 75.2886 174.667 75.5522 174.379C75.8208 174.091 75.9551 173.703 75.9551 173.214ZM91.4897 177.206C91.4312 178.427 91.1309 179.391 90.5889 180.099C90.0469 180.802 89.312 181.154 88.3843 181.154C87.5005 181.154 86.9097 180.778 86.6118 180.026C86.3628 180.397 86.0723 180.675 85.7402 180.861C85.4131 181.046 85.0688 181.139 84.7075 181.139C83.9946 181.139 83.4526 180.846 83.0815 180.26C82.7153 179.674 82.5762 178.891 82.6641 177.909C82.7422 177.113 82.9351 176.396 83.2427 175.756C83.5552 175.116 83.9482 174.623 84.4219 174.276C84.9004 173.925 85.4082 173.749 85.9453 173.749C86.3555 173.749 86.7168 173.8 87.0293 173.903C87.3467 174.005 87.7178 174.218 88.1426 174.54L87.7617 178.664C87.6689 179.63 87.9473 180.114 88.5967 180.114C89.0947 180.114 89.5024 179.848 89.8198 179.315C90.1421 178.778 90.3179 178.085 90.3472 177.235C90.4302 175.434 90.0811 174.054 89.2998 173.097C88.5234 172.14 87.354 171.662 85.7915 171.662C84.8345 171.662 83.9849 171.901 83.2427 172.379C82.5054 172.858 81.9194 173.551 81.4849 174.459C81.0503 175.363 80.811 176.393 80.7671 177.55C80.7085 178.727 80.8477 179.743 81.1846 180.597C81.5264 181.447 82.0464 182.094 82.7446 182.538C83.4478 182.982 84.3047 183.205 85.3154 183.205C85.7256 183.205 86.1528 183.156 86.5972 183.058C87.0464 182.96 87.4272 182.829 87.7397 182.663L88.0181 183.666C87.7202 183.861 87.3174 184.018 86.8096 184.135C86.3066 184.257 85.7988 184.318 85.2861 184.318C84.0459 184.318 82.9814 184.054 82.0928 183.527C81.2041 183.004 80.5376 182.245 80.0933 181.249C79.6343 180.219 79.4316 178.986 79.4854 177.55C79.5439 176.212 79.8442 175.011 80.3862 173.947C80.9282 172.877 81.668 172.047 82.6055 171.457C83.5479 170.866 84.6196 170.57 85.8208 170.57C87.0366 170.57 88.0815 170.839 88.9556 171.376C89.8345 171.908 90.4912 172.677 90.9258 173.683C91.3604 174.684 91.5483 175.858 91.4897 177.206ZM84.0996 177.909C84.0361 178.573 84.0947 179.079 84.2754 179.425C84.4561 179.767 84.7441 179.938 85.1396 179.938C85.4033 179.938 85.6523 179.823 85.8867 179.594C86.1211 179.359 86.3115 179.04 86.458 178.634L86.7876 175.023C86.5435 174.931 86.3066 174.884 86.0771 174.884C85.5352 174.884 85.0933 175.141 84.7515 175.653C84.4097 176.161 84.1924 176.913 84.0996 177.909ZM96.3237 179.726C96.7681 179.726 97.1367 179.596 97.4297 179.337C97.7227 179.079 97.8789 178.759 97.8984 178.378H99.5757C99.5562 178.871 99.4023 179.333 99.1143 179.762C98.8262 180.187 98.4355 180.524 97.9424 180.773C97.4492 181.022 96.917 181.146 96.3457 181.146C95.2373 181.146 94.3584 180.788 93.709 180.07C93.0596 179.352 92.7349 178.361 92.7349 177.096V176.913C92.7349 175.707 93.0571 174.743 93.7017 174.02C94.3462 173.292 95.2251 172.929 96.3384 172.929C97.2808 172.929 98.0474 173.205 98.6382 173.756C99.2339 174.303 99.5464 175.023 99.5757 175.917H97.8984C97.8789 175.463 97.7227 175.089 97.4297 174.796C97.1416 174.503 96.7729 174.357 96.3237 174.357C95.7476 174.357 95.3032 174.567 94.9907 174.987C94.6782 175.402 94.5195 176.034 94.5146 176.884V177.169C94.5146 178.029 94.6685 178.671 94.9761 179.096C95.2886 179.516 95.7378 179.726 96.3237 179.726ZM100.586 176.964C100.586 176.188 100.74 175.49 101.048 174.87C101.355 174.245 101.788 173.766 102.344 173.434C102.901 173.097 103.541 172.929 104.263 172.929C105.333 172.929 106.199 173.273 106.863 173.961C107.532 174.65 107.894 175.563 107.947 176.701L107.955 177.118C107.955 177.899 107.803 178.598 107.5 179.213C107.203 179.828 106.773 180.304 106.211 180.641C105.655 180.978 105.01 181.146 104.278 181.146C103.16 181.146 102.264 180.775 101.59 180.033C100.921 179.286 100.586 178.292 100.586 177.052V176.964ZM102.366 177.118C102.366 177.934 102.535 178.573 102.872 179.037C103.208 179.496 103.677 179.726 104.278 179.726C104.878 179.726 105.345 179.491 105.677 179.022C106.014 178.554 106.182 177.868 106.182 176.964C106.182 176.164 106.009 175.529 105.662 175.06C105.32 174.591 104.854 174.357 104.263 174.357C103.682 174.357 103.221 174.589 102.879 175.053C102.537 175.512 102.366 176.2 102.366 177.118ZM113.609 174.701C113.375 174.662 113.133 174.643 112.884 174.643C112.068 174.643 111.519 174.955 111.236 175.58V181H109.456V173.075H111.155L111.199 173.961C111.629 173.273 112.225 172.929 112.986 172.929C113.24 172.929 113.45 172.963 113.616 173.031L113.609 174.701ZM116.385 173.075L116.436 173.991C117.022 173.283 117.791 172.929 118.743 172.929C120.394 172.929 121.233 173.874 121.263 175.763V181H119.483V175.866C119.483 175.363 119.373 174.992 119.153 174.752C118.938 174.508 118.584 174.386 118.091 174.386C117.374 174.386 116.839 174.711 116.487 175.36V181H114.708V173.075H116.385ZM126.573 181.146C125.445 181.146 124.529 180.792 123.826 180.084C123.128 179.372 122.779 178.424 122.779 177.243V177.023C122.779 176.232 122.93 175.526 123.233 174.906C123.541 174.281 123.97 173.795 124.522 173.449C125.074 173.102 125.689 172.929 126.368 172.929C127.447 172.929 128.279 173.273 128.865 173.961C129.456 174.65 129.751 175.624 129.751 176.884V177.602H124.573C124.627 178.256 124.844 178.773 125.225 179.154C125.611 179.535 126.094 179.726 126.675 179.726C127.491 179.726 128.155 179.396 128.667 178.737L129.627 179.652C129.31 180.126 128.885 180.495 128.353 180.758C127.825 181.017 127.232 181.146 126.573 181.146ZM126.36 174.357C125.872 174.357 125.477 174.528 125.174 174.87C124.876 175.211 124.686 175.688 124.603 176.298H127.994V176.166C127.955 175.57 127.796 175.121 127.518 174.818C127.239 174.511 126.854 174.357 126.36 174.357ZM133.033 181H131.253V169.75H133.033V181ZM136.871 181H135.091V169.75H136.871V181ZM139.925 179.125C140.257 179.125 140.513 179.22 140.694 179.411C140.875 179.596 140.965 179.831 140.965 180.114C140.965 180.392 140.875 180.624 140.694 180.81C140.513 180.99 140.257 181.081 139.925 181.081C139.607 181.081 139.356 180.99 139.17 180.81C138.985 180.629 138.892 180.397 138.892 180.114C138.892 179.831 138.982 179.596 139.163 179.411C139.344 179.22 139.598 179.125 139.925 179.125ZM146.495 181.146C145.367 181.146 144.451 180.792 143.748 180.084C143.05 179.372 142.701 178.424 142.701 177.243V177.023C142.701 176.232 142.852 175.526 143.155 174.906C143.462 174.281 143.892 173.795 144.444 173.449C144.996 173.102 145.611 172.929 146.29 172.929C147.369 172.929 148.201 173.273 148.787 173.961C149.378 174.65 149.673 175.624 149.673 176.884V177.602H144.495C144.549 178.256 144.766 178.773 145.147 179.154C145.533 179.535 146.016 179.726 146.597 179.726C147.413 179.726 148.077 179.396 148.589 178.737L149.549 179.652C149.231 180.126 148.807 180.495 148.274 180.758C147.747 181.017 147.154 181.146 146.495 181.146ZM146.282 174.357C145.794 174.357 145.398 174.528 145.096 174.87C144.798 175.211 144.607 175.688 144.524 176.298H147.916V176.166C147.876 175.57 147.718 175.121 147.439 174.818C147.161 174.511 146.775 174.357 146.282 174.357ZM150.728 176.979C150.728 175.758 151.011 174.779 151.578 174.042C152.144 173.3 152.903 172.929 153.855 172.929C154.695 172.929 155.374 173.222 155.892 173.808V169.75H157.671V181H156.06L155.972 180.18C155.44 180.824 154.729 181.146 153.841 181.146C152.913 181.146 152.161 180.773 151.585 180.026C151.014 179.279 150.728 178.263 150.728 176.979ZM152.508 177.133C152.508 177.938 152.662 178.568 152.969 179.022C153.282 179.472 153.724 179.696 154.295 179.696C155.022 179.696 155.555 179.372 155.892 178.722V175.338C155.564 174.704 155.037 174.386 154.31 174.386C153.733 174.386 153.289 174.616 152.977 175.075C152.664 175.529 152.508 176.215 152.508 177.133ZM164.329 180.224C163.807 180.839 163.064 181.146 162.103 181.146C161.243 181.146 160.591 180.895 160.147 180.392C159.708 179.889 159.488 179.162 159.488 178.209V173.075H161.268V178.188C161.268 179.193 161.685 179.696 162.52 179.696C163.384 179.696 163.968 179.386 164.271 178.766V173.075H166.05V181H164.373L164.329 180.224Z" fill="#4A4A4A"/>
<path d="M32.647 231C32.5688 230.849 32.5005 230.602 32.4419 230.26C31.8755 230.851 31.1821 231.146 30.3618 231.146C29.5659 231.146 28.9165 230.919 28.4136 230.465C27.9106 230.011 27.6592 229.45 27.6592 228.781C27.6592 227.936 27.9717 227.289 28.5967 226.84C29.2266 226.386 30.125 226.159 31.292 226.159H32.3833V225.639C32.3833 225.229 32.2686 224.901 32.0391 224.657C31.8096 224.408 31.4604 224.284 30.9917 224.284C30.5864 224.284 30.2544 224.386 29.9956 224.591C29.7368 224.792 29.6074 225.048 29.6074 225.36H27.8276C27.8276 224.926 27.9717 224.521 28.2598 224.145C28.5479 223.764 28.9385 223.466 29.4316 223.251C29.9297 223.036 30.4839 222.929 31.0942 222.929C32.022 222.929 32.7617 223.163 33.3135 223.632C33.8652 224.096 34.1484 224.75 34.1631 225.595V229.169C34.1631 229.882 34.2632 230.451 34.4634 230.875V231H32.647ZM30.6914 229.718C31.043 229.718 31.3726 229.633 31.6802 229.462C31.9927 229.291 32.2271 229.062 32.3833 228.773V227.279H31.4238C30.7646 227.279 30.269 227.394 29.937 227.624C29.605 227.853 29.439 228.178 29.439 228.598C29.439 228.939 29.5513 229.213 29.7759 229.418C30.0054 229.618 30.3105 229.718 30.6914 229.718ZM37.7007 223.075L37.752 223.903C38.3086 223.253 39.0703 222.929 40.0371 222.929C41.0967 222.929 41.8218 223.334 42.2124 224.145C42.7886 223.334 43.5991 222.929 44.644 222.929C45.5181 222.929 46.1675 223.17 46.5923 223.654C47.022 224.137 47.2417 224.85 47.2515 225.792V231H45.4717V225.844C45.4717 225.341 45.3618 224.972 45.1421 224.738C44.9224 224.503 44.5586 224.386 44.0508 224.386C43.6455 224.386 43.3135 224.496 43.0547 224.716C42.8008 224.931 42.6226 225.214 42.52 225.565L42.5273 231H40.7476V225.785C40.7231 224.853 40.2471 224.386 39.3193 224.386C38.6064 224.386 38.1011 224.677 37.8032 225.258V231H36.0234V223.075H37.7007ZM51.3091 221.149V223.075H52.708V224.394H51.3091V228.817C51.3091 229.12 51.3677 229.34 51.4849 229.477C51.6069 229.608 51.8218 229.674 52.1294 229.674C52.3345 229.674 52.542 229.65 52.752 229.601V230.978C52.3467 231.09 51.9561 231.146 51.5801 231.146C50.2129 231.146 49.5293 230.392 49.5293 228.883V224.394H48.2256V223.075H49.5293V221.149H51.3091ZM61.1309 231H53.9604V229.777L57.5127 225.902C58.0254 225.331 58.3892 224.855 58.604 224.474C58.8237 224.088 58.9336 223.703 58.9336 223.317C58.9336 222.809 58.7896 222.399 58.5015 222.086C58.2183 221.774 57.835 221.618 57.3516 221.618C56.7754 221.618 56.3286 221.793 56.0112 222.145C55.6938 222.497 55.5352 222.978 55.5352 223.588H53.7554C53.7554 222.938 53.9019 222.355 54.1948 221.837C54.4927 221.315 54.915 220.91 55.4619 220.622C56.0137 220.333 56.6484 220.189 57.3662 220.189C58.4014 220.189 59.2168 220.451 59.8125 220.973C60.4131 221.491 60.7134 222.208 60.7134 223.126C60.7134 223.659 60.562 224.218 60.2593 224.804C59.9614 225.385 59.4707 226.046 58.7871 226.789L56.1797 229.579H61.1309V231ZM62.9619 225.712L63.5405 220.336H69.2681V221.874H65.02L64.7271 224.423C65.2202 224.14 65.7769 223.998 66.397 223.998C67.4126 223.998 68.2012 224.323 68.7627 224.972C69.3291 225.622 69.6123 226.496 69.6123 227.594C69.6123 228.678 69.2998 229.542 68.6748 230.187C68.0498 230.827 67.1929 231.146 66.104 231.146C65.1274 231.146 64.3169 230.871 63.6724 230.319C63.0327 229.762 62.686 229.03 62.6323 228.122H64.3535C64.4219 228.639 64.6074 229.037 64.9102 229.315C65.2129 229.589 65.6084 229.726 66.0967 229.726C66.6436 229.726 67.0684 229.53 67.3711 229.14C67.6787 228.749 67.8325 228.217 67.8325 227.543C67.8325 226.894 67.6641 226.381 67.3271 226.005C66.9902 225.624 66.5264 225.434 65.9355 225.434C65.6133 225.434 65.3398 225.478 65.1152 225.565C64.8906 225.648 64.6465 225.814 64.3828 226.063L62.9619 225.712ZM77.7275 223.148C77.7275 223.671 77.5933 224.137 77.3247 224.547C77.0562 224.953 76.6899 225.272 76.2261 225.507C76.7827 225.766 77.21 226.12 77.5078 226.569C77.8105 227.018 77.9619 227.526 77.9619 228.092C77.9619 229.03 77.6445 229.774 77.0098 230.326C76.375 230.873 75.5303 231.146 74.4756 231.146C73.416 231.146 72.5664 230.871 71.9268 230.319C71.292 229.767 70.9746 229.025 70.9746 228.092C70.9746 227.521 71.126 227.008 71.4287 226.554C71.7314 226.1 72.1562 225.751 72.7031 225.507C72.2441 225.272 71.8804 224.953 71.6118 224.547C71.3481 224.137 71.2163 223.671 71.2163 223.148C71.2163 222.24 71.5093 221.52 72.0952 220.988C72.6812 220.456 73.4722 220.189 74.4683 220.189C75.4692 220.189 76.2627 220.456 76.8486 220.988C77.4346 221.52 77.7275 222.24 77.7275 223.148ZM76.1821 228.004C76.1821 227.477 76.0234 227.052 75.7061 226.73C75.3936 226.403 74.9785 226.239 74.4609 226.239C73.9434 226.239 73.5283 226.4 73.2158 226.723C72.9082 227.045 72.7544 227.472 72.7544 228.004C72.7544 228.527 72.9058 228.944 73.2085 229.257C73.5161 229.569 73.9385 229.726 74.4756 229.726C75.0127 229.726 75.4302 229.574 75.728 229.271C76.0308 228.969 76.1821 228.546 76.1821 228.004ZM75.9551 223.214C75.9551 222.75 75.8208 222.37 75.5522 222.072C75.2837 221.769 74.9224 221.618 74.4683 221.618C74.0142 221.618 73.6553 221.762 73.3916 222.05C73.1279 222.333 72.9961 222.721 72.9961 223.214C72.9961 223.703 73.1279 224.091 73.3916 224.379C73.6602 224.667 74.0215 224.811 74.4756 224.811C74.9297 224.811 75.2886 224.667 75.5522 224.379C75.8208 224.091 75.9551 223.703 75.9551 223.214ZM91.4897 227.206C91.4312 228.427 91.1309 229.391 90.5889 230.099C90.0469 230.802 89.312 231.154 88.3843 231.154C87.5005 231.154 86.9097 230.778 86.6118 230.026C86.3628 230.397 86.0723 230.675 85.7402 230.861C85.4131 231.046 85.0688 231.139 84.7075 231.139C83.9946 231.139 83.4526 230.846 83.0815 230.26C82.7153 229.674 82.5762 228.891 82.6641 227.909C82.7422 227.113 82.9351 226.396 83.2427 225.756C83.5552 225.116 83.9482 224.623 84.4219 224.276C84.9004 223.925 85.4082 223.749 85.9453 223.749C86.3555 223.749 86.7168 223.8 87.0293 223.903C87.3467 224.005 87.7178 224.218 88.1426 224.54L87.7617 228.664C87.6689 229.63 87.9473 230.114 88.5967 230.114C89.0947 230.114 89.5024 229.848 89.8198 229.315C90.1421 228.778 90.3179 228.085 90.3472 227.235C90.4302 225.434 90.0811 224.054 89.2998 223.097C88.5234 222.14 87.354 221.662 85.7915 221.662C84.8345 221.662 83.9849 221.901 83.2427 222.379C82.5054 222.858 81.9194 223.551 81.4849 224.459C81.0503 225.363 80.811 226.393 80.7671 227.55C80.7085 228.727 80.8477 229.743 81.1846 230.597C81.5264 231.447 82.0464 232.094 82.7446 232.538C83.4478 232.982 84.3047 233.205 85.3154 233.205C85.7256 233.205 86.1528 233.156 86.5972 233.058C87.0464 232.96 87.4272 232.829 87.7397 232.663L88.0181 233.666C87.7202 233.861 87.3174 234.018 86.8096 234.135C86.3066 234.257 85.7988 234.318 85.2861 234.318C84.0459 234.318 82.9814 234.054 82.0928 233.527C81.2041 233.004 80.5376 232.245 80.0933 231.249C79.6343 230.219 79.4316 228.986 79.4854 227.55C79.5439 226.212 79.8442 225.011 80.3862 223.947C80.9282 222.877 81.668 222.047 82.6055 221.457C83.5479 220.866 84.6196 220.57 85.8208 220.57C87.0366 220.57 88.0815 220.839 88.9556 221.376C89.8345 221.908 90.4912 222.677 90.9258 223.683C91.3604 224.684 91.5483 225.858 91.4897 227.206ZM84.0996 227.909C84.0361 228.573 84.0947 229.079 84.2754 229.425C84.4561 229.767 84.7441 229.938 85.1396 229.938C85.4033 229.938 85.6523 229.823 85.8867 229.594C86.1211 229.359 86.3115 229.04 86.458 228.634L86.7876 225.023C86.5435 224.931 86.3066 224.884 86.0771 224.884C85.5352 224.884 85.0933 225.141 84.7515 225.653C84.4097 226.161 84.1924 226.913 84.0996 227.909ZM96.3237 229.726C96.7681 229.726 97.1367 229.596 97.4297 229.337C97.7227 229.079 97.8789 228.759 97.8984 228.378H99.5757C99.5562 228.871 99.4023 229.333 99.1143 229.762C98.8262 230.187 98.4355 230.524 97.9424 230.773C97.4492 231.022 96.917 231.146 96.3457 231.146C95.2373 231.146 94.3584 230.788 93.709 230.07C93.0596 229.352 92.7349 228.361 92.7349 227.096V226.913C92.7349 225.707 93.0571 224.743 93.7017 224.02C94.3462 223.292 95.2251 222.929 96.3384 222.929C97.2808 222.929 98.0474 223.205 98.6382 223.756C99.2339 224.303 99.5464 225.023 99.5757 225.917H97.8984C97.8789 225.463 97.7227 225.089 97.4297 224.796C97.1416 224.503 96.7729 224.357 96.3237 224.357C95.7476 224.357 95.3032 224.567 94.9907 224.987C94.6782 225.402 94.5195 226.034 94.5146 226.884V227.169C94.5146 228.029 94.6685 228.671 94.9761 229.096C95.2886 229.516 95.7378 229.726 96.3237 229.726ZM100.586 226.964C100.586 226.188 100.74 225.49 101.048 224.87C101.355 224.245 101.788 223.766 102.344 223.434C102.901 223.097 103.541 222.929 104.263 222.929C105.333 222.929 106.199 223.273 106.863 223.961C107.532 224.65 107.894 225.563 107.947 226.701L107.955 227.118C107.955 227.899 107.803 228.598 107.5 229.213C107.203 229.828 106.773 230.304 106.211 230.641C105.655 230.978 105.01 231.146 104.278 231.146C103.16 231.146 102.264 230.775 101.59 230.033C100.921 229.286 100.586 228.292 100.586 227.052V226.964ZM102.366 227.118C102.366 227.934 102.535 228.573 102.872 229.037C103.208 229.496 103.677 229.726 104.278 229.726C104.878 229.726 105.345 229.491 105.677 229.022C106.014 228.554 106.182 227.868 106.182 226.964C106.182 226.164 106.009 225.529 105.662 225.06C105.32 224.591 104.854 224.357 104.263 224.357C103.682 224.357 103.221 224.589 102.879 225.053C102.537 225.512 102.366 226.2 102.366 227.118ZM113.609 224.701C113.375 224.662 113.133 224.643 112.884 224.643C112.068 224.643 111.519 224.955 111.236 225.58V231H109.456V223.075H111.155L111.199 223.961C111.629 223.273 112.225 222.929 112.986 222.929C113.24 222.929 113.45 222.963 113.616 223.031L113.609 224.701ZM116.385 223.075L116.436 223.991C117.022 223.283 117.791 222.929 118.743 222.929C120.394 222.929 121.233 223.874 121.263 225.763V231H119.483V225.866C119.483 225.363 119.373 224.992 119.153 224.752C118.938 224.508 118.584 224.386 118.091 224.386C117.374 224.386 116.839 224.711 116.487 225.36V231H114.708V223.075H116.385ZM126.573 231.146C125.445 231.146 124.529 230.792 123.826 230.084C123.128 229.372 122.779 228.424 122.779 227.243V227.023C122.779 226.232 122.93 225.526 123.233 224.906C123.541 224.281 123.97 223.795 124.522 223.449C125.074 223.102 125.689 222.929 126.368 222.929C127.447 222.929 128.279 223.273 128.865 223.961C129.456 224.65 129.751 225.624 129.751 226.884V227.602H124.573C124.627 228.256 124.844 228.773 125.225 229.154C125.611 229.535 126.094 229.726 126.675 229.726C127.491 229.726 128.155 229.396 128.667 228.737L129.627 229.652C129.31 230.126 128.885 230.495 128.353 230.758C127.825 231.017 127.232 231.146 126.573 231.146ZM126.36 224.357C125.872 224.357 125.477 224.528 125.174 224.87C124.876 225.211 124.686 225.688 124.603 226.298H127.994V226.166C127.955 225.57 127.796 225.121 127.518 224.818C127.239 224.511 126.854 224.357 126.36 224.357ZM133.033 231H131.253V219.75H133.033V231ZM136.871 231H135.091V219.75H136.871V231ZM139.925 229.125C140.257 229.125 140.513 229.22 140.694 229.411C140.875 229.596 140.965 229.831 140.965 230.114C140.965 230.392 140.875 230.624 140.694 230.81C140.513 230.99 140.257 231.081 139.925 231.081C139.607 231.081 139.356 230.99 139.17 230.81C138.985 230.629 138.892 230.397 138.892 230.114C138.892 229.831 138.982 229.596 139.163 229.411C139.344 229.22 139.598 229.125 139.925 229.125ZM146.495 231.146C145.367 231.146 144.451 230.792 143.748 230.084C143.05 229.372 142.701 228.424 142.701 227.243V227.023C142.701 226.232 142.852 225.526 143.155 224.906C143.462 224.281 143.892 223.795 144.444 223.449C144.996 223.102 145.611 222.929 146.29 222.929C147.369 222.929 148.201 223.273 148.787 223.961C149.378 224.65 149.673 225.624 149.673 226.884V227.602H144.495C144.549 228.256 144.766 228.773 145.147 229.154C145.533 229.535 146.016 229.726 146.597 229.726C147.413 229.726 148.077 229.396 148.589 228.737L149.549 229.652C149.231 230.126 148.807 230.495 148.274 230.758C147.747 231.017 147.154 231.146 146.495 231.146ZM146.282 224.357C145.794 224.357 145.398 224.528 145.096 224.87C144.798 225.211 144.607 225.688 144.524 226.298H147.916V226.166C147.876 225.57 147.718 225.121 147.439 224.818C147.161 224.511 146.775 224.357 146.282 224.357ZM150.728 226.979C150.728 225.758 151.011 224.779 151.578 224.042C152.144 223.3 152.903 222.929 153.855 222.929C154.695 222.929 155.374 223.222 155.892 223.808V219.75H157.671V231H156.06L155.972 230.18C155.44 230.824 154.729 231.146 153.841 231.146C152.913 231.146 152.161 230.773 151.585 230.026C151.014 229.279 150.728 228.263 150.728 226.979ZM152.508 227.133C152.508 227.938 152.662 228.568 152.969 229.022C153.282 229.472 153.724 229.696 154.295 229.696C155.022 229.696 155.555 229.372 155.892 228.722V225.338C155.564 224.704 155.037 224.386 154.31 224.386C153.733 224.386 153.289 224.616 152.977 225.075C152.664 225.529 152.508 226.215 152.508 227.133ZM164.329 230.224C163.807 230.839 163.064 231.146 162.103 231.146C161.243 231.146 160.591 230.895 160.147 230.392C159.708 229.889 159.488 229.162 159.488 228.209V223.075H161.268V228.188C161.268 229.193 161.685 229.696 162.52 229.696C163.384 229.696 163.968 229.386 164.271 228.766V223.075H166.05V231H164.373L164.329 230.224Z" fill="#4A4A4A"/>
<path d="M32.647 281C32.5688 280.849 32.5005 280.602 32.4419 280.26C31.8755 280.851 31.1821 281.146 30.3618 281.146C29.5659 281.146 28.9165 280.919 28.4136 280.465C27.9106 280.011 27.6592 279.45 27.6592 278.781C27.6592 277.936 27.9717 277.289 28.5967 276.84C29.2266 276.386 30.125 276.159 31.292 276.159H32.3833V275.639C32.3833 275.229 32.2686 274.901 32.0391 274.657C31.8096 274.408 31.4604 274.284 30.9917 274.284C30.5864 274.284 30.2544 274.386 29.9956 274.591C29.7368 274.792 29.6074 275.048 29.6074 275.36H27.8276C27.8276 274.926 27.9717 274.521 28.2598 274.145C28.5479 273.764 28.9385 273.466 29.4316 273.251C29.9297 273.036 30.4839 272.929 31.0942 272.929C32.022 272.929 32.7617 273.163 33.3135 273.632C33.8652 274.096 34.1484 274.75 34.1631 275.595V279.169C34.1631 279.882 34.2632 280.451 34.4634 280.875V281H32.647ZM30.6914 279.718C31.043 279.718 31.3726 279.633 31.6802 279.462C31.9927 279.291 32.2271 279.062 32.3833 278.773V277.279H31.4238C30.7646 277.279 30.269 277.394 29.937 277.624C29.605 277.853 29.439 278.178 29.439 278.598C29.439 278.939 29.5513 279.213 29.7759 279.418C30.0054 279.618 30.3105 279.718 30.6914 279.718ZM37.7007 273.075L37.752 273.903C38.3086 273.253 39.0703 272.929 40.0371 272.929C41.0967 272.929 41.8218 273.334 42.2124 274.145C42.7886 273.334 43.5991 272.929 44.644 272.929C45.5181 272.929 46.1675 273.17 46.5923 273.654C47.022 274.137 47.2417 274.85 47.2515 275.792V281H45.4717V275.844C45.4717 275.341 45.3618 274.972 45.1421 274.738C44.9224 274.503 44.5586 274.386 44.0508 274.386C43.6455 274.386 43.3135 274.496 43.0547 274.716C42.8008 274.931 42.6226 275.214 42.52 275.565L42.5273 281H40.7476V275.785C40.7231 274.853 40.2471 274.386 39.3193 274.386C38.6064 274.386 38.1011 274.677 37.8032 275.258V281H36.0234V273.075H37.7007ZM51.3091 271.149V273.075H52.708V274.394H51.3091V278.817C51.3091 279.12 51.3677 279.34 51.4849 279.477C51.6069 279.608 51.8218 279.674 52.1294 279.674C52.3345 279.674 52.542 279.65 52.752 279.601V280.978C52.3467 281.09 51.9561 281.146 51.5801 281.146C50.2129 281.146 49.5293 280.392 49.5293 278.883V274.394H48.2256V273.075H49.5293V271.149H51.3091ZM61.1309 281H53.9604V279.777L57.5127 275.902C58.0254 275.331 58.3892 274.855 58.604 274.474C58.8237 274.088 58.9336 273.703 58.9336 273.317C58.9336 272.809 58.7896 272.399 58.5015 272.086C58.2183 271.774 57.835 271.618 57.3516 271.618C56.7754 271.618 56.3286 271.793 56.0112 272.145C55.6938 272.497 55.5352 272.978 55.5352 273.588H53.7554C53.7554 272.938 53.9019 272.355 54.1948 271.837C54.4927 271.315 54.915 270.91 55.4619 270.622C56.0137 270.333 56.6484 270.189 57.3662 270.189C58.4014 270.189 59.2168 270.451 59.8125 270.973C60.4131 271.491 60.7134 272.208 60.7134 273.126C60.7134 273.659 60.562 274.218 60.2593 274.804C59.9614 275.385 59.4707 276.046 58.7871 276.789L56.1797 279.579H61.1309V281ZM62.9619 275.712L63.5405 270.336H69.2681V271.874H65.02L64.7271 274.423C65.2202 274.14 65.7769 273.998 66.397 273.998C67.4126 273.998 68.2012 274.323 68.7627 274.972C69.3291 275.622 69.6123 276.496 69.6123 277.594C69.6123 278.678 69.2998 279.542 68.6748 280.187C68.0498 280.827 67.1929 281.146 66.104 281.146C65.1274 281.146 64.3169 280.871 63.6724 280.319C63.0327 279.762 62.686 279.03 62.6323 278.122H64.3535C64.4219 278.639 64.6074 279.037 64.9102 279.315C65.2129 279.589 65.6084 279.726 66.0967 279.726C66.6436 279.726 67.0684 279.53 67.3711 279.14C67.6787 278.749 67.8325 278.217 67.8325 277.543C67.8325 276.894 67.6641 276.381 67.3271 276.005C66.9902 275.624 66.5264 275.434 65.9355 275.434C65.6133 275.434 65.3398 275.478 65.1152 275.565C64.8906 275.648 64.6465 275.814 64.3828 276.063L62.9619 275.712ZM77.7275 273.148C77.7275 273.671 77.5933 274.137 77.3247 274.547C77.0562 274.953 76.6899 275.272 76.2261 275.507C76.7827 275.766 77.21 276.12 77.5078 276.569C77.8105 277.018 77.9619 277.526 77.9619 278.092C77.9619 279.03 77.6445 279.774 77.0098 280.326C76.375 280.873 75.5303 281.146 74.4756 281.146C73.416 281.146 72.5664 280.871 71.9268 280.319C71.292 279.767 70.9746 279.025 70.9746 278.092C70.9746 277.521 71.126 277.008 71.4287 276.554C71.7314 276.1 72.1562 275.751 72.7031 275.507C72.2441 275.272 71.8804 274.953 71.6118 274.547C71.3481 274.137 71.2163 273.671 71.2163 273.148C71.2163 272.24 71.5093 271.52 72.0952 270.988C72.6812 270.456 73.4722 270.189 74.4683 270.189C75.4692 270.189 76.2627 270.456 76.8486 270.988C77.4346 271.52 77.7275 272.24 77.7275 273.148ZM76.1821 278.004C76.1821 277.477 76.0234 277.052 75.7061 276.73C75.3936 276.403 74.9785 276.239 74.4609 276.239C73.9434 276.239 73.5283 276.4 73.2158 276.723C72.9082 277.045 72.7544 277.472 72.7544 278.004C72.7544 278.527 72.9058 278.944 73.2085 279.257C73.5161 279.569 73.9385 279.726 74.4756 279.726C75.0127 279.726 75.4302 279.574 75.728 279.271C76.0308 278.969 76.1821 278.546 76.1821 278.004ZM75.9551 273.214C75.9551 272.75 75.8208 272.37 75.5522 272.072C75.2837 271.769 74.9224 271.618 74.4683 271.618C74.0142 271.618 73.6553 271.762 73.3916 272.05C73.1279 272.333 72.9961 272.721 72.9961 273.214C72.9961 273.703 73.1279 274.091 73.3916 274.379C73.6602 274.667 74.0215 274.811 74.4756 274.811C74.9297 274.811 75.2886 274.667 75.5522 274.379C75.8208 274.091 75.9551 273.703 75.9551 273.214ZM91.4897 277.206C91.4312 278.427 91.1309 279.391 90.5889 280.099C90.0469 280.802 89.312 281.154 88.3843 281.154C87.5005 281.154 86.9097 280.778 86.6118 280.026C86.3628 280.397 86.0723 280.675 85.7402 280.861C85.4131 281.046 85.0688 281.139 84.7075 281.139C83.9946 281.139 83.4526 280.846 83.0815 280.26C82.7153 279.674 82.5762 278.891 82.6641 277.909C82.7422 277.113 82.9351 276.396 83.2427 275.756C83.5552 275.116 83.9482 274.623 84.4219 274.276C84.9004 273.925 85.4082 273.749 85.9453 273.749C86.3555 273.749 86.7168 273.8 87.0293 273.903C87.3467 274.005 87.7178 274.218 88.1426 274.54L87.7617 278.664C87.6689 279.63 87.9473 280.114 88.5967 280.114C89.0947 280.114 89.5024 279.848 89.8198 279.315C90.1421 278.778 90.3179 278.085 90.3472 277.235C90.4302 275.434 90.0811 274.054 89.2998 273.097C88.5234 272.14 87.354 271.662 85.7915 271.662C84.8345 271.662 83.9849 271.901 83.2427 272.379C82.5054 272.858 81.9194 273.551 81.4849 274.459C81.0503 275.363 80.811 276.393 80.7671 277.55C80.7085 278.727 80.8477 279.743 81.1846 280.597C81.5264 281.447 82.0464 282.094 82.7446 282.538C83.4478 282.982 84.3047 283.205 85.3154 283.205C85.7256 283.205 86.1528 283.156 86.5972 283.058C87.0464 282.96 87.4272 282.829 87.7397 282.663L88.0181 283.666C87.7202 283.861 87.3174 284.018 86.8096 284.135C86.3066 284.257 85.7988 284.318 85.2861 284.318C84.0459 284.318 82.9814 284.054 82.0928 283.527C81.2041 283.004 80.5376 282.245 80.0933 281.249C79.6343 280.219 79.4316 278.986 79.4854 277.55C79.5439 276.212 79.8442 275.011 80.3862 273.947C80.9282 272.877 81.668 272.047 82.6055 271.457C83.5479 270.866 84.6196 270.57 85.8208 270.57C87.0366 270.57 88.0815 270.839 88.9556 271.376C89.8345 271.908 90.4912 272.677 90.9258 273.683C91.3604 274.684 91.5483 275.858 91.4897 277.206ZM84.0996 277.909C84.0361 278.573 84.0947 279.079 84.2754 279.425C84.4561 279.767 84.7441 279.938 85.1396 279.938C85.4033 279.938 85.6523 279.823 85.8867 279.594C86.1211 279.359 86.3115 279.04 86.458 278.634L86.7876 275.023C86.5435 274.931 86.3066 274.884 86.0771 274.884C85.5352 274.884 85.0933 275.141 84.7515 275.653C84.4097 276.161 84.1924 276.913 84.0996 277.909ZM96.3237 279.726C96.7681 279.726 97.1367 279.596 97.4297 279.337C97.7227 279.079 97.8789 278.759 97.8984 278.378H99.5757C99.5562 278.871 99.4023 279.333 99.1143 279.762C98.8262 280.187 98.4355 280.524 97.9424 280.773C97.4492 281.022 96.917 281.146 96.3457 281.146C95.2373 281.146 94.3584 280.788 93.709 280.07C93.0596 279.352 92.7349 278.361 92.7349 277.096V276.913C92.7349 275.707 93.0571 274.743 93.7017 274.02C94.3462 273.292 95.2251 272.929 96.3384 272.929C97.2808 272.929 98.0474 273.205 98.6382 273.756C99.2339 274.303 99.5464 275.023 99.5757 275.917H97.8984C97.8789 275.463 97.7227 275.089 97.4297 274.796C97.1416 274.503 96.7729 274.357 96.3237 274.357C95.7476 274.357 95.3032 274.567 94.9907 274.987C94.6782 275.402 94.5195 276.034 94.5146 276.884V277.169C94.5146 278.029 94.6685 278.671 94.9761 279.096C95.2886 279.516 95.7378 279.726 96.3237 279.726ZM100.586 276.964C100.586 276.188 100.74 275.49 101.048 274.87C101.355 274.245 101.788 273.766 102.344 273.434C102.901 273.097 103.541 272.929 104.263 272.929C105.333 272.929 106.199 273.273 106.863 273.961C107.532 274.65 107.894 275.563 107.947 276.701L107.955 277.118C107.955 277.899 107.803 278.598 107.5 279.213C107.203 279.828 106.773 280.304 106.211 280.641C105.655 280.978 105.01 281.146 104.278 281.146C103.16 281.146 102.264 280.775 101.59 280.033C100.921 279.286 100.586 278.292 100.586 277.052V276.964ZM102.366 277.118C102.366 277.934 102.535 278.573 102.872 279.037C103.208 279.496 103.677 279.726 104.278 279.726C104.878 279.726 105.345 279.491 105.677 279.022C106.014 278.554 106.182 277.868 106.182 276.964C106.182 276.164 106.009 275.529 105.662 275.06C105.32 274.591 104.854 274.357 104.263 274.357C103.682 274.357 103.221 274.589 102.879 275.053C102.537 275.512 102.366 276.2 102.366 277.118ZM113.609 274.701C113.375 274.662 113.133 274.643 112.884 274.643C112.068 274.643 111.519 274.955 111.236 275.58V281H109.456V273.075H111.155L111.199 273.961C111.629 273.273 112.225 272.929 112.986 272.929C113.24 272.929 113.45 272.963 113.616 273.031L113.609 274.701ZM116.385 273.075L116.436 273.991C117.022 273.283 117.791 272.929 118.743 272.929C120.394 272.929 121.233 273.874 121.263 275.763V281H119.483V275.866C119.483 275.363 119.373 274.992 119.153 274.752C118.938 274.508 118.584 274.386 118.091 274.386C117.374 274.386 116.839 274.711 116.487 275.36V281H114.708V273.075H116.385ZM126.573 281.146C125.445 281.146 124.529 280.792 123.826 280.084C123.128 279.372 122.779 278.424 122.779 277.243V277.023C122.779 276.232 122.93 275.526 123.233 274.906C123.541 274.281 123.97 273.795 124.522 273.449C125.074 273.102 125.689 272.929 126.368 272.929C127.447 272.929 128.279 273.273 128.865 273.961C129.456 274.65 129.751 275.624 129.751 276.884V277.602H124.573C124.627 278.256 124.844 278.773 125.225 279.154C125.611 279.535 126.094 279.726 126.675 279.726C127.491 279.726 128.155 279.396 128.667 278.737L129.627 279.652C129.31 280.126 128.885 280.495 128.353 280.758C127.825 281.017 127.232 281.146 126.573 281.146ZM126.36 274.357C125.872 274.357 125.477 274.528 125.174 274.87C124.876 275.211 124.686 275.688 124.603 276.298H127.994V276.166C127.955 275.57 127.796 275.121 127.518 274.818C127.239 274.511 126.854 274.357 126.36 274.357ZM133.033 281H131.253V269.75H133.033V281ZM136.871 281H135.091V269.75H136.871V281ZM139.925 279.125C140.257 279.125 140.513 279.22 140.694 279.411C140.875 279.596 140.965 279.831 140.965 280.114C140.965 280.392 140.875 280.624 140.694 280.81C140.513 280.99 140.257 281.081 139.925 281.081C139.607 281.081 139.356 280.99 139.17 280.81C138.985 280.629 138.892 280.397 138.892 280.114C138.892 279.831 138.982 279.596 139.163 279.411C139.344 279.22 139.598 279.125 139.925 279.125ZM146.495 281.146C145.367 281.146 144.451 280.792 143.748 280.084C143.05 279.372 142.701 278.424 142.701 277.243V277.023C142.701 276.232 142.852 275.526 143.155 274.906C143.462 274.281 143.892 273.795 144.444 273.449C144.996 273.102 145.611 272.929 146.29 272.929C147.369 272.929 148.201 273.273 148.787 273.961C149.378 274.65 149.673 275.624 149.673 276.884V277.602H144.495C144.549 278.256 144.766 278.773 145.147 279.154C145.533 279.535 146.016 279.726 146.597 279.726C147.413 279.726 148.077 279.396 148.589 278.737L149.549 279.652C149.231 280.126 148.807 280.495 148.274 280.758C147.747 281.017 147.154 281.146 146.495 281.146ZM146.282 274.357C145.794 274.357 145.398 274.528 145.096 274.87C144.798 275.211 144.607 275.688 144.524 276.298H147.916V276.166C147.876 275.57 147.718 275.121 147.439 274.818C147.161 274.511 146.775 274.357 146.282 274.357ZM150.728 276.979C150.728 275.758 151.011 274.779 151.578 274.042C152.144 273.3 152.903 272.929 153.855 272.929C154.695 272.929 155.374 273.222 155.892 273.808V269.75H157.671V281H156.06L155.972 280.18C155.44 280.824 154.729 281.146 153.841 281.146C152.913 281.146 152.161 280.773 151.585 280.026C151.014 279.279 150.728 278.263 150.728 276.979ZM152.508 277.133C152.508 277.938 152.662 278.568 152.969 279.022C153.282 279.472 153.724 279.696 154.295 279.696C155.022 279.696 155.555 279.372 155.892 278.722V275.338C155.564 274.704 155.037 274.386 154.31 274.386C153.733 274.386 153.289 274.616 152.977 275.075C152.664 275.529 152.508 276.215 152.508 277.133ZM164.329 280.224C163.807 280.839 163.064 281.146 162.103 281.146C161.243 281.146 160.591 280.895 160.147 280.392C159.708 279.889 159.488 279.162 159.488 278.209V273.075H161.268V278.188C161.268 279.193 161.685 279.696 162.52 279.696C163.384 279.696 163.968 279.386 164.271 278.766V273.075H166.05V281H164.373L164.329 280.224Z" fill="#4A4A4A"/>
<path d="M32.647 330C32.5688 329.849 32.5005 329.602 32.4419 329.26C31.8755 329.851 31.1821 330.146 30.3618 330.146C29.5659 330.146 28.9165 329.919 28.4136 329.465C27.9106 329.011 27.6592 328.45 27.6592 327.781C27.6592 326.936 27.9717 326.289 28.5967 325.84C29.2266 325.386 30.125 325.159 31.292 325.159H32.3833V324.639C32.3833 324.229 32.2686 323.901 32.0391 323.657C31.8096 323.408 31.4604 323.284 30.9917 323.284C30.5864 323.284 30.2544 323.386 29.9956 323.591C29.7368 323.792 29.6074 324.048 29.6074 324.36H27.8276C27.8276 323.926 27.9717 323.521 28.2598 323.145C28.5479 322.764 28.9385 322.466 29.4316 322.251C29.9297 322.036 30.4839 321.929 31.0942 321.929C32.022 321.929 32.7617 322.163 33.3135 322.632C33.8652 323.096 34.1484 323.75 34.1631 324.595V328.169C34.1631 328.882 34.2632 329.451 34.4634 329.875V330H32.647ZM30.6914 328.718C31.043 328.718 31.3726 328.633 31.6802 328.462C31.9927 328.291 32.2271 328.062 32.3833 327.773V326.279H31.4238C30.7646 326.279 30.269 326.394 29.937 326.624C29.605 326.853 29.439 327.178 29.439 327.598C29.439 327.939 29.5513 328.213 29.7759 328.418C30.0054 328.618 30.3105 328.718 30.6914 328.718ZM37.7007 322.075L37.752 322.903C38.3086 322.253 39.0703 321.929 40.0371 321.929C41.0967 321.929 41.8218 322.334 42.2124 323.145C42.7886 322.334 43.5991 321.929 44.644 321.929C45.5181 321.929 46.1675 322.17 46.5923 322.654C47.022 323.137 47.2417 323.85 47.2515 324.792V330H45.4717V324.844C45.4717 324.341 45.3618 323.972 45.1421 323.738C44.9224 323.503 44.5586 323.386 44.0508 323.386C43.6455 323.386 43.3135 323.496 43.0547 323.716C42.8008 323.931 42.6226 324.214 42.52 324.565L42.5273 330H40.7476V324.785C40.7231 323.853 40.2471 323.386 39.3193 323.386C38.6064 323.386 38.1011 323.677 37.8032 324.258V330H36.0234V322.075H37.7007ZM51.3091 320.149V322.075H52.708V323.394H51.3091V327.817C51.3091 328.12 51.3677 328.34 51.4849 328.477C51.6069 328.608 51.8218 328.674 52.1294 328.674C52.3345 328.674 52.542 328.65 52.752 328.601V329.978C52.3467 330.09 51.9561 330.146 51.5801 330.146C50.2129 330.146 49.5293 329.392 49.5293 327.883V323.394H48.2256V322.075H49.5293V320.149H51.3091ZM61.1309 330H53.9604V328.777L57.5127 324.902C58.0254 324.331 58.3892 323.855 58.604 323.474C58.8237 323.088 58.9336 322.703 58.9336 322.317C58.9336 321.809 58.7896 321.399 58.5015 321.086C58.2183 320.774 57.835 320.618 57.3516 320.618C56.7754 320.618 56.3286 320.793 56.0112 321.145C55.6938 321.497 55.5352 321.978 55.5352 322.588H53.7554C53.7554 321.938 53.9019 321.355 54.1948 320.837C54.4927 320.315 54.915 319.91 55.4619 319.622C56.0137 319.333 56.6484 319.189 57.3662 319.189C58.4014 319.189 59.2168 319.451 59.8125 319.973C60.4131 320.491 60.7134 321.208 60.7134 322.126C60.7134 322.659 60.562 323.218 60.2593 323.804C59.9614 324.385 59.4707 325.046 58.7871 325.789L56.1797 328.579H61.1309V330ZM62.9619 324.712L63.5405 319.336H69.2681V320.874H65.02L64.7271 323.423C65.2202 323.14 65.7769 322.998 66.397 322.998C67.4126 322.998 68.2012 323.323 68.7627 323.972C69.3291 324.622 69.6123 325.496 69.6123 326.594C69.6123 327.678 69.2998 328.542 68.6748 329.187C68.0498 329.827 67.1929 330.146 66.104 330.146C65.1274 330.146 64.3169 329.871 63.6724 329.319C63.0327 328.762 62.686 328.03 62.6323 327.122H64.3535C64.4219 327.639 64.6074 328.037 64.9102 328.315C65.2129 328.589 65.6084 328.726 66.0967 328.726C66.6436 328.726 67.0684 328.53 67.3711 328.14C67.6787 327.749 67.8325 327.217 67.8325 326.543C67.8325 325.894 67.6641 325.381 67.3271 325.005C66.9902 324.624 66.5264 324.434 65.9355 324.434C65.6133 324.434 65.3398 324.478 65.1152 324.565C64.8906 324.648 64.6465 324.814 64.3828 325.063L62.9619 324.712ZM77.7275 322.148C77.7275 322.671 77.5933 323.137 77.3247 323.547C77.0562 323.953 76.6899 324.272 76.2261 324.507C76.7827 324.766 77.21 325.12 77.5078 325.569C77.8105 326.018 77.9619 326.526 77.9619 327.092C77.9619 328.03 77.6445 328.774 77.0098 329.326C76.375 329.873 75.5303 330.146 74.4756 330.146C73.416 330.146 72.5664 329.871 71.9268 329.319C71.292 328.767 70.9746 328.025 70.9746 327.092C70.9746 326.521 71.126 326.008 71.4287 325.554C71.7314 325.1 72.1562 324.751 72.7031 324.507C72.2441 324.272 71.8804 323.953 71.6118 323.547C71.3481 323.137 71.2163 322.671 71.2163 322.148C71.2163 321.24 71.5093 320.52 72.0952 319.988C72.6812 319.456 73.4722 319.189 74.4683 319.189C75.4692 319.189 76.2627 319.456 76.8486 319.988C77.4346 320.52 77.7275 321.24 77.7275 322.148ZM76.1821 327.004C76.1821 326.477 76.0234 326.052 75.7061 325.73C75.3936 325.403 74.9785 325.239 74.4609 325.239C73.9434 325.239 73.5283 325.4 73.2158 325.723C72.9082 326.045 72.7544 326.472 72.7544 327.004C72.7544 327.527 72.9058 327.944 73.2085 328.257C73.5161 328.569 73.9385 328.726 74.4756 328.726C75.0127 328.726 75.4302 328.574 75.728 328.271C76.0308 327.969 76.1821 327.546 76.1821 327.004ZM75.9551 322.214C75.9551 321.75 75.8208 321.37 75.5522 321.072C75.2837 320.769 74.9224 320.618 74.4683 320.618C74.0142 320.618 73.6553 320.762 73.3916 321.05C73.1279 321.333 72.9961 321.721 72.9961 322.214C72.9961 322.703 73.1279 323.091 73.3916 323.379C73.6602 323.667 74.0215 323.811 74.4756 323.811C74.9297 323.811 75.2886 323.667 75.5522 323.379C75.8208 323.091 75.9551 322.703 75.9551 322.214ZM91.4897 326.206C91.4312 327.427 91.1309 328.391 90.5889 329.099C90.0469 329.802 89.312 330.154 88.3843 330.154C87.5005 330.154 86.9097 329.778 86.6118 329.026C86.3628 329.397 86.0723 329.675 85.7402 329.861C85.4131 330.046 85.0688 330.139 84.7075 330.139C83.9946 330.139 83.4526 329.846 83.0815 329.26C82.7153 328.674 82.5762 327.891 82.6641 326.909C82.7422 326.113 82.9351 325.396 83.2427 324.756C83.5552 324.116 83.9482 323.623 84.4219 323.276C84.9004 322.925 85.4082 322.749 85.9453 322.749C86.3555 322.749 86.7168 322.8 87.0293 322.903C87.3467 323.005 87.7178 323.218 88.1426 323.54L87.7617 327.664C87.6689 328.63 87.9473 329.114 88.5967 329.114C89.0947 329.114 89.5024 328.848 89.8198 328.315C90.1421 327.778 90.3179 327.085 90.3472 326.235C90.4302 324.434 90.0811 323.054 89.2998 322.097C88.5234 321.14 87.354 320.662 85.7915 320.662C84.8345 320.662 83.9849 320.901 83.2427 321.379C82.5054 321.858 81.9194 322.551 81.4849 323.459C81.0503 324.363 80.811 325.393 80.7671 326.55C80.7085 327.727 80.8477 328.743 81.1846 329.597C81.5264 330.447 82.0464 331.094 82.7446 331.538C83.4478 331.982 84.3047 332.205 85.3154 332.205C85.7256 332.205 86.1528 332.156 86.5972 332.058C87.0464 331.96 87.4272 331.829 87.7397 331.663L88.0181 332.666C87.7202 332.861 87.3174 333.018 86.8096 333.135C86.3066 333.257 85.7988 333.318 85.2861 333.318C84.0459 333.318 82.9814 333.054 82.0928 332.527C81.2041 332.004 80.5376 331.245 80.0933 330.249C79.6343 329.219 79.4316 327.986 79.4854 326.55C79.5439 325.212 79.8442 324.011 80.3862 322.947C80.9282 321.877 81.668 321.047 82.6055 320.457C83.5479 319.866 84.6196 319.57 85.8208 319.57C87.0366 319.57 88.0815 319.839 88.9556 320.376C89.8345 320.908 90.4912 321.677 90.9258 322.683C91.3604 323.684 91.5483 324.858 91.4897 326.206ZM84.0996 326.909C84.0361 327.573 84.0947 328.079 84.2754 328.425C84.4561 328.767 84.7441 328.938 85.1396 328.938C85.4033 328.938 85.6523 328.823 85.8867 328.594C86.1211 328.359 86.3115 328.04 86.458 327.634L86.7876 324.023C86.5435 323.931 86.3066 323.884 86.0771 323.884C85.5352 323.884 85.0933 324.141 84.7515 324.653C84.4097 325.161 84.1924 325.913 84.0996 326.909ZM96.3237 328.726C96.7681 328.726 97.1367 328.596 97.4297 328.337C97.7227 328.079 97.8789 327.759 97.8984 327.378H99.5757C99.5562 327.871 99.4023 328.333 99.1143 328.762C98.8262 329.187 98.4355 329.524 97.9424 329.773C97.4492 330.022 96.917 330.146 96.3457 330.146C95.2373 330.146 94.3584 329.788 93.709 329.07C93.0596 328.352 92.7349 327.361 92.7349 326.096V325.913C92.7349 324.707 93.0571 323.743 93.7017 323.02C94.3462 322.292 95.2251 321.929 96.3384 321.929C97.2808 321.929 98.0474 322.205 98.6382 322.756C99.2339 323.303 99.5464 324.023 99.5757 324.917H97.8984C97.8789 324.463 97.7227 324.089 97.4297 323.796C97.1416 323.503 96.7729 323.357 96.3237 323.357C95.7476 323.357 95.3032 323.567 94.9907 323.987C94.6782 324.402 94.5195 325.034 94.5146 325.884V326.169C94.5146 327.029 94.6685 327.671 94.9761 328.096C95.2886 328.516 95.7378 328.726 96.3237 328.726ZM100.586 325.964C100.586 325.188 100.74 324.49 101.048 323.87C101.355 323.245 101.788 322.766 102.344 322.434C102.901 322.097 103.541 321.929 104.263 321.929C105.333 321.929 106.199 322.273 106.863 322.961C107.532 323.65 107.894 324.563 107.947 325.701L107.955 326.118C107.955 326.899 107.803 327.598 107.5 328.213C107.203 328.828 106.773 329.304 106.211 329.641C105.655 329.978 105.01 330.146 104.278 330.146C103.16 330.146 102.264 329.775 101.59 329.033C100.921 328.286 100.586 327.292 100.586 326.052V325.964ZM102.366 326.118C102.366 326.934 102.535 327.573 102.872 328.037C103.208 328.496 103.677 328.726 104.278 328.726C104.878 328.726 105.345 328.491 105.677 328.022C106.014 327.554 106.182 326.868 106.182 325.964C106.182 325.164 106.009 324.529 105.662 324.06C105.32 323.591 104.854 323.357 104.263 323.357C103.682 323.357 103.221 323.589 102.879 324.053C102.537 324.512 102.366 325.2 102.366 326.118ZM113.609 323.701C113.375 323.662 113.133 323.643 112.884 323.643C112.068 323.643 111.519 323.955 111.236 324.58V330H109.456V322.075H111.155L111.199 322.961C111.629 322.273 112.225 321.929 112.986 321.929C113.24 321.929 113.45 321.963 113.616 322.031L113.609 323.701ZM116.385 322.075L116.436 322.991C117.022 322.283 117.791 321.929 118.743 321.929C120.394 321.929 121.233 322.874 121.263 324.763V330H119.483V324.866C119.483 324.363 119.373 323.992 119.153 323.752C118.938 323.508 118.584 323.386 118.091 323.386C117.374 323.386 116.839 323.711 116.487 324.36V330H114.708V322.075H116.385ZM126.573 330.146C125.445 330.146 124.529 329.792 123.826 329.084C123.128 328.372 122.779 327.424 122.779 326.243V326.023C122.779 325.232 122.93 324.526 123.233 323.906C123.541 323.281 123.97 322.795 124.522 322.449C125.074 322.102 125.689 321.929 126.368 321.929C127.447 321.929 128.279 322.273 128.865 322.961C129.456 323.65 129.751 324.624 129.751 325.884V326.602H124.573C124.627 327.256 124.844 327.773 125.225 328.154C125.611 328.535 126.094 328.726 126.675 328.726C127.491 328.726 128.155 328.396 128.667 327.737L129.627 328.652C129.31 329.126 128.885 329.495 128.353 329.758C127.825 330.017 127.232 330.146 126.573 330.146ZM126.36 323.357C125.872 323.357 125.477 323.528 125.174 323.87C124.876 324.211 124.686 324.688 124.603 325.298H127.994V325.166C127.955 324.57 127.796 324.121 127.518 323.818C127.239 323.511 126.854 323.357 126.36 323.357ZM133.033 330H131.253V318.75H133.033V330ZM136.871 330H135.091V318.75H136.871V330ZM139.925 328.125C140.257 328.125 140.513 328.22 140.694 328.411C140.875 328.596 140.965 328.831 140.965 329.114C140.965 329.392 140.875 329.624 140.694 329.81C140.513 329.99 140.257 330.081 139.925 330.081C139.607 330.081 139.356 329.99 139.17 329.81C138.985 329.629 138.892 329.397 138.892 329.114C138.892 328.831 138.982 328.596 139.163 328.411C139.344 328.22 139.598 328.125 139.925 328.125ZM146.495 330.146C145.367 330.146 144.451 329.792 143.748 329.084C143.05 328.372 142.701 327.424 142.701 326.243V326.023C142.701 325.232 142.852 324.526 143.155 323.906C143.462 323.281 143.892 322.795 144.444 322.449C144.996 322.102 145.611 321.929 146.29 321.929C147.369 321.929 148.201 322.273 148.787 322.961C149.378 323.65 149.673 324.624 149.673 325.884V326.602H144.495C144.549 327.256 144.766 327.773 145.147 328.154C145.533 328.535 146.016 328.726 146.597 328.726C147.413 328.726 148.077 328.396 148.589 327.737L149.549 328.652C149.231 329.126 148.807 329.495 148.274 329.758C147.747 330.017 147.154 330.146 146.495 330.146ZM146.282 323.357C145.794 323.357 145.398 323.528 145.096 323.87C144.798 324.211 144.607 324.688 144.524 325.298H147.916V325.166C147.876 324.57 147.718 324.121 147.439 323.818C147.161 323.511 146.775 323.357 146.282 323.357ZM150.728 325.979C150.728 324.758 151.011 323.779 151.578 323.042C152.144 322.3 152.903 321.929 153.855 321.929C154.695 321.929 155.374 322.222 155.892 322.808V318.75H157.671V330H156.06L155.972 329.18C155.44 329.824 154.729 330.146 153.841 330.146C152.913 330.146 152.161 329.773 151.585 329.026C151.014 328.279 150.728 327.263 150.728 325.979ZM152.508 326.133C152.508 326.938 152.662 327.568 152.969 328.022C153.282 328.472 153.724 328.696 154.295 328.696C155.022 328.696 155.555 328.372 155.892 327.722V324.338C155.564 323.704 155.037 323.386 154.31 323.386C153.733 323.386 153.289 323.616 152.977 324.075C152.664 324.529 152.508 325.215 152.508 326.133ZM164.329 329.224C163.807 329.839 163.064 330.146 162.103 330.146C161.243 330.146 160.591 329.895 160.147 329.392C159.708 328.889 159.488 328.162 159.488 327.209V322.075H161.268V327.188C161.268 328.193 161.685 328.696 162.52 328.696C163.384 328.696 163.968 328.386 164.271 327.766V322.075H166.05V330H164.373L164.329 329.224Z" fill="#4A4A4A"/>
</svg>
