<svg width="32" height="32" viewBox="0 0 32 32" fill="none" xmlns="http://www.w3.org/2000/svg">
<rect width="32" height="32" fill="#E5E5E5"/>
<rect x="-168.5" y="-34.5" width="371" height="455" rx="9.5" fill="white" stroke="#D8D8D8"/>
<path d="M26.6666 17.4533V9.33333C26.6666 6.38667 21.8933 4 16 4C10.1066 4 5.33331 6.38667 5.33331 9.33333V22.6667C5.33331 25.6133 10.12 28 16 28C16.6133 28 17.2 28 17.7733 27.92C17.4839 27.0882 17.3351 26.214 17.3333 25.3333V25.2667C16.9066 25.3333 16.4666 25.3333 16 25.3333C10.84 25.3333 7.99998 23.3333 7.99998 22.6667V19.6933C10.1466 20.7333 12.96 21.3333 16 21.3333C16.8666 21.3333 17.6933 21.28 18.5066 21.1867C19.2169 20.0113 20.2184 19.0392 21.4143 18.3641C22.6102 17.6891 23.9601 17.3341 25.3333 17.3333C25.7866 17.3333 26.2266 17.3867 26.6666 17.4533ZM24 16.6C22.2666 17.8667 19.2266 18.6667 16 18.6667C12.7733 18.6667 9.73331 17.8667 7.99998 16.6V12.8533C9.95998 13.96 12.8133 14.6667 16 14.6667C19.1866 14.6667 22.04 13.96 24 12.8533V16.6ZM16 12C10.84 12 7.99998 10 7.99998 9.33333C7.99998 8.66667 10.84 6.66667 16 6.66667C21.16 6.66667 24 8.66667 24 9.33333C24 10 21.16 12 16 12ZM29.3333 26.6667L25.3333 30.6667L21.3333 26.6667H24V21.3333H26.6666V26.6667H29.3333Z" fill="#474747"/>
</svg>
