<svg width="46" height="58" viewBox="0 0 46 58" fill="none" xmlns="http://www.w3.org/2000/svg">
<path d="M43.3791 24.8615V49.4359C43.3791 51.0423 42.741 52.5829 41.6051 53.7188C40.4692 54.8547 38.9286 55.4928 37.3222 55.4928H9.05686C7.45048 55.4928 5.9099 54.8547 4.77401 53.7188C3.63813 52.5829 3 51.0423 3 49.4359V9.05686C3 7.45048 3.63813 5.9099 4.77401 4.77401C5.9099 3.63813 7.45048 3 9.05686 3H21.5176C22.5881 3.00016 23.6148 3.42544 24.3719 4.18235L42.1967 22.0072C42.9536 22.7643 43.3789 23.7909 43.3791 24.8615Z" stroke="#5599DB" stroke-width="4.03791" stroke-linejoin="round"/>
<path d="M23.1895 4.00952V19.1517C23.1895 20.2226 23.6149 21.2497 24.3721 22.0069C25.1294 22.7642 26.1564 23.1896 27.2274 23.1896H42.3695" stroke="#5599DB" stroke-width="4.03791" stroke-linecap="round" stroke-linejoin="round"/>
</svg>
