<svg width="142" height="106" viewBox="0 0 142 106" fill="none" xmlns="http://www.w3.org/2000/svg">
<rect width="66.2285" height="38.4552" rx="14.0727" transform="matrix(-1 0 0 1 109.188 0)" fill="#89BFF2"/>
<path d="M82.7856 44.138C89.9053 44.138 91.0993 39.7721 90.8063 37.5892H96.5196C96.5196 44.0757 86.855 45.5012 82.7856 44.138Z" fill="#89BFF2"/>
<rect x="93.5254" y="14.3196" width="34.542" height="20.0566" rx="5.95017" fill="#5599DB"/>
<path d="M111.066 37.4248C107.353 37.4248 106.73 35.1478 106.883 34.0092H103.903C103.903 37.3923 108.944 38.1358 111.066 37.4248Z" fill="#5599DB"/>
<path d="M113.762 21.9515C113.762 21.9515 113.804 21.0005 114.729 20.238C115.278 19.7853 115.937 19.6542 116.528 19.6462C117.068 19.6395 117.551 19.7309 117.839 19.8715C118.332 20.113 119.295 20.7008 119.295 21.9515C119.295 23.2676 118.454 23.8641 117.498 24.5214C116.542 25.1787 116.298 25.8233 116.298 26.5622" stroke="#D6EAFE" stroke-width="1.26727" stroke-miterlimit="10" stroke-linecap="round"/>
<path d="M116.298 29.6741C116.807 29.6741 117.22 29.2613 117.22 28.752C117.22 28.2427 116.807 27.8298 116.298 27.8298C115.789 27.8298 115.376 28.2427 115.376 28.752C115.376 29.2613 115.789 29.6741 116.298 29.6741Z" fill="#D6EAFE"/>
<path d="M109.739 29.6741C110.249 29.6741 110.662 29.2613 110.662 28.752C110.662 28.2427 110.249 27.8298 109.739 27.8298C109.23 27.8298 108.817 28.2427 108.817 28.752C108.817 29.2613 109.23 29.6741 109.739 29.6741Z" fill="#D6EAFE"/>
<path d="M106.397 29.6741C106.906 29.6741 107.319 29.2613 107.319 28.752C107.319 28.2427 106.906 27.8298 106.397 27.8298C105.887 27.8298 105.475 28.2427 105.475 28.752C105.475 29.2613 105.887 29.6741 106.397 29.6741Z" fill="#D6EAFE"/>
<path d="M103.054 29.6741C103.563 29.6741 103.976 29.2613 103.976 28.752C103.976 28.2427 103.563 27.8298 103.054 27.8298C102.545 27.8298 102.132 28.2427 102.132 28.752C102.132 29.2613 102.545 29.6741 103.054 29.6741Z" fill="#D6EAFE"/>
<path d="M113.582 21.719C113.582 21.719 113.623 20.7681 114.548 20.0056C115.098 19.5529 115.757 19.4217 116.348 19.4137C116.888 19.407 117.371 19.4984 117.659 19.639C118.152 19.8805 119.115 20.4684 119.115 21.719C119.115 23.0351 118.274 23.6316 117.318 24.2889C116.362 24.9462 116.118 25.5908 116.118 26.3297" stroke="white" stroke-width="1.26727" stroke-miterlimit="10" stroke-linecap="round"/>
<path d="M116.118 29.4417C116.627 29.4417 117.04 29.0288 117.04 28.5196C117.04 28.0103 116.627 27.5974 116.118 27.5974C115.609 27.5974 115.196 28.0103 115.196 28.5196C115.196 29.0288 115.609 29.4417 116.118 29.4417Z" fill="white"/>
<path d="M109.57 29.4417C110.079 29.4417 110.492 29.0288 110.492 28.5196C110.492 28.0103 110.079 27.5974 109.57 27.5974C109.06 27.5974 108.647 28.0103 108.647 28.5196C108.647 29.0288 109.06 29.4417 109.57 29.4417Z" fill="white"/>
<path d="M106.227 29.4417C106.736 29.4417 107.149 29.0288 107.149 28.5196C107.149 28.0103 106.736 27.5974 106.227 27.5974C105.717 27.5974 105.305 28.0103 105.305 28.5196C105.305 29.0288 105.717 29.4417 106.227 29.4417Z" fill="white"/>
<path d="M102.884 29.4417C103.393 29.4417 103.806 29.0288 103.806 28.5196C103.806 28.0103 103.393 27.5974 102.884 27.5974C102.375 27.5974 101.962 28.0103 101.962 28.5196C101.962 29.0288 102.375 29.4417 102.884 29.4417Z" fill="white"/>
<path fill-rule="evenodd" clip-rule="evenodd" d="M11.0967 66.0029C4.60084 72.1928 0 87.5914 0 105.608H34.9042C34.9042 87.4362 30.2237 71.9276 23.6392 65.845C21.7557 66.9423 19.5654 67.571 17.2283 67.571C15.0058 67.571 12.9161 67.0025 11.0967 66.0029Z" fill="#5599DB"/>
<path fill-rule="evenodd" clip-rule="evenodd" d="M65.2429 66.0029C58.7471 72.1928 54.1463 87.5914 54.1463 105.608H89.0505C89.0505 87.4362 84.37 71.9276 77.7855 65.845C75.9019 66.9423 73.7117 67.571 71.3746 67.571C69.1521 67.571 67.0624 67.0025 65.2429 66.0029Z" fill="#5599DB"/>
<path fill-rule="evenodd" clip-rule="evenodd" d="M117.599 66.0029C111.103 72.1927 106.503 87.5914 106.503 105.608H141.407C141.407 87.4362 136.726 71.9276 130.142 65.845C128.258 66.9423 126.068 67.571 123.731 67.571C121.508 67.571 119.419 67.0024 117.599 66.0029Z" fill="#5599DB"/>
<circle cx="17.2284" cy="53.0276" r="12.7535" fill="#89BFF2"/>
<circle cx="71.3746" cy="53.0276" r="12.7535" fill="#89BFF2"/>
<circle cx="123.731" cy="53.0276" r="12.7535" fill="#89BFF2"/>
<ellipse cx="67.9745" cy="45.3676" rx="8.30541" ry="3.15033" transform="rotate(-13.194 67.9745 45.3676)" fill="#357ABD"/>
<rect x="57.7312" y="38.0618" width="16.6108" height="9.73738" transform="rotate(-13.194 57.7312 38.0618)" fill="#357ABD"/>
<path d="M51.0139 40.2741V54.1463" stroke="#5599DB" stroke-width="0.89498"/>
<rect width="47.4339" height="27.5423" rx="10.0791" transform="matrix(-1 0 0 1 69.3609 8.94977)" fill="#357ABD"/>
<path d="M28.6393 40.937C33.7386 40.937 34.5937 37.81 34.3839 36.2466H38.4759C38.4759 40.8923 31.5539 41.9133 28.6393 40.937Z" fill="#357ABD"/>
<path fill-rule="evenodd" clip-rule="evenodd" d="M50.1164 40.2421L64.449 28.8386L82.3565 32.6838L68.0239 44.0873L50.1164 40.2421Z" fill="#5599DB"/>
<path d="M50.1164 40.2421L68.0239 44.0873L82.3565 32.6838L64.449 28.8386L50.1164 40.2421Z" fill="#5599DB"/>
</svg>
