<svg width="16" height="21" viewBox="0 0 16 21" fill="none" xmlns="http://www.w3.org/2000/svg">
<path d="M14.875 1.75H15.0312C15.2656 1.75 15.5 1.55469 15.5 1.28125V0.96875C15.5 0.734375 15.2656 0.5 15.0312 0.5H0.96875C0.695312 0.5 0.5 0.734375 0.5 0.96875V1.28125C0.5 1.55469 0.695312 1.75 0.96875 1.75H1.125C1.125 5.34375 2.84375 9.32812 6.16406 10.5C2.80469 11.7109 1.125 15.6953 1.125 19.25H0.96875C0.695312 19.25 0.5 19.4844 0.5 19.7188V20.0312C0.5 20.3047 0.695312 20.5 0.96875 20.5H15.0312C15.2656 20.5 15.5 20.3047 15.5 20.0312V19.7188C15.5 19.4844 15.2656 19.25 15.0312 19.25H14.875C14.875 15.6953 13.1172 11.7109 9.79688 10.5C13.1562 9.32812 14.875 5.34375 14.875 1.75ZM2.375 1.75H13.625C13.625 6.08594 11.0859 9.5625 8 9.5625C4.875 9.5625 2.375 6.08594 2.375 1.75ZM13.625 19.25H2.375C2.375 14.9531 4.875 11.4375 8 11.4375C11.0859 11.4375 13.625 14.9531 13.625 19.25ZM11.0078 6.24219C11.2422 5.96875 11.0078 5.5 10.6172 5.5H5.34375C4.95312 5.5 4.71875 5.96875 4.95312 6.24219C5.03125 6.35938 5.14844 6.51562 5.22656 6.59375C5.30469 6.71094 5.42188 6.75 5.57812 6.75H10.3828C10.5391 6.75 10.6562 6.71094 10.7344 6.59375C10.8125 6.51562 10.9297 6.35938 11.0078 6.24219ZM4.32812 16.75C4.13281 16.75 3.9375 16.9062 3.85938 17.1016C3.85938 17.2188 3.82031 17.3359 3.78125 17.4531C3.74219 17.7266 3.9375 18 4.25 18H11.7109C12.0234 18 12.2188 17.7266 12.1797 17.4531C12.1406 17.3359 12.1016 17.2188 12.1016 17.1016C12.0234 16.9062 11.8281 16.75 11.6328 16.75H4.32812Z" fill="#484848"/>
</svg>
