<svg width="18" height="18" viewBox="0 0 18 18" fill="none" xmlns="http://www.w3.org/2000/svg">
<g id="material-symbols:image-outline">
<path id="Vector" d="M3.57077 15.4023C3.17802 15.4023 2.84192 15.2626 2.56247 14.9832C2.28302 14.7037 2.14305 14.3674 2.14258 13.9741V3.97678C2.14258 3.58403 2.28254 3.24792 2.56247 2.96847C2.84239 2.68902 3.1785 2.54906 3.57077 2.54858H13.5681C13.9609 2.54858 14.2972 2.68855 14.5772 2.96847C14.8571 3.2484 14.9968 3.5845 14.9963 3.97678V13.9741C14.9963 14.3669 14.8566 14.7032 14.5772 14.9832C14.2977 15.2631 13.9614 15.4028 13.5681 15.4023H3.57077ZM3.57077 13.9741H13.5681V3.97678H3.57077V13.9741ZM4.28487 12.546H12.854L10.1762 8.97546L8.03388 11.8319L6.42716 9.68956L4.28487 12.546Z" fill="#5599DB"/>
</g>
</svg>
