<svg width="68" height="68" viewBox="0 0 68 68" fill="none" xmlns="http://www.w3.org/2000/svg">
<path fill-rule="evenodd" clip-rule="evenodd" d="M34 66C51.6731 66 66 51.6731 66 34C66 16.3269 51.6731 2 34 2C16.3269 2 2 16.3269 2 34C2 51.6731 16.3269 66 34 66Z" stroke="#DC9C35" stroke-width="3.85"/>
<path d="M36.0717 41.9197H31.9945L31.6771 16.407H36.4135L36.0717 41.9197ZM31.5062 49.6833C31.5062 48.9509 31.726 48.3406 32.1654 47.8523C32.6211 47.3477 33.2885 47.0955 34.1674 47.0955C35.0463 47.0955 35.7136 47.3477 36.1693 47.8523C36.625 48.3406 36.8529 48.9509 36.8529 49.6833C36.8529 50.4158 36.625 51.0261 36.1693 51.5144C35.7136 51.9864 35.0463 52.2224 34.1674 52.2224C33.2885 52.2224 32.6211 51.9864 32.1654 51.5144C31.726 51.0261 31.5062 50.4158 31.5062 49.6833Z" fill="#DC9C35"/>
</svg>
