<svg width="16" height="17" viewBox="0 0 16 17" fill="none" xmlns="http://www.w3.org/2000/svg">
<path d="M1.5 2.25V14H15.25C15.4489 14 15.6397 14.079 15.7803 14.2197C15.921 14.3603 16 14.5511 16 14.75C16 14.9489 15.921 15.1397 15.7803 15.2803C15.6397 15.421 15.4489 15.5 15.25 15.5H0.75C0.551088 15.5 0.360322 15.421 0.21967 15.2803C0.0790176 15.1397 0 14.9489 0 14.75L0 2.25C0 2.05109 0.0790176 1.86032 0.21967 1.71967C0.360322 1.57902 0.551088 1.5 0.75 1.5C0.948912 1.5 1.13968 1.57902 1.28033 1.71967C1.42098 1.86032 1.5 2.05109 1.5 2.25ZM15.78 4.78L10.53 10.03C10.3894 10.1705 10.1988 10.2493 10 10.2493C9.80125 10.2493 9.61063 10.1705 9.47 10.03L7 7.56L4.28 10.28C4.13785 10.4126 3.94975 10.4849 3.75536 10.4815C3.56097 10.4782 3.37548 10.3995 3.238 10.262C3.10053 10.1245 3.02181 9.93903 3.01846 9.74464C3.0151 9.55025 3.08736 9.36215 3.22 9.22L6.47 5.97C6.61063 5.82955 6.80125 5.75066 7 5.75066C7.19875 5.75066 7.38937 5.82955 7.53 5.97L10 8.44L14.72 3.72C14.8621 3.58736 15.0502 3.5151 15.2446 3.51846C15.439 3.52181 15.6245 3.60053 15.762 3.738C15.8995 3.87548 15.9782 4.06097 15.9815 4.25536C15.9849 4.44975 15.9126 4.63785 15.78 4.78Z" fill="#8D8E8E"/>
</svg>
