<svg width="44" height="23" viewBox="0 0 44 23" fill="none" xmlns="http://www.w3.org/2000/svg">
<g clip-path="url(#clip0)">
<path d="M26.6939 20V14.654C26.6939 14.174 26.6759 13.766 26.6399 13.43C26.6159 13.082 26.5559 12.8 26.4599 12.584C26.3639 12.368 26.2319 12.212 26.0639 12.116C25.8959 12.008 25.6739 11.954 25.3979 11.954C24.9899 11.954 24.6419 12.116 24.3539 12.44C24.0779 12.752 23.8859 13.112 23.7779 13.52V20H22.4819V11H23.3999L23.6339 11.954H23.6879C23.9399 11.606 24.2399 11.324 24.5879 11.108C24.9359 10.892 25.3799 10.784 25.9199 10.784C26.3759 10.784 26.7479 10.886 27.0359 11.09C27.3359 11.282 27.5699 11.63 27.7379 12.134C27.9539 11.714 28.2599 11.384 28.6559 11.144C29.0639 10.904 29.5079 10.784 29.9879 10.784C30.3839 10.784 30.7199 10.838 30.9959 10.946C31.2839 11.042 31.5119 11.222 31.6799 11.486C31.8599 11.738 31.9919 12.08 32.0759 12.512C32.1599 12.932 32.2019 13.466 32.2019 14.114V20H30.9059V14.276C30.9059 13.496 30.8279 12.914 30.6719 12.53C30.5279 12.146 30.1859 11.954 29.6459 11.954C29.1899 11.954 28.8239 12.098 28.5479 12.386C28.2839 12.662 28.0979 13.04 27.9899 13.52V20H26.6939ZM39.5885 19.388C39.3005 19.652 38.9345 19.856 38.4905 20C38.0465 20.144 37.5785 20.216 37.0865 20.216C36.5225 20.216 36.0305 20.108 35.6105 19.892C35.2025 19.664 34.8605 19.346 34.5845 18.938C34.3205 18.518 34.1225 18.02 33.9905 17.444C33.8705 16.868 33.8105 16.22 33.8105 15.5C33.8105 13.964 34.0925 12.794 34.6565 11.99C35.2205 11.186 36.0185 10.784 37.0505 10.784C37.3865 10.784 37.7165 10.826 38.0405 10.91C38.3765 10.994 38.6765 11.162 38.9405 11.414C39.2045 11.666 39.4145 12.02 39.5705 12.476C39.7385 12.932 39.8225 13.526 39.8225 14.258C39.8225 14.462 39.8105 14.684 39.7865 14.924C39.7745 15.152 39.7565 15.392 39.7325 15.644H35.1605C35.1605 16.16 35.2025 16.628 35.2865 17.048C35.3705 17.468 35.5025 17.828 35.6825 18.128C35.8625 18.416 36.0905 18.644 36.3665 18.812C36.6545 18.968 37.0085 19.046 37.4285 19.046C37.7525 19.046 38.0705 18.986 38.3825 18.866C38.7065 18.746 38.9525 18.602 39.1205 18.434L39.5885 19.388ZM38.5805 14.564C38.6045 13.664 38.4785 13.004 38.2025 12.584C37.9265 12.164 37.5485 11.954 37.0685 11.954C36.5165 11.954 36.0785 12.164 35.7545 12.584C35.4305 13.004 35.2385 13.664 35.1785 14.564H38.5805Z" fill="#787C93"/>
</g>
<path fill-rule="evenodd" clip-rule="evenodd" d="M19.8 22C21.015 22 22 21.015 22 19.8C22 18.5849 21.015 17.6 19.8 17.6C18.5849 17.6 17.6 18.5849 17.6 19.8C17.6 21.015 18.5849 22 19.8 22Z" fill="#668AE9"/>
<mask id="mask0" mask-type="alpha" maskUnits="userSpaceOnUse" x="0" y="0" width="21" height="22">
<path fill-rule="evenodd" clip-rule="evenodd" d="M10.2667 21.2667C15.9368 21.2667 20.5333 16.506 20.5333 10.6333C20.5333 4.76071 15.9368 0 10.2667 0C4.59654 0 0 4.76071 0 10.6333C0 16.506 4.59654 21.2667 10.2667 21.2667Z" fill="white"/>
</mask>
<g mask="url(#mask0)">
<rect x="-5.86664" width="28.6" height="5.86667" rx="2.93333" fill="#6DB9EA" fill-opacity="0.678725"/>
<path fill-rule="evenodd" clip-rule="evenodd" d="M-5.86664 11C-5.86664 9.37995 -4.55334 8.06665 -2.9333 8.06665H19.8C21.4201 8.06665 22.7334 9.37995 22.7334 11C22.7334 12.62 21.4201 13.9333 19.8 13.9333H-2.9333C-4.55334 13.9333 -5.86664 12.62 -5.86664 11Z" fill="#6BACEA"/>
<rect x="-5.86664" y="3.66669" width="28.6" height="5.13333" rx="2.56667" fill="#6DB9EA"/>
<rect x="-5.86664" y="13.2" width="28.6" height="5.86667" rx="2.93333" fill="#689BE9"/>
<rect x="-5.86664" y="16.8666" width="28.6" height="5.86667" rx="2.93333" fill="#6791E9"/>
<path fill-rule="evenodd" clip-rule="evenodd" d="M15.4 17.6C16.615 17.6 17.6 16.615 17.6 15.4C17.6 14.185 16.615 13.2 15.4 13.2C14.185 13.2 13.2 14.185 13.2 15.4C13.2 16.615 14.185 17.6 15.4 17.6Z" fill="white"/>
</g>
<defs>
<clipPath id="clip0">
<rect width="23" height="21" fill="white" transform="translate(21 2)"/>
</clipPath>
</defs>
</svg>
