<svg width="18" height="45" viewBox="0 0 18 45" fill="none" xmlns="http://www.w3.org/2000/svg">
<path d="M15.3965 14.9656L16.3563 15.9254L9.63789 22.6437L16.3563 29.3621L15.3965 30.3219L8.67813 23.6035L1.95977 30.3219L1 29.3621L7.71836 22.6437L1 15.9254L1.95977 14.9656L8.67813 21.684L15.3965 14.9656Z" fill="#484848"/>
<path d="M15.3965 14.9656L15.8791 14.483L15.3965 14.0004L14.9139 14.483L15.3965 14.9656ZM16.3563 15.9254L16.8389 16.408L17.3215 15.9254L16.8389 15.4428L16.3563 15.9254ZM9.63789 22.6437L9.15529 22.1611L8.67269 22.6437L9.15529 23.1264L9.63789 22.6437ZM16.3563 29.3621L16.8389 29.8447L17.3215 29.3621L16.8389 28.8795L16.3563 29.3621ZM15.3965 30.3219L14.9139 30.8045L15.3965 31.2871L15.8791 30.8045L15.3965 30.3219ZM8.67813 23.6035L9.16073 23.1209L8.67813 22.6383L8.19552 23.1209L8.67813 23.6035ZM1.95977 30.3219L1.47717 30.8045L1.95977 31.2871L2.44237 30.8045L1.95977 30.3219ZM1 29.3621L0.5174 28.8795L0.0347992 29.3621L0.5174 29.8447L1 29.3621ZM7.71836 22.6437L8.20096 23.1264L8.68356 22.6437L8.20096 22.1611L7.71836 22.6437ZM1 15.9254L0.5174 15.4428L0.0347992 15.9254L0.5174 16.408L1 15.9254ZM1.95977 14.9656L2.44237 14.483L1.95977 14.0004L1.47717 14.483L1.95977 14.9656ZM8.67813 21.684L8.19552 22.1666L8.67813 22.6492L9.16073 22.1666L8.67813 21.684ZM14.9139 15.4482L15.8736 16.408L16.8389 15.4428L15.8791 14.483L14.9139 15.4482ZM15.8736 15.4428L9.15529 22.1611L10.1205 23.1264L16.8389 16.408L15.8736 15.4428ZM9.15529 23.1264L15.8736 29.8447L16.8389 28.8795L10.1205 22.1611L9.15529 23.1264ZM15.8736 28.8795L14.9139 29.8393L15.8791 30.8045L16.8389 29.8447L15.8736 28.8795ZM15.8791 29.8393L9.16073 23.1209L8.19552 24.0861L14.9139 30.8045L15.8791 29.8393ZM8.19552 23.1209L1.47717 29.8393L2.44237 30.8045L9.16073 24.0861L8.19552 23.1209ZM2.44237 29.8393L1.4826 28.8795L0.5174 29.8447L1.47717 30.8045L2.44237 29.8393ZM1.4826 29.8447L8.20096 23.1264L7.23576 22.1611L0.5174 28.8795L1.4826 29.8447ZM8.20096 22.1611L1.4826 15.4428L0.5174 16.408L7.23576 23.1264L8.20096 22.1611ZM1.4826 16.408L2.44237 15.4482L1.47717 14.483L0.5174 15.4428L1.4826 16.408ZM1.47717 15.4482L8.19552 22.1666L9.16073 21.2014L2.44237 14.483L1.47717 15.4482ZM9.16073 22.1666L15.8791 15.4482L14.9139 14.483L8.19552 21.2014L9.16073 22.1666Z" fill="#484848"/>
</svg>
