<svg width="22" height="23" viewBox="0 0 22 23" fill="none" xmlns="http://www.w3.org/2000/svg">
<path d="M20.8618 18.3036C20.7853 18.2597 20.2101 17.9032 19.6342 16.8249C18.5765 14.8446 18.3544 12.0551 18.3544 10.0636C18.3544 10.055 18.3542 10.0464 18.3539 10.0377C18.3424 7.40582 16.5608 5.137 14.0114 4.11902V2.56216C14.0114 1.14937 12.7142 0 11.1198 0H10.8801C9.28572 0 7.98856 1.14937 7.98856 2.56216V4.11893C5.4306 5.14019 3.64549 7.4206 3.64549 10.0636C3.64549 12.0551 3.42348 14.8446 2.36575 16.8249C1.78984 17.9032 1.21464 18.2596 1.13817 18.3036C0.816112 18.4354 0.657319 18.74 0.731409 19.0486C0.80621 19.3603 1.13558 19.5752 1.49526 19.5752H7.07851C7.10969 21.4683 8.85626 23 11 23C13.1437 23 14.8903 21.4683 14.9215 19.5752H20.5047C20.8644 19.5752 21.1938 19.3603 21.2686 19.0486C21.3426 18.74 21.1838 18.4354 20.8618 18.3036ZM9.51205 2.56216C9.51205 1.89368 10.1258 1.34986 10.8802 1.34986H11.1198C11.8742 1.34986 12.488 1.89368 12.488 2.56216V3.68148C12.0072 3.59357 11.5095 3.5473 10.9998 3.5473C10.4902 3.5473 9.99269 3.59353 9.5121 3.68135V2.56216H9.51205ZM11 21.6501C9.69628 21.6501 8.63287 20.724 8.60195 19.5753H13.398C13.3671 20.7239 12.3037 21.6501 11 21.6501ZM14.0672 18.2253C14.067 18.2253 3.23122 18.2253 3.23122 18.2253C3.363 18.0437 3.49711 17.838 3.63041 17.6055C4.65132 15.8247 5.16898 13.2872 5.16898 10.0636C5.16898 7.21481 7.78467 4.89716 10.9997 4.89716C14.2148 4.89716 16.8305 7.21481 16.8305 10.0659C16.8305 10.0742 16.8306 10.0824 16.831 10.0907C16.8339 13.3014 17.3515 15.8297 18.3696 17.6055C18.5029 17.838 18.637 18.0437 18.7688 18.2253H14.0672Z" fill="#636363"/>
</svg>