<svg width="14" height="15" viewBox="0 0 14 15" fill="none" xmlns="http://www.w3.org/2000/svg">
<path d="M13.5898 10.6484L10.5273 9.33594C10.4453 9.30859 10.3359 9.28125 10.2539 9.28125C10.0898 9.28125 9.87109 9.39062 9.76172 9.52734L8.39453 11.1953C6.58984 10.3203 4.40234 8.16016 3.55469 6.35547L5.22266 4.98828C5.35938 4.87891 5.46875 4.66016 5.46875 4.46875C5.46875 4.41406 5.44141 4.30469 5.41406 4.22266L4.10156 1.16016C3.99219 0.941406 3.71875 0.777344 3.47266 0.777344C3.44531 0.777344 3.39062 0.777344 3.33594 0.777344L0.492188 1.43359C0.21875 1.48828 0 1.78906 0 2.0625C0 9.08984 5.66016 14.75 12.6875 14.75C12.9609 14.75 13.2617 14.5312 13.3164 14.2578L13.9727 11.4141C13.9727 11.3594 13.9727 11.3047 13.9727 11.2773C13.9727 11.0312 13.8086 10.7578 13.5898 10.6484Z" fill="#484848"/>
</svg>
