<svg width="18" height="18" viewBox="0 0 18 18" fill="none" xmlns="http://www.w3.org/2000/svg">
<path d="M13.5 8.6875C13.5 8.47656 13.2891 8.26562 13.0781 8.26562H9.98438V5.17188C9.98438 4.96094 9.77344 4.75 9.5625 4.75H8.4375C8.19141 4.75 8.01562 4.96094 8.01562 5.17188V8.26562H4.92188C4.67578 8.26562 4.5 8.47656 4.5 8.6875V9.8125C4.5 10.0586 4.67578 10.2344 4.92188 10.2344H8.01562V13.3281C8.01562 13.5742 8.19141 13.75 8.4375 13.75H9.5625C9.77344 13.75 9.98438 13.5742 9.98438 13.3281V10.2344H13.0781C13.2891 10.2344 13.5 10.0586 13.5 9.8125V8.6875ZM17.7188 9.25C17.7188 4.43359 13.8164 0.53125 9 0.53125C4.18359 0.53125 0.28125 4.43359 0.28125 9.25C0.28125 14.0664 4.18359 17.9688 9 17.9688C13.8164 17.9688 17.7188 14.0664 17.7188 9.25ZM16.0312 9.25C16.0312 13.1523 12.8672 16.2812 9 16.2812C5.09766 16.2812 1.96875 13.1523 1.96875 9.25C1.96875 5.38281 5.09766 2.21875 9 2.21875C12.8672 2.21875 16.0312 5.38281 16.0312 9.25Z" fill="#484848"/>
</svg>
