<?xml version="1.0" encoding="utf-8"?>
<!-- Generator: Adobe Illustrator 25.0.0, SVG Export Plug-In . SVG Version: 6.00 Build 0)  -->
<svg version="1.1" id="Layer_1" xmlns="http://www.w3.org/2000/svg" xmlns:xlink="http://www.w3.org/1999/xlink" x="0px" y="0px"
	 viewBox="0 0 300 300" style="enable-background:new 0 0 300 300;" xml:space="preserve">
<style type="text/css">
	.st0{fill:none;stroke:url(#SVGID_1_);stroke-width:23;stroke-linecap:round;stroke-miterlimit:10;}
	.st1{fill:none;stroke:url(#SVGID_2_);stroke-width:16;stroke-linecap:round;stroke-miterlimit:10;}
	.st2{fill:none;stroke:url(#SVGID_3_);stroke-width:11;stroke-linecap:round;stroke-miterlimit:10;}
</style>
<g>
	<linearGradient id="SVGID_1_" gradientUnits="userSpaceOnUse" x1="67.8123" y1="67.3915" x2="218.203" y2="217.7821">
		<stop  offset="0" style="stop-color:#B6D8F2"/>
		<stop  offset="0.9904" style="stop-color:#86B8E3"/>
	</linearGradient>
	<path class="st0" d="M174.52,242.7c-8.8,2.53-18.1,3.88-27.72,3.88c-55.34,0-100.2-44.86-100.2-100.2s44.86-100.2,100.2-100.2
		S247,91.04,247,146.38c0,10.95-1.76,21.48-5,31.34"/>
	<linearGradient id="SVGID_2_" gradientUnits="userSpaceOnUse" x1="203.7003" y1="112.4399" x2="104.9193" y2="169.4712">
		<stop  offset="9.640958e-03" style="stop-color:#F5939A"/>
		<stop  offset="1" style="stop-color:#F1626A"/>
	</linearGradient>
	<path class="st1" d="M88.79,125.53c10.53-28.46,41.12-44.88,71.13-37.12c32.01,8.28,51.25,40.95,42.97,72.96
		c-6.99,27-31.31,44.91-57.97,44.89"/>
	<linearGradient id="SVGID_3_" gradientUnits="userSpaceOnUse" x1="211.3173" y1="218.2888" x2="239.8918" y2="246.8634">
		<stop  offset="9.640958e-03" style="stop-color:#F5939A"/>
		<stop  offset="1" style="stop-color:#F1626A"/>
	</linearGradient>
	<path class="st2" d="M225.6,211.78v41.59 M204.81,232.58h41.59"/>
</g>
</svg>
