<svg width="24" height="24" viewBox="0 0 24 24" fill="none" xmlns="http://www.w3.org/2000/svg">
<path d="M12 19C12.3978 19 12.7794 19.158 13.0607 19.4393C13.342 19.7206 13.5 20.1022 13.5 20.5C13.5 20.8978 13.342 21.2794 13.0607 21.5607C12.7794 21.842 12.3978 22 12 22C11.6022 22 11.2206 21.842 10.9393 21.5607C10.658 21.2794 10.5 20.8978 10.5 20.5C10.5 20.1022 10.658 19.7206 10.9393 19.4393C11.2206 19.158 11.6022 19 12 19ZM12 2C13.5913 2 15.1174 2.63214 16.2426 3.75736C17.3679 4.88258 18 6.4087 18 8C18 10.165 17.247 11.29 15.326 12.923C13.399 14.56 13 15.297 13 17H11C11 14.526 11.787 13.305 14.031 11.399C15.548 10.11 16 9.434 16 8C16 6.93913 15.5786 5.92172 14.8284 5.17157C14.0783 4.42143 13.0609 4 12 4C10.9391 4 9.92172 4.42143 9.17157 5.17157C8.42143 5.92172 8 6.93913 8 8V9H6V8C6 6.4087 6.63214 4.88258 7.75736 3.75736C8.88258 2.63214 10.4087 2 12 2Z" fill="#636363"/>
</svg>
