<svg width="157" height="83" viewBox="0 0 157 83" fill="none" xmlns="http://www.w3.org/2000/svg">
<path d="M9.90968 25.8172L140.822 3.12937C141.263 -0.273577 142.386 -0.52156 143.69 3.39011L11.7351 27.3819C10.9289 23.3569 10.5265 22.9376 9.90968 25.8172Z" fill="#357ABD"/>
<path d="M10.692 23.9918L142.908 0L143.69 3.39015L11.7351 27.382L10.692 23.9918Z" fill="#D6EAFE"/>
<path d="M11.7351 27.382L143.69 3.3902L155.514 46.9894C155.895 48.3957 155.05 49.8418 153.637 50.1998L28.1315 82.0112C26.1464 82.5144 24.1357 81.2865 23.6766 79.2907L11.7351 27.382Z" fill="#5599DB"/>
<path d="M9.90966 25.8173L11.2136 25.035L20.3409 64.1521L4.8311 67.5324C2.58661 68.0216 0.597575 66.0063 1.11611 63.7684L9.90966 25.8173Z" fill="#357ABD"/>
<path d="M40.4243 53.9704L37.4649 54.6801L39.0475 61.2799L35.3328 62.1706L31.0097 44.1419L37.7085 42.5355C39.8383 42.0248 41.5949 42.1056 42.9782 42.7778C44.3615 43.45 45.261 44.6528 45.6767 46.3864C45.9717 47.6164 45.9498 48.7084 45.6112 49.6626C45.2788 50.6065 44.6304 51.4516 43.6658 52.198L49.3329 58.6302L49.3744 58.8036L45.3873 59.7597L40.4243 53.9704ZM36.7434 51.6711L39.74 50.9526C40.6728 50.7289 41.3387 50.3204 41.7376 49.7272C42.1346 49.1257 42.2332 48.408 42.0333 47.5743C41.8294 46.724 41.4255 46.1138 40.8217 45.7435C40.2261 45.3713 39.4289 45.3049 38.4301 45.5445L35.4459 46.26L36.7434 51.6711Z" fill="white"/>
<path d="M57.5195 57.1124C55.5549 57.5835 53.8089 57.3649 52.2817 56.4566C50.7627 55.5463 49.7627 54.0882 49.2817 52.0822L49.1985 51.7355C48.8759 50.39 48.8479 49.1265 49.1146 47.9452C49.3793 46.7556 49.918 45.7622 50.7308 44.9649C51.5498 44.1575 52.5701 43.6073 53.7919 43.3143C55.6245 42.8749 57.2035 43.1073 58.529 44.0116C59.8628 44.9139 60.784 46.4258 61.2927 48.5474L61.6431 50.0085L53.1116 52.0543C53.437 52.9016 53.952 53.5201 54.6565 53.9099C55.3693 54.2976 56.1715 54.3846 57.063 54.1708C58.4416 53.8403 59.3991 53.0825 59.9355 51.8976L62.1659 53.4448C61.8115 54.3329 61.2276 55.1015 60.4142 55.7504C59.5988 56.3912 58.634 56.8451 57.5195 57.1124ZM54.4743 46.2148C53.7644 46.385 53.2439 46.763 52.913 47.3486C52.5903 47.9323 52.4739 48.6848 52.5638 49.606L57.5416 48.4124L57.4733 48.1276C57.2667 47.3391 56.9056 46.7797 56.39 46.4494C55.8723 46.1109 55.2337 46.0327 54.4743 46.2148Z" fill="white"/>
<path d="M71.3817 49.6112C71.2768 49.1737 70.9759 48.8836 70.479 48.7409C69.9884 48.5879 69.2406 48.5272 68.2355 48.5586C64.8887 48.6541 62.9709 47.6823 62.482 45.6433C62.1969 44.4546 62.4506 43.3462 63.2429 42.3182C64.0415 41.2799 65.2374 40.5698 66.8306 40.1878C68.5311 39.78 69.985 39.8547 71.1924 40.412C72.408 40.9673 73.1692 41.8847 73.476 43.1642L69.8975 44.0223C69.7748 43.5105 69.5087 43.1291 69.0994 42.878C68.688 42.6188 68.1315 42.5733 67.4298 42.7415C66.8272 42.886 66.3935 43.1341 66.1286 43.4856C65.8637 43.8372 65.7818 44.2235 65.8827 44.6445C65.9777 45.0408 66.2407 45.3182 66.6715 45.4767C67.1087 45.6251 67.7948 45.6832 68.7298 45.651C69.6629 45.6106 70.4616 45.6286 71.126 45.705C73.1826 45.9451 74.4158 46.9195 74.8256 48.6283C75.1185 49.85 74.8319 50.9663 73.9656 51.9772C73.0974 52.9798 71.8336 53.68 70.1744 54.0779C69.0517 54.3471 68.0053 54.3885 67.0353 54.202C66.0715 54.0054 65.2589 53.6197 64.5973 53.0451C63.9337 52.4622 63.505 51.7663 63.311 50.9573L66.7038 50.1437C66.8892 50.7714 67.2413 51.2021 67.7599 51.4356C68.2786 51.6691 68.9053 51.6978 69.64 51.5216C70.3251 51.3574 70.8104 51.1057 71.0957 50.7666C71.3873 50.4174 71.4827 50.0322 71.3817 49.6112Z" fill="white"/>
<path d="M84.2903 50.693C82.3256 51.1641 80.5797 50.9455 79.0524 50.0372C77.5334 49.1269 76.5335 47.6688 76.0524 45.6629L75.9693 45.3161C75.6467 43.9706 75.6187 42.7071 75.8854 41.5258C76.1501 40.3362 76.6888 39.3428 77.5015 38.5456C78.3205 37.7381 79.3409 37.1879 80.5626 36.8949C82.3952 36.4555 83.9743 36.6879 85.2998 37.5922C86.6335 38.4946 87.5548 40.0065 88.0635 42.128L88.4139 43.5891L79.8824 45.6349C80.2078 46.4822 80.7227 47.1007 81.4273 47.4905C82.1401 47.8783 82.9422 47.9653 83.8338 47.7515C85.2123 47.4209 86.1698 46.6632 86.7063 45.4782L88.9367 47.0254C88.5822 47.9135 87.9983 48.6821 87.185 49.3311C86.3696 49.9718 85.4047 50.4258 84.2903 50.693ZM81.2451 39.7954C80.5351 39.9656 80.0147 40.3436 79.6837 40.9293C79.361 41.513 79.2447 42.2654 79.3346 43.1866L84.3123 41.993L84.244 41.7082C84.0375 40.9197 83.6764 40.3603 83.1607 40.03C82.6431 39.6915 82.0045 39.6133 81.2451 39.7954Z" fill="white"/>
<path d="M96.9047 36.7867C96.4018 36.8375 95.9646 36.9074 95.5932 36.9965C94.2394 37.3211 93.4618 37.9921 93.2605 39.0093L95.3627 47.776L91.7842 48.6341L88.5715 35.2364L91.9519 34.4258L92.434 35.9994C92.8573 34.5972 93.7045 33.7436 94.9758 33.4388C95.372 33.3438 95.7564 33.3084 96.1288 33.3326L96.9047 36.7867Z" fill="white"/>
<path d="M105.236 40.7862L105.56 31.1627L109.3 30.266L107.993 44.7475L104.575 45.567L96.843 33.253L100.582 32.3563L105.236 40.7862Z" fill="white"/>
<path d="M120.15 42.0942C118.185 42.5653 116.439 42.3468 114.912 41.4384C113.393 40.5282 112.393 39.0701 111.912 37.0641L111.829 36.7174C111.506 35.3718 111.478 34.1084 111.745 32.9271C112.01 31.7375 112.548 30.7441 113.361 29.9468C114.18 29.1394 115.2 28.5891 116.422 28.2962C118.255 27.8568 119.834 28.0892 121.159 28.9935C122.493 29.8958 123.414 31.4077 123.923 33.5292L124.273 34.9904L115.742 37.0361C116.067 37.8834 116.582 38.502 117.287 38.8917C118 39.2795 118.802 39.3665 119.693 39.1527C121.072 38.8222 122.029 38.0644 122.566 36.8795L124.796 38.4267C124.442 39.3148 123.858 40.0833 123.044 40.7323C122.229 41.373 121.264 41.827 120.15 42.0942ZM117.105 31.1966C116.395 31.3669 115.874 31.7448 115.543 32.3305C115.22 32.9142 115.104 33.6667 115.194 34.5879L120.172 33.3943L120.104 33.1095C119.897 32.321 119.536 31.7616 119.02 31.4313C118.503 31.0927 117.864 31.0145 117.105 31.1966Z" fill="white"/>
<path d="M125.456 33.3711C124.956 31.2826 125.023 29.5074 125.659 28.0454C126.303 26.5815 127.438 25.6546 129.065 25.2647C130.369 24.9519 131.563 25.1806 132.647 25.9508L131.008 19.1157L134.599 18.2547L139.159 37.2741L135.927 38.049L135.413 36.6666C134.788 37.9948 133.775 38.8272 132.371 39.1637C130.795 39.5417 129.379 39.2265 128.124 38.2178C126.876 37.199 125.987 35.5834 125.456 33.3711ZM129.097 32.773C129.398 34.0277 129.847 34.937 130.445 35.5007C131.043 36.0645 131.759 36.2464 132.593 36.0465C133.699 35.7812 134.367 35.1277 134.597 34.0861L133.33 28.7988C132.66 27.9729 131.777 27.6915 130.679 27.9548C128.953 28.3685 128.426 29.9746 129.097 32.773Z" fill="white"/>
</svg>
