<svg width="28" height="28" viewBox="4 -3 34 35" fill="none" xmlns="http://www.w3.org/2000/svg">
<g clip-path="url(#clip0_246_313)">
<path d="M18.9481 6.41895V15.5799M18.9481 15.5799V23.9712M18.9481 15.5799H25.4038H9.03418" stroke="#F67D7D" stroke-width="0.848671"/>
<path d="M29.8966 23.9354C29.7967 23.878 29.0445 23.4119 28.2913 22.0017C26.9082 19.4122 26.6178 15.7643 26.6178 13.1601C26.6178 13.1488 26.6176 13.1376 26.6171 13.1263C26.602 9.68454 24.2723 6.71761 20.9384 5.38641V3.35052C20.9384 1.50302 19.2421 0 17.1571 0H16.8438C14.7587 0 13.0624 1.50302 13.0624 3.35052V5.3863C9.71743 6.72178 7.38305 9.70386 7.38305 13.1601C7.38305 15.7643 7.09272 19.4121 5.70955 22.0017C4.95643 23.4118 4.20425 23.878 4.10424 23.9354C3.68309 24.1078 3.47544 24.5061 3.57233 24.9097C3.67014 25.3174 4.10085 25.5984 4.57121 25.5984H11.8724C11.9132 28.0739 14.1971 30.0769 17.0005 30.0769C19.8038 30.0769 22.0878 28.0739 22.1286 25.5984H29.4297C29.9 25.5984 30.3308 25.3174 30.4286 24.9097C30.5254 24.5061 30.3178 24.1078 29.8966 23.9354ZM15.0547 3.35052C15.0547 2.47635 15.8573 1.7652 16.8438 1.7652H17.1572C18.1437 1.7652 18.9463 2.47635 18.9463 3.35052V4.81425C18.3176 4.69928 17.6667 4.63878 17.0002 4.63878C16.3339 4.63878 15.6832 4.69923 15.0548 4.81407V3.35052H15.0547ZM17.0005 28.3117C15.2956 28.3117 13.905 27.1006 13.8646 25.5985H20.1363C20.0959 27.1005 18.7053 28.3117 17.0005 28.3117ZM21.0114 23.8331C21.0112 23.8331 6.84131 23.8331 6.84131 23.8331C7.01363 23.5956 7.18901 23.3266 7.36333 23.0226C8.69836 20.6938 9.3753 17.3756 9.3753 13.1601C9.3753 9.43476 12.7958 6.40398 17.0001 6.40398C21.2045 6.40398 24.625 9.43476 24.625 13.1631C24.625 13.1739 24.6252 13.1847 24.6256 13.1955C24.6294 17.3941 25.3063 20.7004 26.6376 23.0226C26.8119 23.3267 26.9874 23.5956 27.1596 23.8331H21.0114Z" fill="#636363"/>
<path d="M21.4569 12.1071C19.9881 13.1662 19.1736 14.9349 18.9499 15.6868C20.7952 15.8474 24.4185 15.6653 25.4 14.527C26.4162 13.3486 26.0505 12.5067 25.6255 11.9355C25.2004 11.3644 23.2929 10.7833 21.4569 12.1071Z" stroke="#F67D7D" stroke-width="1.35946"/>
<path d="M24.5178 22.0388L24.3719 22.7027L24.5178 22.0388ZM28.2446 20.763C27.8729 20.8154 27.614 21.1592 27.6664 21.5309C27.7188 21.9026 28.0626 22.1615 28.4344 22.1091L28.2446 20.763ZM18.3375 15.9319C18.7725 17.182 19.5759 18.6964 20.597 19.9769C21.6035 21.2392 22.9065 22.3805 24.3719 22.7027L24.6638 21.3749C23.6554 21.1532 22.5992 20.3074 21.6599 19.1294C20.7352 17.9697 20.0062 16.5909 19.6215 15.4851L18.3375 15.9319ZM24.3719 22.7027C25.9782 23.0558 27.263 22.87 28.0699 22.5795C28.4415 22.4457 28.8012 22.2577 29.0073 22.0215C29.0611 21.9598 29.1519 21.8421 29.1948 21.6748C29.2467 21.4724 29.222 21.1934 29.0076 20.9775C28.8372 20.8059 28.6344 20.7678 28.541 20.7566C28.431 20.7434 28.3273 20.7513 28.2446 20.763L28.4344 22.1091C28.451 22.1068 28.4277 22.1122 28.3794 22.1064C28.3478 22.1026 28.1882 22.0817 28.043 21.9355C27.8538 21.7449 27.8363 21.4995 27.878 21.3371C27.9106 21.2097 27.9737 21.1383 27.983 21.1278C28.0106 21.096 27.9216 21.188 27.6094 21.3004C27.0484 21.5024 26.0247 21.6741 24.6638 21.3749L24.3719 22.7027Z" fill="#F67D7D"/>
<path d="M13.2339 19.0738L13.2444 19.7534L13.2339 19.0738ZM10.1373 17.4775C10.4995 17.5763 10.713 17.95 10.6141 18.3122C10.5153 18.6743 10.1415 18.8878 9.77938 18.789L10.1373 17.4775ZM19.5299 15.8586C18.9577 16.6866 18.0255 17.6353 16.9406 18.3856C15.8633 19.1306 14.5581 19.7331 13.2444 19.7534L13.2234 18.3941C14.1582 18.3797 15.1994 17.9368 16.1673 17.2675C17.1277 16.6034 17.9395 15.7687 18.4115 15.0857L19.5299 15.8586ZM13.2444 19.7534C11.7987 19.7758 10.7067 19.4747 10.0418 19.1656C9.87495 19.088 9.72827 19.0068 9.60621 18.9254C9.49613 18.852 9.36469 18.7515 9.26602 18.6247C9.22458 18.5714 9.12501 18.4345 9.10095 18.2362C9.08722 18.1231 9.09715 17.9767 9.1717 17.829C9.24681 17.6802 9.36074 17.5831 9.466 17.5255C9.64892 17.4254 9.82606 17.4308 9.89452 17.435C9.98471 17.4406 10.0686 17.4587 10.1373 17.4775L9.77938 18.789C9.76271 18.7844 9.77635 18.7898 9.81126 18.7919C9.82443 18.7928 9.96124 18.8041 10.1185 18.7181C10.211 18.6675 10.3157 18.5794 10.3854 18.4415C10.4544 18.3047 10.4625 18.1711 10.4505 18.0724C10.43 17.9031 10.3483 17.8019 10.3391 17.79C10.3047 17.7459 10.2944 17.7504 10.3603 17.7943C10.4142 17.8302 10.4983 17.8786 10.615 17.9328C11.0844 18.1511 11.9719 18.4135 13.2234 18.3941L13.2444 19.7534Z" fill="#F67D7D"/>
<path d="M16.4796 11.3466C17.8523 12.755 18.392 14.7999 18.4903 15.6463C16.4861 15.4719 12.6441 14.5977 11.8075 13.196C10.9414 11.7448 11.4905 10.9126 12.0523 10.3814C12.6141 9.85006 14.7637 9.58611 16.4796 11.3466Z" stroke="#F67D7D" stroke-width="1.35946"/>
</g>
<defs>
<clipPath id="clip0_246_313">
<rect width="34" height="30.0769" fill="white"/>
</clipPath>
</defs>
</svg>
