<svg width="116" height="117" viewBox="0 0 116 117" fill="none" xmlns="http://www.w3.org/2000/svg">
<rect y="0.550293" width="90.8876" height="116.45" fill="#357ABD"/>
<rect y="0.550293" width="90.8876" height="15.6213" fill="#357ABD"/>
<rect x="2.13019" y="0.550293" width="90.8876" height="116.45" fill="#5599DB"/>
<rect y="0.550293" width="93.0178" height="15.6213" fill="#5599DB"/>
<path d="M2.1302 16.1716C-0.473355 48.3609 0.970409 109.544 32.923 112.74H114.539C107.08 112.387 93.0177 92.8499 93.0177 16.1716H2.1302Z" fill="#357ABD"/>
<path d="M11.6213 95.6982C14.2249 98.8935 21.4202 103.658 29.3728 97.1252C28.3077 103.864 27.9527 109.189 34.3432 112.747C21.2071 112.03 13.9882 101.024 11.6213 95.6982Z" fill="#D6EAFE"/>
<path d="M36.4959 31.4822H40.6564V45.4615C40.6564 46.7467 40.3698 47.8839 39.7966 48.8731C39.2326 49.8532 38.4329 50.6113 37.3974 51.1476C36.3619 51.6838 35.1923 51.9519 33.8887 51.9519C31.753 51.9519 30.0888 51.4111 28.8961 50.3293C27.7034 49.2383 27.1071 47.699 27.1071 45.7112H31.2953C31.2953 46.7004 31.5033 47.4308 31.9194 47.9024C32.3354 48.3739 32.9919 48.6096 33.8887 48.6096C34.6838 48.6096 35.3171 48.3369 35.7886 47.7914C36.2602 47.2459 36.4959 46.4693 36.4959 45.4615V31.4822Z" fill="white"/>
<path d="M52.6525 51.6746C52.4676 51.314 52.3336 50.8656 52.2504 50.3293C51.2796 51.4111 50.0176 51.9519 48.4643 51.9519C46.9943 51.9519 45.7738 51.5266 44.8031 50.676C43.8415 49.8254 43.3608 48.753 43.3608 47.4586C43.3608 45.8683 43.9479 44.6479 45.122 43.7973C46.3055 42.9467 48.0113 42.5168 50.2395 42.5076H52.0839V41.6477C52.0839 40.9543 51.9037 40.3996 51.5431 39.9835C51.1918 39.5675 50.6324 39.3595 49.865 39.3595C49.1901 39.3595 48.6585 39.5213 48.2702 39.8449C47.8911 40.1684 47.7015 40.6122 47.7015 41.1762H43.6936C43.6936 40.3071 43.9617 39.5028 44.498 38.7631C45.0342 38.0235 45.7923 37.4456 46.7724 37.0296C47.7524 36.6043 48.8526 36.3916 50.073 36.3916C51.9221 36.3916 53.3876 36.8585 54.4693 37.7923C55.5603 38.7169 56.1058 40.0205 56.1058 41.7032V48.2075C56.115 49.6313 56.3138 50.7084 56.7021 51.4388V51.6746H52.6525ZM49.338 48.887C49.9297 48.887 50.4752 48.7576 50.9745 48.4987C51.4737 48.2306 51.8436 47.8746 52.0839 47.4308V44.8513H50.5862C48.5799 44.8513 47.512 45.5447 47.3826 46.9316L47.3687 47.1673C47.3687 47.6666 47.5444 48.078 47.8957 48.4016C48.247 48.7252 48.7278 48.887 49.338 48.887Z" fill="white"/>
<path d="M62.8735 36.669L62.9983 38.4025C64.0708 37.0619 65.5085 36.3916 67.3114 36.3916C68.9016 36.3916 70.0851 36.8585 70.8617 37.7923C71.6383 38.7261 72.0359 40.1222 72.0544 41.9806L73.1361 51.6746H68.8757L68.0464 42.0777C68.0464 41.2271 67.8615 40.6122 67.4917 40.2332C67.1219 39.8449 66.507 39.6507 65.6472 39.6507C64.5192 39.6507 64.1143 40.0621 63.5503 41.0237L64.2604 51.6746H60L59.1013 36.669H62.8735Z" fill="white"/>
<path d="M57.3064 84.8351L52.6358 85.4887C50.4288 78.7293 50.5399 75.51 50.3132 70.215L45.8061 72.4013L45.3161 69.1793L53.1334 64.9606L54.2666 64.8448C54.6431 72.7146 54.0045 77.0305 57.3064 84.8351Z" fill="white"/>
<path d="M73.0953 84.3521L68.1477 85.2266C65.3255 76.8817 66.04 75.2504 65.8071 69.9556L61.3026 72.1473L60.8089 68.9258L68.6211 64.6979L70.221 64.5805C70.0877 72.4693 68.8851 76.8293 73.0953 84.3521Z" fill="white"/>
<path d="M85.4223 66.8731C81.2066 63.1324 76.7027 60.0243 71.3169 58.2858C61.4714 55.1078 49.3321 57.1916 42.7144 65.5671C40.5138 68.3522 37.6538 71.8378 36.9351 75.3951C36.1807 79.1295 36.037 83.2852 36.4127 87.0843C37.3085 96.1411 45.5627 102.794 54.2077 103.671C56.5026 103.904 59.3449 104.207 61.6195 103.638C63.9043 103.067 65.9493 101.627 68.0518 100.618C71.4588 98.9829 75.3289 96.4144 77.4717 93.2717C80.2132 89.2508 82.1898 84.2156 82.1898 79.2806C82.1898 70.9176 81.2525 60.9914 73.6678 55.9349" stroke="#D6EAFE" stroke-opacity="0.8" stroke-width="0.710059" stroke-linecap="round" stroke-linejoin="round"/>
<rect x="11.3609" y="14.0414" width="19.8817" height="0.710059" fill="white"/>
<rect x="63.1953" y="14.0414" width="19.8817" height="0.710059" fill="white"/>
</svg>
