<svg width="33" height="28" viewBox="0 0 33 28" fill="none" xmlns="http://www.w3.org/2000/svg">
<path d="M20 9H19C18.5625 9 18.25 9.25 18.0625 9.5625L17 11.8125L15.875 9.5625C15.6875 9.25 15.375 9 15 9H14C13.4375 9 13 9.5 13 10V16.5C13 16.8125 13.1875 17 13.5 17H14.5C14.75 17 15 16.8125 15 16.5V12.25L16.5 15.75C16.6875 16.125 17.25 16.125 17.4375 15.75L18.9375 12.25V16.5C18.9375 16.8125 19.1875 17 19.4375 17H20.4375C20.75 17 20.9375 16.8125 20.9375 16.5V10C21 9.5 20.5 9 20 9ZM9.4375 11.6875C9.375 11.625 9.3125 11.5 9.3125 11.4375C9.3125 11.25 9.5625 11.0625 9.9375 11.0625H10.75C11 11.0625 11.25 10.8125 11.25 10.5625V9.5625C11.25 9.25 11 9.0625 10.75 9.0625H9.9375C8.5 9.0625 7.3125 10.125 7.3125 11.4375C7.3125 12.125 7.625 12.75 8.125 13.1875L9.5 14.375C9.625 14.4375 9.625 14.5625 9.625 14.625C9.625 14.8125 9.375 15 9 15H8.25C7.9375 15 7.75 15.25 7.75 15.5V16.5C7.75 16.8125 7.9375 17 8.25 17H9C10.4375 17 11.625 15.9375 11.625 14.625C11.625 13.9375 11.3125 13.3125 10.8125 12.875L9.4375 11.6875ZM24.4375 11.6875C24.375 11.625 24.3125 11.5 24.3125 11.4375C24.3125 11.25 24.5625 11.0625 24.9375 11.0625H25.75C26 11.0625 26.25 10.8125 26.25 10.5625V9.5625C26.25 9.25 26 9.0625 25.75 9.0625H24.9375C23.5 9.0625 22.3125 10.125 22.3125 11.4375C22.3125 12.125 22.625 12.75 23.125 13.1875L24.5 14.375C24.5625 14.4375 24.625 14.5625 24.625 14.625C24.625 14.8125 24.375 15 24 15H23.25C22.9375 15 22.75 15.25 22.75 15.5V16.5C22.75 16.8125 22.9375 17 23.25 17H24C25.4375 17 26.625 15.9375 26.625 14.625C26.625 13.9375 26.3125 13.3125 25.8125 12.875L24.4375 11.6875ZM17 0C8.125 0 1 5.875 1 13C1 16 2.1875 18.75 4.25 20.9375C3.375 23.375 1.4375 25.5 1.375 25.5C0.9375 25.9375 0.875 26.5625 1.0625 27.125C1.3125 27.6875 1.875 28 2.4375 28C6.3125 28 9.3125 26.4375 11.1875 25.125C13 25.6875 14.9375 26 17 26C25.8125 26 33 20.1875 33 13C33 5.875 25.8125 0 17 0ZM17 24C15.1875 24 13.4375 23.75 11.75 23.25L10.8125 22.9375L10 23.5C8.5625 24.5 6.375 25.6875 3.625 26C4.375 25.0625 5.4375 23.4375 6.125 21.625L6.5625 20.4375L5.75 19.5625C3.9375 17.625 3 15.375 3 13C3 6.9375 9.25 2 17 2C24.6875 2 31 6.9375 31 13C31 19.0625 24.6875 24 17 24Z" fill="#484848"/>
</svg>
