<svg width="17" height="14" viewBox="0 0 17 14" fill="none" xmlns="http://www.w3.org/2000/svg">
<path d="M9.79691 4.5H9.29691C9.07816 4.5 8.92191 4.625 8.82816 4.78125L8.29691 5.90625L7.73441 4.78125C7.64066 4.625 7.48441 4.5 7.29691 4.5H6.79691C6.51566 4.5 6.29691 4.75 6.29691 5V8.25C6.29691 8.40625 6.39066 8.5 6.54691 8.5H7.04691C7.17191 8.5 7.29691 8.40625 7.29691 8.25V6.125L8.04691 7.875C8.14066 8.0625 8.42191 8.0625 8.51566 7.875L9.26566 6.125V8.25C9.26566 8.40625 9.39066 8.5 9.51566 8.5H10.0157C10.1719 8.5 10.2657 8.40625 10.2657 8.25V5C10.2969 4.75 10.0469 4.5 9.79691 4.5ZM4.51566 5.84375C4.48441 5.8125 4.45316 5.75 4.45316 5.71875C4.45316 5.625 4.57816 5.53125 4.76566 5.53125H5.17191C5.29691 5.53125 5.42191 5.40625 5.42191 5.28125V4.78125C5.42191 4.625 5.29691 4.53125 5.17191 4.53125H4.76566C4.04691 4.53125 3.45316 5.0625 3.45316 5.71875C3.45316 6.0625 3.60941 6.375 3.85941 6.59375L4.54691 7.1875C4.60941 7.21875 4.60941 7.28125 4.60941 7.3125C4.60941 7.40625 4.48441 7.5 4.29691 7.5H3.92191C3.76566 7.5 3.67191 7.625 3.67191 7.75V8.25C3.67191 8.40625 3.76566 8.5 3.92191 8.5H4.29691C5.01566 8.5 5.60941 7.96875 5.60941 7.3125C5.60941 6.96875 5.45316 6.65625 5.20316 6.4375L4.51566 5.84375ZM12.0157 5.84375C11.9844 5.8125 11.9532 5.75 11.9532 5.71875C11.9532 5.625 12.0782 5.53125 12.2657 5.53125H12.6719C12.7969 5.53125 12.9219 5.40625 12.9219 5.28125V4.78125C12.9219 4.625 12.7969 4.53125 12.6719 4.53125H12.2657C11.5469 4.53125 10.9532 5.0625 10.9532 5.71875C10.9532 6.0625 11.1094 6.375 11.3594 6.59375L12.0469 7.1875C12.0782 7.21875 12.1094 7.28125 12.1094 7.3125C12.1094 7.40625 11.9844 7.5 11.7969 7.5H11.4219C11.2657 7.5 11.1719 7.625 11.1719 7.75V8.25C11.1719 8.40625 11.2657 8.5 11.4219 8.5H11.7969C12.5157 8.5 13.1094 7.96875 13.1094 7.3125C13.1094 6.96875 12.9532 6.65625 12.7032 6.4375L12.0157 5.84375ZM8.29691 0C3.85941 0 0.296915 2.9375 0.296915 6.5C0.296915 8 0.890665 9.375 1.92191 10.4688C1.48441 11.6875 0.515665 12.75 0.484415 12.75C0.265665 12.9688 0.234415 13.2812 0.328165 13.5625C0.453165 13.8438 0.734415 14 1.01566 14C2.95316 14 4.45316 13.2188 5.39066 12.5625C6.29691 12.8438 7.26566 13 8.29691 13C12.7032 13 16.2969 10.0938 16.2969 6.5C16.2969 2.9375 12.7032 0 8.29691 0ZM8.29691 12C7.39066 12 6.51566 11.875 5.67191 11.625L5.20316 11.4688L4.79691 11.75C4.07816 12.25 2.98441 12.8438 1.60941 13C1.98441 12.5312 2.51566 11.7188 2.85941 10.8125L3.07816 10.2188L2.67191 9.78125C1.76566 8.8125 1.29691 7.6875 1.29691 6.5C1.29691 3.46875 4.42191 1 8.29691 1C12.1407 1 15.2969 3.46875 15.2969 6.5C15.2969 9.53125 12.1407 12 8.29691 12Z" fill="#D6EAFE"/>
</svg>
