<?xml version="1.0" encoding="utf-8"?>
<!-- Generator: Adobe Illustrator 16.0.0, SVG Export Plug-In . SVG Version: 6.00 Build 0)  -->
<!DOCTYPE svg PUBLIC "-//W3C//DTD SVG 1.0//EN" "http://www.w3.org/TR/2001/REC-SVG-20010904/DTD/svg10.dtd">
<svg version="1.0" id="Layer_1" xmlns="http://www.w3.org/2000/svg" xmlns:xlink="http://www.w3.org/1999/xlink" x="0px" y="0px"
	 viewBox="0 0 1000 1000" enable-background="new 0 0 1000 1000" xml:space="preserve">
<g>
	<path fill-rule="evenodd" clip-rule="evenodd" fill="#8F1E1B" d="M368.088,653.467c5.054-4.455,11.463-6.786,18.741-10.912
		c-11.811-2.879-26.423,4.538-30.061-12.476c1.993-6.526-0.543-8.232-7.059-7.96c-12.372,0.521-24.786-0.057-37.173,0.251
		c-4.998,0.126-8.607-1.321-12.167-4.905c-34.94-35.166-69.974-70.239-105.199-105.119c-4.167-4.126-5.693-8.21-5.685-13.993
		c0.162-109.114,0.174-218.227-0.019-327.341c-0.012-6.38,1.819-10.891,6.379-15.237c40.602-38.699,81.076-77.534,121.475-116.446
		c3.743-3.605,7.528-5.226,12.841-5.219c112.029,0.147,224.06,0.133,336.089,0.037c4.637-0.004,8.205,1.023,11.666,4.366
		c41.562,40.166,83.237,80.216,124.975,120.2c2.908,2.785,3.859,5.705,3.853,9.618c-0.098,59.781-0.16,119.563,0.075,179.344
		c0.023,5.946-1.845,7.12-7.356,7.086c-53.216-0.319-106.431-0.24-159.644-0.663c-6.823-0.055-9.313,1.966-8.301,8.505
		c-6.232,11.75-11.815,14.055-24.087,9.45c-6.571-2.465-13.404-1.28-20.068-2.163c-8.322-1.102-16.62-2.384-27.311-3.936
		c7.345,8.929,13.925,15.364,23.305,18.516c3.759,4.902,8.563,7.328,14.905,7.301c28.912-0.127,57.823-0.02,86.732-0.099
		c3.773-0.011,6.838,0.509,9.773,3.461c35.98,36.169,72.077,72.223,108.263,108.185c2.874,2.858,3.744,5.784,3.741,9.657
		c-0.076,105.927-0.089,211.852,0.031,317.778c0.006,4.575-1.561,7.619-4.777,10.694c-41.41,39.604-82.741,79.295-123.961,119.099
		c-3.064,2.959-6.071,4.12-10.254,4.116c-113.216-0.092-226.431-0.089-339.646-0.007c-3.915,0.004-6.766-1.056-9.638-3.833
		c-40.675-39.314-81.375-78.608-122.361-117.6c-5.092-4.844-6.768-9.686-6.738-16.458c0.233-52.72,0.249-105.44-0.024-158.159
		c-0.033-6.538,1.849-8.095,8.194-8.064c53.448,0.248,106.898,0.055,160.346,0.263C363.707,660.828,367.395,659.649,368.088,653.467
		z M377.685,676.105c-1.775,0.282-2.665,0.551-3.555,0.547c-53.454-0.107-106.908-0.148-160.36-0.484
		c-6.323-0.039-8.854,1.138-8.801,8.285c0.343,46.168,0.235,92.339,0.082,138.507c-0.015,4.53,1.367,7.707,4.593,10.801
		c38.561,36.982,77.024,74.064,115.483,111.153c2.555,2.464,5.206,3.816,8.977,3.814c109.348-0.098,218.695-0.091,328.042-0.025
		c3.412,0.002,5.919-1.022,8.384-3.4c38.793-37.436,77.642-74.814,116.569-112.11c2.848-2.728,4.073-5.475,4.069-9.478
		c-0.108-101.329-0.107-202.657-0.01-303.986c0.004-3.996-1.275-6.751-4.072-9.527c-32.756-32.519-65.472-65.078-97.967-97.857
		c-3.809-3.843-7.588-5.174-12.784-5.12c-21.139,0.221-42.28,0.104-63.421,0.075c-2.399-0.003-5,0.594-7.12-0.885
		c-12.942-9.031-27.651-15.373-39.689-25.73c-7.961-6.848-14.885-14.641-20.223-26.139c15.044,6.353,28.858,8.688,42.89,9.846
		c6.996,0.578,14.221-0.054,20.829,2.645c5.258,2.145,10.097,2.696,14.01-1.751c4.308-4.896,3.139-10.417,0.12-15.549
		c-1.99-3.386-4.399-6.525-6.745-9.958c3.626-1.591,6.574-0.999,9.431-1c52.244-0.042,104.489-0.153,156.732,0.123
		c6.533,0.034,8.104-1.854,8.073-8.184c-0.247-51.028-0.235-102.058-0.005-153.086c0.026-5.891-1.838-9.845-6.029-13.842
		c-38.135-36.372-76.114-72.907-114.002-109.537c-3.288-3.18-6.639-4.215-11.025-4.212c-108.134,0.08-216.266,0.085-324.398-0.02
		c-4.475-0.004-7.669,1.316-10.899,4.435c-38.265,36.935-76.628,73.768-115.111,110.474c-3.267,3.117-4.702,6.14-4.697,10.673
		c0.115,105.703,0.114,211.406,0.002,317.109c-0.005,4.477,1.177,7.883,4.316,11.007c33.069,32.895,66.1,65.831,99.048,98.848
		c2.621,2.628,5.314,3.721,8.988,3.688c15.792-0.146,31.588-0.111,47.383-0.003c2.208,0.014,4.796-1.052,6.898,1.43
		c-1.571,2.729-3.297,5.347-4.639,8.151c-1.463,3.056-2.858,6.2-3.774,9.45c-1.965,6.969,0.76,11.159,7.997,11.221
		c6.507,0.056,13.083-0.748,19.521-1.822c9.883-1.646,19.205-5.074,27.884-10.2c2.965-1.751,6.359-1.839,8.798,0.643
		c2.593,2.64-0.21,4.957-1.634,6.976c-5.904,8.375-14.392,12.864-24.109,15.171c-5.424,1.291-11.046,1.792-16.425,3.225
		C370.186,654.521,367.316,663.294,377.685,676.105z"/>
	<path fill-rule="evenodd" clip-rule="evenodd" fill="#F3EEEC" d="M368.088,653.467c-0.693,6.183-4.381,7.361-10.143,7.339
		c-53.448-0.208-106.898-0.015-160.346-0.263c-6.345-0.03-8.228,1.526-8.194,8.064c0.273,52.719,0.257,105.439,0.024,158.159
		c-0.03,6.772,1.646,11.614,6.738,16.458c40.986,38.991,81.686,78.285,122.361,117.6c2.872,2.777,5.724,3.837,9.638,3.833
		c113.215-0.082,226.43-0.085,339.646,0.007c4.183,0.004,7.189-1.157,10.254-4.116c41.22-39.804,82.551-79.495,123.961-119.099
		c3.217-3.075,4.783-6.119,4.777-10.694c-0.12-105.927-0.107-211.852-0.031-317.778c0.003-3.873-0.867-6.799-3.741-9.657
		c-36.186-35.962-72.282-72.016-108.263-108.185c-2.936-2.953-6-3.472-9.773-3.461c-28.909,0.08-57.82-0.028-86.732,0.099
		c-6.342,0.027-11.146-2.398-14.905-7.301c35.959-0.046,71.922-0.052,107.886-0.21c3.48-0.016,5.915,1.185,8.295,3.567
		c37.423,37.47,74.864,74.921,112.438,112.239c3.409,3.386,4.508,6.877,4.502,11.544c-0.108,105.947-0.146,211.895,0.049,317.84
		c0.014,7.484-1.741,12.791-7.481,18.225c-42.133,39.906-83.855,80.245-125.588,120.572c-3.226,3.117-6.409,4.368-10.887,4.363
		c-115.182-0.116-230.362-0.115-345.543-0.006c-4.449,0.005-7.626-1.168-10.883-4.318c-42.583-41.196-85.287-82.267-128.076-123.251
		c-3.237-3.099-4.571-6.17-4.558-10.699c0.158-57.832,0.198-115.666-0.038-173.498c-0.024-5.951,1.273-7.661,7.474-7.632
		C249.993,653.504,309.041,653.433,368.088,653.467z"/>
	<path fill-rule="evenodd" clip-rule="evenodd" fill="#EEE5E3" d="M631.519,362.604c-1.012-6.54,1.478-8.56,8.301-8.505
		c53.213,0.423,106.428,0.344,159.644,0.663c5.512,0.034,7.38-1.14,7.356-7.086c-0.235-59.781-0.173-119.563-0.075-179.344
		c0.007-3.914-0.944-6.833-3.853-9.618c-41.737-39.984-83.413-80.034-124.975-120.2c-3.461-3.343-7.029-4.37-11.666-4.366
		c-112.029,0.096-224.06,0.11-336.089-0.037c-5.313-0.007-9.098,1.614-12.841,5.219c-40.399,38.912-80.873,77.747-121.475,116.446
		c-4.561,4.346-6.391,8.856-6.379,15.237c0.192,109.114,0.181,218.227,0.019,327.341c-0.009,5.783,1.518,9.867,5.685,13.993
		c35.225,34.88,70.258,69.953,105.199,105.119c3.561,3.584,7.169,5.031,12.167,4.905c12.387-0.308,24.801,0.27,37.173-0.251
		c6.516-0.272,9.052,1.434,7.059,7.96c-16.276,0.075-32.553,0.069-48.828,0.289c-3.542,0.047-5.889-1.49-8.22-3.823
		c-37.438-37.463-74.886-74.914-112.448-112.252c-2.865-2.847-3.748-5.746-3.745-9.637c0.085-113.222,0.091-226.443-0.016-339.665
		c-0.004-4.261,1.375-6.975,4.464-9.926c42.825-40.934,85.512-82.014,128.105-123.19c3.208-3.101,6.298-4.492,10.819-4.487
		c115.408,0.123,230.816,0.106,346.224,0.055c3.521-0.001,6.333,0.529,9.113,3.217c43.115,41.69,86.334,83.272,129.633,124.772
		c3.208,3.075,4.67,6.115,4.658,10.688c-0.162,63.17-0.12,126.341-0.083,189.512c0.003,4.004,0.65,7.32-5.625,7.289
		C751.054,362.628,691.286,362.664,631.519,362.604z"/>
	<path fill-rule="evenodd" clip-rule="evenodd" fill="#F3EEEC" d="M377.685,676.105c-10.369-12.812-7.499-21.585,7.625-25.612
		c5.379-1.433,11.001-1.934,16.425-3.225c9.717-2.307,18.205-6.796,24.109-15.171c1.423-2.019,4.227-4.336,1.634-6.976
		c-2.439-2.481-5.833-2.394-8.798-0.643c-8.679,5.126-18.001,8.555-27.884,10.2c-6.438,1.074-13.015,1.878-19.521,1.822
		c-7.237-0.062-9.961-4.252-7.997-11.221c0.917-3.25,2.312-6.395,3.774-9.45c1.342-2.805,3.068-5.423,4.639-8.151
		c-2.102-2.481-4.689-1.416-6.898-1.43c-15.794-0.108-31.59-0.143-47.383,0.003c-3.674,0.033-6.367-1.06-8.988-3.688
		c-32.949-33.017-65.979-65.953-99.048-98.848c-3.14-3.124-4.322-6.53-4.316-11.007c0.112-105.703,0.113-211.406-0.002-317.109
		c-0.005-4.533,1.431-7.557,4.697-10.673c38.483-36.707,76.847-73.54,115.111-110.474c3.23-3.118,6.424-4.439,10.899-4.435
		c108.132,0.105,216.264,0.099,324.398,0.02c4.387-0.003,7.737,1.032,11.025,4.212c37.888,36.63,75.867,73.165,114.002,109.537
		c4.191,3.997,6.056,7.951,6.029,13.842c-0.23,51.028-0.242,102.058,0.005,153.086c0.031,6.33-1.54,8.217-8.073,8.184
		c-52.243-0.276-104.488-0.165-156.732-0.123c-2.856,0.002-5.805-0.591-9.431,1c2.346,3.433,4.755,6.572,6.745,9.958
		c3.019,5.132,4.188,10.653-0.12,15.549c-3.913,4.447-8.752,3.896-14.01,1.751c-6.608-2.698-13.833-2.067-20.829-2.645
		c-14.031-1.158-27.846-3.493-42.89-9.846c5.338,11.498,12.262,19.291,20.223,26.139c12.038,10.358,26.747,16.699,39.689,25.73
		c2.12,1.479,4.721,0.882,7.12,0.885c21.141,0.029,42.282,0.146,63.421-0.075c5.196-0.055,8.976,1.277,12.784,5.12
		c32.495,32.779,65.211,65.338,97.967,97.857c2.797,2.776,4.076,5.531,4.072,9.527c-0.098,101.329-0.099,202.657,0.01,303.986
		c0.004,4.003-1.222,6.75-4.069,9.478c-38.928,37.296-77.776,74.675-116.569,112.11c-2.465,2.378-4.972,3.402-8.384,3.4
		c-109.348-0.065-218.695-0.072-328.042,0.025c-3.771,0.002-6.422-1.351-8.977-3.814c-38.459-37.089-76.923-74.171-115.483-111.153
		c-3.226-3.094-4.607-6.271-4.593-10.801c0.153-46.168,0.261-92.339-0.082-138.507c-0.053-7.147,2.478-8.324,8.801-8.285
		c53.452,0.336,106.906,0.377,160.36,0.484C375.02,676.656,375.91,676.388,377.685,676.105z M442.478,434.977
		c-9.168,5.637-19.2,7.78-29.878,7.708c-8.385-0.056-16.573,1.174-23.259,6.814c-2.755,2.324-4.896,5.36-7.436,7.957
		c-3.339,3.417-7.173,6.398-12.219,4.604c-5.34-1.9-5.472-6.918-5.503-11.604c-0.052-7.826,1.685-15.437,3.046-23.083
		c3.709-20.847,14.062-36.929,33.307-46.798c5.387-2.763,10.417-6.217,15.641-9.303c10.386-6.136,19.257-13.942,26.197-23.842
		c2.466-3.519,4.686-7.206,4.477-12.197c-1.243,0.326-2.025,0.308-2.488,0.684c-12.606,10.241-27.57,11.232-42.752,10.345
		c-5.501-0.322-10.588-0.133-15.578,2.088c-5.257,2.338-10.48,3.15-14.577-1.884c-3.91-4.805-2.861-10.012-0.009-14.974
		c3.337-5.805,8.359-10.056,13.543-14.084c18.657-14.496,38.514-27.06,59.938-37.1c4.834-2.266,9.754-4.543,13.673-8.233
		c1.929-1.815,5.894-3.496,4.183-6.712c-1.728-3.247-5.334-1.326-7.874-0.258c-9.565,4.026-19.504,3.372-29.424,2.578
		c-4.062-0.326-8.613-0.799-10.213-5.551c-1.524-4.527,1.185-7.839,4.023-11.023c5.989-6.716,13.598-10.773,21.806-14.102
		c4.668-1.894,9.772-3.153,13.496-6.9c1.729-1.74,3.379-3.875,2.174-6.427c-1.061-2.245-3.357-1.136-5.217-1.042
		c-1.939,0.098-3.884,0.143-5.826,0.118c-3.966-0.05-7.927-0.306-9.96-4.506c-1.942-4.012-0.503-7.685,1.857-10.903
		c6.142-8.374,14.104-14.62,23.368-19.256c1.913-0.958,4.475-1.075,5.781-3.925c-1.797-0.173-2.973-0.329-4.155-0.392
		c-4.815-0.256-9.392-1.156-11.236-6.367c-1.93-5.451,1.83-8.83,5.385-11.698c5.091-4.108,10.719-7.542,15.938-11.5
		c7.84-5.95,7.734-5.997,0.493-12.728c-1.762-1.638-3.716-3.414-4.641-5.536c-2.01-4.609-1.264-9.813,4.136-10.352
		c9.295-0.929,11.016-7.275,12.744-14.22c1.64-6.593,3.058-13.246,4.869-19.79c1.107-3.999,4.167-5.656,8.304-5.733
		c4.855-0.09,4.233,3.593,4.915,6.549c1.582,6.861,3.198,13.719,4.977,20.532c0.808,3.093,2.016,6.19,5.868,6.579
		c4.296,0.433,8.494,1.164,9.612,6.125c1.055,4.683-2.139,7.64-5.168,10.571c-1.439,1.394-4.536,2.146-3.458,4.766
		c0.715,1.738,3.265,1.805,5.235,1.941c4.766,0.326,9.474,1.024,11.085,6.464c1.579,5.325-2.183,8.561-5.354,11.903
		c-0.834,0.879-1.699,1.781-2.704,2.434c-4.06,2.638-3.471,5.417-0.204,8.092c3.939,3.226,7.985,6.324,12.056,9.386
		c12.448,9.362,12.598,16.087,0.261,25.265c1.415,1.045,2.776,2.016,4.102,3.032c7.12,5.456,14.818,10.401,19.134,18.642
		c3.571,6.825,0.798,12.075-6.844,13.027c-3.318,0.414-6.753-0.043-10.131-0.202c-3.968-0.186-4.685,1.594-3.209,4.936
		c1.374,3.116,3.94,4.836,6.911,6.105c5.135,2.192,10.357,4.193,15.399,6.575c7.462,3.524,15.103,6.934,20.531,13.491
		c6.555,7.919,3.719,16.18-6.205,18.874c-5.864,1.593-11.547,0.216-17.328-0.493c-4.806-0.59-9.849-2.205-14.535,1.111
		c1.453,2.365,3.578,3.175,5.607,3.769c17.299,5.071,32.282,14.41,46.498,25.138c2.528,1.909,5.172,2.319,8.163,2.312
		c54.911-0.129,109.824-0.291,164.737-0.188c5.314,0.01,6.322-1.758,6.304-6.635c-0.174-44.954-0.142-89.908-0.032-134.861
		c0.008-3.703-1.07-6.336-3.749-8.897c-35.274-33.725-70.508-67.495-105.59-101.421c-3.451-3.337-6.898-4.548-11.575-4.543
		c-103.758,0.103-207.518,0.119-311.275-0.038c-5.329-0.008-9.113,1.653-12.834,5.24c-34.266,33.033-68.603,65.994-103.068,98.82
		c-4.017,3.826-5.583,7.791-5.575,13.348c0.152,100.114,0.175,200.228-0.035,300.341c-0.013,6.638,1.916,11.392,6.544,15.974
		c29.006,28.722,57.852,57.607,86.636,86.55c2.843,2.856,5.827,3.815,9.71,3.785c17.981-0.131,36.038-1.071,53.922,0.243
		c16.148,1.188,29.884-4.418,43.827-10.689c5.669-2.549,7.573-7.139,7.475-12.968c-0.03-1.78-0.05-3.792-2.354-3.748
		c-13.814,0.271-27.476-7.981-41.46-0.57c-3.08,1.632-6.71,1.735-9.496-1.109c-2.733-2.789-2.299-6.172-1.29-9.558
		c1.479-4.968,4.023-9.345,7.399-13.243c7.083-8.182,15.554-14.511,25.2-19.442c12.564-6.424,24.565-13.839,35.354-22.969
		c5.251-4.443,9.852-9.653,9.076-19.025c-16.101,13.475-33.755,13.731-51.987,11.012c-6.049-0.902-9.023-5.317-6.74-10.963
		c0.969-2.398,2.851-4.466,4.495-6.543c7.766-9.811,19.553-13.174,30.048-18.602c6.988-3.613,13.622-7.565,16.308-15.647
		c0.657-0.643,1.124-1.408,0.242-2.096C443.824,434.153,443.016,434.739,442.478,434.977z M459.434,174.006
		c3.822,3.606,8.233,1.828,12.116,2.619c4.284,0.873,9.622,1.084,10.323,6.369c0.704,5.291-4.035,7.127-8.337,8.532
		c-8.417,2.747-16.132,6.748-22.59,12.896c-2.933,2.792-8.271,5.669-6.906,9.377c1.394,3.784,6.868,1.006,10.516,0.812
		c7.887-0.42,10.871,2.255,10.58,10.011c-0.318,8.5-5.749,12.834-12.805,16.049c-8.804,4.011-18.244,6.895-25.522,13.724
		c-1.345,1.261-3.561,2.541-2.534,4.717c0.809,1.712,3.035,0.99,4.674,1.082c9.021,0.501,17.795-0.08,26.484-3.293
		c5.029-1.859,10.971-1.833,14.349,3.664c3.507,5.704,0.917,10.572-3.212,15.04c-5.273,5.708-12.182,8.758-18.934,12.008
		c-19.77,9.514-38.363,20.939-55.721,34.314c-4.776,3.68-9.001,8.136-13.142,12.552c-1.505,1.607-3.346,4.042-1.39,6.523
		c1.793,2.274,3.993,0.747,5.968-0.049c5.019-2.023,10.153-3.269,15.626-2.708c16.153,1.656,31.369,0.269,44.164-11.566
		c4.832-4.469,8.59-2.732,10.544,3.853c2.441,8.228-0.446,15.358-5.078,21.875c-7.859,11.058-18.014,19.619-29.694,26.46
		c-7.334,4.297-14.698,8.572-21.801,13.233c-16.456,10.797-29.098,43.398-24.109,61.752c2.719-0.392,3.898-2.702,5.34-4.503
		c6.61-8.254,15.384-13.13,25.646-13.652c14.268-0.726,27.768-2.292,40.021-10.916c6.126-4.31,10.784-0.333,9.536,7.45
		c-1.92,11.979-9.339,19.989-19.774,25.413c-6.888,3.581-14.007,6.718-20.875,10.333c-4.918,2.587-8.852,6.358-11.791,11.479
		c14.717,3.941,28.32,3.005,41.116-4.911c4.473-2.769,9.275-7.085,14.513-2.816c5.796,4.723,3.024,11.132,1.216,16.909
		c-0.566,1.811-1.847,3.398-2.82,5.078c-5.232,9.023-14.415,13.481-22.336,19.427c-12.441,9.338-27.841,13.949-39.32,24.815
		c-4.915,4.651-9.365,9.531-11.314,17.482c11.352-5.216,22.043-3.593,32.804-1.53c5.422,1.039,10.818,2.368,16.484,0.256
		c3.676-1.369,5.632,1.702,5.724,4.757c0.439,14.548-0.753,24.232-15.329,29.409c-11.475,4.079-22.263,9.639-32.927,15.454
		c-7.769,4.239-13.145,10.538-16.52,18.723c-1.978,4.797-1.825,6.972,4.474,6.39c11.256-1.043,22.035-3.546,32.316-8.186
		c2.429-1.095,4.654-2.652,7.095-3.715c6.261-2.729,14.519-1.097,18.024,3.601c4.372,5.855,1.656,11.062-1.929,15.947
		c-7.392,10.076-17.601,15.743-29.631,18.377c-5.448,1.193-10.978,2.056-16.372,3.448c-2.964,0.767-6.641,1.58-7.166,5.298
		c-0.483,3.418,2.963,4.65,5.083,6.53c1.271,1.128,2.567,2.238,3.751,3.454c9.403,9.664,7.707,18.887-4.529,24.754
		c-2.409,1.155-4.829,2.286-7.225,3.465c-23.923,11.764-29.991,34.034-33.751,57.595c-0.418,2.627-0.241,5.762,2.448,7.165
		c3.133,1.637,4.591-1.475,6.557-3.166c20.257-17.418,42.196-30.963,70.106-31.701c12.971-0.345,24.882-3.942,33.828-14.358
		c2.025-2.357,4.668-4.274,7.283-6.007c2.805-1.859,5.862-3.858,9.458-1.995c3.598,1.863,2.658,5.413,2.666,8.45
		c0.053,24.787,0.025,49.574,0.033,74.36c0.005,16.03,0.371,32.084-2.309,47.977c-1.506,8.93-3.02,18.529-10.695,24.069
		c-25.145,18.146-36.565,47.991-60.176,68.754c64.32,0,127.636,0,192.98,0c-7.811-5.539-14.811-8.929-19.644-15.123
		c-5.283-6.777-11.974-12.035-19.578-16.055c-23.089-12.2-34.109-32.015-34.755-57.447c-0.75-29.626-0.499-59.276-0.563-88.916
		c-0.01-4.073-0.126-8.574,4.251-10.929c4.754-2.556,8.449,0.468,11.877,3.073c7.764,5.903,16.46,8.578,25.997,7.02
		c21.817-3.562,40.628,3.394,58.287,15.42c8.021,5.462,16.384,10.425,24.678,15.473c2.019,1.229,4.491,2.729,6.803,1.132
		c2.535-1.75,2.058-4.737,1.714-7.381c-1.225-9.472-5.025-18.227-7.614-27.32c-4.231-14.871-14.043-24.585-27.255-31.527
		c-1.502-0.789-3.036-1.557-4.426-2.521c-8.656-6.005-9.789-15.022-2.956-22.957c1.107-1.288,2.233-2.58,3.157-3.998
		c4.364-6.696,3.137-10.656-4.211-13.57c-4.789-1.898-9.904-2.346-14.922-3.261c-14.193-2.579-26.264-8.777-34.115-21.378
		c-5.738-9.208-1.253-17.539,9.581-18.444c4.05-0.339,7.543,0.926,11.075,2.809c11.739,6.261,24.214,9.874,37.622,10.162
		c4.286,0.091,5.035-1.367,3.613-5.165c-3.586-9.578-10.1-16.473-18.984-21.23c-10.071-5.391-20.519-9.958-31.125-14.198
		c-11.74-4.693-16.138-12.118-14.804-24.454c0.339-3.151,0.675-6.588,4.108-7.971c3.513-1.416,6.004,0.855,8.229,3.221
		c6.594,7.008,14.884,9.894,24.28,9.668c7.679-0.183,15.05,0.199,21.247,5.613c0.985,0.859,3.011,1.659,3.945,1.211
		c1.956-0.935,0.797-3.023,0.385-4.506c-5.233-18.805-15.102-34.228-33.045-43.191c-12.225-6.106-23.552-13.561-34.767-21.264
		c-5.492-3.774-10.152-8.271-13.519-14.055c-2.218-3.813-5.096-8.037-1.568-12.002c3.313-3.722,7.71-1.157,11.555,0.188
		c2.06,0.722,4.071,1.607,6.044,2.547c7.717,3.675,15.647,4.959,24.063,2.715c4.714-1.256,9.521-1.627,14.432-0.833
		c2.483,0.402,5.76,3.458,7.273,0.785c1.819-3.217-2.215-5.298-4.197-7.539c-1.114-1.259-2.554-2.236-3.877-3.302
		c-9.002-7.245-19.608-11.616-29.904-16.509c-8.924-4.24-15.614-10.577-19.67-19.616c-2.126-4.74-4.334-9.617,0.22-14.148
		c4.364-4.345,9.612-4.044,14.912-2.037c7.94,3.006,15.769,6.319,23.771,9.147c10.956,3.869,21.955,7.582,32.701,12.046
		c3.298,1.371,8.263,2.189,7.259-4.006c-2.487-15.355-5.034-30.695-17.499-42.148c-9.449-8.681-21.015-13.909-31.607-20.697
		c-11.455-7.341-21.012-16.411-28.792-27.455c-3.112-4.421-5.555-9.178-5.543-14.779c0.015-6.796,3.774-9.351,9.907-6.343
		c12.449,6.104,25.784,8.384,39.37,9.731c8.658,0.859,17.481,0.23,25.84,3.617c3.832,1.551,4.944-0.871,3.999-4.17
		c-0.516-1.804-1.675-3.51-2.845-5.03c-16.567-21.53-37.859-36.694-63.077-46.486c-5.654-2.195-11.626-3.791-16.174-8.065
		c-5.422-5.095-4.321-10.115,2.582-12.487c4.632-1.591,9.367-2.414,14.297-1.817c5.291,0.64,10.583,1.333,15.896,1.708
		c3.118,0.22,7.019,0.259,8.203-3.083c1.107-3.126-2.241-5.074-4.448-6.849c-7.104-5.714-15.707-8.59-23.859-12.321
		c-4.621-2.115-9.62-3.653-13.355-7.305c-4.753-4.645-6.355-10.457-4.293-16.697c2.101-6.35,7.795-4.335,12.46-4.375
		c0.965-0.009,1.948,0.334,2.896,0.236c1.779-0.185,4.175,1.102,5.12-1.345c0.715-1.853-1.044-3.108-2.131-4.321
		c-5.396-6.028-11.659-10.933-18.876-14.668c-7.577-3.924-7.645-8.54-0.347-13.272c8.383-5.437,8.408-7.193-0.179-13.117
		c-6.014-4.146-12.085-8.155-16.074-14.542c-2.892-4.627-2.479-8.584,1.729-12.263c2.784-2.434,6.533-4.082,7.82-8.26
		c-5.941-1.91-12.899-1.364-15.73-8.165c-3.24-7.782,4.738-10.677,8.015-16.171c-16.986-1.354-13.761-16.593-18.853-26.44
		c-10.31,28.154-10.31,28.154-19.879,32.953c1.135,1.057,2.115,2.069,3.195,2.96c10.729,8.856,10.798,12.378,0.144,21.252
		c-3.167,2.638-6.561,5.013-9.921,7.41C466.602,168.208,462.52,170.342,459.434,174.006z M566.355,584.143
		c-0.552,8.798,2.999,12.567,8.597,14.867c10.549,4.334,21.098,8.645,31.266,13.855c12.752,6.534,21.535,16.292,25.684,30.14
		c2.317,7.731-0.375,11.788-8.393,11.944c-15.334,0.296-29.84-3.12-43.534-10.012c-1.731-0.873-3.392-1.995-5.223-2.542
		c-2.664-0.791-5.52-0.692-7.273,1.792c-1.576,2.229,0.313,4.144,1.519,5.875c4.897,7.041,11.628,11.837,19.719,14.254
		c6.941,2.072,14.229,2.951,21.25,4.795c16.174,4.243,19.857,15.962,9.279,28.939c-6.329,7.764-6.181,10.826,3.082,15.292
		c29.043,14.002,34.892,41.122,39.125,68.833c1.534,10.051-6.27,15.233-16.092,11.839c-4.525-1.565-8.734-4.202-12.856-6.729
		c-9.105-5.584-17.952-11.589-27.111-17.079c-10.857-6.511-22.37-9.844-35.395-8.17c-14.215,1.826-28.193,0.805-40.025-8.947
		c-0.192-0.159-0.814,0.205-1.415,0.373c-0.155,0.585-0.487,1.251-0.488,1.917c-0.034,28.676-0.493,57.357,0.095,86.021
		c0.5,24.3,10.175,43.639,33.196,54.705c7.315,3.517,13.09,9.263,18.432,15.255c11.47,12.864,26.298,18.999,42.872,20.809
		c10.335,1.129,20.864,0.391,31.293,0.816c4.732,0.193,8.206-1.306,11.632-4.612c34.945-33.729,70.009-67.331,105.117-100.89
		c2.841-2.716,4.136-5.536,4.131-9.536c-0.093-97.443-0.087-194.887-0.013-292.329c0.003-3.644-0.896-6.396-3.55-9.033
		c-29.986-29.804-59.887-59.695-89.743-89.63c-2.382-2.387-4.822-3.671-8.289-3.642c-15.308,0.133-30.622,0.242-45.925-0.036
		c-5.779-0.104-5.754,1.857-3.979,6.394c3.364,8.607,5.218,17.686,6.493,26.816c1.492,10.691-3.506,15.599-14.242,14.302
		c-2.373-0.286-4.956-0.753-6.949-1.954c-9.283-5.591-19.883-7.584-29.817-11.367c-7.486-2.85-14.92-5.836-22.369-8.783
		c-2.302-0.91-4.836-2.051-6.75,0.161c-1.759,2.034,0.191,4.103,1.093,5.948c3.203,6.551,8.187,11.421,14.694,14.659
		c5.645,2.81,11.429,5.336,17.053,8.186c9.391,4.759,18.05,10.583,24.676,18.905c2.854,3.583,4.229,7.941,1.563,12.188
		c-2.444,3.896-6.85,5.592-10.849,3.974c-7.066-2.858-13.739-1.715-20.663-0.193c-7.354,1.613-14.46,0.252-21.449-2.219
		c-2.406-0.85-4.588-2.765-7.559-1.97c0,3.806,2.943,5.504,5.301,7.309c11.39,8.72,23.289,16.688,36.213,22.99
		c22.003,10.731,33.938,28.954,38.945,52.277c0.809,3.771,1.39,8.054-2.408,10.712c-3.59,2.511-7.515,1.028-11.14-0.407
		c-1.779-0.703-3.492-1.771-4.971-2.994c-3.184-2.628-6.924-3.765-10.84-3.604C587.657,595.082,576.585,593.545,566.355,584.143z
		 M375.388,693.066c-3.208-0.399-4.094-0.604-4.98-0.604c-47.877-0.021-95.754,0.026-143.631-0.113
		c-4.789-0.014-5.56,2.113-5.551,6.185c0.092,39.857,0.095,79.715-0.011,119.57c-0.01,3.772,1.385,6.271,4.08,8.773
		c9.073,8.43,17.906,17.118,26.827,25.711c25.884,24.936,51.747,49.891,77.685,74.771c2.21,2.119,4.17,5.06,7.73,5.005
		c14.564-0.228,29.224,1.413,43.675-0.829c18.58-2.884,29.332-16.354,38.25-31.135c7.766-12.872,16.806-24.646,28.666-33.617
		c13.177-9.969,17.482-23.352,18.276-38.672c1.787-34.474,1.017-68.979,1.084-103.474c0.003-1.738,1.058-4.242-1.406-5.061
		c-1.8-0.596-3.03,1.271-4.069,2.48c-11.179,13.01-26.111,17.05-42.392,17.73c-7.823,0.327-15.405,1.272-22.688,4.498
		c-15.394,6.814-30.147,14.399-41.92,26.97c-6.745,7.202-16.228,4.535-19.429-4.917c-1.689-4.989-1.557-10.111-0.084-15.084
		c2.34-7.903,5.082-15.688,7.45-23.586c3.92-13.066,12.608-22.17,23.834-29.241C369.013,697.022,371.255,695.642,375.388,693.066z
		 M547.088,507.792c0.185,0.333,0.345,0.627,0.508,0.921c0.146-0.152,0.436-0.337,0.409-0.451c-0.071-0.316-0.273-0.605-0.423-0.906
		C547.424,507.495,547.268,507.635,547.088,507.792z"/>
	<path fill-rule="evenodd" clip-rule="evenodd" fill="#8D1816" d="M443.801,436.421c-2.687,8.082-9.321,12.033-16.309,15.646
		c-10.496,5.427-22.283,8.791-30.048,18.602c-1.644,2.077-3.525,4.146-4.495,6.543c-2.283,5.646,0.691,10.061,6.74,10.963
		c18.232,2.72,35.887,2.463,51.987-11.012c0.776,9.372-3.824,14.582-9.076,19.025c-10.788,9.13-22.789,16.545-35.354,22.969
		c-9.646,4.932-18.117,11.261-25.2,19.442c-3.376,3.898-5.92,8.275-7.399,13.243c-1.009,3.386-1.444,6.769,1.29,9.558
		c2.786,2.845,6.416,2.741,9.496,1.109c13.984-7.411,27.646,0.841,41.46,0.57c2.305-0.044,2.324,1.968,2.354,3.748
		c0.098,5.829-1.806,10.419-7.475,12.968c-13.943,6.271-27.679,11.878-43.827,10.689c-17.885-1.314-35.941-0.374-53.922-0.243
		c-3.884,0.03-6.868-0.929-9.71-3.785c-28.784-28.942-57.629-57.828-86.636-86.55c-4.628-4.582-6.558-9.335-6.544-15.974
		c0.21-100.114,0.188-200.228,0.035-300.341c-0.009-5.557,1.558-9.521,5.575-13.348c34.465-32.826,68.802-65.787,103.068-98.82
		c3.721-3.587,7.505-5.248,12.834-5.24c103.758,0.157,207.518,0.141,311.275,0.038c4.677-0.004,8.124,1.206,11.575,4.543
		c35.082,33.926,70.315,67.696,105.59,101.421c2.679,2.562,3.757,5.195,3.749,8.897c-0.109,44.954-0.142,89.908,0.032,134.861
		c0.019,4.877-0.989,6.645-6.304,6.635c-54.913-0.103-109.826,0.059-164.737,0.188c-2.991,0.007-5.635-0.403-8.163-2.312
		c-14.216-10.728-29.199-20.066-46.498-25.138c-2.029-0.594-4.154-1.404-5.607-3.769c4.687-3.315,9.729-1.701,14.535-1.111
		c5.781,0.709,11.464,2.086,17.328,0.493c9.924-2.694,12.76-10.955,6.205-18.874c-5.429-6.558-13.069-9.967-20.531-13.491
		c-5.042-2.382-10.265-4.383-15.399-6.575c-2.971-1.269-5.537-2.989-6.911-6.105c-1.476-3.342-0.759-5.122,3.209-4.936
		c3.378,0.159,6.813,0.616,10.131,0.202c7.642-0.952,10.415-6.203,6.844-13.027c-4.315-8.241-12.014-13.186-19.134-18.642
		c-1.325-1.016-2.687-1.986-4.102-3.032c12.337-9.178,12.188-15.903-0.261-25.265c-4.07-3.062-8.116-6.16-12.056-9.386
		c-3.267-2.675-3.855-5.455,0.204-8.092c1.005-0.653,1.87-1.555,2.704-2.434c3.172-3.343,6.934-6.579,5.354-11.903
		c-1.611-5.439-6.319-6.138-11.085-6.464c-1.971-0.136-4.521-0.203-5.235-1.941c-1.078-2.62,2.019-3.372,3.458-4.766
		c3.029-2.931,6.223-5.888,5.168-10.571c-1.118-4.961-5.316-5.692-9.612-6.125c-3.853-0.389-5.061-3.486-5.868-6.579
		c-1.778-6.813-3.395-13.67-4.977-20.532c-0.682-2.956-0.06-6.639-4.915-6.549c-4.137,0.078-7.197,1.734-8.304,5.733
		c-1.811,6.544-3.229,13.197-4.869,19.79c-1.728,6.944-3.449,13.291-12.744,14.22c-5.399,0.539-6.146,5.743-4.136,10.352
		c0.925,2.123,2.879,3.898,4.641,5.536c7.241,6.731,7.347,6.777-0.493,12.728c-5.219,3.959-10.848,7.393-15.938,11.5
		c-3.555,2.868-7.314,6.248-5.385,11.698c1.844,5.211,6.421,6.111,11.236,6.367c1.182,0.063,2.357,0.219,4.155,0.392
		c-1.306,2.85-3.868,2.967-5.781,3.925c-9.264,4.636-17.226,10.882-23.368,19.256c-2.36,3.218-3.799,6.891-1.857,10.903
		c2.033,4.201,5.994,4.456,9.96,4.506c1.942,0.025,3.887-0.02,5.826-0.118c1.859-0.093,4.156-1.202,5.217,1.042
		c1.206,2.553-0.445,4.688-2.174,6.427c-3.724,3.747-8.828,5.006-13.496,6.9c-8.208,3.328-15.817,7.386-21.806,14.102
		c-2.838,3.184-5.547,6.496-4.023,11.023c1.6,4.752,6.151,5.226,10.213,5.551c9.919,0.794,19.858,1.448,29.424-2.578
		c2.54-1.068,6.146-2.989,7.874,0.258c1.711,3.216-2.254,4.897-4.183,6.712c-3.919,3.69-8.839,5.967-13.673,8.233
		c-21.424,10.04-41.282,22.604-59.938,37.1c-5.185,4.028-10.207,8.279-13.543,14.084c-2.852,4.962-3.9,10.169,0.009,14.974
		c4.097,5.034,9.32,4.222,14.577,1.884c4.989-2.221,10.077-2.41,15.578-2.088c15.182,0.887,30.146-0.104,42.752-10.345
		c0.463-0.376,1.245-0.358,2.488-0.684c0.209,4.991-2.011,8.678-4.477,12.197c-6.94,9.9-15.811,17.706-26.197,23.842
		c-5.224,3.085-10.254,6.54-15.641,9.303c-19.245,9.869-29.598,25.951-33.307,46.798c-1.361,7.646-3.098,15.257-3.046,23.083
		c0.031,4.687,0.164,9.705,5.503,11.604c5.045,1.794,8.88-1.188,12.219-4.604c2.54-2.597,4.681-5.633,7.436-7.957
		c6.686-5.64,14.874-6.87,23.259-6.814c10.679,0.072,20.71-2.071,29.878-7.708C442.919,435.458,443.361,435.939,443.801,436.421z"/>
	<path fill-rule="evenodd" clip-rule="evenodd" fill="#197863" d="M459.434,174.006c3.085-3.664,7.168-5.798,10.854-8.425
		c3.361-2.397,6.755-4.771,9.921-7.41c10.654-8.874,10.585-12.396-0.144-21.252c-1.08-0.892-2.06-1.903-3.195-2.96
		c9.57-4.799,9.57-4.799,19.879-32.953c5.092,9.847,1.867,25.086,18.853,26.44c-3.276,5.494-11.255,8.389-8.015,16.171
		c2.831,6.801,9.789,6.254,15.73,8.165c-1.287,4.178-5.036,5.827-7.82,8.26c-4.208,3.678-4.62,7.635-1.729,12.263
		c3.989,6.387,10.061,10.396,16.074,14.542c8.587,5.924,8.562,7.68,0.179,13.117c-7.298,4.732-7.23,9.348,0.347,13.272
		c7.217,3.735,13.479,8.64,18.876,14.668c1.087,1.213,2.846,2.468,2.131,4.321c-0.945,2.446-3.341,1.16-5.12,1.345
		c-0.948,0.098-1.932-0.245-2.896-0.236c-4.665,0.04-10.359-1.975-12.46,4.375c-2.063,6.24-0.46,12.052,4.293,16.697
		c3.735,3.652,8.734,5.19,13.355,7.305c8.152,3.731,16.756,6.607,23.859,12.321c2.207,1.775,5.556,3.722,4.448,6.849
		c-1.185,3.342-5.085,3.303-8.203,3.083c-5.313-0.375-10.604-1.068-15.896-1.708c-4.93-0.597-9.665,0.226-14.297,1.817
		c-6.903,2.372-8.004,7.392-2.582,12.487c4.548,4.274,10.52,5.871,16.174,8.065c25.218,9.792,46.51,24.956,63.077,46.486
		c1.17,1.52,2.329,3.226,2.845,5.03c0.945,3.299-0.167,5.721-3.999,4.17c-8.358-3.386-17.182-2.758-25.84-3.617
		c-13.586-1.347-26.921-3.627-39.37-9.731c-6.133-3.008-9.893-0.454-9.907,6.343c-0.012,5.601,2.431,10.358,5.543,14.779
		c7.78,11.044,17.337,20.114,28.792,27.455c10.593,6.788,22.158,12.016,31.607,20.697c12.465,11.453,15.012,26.792,17.499,42.148
		c1.004,6.195-3.961,5.376-7.259,4.006c-10.746-4.465-21.745-8.178-32.701-12.046c-8.003-2.828-15.831-6.141-23.771-9.147
		c-5.3-2.007-10.548-2.308-14.912,2.037c-4.554,4.531-2.346,9.408-0.22,14.148c4.056,9.039,10.746,15.376,19.67,19.616
		c10.296,4.894,20.902,9.265,29.904,16.509c1.323,1.066,2.763,2.043,3.877,3.302c1.982,2.241,6.017,4.322,4.197,7.539
		c-1.514,2.673-4.79-0.383-7.273-0.785c-4.91-0.794-9.718-0.423-14.432,0.833c-8.416,2.244-16.347,0.96-24.063-2.715
		c-1.973-0.939-3.984-1.825-6.044-2.547c-3.845-1.345-8.241-3.91-11.555-0.188c-3.527,3.965-0.649,8.189,1.568,12.002
		c3.366,5.783,8.026,10.28,13.519,14.055c11.215,7.703,22.542,15.157,34.767,21.264c17.943,8.964,27.812,24.387,33.045,43.191
		c0.412,1.482,1.571,3.571-0.385,4.506c-0.935,0.448-2.96-0.352-3.945-1.211c-6.197-5.414-13.568-5.796-21.247-5.613
		c-9.396,0.226-17.687-2.66-24.28-9.668c-2.226-2.365-4.717-4.637-8.229-3.221c-3.434,1.383-3.77,4.819-4.108,7.971
		c-1.334,12.336,3.063,19.761,14.804,24.454c10.606,4.24,21.054,8.808,31.125,14.198c8.885,4.758,15.398,11.652,18.984,21.23
		c1.422,3.798,0.673,5.256-3.613,5.165c-13.408-0.288-25.883-3.901-37.622-10.162c-3.532-1.883-7.025-3.147-11.075-2.809
		c-10.834,0.905-15.319,9.236-9.581,18.444c7.852,12.601,19.922,18.799,34.115,21.378c5.018,0.915,10.133,1.362,14.922,3.261
		c7.348,2.914,8.575,6.874,4.211,13.57c-0.924,1.418-2.05,2.71-3.157,3.998c-6.833,7.935-5.7,16.952,2.956,22.957
		c1.39,0.965,2.924,1.732,4.426,2.521c13.212,6.942,23.023,16.656,27.255,31.527c2.589,9.094,6.39,17.849,7.614,27.32
		c0.344,2.644,0.821,5.631-1.714,7.381c-2.312,1.597-4.784,0.097-6.803-1.132c-8.294-5.048-16.657-10.011-24.678-15.473
		c-17.659-12.026-36.47-18.981-58.287-15.42c-9.537,1.559-18.233-1.116-25.997-7.02c-3.428-2.605-7.123-5.629-11.877-3.073
		c-4.377,2.354-4.261,6.855-4.251,10.929c0.064,29.64-0.187,59.29,0.563,88.916c0.646,25.433,11.666,45.247,34.755,57.447
		c7.604,4.02,14.295,9.277,19.578,16.055c4.833,6.194,11.833,9.584,19.644,15.123c-65.345,0-128.661,0-192.98,0
		c23.61-20.763,35.031-50.607,60.176-68.754c7.676-5.54,9.189-15.14,10.695-24.069c2.679-15.893,2.314-31.946,2.309-47.977
		c-0.008-24.786,0.02-49.573-0.033-74.36c-0.008-3.037,0.932-6.587-2.666-8.45c-3.596-1.863-6.653,0.136-9.458,1.995
		c-2.614,1.732-5.258,3.649-7.283,6.007c-8.946,10.416-20.857,14.014-33.828,14.358c-27.91,0.738-49.849,14.283-70.106,31.701
		c-1.966,1.691-3.423,4.803-6.557,3.166c-2.689-1.403-2.867-4.538-2.448-7.165c3.761-23.561,9.828-45.831,33.751-57.595
		c2.396-1.179,4.816-2.31,7.225-3.465c12.235-5.867,13.932-15.09,4.529-24.754c-1.184-1.216-2.48-2.326-3.751-3.454
		c-2.12-1.88-5.566-3.112-5.083-6.53c0.525-3.718,4.202-4.531,7.166-5.298c5.394-1.393,10.923-2.255,16.372-3.448
		c12.03-2.634,22.239-8.301,29.631-18.377c3.584-4.886,6.301-10.092,1.929-15.947c-3.505-4.697-11.763-6.33-18.024-3.601
		c-2.441,1.063-4.666,2.62-7.095,3.715c-10.281,4.64-21.06,7.143-32.316,8.186c-6.299,0.582-6.452-1.593-4.474-6.39
		c3.375-8.185,8.75-14.483,16.52-18.723c10.664-5.815,21.452-11.375,32.927-15.454c14.576-5.177,15.768-14.861,15.329-29.409
		c-0.091-3.055-2.047-6.126-5.724-4.757c-5.666,2.112-11.062,0.783-16.484-0.256c-10.76-2.063-21.452-3.686-32.804,1.53
		c1.949-7.951,6.399-12.831,11.314-17.482c11.479-10.866,26.879-15.478,39.32-24.815c7.921-5.945,17.104-10.403,22.336-19.427
		c0.974-1.679,2.254-3.267,2.82-5.078c1.808-5.777,4.58-12.186-1.216-16.909c-5.238-4.269-10.04,0.048-14.513,2.816
		c-12.796,7.916-26.398,8.853-41.116,4.911c2.939-5.122,6.873-8.892,11.791-11.479c6.869-3.615,13.988-6.752,20.875-10.333
		c10.435-5.424,17.854-13.433,19.774-25.413c1.248-7.783-3.41-11.759-9.536-7.45c-12.252,8.624-25.753,10.19-40.021,10.916
		c-10.263,0.522-19.036,5.398-25.646,13.652c-1.442,1.801-2.621,4.112-5.34,4.503c-4.989-18.354,7.653-50.956,24.109-61.752
		c7.103-4.661,14.467-8.936,21.801-13.233c11.68-6.841,21.834-15.402,29.694-26.46c4.632-6.517,7.519-13.648,5.078-21.875
		c-1.954-6.585-5.712-8.322-10.544-3.853c-12.795,11.835-28.011,13.222-44.164,11.566c-5.473-0.561-10.607,0.684-15.626,2.708
		c-1.976,0.796-4.175,2.324-5.968,0.049c-1.956-2.481-0.116-4.916,1.39-6.523c4.14-4.416,8.365-8.872,13.142-12.552
		c17.358-13.375,35.951-24.8,55.721-34.314c6.752-3.25,13.661-6.3,18.934-12.008c4.129-4.468,6.719-9.336,3.212-15.04
		c-3.378-5.497-9.32-5.523-14.349-3.664c-8.689,3.213-17.463,3.794-26.484,3.293c-1.639-0.091-3.865,0.63-4.674-1.082
		c-1.026-2.176,1.189-3.457,2.534-4.717c7.279-6.829,16.719-9.713,25.522-13.724c7.056-3.214,12.487-7.549,12.805-16.049
		c0.291-7.756-2.692-10.431-10.58-10.011c-3.648,0.195-9.123,2.972-10.516-0.812c-1.365-3.708,3.973-6.584,6.906-9.377
		c6.458-6.148,14.174-10.149,22.59-12.896c4.302-1.404,9.041-3.241,8.337-8.532c-0.701-5.284-6.039-5.496-10.323-6.369
		C467.667,175.833,463.256,177.612,459.434,174.006z"/>
	<path fill-rule="evenodd" clip-rule="evenodd" fill="#8D1816" d="M566.355,584.143c10.229,9.402,21.302,10.939,33.007,10.462
		c3.916-0.16,7.656,0.977,10.84,3.604c1.479,1.223,3.191,2.291,4.971,2.994c3.625,1.436,7.55,2.918,11.14,0.407
		c3.798-2.658,3.217-6.94,2.408-10.712c-5.007-23.323-16.942-41.546-38.945-52.277c-12.924-6.303-24.823-14.271-36.213-22.99
		c-2.357-1.805-5.301-3.503-5.301-7.309c2.971-0.795,5.152,1.12,7.559,1.97c6.989,2.471,14.095,3.832,21.449,2.219
		c6.924-1.521,13.597-2.665,20.663,0.193c3.999,1.618,8.404-0.078,10.849-3.974c2.667-4.247,1.291-8.605-1.563-12.188
		c-6.626-8.321-15.285-14.146-24.676-18.905c-5.624-2.85-11.408-5.376-17.053-8.186c-6.508-3.238-11.491-8.107-14.694-14.659
		c-0.901-1.845-2.852-3.914-1.093-5.948c1.914-2.212,4.448-1.071,6.75-0.161c7.449,2.946,14.883,5.933,22.369,8.783
		c9.935,3.783,20.534,5.776,29.817,11.367c1.993,1.201,4.576,1.668,6.949,1.954c10.736,1.297,15.734-3.611,14.242-14.302
		c-1.275-9.131-3.129-18.209-6.493-26.816c-1.774-4.537-1.8-6.498,3.979-6.394c15.303,0.278,30.617,0.169,45.925,0.036
		c3.467-0.029,5.907,1.254,8.289,3.642c29.856,29.935,59.757,59.826,89.743,89.63c2.653,2.638,3.553,5.39,3.55,9.033
		c-0.074,97.442-0.08,194.886,0.013,292.329c0.005,4-1.29,6.82-4.131,9.536c-35.108,33.559-70.172,67.161-105.117,100.89
		c-3.426,3.307-6.899,4.806-11.632,4.612c-10.429-0.426-20.958,0.313-31.293-0.816c-16.574-1.81-31.402-7.944-42.872-20.809
		c-5.342-5.992-11.116-11.738-18.432-15.255c-23.021-11.066-32.696-30.405-33.196-54.705c-0.588-28.663-0.129-57.345-0.095-86.021
		c0.001-0.666,0.333-1.332,0.488-1.917c0.601-0.168,1.223-0.532,1.415-0.373c11.832,9.752,25.811,10.773,40.025,8.947
		c13.024-1.674,24.537,1.659,35.395,8.17c9.159,5.49,18.006,11.495,27.111,17.079c4.122,2.527,8.331,5.164,12.856,6.729
		c9.822,3.395,17.626-1.788,16.092-11.839c-4.233-27.711-10.082-54.831-39.125-68.833c-9.263-4.466-9.411-7.528-3.082-15.292
		c10.578-12.978,6.895-24.696-9.279-28.939c-7.021-1.844-14.309-2.723-21.25-4.795c-8.091-2.417-14.821-7.213-19.719-14.254
		c-1.206-1.731-3.095-3.646-1.519-5.875c1.754-2.484,4.609-2.583,7.273-1.792c1.831,0.547,3.491,1.669,5.223,2.542
		c13.694,6.892,28.2,10.308,43.534,10.012c8.018-0.156,10.71-4.213,8.393-11.944c-4.148-13.848-12.932-23.605-25.684-30.14
		c-10.168-5.211-20.717-9.521-31.266-13.855C569.354,596.71,565.804,592.94,566.355,584.143z"/>
	<path fill-rule="evenodd" clip-rule="evenodd" fill="#8D1816" d="M375.388,693.066c-4.133,2.575-6.375,3.956-8.603,5.36
		c-11.226,7.071-19.915,16.175-23.834,29.241c-2.368,7.897-5.11,15.683-7.45,23.586c-1.473,4.973-1.605,10.095,0.084,15.084
		c3.202,9.452,12.685,12.119,19.429,4.917c11.772-12.57,26.526-20.155,41.92-26.97c7.283-3.226,14.865-4.171,22.688-4.498
		c16.281-0.681,31.212-4.721,42.392-17.73c1.04-1.209,2.269-3.076,4.069-2.48c2.463,0.818,1.409,3.322,1.406,5.061
		c-0.068,34.494,0.703,69-1.084,103.474c-0.794,15.32-5.099,28.703-18.276,38.672c-11.859,8.972-20.9,20.745-28.666,33.617
		c-8.918,14.781-19.67,28.251-38.25,31.135c-14.451,2.242-29.11,0.602-43.675,0.829c-3.561,0.055-5.521-2.886-7.73-5.005
		c-25.938-24.88-51.801-49.835-77.685-74.771c-8.921-8.593-17.754-17.281-26.827-25.711c-2.695-2.502-4.09-5.001-4.08-8.773
		c0.106-39.855,0.103-79.713,0.011-119.57c-0.009-4.071,0.762-6.198,5.551-6.185c47.876,0.14,95.754,0.092,143.631,0.113
		C371.293,692.463,372.179,692.667,375.388,693.066z"/>
	<path fill-rule="evenodd" clip-rule="evenodd" fill="#8D1816" d="M442.478,434.977c0.538-0.237,1.346-0.823,1.565-0.652
		c0.882,0.688,0.415,1.453-0.242,2.096C443.361,435.939,442.919,435.458,442.478,434.977z"/>
	<path fill-rule="evenodd" clip-rule="evenodd" fill="#8D1816" d="M547.088,507.792c0.18-0.157,0.336-0.297,0.494-0.437
		c0.149,0.301,0.352,0.59,0.423,0.906c0.026,0.114-0.264,0.299-0.409,0.451C547.433,508.419,547.272,508.125,547.088,507.792z"/>
</g>
</svg>
