<svg width="62" height="71" viewBox="0 0 62 71" fill="none" xmlns="http://www.w3.org/2000/svg">
<path d="M36.6406 57.625H39.9219C40.7422 57.625 41.5625 56.9414 41.5625 55.9844V26.4531C41.5625 25.6328 40.7422 24.8125 39.9219 24.8125H36.6406C35.6836 24.8125 35 25.6328 35 26.4531V55.9844C35 56.9414 35.6836 57.625 36.6406 57.625ZM59.0625 11.6875H47.7148L43.0664 4.03125C41.9727 2.25391 39.5117 0.75 37.4609 0.75H23.6523C21.6016 0.75 19.1406 2.25391 18.0469 4.03125L13.3984 11.6875H2.1875C0.957031 11.6875 0 12.7812 0 13.875V16.0625C0 17.293 0.957031 18.25 2.1875 18.25H4.375V64.1875C4.375 67.8789 7.24609 70.75 10.9375 70.75H50.3125C53.8672 70.75 56.875 67.8789 56.875 64.1875V18.25H59.0625C60.1562 18.25 61.25 17.293 61.25 16.0625V13.875C61.25 12.7812 60.1562 11.6875 59.0625 11.6875ZM23.3789 7.72266C23.5156 7.58594 23.9258 7.3125 24.0625 7.3125H24.1992H37.0508C37.1875 7.3125 37.5977 7.58594 37.7344 7.72266L40.0586 11.6875H21.0547L23.3789 7.72266ZM50.3125 64.1875H10.9375V18.25H50.3125V64.1875ZM21.3281 57.625H24.6094C25.4297 57.625 26.25 56.9414 26.25 55.9844V26.4531C26.25 25.6328 25.4297 24.8125 24.6094 24.8125H21.3281C20.3711 24.8125 19.6875 25.6328 19.6875 26.4531V55.9844C19.6875 56.9414 20.3711 57.625 21.3281 57.625Z" fill="black"/>
</svg>
