<svg width="11" height="20" viewBox="0 0 11 20" fill="none" xmlns="http://www.w3.org/2000/svg">
<path d="M2.17972 0.395779L10.7212 9.26121C10.8226 9.36676 10.8942 9.48109 10.9361 9.60422C10.9787 9.72735 11 9.85928 11 10C11 10.1407 10.9787 10.2726 10.9361 10.3958C10.8942 10.5189 10.8226 10.6332 10.7212 10.7388L2.17972 19.6306C1.94316 19.8769 1.64747 20 1.29263 20C0.937788 20 0.633641 19.8681 0.380185 19.6042C0.126729 19.3404 0 19.0325 0 18.6807C0 18.3289 0.126729 18.0211 0.380185 17.7573L4.58333 13.6364L7.8318 10L0.380185 2.24274C0.143626 1.99648 0.0253458 1.69323 0.0253458 1.33298C0.0253458 0.972031 0.152074 0.659631 0.40553 0.395779C0.658986 0.131926 0.954685 0 1.29263 0C1.63057 0 1.92627 0.131926 2.17972 0.395779Z" fill="#696969"/>
</svg>
