<svg width="11" height="20" viewBox="0 0 11 20" fill="none" xmlns="http://www.w3.org/2000/svg">
<path d="M8.82028 19.6042L0.278801 10.7388C0.177419 10.6332 0.105775 10.5189 0.0638707 10.3958C0.02129 10.2726 0 10.1407 0 10C0 9.85928 0.02129 9.72735 0.0638707 9.60422C0.105775 9.48109 0.177419 9.36675 0.278801 9.26121L8.82028 0.369393C9.05684 0.123131 9.35253 0 9.70737 0C10.0622 0 10.3664 0.131926 10.6198 0.395778C10.8733 0.659631 11 0.967458 11 1.31926C11 1.67106 10.8733 1.97889 10.6198 2.24274L6.41667 6.36364L3.1682 10L10.6198 17.7573C10.8564 18.0035 10.9747 18.3068 10.9747 18.667C10.9747 19.028 10.8479 19.3404 10.5945 19.6042C10.341 19.8681 10.0453 20 9.70737 20C9.36943 20 9.07373 19.8681 8.82028 19.6042Z" fill="#696969"/>
</svg>
