<svg width="13" height="14" viewBox="0 0 13 14" fill="none" xmlns="http://www.w3.org/2000/svg">
<path d="M12.1321 13.0676C12.1785 13.1169 12.2157 13.1763 12.2415 13.2424C12.2673 13.3084 12.2812 13.3797 12.2823 13.452C12.2835 13.5243 12.2718 13.5962 12.248 13.6632C12.2243 13.7303 12.1889 13.7912 12.144 13.8423C12.0992 13.8934 12.0458 13.9337 11.9869 13.9608C11.9281 13.9879 11.8651 14.0012 11.8017 13.9999C11.7382 13.9986 11.6757 13.9828 11.6177 13.9534C11.5598 13.924 11.5076 13.8815 11.4644 13.8286L6.12942 7.74849L0.794446 13.8286C0.704895 13.9237 0.586451 13.9755 0.464067 13.9731C0.341683 13.9706 0.224915 13.9141 0.138363 13.8154C0.0518109 13.7168 0.00223292 13.5837 7.35983e-05 13.4442C-0.00208572 13.3047 0.0433421 13.1697 0.126787 13.0676L5.46097 6.98657L0.126787 0.905543C0.0433421 0.803469 -0.00208572 0.668461 7.35983e-05 0.528962C0.00223292 0.389464 0.0518109 0.256367 0.138363 0.157712C0.224915 0.0590562 0.341683 0.00254517 0.464067 8.38904e-05C0.586451 -0.00237739 0.704895 0.0494032 0.794446 0.144517L6.12942 6.22465L11.4644 0.144517C11.5539 0.0494032 11.6724 -0.00237739 11.7948 8.38904e-05C11.9172 0.00254517 12.0339 0.0590562 12.1205 0.157712C12.207 0.256367 12.2566 0.389464 12.2588 0.528962C12.2609 0.668461 12.2155 0.803469 12.1321 0.905543L6.79787 6.98657L12.1321 13.0676Z" fill="black"/>
</svg>
