<svg width="26" height="19" viewBox="0 0 26 19" fill="none" xmlns="http://www.w3.org/2000/svg">
<path d="M21.75 8.25C23.4688 8.25 24.875 6.88281 24.875 5.125C24.875 3.40625 23.4688 2 21.75 2C19.9922 2 18.625 3.40625 18.625 5.125C18.625 6.88281 19.9922 8.25 21.75 8.25ZM21.75 3.25C22.7656 3.25 23.625 4.10938 23.625 5.125C23.625 6.17969 22.7656 7 21.75 7C20.6953 7 19.875 6.17969 19.875 5.125C19.875 4.10938 20.6953 3.25 21.75 3.25ZM13 9.5C15.3828 9.5 17.375 7.54688 17.375 5.125C17.375 2.74219 15.3828 0.75 13 0.75C10.5781 0.75 8.625 2.74219 8.625 5.125C8.625 7.54688 10.5781 9.5 13 9.5ZM13 2C14.7188 2 16.125 3.40625 16.125 5.125C16.125 6.88281 14.7188 8.25 13 8.25C11.2422 8.25 9.875 6.88281 9.875 5.125C9.875 3.40625 11.2422 2 13 2ZM22.5312 9.5H20.9688C20.3438 9.5 19.7969 9.69531 19.3281 10.0078C19.7188 10.2812 20.0312 10.5547 20.3438 10.9062C20.5391 10.8281 20.7344 10.75 20.9688 10.75H22.5312C23.4688 10.75 24.25 11.6094 24.25 12.625C24.25 12.9766 24.5234 13.25 24.875 13.25C25.1875 13.25 25.5 12.9766 25.5 12.625C25.5 10.9062 24.1328 9.5 22.5312 9.5ZM4.25 8.25C5.96875 8.25 7.375 6.88281 7.375 5.125C7.375 3.40625 5.96875 2 4.25 2C2.49219 2 1.125 3.40625 1.125 5.125C1.125 6.88281 2.49219 8.25 4.25 8.25ZM4.25 3.25C5.26562 3.25 6.125 4.10938 6.125 5.125C6.125 6.17969 5.26562 7 4.25 7C3.19531 7 2.375 6.17969 2.375 5.125C2.375 4.10938 3.19531 3.25 4.25 3.25ZM16.125 10.2812C14.7969 10.2812 14.4844 10.75 13 10.75C11.4766 10.75 11.1641 10.2812 9.83594 10.2812C8.42969 10.2812 7.0625 10.9453 6.24219 12.1172C5.77344 12.8594 5.5 13.7188 5.5 14.6562V16.375C5.5 17.4297 6.32031 18.25 7.375 18.25H18.625C19.6406 18.25 20.5 17.4297 20.5 16.375V14.6562C20.5 13.7188 20.1875 12.8594 19.7188 12.1172C18.8984 10.9453 17.5312 10.2812 16.125 10.2812ZM19.25 16.375C19.25 16.7266 18.9375 17 18.625 17H7.375C7.02344 17 6.75 16.7266 6.75 16.375V14.6562C6.75 13.9922 6.90625 13.3672 7.29688 12.8203C7.80469 12.0391 8.78125 11.5312 9.83594 11.5312C10.9297 11.5312 11.3203 12 13 12C14.6797 12 15.0312 11.5312 16.125 11.5312C17.1797 11.5312 18.1562 12.0391 18.6641 12.8203C19.0547 13.3672 19.2109 13.9922 19.2109 14.6562V16.375H19.25ZM6.63281 10.0078C6.16406 9.69531 5.61719 9.5 5.03125 9.5H3.46875C1.82812 9.5 0.5 10.9062 0.5 12.625C0.5 12.9766 0.773438 13.25 1.125 13.25C1.4375 13.25 1.75 12.9766 1.75 12.625C1.75 11.6094 2.49219 10.75 3.46875 10.75H5.03125C5.22656 10.75 5.42188 10.8281 5.61719 10.9062C5.92969 10.5547 6.24219 10.2812 6.63281 10.0078Z" fill="#484848"/>
</svg>
