<svg xmlns="http://www.w3.org/2000/svg" width="1em" height="1em" viewBox="0 0 24 24">
	<path fill="currentColor" stroke="currentColor" stroke-width="0.7px" fill-rule="evenodd" d="M6.237 4.712a.75.75 0 0 0-.474-1.423l-.555.185c-.57.19-1.055.351-1.439.527c-.409.187-.767.416-1.051.776c-.285.36-.426.76-.515 1.2c-.083.415-.129.923-.183 1.522l-.698 7.67a4.777 4.777 0 0 0-.072.823C1.255 18.611 3.38 20.75 6 20.75a4.751 4.751 0 0 0 4.689-3.986l.219-.078a3.251 3.251 0 0 1 2.184 0l.22.078A4.751 4.751 0 0 0 18 20.75c2.62 0 4.744-2.14 4.75-4.758c0-.28-.025-.556-.073-.823L21.98 7.5c-.054-.6-.1-1.107-.183-1.521c-.089-.441-.23-.842-.515-1.201c-.285-.36-.642-.59-1.051-.776c-.384-.176-.868-.337-1.439-.527l-.555-.185a.75.75 0 0 0-.474 1.423l.518.172c.617.206 1.024.343 1.326.481c.286.13.414.235.5.343c.085.107.157.256.219.564c.065.326.105.753.164 1.401l.415 4.569a4.751 4.751 0 0 0-7.585 2.942a4.75 4.75 0 0 0-2.64 0a4.751 4.751 0 0 0-7.585-2.942l.048-.532l.367-4.037c.059-.648.099-1.075.164-1.4c.062-.309.134-.458.22-.565c.085-.108.213-.212.499-.343c.302-.138.709-.275 1.326-.48zM21.19 15.376l.06.656a3.25 3.25 0 1 1-.06-.656m-18.38 0l-.06.656a3.25 3.25 0 1 0 .06-.656" clip-rule="evenodd" />
</svg>