<svg width="170" height="131" viewBox="0 0 170 131" fill="none" xmlns="http://www.w3.org/2000/svg">
<rect x="97.3483" y="52.2257" width="10.348" height="14.3887" fill="#5599DB"/>
<rect x="107.696" y="55.4232" width="4.21587" height="7.99373" fill="#357ABD"/>
<rect x="93.1324" y="55.4232" width="4.21587" height="7.99373" fill="#357ABD"/>
<rect x="98.1148" y="53.2916" width="8.815" height="1.06583" fill="white"/>
<rect x="153.304" y="52.2257" width="10.348" height="14.3887" fill="#5599DB"/>
<rect x="149.089" y="55.4232" width="4.21587" height="7.99373" fill="#357ABD"/>
<rect x="154.071" y="53.2916" width="8.815" height="1.06583" fill="white"/>
<path d="M43.1661 66.0815H50.094V125.768C47.4104 126.508 45.8939 126.52 43.1661 125.768V66.0815Z" fill="#5599DB"/>
<rect x="41.5199" y="52.2257" width="10.348" height="14.3887" fill="#5599DB"/>
<rect x="51.868" y="55.4232" width="4.21587" height="7.99373" fill="#357ABD"/>
<rect x="37.3041" y="55.4232" width="4.21587" height="7.99373" fill="#357ABD"/>
<rect x="42.2865" y="53.2916" width="8.815" height="1.06583" fill="white"/>
<path d="M55.9561 55.9561C70.5238 57.201 78.6919 57.2017 93.2602 55.9561V63.0082C78.7239 64.3104 70.5374 64.2162 55.9561 63.0082V55.9561Z" fill="#5599DB"/>
<path d="M0 55.9561C14.5677 57.201 22.7358 57.2017 37.3041 55.9561V63.0082C22.7678 64.3104 14.5813 64.2162 0 63.0082V55.9561Z" fill="#5599DB"/>
<path d="M111.912 55.9561C126.48 57.201 134.648 57.2017 149.216 55.9561V63.0082C134.68 64.3104 126.493 64.2162 111.912 63.0082V55.9561Z" fill="#5599DB"/>
<ellipse cx="46.8965" cy="126.034" rx="11.7241" ry="2.93103" fill="#357ABD"/>
<ellipse cx="46.8965" cy="127.1" rx="11.7241" ry="2.93103" fill="#357ABD"/>
<rect x="35.1724" y="126.035" width="23.4483" height="1.06583" fill="#357ABD"/>
<ellipse cx="102.32" cy="126.034" rx="11.7241" ry="2.93103" fill="#357ABD"/>
<ellipse cx="102.32" cy="127.1" rx="11.7241" ry="2.93103" fill="#357ABD"/>
<rect x="90.5956" y="126.035" width="23.4483" height="1.06583" fill="#357ABD"/>
<ellipse cx="158.276" cy="126.034" rx="11.7241" ry="2.93103" fill="#357ABD"/>
<ellipse cx="158.276" cy="127.1" rx="11.7241" ry="2.93103" fill="#357ABD"/>
<rect x="146.552" y="126.035" width="23.4483" height="1.06583" fill="#357ABD"/>
<path d="M43.1661 66.6144H50.094V126.301C47.4104 127.041 45.8939 127.052 43.1661 126.301V66.6144Z" fill="#5599DB"/>
<path d="M99.1223 66.6144H106.05V126.301C103.367 127.041 101.85 127.052 99.1223 126.301V66.6144Z" fill="#5599DB"/>
<path d="M155.078 66.6144H162.006V126.301C159.323 127.041 157.806 127.052 155.078 126.301V66.6144Z" fill="#5599DB"/>
<path d="M130.177 16.5168C130.664 16.9415 130.664 17.6981 130.177 18.1228L115.677 30.7773C114.988 31.379 113.911 30.8893 113.911 29.9743L113.911 4.66529C113.911 3.75021 114.988 3.26057 115.677 3.86227L130.177 16.5168Z" fill="#357ABD"/>
<rect x="53.2916" y="10.1254" width="61.8182" height="14.9216" fill="#357ABD"/>
</svg>
