<svg width="22" height="20" viewBox="0 0 22 20" fill="none" xmlns="http://www.w3.org/2000/svg">
<path d="M20.8569 17.3362L11.993 0.875312C11.3647 -0.291771 9.69107 -0.291771 9.06228 0.875312L0.198898 17.3362C0.0624849 17.5895 -0.00590637 17.8739 0.000399791 18.1616C0.00670595 18.4493 0.0874942 18.7304 0.234879 18.9776C0.382263 19.2247 0.591208 19.4294 0.841319 19.5717C1.09143 19.714 1.37416 19.789 1.66191 19.7894H19.3913C19.6792 19.7895 19.9623 19.7148 20.2128 19.5727C20.4632 19.4306 20.6726 19.2259 20.8202 18.9787C20.9679 18.7315 21.049 18.4502 21.0554 18.1623C21.0618 17.8744 20.9934 17.5897 20.8569 17.3362ZM10.5279 17.241C10.3222 17.241 10.1211 17.18 9.95 17.0657C9.77894 16.9514 9.64562 16.7889 9.56689 16.5989C9.48816 16.4088 9.46756 16.1997 9.5077 15.9979C9.54784 15.7961 9.6469 15.6108 9.79238 15.4653C9.93785 15.3198 10.1232 15.2208 10.325 15.1806C10.5267 15.1405 10.7359 15.1611 10.926 15.2398C11.116 15.3185 11.2785 15.4519 11.3928 15.6229C11.5071 15.794 11.5681 15.9951 11.5681 16.2008C11.5681 16.4767 11.4585 16.7413 11.2634 16.9363C11.0683 17.1314 10.8038 17.241 10.5279 17.241ZM11.6575 6.77938L11.359 13.1245C11.359 13.3452 11.2713 13.5568 11.1153 13.7129C10.9592 13.869 10.7476 13.9566 10.5269 13.9566C10.3062 13.9566 10.0945 13.869 9.93844 13.7129C9.78238 13.5568 9.69471 13.3452 9.69471 13.1245L9.39618 6.78198C9.38947 6.63042 9.41334 6.47906 9.46638 6.33692C9.51941 6.19479 9.60052 6.06478 9.70486 5.95466C9.80921 5.84454 9.93466 5.75655 10.0737 5.69594C10.2128 5.63534 10.3627 5.60335 10.5144 5.60189H10.5253C10.678 5.60182 10.8292 5.63268 10.9697 5.69263C11.1102 5.75258 11.237 5.84037 11.3426 5.9507C11.4483 6.06103 11.5304 6.19162 11.5842 6.33458C11.638 6.47754 11.6622 6.62991 11.6554 6.7825L11.6575 6.77938Z" fill="#FF5A60"/>
</svg>
